<?xml version="1.0" encoding="UTF-8" standalone="no"?>
<!DOCTYPE svg PUBLIC "-//W3C//DTD SVG 1.1//EN"
 "http://www.w3.org/Graphics/SVG/1.1/DTD/svg11.dtd">
<!-- Generated by graphviz version 2.43.0 (0)
 -->
<!-- Title: include/BoardGame_Classes.h Pages: 1 -->
<svg width="256pt" height="148pt"
 viewBox="0.00 0.00 255.50 148.00" xmlns="http://www.w3.org/2000/svg" xmlns:xlink="http://www.w3.org/1999/xlink">
<g id="graph0" class="graph" transform="scale(1 1) rotate(0) translate(4 144)">
<title>include/BoardGame_Classes.h</title>
<!-- Node1 -->
<g id="Node000001" class="node">
<title>Node1</title>
<g id="a_Node000001"><a xlink:title=" ">
<polygon fill="#999999" stroke="#666666" points="247.5,-140 83.5,-140 83.5,-121 247.5,-121 247.5,-140"/>
<text text-anchor="middle" x="165.5" y="-128" font-family="Helvetica,sans-Serif" font-size="10.00">include/BoardGame_Classes.h</text>
</a>
</g>
</g>
<!-- Node2 -->
<g id="Node000002" class="node">
<title>Node2</title>
<g id="a_Node000002"><a xlink:href="Infinity__XO__Classes_8h.html" target="_top" xlink:title=" ">
<polygon fill="white" stroke="#666666" points="178,-85 71,-85 71,-55 178,-55 178,-85"/>
<text text-anchor="start" x="79" y="-73" font-family="Helvetica,sans-Serif" font-size="10.00">include/Infinity_XO</text>
<text text-anchor="middle" x="124.5" y="-62" font-family="Helvetica,sans-Serif" font-size="10.00">_Classes.h</text>
</a>
</g>
</g>
<!-- Node1&#45;&gt;Node2 -->
<g id="edge1_Node000001_Node000002" class="edge">
<title>Node1&#45;&gt;Node2</title>
<g id="a_edge1_Node000001_Node000002"><a xlink:title=" ">
<path fill="none" stroke="#63b8ff" d="M153.66,-112.61C147.55,-103.89 140.19,-93.39 134.39,-85.11"/>
<polygon fill="#63b8ff" stroke="#63b8ff" points="150.84,-114.69 159.45,-120.87 156.58,-110.67 150.84,-114.69"/>
</a>
</g>
</g>
<!-- Node4 -->
<g id="Node000004" class="node">
<title>Node4</title>
<g id="a_Node000004"><a xlink:href="main_8cpp.html" target="_top" xlink:title="Entry point for the FCAI X&#45;O (Tic&#45;Tac&#45;Toe) game.">
<polygon fill="white" stroke="#666666" points="246,-19 167,-19 167,0 246,0 246,-19"/>
<text text-anchor="middle" x="206.5" y="-7" font-family="Helvetica,sans-Serif" font-size="10.00">src/main.cpp</text>
</a>
</g>
</g>
<!-- Node1&#45;&gt;Node4 -->
<g id="edge4_Node000001_Node000004" class="edge">
<title>Node1&#45;&gt;Node4</title>
<g id="a_edge4_Node000001_Node000004"><a xlink:title=" ">
<path fill="none" stroke="#63b8ff" d="M174.78,-111.73C178.73,-103.71 183.19,-94.02 186.5,-85 194.99,-61.87 201.61,-33.5 204.66,-19.37"/>
<polygon fill="#63b8ff" stroke="#63b8ff" points="171.56,-110.33 170.16,-120.83 177.81,-113.5 171.56,-110.33"/>
</a>
</g>
</g>
<!-- Node3 -->
<g id="Node000003" class="node">
<title>Node3</title>
<g id="a_Node000003"><a xlink:href="Infinity__XO__Classes_8cpp.html" target="_top" xlink:title=" ">
<polygon fill="white" stroke="#666666" points="149,-19 0,-19 0,0 149,0 149,-19"/>
<text text-anchor="middle" x="74.5" y="-7" font-family="Helvetica,sans-Serif" font-size="10.00">src/Infinity_XO_Classes.cpp</text>
</a>
</g>
</g>
<!-- Node2&#45;&gt;Node3 -->
<g id="edge2_Node000002_Node000003" class="edge">
<title>Node2&#45;&gt;Node3</title>
<g id="a_edge2_Node000002_Node000003"><a xlink:title=" ">
<path fill="none" stroke="#63b8ff" d="M105.77,-47.09C97.51,-37.42 88.27,-26.61 81.99,-19.27"/>
<polygon fill="#63b8ff" stroke="#63b8ff" points="103.24,-49.51 112.4,-54.84 108.56,-44.96 103.24,-49.51"/>
</a>
</g>
</g>
<!-- Node2&#45;&gt;Node4 -->
<g id="edge3_Node000002_Node000004" class="edge">
<title>Node2&#45;&gt;Node4</title>
<g id="a_edge3_Node000002_Node000004"><a xlink:title=" ">
<path fill="none" stroke="#63b8ff" d="M152.79,-48.82C166.93,-38.73 183.3,-27.05 194.21,-19.27"/>
<polygon fill="#63b8ff" stroke="#63b8ff" points="150.46,-46.18 144.35,-54.84 154.52,-51.88 150.46,-46.18"/>
</a>
</g>
</g>
</g>
</svg>
