<?xml version="1.0" encoding="UTF-8" standalone="no"?>
<!DOCTYPE svg PUBLIC "-//W3C//DTD SVG 1.1//EN"
 "http://www.w3.org/Graphics/SVG/1.1/DTD/svg11.dtd">
<!-- Generated by graphviz version 2.43.0 (0)
 -->
<!-- Title: include/BoardGame_Classes.h Pages: 1 -->
<svg width="2352pt" height="225pt"
 viewBox="0.00 0.00 2351.50 225.00" xmlns="http://www.w3.org/2000/svg" xmlns:xlink="http://www.w3.org/1999/xlink">
<g id="graph0" class="graph" transform="scale(1 1) rotate(0) translate(4 221)">
<title>include/BoardGame_Classes.h</title>
<!-- Node1 -->
<g id="Node000001" class="node">
<title>Node1</title>
<g id="a_Node000001"><a xlink:title=" ">
<polygon fill="#999999" stroke="#666666" points="1203,-217 1039,-217 1039,-198 1203,-198 1203,-217"/>
<text text-anchor="middle" x="1121" y="-205" font-family="Helvetica,sans-Serif" font-size="10.00">include/BoardGame_Classes.h</text>
</a>
</g>
</g>
<!-- Node2 -->
<g id="Node000002" class="node">
<title>Node2</title>
<g id="a_Node000002"><a xlink:href="AiPlayer_8h.html" target="_top" xlink:title=" ">
<polygon fill="white" stroke="#666666" points="139,-156.5 35,-156.5 35,-137.5 139,-137.5 139,-156.5"/>
<text text-anchor="middle" x="87" y="-144.5" font-family="Helvetica,sans-Serif" font-size="10.00">include/AiPlayer.h</text>
</a>
</g>
</g>
<!-- Node1&#45;&gt;Node2 -->
<g id="edge1_Node000001_Node000002" class="edge">
<title>Node1&#45;&gt;Node2</title>
<g id="a_edge1_Node000001_Node000002"><a xlink:title=" ">
<path fill="none" stroke="#63b8ff" d="M1028.96,-204.91C861.22,-201.38 494.68,-190.81 187,-162 171.38,-160.54 154.46,-158.39 139.05,-156.21"/>
<polygon fill="#63b8ff" stroke="#63b8ff" points="1028.92,-208.4 1038.99,-205.11 1029.06,-201.41 1028.92,-208.4"/>
</a>
</g>
</g>
<!-- Node3 -->
<g id="Node000003" class="node">
<title>Node3</title>
<g id="a_Node000003"><a xlink:href="Four__Four__XO_8h.html" target="_top" xlink:title=" ">
<polygon fill="white" stroke="#666666" points="130,-90.5 0,-90.5 0,-71.5 130,-71.5 130,-90.5"/>
<text text-anchor="middle" x="65" y="-78.5" font-family="Helvetica,sans-Serif" font-size="10.00">include/Four_Four_XO.h</text>
</a>
</g>
</g>
<!-- Node1&#45;&gt;Node3 -->
<g id="edge11_Node000001_Node000003" class="edge">
<title>Node1&#45;&gt;Node3</title>
<g id="a_edge11_Node000001_Node000003"><a xlink:title=" ">
<path fill="none" stroke="#63b8ff" d="M1028.41,-206.32C833.09,-205.2 384.73,-198.59 237,-162 174.34,-146.48 106.81,-107.83 78.59,-90.57"/>
<polygon fill="#63b8ff" stroke="#63b8ff" points="1028.63,-209.82 1038.65,-206.37 1028.67,-202.82 1028.63,-209.82"/>
</a>
</g>
</g>
<!-- Node5 -->
<g id="Node000005" class="node">
<title>Node5</title>
<g id="a_Node000005"><a xlink:href="main_8cpp.html" target="_top" xlink:title="Entry point for the FCAI X&#45;O (Tic&#45;Tac&#45;Toe) game.">
<polygon fill="white" stroke="#666666" points="1015.5,-24.5 936.5,-24.5 936.5,-5.5 1015.5,-5.5 1015.5,-24.5"/>
<text text-anchor="middle" x="976" y="-12.5" font-family="Helvetica,sans-Serif" font-size="10.00">src/main.cpp</text>
</a>
</g>
</g>
<!-- Node1&#45;&gt;Node5 -->
<g id="edge57_Node000001_Node000005" class="edge">
<title>Node1&#45;&gt;Node5</title>
<g id="a_edge57_Node000001_Node000005"><a xlink:title=" ">
<path fill="none" stroke="#63b8ff" d="M1035.67,-194.85C1016.59,-188.21 998.37,-177.92 986,-162 953.43,-120.06 967.37,-49.29 973.59,-24.72"/>
<polygon fill="#63b8ff" stroke="#63b8ff" points="1034.8,-198.24 1045.39,-197.91 1036.9,-191.57 1034.8,-198.24"/>
</a>
</g>
</g>
<!-- Node6 -->
<g id="Node000006" class="node">
<title>Node6</title>
<g id="a_Node000006"><a xlink:href="Diamond__Tic__Tac__Toe_8h.html" target="_top" xlink:title=" ">
<polygon fill="white" stroke="#666666" points="1915.5,-96 1796.5,-96 1796.5,-66 1915.5,-66 1915.5,-96"/>
<text text-anchor="start" x="1804.5" y="-84" font-family="Helvetica,sans-Serif" font-size="10.00">include/Diamond_Tic</text>
<text text-anchor="middle" x="1856" y="-73" font-family="Helvetica,sans-Serif" font-size="10.00">_Tac_Toe.h</text>
</a>
</g>
</g>
<!-- Node1&#45;&gt;Node6 -->
<g id="edge5_Node000001_Node000006" class="edge">
<title>Node1&#45;&gt;Node6</title>
<g id="a_edge5_Node000001_Node000006"><a xlink:title=" ">
<path fill="none" stroke="#63b8ff" d="M1213.31,-205.66C1390.9,-203.31 1766.98,-194.51 1816,-162 1838.78,-146.9 1849.14,-114.75 1853.4,-96.13"/>
<polygon fill="#63b8ff" stroke="#63b8ff" points="1213.15,-202.16 1203.19,-205.79 1213.24,-209.16 1213.15,-202.16"/>
</a>
</g>
</g>
<!-- Node8 -->
<g id="Node000008" class="node">
<title>Node8</title>
<g id="a_Node000008"><a xlink:href="Four-in-a-row_8h.html" target="_top" xlink:title="Defines the X&#45;O (Tic&#45;Tac&#45;Toe) specific classes that extend the generic board game framework.">
<polygon fill="white" stroke="#666666" points="1657,-156.5 1529,-156.5 1529,-137.5 1657,-137.5 1657,-156.5"/>
<text text-anchor="middle" x="1593" y="-144.5" font-family="Helvetica,sans-Serif" font-size="10.00">include/Four&#45;in&#45;a&#45;row.h</text>
</a>
</g>
</g>
<!-- Node1&#45;&gt;Node8 -->
<g id="edge8_Node000001_Node000008" class="edge">
<title>Node1&#45;&gt;Node8</title>
<g id="a_edge8_Node000001_Node000008"><a xlink:title=" ">
<path fill="none" stroke="#63b8ff" d="M1213.19,-198.29C1294.23,-190.57 1415.25,-177.86 1520,-162 1530.21,-160.45 1541.16,-158.51 1551.4,-156.56"/>
<polygon fill="#63b8ff" stroke="#63b8ff" points="1212.64,-194.82 1203.01,-199.25 1213.3,-201.79 1212.64,-194.82"/>
</a>
</g>
</g>
<!-- Node10 -->
<g id="Node000010" class="node">
<title>Node10</title>
<g id="a_Node000010"><a xlink:href="Infinity__XO__Classes_8h.html" target="_top" xlink:title=" ">
<polygon fill="white" stroke="#666666" points="353.5,-162 246.5,-162 246.5,-132 353.5,-132 353.5,-162"/>
<text text-anchor="start" x="254.5" y="-150" font-family="Helvetica,sans-Serif" font-size="10.00">include/Infinity_XO</text>
<text text-anchor="middle" x="300" y="-139" font-family="Helvetica,sans-Serif" font-size="10.00">_Classes.h</text>
</a>
</g>
</g>
<!-- Node1&#45;&gt;Node10 -->
<g id="edge12_Node000001_Node000010" class="edge">
<title>Node1&#45;&gt;Node10</title>
<g id="a_edge12_Node000001_Node000010"><a xlink:title=" ">
<path fill="none" stroke="#63b8ff" d="M1028.78,-205.94C885.45,-203.98 600.84,-195.74 362,-162 359.27,-161.61 356.48,-161.17 353.67,-160.68"/>
<polygon fill="#63b8ff" stroke="#63b8ff" points="1028.81,-209.44 1038.85,-206.07 1028.9,-202.44 1028.81,-209.44"/>
</a>
</g>
</g>
<!-- Node12 -->
<g id="Node000012" class="node">
<title>Node12</title>
<g id="a_Node000012"><a xlink:href="Memory__Tic-Tac-Toe_8h.html" target="_top" xlink:title=" ">
<polygon fill="white" stroke="#666666" points="1109.5,-162 994.5,-162 994.5,-132 1109.5,-132 1109.5,-162"/>
<text text-anchor="start" x="1002.5" y="-150" font-family="Helvetica,sans-Serif" font-size="10.00">include/Memory_Tic</text>
<text text-anchor="middle" x="1052" y="-139" font-family="Helvetica,sans-Serif" font-size="10.00">&#45;Tac&#45;Toe.h</text>
</a>
</g>
</g>
<!-- Node1&#45;&gt;Node12 -->
<g id="edge15_Node000001_Node000012" class="edge">
<title>Node1&#45;&gt;Node12</title>
<g id="a_edge15_Node000001_Node000012"><a xlink:title=" ">
<path fill="none" stroke="#63b8ff" d="M1102.99,-191.23C1092.37,-182.23 1079.02,-170.91 1068.65,-162.11"/>
<polygon fill="#63b8ff" stroke="#63b8ff" points="1100.93,-194.07 1110.82,-197.87 1105.45,-188.73 1100.93,-194.07"/>
</a>
</g>
</g>
<!-- Node14 -->
<g id="Node000014" class="node">
<title>Node14</title>
<g id="a_Node000014"><a xlink:href="Misere__Tic__Tac__Toe_8h.html" target="_top" xlink:title="Defines the X&#45;O (Tic&#45;Tac&#45;Toe) specific classes that extend the generic board game framework.">
<polygon fill="white" stroke="#666666" points="2117.5,-96 2010.5,-96 2010.5,-66 2117.5,-66 2117.5,-96"/>
<text text-anchor="start" x="2018.5" y="-84" font-family="Helvetica,sans-Serif" font-size="10.00">include/Misere_Tic</text>
<text text-anchor="middle" x="2064" y="-73" font-family="Helvetica,sans-Serif" font-size="10.00">_Tac_Toe.h</text>
</a>
</g>
</g>
<!-- Node1&#45;&gt;Node14 -->
<g id="edge18_Node000001_Node000014" class="edge">
<title>Node1&#45;&gt;Node14</title>
<g id="a_edge18_Node000001_Node000014"><a xlink:title=" ">
<path fill="none" stroke="#63b8ff" d="M1213.51,-204.06C1380.2,-199.11 1724.56,-186.27 1842,-162 1912.81,-147.37 1991.51,-114.88 2033.56,-96.12"/>
<polygon fill="#63b8ff" stroke="#63b8ff" points="1213.17,-200.57 1203.28,-204.36 1213.38,-207.56 1213.17,-200.57"/>
</a>
</g>
</g>
<!-- Node16 -->
<g id="Node000016" class="node">
<title>Node16</title>
<g id="a_Node000016"><a xlink:href="Numerical__X__O_8h.html" target="_top" xlink:title=" ">
<polygon fill="white" stroke="#666666" points="645.5,-156.5 506.5,-156.5 506.5,-137.5 645.5,-137.5 645.5,-156.5"/>
<text text-anchor="middle" x="576" y="-144.5" font-family="Helvetica,sans-Serif" font-size="10.00">include/Numerical_X_O.h</text>
</a>
</g>
</g>
<!-- Node1&#45;&gt;Node16 -->
<g id="edge21_Node000001_Node000016" class="edge">
<title>Node1&#45;&gt;Node16</title>
<g id="a_edge21_Node000001_Node000016"><a xlink:title=" ">
<path fill="none" stroke="#63b8ff" d="M1028.63,-199.87C934.42,-192.6 784.17,-179.58 655,-162 643.82,-160.48 631.81,-158.52 620.61,-156.55"/>
<polygon fill="#63b8ff" stroke="#63b8ff" points="1028.46,-203.37 1038.7,-200.65 1028.99,-196.39 1028.46,-203.37"/>
</a>
</g>
</g>
<!-- Node18 -->
<g id="Node000018" class="node">
<title>Node18</title>
<g id="a_Node000018"><a xlink:href="Obstacles__XO_8h.html" target="_top" xlink:title="Defines the Obstacles Tic&#45;Tac&#45;Toe game classes.">
<polygon fill="white" stroke="#666666" points="937.5,-156.5 806.5,-156.5 806.5,-137.5 937.5,-137.5 937.5,-156.5"/>
<text text-anchor="middle" x="872" y="-144.5" font-family="Helvetica,sans-Serif" font-size="10.00">include/Obstacles_XO.h</text>
</a>
</g>
</g>
<!-- Node1&#45;&gt;Node18 -->
<g id="edge24_Node000001_Node000018" class="edge">
<title>Node1&#45;&gt;Node18</title>
<g id="a_edge24_Node000001_Node000018"><a xlink:title=" ">
<path fill="none" stroke="#63b8ff" d="M1074.95,-195.68C1026.83,-184.38 952.34,-166.88 908.25,-156.52"/>
<polygon fill="#63b8ff" stroke="#63b8ff" points="1074.26,-199.11 1084.79,-197.99 1075.86,-192.3 1074.26,-199.11"/>
</a>
</g>
</g>
<!-- Node20 -->
<g id="Node000020" class="node">
<title>Node20</title>
<g id="a_Node000020"><a xlink:href="Pyramid__XO_8h.html" target="_top" xlink:title=" ">
<polygon fill="white" stroke="#666666" points="2258.5,-90.5 2135.5,-90.5 2135.5,-71.5 2258.5,-71.5 2258.5,-90.5"/>
<text text-anchor="middle" x="2197" y="-78.5" font-family="Helvetica,sans-Serif" font-size="10.00">include/Pyramid_XO.h</text>
</a>
</g>
</g>
<!-- Node1&#45;&gt;Node20 -->
<g id="edge27_Node000001_Node000020" class="edge">
<title>Node1&#45;&gt;Node20</title>
<g id="a_edge27_Node000001_Node000020"><a xlink:title=" ">
<path fill="none" stroke="#63b8ff" d="M1213.42,-203.7C1391.13,-197.91 1774.42,-183.35 1905,-162 2006.41,-145.42 2123.23,-107.51 2172.77,-90.51"/>
<polygon fill="#63b8ff" stroke="#63b8ff" points="1213.19,-200.2 1203.31,-204.03 1213.42,-207.2 1213.19,-200.2"/>
</a>
</g>
</g>
<!-- Node21 -->
<g id="Node000021" class="node">
<title>Node21</title>
<g id="a_Node000021"><a xlink:href="Pyramid__XO_8cpp.html" target="_top" xlink:title=" ">
<polygon fill="white" stroke="#666666" points="2343.5,-24.5 2230.5,-24.5 2230.5,-5.5 2343.5,-5.5 2343.5,-24.5"/>
<text text-anchor="middle" x="2287" y="-12.5" font-family="Helvetica,sans-Serif" font-size="10.00">src/Pyramid_XO.cpp</text>
</a>
</g>
</g>
<!-- Node1&#45;&gt;Node21 -->
<g id="edge56_Node000001_Node000021" class="edge">
<title>Node1&#45;&gt;Node21</title>
<g id="a_edge56_Node000001_Node000021"><a xlink:title=" ">
<path fill="none" stroke="#63b8ff" d="M1213.27,-206.57C1371.5,-205.61 1704.45,-198.89 1983,-162 2121.35,-143.68 2202.3,-204.56 2290,-96 2306.77,-75.24 2296.7,-40.62 2290.61,-24.61"/>
<polygon fill="#63b8ff" stroke="#63b8ff" points="1213.09,-203.07 1203.11,-206.63 1213.13,-210.07 1213.09,-203.07"/>
</a>
</g>
</g>
<!-- Node22 -->
<g id="Node000022" class="node">
<title>Node22</title>
<g id="a_Node000022"><a xlink:href="SUS__Classes_8h.html" target="_top" xlink:title=" ">
<polygon fill="white" stroke="#666666" points="1254,-156.5 1128,-156.5 1128,-137.5 1254,-137.5 1254,-156.5"/>
<text text-anchor="middle" x="1191" y="-144.5" font-family="Helvetica,sans-Serif" font-size="10.00">include/SUS_Classes.h</text>
</a>
</g>
</g>
<!-- Node1&#45;&gt;Node22 -->
<g id="edge30_Node000001_Node000022" class="edge">
<title>Node1&#45;&gt;Node22</title>
<g id="a_edge30_Node000001_Node000022"><a xlink:title=" ">
<path fill="none" stroke="#63b8ff" d="M1139.28,-191.22C1152.45,-180.21 1169.76,-165.75 1180.63,-156.67"/>
<polygon fill="#63b8ff" stroke="#63b8ff" points="1136.76,-188.77 1131.33,-197.87 1141.25,-194.14 1136.76,-188.77"/>
</a>
</g>
</g>
<!-- Node24 -->
<g id="Node000024" class="node">
<title>Node24</title>
<g id="a_Node000024"><a xlink:href="Smart__Player_8h.html" target="_top" xlink:title=" ">
<polygon fill="white" stroke="#666666" points="1807,-156.5 1679,-156.5 1679,-137.5 1807,-137.5 1807,-156.5"/>
<text text-anchor="middle" x="1743" y="-144.5" font-family="Helvetica,sans-Serif" font-size="10.00">include/Smart_Player.h</text>
</a>
</g>
</g>
<!-- Node1&#45;&gt;Node24 -->
<g id="edge33_Node000001_Node000024" class="edge">
<title>Node1&#45;&gt;Node24</title>
<g id="a_edge33_Node000001_Node000024"><a xlink:title=" ">
<path fill="none" stroke="#63b8ff" d="M1213.72,-201.72C1322.4,-195.46 1507.8,-182.79 1666,-162 1677.18,-160.53 1689.21,-158.54 1700.35,-156.53"/>
<polygon fill="#63b8ff" stroke="#63b8ff" points="1213.23,-198.24 1203.44,-202.3 1213.62,-205.23 1213.23,-198.24"/>
</a>
</g>
</g>
<!-- Node27 -->
<g id="Node000027" class="node">
<title>Node27</title>
<g id="a_Node000027"><a xlink:href="Ultimate__Tic__Tac__Toe_8h.html" target="_top" xlink:title=" ">
<polygon fill="white" stroke="#666666" points="488.5,-162 371.5,-162 371.5,-132 488.5,-132 488.5,-162"/>
<text text-anchor="start" x="379.5" y="-150" font-family="Helvetica,sans-Serif" font-size="10.00">include/Ultimate_Tic</text>
<text text-anchor="middle" x="430" y="-139" font-family="Helvetica,sans-Serif" font-size="10.00">_Tac_Toe.h</text>
</a>
</g>
</g>
<!-- Node1&#45;&gt;Node27 -->
<g id="edge45_Node000001_Node000027" class="edge">
<title>Node1&#45;&gt;Node27</title>
<g id="a_edge45_Node000001_Node000027"><a xlink:title=" ">
<path fill="none" stroke="#63b8ff" d="M1028.8,-203.81C906.68,-199.36 684.8,-188.2 497,-162 494.29,-161.62 491.53,-161.2 488.75,-160.74"/>
<polygon fill="#63b8ff" stroke="#63b8ff" points="1028.74,-207.31 1038.86,-204.17 1028.99,-200.31 1028.74,-207.31"/>
</a>
</g>
</g>
<!-- Node29 -->
<g id="Node000029" class="node">
<title>Node29</title>
<g id="a_Node000029"><a xlink:href="Words__XO_8h.html" target="_top" xlink:title="Defines the Word Tic&#45;Tac&#45;Toe specific classes that extend the generic board game framework.">
<polygon fill="white" stroke="#666666" points="1385.5,-156.5 1272.5,-156.5 1272.5,-137.5 1385.5,-137.5 1385.5,-156.5"/>
<text text-anchor="middle" x="1329" y="-144.5" font-family="Helvetica,sans-Serif" font-size="10.00">include/Words_XO.h</text>
</a>
</g>
</g>
<!-- Node1&#45;&gt;Node29 -->
<g id="edge48_Node000001_Node000029" class="edge">
<title>Node1&#45;&gt;Node29</title>
<g id="a_edge48_Node000001_Node000029"><a xlink:title=" ">
<path fill="none" stroke="#63b8ff" d="M1160.99,-195.25C1201.22,-183.94 1262.35,-166.75 1298.72,-156.52"/>
<polygon fill="#63b8ff" stroke="#63b8ff" points="1159.92,-191.92 1151.24,-197.99 1161.82,-198.66 1159.92,-191.92"/>
</a>
</g>
</g>
<!-- Node30 -->
<g id="Node000030" class="node">
<title>Node30</title>
<g id="a_Node000030"><a xlink:href="X__O__5x5_8h.html" target="_top" xlink:title=" ">
<polygon fill="white" stroke="#666666" points="1510.5,-156.5 1403.5,-156.5 1403.5,-137.5 1510.5,-137.5 1510.5,-156.5"/>
<text text-anchor="middle" x="1457" y="-144.5" font-family="Helvetica,sans-Serif" font-size="10.00">include/X_O_5x5.h</text>
</a>
</g>
</g>
<!-- Node1&#45;&gt;Node30 -->
<g id="edge51_Node000001_Node000030" class="edge">
<title>Node1&#45;&gt;Node30</title>
<g id="a_edge51_Node000001_Node000030"><a xlink:title=" ">
<path fill="none" stroke="#63b8ff" d="M1190.05,-196.48C1245.58,-188.13 1325.52,-175.47 1395,-162 1403.45,-160.36 1412.51,-158.42 1421.02,-156.52"/>
<polygon fill="#63b8ff" stroke="#63b8ff" points="1189.35,-193.05 1179.98,-197.99 1190.39,-199.97 1189.35,-193.05"/>
</a>
</g>
</g>
<!-- Node31 -->
<g id="Node000031" class="node">
<title>Node31</title>
<g id="a_Node000031"><a xlink:href="gamesMenu_8h.html" target="_top" xlink:title=" ">
<polygon fill="white" stroke="#666666" points="788,-156.5 664,-156.5 664,-137.5 788,-137.5 788,-156.5"/>
<text text-anchor="middle" x="726" y="-144.5" font-family="Helvetica,sans-Serif" font-size="10.00">include/gamesMenu.h</text>
</a>
</g>
</g>
<!-- Node1&#45;&gt;Node31 -->
<g id="edge54_Node000001_Node000031" class="edge">
<title>Node1&#45;&gt;Node31</title>
<g id="a_edge54_Node000001_Node000031"><a xlink:title=" ">
<path fill="none" stroke="#63b8ff" d="M1040.64,-196.68C975.18,-188.38 880.42,-175.68 798,-162 788.2,-160.37 777.69,-158.44 767.81,-156.53"/>
<polygon fill="#63b8ff" stroke="#63b8ff" points="1040.53,-200.19 1050.89,-197.97 1041.41,-193.25 1040.53,-200.19"/>
</a>
</g>
</g>
<!-- Node2&#45;&gt;Node3 -->
<g id="edge2_Node000002_Node000003" class="edge">
<title>Node2&#45;&gt;Node3</title>
<g id="a_edge2_Node000002_Node000003"><a xlink:title=" ">
<path fill="none" stroke="#63b8ff" d="M80.75,-127.82C76.6,-115.74 71.33,-100.41 68.06,-90.91"/>
<polygon fill="#63b8ff" stroke="#63b8ff" points="77.47,-129.05 84.03,-137.37 84.09,-126.77 77.47,-129.05"/>
</a>
</g>
</g>
<!-- Node4 -->
<g id="Node000004" class="node">
<title>Node4</title>
<g id="a_Node000004"><a xlink:href="Four__Four__XO_8cpp.html" target="_top" xlink:title=" ">
<polygon fill="white" stroke="#666666" points="125,-24.5 5,-24.5 5,-5.5 125,-5.5 125,-24.5"/>
<text text-anchor="middle" x="65" y="-12.5" font-family="Helvetica,sans-Serif" font-size="10.00">src/Four_Four_XO.cpp</text>
</a>
</g>
</g>
<!-- Node3&#45;&gt;Node4 -->
<g id="edge3_Node000003_Node000004" class="edge">
<title>Node3&#45;&gt;Node4</title>
<g id="a_edge3_Node000003_Node000004"><a xlink:title=" ">
<path fill="none" stroke="#63b8ff" d="M65,-61.08C65,-49.13 65,-34.22 65,-24.91"/>
<polygon fill="#63b8ff" stroke="#63b8ff" points="61.5,-61.37 65,-71.37 68.5,-61.37 61.5,-61.37"/>
</a>
</g>
</g>
<!-- Node3&#45;&gt;Node5 -->
<g id="edge4_Node000003_Node000005" class="edge">
<title>Node3&#45;&gt;Node5</title>
<g id="a_edge4_Node000003_Node000005"><a xlink:title=" ">
<path fill="none" stroke="#63b8ff" d="M115.11,-69.63C123.08,-68.24 131.24,-66.96 139,-66 444.18,-28.17 815.65,-18.73 936.19,-16.58"/>
<polygon fill="#63b8ff" stroke="#63b8ff" points="114.39,-66.2 105.18,-71.44 115.64,-73.09 114.39,-66.2"/>
</a>
</g>
</g>
<!-- Node6&#45;&gt;Node5 -->
<g id="edge7_Node000006_Node000005" class="edge">
<title>Node6&#45;&gt;Node5</title>
<g id="a_edge7_Node000006_Node000005"><a xlink:title=" ">
<path fill="none" stroke="#63b8ff" d="M1786.15,-65.88C1485.25,-26.6 1132.9,-18.24 1015.9,-16.46"/>
<polygon fill="#63b8ff" stroke="#63b8ff" points="1786.01,-69.39 1796.38,-67.23 1786.92,-62.45 1786.01,-69.39"/>
</a>
</g>
</g>
<!-- Node7 -->
<g id="Node000007" class="node">
<title>Node7</title>
<g id="a_Node000007"><a xlink:href="Diamond__Tic__Tac__Toe_8cpp.html" target="_top" xlink:title=" ">
<polygon fill="white" stroke="#666666" points="1934.5,-30 1815.5,-30 1815.5,0 1934.5,0 1934.5,-30"/>
<text text-anchor="start" x="1823.5" y="-18" font-family="Helvetica,sans-Serif" font-size="10.00">src/Diamond_Tic_Tac</text>
<text text-anchor="middle" x="1875" y="-7" font-family="Helvetica,sans-Serif" font-size="10.00">_Toe.cpp</text>
</a>
</g>
</g>
<!-- Node6&#45;&gt;Node7 -->
<g id="edge6_Node000006_Node000007" class="edge">
<title>Node6&#45;&gt;Node7</title>
<g id="a_edge6_Node000006_Node000007"><a xlink:title=" ">
<path fill="none" stroke="#63b8ff" d="M1863.09,-56.11C1865.69,-47.38 1868.53,-37.78 1870.8,-30.16"/>
<polygon fill="#63b8ff" stroke="#63b8ff" points="1859.71,-55.21 1860.22,-65.8 1866.42,-57.21 1859.71,-55.21"/>
</a>
</g>
</g>
<!-- Node8&#45;&gt;Node5 -->
<g id="edge10_Node000008_Node000005" class="edge">
<title>Node8&#45;&gt;Node5</title>
<g id="a_edge10_Node000008_Node000005"><a xlink:title=" ">
<path fill="none" stroke="#63b8ff" d="M1575.64,-130.57C1550.54,-108.41 1506.08,-69.79 1497,-66 1409.99,-29.7 1121.74,-19.4 1015.65,-16.8"/>
<polygon fill="#63b8ff" stroke="#63b8ff" points="1573.53,-133.38 1583.34,-137.39 1578.17,-128.14 1573.53,-133.38"/>
</a>
</g>
</g>
<!-- Node9 -->
<g id="Node000009" class="node">
<title>Node9</title>
<g id="a_Node000009"><a xlink:href="Four-in-a-row_8cpp.html" target="_top" xlink:title=" ">
<polygon fill="white" stroke="#666666" points="1778.5,-90.5 1659.5,-90.5 1659.5,-71.5 1778.5,-71.5 1778.5,-90.5"/>
<text text-anchor="middle" x="1719" y="-78.5" font-family="Helvetica,sans-Serif" font-size="10.00">src/Four&#45;in&#45;a&#45;row.cpp</text>
</a>
</g>
</g>
<!-- Node8&#45;&gt;Node9 -->
<g id="edge9_Node000008_Node000009" class="edge">
<title>Node8&#45;&gt;Node9</title>
<g id="a_edge9_Node000008_Node000009"><a xlink:title=" ">
<path fill="none" stroke="#63b8ff" d="M1619.19,-132.69C1644.02,-120.09 1680.58,-101.51 1701.87,-90.7"/>
<polygon fill="#63b8ff" stroke="#63b8ff" points="1617.32,-129.72 1609.99,-137.37 1620.49,-135.96 1617.32,-129.72"/>
</a>
</g>
</g>
<!-- Node10&#45;&gt;Node5 -->
<g id="edge14_Node000010_Node000005" class="edge">
<title>Node10&#45;&gt;Node5</title>
<g id="a_edge14_Node000010_Node000005"><a xlink:title=" ">
<path fill="none" stroke="#63b8ff" d="M313.58,-123.08C326.15,-104.2 346.68,-78.55 372,-66 471.57,-16.63 818.1,-14.69 936.21,-15.52"/>
<polygon fill="#63b8ff" stroke="#63b8ff" points="310.5,-121.41 308.07,-131.73 316.4,-125.18 310.5,-121.41"/>
</a>
</g>
</g>
<!-- Node11 -->
<g id="Node000011" class="node">
<title>Node11</title>
<g id="a_Node000011"><a xlink:href="Infinity__XO__Classes_8cpp.html" target="_top" xlink:title=" ">
<polygon fill="white" stroke="#666666" points="297.5,-90.5 148.5,-90.5 148.5,-71.5 297.5,-71.5 297.5,-90.5"/>
<text text-anchor="middle" x="223" y="-78.5" font-family="Helvetica,sans-Serif" font-size="10.00">src/Infinity_XO_Classes.cpp</text>
</a>
</g>
</g>
<!-- Node10&#45;&gt;Node11 -->
<g id="edge13_Node000010_Node000011" class="edge">
<title>Node10&#45;&gt;Node11</title>
<g id="a_edge13_Node000010_Node000011"><a xlink:title=" ">
<path fill="none" stroke="#63b8ff" d="M275.05,-125.26C261.04,-113.61 244.28,-99.69 233.64,-90.84"/>
<polygon fill="#63b8ff" stroke="#63b8ff" points="272.98,-128.1 282.91,-131.8 277.46,-122.71 272.98,-128.1"/>
</a>
</g>
</g>
<!-- Node12&#45;&gt;Node5 -->
<g id="edge17_Node000012_Node000005" class="edge">
<title>Node12&#45;&gt;Node5</title>
<g id="a_edge17_Node000012_Node000005"><a xlink:title=" ">
<path fill="none" stroke="#63b8ff" d="M1025.23,-125.16C1016.14,-116.92 1006.61,-106.83 1000,-96 985.64,-72.49 979.38,-39.81 977.1,-24.52"/>
<polygon fill="#63b8ff" stroke="#63b8ff" points="1023.17,-128.01 1033.03,-131.89 1027.75,-122.71 1023.17,-128.01"/>
</a>
</g>
</g>
<!-- Node13 -->
<g id="Node000013" class="node">
<title>Node13</title>
<g id="a_Node000013"><a xlink:href="Memory__Tic-Tac-Toe_8cpp.html" target="_top" xlink:title=" ">
<polygon fill="white" stroke="#666666" points="1155.5,-96 1042.5,-96 1042.5,-66 1155.5,-66 1155.5,-96"/>
<text text-anchor="start" x="1050.5" y="-84" font-family="Helvetica,sans-Serif" font-size="10.00">src/Memory_Tic&#45;Tac</text>
<text text-anchor="middle" x="1099" y="-73" font-family="Helvetica,sans-Serif" font-size="10.00">&#45;Toe.cpp</text>
</a>
</g>
</g>
<!-- Node12&#45;&gt;Node13 -->
<g id="edge16_Node000012_Node000013" class="edge">
<title>Node12&#45;&gt;Node13</title>
<g id="a_edge16_Node000012_Node000013"><a xlink:title=" ">
<path fill="none" stroke="#63b8ff" d="M1068.5,-123.53C1075.19,-114.43 1082.7,-104.19 1088.6,-96.16"/>
<polygon fill="#63b8ff" stroke="#63b8ff" points="1065.53,-121.66 1062.43,-131.8 1071.17,-125.81 1065.53,-121.66"/>
</a>
</g>
</g>
<!-- Node14&#45;&gt;Node5 -->
<g id="edge20_Node000014_Node000005" class="edge">
<title>Node14&#45;&gt;Node5</title>
<g id="a_edge20_Node000014_Node000005"><a xlink:title=" ">
<path fill="none" stroke="#63b8ff" d="M2000.03,-72.91C1976.47,-70.47 1949.54,-67.88 1925,-66 1572.96,-39.01 1146.34,-22.21 1015.82,-17.42"/>
<polygon fill="#63b8ff" stroke="#63b8ff" points="1999.95,-76.42 2010.26,-73.98 2000.68,-69.46 1999.95,-76.42"/>
</a>
</g>
</g>
<!-- Node15 -->
<g id="Node000015" class="node">
<title>Node15</title>
<g id="a_Node000015"><a xlink:href="Misere__Tic__Tac__Toe_8cpp.html" target="_top" xlink:title=" ">
<polygon fill="white" stroke="#666666" points="2079.5,-30 1972.5,-30 1972.5,0 2079.5,0 2079.5,-30"/>
<text text-anchor="start" x="1980.5" y="-18" font-family="Helvetica,sans-Serif" font-size="10.00">src/Misere_Tic_Tac</text>
<text text-anchor="middle" x="2026" y="-7" font-family="Helvetica,sans-Serif" font-size="10.00">_Toe.cpp</text>
</a>
</g>
</g>
<!-- Node14&#45;&gt;Node15 -->
<g id="edge19_Node000014_Node000015" class="edge">
<title>Node14&#45;&gt;Node15</title>
<g id="a_edge19_Node000014_Node000015"><a xlink:title=" ">
<path fill="none" stroke="#63b8ff" d="M2050.32,-56.96C2045,-48 2039.08,-38.03 2034.41,-30.16"/>
<polygon fill="#63b8ff" stroke="#63b8ff" points="2047.45,-58.98 2055.57,-65.8 2053.47,-55.41 2047.45,-58.98"/>
</a>
</g>
</g>
<!-- Node16&#45;&gt;Node5 -->
<g id="edge23_Node000016_Node000005" class="edge">
<title>Node16&#45;&gt;Node5</title>
<g id="a_edge23_Node000016_Node000005"><a xlink:title=" ">
<path fill="none" stroke="#63b8ff" d="M599.98,-132.43C638.28,-110.84 710.28,-70.6 723,-66 795.85,-39.68 885.78,-26.1 936.43,-20.06"/>
<polygon fill="#63b8ff" stroke="#63b8ff" points="598.01,-129.52 591.02,-137.49 601.45,-135.62 598.01,-129.52"/>
</a>
</g>
</g>
<!-- Node17 -->
<g id="Node000017" class="node">
<title>Node17</title>
<g id="a_Node000017"><a xlink:href="Numerical__X__O_8cpp.html" target="_top" xlink:title=" ">
<polygon fill="white" stroke="#666666" points="655.5,-90.5 526.5,-90.5 526.5,-71.5 655.5,-71.5 655.5,-90.5"/>
<text text-anchor="middle" x="591" y="-78.5" font-family="Helvetica,sans-Serif" font-size="10.00">src/Numerical_X_O.cpp</text>
</a>
</g>
</g>
<!-- Node16&#45;&gt;Node17 -->
<g id="edge22_Node000016_Node000017" class="edge">
<title>Node16&#45;&gt;Node17</title>
<g id="a_edge22_Node000016_Node000017"><a xlink:title=" ">
<path fill="none" stroke="#63b8ff" d="M580.35,-127.45C583.16,-115.43 586.71,-100.32 588.91,-90.91"/>
<polygon fill="#63b8ff" stroke="#63b8ff" points="576.9,-126.83 578.02,-137.37 583.71,-128.43 576.9,-126.83"/>
</a>
</g>
</g>
<!-- Node18&#45;&gt;Node5 -->
<g id="edge26_Node000018_Node000005" class="edge">
<title>Node18&#45;&gt;Node5</title>
<g id="a_edge26_Node000018_Node000005"><a xlink:title=" ">
<path fill="none" stroke="#63b8ff" d="M881.85,-128.41C891.6,-111.64 907.42,-86.07 924,-66 937.09,-50.17 954.75,-34.1 965.75,-24.6"/>
<polygon fill="#63b8ff" stroke="#63b8ff" points="878.78,-126.73 876.86,-137.15 884.86,-130.2 878.78,-126.73"/>
</a>
</g>
</g>
<!-- Node19 -->
<g id="Node000019" class="node">
<title>Node19</title>
<g id="a_Node000019"><a xlink:href="Obstacles__XO_8cpp.html" target="_top" xlink:title=" ">
<polygon fill="white" stroke="#666666" points="871.5,-90.5 750.5,-90.5 750.5,-71.5 871.5,-71.5 871.5,-90.5"/>
<text text-anchor="middle" x="811" y="-78.5" font-family="Helvetica,sans-Serif" font-size="10.00">src/Obstacles_XO.cpp</text>
</a>
</g>
</g>
<!-- Node18&#45;&gt;Node19 -->
<g id="edge25_Node000018_Node000019" class="edge">
<title>Node18&#45;&gt;Node19</title>
<g id="a_edge25_Node000018_Node000019"><a xlink:title=" ">
<path fill="none" stroke="#63b8ff" d="M856.73,-129.98C844.95,-117.62 829.1,-100.99 819.49,-90.91"/>
<polygon fill="#63b8ff" stroke="#63b8ff" points="854.34,-132.54 863.77,-137.37 859.41,-127.72 854.34,-132.54"/>
</a>
</g>
</g>
<!-- Node20&#45;&gt;Node5 -->
<g id="edge29_Node000020_Node000005" class="edge">
<title>Node20&#45;&gt;Node5</title>
<g id="a_edge29_Node000020_Node000005"><a xlink:title=" ">
<path fill="none" stroke="#63b8ff" d="M2149.9,-69.55C2142.28,-68.16 2134.44,-66.9 2127,-66 1693.88,-13.6 1163.22,-14.19 1015.69,-15.52"/>
<polygon fill="#63b8ff" stroke="#63b8ff" points="2149.27,-72.99 2159.75,-71.44 2150.59,-66.12 2149.27,-72.99"/>
</a>
</g>
</g>
<!-- Node20&#45;&gt;Node21 -->
<g id="edge28_Node000020_Node000021" class="edge">
<title>Node20&#45;&gt;Node21</title>
<g id="a_edge28_Node000020_Node000021"><a xlink:title=" ">
<path fill="none" stroke="#63b8ff" d="M2217.62,-65.33C2235.28,-52.78 2260.1,-35.13 2274.77,-24.7"/>
<polygon fill="#63b8ff" stroke="#63b8ff" points="2215.26,-62.72 2209.14,-71.37 2219.32,-68.43 2215.26,-62.72"/>
</a>
</g>
</g>
<!-- Node22&#45;&gt;Node5 -->
<g id="edge32_Node000022_Node000005" class="edge">
<title>Node22&#45;&gt;Node5</title>
<g id="a_edge32_Node000022_Node000005"><a xlink:title=" ">
<path fill="none" stroke="#63b8ff" d="M1145.62,-134.92C1105.97,-124.65 1052.01,-109.02 1034,-96 1007.31,-76.7 988.03,-41.35 980.06,-24.88"/>
<polygon fill="#63b8ff" stroke="#63b8ff" points="1144.8,-138.33 1155.36,-137.42 1146.54,-131.55 1144.8,-138.33"/>
</a>
</g>
</g>
<!-- Node23 -->
<g id="Node000023" class="node">
<title>Node23</title>
<g id="a_Node000023"><a xlink:href="SUS__Classes_8cpp.html" target="_top" xlink:title=" ">
<polygon fill="white" stroke="#666666" points="1328,-90.5 1212,-90.5 1212,-71.5 1328,-71.5 1328,-90.5"/>
<text text-anchor="middle" x="1270" y="-78.5" font-family="Helvetica,sans-Serif" font-size="10.00">src/SUS_Classes.cpp</text>
</a>
</g>
</g>
<!-- Node22&#45;&gt;Node23 -->
<g id="edge31_Node000022_Node000023" class="edge">
<title>Node22&#45;&gt;Node23</title>
<g id="a_edge31_Node000022_Node000023"><a xlink:title=" ">
<path fill="none" stroke="#63b8ff" d="M1209.53,-130.99C1225,-118.46 1246.5,-101.04 1259.26,-90.7"/>
<polygon fill="#63b8ff" stroke="#63b8ff" points="1207.22,-128.35 1201.65,-137.37 1211.63,-133.79 1207.22,-128.35"/>
</a>
</g>
</g>
<!-- Node24&#45;&gt;Node6 -->
<g id="edge34_Node000024_Node000006" class="edge">
<title>Node24&#45;&gt;Node6</title>
<g id="a_edge34_Node000024_Node000006"><a xlink:title=" ">
<path fill="none" stroke="#63b8ff" d="M1767.1,-132.35C1785.93,-121.68 1812.03,-106.9 1831.08,-96.12"/>
<polygon fill="#63b8ff" stroke="#63b8ff" points="1765.22,-129.39 1758.24,-137.37 1768.67,-135.49 1765.22,-129.39"/>
</a>
</g>
</g>
<!-- Node24&#45;&gt;Node7 -->
<g id="edge37_Node000024_Node000007" class="edge">
<title>Node24&#45;&gt;Node7</title>
<g id="a_edge37_Node000024_Node000007"><a xlink:title=" ">
<path fill="none" stroke="#63b8ff" d="M1813.21,-135.64C1858.38,-127.38 1911.15,-114.17 1925,-96 1941.68,-74.12 1914.94,-46.5 1894.58,-30.1"/>
<polygon fill="#63b8ff" stroke="#63b8ff" points="1812.34,-132.24 1803.11,-137.43 1813.56,-139.14 1812.34,-132.24"/>
</a>
</g>
</g>
<!-- Node24&#45;&gt;Node9 -->
<g id="edge38_Node000024_Node000009" class="edge">
<title>Node24&#45;&gt;Node9</title>
<g id="a_edge38_Node000024_Node000009"><a xlink:title=" ">
<path fill="none" stroke="#63b8ff" d="M1736.18,-127.82C1731.65,-115.74 1725.9,-100.41 1722.34,-90.91"/>
<polygon fill="#63b8ff" stroke="#63b8ff" points="1732.97,-129.23 1739.76,-137.37 1739.53,-126.78 1732.97,-129.23"/>
</a>
</g>
</g>
<!-- Node24&#45;&gt;Node13 -->
<g id="edge39_Node000024_Node000013" class="edge">
<title>Node24&#45;&gt;Node13</title>
<g id="a_edge39_Node000024_Node000013"><a xlink:title=" ">
<path fill="none" stroke="#63b8ff" d="M1690.24,-135.67C1682.14,-134.3 1673.86,-133.02 1666,-132 1461.31,-105.5 1408.25,-117.78 1203,-96 1187.6,-94.37 1170.96,-92.27 1155.6,-90.21"/>
<polygon fill="#63b8ff" stroke="#63b8ff" points="1689.9,-139.16 1700.36,-137.44 1691.11,-132.27 1689.9,-139.16"/>
</a>
</g>
</g>
<!-- Node24&#45;&gt;Node14 -->
<g id="edge35_Node000024_Node000014" class="edge">
<title>Node24&#45;&gt;Node14</title>
<g id="a_edge35_Node000024_Node000014"><a xlink:title=" ">
<path fill="none" stroke="#63b8ff" d="M1796.76,-135.5C1847.99,-125.47 1927.29,-109.86 1996,-96 2000.61,-95.07 2005.39,-94.1 2010.19,-93.12"/>
<polygon fill="#63b8ff" stroke="#63b8ff" points="1796.04,-132.08 1786.9,-137.43 1797.38,-138.95 1796.04,-132.08"/>
</a>
</g>
</g>
<!-- Node24&#45;&gt;Node15 -->
<g id="edge40_Node000024_Node000015" class="edge">
<title>Node24&#45;&gt;Node15</title>
<g id="a_edge40_Node000024_Node000015"><a xlink:title=" ">
<path fill="none" stroke="#63b8ff" d="M1817.26,-136.42C1855.9,-129.22 1902.9,-116.88 1941,-96 1971.92,-79.06 2000.08,-48.19 2014.94,-30.15"/>
<polygon fill="#63b8ff" stroke="#63b8ff" points="1816.34,-133.03 1807.11,-138.23 1817.57,-139.92 1816.34,-133.03"/>
</a>
</g>
</g>
<!-- Node24&#45;&gt;Node20 -->
<g id="edge36_Node000024_Node000020" class="edge">
<title>Node24&#45;&gt;Node20</title>
<g id="a_edge36_Node000024_Node000020"><a xlink:title=" ">
<path fill="none" stroke="#63b8ff" d="M1817.21,-137.85C1894.71,-128.99 2019.71,-113.69 2127,-96 2136.66,-94.41 2147.02,-92.46 2156.74,-90.54"/>
<polygon fill="#63b8ff" stroke="#63b8ff" points="1816.6,-134.4 1807.06,-139.01 1817.39,-141.35 1816.6,-134.4"/>
</a>
</g>
</g>
<!-- Node24&#45;&gt;Node21 -->
<g id="edge41_Node000024_Node000021" class="edge">
<title>Node24&#45;&gt;Node21</title>
<g id="a_edge41_Node000024_Node000021"><a xlink:title=" ">
<path fill="none" stroke="#63b8ff" d="M1817.52,-143.65C1954.35,-138.64 2234.75,-124.95 2268,-96 2288.89,-77.82 2289.03,-41.25 2287.87,-24.6"/>
<polygon fill="#63b8ff" stroke="#63b8ff" points="1816.99,-140.16 1807.12,-144.02 1817.24,-147.16 1816.99,-140.16"/>
</a>
</g>
</g>
<!-- Node24&#45;&gt;Node23 -->
<g id="edge42_Node000024_Node000023" class="edge">
<title>Node24&#45;&gt;Node23</title>
<g id="a_edge42_Node000024_Node000023"><a xlink:title=" ">
<path fill="none" stroke="#63b8ff" d="M1688.22,-135.65C1680.77,-134.35 1673.2,-133.1 1666,-132 1537.61,-112.38 1504.83,-112.5 1376,-96 1360.44,-94.01 1343.61,-91.8 1328.03,-89.75"/>
<polygon fill="#63b8ff" stroke="#63b8ff" points="1687.83,-139.13 1698.28,-137.43 1689.05,-132.24 1687.83,-139.13"/>
</a>
</g>
</g>
<!-- Node25 -->
<g id="Node000025" class="node">
<title>Node25</title>
<g id="a_Node000025"><a xlink:href="Words__XO_8cpp.html" target="_top" xlink:title=" ">
<polygon fill="white" stroke="#666666" points="1487.5,-90.5 1384.5,-90.5 1384.5,-71.5 1487.5,-71.5 1487.5,-90.5"/>
<text text-anchor="middle" x="1436" y="-78.5" font-family="Helvetica,sans-Serif" font-size="10.00">src/Words_XO.cpp</text>
</a>
</g>
</g>
<!-- Node24&#45;&gt;Node25 -->
<g id="edge43_Node000024_Node000025" class="edge">
<title>Node24&#45;&gt;Node25</title>
<g id="a_edge43_Node000024_Node000025"><a xlink:title=" ">
<path fill="none" stroke="#63b8ff" d="M1691.84,-135.34C1631.48,-122.75 1532.32,-102.08 1476.84,-90.51"/>
<polygon fill="#63b8ff" stroke="#63b8ff" points="1691.41,-138.82 1701.92,-137.44 1692.84,-131.97 1691.41,-138.82"/>
</a>
</g>
</g>
<!-- Node26 -->
<g id="Node000026" class="node">
<title>Node26</title>
<g id="a_Node000026"><a xlink:href="X__O__5x5_8cpp.html" target="_top" xlink:title=" ">
<polygon fill="white" stroke="#666666" points="1641.5,-90.5 1544.5,-90.5 1544.5,-71.5 1641.5,-71.5 1641.5,-90.5"/>
<text text-anchor="middle" x="1593" y="-78.5" font-family="Helvetica,sans-Serif" font-size="10.00">src/X_O_5x5.cpp</text>
</a>
</g>
</g>
<!-- Node24&#45;&gt;Node26 -->
<g id="edge44_Node000024_Node000026" class="edge">
<title>Node24&#45;&gt;Node26</title>
<g id="a_edge44_Node000024_Node000026"><a xlink:title=" ">
<path fill="none" stroke="#63b8ff" d="M1713.37,-133.36C1683.81,-120.75 1639.19,-101.71 1613.39,-90.7"/>
<polygon fill="#63b8ff" stroke="#63b8ff" points="1712.2,-136.66 1722.77,-137.37 1714.95,-130.23 1712.2,-136.66"/>
</a>
</g>
</g>
<!-- Node27&#45;&gt;Node5 -->
<g id="edge47_Node000027_Node000005" class="edge">
<title>Node27&#45;&gt;Node5</title>
<g id="a_edge47_Node000027_Node000005"><a xlink:title=" ">
<path fill="none" stroke="#63b8ff" d="M403.2,-124.98C384.54,-107.87 365.69,-83.74 382,-66 419.47,-25.24 809.38,-17.69 936.31,-16.3"/>
<polygon fill="#63b8ff" stroke="#63b8ff" points="401.24,-127.92 411.08,-131.84 405.84,-122.64 401.24,-127.92"/>
</a>
</g>
</g>
<!-- Node28 -->
<g id="Node000028" class="node">
<title>Node28</title>
<g id="a_Node000028"><a xlink:href="Ultimate__Tic__Tac__Toe_8cpp.html" target="_top" xlink:title=" ">
<polygon fill="white" stroke="#666666" points="508.5,-96 391.5,-96 391.5,-66 508.5,-66 508.5,-96"/>
<text text-anchor="start" x="399.5" y="-84" font-family="Helvetica,sans-Serif" font-size="10.00">src/Ultimate_Tic_Tac</text>
<text text-anchor="middle" x="450" y="-73" font-family="Helvetica,sans-Serif" font-size="10.00">_Toe.cpp</text>
</a>
</g>
</g>
<!-- Node27&#45;&gt;Node28 -->
<g id="edge46_Node000027_Node000028" class="edge">
<title>Node27&#45;&gt;Node28</title>
<g id="a_edge46_Node000027_Node000028"><a xlink:title=" ">
<path fill="none" stroke="#63b8ff" d="M437.47,-122.11C440.19,-113.38 443.19,-103.78 445.57,-96.16"/>
<polygon fill="#63b8ff" stroke="#63b8ff" points="434.08,-121.21 434.44,-131.8 440.76,-123.3 434.08,-121.21"/>
</a>
</g>
</g>
<!-- Node29&#45;&gt;Node5 -->
<g id="edge50_Node000029_Node000005" class="edge">
<title>Node29&#45;&gt;Node5</title>
<g id="a_edge50_Node000029_Node000005"><a xlink:title=" ">
<path fill="none" stroke="#63b8ff" d="M1291.14,-134.21C1265.41,-125.43 1231.08,-112.19 1203,-96 1184.36,-85.25 1184.25,-75.62 1165,-66 1116.57,-41.8 1055.12,-28.35 1015.68,-21.64"/>
<polygon fill="#63b8ff" stroke="#63b8ff" points="1290.31,-137.62 1300.9,-137.47 1292.52,-130.98 1290.31,-137.62"/>
</a>
</g>
</g>
<!-- Node29&#45;&gt;Node25 -->
<g id="edge49_Node000029_Node000025" class="edge">
<title>Node29&#45;&gt;Node25</title>
<g id="a_edge49_Node000029_Node000025"><a xlink:title=" ">
<path fill="none" stroke="#63b8ff" d="M1352.09,-132.19C1373.15,-119.59 1403.61,-101.37 1421.46,-90.7"/>
<polygon fill="#63b8ff" stroke="#63b8ff" points="1350.22,-129.23 1343.43,-137.37 1353.81,-135.24 1350.22,-129.23"/>
</a>
</g>
</g>
<!-- Node30&#45;&gt;Node5 -->
<g id="edge53_Node000030_Node000005" class="edge">
<title>Node30&#45;&gt;Node5</title>
<g id="a_edge53_Node000030_Node000005"><a xlink:title=" ">
<path fill="none" stroke="#63b8ff" d="M1433.17,-132.17C1416.82,-122.46 1394.76,-108.95 1376,-96 1358.01,-83.57 1357.17,-74.45 1337,-66 1279.52,-41.92 1096.73,-25.29 1015.53,-18.91"/>
<polygon fill="#63b8ff" stroke="#63b8ff" points="1431.68,-135.35 1442.08,-137.41 1435.24,-129.32 1431.68,-135.35"/>
</a>
</g>
</g>
<!-- Node30&#45;&gt;Node26 -->
<g id="edge52_Node000030_Node000026" class="edge">
<title>Node30&#45;&gt;Node26</title>
<g id="a_edge52_Node000030_Node000026"><a xlink:title=" ">
<path fill="none" stroke="#63b8ff" d="M1484.56,-133.03C1511.37,-120.42 1551.33,-101.61 1574.51,-90.7"/>
<polygon fill="#63b8ff" stroke="#63b8ff" points="1482.9,-129.94 1475.34,-137.37 1485.88,-136.28 1482.9,-129.94"/>
</a>
</g>
</g>
<!-- Node31&#45;&gt;Node5 -->
<g id="edge55_Node000031_Node000005" class="edge">
<title>Node31&#45;&gt;Node5</title>
<g id="a_edge55_Node000031_Node000005"><a xlink:title=" ">
<path fill="none" stroke="#63b8ff" d="M724.33,-126.89C723.86,-108.75 726.25,-81.95 742,-66 768.7,-38.95 876.8,-25.02 936.28,-19.28"/>
<polygon fill="#63b8ff" stroke="#63b8ff" points="720.85,-127.35 724.92,-137.13 727.84,-126.94 720.85,-127.35"/>
</a>
</g>
</g>
</g>
</svg>
