<?xml version="1.0" encoding="UTF-8" standalone="no"?>
<!DOCTYPE svg PUBLIC "-//W3C//DTD SVG 1.1//EN"
 "http://www.w3.org/Graphics/SVG/1.1/DTD/svg11.dtd">
<!-- Generated by graphviz version 2.43.0 (0)
 -->
<!-- Title: include/BoardGame_Classes.h Pages: 1 -->
<svg width="1057pt" height="159pt"
 viewBox="0.00 0.00 1056.50 159.00" xmlns="http://www.w3.org/2000/svg" xmlns:xlink="http://www.w3.org/1999/xlink">
<g id="graph0" class="graph" transform="scale(1 1) rotate(0) translate(4 155)">
<title>include/BoardGame_Classes.h</title>
<!-- Node1 -->
<g id="Node000001" class="node">
<title>Node1</title>
<g id="a_Node000001"><a xlink:title=" ">
<polygon fill="#999999" stroke="#666666" points="601,-151 437,-151 437,-132 601,-132 601,-151"/>
<text text-anchor="middle" x="519" y="-139" font-family="Helvetica,sans-Serif" font-size="10.00">include/BoardGame_Classes.h</text>
</a>
</g>
</g>
<!-- Node2 -->
<g id="Node000002" class="node">
<title>Node2</title>
<g id="a_Node000002"><a xlink:href="Four__Four__XO_8h.html" target="_top" xlink:title=" ">
<polygon fill="white" stroke="#666666" points="191,-90.5 61,-90.5 61,-71.5 191,-71.5 191,-90.5"/>
<text text-anchor="middle" x="126" y="-78.5" font-family="Helvetica,sans-Serif" font-size="10.00">include/Four_Four_XO.h</text>
</a>
</g>
</g>
<!-- Node1&#45;&gt;Node2 -->
<g id="edge1_Node000001_Node000002" class="edge">
<title>Node1&#45;&gt;Node2</title>
<g id="a_edge1_Node000001_Node000002"><a xlink:title=" ">
<path fill="none" stroke="#63b8ff" d="M440.91,-130.68C376.22,-122.29 281.97,-109.46 200,-96 190.07,-94.37 179.41,-92.45 169.37,-90.57"/>
<polygon fill="#63b8ff" stroke="#63b8ff" points="440.66,-134.18 451.03,-131.99 441.56,-127.23 440.66,-134.18"/>
</a>
</g>
</g>
<!-- Node4 -->
<g id="Node000004" class="node">
<title>Node4</title>
<g id="a_Node000004"><a xlink:href="main_8cpp.html" target="_top" xlink:title="Entry point for the FCAI X&#45;O (Tic&#45;Tac&#45;Toe) game.">
<polygon fill="white" stroke="#666666" points="509.5,-24.5 430.5,-24.5 430.5,-5.5 509.5,-5.5 509.5,-24.5"/>
<text text-anchor="middle" x="470" y="-12.5" font-family="Helvetica,sans-Serif" font-size="10.00">src/main.cpp</text>
</a>
</g>
</g>
<!-- Node1&#45;&gt;Node4 -->
<g id="edge21_Node000001_Node000004" class="edge">
<title>Node1&#45;&gt;Node4</title>
<g id="a_edge21_Node000001_Node000004"><a xlink:title=" ">
<path fill="none" stroke="#63b8ff" d="M505.61,-123.76C499.77,-115.75 493.29,-105.8 489,-96 478.22,-71.42 473.03,-39.8 471.03,-24.73"/>
<polygon fill="#63b8ff" stroke="#63b8ff" points="502.93,-126.02 511.78,-131.86 508.5,-121.78 502.93,-126.02"/>
</a>
</g>
</g>
<!-- Node5 -->
<g id="Node000005" class="node">
<title>Node5</title>
<g id="a_Node000005"><a xlink:href="Infinity__XO__Classes_8h.html" target="_top" xlink:title=" ">
<polygon fill="white" stroke="#666666" points="316.5,-96 209.5,-96 209.5,-66 316.5,-66 316.5,-96"/>
<text text-anchor="start" x="217.5" y="-84" font-family="Helvetica,sans-Serif" font-size="10.00">include/Infinity_XO</text>
<text text-anchor="middle" x="263" y="-73" font-family="Helvetica,sans-Serif" font-size="10.00">_Classes.h</text>
</a>
</g>
</g>
<!-- Node1&#45;&gt;Node5 -->
<g id="edge4_Node000001_Node000005" class="edge">
<title>Node1&#45;&gt;Node5</title>
<g id="a_edge4_Node000001_Node000005"><a xlink:title=" ">
<path fill="none" stroke="#63b8ff" d="M471.94,-129.74C428.07,-119.72 362.7,-104.78 316.79,-94.29"/>
<polygon fill="#63b8ff" stroke="#63b8ff" points="471.25,-133.18 481.78,-131.99 472.81,-126.35 471.25,-133.18"/>
</a>
</g>
</g>
<!-- Node7 -->
<g id="Node000007" class="node">
<title>Node7</title>
<g id="a_Node000007"><a xlink:href="Misere__Tic__Tac__Toe_8h.html" target="_top" xlink:title="Defines the X&#45;O (Tic&#45;Tac&#45;Toe) specific classes that extend the generic board game framework.">
<polygon fill="white" stroke="#666666" points="441.5,-96 334.5,-96 334.5,-66 441.5,-66 441.5,-96"/>
<text text-anchor="start" x="342.5" y="-84" font-family="Helvetica,sans-Serif" font-size="10.00">include/Misere_Tic</text>
<text text-anchor="middle" x="388" y="-73" font-family="Helvetica,sans-Serif" font-size="10.00">_Tac_Toe.h</text>
</a>
</g>
</g>
<!-- Node1&#45;&gt;Node7 -->
<g id="edge7_Node000001_Node000007" class="edge">
<title>Node1&#45;&gt;Node7</title>
<g id="a_edge7_Node000001_Node000007"><a xlink:title=" ">
<path fill="none" stroke="#63b8ff" d="M490.62,-127.83C469.67,-118.47 441.15,-105.74 419.49,-96.06"/>
<polygon fill="#63b8ff" stroke="#63b8ff" points="489.39,-131.11 499.95,-131.99 492.25,-124.72 489.39,-131.11"/>
</a>
</g>
</g>
<!-- Node9 -->
<g id="Node000009" class="node">
<title>Node9</title>
<g id="a_Node000009"><a xlink:href="Numerical__X__O_8h.html" target="_top" xlink:title=" ">
<polygon fill="white" stroke="#666666" points="637.5,-90.5 498.5,-90.5 498.5,-71.5 637.5,-71.5 637.5,-90.5"/>
<text text-anchor="middle" x="568" y="-78.5" font-family="Helvetica,sans-Serif" font-size="10.00">include/Numerical_X_O.h</text>
</a>
</g>
</g>
<!-- Node1&#45;&gt;Node9 -->
<g id="edge10_Node000001_Node000009" class="edge">
<title>Node1&#45;&gt;Node9</title>
<g id="a_edge10_Node000001_Node000009"><a xlink:title=" ">
<path fill="none" stroke="#63b8ff" d="M532.86,-123.95C541.93,-113.12 553.42,-99.41 560.74,-90.67"/>
<polygon fill="#63b8ff" stroke="#63b8ff" points="529.97,-121.95 526.23,-131.87 535.33,-126.45 529.97,-121.95"/>
</a>
</g>
</g>
<!-- Node11 -->
<g id="Node000011" class="node">
<title>Node11</title>
<g id="a_Node000011"><a xlink:href="Pyramid__XO_8h.html" target="_top" xlink:title=" ">
<polygon fill="white" stroke="#666666" points="1048.5,-90.5 925.5,-90.5 925.5,-71.5 1048.5,-71.5 1048.5,-90.5"/>
<text text-anchor="middle" x="987" y="-78.5" font-family="Helvetica,sans-Serif" font-size="10.00">include/Pyramid_XO.h</text>
</a>
</g>
</g>
<!-- Node1&#45;&gt;Node11 -->
<g id="edge13_Node000001_Node000011" class="edge">
<title>Node1&#45;&gt;Node11</title>
<g id="a_edge13_Node000001_Node000011"><a xlink:title=" ">
<path fill="none" stroke="#63b8ff" d="M611.51,-132.32C692.15,-124.67 812.14,-112.03 916,-96 926.06,-94.45 936.86,-92.48 946.93,-90.51"/>
<polygon fill="#63b8ff" stroke="#63b8ff" points="611.01,-128.86 601.38,-133.28 611.66,-135.83 611.01,-128.86"/>
</a>
</g>
</g>
<!-- Node13 -->
<g id="Node000013" class="node">
<title>Node13</title>
<g id="a_Node000013"><a xlink:href="SUS__Classes_8h.html" target="_top" xlink:title=" ">
<polygon fill="white" stroke="#666666" points="782,-90.5 656,-90.5 656,-71.5 782,-71.5 782,-90.5"/>
<text text-anchor="middle" x="719" y="-78.5" font-family="Helvetica,sans-Serif" font-size="10.00">include/SUS_Classes.h</text>
</a>
</g>
</g>
<!-- Node1&#45;&gt;Node13 -->
<g id="edge15_Node000001_Node000013" class="edge">
<title>Node1&#45;&gt;Node13</title>
<g id="a_edge15_Node000001_Node000013"><a xlink:title=" ">
<path fill="none" stroke="#63b8ff" d="M557.95,-129.11C596.63,-117.79 655.06,-100.7 689.88,-90.52"/>
<polygon fill="#63b8ff" stroke="#63b8ff" points="556.7,-125.83 548.08,-131.99 558.66,-132.55 556.7,-125.83"/>
</a>
</g>
</g>
<!-- Node15 -->
<g id="Node000015" class="node">
<title>Node15</title>
<g id="a_Node000015"><a xlink:href="X__O__5x5_8h.html" target="_top" xlink:title=" ">
<polygon fill="white" stroke="#666666" points="907.5,-90.5 800.5,-90.5 800.5,-71.5 907.5,-71.5 907.5,-90.5"/>
<text text-anchor="middle" x="854" y="-78.5" font-family="Helvetica,sans-Serif" font-size="10.00">include/X_O_5x5.h</text>
</a>
</g>
</g>
<!-- Node1&#45;&gt;Node15 -->
<g id="edge18_Node000001_Node000015" class="edge">
<title>Node1&#45;&gt;Node15</title>
<g id="a_edge18_Node000001_Node000015"><a xlink:title=" ">
<path fill="none" stroke="#63b8ff" d="M587.01,-130.46C642.14,-122.07 721.78,-109.34 791,-96 799.47,-94.37 808.55,-92.45 817.1,-90.57"/>
<polygon fill="#63b8ff" stroke="#63b8ff" points="586.37,-127.02 577,-131.98 587.42,-133.94 586.37,-127.02"/>
</a>
</g>
</g>
<!-- Node3 -->
<g id="Node000003" class="node">
<title>Node3</title>
<g id="a_Node000003"><a xlink:href="Four__Four__XO_8cpp.html" target="_top" xlink:title=" ">
<polygon fill="white" stroke="#666666" points="120,-24.5 0,-24.5 0,-5.5 120,-5.5 120,-24.5"/>
<text text-anchor="middle" x="60" y="-12.5" font-family="Helvetica,sans-Serif" font-size="10.00">src/Four_Four_XO.cpp</text>
</a>
</g>
</g>
<!-- Node2&#45;&gt;Node3 -->
<g id="edge2_Node000002_Node000003" class="edge">
<title>Node2&#45;&gt;Node3</title>
<g id="a_edge2_Node000002_Node000003"><a xlink:title=" ">
<path fill="none" stroke="#63b8ff" d="M109.84,-64.33C97.06,-51.94 79.68,-35.09 69.18,-24.91"/>
<polygon fill="#63b8ff" stroke="#63b8ff" points="107.48,-66.92 117.1,-71.37 112.36,-61.89 107.48,-66.92"/>
</a>
</g>
</g>
<!-- Node2&#45;&gt;Node4 -->
<g id="edge3_Node000002_Node000004" class="edge">
<title>Node2&#45;&gt;Node4</title>
<g id="a_edge3_Node000002_Node000004"><a xlink:title=" ">
<path fill="none" stroke="#63b8ff" d="M180.44,-69.54C187.03,-68.32 193.66,-67.12 200,-66 298.01,-48.75 323.88,-51.71 421,-30 427.91,-28.46 435.28,-26.51 442.16,-24.56"/>
<polygon fill="#63b8ff" stroke="#63b8ff" points="179.37,-66.18 170.18,-71.45 180.66,-73.06 179.37,-66.18"/>
</a>
</g>
</g>
<!-- Node5&#45;&gt;Node4 -->
<g id="edge6_Node000005_Node000004" class="edge">
<title>Node5&#45;&gt;Node4</title>
<g id="a_edge6_Node000005_Node000004"><a xlink:title=" ">
<path fill="none" stroke="#63b8ff" d="M318.08,-62.97C358.19,-50.57 410.84,-34.29 442.45,-24.52"/>
<polygon fill="#63b8ff" stroke="#63b8ff" points="316.95,-59.66 308.43,-65.95 319.01,-66.34 316.95,-59.66"/>
</a>
</g>
</g>
<!-- Node6 -->
<g id="Node000006" class="node">
<title>Node6</title>
<g id="a_Node000006"><a xlink:href="Infinity__XO__Classes_8cpp.html" target="_top" xlink:title=" ">
<polygon fill="white" stroke="#666666" points="287.5,-24.5 138.5,-24.5 138.5,-5.5 287.5,-5.5 287.5,-24.5"/>
<text text-anchor="middle" x="213" y="-12.5" font-family="Helvetica,sans-Serif" font-size="10.00">src/Infinity_XO_Classes.cpp</text>
</a>
</g>
</g>
<!-- Node5&#45;&gt;Node6 -->
<g id="edge5_Node000005_Node000006" class="edge">
<title>Node5&#45;&gt;Node6</title>
<g id="a_edge5_Node000005_Node000006"><a xlink:title=" ">
<path fill="none" stroke="#63b8ff" d="M245.51,-57.61C236.69,-46.32 226.5,-33.28 219.91,-24.84"/>
<polygon fill="#63b8ff" stroke="#63b8ff" points="242.99,-60.07 251.9,-65.8 248.5,-55.76 242.99,-60.07"/>
</a>
</g>
</g>
<!-- Node7&#45;&gt;Node4 -->
<g id="edge9_Node000007_Node000004" class="edge">
<title>Node7&#45;&gt;Node4</title>
<g id="a_edge9_Node000007_Node000004"><a xlink:title=" ">
<path fill="none" stroke="#63b8ff" d="M414.16,-59.58C429.16,-47.87 447.23,-33.77 458.67,-24.84"/>
<polygon fill="#63b8ff" stroke="#63b8ff" points="411.93,-56.88 406.2,-65.8 416.24,-62.4 411.93,-56.88"/>
</a>
</g>
</g>
<!-- Node8 -->
<g id="Node000008" class="node">
<title>Node8</title>
<g id="a_Node000008"><a xlink:href="Misere__Tic__Tac__Toe_8cpp.html" target="_top" xlink:title=" ">
<polygon fill="white" stroke="#666666" points="412.5,-30 305.5,-30 305.5,0 412.5,0 412.5,-30"/>
<text text-anchor="start" x="313.5" y="-18" font-family="Helvetica,sans-Serif" font-size="10.00">src/Misere_Tic_Tac</text>
<text text-anchor="middle" x="359" y="-7" font-family="Helvetica,sans-Serif" font-size="10.00">_Toe.cpp</text>
</a>
</g>
</g>
<!-- Node7&#45;&gt;Node8 -->
<g id="edge8_Node000007_Node000008" class="edge">
<title>Node7&#45;&gt;Node8</title>
<g id="a_edge8_Node000007_Node000008"><a xlink:title=" ">
<path fill="none" stroke="#63b8ff" d="M377.43,-56.68C373.41,-47.79 368.94,-37.95 365.42,-30.16"/>
<polygon fill="#63b8ff" stroke="#63b8ff" points="374.25,-58.13 381.56,-65.8 380.62,-55.24 374.25,-58.13"/>
</a>
</g>
</g>
<!-- Node9&#45;&gt;Node4 -->
<g id="edge12_Node000009_Node000004" class="edge">
<title>Node9&#45;&gt;Node4</title>
<g id="a_edge12_Node000009_Node000004"><a xlink:title=" ">
<path fill="none" stroke="#63b8ff" d="M546.33,-65.85C527.07,-53.27 499.52,-35.28 483.32,-24.7"/>
<polygon fill="#63b8ff" stroke="#63b8ff" points="544.5,-68.83 554.78,-71.37 548.32,-62.97 544.5,-68.83"/>
</a>
</g>
</g>
<!-- Node10 -->
<g id="Node000010" class="node">
<title>Node10</title>
<g id="a_Node000010"><a xlink:href="Numerical__X__O_8cpp.html" target="_top" xlink:title=" ">
<polygon fill="white" stroke="#666666" points="656.5,-24.5 527.5,-24.5 527.5,-5.5 656.5,-5.5 656.5,-24.5"/>
<text text-anchor="middle" x="592" y="-12.5" font-family="Helvetica,sans-Serif" font-size="10.00">src/Numerical_X_O.cpp</text>
</a>
</g>
</g>
<!-- Node9&#45;&gt;Node10 -->
<g id="edge11_Node000009_Node000010" class="edge">
<title>Node9&#45;&gt;Node10</title>
<g id="a_edge11_Node000009_Node000010"><a xlink:title=" ">
<path fill="none" stroke="#63b8ff" d="M574.82,-61.82C579.35,-49.74 585.1,-34.41 588.66,-24.91"/>
<polygon fill="#63b8ff" stroke="#63b8ff" points="571.47,-60.78 571.24,-71.37 578.03,-63.23 571.47,-60.78"/>
</a>
</g>
</g>
<!-- Node12 -->
<g id="Node000012" class="node">
<title>Node12</title>
<g id="a_Node000012"><a xlink:href="Pyramid__XO_8cpp.html" target="_top" xlink:title=" ">
<polygon fill="white" stroke="#666666" points="1043.5,-24.5 930.5,-24.5 930.5,-5.5 1043.5,-5.5 1043.5,-24.5"/>
<text text-anchor="middle" x="987" y="-12.5" font-family="Helvetica,sans-Serif" font-size="10.00">src/Pyramid_XO.cpp</text>
</a>
</g>
</g>
<!-- Node11&#45;&gt;Node12 -->
<g id="edge14_Node000011_Node000012" class="edge">
<title>Node11&#45;&gt;Node12</title>
<g id="a_edge14_Node000011_Node000012"><a xlink:title=" ">
<path fill="none" stroke="#63b8ff" d="M987,-61.08C987,-49.13 987,-34.22 987,-24.91"/>
<polygon fill="#63b8ff" stroke="#63b8ff" points="983.5,-61.37 987,-71.37 990.5,-61.37 983.5,-61.37"/>
</a>
</g>
</g>
<!-- Node13&#45;&gt;Node4 -->
<g id="edge17_Node000013_Node000004" class="edge">
<title>Node13&#45;&gt;Node4</title>
<g id="a_edge17_Node000013_Node000004"><a xlink:title=" ">
<path fill="none" stroke="#63b8ff" d="M673.02,-69.12C632.19,-59.32 570.97,-44.31 518,-30 511.71,-28.3 504.99,-26.4 498.63,-24.55"/>
<polygon fill="#63b8ff" stroke="#63b8ff" points="672.4,-72.57 682.94,-71.49 674.03,-65.76 672.4,-72.57"/>
</a>
</g>
</g>
<!-- Node14 -->
<g id="Node000014" class="node">
<title>Node14</title>
<g id="a_Node000014"><a xlink:href="SUS__Classes_8cpp.html" target="_top" xlink:title=" ">
<polygon fill="white" stroke="#666666" points="791,-24.5 675,-24.5 675,-5.5 791,-5.5 791,-24.5"/>
<text text-anchor="middle" x="733" y="-12.5" font-family="Helvetica,sans-Serif" font-size="10.00">src/SUS_Classes.cpp</text>
</a>
</g>
</g>
<!-- Node13&#45;&gt;Node14 -->
<g id="edge16_Node000013_Node000014" class="edge">
<title>Node13&#45;&gt;Node14</title>
<g id="a_edge16_Node000013_Node000014"><a xlink:title=" ">
<path fill="none" stroke="#63b8ff" d="M723.06,-61.45C725.69,-49.43 728.99,-34.32 731.05,-24.91"/>
<polygon fill="#63b8ff" stroke="#63b8ff" points="719.61,-60.85 720.89,-71.37 726.44,-62.35 719.61,-60.85"/>
</a>
</g>
</g>
<!-- Node15&#45;&gt;Node4 -->
<g id="edge20_Node000015_Node000004" class="edge">
<title>Node15&#45;&gt;Node4</title>
<g id="a_edge20_Node000015_Node000004"><a xlink:title=" ">
<path fill="none" stroke="#63b8ff" d="M807.99,-69.29C802.28,-68.1 796.52,-66.97 791,-66 670.48,-44.71 637.76,-55.21 518,-30 510.95,-28.52 503.43,-26.52 496.48,-24.51"/>
<polygon fill="#63b8ff" stroke="#63b8ff" points="807.62,-72.79 818.13,-71.46 809.08,-65.94 807.62,-72.79"/>
</a>
</g>
</g>
<!-- Node16 -->
<g id="Node000016" class="node">
<title>Node16</title>
<g id="a_Node000016"><a xlink:href="X__O__5x5_8cpp.html" target="_top" xlink:title=" ">
<polygon fill="white" stroke="#666666" points="906.5,-24.5 809.5,-24.5 809.5,-5.5 906.5,-5.5 906.5,-24.5"/>
<text text-anchor="middle" x="858" y="-12.5" font-family="Helvetica,sans-Serif" font-size="10.00">src/X_O_5x5.cpp</text>
</a>
</g>
</g>
<!-- Node15&#45;&gt;Node16 -->
<g id="edge19_Node000015_Node000016" class="edge">
<title>Node15&#45;&gt;Node16</title>
<g id="a_edge19_Node000015_Node000016"><a xlink:title=" ">
<path fill="none" stroke="#63b8ff" d="M855.18,-61.08C855.93,-49.13 856.86,-34.22 857.44,-24.91"/>
<polygon fill="#63b8ff" stroke="#63b8ff" points="851.67,-61.17 854.54,-71.37 858.66,-61.61 851.67,-61.17"/>
</a>
</g>
</g>
</g>
</svg>
