<?xml version="1.0" encoding="UTF-8" standalone="no"?>
<!DOCTYPE svg PUBLIC "-//W3C//DTD SVG 1.1//EN"
 "http://www.w3.org/Graphics/SVG/1.1/DTD/svg11.dtd">
<!-- Generated by graphviz version 2.43.0 (0)
 -->
<!-- Title: include/BoardGame_Classes.h Pages: 1 -->
<svg width="1079pt" height="159pt"
 viewBox="0.00 0.00 1078.50 159.00" xmlns="http://www.w3.org/2000/svg" xmlns:xlink="http://www.w3.org/1999/xlink">
<g id="graph0" class="graph" transform="scale(1 1) rotate(0) translate(4 155)">
<title>include/BoardGame_Classes.h</title>
<!-- Node1 -->
<g id="Node000001" class="node">
<title>Node1</title>
<g id="a_Node000001"><a xlink:title=" ">
<polygon fill="#999999" stroke="#666666" points="635,-151 471,-151 471,-132 635,-132 635,-151"/>
<text text-anchor="middle" x="553" y="-139" font-family="Helvetica,sans-Serif" font-size="10.00">include/BoardGame_Classes.h</text>
</a>
</g>
</g>
<!-- Node2 -->
<g id="Node000002" class="node">
<title>Node2</title>
<g id="a_Node000002"><a xlink:href="Four__Four__XO_8h.html" target="_top" xlink:title=" ">
<polygon fill="white" stroke="#666666" points="176,-90.5 46,-90.5 46,-71.5 176,-71.5 176,-90.5"/>
<text text-anchor="middle" x="111" y="-78.5" font-family="Helvetica,sans-Serif" font-size="10.00">include/Four_Four_XO.h</text>
</a>
</g>
</g>
<!-- Node1&#45;&gt;Node2 -->
<g id="edge1_Node000001_Node000002" class="edge">
<title>Node1&#45;&gt;Node2</title>
<g id="a_edge1_Node000001_Node000002"><a xlink:title=" ">
<path fill="none" stroke="#63b8ff" d="M460.64,-131.06C386.07,-123.02 278.54,-110.49 185,-96 174.79,-94.42 163.84,-92.48 153.57,-90.56"/>
<polygon fill="#63b8ff" stroke="#63b8ff" points="460.62,-134.57 470.94,-132.16 461.37,-127.61 460.62,-134.57"/>
</a>
</g>
</g>
<!-- Node4 -->
<g id="Node000004" class="node">
<title>Node4</title>
<g id="a_Node000004"><a xlink:href="main_8cpp.html" target="_top" xlink:title="Entry point for the FCAI X&#45;O (Tic&#45;Tac&#45;Toe) game.">
<polygon fill="white" stroke="#666666" points="509.5,-24.5 430.5,-24.5 430.5,-5.5 509.5,-5.5 509.5,-24.5"/>
<text text-anchor="middle" x="470" y="-12.5" font-family="Helvetica,sans-Serif" font-size="10.00">src/main.cpp</text>
</a>
</g>
</g>
<!-- Node1&#45;&gt;Node4 -->
<g id="edge23_Node000001_Node000004" class="edge">
<title>Node1&#45;&gt;Node4</title>
<g id="a_edge23_Node000001_Node000004"><a xlink:title=" ">
<path fill="none" stroke="#63b8ff" d="M514.17,-127.98C499.02,-121.04 483.12,-110.75 474,-96 460.1,-73.53 464.63,-40.35 467.89,-24.73"/>
<polygon fill="#63b8ff" stroke="#63b8ff" points="512.87,-131.23 523.44,-131.88 515.58,-124.78 512.87,-131.23"/>
</a>
</g>
</g>
<!-- Node5 -->
<g id="Node000005" class="node">
<title>Node5</title>
<g id="a_Node000005"><a xlink:href="Infinity__XO__Classes_8h.html" target="_top" xlink:title=" ">
<polygon fill="white" stroke="#666666" points="301.5,-96 194.5,-96 194.5,-66 301.5,-66 301.5,-96"/>
<text text-anchor="start" x="202.5" y="-84" font-family="Helvetica,sans-Serif" font-size="10.00">include/Infinity_XO</text>
<text text-anchor="middle" x="248" y="-73" font-family="Helvetica,sans-Serif" font-size="10.00">_Classes.h</text>
</a>
</g>
</g>
<!-- Node1&#45;&gt;Node5 -->
<g id="edge4_Node000001_Node000005" class="edge">
<title>Node1&#45;&gt;Node5</title>
<g id="a_edge4_Node000001_Node000005"><a xlink:title=" ">
<path fill="none" stroke="#63b8ff" d="M493.23,-130.26C443.97,-121.65 372.31,-108.73 310,-96 307.3,-95.45 304.53,-94.87 301.74,-94.28"/>
<polygon fill="#63b8ff" stroke="#63b8ff" points="492.64,-133.71 503.09,-131.98 493.84,-126.81 492.64,-133.71"/>
</a>
</g>
</g>
<!-- Node7 -->
<g id="Node000007" class="node">
<title>Node7</title>
<g id="a_Node000007"><a xlink:href="Misere__Tic__Tac__Toe_8h.html" target="_top" xlink:title="Defines the X&#45;O (Tic&#45;Tac&#45;Toe) specific classes that extend the generic board game framework.">
<polygon fill="white" stroke="#666666" points="426.5,-96 319.5,-96 319.5,-66 426.5,-66 426.5,-96"/>
<text text-anchor="start" x="327.5" y="-84" font-family="Helvetica,sans-Serif" font-size="10.00">include/Misere_Tic</text>
<text text-anchor="middle" x="373" y="-73" font-family="Helvetica,sans-Serif" font-size="10.00">_Tac_Toe.h</text>
</a>
</g>
</g>
<!-- Node1&#45;&gt;Node7 -->
<g id="edge7_Node000001_Node000007" class="edge">
<title>Node1&#45;&gt;Node7</title>
<g id="a_edge7_Node000001_Node000007"><a xlink:title=" ">
<path fill="none" stroke="#63b8ff" d="M517.09,-128.83C488.07,-119.4 447.11,-106.09 416.27,-96.06"/>
<polygon fill="#63b8ff" stroke="#63b8ff" points="516.23,-132.23 526.83,-131.99 518.4,-125.57 516.23,-132.23"/>
</a>
</g>
</g>
<!-- Node9 -->
<g id="Node000009" class="node">
<title>Node9</title>
<g id="a_Node000009"><a xlink:href="Numerical__X__O_8h.html" target="_top" xlink:title=" ">
<polygon fill="white" stroke="#666666" points="622.5,-90.5 483.5,-90.5 483.5,-71.5 622.5,-71.5 622.5,-90.5"/>
<text text-anchor="middle" x="553" y="-78.5" font-family="Helvetica,sans-Serif" font-size="10.00">include/Numerical_X_O.h</text>
</a>
</g>
</g>
<!-- Node1&#45;&gt;Node9 -->
<g id="edge10_Node000001_Node000009" class="edge">
<title>Node1&#45;&gt;Node9</title>
<g id="a_edge10_Node000001_Node000009"><a xlink:title=" ">
<path fill="none" stroke="#63b8ff" d="M553,-121.66C553,-111.24 553,-98.8 553,-90.67"/>
<polygon fill="#63b8ff" stroke="#63b8ff" points="549.5,-121.87 553,-131.87 556.5,-121.87 549.5,-121.87"/>
</a>
</g>
</g>
<!-- Node11 -->
<g id="Node000011" class="node">
<title>Node11</title>
<g id="a_Node000011"><a xlink:href="Pyramid__XO_8h.html" target="_top" xlink:title=" ">
<polygon fill="white" stroke="#666666" points="1033.5,-90.5 910.5,-90.5 910.5,-71.5 1033.5,-71.5 1033.5,-90.5"/>
<text text-anchor="middle" x="972" y="-78.5" font-family="Helvetica,sans-Serif" font-size="10.00">include/Pyramid_XO.h</text>
</a>
</g>
</g>
<!-- Node1&#45;&gt;Node11 -->
<g id="edge13_Node000001_Node000011" class="edge">
<title>Node1&#45;&gt;Node11</title>
<g id="a_edge13_Node000001_Node000011"><a xlink:title=" ">
<path fill="none" stroke="#63b8ff" d="M642.78,-130.82C713.42,-122.77 814.24,-110.35 902,-96 911.66,-94.42 922.03,-92.48 931.74,-90.56"/>
<polygon fill="#63b8ff" stroke="#63b8ff" points="642.13,-127.37 632.58,-131.97 642.92,-134.32 642.13,-127.37"/>
</a>
</g>
</g>
<!-- Node12 -->
<g id="Node000012" class="node">
<title>Node12</title>
<g id="a_Node000012"><a xlink:href="Pyramid__XO_8cpp.html" target="_top" xlink:title=" ">
<polygon fill="white" stroke="#666666" points="1070.5,-24.5 957.5,-24.5 957.5,-5.5 1070.5,-5.5 1070.5,-24.5"/>
<text text-anchor="middle" x="1014" y="-12.5" font-family="Helvetica,sans-Serif" font-size="10.00">src/Pyramid_XO.cpp</text>
</a>
</g>
</g>
<!-- Node1&#45;&gt;Node12 -->
<g id="edge22_Node000001_Node000012" class="edge">
<title>Node1&#45;&gt;Node12</title>
<g id="a_edge22_Node000001_Node000012"><a xlink:title=" ">
<path fill="none" stroke="#63b8ff" d="M645.57,-138.69C780.16,-135.08 1016.79,-124.7 1043,-96 1062.13,-75.06 1036.25,-40.53 1022.12,-24.57"/>
<polygon fill="#63b8ff" stroke="#63b8ff" points="645.17,-135.2 635.26,-138.96 645.35,-142.2 645.17,-135.2"/>
</a>
</g>
</g>
<!-- Node13 -->
<g id="Node000013" class="node">
<title>Node13</title>
<g id="a_Node000013"><a xlink:href="SUS__Classes_8h.html" target="_top" xlink:title=" ">
<polygon fill="white" stroke="#666666" points="767,-90.5 641,-90.5 641,-71.5 767,-71.5 767,-90.5"/>
<text text-anchor="middle" x="704" y="-78.5" font-family="Helvetica,sans-Serif" font-size="10.00">include/SUS_Classes.h</text>
</a>
</g>
</g>
<!-- Node1&#45;&gt;Node13 -->
<g id="edge16_Node000001_Node000013" class="edge">
<title>Node1&#45;&gt;Node13</title>
<g id="a_edge16_Node000001_Node000013"><a xlink:title=" ">
<path fill="none" stroke="#63b8ff" d="M584.29,-128.38C613.48,-117.07 656.28,-100.49 682.02,-90.52"/>
<polygon fill="#63b8ff" stroke="#63b8ff" points="583.02,-125.12 574.96,-131.99 585.55,-131.64 583.02,-125.12"/>
</a>
</g>
</g>
<!-- Node15 -->
<g id="Node000015" class="node">
<title>Node15</title>
<g id="a_Node000015"><a xlink:href="X__O__5x5_8h.html" target="_top" xlink:title=" ">
<polygon fill="white" stroke="#666666" points="892.5,-90.5 785.5,-90.5 785.5,-71.5 892.5,-71.5 892.5,-90.5"/>
<text text-anchor="middle" x="839" y="-78.5" font-family="Helvetica,sans-Serif" font-size="10.00">include/X_O_5x5.h</text>
</a>
</g>
</g>
<!-- Node1&#45;&gt;Node15 -->
<g id="edge19_Node000001_Node000015" class="edge">
<title>Node1&#45;&gt;Node15</title>
<g id="a_edge19_Node000001_Node000015"><a xlink:title=" ">
<path fill="none" stroke="#63b8ff" d="M607.37,-129.99C652.56,-121.18 718.54,-108.12 776,-96 784.11,-94.29 792.8,-92.4 801.05,-90.57"/>
<polygon fill="#63b8ff" stroke="#63b8ff" points="606.63,-126.57 597.48,-131.92 607.97,-133.44 606.63,-126.57"/>
</a>
</g>
</g>
<!-- Node3 -->
<g id="Node000003" class="node">
<title>Node3</title>
<g id="a_Node000003"><a xlink:href="Four__Four__XO_8cpp.html" target="_top" xlink:title=" ">
<polygon fill="white" stroke="#666666" points="120,-24.5 0,-24.5 0,-5.5 120,-5.5 120,-24.5"/>
<text text-anchor="middle" x="60" y="-12.5" font-family="Helvetica,sans-Serif" font-size="10.00">src/Four_Four_XO.cpp</text>
</a>
</g>
</g>
<!-- Node2&#45;&gt;Node3 -->
<g id="edge2_Node000002_Node000003" class="edge">
<title>Node2&#45;&gt;Node3</title>
<g id="a_edge2_Node000002_Node000003"><a xlink:title=" ">
<path fill="none" stroke="#63b8ff" d="M97.67,-63.27C87.88,-50.99 74.98,-34.8 67.1,-24.91"/>
<polygon fill="#63b8ff" stroke="#63b8ff" points="95.15,-65.73 104.12,-71.37 100.63,-61.37 95.15,-65.73"/>
</a>
</g>
</g>
<!-- Node2&#45;&gt;Node4 -->
<g id="edge3_Node000002_Node000004" class="edge">
<title>Node2&#45;&gt;Node4</title>
<g id="a_edge3_Node000002_Node000004"><a xlink:title=" ">
<path fill="none" stroke="#63b8ff" d="M164.69,-69.61C171.52,-68.36 178.42,-67.12 185,-66 289.59,-48.14 317.34,-52.62 421,-30 428,-28.47 435.48,-26.51 442.43,-24.54"/>
<polygon fill="#63b8ff" stroke="#63b8ff" points="163.97,-66.18 154.78,-71.45 165.25,-73.07 163.97,-66.18"/>
</a>
</g>
</g>
<!-- Node5&#45;&gt;Node4 -->
<g id="edge6_Node000005_Node000004" class="edge">
<title>Node5&#45;&gt;Node4</title>
<g id="a_edge6_Node000005_Node000004"><a xlink:title=" ">
<path fill="none" stroke="#63b8ff" d="M306.52,-63.13C349.61,-50.71 406.41,-34.33 440.46,-24.52"/>
<polygon fill="#63b8ff" stroke="#63b8ff" points="305.36,-59.82 296.72,-65.95 307.3,-66.55 305.36,-59.82"/>
</a>
</g>
</g>
<!-- Node6 -->
<g id="Node000006" class="node">
<title>Node6</title>
<g id="a_Node000006"><a xlink:href="Infinity__XO__Classes_8cpp.html" target="_top" xlink:title=" ">
<polygon fill="white" stroke="#666666" points="287.5,-24.5 138.5,-24.5 138.5,-5.5 287.5,-5.5 287.5,-24.5"/>
<text text-anchor="middle" x="213" y="-12.5" font-family="Helvetica,sans-Serif" font-size="10.00">src/Infinity_XO_Classes.cpp</text>
</a>
</g>
</g>
<!-- Node5&#45;&gt;Node6 -->
<g id="edge5_Node000005_Node000006" class="edge">
<title>Node5&#45;&gt;Node6</title>
<g id="a_edge5_Node000005_Node000006"><a xlink:title=" ">
<path fill="none" stroke="#63b8ff" d="M235.39,-56.95C229.3,-45.81 222.36,-33.11 217.84,-24.84"/>
<polygon fill="#63b8ff" stroke="#63b8ff" points="232.36,-58.7 240.23,-65.8 238.5,-55.34 232.36,-58.7"/>
</a>
</g>
</g>
<!-- Node7&#45;&gt;Node4 -->
<g id="edge9_Node000007_Node000004" class="edge">
<title>Node7&#45;&gt;Node4</title>
<g id="a_edge9_Node000007_Node000004"><a xlink:title=" ">
<path fill="none" stroke="#63b8ff" d="M403.01,-60.2C421.06,-48.29 443.13,-33.73 456.88,-24.66"/>
<polygon fill="#63b8ff" stroke="#63b8ff" points="400.95,-57.37 394.53,-65.8 404.8,-63.21 400.95,-57.37"/>
</a>
</g>
</g>
<!-- Node8 -->
<g id="Node000008" class="node">
<title>Node8</title>
<g id="a_Node000008"><a xlink:href="Misere__Tic__Tac__Toe_8cpp.html" target="_top" xlink:title=" ">
<polygon fill="white" stroke="#666666" points="412.5,-30 305.5,-30 305.5,0 412.5,0 412.5,-30"/>
<text text-anchor="start" x="313.5" y="-18" font-family="Helvetica,sans-Serif" font-size="10.00">src/Misere_Tic_Tac</text>
<text text-anchor="middle" x="359" y="-7" font-family="Helvetica,sans-Serif" font-size="10.00">_Toe.cpp</text>
</a>
</g>
</g>
<!-- Node7&#45;&gt;Node8 -->
<g id="edge8_Node000007_Node000008" class="edge">
<title>Node7&#45;&gt;Node8</title>
<g id="a_edge8_Node000007_Node000008"><a xlink:title=" ">
<path fill="none" stroke="#63b8ff" d="M367.71,-55.83C365.82,-47.17 363.75,-37.7 362.1,-30.16"/>
<polygon fill="#63b8ff" stroke="#63b8ff" points="364.34,-56.78 369.89,-65.8 371.18,-55.28 364.34,-56.78"/>
</a>
</g>
</g>
<!-- Node9&#45;&gt;Node4 -->
<g id="edge12_Node000009_Node000004" class="edge">
<title>Node9&#45;&gt;Node4</title>
<g id="a_edge12_Node000009_Node000004"><a xlink:title=" ">
<path fill="none" stroke="#63b8ff" d="M533.53,-64.99C517.28,-52.46 494.69,-35.04 481.28,-24.7"/>
<polygon fill="#63b8ff" stroke="#63b8ff" points="531.75,-68.03 541.81,-71.37 536.02,-62.49 531.75,-68.03"/>
</a>
</g>
</g>
<!-- Node10 -->
<g id="Node000010" class="node">
<title>Node10</title>
<g id="a_Node000010"><a xlink:href="Numerical__X__O_8cpp.html" target="_top" xlink:title=" ">
<polygon fill="white" stroke="#666666" points="656.5,-24.5 527.5,-24.5 527.5,-5.5 656.5,-5.5 656.5,-24.5"/>
<text text-anchor="middle" x="592" y="-12.5" font-family="Helvetica,sans-Serif" font-size="10.00">src/Numerical_X_O.cpp</text>
</a>
</g>
</g>
<!-- Node9&#45;&gt;Node10 -->
<g id="edge11_Node000009_Node000010" class="edge">
<title>Node9&#45;&gt;Node10</title>
<g id="a_edge11_Node000009_Node000010"><a xlink:title=" ">
<path fill="none" stroke="#63b8ff" d="M563.63,-62.55C571.06,-50.36 580.66,-34.61 586.57,-24.91"/>
<polygon fill="#63b8ff" stroke="#63b8ff" points="560.47,-61.01 558.26,-71.37 566.45,-64.65 560.47,-61.01"/>
</a>
</g>
</g>
<!-- Node11&#45;&gt;Node4 -->
<g id="edge15_Node000011_Node000004" class="edge">
<title>Node11&#45;&gt;Node4</title>
<g id="a_edge15_Node000011_Node000004"><a xlink:title=" ">
<path fill="none" stroke="#63b8ff" d="M922.81,-69.49C915.85,-68.2 908.76,-66.99 902,-66 732.39,-41.16 686.37,-62.14 518,-30 510.75,-28.62 503.03,-26.61 495.94,-24.54"/>
<polygon fill="#63b8ff" stroke="#63b8ff" points="922.4,-72.98 932.88,-71.43 923.72,-66.1 922.4,-72.98"/>
</a>
</g>
</g>
<!-- Node11&#45;&gt;Node12 -->
<g id="edge14_Node000011_Node000012" class="edge">
<title>Node11&#45;&gt;Node12</title>
<g id="a_edge14_Node000011_Node000012"><a xlink:title=" ">
<path fill="none" stroke="#63b8ff" d="M983.22,-62.91C991.24,-50.68 1001.73,-34.7 1008.16,-24.91"/>
<polygon fill="#63b8ff" stroke="#63b8ff" points="980.22,-61.09 977.66,-71.37 986.08,-64.93 980.22,-61.09"/>
</a>
</g>
</g>
<!-- Node13&#45;&gt;Node4 -->
<g id="edge18_Node000013_Node000004" class="edge">
<title>Node13&#45;&gt;Node4</title>
<g id="a_edge18_Node000013_Node000004"><a xlink:title=" ">
<path fill="none" stroke="#63b8ff" d="M661.22,-68.78C623.48,-58.81 567,-43.73 518,-30 511.81,-28.27 505.19,-26.37 498.91,-24.54"/>
<polygon fill="#63b8ff" stroke="#63b8ff" points="660.79,-72.28 671.35,-71.45 662.57,-65.51 660.79,-72.28"/>
</a>
</g>
</g>
<!-- Node14 -->
<g id="Node000014" class="node">
<title>Node14</title>
<g id="a_Node000014"><a xlink:href="SUS__Classes_8cpp.html" target="_top" xlink:title=" ">
<polygon fill="white" stroke="#666666" points="791,-24.5 675,-24.5 675,-5.5 791,-5.5 791,-24.5"/>
<text text-anchor="middle" x="733" y="-12.5" font-family="Helvetica,sans-Serif" font-size="10.00">src/SUS_Classes.cpp</text>
</a>
</g>
</g>
<!-- Node13&#45;&gt;Node14 -->
<g id="edge17_Node000013_Node000014" class="edge">
<title>Node13&#45;&gt;Node14</title>
<g id="a_edge17_Node000013_Node000014"><a xlink:title=" ">
<path fill="none" stroke="#63b8ff" d="M712.07,-62.18C717.57,-50.05 724.61,-34.51 728.96,-24.91"/>
<polygon fill="#63b8ff" stroke="#63b8ff" points="708.85,-60.82 707.91,-71.37 715.23,-63.7 708.85,-60.82"/>
</a>
</g>
</g>
<!-- Node15&#45;&gt;Node4 -->
<g id="edge21_Node000015_Node000004" class="edge">
<title>Node15&#45;&gt;Node4</title>
<g id="a_edge21_Node000015_Node000004"><a xlink:title=" ">
<path fill="none" stroke="#63b8ff" d="M792.77,-69.28C787.13,-68.11 781.44,-66.98 776,-66 662.07,-45.43 631.2,-54.27 518,-30 511.04,-28.51 503.61,-26.54 496.73,-24.54"/>
<polygon fill="#63b8ff" stroke="#63b8ff" points="792.28,-72.76 802.79,-71.43 793.74,-65.91 792.28,-72.76"/>
</a>
</g>
</g>
<!-- Node16 -->
<g id="Node000016" class="node">
<title>Node16</title>
<g id="a_Node000016"><a xlink:href="X__O__5x5_8cpp.html" target="_top" xlink:title=" ">
<polygon fill="white" stroke="#666666" points="906.5,-24.5 809.5,-24.5 809.5,-5.5 906.5,-5.5 906.5,-24.5"/>
<text text-anchor="middle" x="858" y="-12.5" font-family="Helvetica,sans-Serif" font-size="10.00">src/X_O_5x5.cpp</text>
</a>
</g>
</g>
<!-- Node15&#45;&gt;Node16 -->
<g id="edge20_Node000015_Node000016" class="edge">
<title>Node15&#45;&gt;Node16</title>
<g id="a_edge20_Node000015_Node000016"><a xlink:title=" ">
<path fill="none" stroke="#63b8ff" d="M844.51,-61.45C848.07,-49.43 852.56,-34.32 855.36,-24.91"/>
<polygon fill="#63b8ff" stroke="#63b8ff" points="841.05,-60.79 841.56,-71.37 847.76,-62.78 841.05,-60.79"/>
</a>
</g>
</g>
</g>
</svg>
