<?xml version="1.0" encoding="UTF-8" standalone="no"?>
<!DOCTYPE svg PUBLIC "-//W3C//DTD SVG 1.1//EN"
 "http://www.w3.org/Graphics/SVG/1.1/DTD/svg11.dtd">
<!-- Generated by graphviz version 2.43.0 (0)
 -->
<!-- Title: wordSmartPlayer::calculateMove2 Pages: 1 -->
<svg width="722pt" height="206pt"
 viewBox="0.00 0.00 722.00 206.00" xmlns="http://www.w3.org/2000/svg" xmlns:xlink="http://www.w3.org/1999/xlink">
<g id="graph0" class="graph" transform="scale(1 1) rotate(0) translate(4 202)">
<title>wordSmartPlayer::calculateMove2</title>
<!-- Node1 -->
<g id="Node000001" class="node">
<title>Node1</title>
<g id="a_Node000001"><a xlink:title=" ">
<polygon fill="#999999" stroke="#666666" points="151,-117.5 0,-117.5 0,-87.5 151,-87.5 151,-117.5"/>
<text text-anchor="start" x="8" y="-105.5" font-family="Helvetica,sans-Serif" font-size="10.00">wordSmartPlayer::calculate</text>
<text text-anchor="middle" x="75.5" y="-94.5" font-family="Helvetica,sans-Serif" font-size="10.00">Move2</text>
</a>
</g>
</g>
<!-- Node2 -->
<g id="Node000002" class="node">
<title>Node2</title>
<g id="a_Node000002"><a xlink:href="classPlayer.html#a508617eddfae8915d098102d480fc888" target="_top" xlink:title="Get a pointer to the game board.">
<polygon fill="white" stroke="#666666" points="322.5,-198 201.5,-198 201.5,-179 322.5,-179 322.5,-198"/>
<text text-anchor="middle" x="262" y="-186" font-family="Helvetica,sans-Serif" font-size="10.00">Player::get_board_ptr</text>
</a>
</g>
</g>
<!-- Node1&#45;&gt;Node2 -->
<g id="edge1_Node000001_Node000002" class="edge">
<title>Node1&#45;&gt;Node2</title>
<g id="a_edge1_Node000001_Node000002"><a xlink:title=" ">
<path fill="none" stroke="#63b8ff" d="M97.1,-117.55C118.58,-132.6 153.71,-155.49 187,-169.5 192.78,-171.93 198.94,-174.11 205.16,-176.05"/>
<polygon fill="#63b8ff" stroke="#63b8ff" points="204.33,-179.46 214.91,-178.9 206.29,-172.74 204.33,-179.46"/>
</a>
</g>
</g>
<!-- Node3 -->
<g id="Node000003" class="node">
<title>Node3</title>
<g id="a_Node000003"><a xlink:href="classsmartPlayer.html#afb2249c0850bf2f4debaece4f4df9bf3" target="_top" xlink:title=" ">
<polygon fill="white" stroke="#666666" points="327.5,-160.5 196.5,-160.5 196.5,-130.5 327.5,-130.5 327.5,-160.5"/>
<text text-anchor="start" x="204.5" y="-148.5" font-family="Helvetica,sans-Serif" font-size="10.00">smartPlayer&lt; char &gt;</text>
<text text-anchor="middle" x="262" y="-137.5" font-family="Helvetica,sans-Serif" font-size="10.00">::get_opponent_symbol</text>
</a>
</g>
</g>
<!-- Node1&#45;&gt;Node3 -->
<g id="edge2_Node000001_Node000003" class="edge">
<title>Node1&#45;&gt;Node3</title>
<g id="a_edge2_Node000001_Node000003"><a xlink:title=" ">
<path fill="none" stroke="#63b8ff" d="M141.03,-117.54C155.78,-120.98 171.57,-124.66 186.69,-128.18"/>
<polygon fill="#63b8ff" stroke="#63b8ff" points="185.97,-131.61 196.51,-130.47 187.56,-124.79 185.97,-131.61"/>
</a>
</g>
</g>
<!-- Node4 -->
<g id="Node000004" class="node">
<title>Node4</title>
<g id="a_Node000004"><a xlink:href="classPlayer.html#af56f0bf98c0423a3a75b0848607d03a4" target="_top" xlink:title="Get the player&#39;s symbol.">
<polygon fill="white" stroke="#666666" points="317,-112 207,-112 207,-93 317,-93 317,-112"/>
<text text-anchor="middle" x="262" y="-100" font-family="Helvetica,sans-Serif" font-size="10.00">Player::get_symbol</text>
</a>
</g>
</g>
<!-- Node1&#45;&gt;Node4 -->
<g id="edge3_Node000001_Node000004" class="edge">
<title>Node1&#45;&gt;Node4</title>
<g id="a_edge3_Node000001_Node000004"><a xlink:title=" ">
<path fill="none" stroke="#63b8ff" d="M151.01,-102.5C166.21,-102.5 182.07,-102.5 196.87,-102.5"/>
<polygon fill="#63b8ff" stroke="#63b8ff" points="196.92,-106 206.92,-102.5 196.92,-99 196.92,-106"/>
</a>
</g>
</g>
<!-- Node5 -->
<g id="Node000005" class="node">
<title>Node5</title>
<g id="a_Node000005"><a xlink:href="classwordSmartPlayer.html#ad2958d2928652d713002043fe27fdf9b" target="_top" xlink:title=" ">
<polygon fill="white" stroke="#666666" points="337,-57 187,-57 187,-38 337,-38 337,-57"/>
<text text-anchor="middle" x="262" y="-45" font-family="Helvetica,sans-Serif" font-size="10.00">wordSmartPlayer::minimax</text>
</a>
</g>
</g>
<!-- Node1&#45;&gt;Node5 -->
<g id="edge4_Node000001_Node000005" class="edge">
<title>Node1&#45;&gt;Node5</title>
<g id="a_edge4_Node000001_Node000005"><a xlink:title=" ">
<path fill="none" stroke="#63b8ff" d="M126.92,-87.47C155.9,-78.83 191.87,-68.11 219.26,-59.94"/>
<polygon fill="#63b8ff" stroke="#63b8ff" points="220.35,-63.27 228.93,-57.06 218.35,-56.56 220.35,-63.27"/>
</a>
</g>
</g>
<!-- Node11 -->
<g id="Node000011" class="node">
<title>Node11</title>
<g id="a_Node000011"><a xlink:href="classPlayer.html#adb4e803a7ac0356b111b8ca79d766976" target="_top" xlink:title="Construct a player with name, symbol, and type.">
<polygon fill="white" stroke="#666666" points="489.5,-19 405.5,-19 405.5,0 489.5,0 489.5,-19"/>
<text text-anchor="middle" x="447.5" y="-7" font-family="Helvetica,sans-Serif" font-size="10.00">Player::Player</text>
</a>
</g>
</g>
<!-- Node1&#45;&gt;Node11 -->
<g id="edge12_Node000001_Node000011" class="edge">
<title>Node1&#45;&gt;Node11</title>
<g id="a_edge12_Node000001_Node000011"><a xlink:title=" ">
<path fill="none" stroke="#63b8ff" d="M92.97,-87.38C113.34,-69.72 149.89,-41.28 187,-28.5 256.07,-4.72 341.43,-3.4 394.94,-5.66"/>
<polygon fill="#63b8ff" stroke="#63b8ff" points="395.05,-9.17 405.2,-6.15 395.38,-2.17 395.05,-9.17"/>
</a>
</g>
</g>
<!-- Node5&#45;&gt;Node5 -->
<g id="edge10_Node000005_Node000005" class="edge">
<title>Node5&#45;&gt;Node5</title>
<g id="a_edge10_Node000005_Node000005"><a xlink:title=" ">
<path fill="none" stroke="#63b8ff" d="M233.64,-57.08C219.84,-65.73 229.3,-75 262,-75 284.48,-75 295.98,-70.62 296.48,-65.07"/>
<polygon fill="#63b8ff" stroke="#63b8ff" points="299.22,-62.89 290.36,-57.08 293.66,-67.15 299.22,-62.89"/>
</a>
</g>
</g>
<!-- Node6 -->
<g id="Node000006" class="node">
<title>Node6</title>
<g id="a_Node000006"><a xlink:href="classwordSmartPlayer.html#a08ecaf78a83b4a706176529ddc9e6119" target="_top" xlink:title=" ">
<polygon fill="white" stroke="#666666" points="522,-152.5 373,-152.5 373,-122.5 522,-122.5 522,-152.5"/>
<text text-anchor="start" x="381" y="-140.5" font-family="Helvetica,sans-Serif" font-size="10.00">wordSmartPlayer::evaluate</text>
<text text-anchor="middle" x="447.5" y="-129.5" font-family="Helvetica,sans-Serif" font-size="10.00">_board</text>
</a>
</g>
</g>
<!-- Node5&#45;&gt;Node6 -->
<g id="edge5_Node000005_Node000006" class="edge">
<title>Node5&#45;&gt;Node6</title>
<g id="a_edge5_Node000005_Node000006"><a xlink:title=" ">
<path fill="none" stroke="#63b8ff" d="M285.04,-57.01C300.12,-63.87 320.32,-73.79 337,-84.5 354.29,-95.6 354.94,-103.71 373,-113.5 376.26,-115.27 379.67,-116.93 383.17,-118.5"/>
<polygon fill="#63b8ff" stroke="#63b8ff" points="381.98,-121.8 392.56,-122.41 384.67,-115.33 381.98,-121.8"/>
</a>
</g>
</g>
<!-- Node8 -->
<g id="Node000008" class="node">
<title>Node8</title>
<g id="a_Node000008"><a xlink:href="classsmartPlayer.html#a046e18221d92303afd36dca43d859898" target="_top" xlink:title=" ">
<polygon fill="white" stroke="#666666" points="507,-104.5 388,-104.5 388,-74.5 507,-74.5 507,-104.5"/>
<text text-anchor="start" x="396" y="-92.5" font-family="Helvetica,sans-Serif" font-size="10.00">smartPlayer&lt; char &gt;</text>
<text text-anchor="middle" x="447.5" y="-81.5" font-family="Helvetica,sans-Serif" font-size="10.00">::is_draw</text>
</a>
</g>
</g>
<!-- Node5&#45;&gt;Node8 -->
<g id="edge7_Node000005_Node000008" class="edge">
<title>Node5&#45;&gt;Node8</title>
<g id="a_edge7_Node000005_Node000008"><a xlink:title=" ">
<path fill="none" stroke="#63b8ff" d="M304.64,-57.03C326.29,-61.99 353.32,-68.17 377.96,-73.81"/>
<polygon fill="#63b8ff" stroke="#63b8ff" points="377.46,-77.29 387.98,-76.11 379.02,-70.46 377.46,-77.29"/>
</a>
</g>
</g>
<!-- Node9 -->
<g id="Node000009" class="node">
<title>Node9</title>
<g id="a_Node000009"><a xlink:href="classwordSmartPlayer.html#a626ed24f5a4811dde93bfaf94ce81497" target="_top" xlink:title=" ">
<polygon fill="white" stroke="#666666" points="516,-56 379,-56 379,-37 516,-37 516,-56"/>
<text text-anchor="middle" x="447.5" y="-44" font-family="Helvetica,sans-Serif" font-size="10.00">wordSmartPlayer::is_win</text>
</a>
</g>
</g>
<!-- Node5&#45;&gt;Node9 -->
<g id="edge8_Node000005_Node000009" class="edge">
<title>Node5&#45;&gt;Node9</title>
<g id="a_edge8_Node000005_Node000009"><a xlink:title=" ">
<path fill="none" stroke="#63b8ff" d="M337.11,-47.1C347.59,-47.04 358.38,-46.98 368.92,-46.92"/>
<polygon fill="#63b8ff" stroke="#63b8ff" points="368.95,-50.42 378.93,-46.87 368.91,-43.42 368.95,-50.42"/>
</a>
</g>
</g>
<!-- Node5&#45;&gt;Node11 -->
<g id="edge11_Node000005_Node000011" class="edge">
<title>Node5&#45;&gt;Node11</title>
<g id="a_edge11_Node000005_Node000011"><a xlink:title=" ">
<path fill="none" stroke="#63b8ff" d="M309.3,-37.91C335.48,-32.49 368.25,-25.7 395.2,-20.12"/>
<polygon fill="#63b8ff" stroke="#63b8ff" points="396.14,-23.5 405.22,-18.05 394.72,-16.65 396.14,-23.5"/>
</a>
</g>
</g>
<!-- Node7 -->
<g id="Node000007" class="node">
<title>Node7</title>
<g id="a_Node000007"><a xlink:href="classwordSmartPlayer.html#a1fe6cbd81a0e85792f482bb50f5e4b5f" target="_top" xlink:title=" ">
<polygon fill="white" stroke="#666666" points="714,-147 558,-147 558,-128 714,-128 714,-147"/>
<text text-anchor="middle" x="636" y="-135" font-family="Helvetica,sans-Serif" font-size="10.00">wordSmartPlayer::score_line</text>
</a>
</g>
</g>
<!-- Node6&#45;&gt;Node7 -->
<g id="edge6_Node000006_Node000007" class="edge">
<title>Node6&#45;&gt;Node7</title>
<g id="a_edge6_Node000006_Node000007"><a xlink:title=" ">
<path fill="none" stroke="#63b8ff" d="M522.21,-137.5C530.63,-137.5 539.26,-137.5 547.83,-137.5"/>
<polygon fill="#63b8ff" stroke="#63b8ff" points="547.84,-141 557.84,-137.5 547.84,-134 547.84,-141"/>
</a>
</g>
</g>
<!-- Node10 -->
<g id="Node000010" class="node">
<title>Node10</title>
<g id="a_Node000010"><a xlink:href="classwordSmartPlayer.html#a153987c87159821a01b6ceb0e81a4d73" target="_top" xlink:title=" ">
<polygon fill="white" stroke="#666666" points="693.5,-61.5 578.5,-61.5 578.5,-31.5 693.5,-31.5 693.5,-61.5"/>
<text text-anchor="start" x="586.5" y="-49.5" font-family="Helvetica,sans-Serif" font-size="10.00">wordSmartPlayer::is</text>
<text text-anchor="middle" x="636" y="-38.5" font-family="Helvetica,sans-Serif" font-size="10.00">_valid_word</text>
</a>
</g>
</g>
<!-- Node9&#45;&gt;Node10 -->
<g id="edge9_Node000009_Node000010" class="edge">
<title>Node9&#45;&gt;Node10</title>
<g id="a_edge9_Node000009_Node000010"><a xlink:title=" ">
<path fill="none" stroke="#63b8ff" d="M516.09,-46.5C533.01,-46.5 551.16,-46.5 568.05,-46.5"/>
<polygon fill="#63b8ff" stroke="#63b8ff" points="568.38,-50 578.38,-46.5 568.38,-43 568.38,-50"/>
</a>
</g>
</g>
</g>
</svg>
