<?xml version="1.0" encoding="UTF-8" standalone="no"?>
<!DOCTYPE svg PUBLIC "-//W3C//DTD SVG 1.1//EN"
 "http://www.w3.org/Graphics/SVG/1.1/DTD/svg11.dtd">
<!-- Generated by graphviz version 2.43.0 (0)
 -->
<!-- Title: Ultimate_XO_Board Pages: 1 -->
<svg width="134pt" height="93pt"
 viewBox="0.00 0.00 134.00 93.00" xmlns="http://www.w3.org/2000/svg" xmlns:xlink="http://www.w3.org/1999/xlink">
<g id="graph0" class="graph" transform="scale(1 1) rotate(0) translate(4 89)">
<title>Ultimate_XO_Board</title>
<!-- Node1 -->
<g id="Node000001" class="node">
<title>Node1</title>
<g id="a_Node000001"><a xlink:title=" ">
<polygon fill="#999999" stroke="#666666" points="112,-19 0,-19 0,0 112,0 112,-19"/>
<text text-anchor="middle" x="56" y="-7" font-family="Helvetica,sans-Serif" font-size="10.00">Ultimate_XO_Board</text>
</a>
</g>
</g>
<!-- Node2 -->
<g id="Node000002" class="node">
<title>Node2</title>
<g id="a_Node000002"><a xlink:href="classBoard.html" target="_top" xlink:title=" ">
<polygon fill="white" stroke="#666666" points="100.5,-85 11.5,-85 11.5,-66 100.5,-66 100.5,-85"/>
<text text-anchor="middle" x="56" y="-73" font-family="Helvetica,sans-Serif" font-size="10.00">Board&lt; char &gt;</text>
</a>
</g>
</g>
<!-- Node2&#45;&gt;Node1 -->
<g id="edge1_Node000001_Node000002" class="edge">
<title>Node2&#45;&gt;Node1</title>
<g id="a_edge1_Node000001_Node000002"><a xlink:title=" ">
<path fill="none" stroke="#63b8ff" d="M54.4,-55.69C54.24,-53.11 54.09,-50.49 54,-48 53.63,-38.1 54.4,-26.73 55.09,-19.14"/>
<polygon fill="#63b8ff" stroke="#63b8ff" points="50.92,-55.97 55.17,-65.68 57.9,-55.44 50.92,-55.97"/>
</a>
</g>
</g>
<!-- Node2&#45;&gt;Node1 -->
<g id="edge2_Node000001_Node000002" class="edge">
<title>Node2&#45;&gt;Node1</title>
<g id="a_edge2_Node000001_Node000002"><a xlink:title=" ">
<path fill="none" stroke="#9a32cd" stroke-dasharray="5,2" d="M56,-55.58C56,-43.63 56,-28.72 56,-19.41"/>
<polygon fill="#9a32cd" stroke="#9a32cd" points="52.5,-55.87 56,-65.87 59.5,-55.87 52.5,-55.87"/>
</a>
</g>
<text text-anchor="middle" x="91" y="-40" font-family="Helvetica,sans-Serif" font-size="10.00" fill="grey"> mainBoardPtr</text>
</g>
</g>
</svg>
