<?xml version="1.0" encoding="UTF-8" standalone="no"?>
<!DOCTYPE svg PUBLIC "-//W3C//DTD SVG 1.1//EN"
 "http://www.w3.org/Graphics/SVG/1.1/DTD/svg11.dtd">
<!-- Generated by graphviz version 2.43.0 (0)
 -->
<!-- Title: Player::get_type Pages: 1 -->
<svg width="296pt" height="224pt"
 viewBox="0.00 0.00 296.00 224.00" xmlns="http://www.w3.org/2000/svg" xmlns:xlink="http://www.w3.org/1999/xlink">
<g id="graph0" class="graph" transform="scale(1 1) rotate(0) translate(4 220)">
<title>Player::get_type</title>
<!-- Node1 -->
<g id="Node000001" class="node">
<title>Node1</title>
<g id="a_Node000001"><a xlink:title="Get player type (e.g., &#39;H&#39; or &#39;C&#39;).">
<polygon fill="#999999" stroke="#666666" points="288,-114 192,-114 192,-95 288,-95 288,-114"/>
<text text-anchor="middle" x="240" y="-102" font-family="Helvetica,sans-Serif" font-size="10.00">Player::get_type</text>
</a>
</g>
</g>
<!-- Node2 -->
<g id="Node000002" class="node">
<title>Node2</title>
<g id="a_Node000002"><a xlink:href="classFour__Four__XO__UI.html#a462e22aa01d930bda7449c759f36c86f" target="_top" xlink:title="Retrieves the next move from a player.">
<polygon fill="white" stroke="#666666" points="154.5,-216 1.5,-216 1.5,-197 154.5,-197 154.5,-216"/>
<text text-anchor="middle" x="78" y="-204" font-family="Helvetica,sans-Serif" font-size="10.00">Four_Four_XO_UI::get_move</text>
</a>
</g>
</g>
<!-- Node1&#45;&gt;Node2 -->
<g id="edge1_Node000001_Node000002" class="edge">
<title>Node1&#45;&gt;Node2</title>
<g id="a_edge1_Node000001_Node000002"><a xlink:title=" ">
<path fill="none" stroke="#63b8ff" d="M226.38,-122.27C211.7,-141.58 185.65,-171.9 156,-188.5 149.89,-191.92 143.16,-194.69 136.3,-196.94"/>
<polygon fill="#63b8ff" stroke="#63b8ff" points="229.35,-124.14 232.47,-114.02 223.72,-119.99 229.35,-124.14"/>
</a>
</g>
</g>
<!-- Node3 -->
<g id="Node000003" class="node">
<title>Node3</title>
<g id="a_Node000003"><a xlink:href="classInfinit__XO__UI.html#a01e2ad782bacda8c2f7cff214617b54c" target="_top" xlink:title="Retrieves the next move from a player.">
<polygon fill="white" stroke="#666666" points="145,-179 11,-179 11,-160 145,-160 145,-179"/>
<text text-anchor="middle" x="78" y="-167" font-family="Helvetica,sans-Serif" font-size="10.00">Infinit_XO_UI::get_move</text>
</a>
</g>
</g>
<!-- Node1&#45;&gt;Node3 -->
<g id="edge2_Node000001_Node000003" class="edge">
<title>Node1&#45;&gt;Node3</title>
<g id="a_edge2_Node000001_Node000003"><a xlink:title=" ">
<path fill="none" stroke="#63b8ff" d="M215.82,-119.53C199.61,-129.49 177.15,-142.2 156,-150.5 146.52,-154.22 136.08,-157.38 126.04,-159.99"/>
<polygon fill="#63b8ff" stroke="#63b8ff" points="217.97,-122.31 224.59,-114.04 214.25,-116.38 217.97,-122.31"/>
</a>
</g>
</g>
<!-- Node4 -->
<g id="Node000004" class="node">
<title>Node4</title>
<g id="a_Node000004"><a xlink:href="classMisere__Tic__Tac__Toe__UI.html#a13c2f356fe79f87ed9bce9ca4efadb68" target="_top" xlink:title="Retrieves the next move from a player.">
<polygon fill="white" stroke="#666666" points="134,-141.5 22,-141.5 22,-111.5 134,-111.5 134,-141.5"/>
<text text-anchor="start" x="30" y="-129.5" font-family="Helvetica,sans-Serif" font-size="10.00">Misere_Tic_Tac_Toe</text>
<text text-anchor="middle" x="78" y="-118.5" font-family="Helvetica,sans-Serif" font-size="10.00">_UI::get_move</text>
</a>
</g>
</g>
<!-- Node1&#45;&gt;Node4 -->
<g id="edge3_Node000001_Node000004" class="edge">
<title>Node1&#45;&gt;Node4</title>
<g id="a_edge3_Node000001_Node000004"><a xlink:title=" ">
<path fill="none" stroke="#63b8ff" d="M181.89,-112.35C166.39,-114.48 149.65,-116.79 134.26,-118.9"/>
<polygon fill="#63b8ff" stroke="#63b8ff" points="182.43,-115.81 191.86,-110.98 181.48,-108.88 182.43,-115.81"/>
</a>
</g>
</g>
<!-- Node5 -->
<g id="Node000005" class="node">
<title>Node5</title>
<g id="a_Node000005"><a xlink:href="classNumerical__XO__UI.html#af6296ae59c604456f531f4e996e99467" target="_top" xlink:title="Ask the user (or AI) to make a move.">
<polygon fill="white" stroke="#666666" points="156,-93 0,-93 0,-74 156,-74 156,-93"/>
<text text-anchor="middle" x="78" y="-81" font-family="Helvetica,sans-Serif" font-size="10.00">Numerical_XO_UI::get_move</text>
</a>
</g>
</g>
<!-- Node1&#45;&gt;Node5 -->
<g id="edge4_Node000001_Node000005" class="edge">
<title>Node1&#45;&gt;Node5</title>
<g id="a_edge4_Node000001_Node000005"><a xlink:title=" ">
<path fill="none" stroke="#63b8ff" d="M181.86,-97C172.06,-95.71 161.76,-94.36 151.62,-93.03"/>
<polygon fill="#63b8ff" stroke="#63b8ff" points="181.49,-100.48 191.86,-98.31 182.4,-93.54 181.49,-100.48"/>
</a>
</g>
</g>
<!-- Node6 -->
<g id="Node000006" class="node">
<title>Node6</title>
<g id="a_Node000006"><a xlink:href="classSUS__UI.html#a621a4bfadf8d79f2b2b66f2241c310c3" target="_top" xlink:title="Retrieves the next move from a player.">
<polygon fill="white" stroke="#666666" points="131.5,-56 24.5,-56 24.5,-37 131.5,-37 131.5,-56"/>
<text text-anchor="middle" x="78" y="-44" font-family="Helvetica,sans-Serif" font-size="10.00">SUS_UI::get_move</text>
</a>
</g>
</g>
<!-- Node1&#45;&gt;Node6 -->
<g id="edge5_Node000001_Node000006" class="edge">
<title>Node1&#45;&gt;Node6</title>
<g id="a_edge5_Node000001_Node000006"><a xlink:title=" ">
<path fill="none" stroke="#63b8ff" d="M212.04,-90.17C196.08,-82.11 175.26,-72.33 156,-65.5 145.88,-61.91 134.77,-58.75 124.23,-56.08"/>
<polygon fill="#63b8ff" stroke="#63b8ff" points="210.8,-93.47 221.3,-94.93 214,-87.25 210.8,-93.47"/>
</a>
</g>
</g>
<!-- Node7 -->
<g id="Node000007" class="node">
<title>Node7</title>
<g id="a_Node000007"><a xlink:href="classX__O__5x5__UI.html#a60163186f3074fea418f530e78f5f9f1" target="_top" xlink:title="Ask the user (or AI) to make a move.">
<polygon fill="white" stroke="#666666" points="143,-19 13,-19 13,0 143,0 143,-19"/>
<text text-anchor="middle" x="78" y="-7" font-family="Helvetica,sans-Serif" font-size="10.00">X_O_5x5_UI::get_move</text>
</a>
</g>
</g>
<!-- Node1&#45;&gt;Node7 -->
<g id="edge6_Node000001_Node000007" class="edge">
<title>Node1&#45;&gt;Node7</title>
<g id="a_edge6_Node000001_Node000007"><a xlink:title=" ">
<path fill="none" stroke="#63b8ff" d="M224.81,-87.19C209.59,-69.76 183.83,-43.4 156,-28.5 148.84,-24.66 140.89,-21.59 132.89,-19.12"/>
<polygon fill="#63b8ff" stroke="#63b8ff" points="222.25,-89.58 231.4,-94.93 227.58,-85.05 222.25,-89.58"/>
</a>
</g>
</g>
</g>
</svg>
