<?xml version="1.0" encoding="UTF-8" standalone="no"?>
<!DOCTYPE svg PUBLIC "-//W3C//DTD SVG 1.1//EN"
 "http://www.w3.org/Graphics/SVG/1.1/DTD/svg11.dtd">
<!-- Generated by graphviz version 2.43.0 (0)
 -->
<!-- Title: Infinity_X_O_Board::is_win Pages: 1 -->
<svg width="407pt" height="59pt"
 viewBox="0.00 0.00 407.00 59.00" xmlns="http://www.w3.org/2000/svg" xmlns:xlink="http://www.w3.org/1999/xlink">
<g id="graph0" class="graph" transform="scale(1 1) rotate(0) translate(4 55)">
<title>Infinity_X_O_Board::is_win</title>
<!-- Node1 -->
<g id="Node000001" class="node">
<title>Node1</title>
<g id="a_Node000001"><a xlink:title="Checks if the given player has won the game.">
<polygon fill="#999999" stroke="#666666" points="399,-51 290,-51 290,-21 399,-21 399,-51"/>
<text text-anchor="start" x="298" y="-39" font-family="Helvetica,sans-Serif" font-size="10.00">Infinity_X_O_Board</text>
<text text-anchor="middle" x="344.5" y="-28" font-family="Helvetica,sans-Serif" font-size="10.00">::is_win</text>
</a>
</g>
</g>
<!-- Node2 -->
<g id="Node000002" class="node">
<title>Node2</title>
<g id="a_Node000002"><a xlink:href="classInfinity__X__O__Board.html#aecd2c26979b7ba39a036ec469363f6bf" target="_top" xlink:title="Determines if the game is over (win or draw).">
<polygon fill="white" stroke="#666666" points="109,-51 0,-51 0,-21 109,-21 109,-51"/>
<text text-anchor="start" x="8" y="-39" font-family="Helvetica,sans-Serif" font-size="10.00">Infinity_X_O_Board</text>
<text text-anchor="middle" x="54.5" y="-28" font-family="Helvetica,sans-Serif" font-size="10.00">::game_is_over</text>
</a>
</g>
</g>
<!-- Node1&#45;&gt;Node2 -->
<g id="edge1_Node000001_Node000002" class="edge">
<title>Node1&#45;&gt;Node2</title>
<g id="a_edge1_Node000001_Node000002"><a xlink:title=" ">
<path fill="none" stroke="#63b8ff" d="M279.55,-38.4C270.96,-38.65 262.27,-38.86 254,-39 205.56,-39.81 193.44,-39.81 145,-39 133.5,-38.81 121.17,-38.48 109.45,-38.1"/>
<polygon fill="#63b8ff" stroke="#63b8ff" points="279.66,-41.9 289.55,-38.1 279.45,-34.91 279.66,-41.9"/>
</a>
</g>
</g>
<!-- Node3 -->
<g id="Node000003" class="node">
<title>Node3</title>
<g id="a_Node000003"><a xlink:href="classInfinity__X__O__Board.html#a27dc0d692d24c8ec6e921267424bf046" target="_top" xlink:title="Checks if the game has ended in a draw.">
<polygon fill="white" stroke="#666666" points="254,-30 145,-30 145,0 254,0 254,-30"/>
<text text-anchor="start" x="153" y="-18" font-family="Helvetica,sans-Serif" font-size="10.00">Infinity_X_O_Board</text>
<text text-anchor="middle" x="199.5" y="-7" font-family="Helvetica,sans-Serif" font-size="10.00">::is_draw</text>
</a>
</g>
</g>
<!-- Node1&#45;&gt;Node3 -->
<g id="edge2_Node000001_Node000003" class="edge">
<title>Node1&#45;&gt;Node3</title>
<g id="a_edge2_Node000001_Node000003"><a xlink:title=" ">
<path fill="none" stroke="#63b8ff" d="M279.68,-26.63C271.25,-25.39 262.69,-24.13 254.46,-22.92"/>
<polygon fill="#63b8ff" stroke="#63b8ff" points="279.44,-30.13 289.85,-28.12 280.46,-23.2 279.44,-30.13"/>
</a>
</g>
</g>
<!-- Node3&#45;&gt;Node2 -->
<g id="edge3_Node000003_Node000002" class="edge">
<title>Node3&#45;&gt;Node2</title>
<g id="a_edge3_Node000003_Node000002"><a xlink:title=" ">
<path fill="none" stroke="#63b8ff" d="M134.68,-24.37C126.25,-25.61 117.69,-26.87 109.46,-28.08"/>
<polygon fill="#63b8ff" stroke="#63b8ff" points="135.46,-27.8 144.85,-22.88 134.44,-20.87 135.46,-27.8"/>
</a>
</g>
</g>
</g>
</svg>
