<?xml version="1.0" encoding="UTF-8" standalone="no"?>
<!DOCTYPE svg PUBLIC "-//W3C//DTD SVG 1.1//EN"
 "http://www.w3.org/Graphics/SVG/1.1/DTD/svg11.dtd">
<!-- Generated by graphviz version 2.43.0 (0)
 -->
<!-- Title: Player::get_symbol Pages: 1 -->
<svg width="578pt" height="97pt"
 viewBox="0.00 0.00 578.00 96.50" xmlns="http://www.w3.org/2000/svg" xmlns:xlink="http://www.w3.org/1999/xlink">
<g id="graph0" class="graph" transform="scale(1 1) rotate(0) translate(4 92.5)">
<title>Player::get_symbol</title>
<!-- Node1 -->
<g id="Node000001" class="node">
<title>Node1</title>
<g id="a_Node000001"><a xlink:title="Get the player&#39;s symbol.">
<polygon fill="#999999" stroke="#666666" points="570,-66.5 460,-66.5 460,-47.5 570,-47.5 570,-66.5"/>
<text text-anchor="middle" x="515" y="-54.5" font-family="Helvetica,sans-Serif" font-size="10.00">Player::get_symbol</text>
</a>
</g>
</g>
<!-- Node2 -->
<g id="Node000002" class="node">
<title>Node2</title>
<g id="a_Node000002"><a xlink:href="classInfinit__XO__UI.html#a01e2ad782bacda8c2f7cff214617b54c" target="_top" xlink:title="Retrieves the next move from a player.">
<polygon fill="white" stroke="#666666" points="424,-88.5 290,-88.5 290,-69.5 424,-69.5 424,-88.5"/>
<text text-anchor="middle" x="357" y="-76.5" font-family="Helvetica,sans-Serif" font-size="10.00">Infinit_XO_UI::get_move</text>
</a>
</g>
</g>
<!-- Node1&#45;&gt;Node2 -->
<g id="edge1_Node000001_Node000002" class="edge">
<title>Node1&#45;&gt;Node2</title>
<g id="a_edge1_Node000001_Node000002"><a xlink:title=" ">
<path fill="none" stroke="#63b8ff" d="M449.71,-66.07C441.27,-67.26 432.6,-68.48 424.13,-69.67"/>
<polygon fill="#63b8ff" stroke="#63b8ff" points="450.46,-69.5 459.88,-64.63 449.49,-62.56 450.46,-69.5"/>
</a>
</g>
</g>
<!-- Node3 -->
<g id="Node000003" class="node">
<title>Node3</title>
<g id="a_Node000003"><a xlink:href="classInfinity__X__O__Board.html#adee61151bd324d1e28fb1391e1df0789" target="_top" xlink:title="Checks if the given player has won the game.">
<polygon fill="white" stroke="#666666" points="411.5,-51 302.5,-51 302.5,-21 411.5,-21 411.5,-51"/>
<text text-anchor="start" x="310.5" y="-39" font-family="Helvetica,sans-Serif" font-size="10.00">Infinity_X_O_Board</text>
<text text-anchor="middle" x="357" y="-28" font-family="Helvetica,sans-Serif" font-size="10.00">::is_win</text>
</a>
</g>
</g>
<!-- Node1&#45;&gt;Node3 -->
<g id="edge2_Node000001_Node000003" class="edge">
<title>Node1&#45;&gt;Node3</title>
<g id="a_edge2_Node000001_Node000003"><a xlink:title=" ">
<path fill="none" stroke="#63b8ff" d="M449.8,-48.36C437.07,-46.64 423.83,-44.86 411.5,-43.2"/>
<polygon fill="#63b8ff" stroke="#63b8ff" points="449.5,-51.85 459.88,-49.71 450.43,-44.91 449.5,-51.85"/>
</a>
</g>
</g>
<!-- Node4 -->
<g id="Node000004" class="node">
<title>Node4</title>
<g id="a_Node000004"><a xlink:href="classInfinity__X__O__Board.html#aecd2c26979b7ba39a036ec469363f6bf" target="_top" xlink:title="Determines if the game is over (win or draw).">
<polygon fill="white" stroke="#666666" points="109,-51 0,-51 0,-21 109,-21 109,-51"/>
<text text-anchor="start" x="8" y="-39" font-family="Helvetica,sans-Serif" font-size="10.00">Infinity_X_O_Board</text>
<text text-anchor="middle" x="54.5" y="-28" font-family="Helvetica,sans-Serif" font-size="10.00">::game_is_over</text>
</a>
</g>
</g>
<!-- Node3&#45;&gt;Node4 -->
<g id="edge3_Node000003_Node000004" class="edge">
<title>Node3&#45;&gt;Node4</title>
<g id="a_edge3_Node000003_Node000004"><a xlink:title=" ">
<path fill="none" stroke="#63b8ff" d="M292.25,-38.16C279.58,-38.51 266.37,-38.82 254,-39 205.56,-39.71 193.44,-39.81 145,-39 133.5,-38.81 121.17,-38.48 109.45,-38.1"/>
<polygon fill="#63b8ff" stroke="#63b8ff" points="292.38,-41.66 302.28,-37.88 292.18,-34.66 292.38,-41.66"/>
</a>
</g>
</g>
<!-- Node5 -->
<g id="Node000005" class="node">
<title>Node5</title>
<g id="a_Node000005"><a xlink:href="classInfinity__X__O__Board.html#a27dc0d692d24c8ec6e921267424bf046" target="_top" xlink:title="Checks if the game has ended in a draw.">
<polygon fill="white" stroke="#666666" points="254,-30 145,-30 145,0 254,0 254,-30"/>
<text text-anchor="start" x="153" y="-18" font-family="Helvetica,sans-Serif" font-size="10.00">Infinity_X_O_Board</text>
<text text-anchor="middle" x="199.5" y="-7" font-family="Helvetica,sans-Serif" font-size="10.00">::is_draw</text>
</a>
</g>
</g>
<!-- Node3&#45;&gt;Node5 -->
<g id="edge4_Node000003_Node000005" class="edge">
<title>Node3&#45;&gt;Node5</title>
<g id="a_edge4_Node000003_Node000005"><a xlink:title=" ">
<path fill="none" stroke="#63b8ff" d="M292.42,-27.41C279.7,-25.7 266.46,-23.91 254.11,-22.24"/>
<polygon fill="#63b8ff" stroke="#63b8ff" points="292.11,-30.9 302.49,-28.77 293.04,-23.97 292.11,-30.9"/>
</a>
</g>
</g>
<!-- Node5&#45;&gt;Node4 -->
<g id="edge5_Node000005_Node000004" class="edge">
<title>Node5&#45;&gt;Node4</title>
<g id="a_edge5_Node000005_Node000004"><a xlink:title=" ">
<path fill="none" stroke="#63b8ff" d="M134.68,-24.37C126.25,-25.61 117.69,-26.87 109.46,-28.08"/>
<polygon fill="#63b8ff" stroke="#63b8ff" points="135.46,-27.8 144.85,-22.88 134.44,-20.87 135.46,-27.8"/>
</a>
</g>
</g>
</g>
</svg>
