<?xml version="1.0" encoding="UTF-8" standalone="no"?>
<!DOCTYPE svg PUBLIC "-//W3C//DTD SVG 1.1//EN"
 "http://www.w3.org/Graphics/SVG/1.1/DTD/svg11.dtd">
<!-- Generated by graphviz version 2.43.0 (0)
 -->
<!-- Title: MisereSmartPlayer::calculateMove Pages: 1 -->
<svg width="442pt" height="118pt"
 viewBox="0.00 0.00 442.00 117.50" xmlns="http://www.w3.org/2000/svg" xmlns:xlink="http://www.w3.org/1999/xlink">
<g id="graph0" class="graph" transform="scale(1 1) rotate(0) translate(4 113.5)">
<title>MisereSmartPlayer::calculateMove</title>
<!-- Node1 -->
<g id="Node000001" class="node">
<title>Node1</title>
<g id="a_Node000001"><a xlink:title=" ">
<polygon fill="#999999" stroke="#666666" points="116,-84 0,-84 0,-54 116,-54 116,-84"/>
<text text-anchor="start" x="8" y="-72" font-family="Helvetica,sans-Serif" font-size="10.00">MisereSmartPlayer::</text>
<text text-anchor="middle" x="58" y="-61" font-family="Helvetica,sans-Serif" font-size="10.00">calculateMove</text>
</a>
</g>
</g>
<!-- Node2 -->
<g id="Node000002" class="node">
<title>Node2</title>
<g id="a_Node000002"><a xlink:href="classPlayer.html#a508617eddfae8915d098102d480fc888" target="_top" xlink:title="Get a pointer to the game board.">
<polygon fill="white" stroke="#666666" points="273,-109.5 152,-109.5 152,-90.5 273,-90.5 273,-109.5"/>
<text text-anchor="middle" x="212.5" y="-97.5" font-family="Helvetica,sans-Serif" font-size="10.00">Player::get_board_ptr</text>
</a>
</g>
</g>
<!-- Node1&#45;&gt;Node2 -->
<g id="edge1_Node000001_Node000002" class="edge">
<title>Node1&#45;&gt;Node2</title>
<g id="a_edge1_Node000001_Node000002"><a xlink:title=" ">
<path fill="none" stroke="#63b8ff" d="M116.22,-80.63C128.76,-83.18 142.03,-85.88 154.55,-88.42"/>
<polygon fill="#63b8ff" stroke="#63b8ff" points="153.92,-91.87 164.41,-90.43 155.31,-85.01 153.92,-91.87"/>
</a>
</g>
</g>
<!-- Node3 -->
<g id="Node000003" class="node">
<title>Node3</title>
<g id="a_Node000003"><a xlink:href="classMisereSmartPlayer.html#abd661568433d59f2a42bc657e1946363" target="_top" xlink:title=" ">
<polygon fill="white" stroke="#666666" points="270.5,-54 154.5,-54 154.5,-24 270.5,-24 270.5,-54"/>
<text text-anchor="start" x="162.5" y="-42" font-family="Helvetica,sans-Serif" font-size="10.00">MisereSmartPlayer::</text>
<text text-anchor="middle" x="212.5" y="-31" font-family="Helvetica,sans-Serif" font-size="10.00">minimax_misere</text>
</a>
</g>
</g>
<!-- Node1&#45;&gt;Node3 -->
<g id="edge2_Node000001_Node000003" class="edge">
<title>Node1&#45;&gt;Node3</title>
<g id="a_edge2_Node000001_Node000003"><a xlink:title=" ">
<path fill="none" stroke="#63b8ff" d="M116.22,-57.74C125.41,-55.94 134.98,-54.05 144.38,-52.2"/>
<polygon fill="#63b8ff" stroke="#63b8ff" points="145.33,-55.58 154.47,-50.22 143.98,-48.72 145.33,-55.58"/>
</a>
</g>
</g>
<!-- Node3&#45;&gt;Node3 -->
<g id="edge5_Node000003_Node000003" class="edge">
<title>Node3&#45;&gt;Node3</title>
<g id="a_edge5_Node000003_Node000003"><a xlink:title=" ">
<path fill="none" stroke="#63b8ff" d="M185.43,-54.28C179.41,-63.41 188.44,-72 212.5,-72 226.79,-72 235.77,-68.97 239.46,-64.6"/>
<polygon fill="#63b8ff" stroke="#63b8ff" points="242.96,-64.31 239.57,-54.28 235.96,-64.24 242.96,-64.31"/>
</a>
</g>
</g>
<!-- Node4 -->
<g id="Node000004" class="node">
<title>Node4</title>
<g id="a_Node000004"><a xlink:href="classMisereSmartPlayer.html#a4ba7476b6aa11da797052d8483308b24" target="_top" xlink:title=" ">
<polygon fill="white" stroke="#666666" points="429.5,-78 313.5,-78 313.5,-48 429.5,-48 429.5,-78"/>
<text text-anchor="start" x="321.5" y="-66" font-family="Helvetica,sans-Serif" font-size="10.00">MisereSmartPlayer::</text>
<text text-anchor="middle" x="371.5" y="-55" font-family="Helvetica,sans-Serif" font-size="10.00">check_3_in_row</text>
</a>
</g>
</g>
<!-- Node3&#45;&gt;Node4 -->
<g id="edge3_Node000003_Node000004" class="edge">
<title>Node3&#45;&gt;Node4</title>
<g id="a_edge3_Node000003_Node000004"><a xlink:title=" ">
<path fill="none" stroke="#63b8ff" d="M270.62,-47.73C281.3,-49.36 292.54,-51.08 303.48,-52.76"/>
<polygon fill="#63b8ff" stroke="#63b8ff" points="303,-56.22 313.42,-54.27 304.06,-49.3 303,-56.22"/>
</a>
</g>
</g>
<!-- Node5 -->
<g id="Node000005" class="node">
<title>Node5</title>
<g id="a_Node000005"><a xlink:href="classMisereSmartPlayer.html#abc3a201f5a853c29a686bb9657aa3c61" target="_top" xlink:title=" ">
<polygon fill="white" stroke="#666666" points="434,-30 309,-30 309,0 434,0 434,-30"/>
<text text-anchor="start" x="317" y="-18" font-family="Helvetica,sans-Serif" font-size="10.00">MisereSmartPlayer::</text>
<text text-anchor="middle" x="371.5" y="-7" font-family="Helvetica,sans-Serif" font-size="10.00">get_opponent_symbol</text>
</a>
</g>
</g>
<!-- Node3&#45;&gt;Node5 -->
<g id="edge4_Node000003_Node000005" class="edge">
<title>Node3&#45;&gt;Node5</title>
<g id="a_edge4_Node000003_Node000005"><a xlink:title=" ">
<path fill="none" stroke="#63b8ff" d="M270.62,-30.27C279.77,-28.87 289.33,-27.41 298.76,-25.97"/>
<polygon fill="#63b8ff" stroke="#63b8ff" points="299.56,-29.39 308.92,-24.41 298.5,-22.47 299.56,-29.39"/>
</a>
</g>
</g>
</g>
</svg>
