<?xml version="1.0" encoding="UTF-8" standalone="no"?>
<!DOCTYPE svg PUBLIC "-//W3C//DTD SVG 1.1//EN"
 "http://www.w3.org/Graphics/SVG/1.1/DTD/svg11.dtd">
<!-- Generated by graphviz version 2.43.0 (0)
 -->
<!-- Title: smartPlayer2::minimax Pages: 1 -->
<svg width="798pt" height="152pt"
 viewBox="0.00 0.00 798.00 151.50" xmlns="http://www.w3.org/2000/svg" xmlns:xlink="http://www.w3.org/1999/xlink">
<g id="graph0" class="graph" transform="scale(1 1) rotate(0) translate(4 147.5)">
<title>smartPlayer2::minimax</title>
<!-- Node1 -->
<g id="Node000001" class="node">
<title>Node1</title>
<g id="a_Node000001"><a xlink:title=" ">
<polygon fill="#999999" stroke="#666666" points="131,-76 0,-76 0,-57 131,-57 131,-76"/>
<text text-anchor="middle" x="65.5" y="-64" font-family="Helvetica,sans-Serif" font-size="10.00">smartPlayer2::minimax</text>
</a>
</g>
</g>
<!-- Node1&#45;&gt;Node1 -->
<g id="edge11_Node000001_Node000001" class="edge">
<title>Node1&#45;&gt;Node1</title>
<g id="a_edge11_Node000001_Node000001"><a xlink:title=" ">
<path fill="none" stroke="#63b8ff" d="M39.91,-76.08C27.47,-84.73 36,-94 65.5,-94 84.86,-94 95.19,-90.01 96.49,-84.82"/>
<polygon fill="#63b8ff" stroke="#63b8ff" points="99.32,-82.75 91.09,-76.08 93.37,-86.43 99.32,-82.75"/>
</a>
</g>
</g>
<!-- Node2 -->
<g id="Node000002" class="node">
<title>Node2</title>
<g id="a_Node000002"><a xlink:href="classsmartPlayer2.html#afed5c26b8eb1ad21be5016ccaf15b989" target="_top" xlink:title=" ">
<polygon fill="white" stroke="#666666" points="298,-143.5 167,-143.5 167,-113.5 298,-113.5 298,-143.5"/>
<text text-anchor="start" x="175" y="-131.5" font-family="Helvetica,sans-Serif" font-size="10.00">smartPlayer2::evaluate</text>
<text text-anchor="middle" x="232.5" y="-120.5" font-family="Helvetica,sans-Serif" font-size="10.00">_board</text>
</a>
</g>
</g>
<!-- Node1&#45;&gt;Node2 -->
<g id="edge1_Node000001_Node000002" class="edge">
<title>Node1&#45;&gt;Node2</title>
<g id="a_edge1_Node000001_Node000002"><a xlink:title=" ">
<path fill="none" stroke="#63b8ff" d="M91.68,-76.06C112,-83.77 141.33,-94.87 167,-104.5 171.7,-106.26 176.6,-108.1 181.5,-109.93"/>
<polygon fill="#63b8ff" stroke="#63b8ff" points="180.29,-113.21 190.89,-113.43 182.74,-106.65 180.29,-113.21"/>
</a>
</g>
</g>
<!-- Node4 -->
<g id="Node000004" class="node">
<title>Node4</title>
<g id="a_Node000004"><a xlink:href="classsmartPlayer2.html#acf253a6afb2216922e6a1184c7b50a14" target="_top" xlink:title=" ">
<polygon fill="white" stroke="#666666" points="295,-95 170,-95 170,-76 295,-76 295,-95"/>
<text text-anchor="middle" x="232.5" y="-83" font-family="Helvetica,sans-Serif" font-size="10.00">smartPlayer2::is_draw</text>
</a>
</g>
</g>
<!-- Node1&#45;&gt;Node4 -->
<g id="edge3_Node000001_Node000004" class="edge">
<title>Node1&#45;&gt;Node4</title>
<g id="a_edge3_Node000001_Node000004"><a xlink:title=" ">
<path fill="none" stroke="#63b8ff" d="M131.24,-73.95C140.59,-75.03 150.26,-76.14 159.73,-77.24"/>
<polygon fill="#63b8ff" stroke="#63b8ff" points="159.58,-80.74 169.91,-78.41 160.38,-73.79 159.58,-80.74"/>
</a>
</g>
</g>
<!-- Node9 -->
<g id="Node000009" class="node">
<title>Node9</title>
<g id="a_Node000009"><a xlink:href="classsmartPlayer2.html#a36169753eb8ba31207c80de1769c9ceb" target="_top" xlink:title=" ">
<polygon fill="white" stroke="#666666" points="456,-57 337,-57 337,-38 456,-38 456,-57"/>
<text text-anchor="middle" x="396.5" y="-45" font-family="Helvetica,sans-Serif" font-size="10.00">smartPlayer2::is_win</text>
</a>
</g>
</g>
<!-- Node1&#45;&gt;Node9 -->
<g id="edge9_Node000001_Node000009" class="edge">
<title>Node1&#45;&gt;Node9</title>
<g id="a_edge9_Node000001_Node000009"><a xlink:title=" ">
<path fill="none" stroke="#63b8ff" d="M131.11,-62.77C187.51,-59.51 269.13,-54.8 326.73,-51.47"/>
<polygon fill="#63b8ff" stroke="#63b8ff" points="327.06,-54.96 336.84,-50.89 326.65,-47.97 327.06,-54.96"/>
</a>
</g>
</g>
<!-- Node10 -->
<g id="Node000010" class="node">
<title>Node10</title>
<g id="a_Node000010"><a xlink:href="classPlayer.html#adb4e803a7ac0356b111b8ca79d766976" target="_top" xlink:title="Construct a player with name, symbol, and type.">
<polygon fill="white" stroke="#666666" points="274.5,-19 190.5,-19 190.5,0 274.5,0 274.5,-19"/>
<text text-anchor="middle" x="232.5" y="-7" font-family="Helvetica,sans-Serif" font-size="10.00">Player::Player</text>
</a>
</g>
</g>
<!-- Node1&#45;&gt;Node10 -->
<g id="edge12_Node000001_Node000010" class="edge">
<title>Node1&#45;&gt;Node10</title>
<g id="a_edge12_Node000001_Node000010"><a xlink:title=" ">
<path fill="none" stroke="#63b8ff" d="M94.12,-56.96C121.48,-47.51 163.59,-32.96 193.98,-22.46"/>
<polygon fill="#63b8ff" stroke="#63b8ff" points="195.48,-25.65 203.79,-19.07 193.2,-19.03 195.48,-25.65"/>
</a>
</g>
</g>
<!-- Node3 -->
<g id="Node000003" class="node">
<title>Node3</title>
<g id="a_Node000003"><a xlink:href="classsmartPlayer.html#a2065c2b93e69c1851cd4d951f22b1ccb" target="_top" xlink:title=" ">
<polygon fill="white" stroke="#666666" points="459,-143.5 334,-143.5 334,-113.5 459,-113.5 459,-143.5"/>
<text text-anchor="start" x="342" y="-131.5" font-family="Helvetica,sans-Serif" font-size="10.00">smartPlayer::evaluate</text>
<text text-anchor="middle" x="396.5" y="-120.5" font-family="Helvetica,sans-Serif" font-size="10.00">_board</text>
</a>
</g>
</g>
<!-- Node2&#45;&gt;Node3 -->
<g id="edge2_Node000002_Node000003" class="edge">
<title>Node2&#45;&gt;Node3</title>
<g id="a_edge2_Node000002_Node000003"><a xlink:title=" ">
<path fill="none" stroke="#63b8ff" d="M298.46,-128.5C306.78,-128.5 315.34,-128.5 323.76,-128.5"/>
<polygon fill="#63b8ff" stroke="#63b8ff" points="323.95,-132 333.95,-128.5 323.95,-125 323.95,-132"/>
</a>
</g>
</g>
<!-- Node5 -->
<g id="Node000005" class="node">
<title>Node5</title>
<g id="a_Node000005"><a xlink:href="classsmartPlayer.html#a046e18221d92303afd36dca43d859898" target="_top" xlink:title=" ">
<polygon fill="white" stroke="#666666" points="456,-95 337,-95 337,-76 456,-76 456,-95"/>
<text text-anchor="middle" x="396.5" y="-83" font-family="Helvetica,sans-Serif" font-size="10.00">smartPlayer::is_draw</text>
</a>
</g>
</g>
<!-- Node4&#45;&gt;Node5 -->
<g id="edge4_Node000004_Node000005" class="edge">
<title>Node4&#45;&gt;Node5</title>
<g id="a_edge4_Node000004_Node000005"><a xlink:title=" ">
<path fill="none" stroke="#63b8ff" d="M295.21,-85.5C305.47,-85.5 316.17,-85.5 326.59,-85.5"/>
<polygon fill="#63b8ff" stroke="#63b8ff" points="326.9,-89 336.9,-85.5 326.9,-82 326.9,-89"/>
</a>
</g>
</g>
<!-- Node6 -->
<g id="Node000006" class="node">
<title>Node6</title>
<g id="a_Node000006"><a xlink:href="classsmartPlayer.html#afb2249c0850bf2f4debaece4f4df9bf3" target="_top" xlink:title=" ">
<polygon fill="white" stroke="#666666" points="644,-143.5 495,-143.5 495,-113.5 644,-113.5 644,-143.5"/>
<text text-anchor="start" x="503" y="-131.5" font-family="Helvetica,sans-Serif" font-size="10.00">smartPlayer::get_opponent</text>
<text text-anchor="middle" x="569.5" y="-120.5" font-family="Helvetica,sans-Serif" font-size="10.00">_symbol</text>
</a>
</g>
</g>
<!-- Node5&#45;&gt;Node6 -->
<g id="edge5_Node000005_Node000006" class="edge">
<title>Node5&#45;&gt;Node6</title>
<g id="a_edge5_Node000005_Node000006"><a xlink:title=" ">
<path fill="none" stroke="#63b8ff" d="M435.45,-95.04C454.14,-99.74 477.27,-105.56 498.97,-111.02"/>
<polygon fill="#63b8ff" stroke="#63b8ff" points="498.27,-114.45 508.82,-113.49 499.98,-107.66 498.27,-114.45"/>
</a>
</g>
</g>
<!-- Node7 -->
<g id="Node000007" class="node">
<title>Node7</title>
<g id="a_Node000007"><a xlink:href="classPlayer.html#af56f0bf98c0423a3a75b0848607d03a4" target="_top" xlink:title="Get the player&#39;s symbol.">
<polygon fill="white" stroke="#666666" points="790,-116 680,-116 680,-97 790,-97 790,-116"/>
<text text-anchor="middle" x="735" y="-104" font-family="Helvetica,sans-Serif" font-size="10.00">Player::get_symbol</text>
</a>
</g>
</g>
<!-- Node5&#45;&gt;Node7 -->
<g id="edge7_Node000005_Node000007" class="edge">
<title>Node5&#45;&gt;Node7</title>
<g id="a_edge7_Node000005_Node000007"><a xlink:title=" ">
<path fill="none" stroke="#63b8ff" d="M456.11,-89.16C515.87,-92.89 608.3,-98.66 669.95,-102.5"/>
<polygon fill="#63b8ff" stroke="#63b8ff" points="669.75,-106 679.95,-103.13 670.18,-99.01 669.75,-106"/>
</a>
</g>
</g>
<!-- Node8 -->
<g id="Node000008" class="node">
<title>Node8</title>
<g id="a_Node000008"><a xlink:href="classsmartPlayer.html#a0c97a2045a733fbe524f424d6b7eb968" target="_top" xlink:title=" ">
<polygon fill="white" stroke="#666666" points="626,-57 513,-57 513,-38 626,-38 626,-57"/>
<text text-anchor="middle" x="569.5" y="-45" font-family="Helvetica,sans-Serif" font-size="10.00">smartPlayer::is_win</text>
</a>
</g>
</g>
<!-- Node5&#45;&gt;Node8 -->
<g id="edge8_Node000005_Node000008" class="edge">
<title>Node5&#45;&gt;Node8</title>
<g id="a_edge8_Node000005_Node000008"><a xlink:title=" ">
<path fill="none" stroke="#63b8ff" d="M440.65,-75.91C463.42,-70.85 491.55,-64.6 515.62,-59.25"/>
<polygon fill="#63b8ff" stroke="#63b8ff" points="516.66,-62.61 525.66,-57.02 515.14,-55.77 516.66,-62.61"/>
</a>
</g>
</g>
<!-- Node6&#45;&gt;Node7 -->
<g id="edge6_Node000006_Node000007" class="edge">
<title>Node6&#45;&gt;Node7</title>
<g id="a_edge6_Node000006_Node000007"><a xlink:title=" ">
<path fill="none" stroke="#63b8ff" d="M644.12,-118.59C652.68,-117.44 661.35,-116.28 669.77,-115.14"/>
<polygon fill="#63b8ff" stroke="#63b8ff" points="670.44,-118.58 679.88,-113.78 669.5,-111.65 670.44,-118.58"/>
</a>
</g>
</g>
<!-- Node9&#45;&gt;Node8 -->
<g id="edge10_Node000009_Node000008" class="edge">
<title>Node9&#45;&gt;Node8</title>
<g id="a_edge10_Node000009_Node000008"><a xlink:title=" ">
<path fill="none" stroke="#63b8ff" d="M456.35,-47.5C471.26,-47.5 487.38,-47.5 502.62,-47.5"/>
<polygon fill="#63b8ff" stroke="#63b8ff" points="503,-51 513,-47.5 503,-44 503,-51"/>
</a>
</g>
</g>
</g>
</svg>
