<?xml version="1.0" encoding="UTF-8" standalone="no"?>
<!DOCTYPE svg PUBLIC "-//W3C//DTD SVG 1.1//EN"
 "http://www.w3.org/Graphics/SVG/1.1/DTD/svg11.dtd">
<!-- Generated by graphviz version 2.43.0 (0)
 -->
<!-- Title: Misere_Tic_Tac_Toe_board::is_lose Pages: 1 -->
<svg width="428pt" height="59pt"
 viewBox="0.00 0.00 428.00 59.00" xmlns="http://www.w3.org/2000/svg" xmlns:xlink="http://www.w3.org/1999/xlink">
<g id="graph0" class="graph" transform="scale(1 1) rotate(0) translate(4 55)">
<title>Misere_Tic_Tac_Toe_board::is_lose</title>
<!-- Node1 -->
<g id="Node000001" class="node">
<title>Node1</title>
<g id="a_Node000001"><a xlink:title="Checks if the given player has lost the game.">
<polygon fill="#999999" stroke="#666666" points="420,-51 308,-51 308,-21 420,-21 420,-51"/>
<text text-anchor="start" x="316" y="-39" font-family="Helvetica,sans-Serif" font-size="10.00">Misere_Tic_Tac_Toe</text>
<text text-anchor="middle" x="364" y="-28" font-family="Helvetica,sans-Serif" font-size="10.00">_board::is_lose</text>
</a>
</g>
</g>
<!-- Node2 -->
<g id="Node000002" class="node">
<title>Node2</title>
<g id="a_Node000002"><a xlink:href="classMisere__Tic__Tac__Toe__board.html#ada7bdaa8066378a91d22134d2b931343" target="_top" xlink:title="Determines if the game is over (win or draw).">
<polygon fill="white" stroke="#666666" points="124,-51 0,-51 0,-21 124,-21 124,-51"/>
<text text-anchor="start" x="8" y="-39" font-family="Helvetica,sans-Serif" font-size="10.00">Misere_Tic_Tac_Toe</text>
<text text-anchor="middle" x="62" y="-28" font-family="Helvetica,sans-Serif" font-size="10.00">_board::game_is_over</text>
</a>
</g>
</g>
<!-- Node1&#45;&gt;Node2 -->
<g id="edge1_Node000001_Node000002" class="edge">
<title>Node1&#45;&gt;Node2</title>
<g id="a_edge1_Node000001_Node000002"><a xlink:title=" ">
<path fill="none" stroke="#63b8ff" d="M297.63,-38.41C289.01,-38.66 280.29,-38.86 272,-39 222.23,-39.82 209.77,-39.77 160,-39 148.38,-38.82 135.97,-38.52 124.05,-38.18"/>
<polygon fill="#63b8ff" stroke="#63b8ff" points="297.77,-41.91 307.67,-38.12 297.57,-34.91 297.77,-41.91"/>
</a>
</g>
</g>
<!-- Node3 -->
<g id="Node000003" class="node">
<title>Node3</title>
<g id="a_Node000003"><a xlink:href="classMisere__Tic__Tac__Toe__board.html#ae61d1f10678bb86d7de70a6a5f0e67f7" target="_top" xlink:title="Checks if the game has ended in a draw.">
<polygon fill="white" stroke="#666666" points="272,-30 160,-30 160,0 272,0 272,-30"/>
<text text-anchor="start" x="168" y="-18" font-family="Helvetica,sans-Serif" font-size="10.00">Misere_Tic_Tac_Toe</text>
<text text-anchor="middle" x="216" y="-7" font-family="Helvetica,sans-Serif" font-size="10.00">_board::is_draw</text>
</a>
</g>
</g>
<!-- Node1&#45;&gt;Node3 -->
<g id="edge2_Node000001_Node000003" class="edge">
<title>Node1&#45;&gt;Node3</title>
<g id="a_edge2_Node000001_Node000003"><a xlink:title=" ">
<path fill="none" stroke="#63b8ff" d="M297.87,-26.63C289.32,-25.4 280.63,-24.15 272.27,-22.95"/>
<polygon fill="#63b8ff" stroke="#63b8ff" points="297.41,-30.1 307.8,-28.06 298.4,-23.17 297.41,-30.1"/>
</a>
</g>
</g>
<!-- Node3&#45;&gt;Node2 -->
<g id="edge3_Node000003_Node000002" class="edge">
<title>Node3&#45;&gt;Node2</title>
<g id="a_edge3_Node000003_Node000002"><a xlink:title=" ">
<path fill="none" stroke="#63b8ff" d="M149.54,-24.04C141.12,-25.21 132.52,-26.39 124.17,-27.55"/>
<polygon fill="#63b8ff" stroke="#63b8ff" points="150.27,-27.48 159.69,-22.64 149.31,-20.54 150.27,-27.48"/>
</a>
</g>
</g>
</g>
</svg>
