<?xml version="1.0" encoding="UTF-8" standalone="no"?>
<!DOCTYPE svg PUBLIC "-//W3C//DTD SVG 1.1//EN"
 "http://www.w3.org/Graphics/SVG/1.1/DTD/svg11.dtd">
<!-- Generated by graphviz version 2.43.0 (0)
 -->
<!-- Title: Pyramid_XO_UI::get_move Pages: 1 -->
<svg width="300pt" height="64pt"
 viewBox="0.00 0.00 300.00 64.00" xmlns="http://www.w3.org/2000/svg" xmlns:xlink="http://www.w3.org/1999/xlink">
<g id="graph0" class="graph" transform="scale(1 1) rotate(0) translate(4 60)">
<title>Pyramid_XO_UI::get_move</title>
<!-- Node1 -->
<g id="Node000001" class="node">
<title>Node1</title>
<g id="a_Node000001"><a xlink:title="Retrieves the next move from a player.">
<polygon fill="#999999" stroke="#666666" points="146,-37 0,-37 0,-18 146,-18 146,-37"/>
<text text-anchor="middle" x="73" y="-25" font-family="Helvetica,sans-Serif" font-size="10.00">Pyramid_XO_UI::get_move</text>
</a>
</g>
</g>
<!-- Node2 -->
<g id="Node000002" class="node">
<title>Node2</title>
<g id="a_Node000002"><a xlink:href="classPlayer.html#af56f0bf98c0423a3a75b0848607d03a4" target="_top" xlink:title="Get the player&#39;s symbol.">
<polygon fill="white" stroke="#666666" points="292,-56 182,-56 182,-37 292,-37 292,-56"/>
<text text-anchor="middle" x="237" y="-44" font-family="Helvetica,sans-Serif" font-size="10.00">Player::get_symbol</text>
</a>
</g>
</g>
<!-- Node1&#45;&gt;Node2 -->
<g id="edge1_Node000001_Node000002" class="edge">
<title>Node1&#45;&gt;Node2</title>
<g id="a_edge1_Node000001_Node000002"><a xlink:title=" ">
<path fill="none" stroke="#63b8ff" d="M146.47,-36C154.86,-36.98 163.36,-37.98 171.63,-38.95"/>
<polygon fill="#63b8ff" stroke="#63b8ff" points="171.23,-42.43 181.57,-40.12 172.05,-35.48 171.23,-42.43"/>
</a>
</g>
</g>
<!-- Node3 -->
<g id="Node000003" class="node">
<title>Node3</title>
<g id="a_Node000003"><a xlink:href="classPlayer.html#a2df3bd299bf7aecfa2275ec6902a60f8" target="_top" xlink:title="Get player type (e.g., &#39;H&#39; or &#39;C&#39;).">
<polygon fill="white" stroke="#666666" points="285,-19 189,-19 189,0 285,0 285,-19"/>
<text text-anchor="middle" x="237" y="-7" font-family="Helvetica,sans-Serif" font-size="10.00">Player::get_type</text>
</a>
</g>
</g>
<!-- Node1&#45;&gt;Node3 -->
<g id="edge2_Node000001_Node000003" class="edge">
<title>Node1&#45;&gt;Node3</title>
<g id="a_edge2_Node000001_Node000003"><a xlink:title=" ">
<path fill="none" stroke="#63b8ff" d="M146.47,-19.45C157.21,-18.25 168.16,-17.04 178.53,-15.89"/>
<polygon fill="#63b8ff" stroke="#63b8ff" points="179.14,-19.34 188.7,-14.76 178.37,-12.38 179.14,-19.34"/>
</a>
</g>
</g>
</g>
</svg>
