<?xml version="1.0" encoding="UTF-8" standalone="no"?>
<!DOCTYPE svg PUBLIC "-//W3C//DTD SVG 1.1//EN"
 "http://www.w3.org/Graphics/SVG/1.1/DTD/svg11.dtd">
<!-- Generated by graphviz version 2.43.0 (0)
 -->
<!-- Title: X_O_5x5_Board::is_win Pages: 1 -->
<svg width="307pt" height="76pt"
 viewBox="0.00 0.00 307.00 75.50" xmlns="http://www.w3.org/2000/svg" xmlns:xlink="http://www.w3.org/1999/xlink">
<g id="graph0" class="graph" transform="scale(1 1) rotate(0) translate(4 71.5)">
<title>X_O_5x5_Board::is_win</title>
<!-- Node1 -->
<g id="Node000001" class="node">
<title>Node1</title>
<g id="a_Node000001"><a xlink:title="Check if a player has won.">
<polygon fill="#999999" stroke="#666666" points="299,-40 169,-40 169,-21 299,-21 299,-40"/>
<text text-anchor="middle" x="234" y="-28" font-family="Helvetica,sans-Serif" font-size="10.00">X_O_5x5_Board::is_win</text>
</a>
</g>
</g>
<!-- Node2 -->
<g id="Node000002" class="node">
<title>Node2</title>
<g id="a_Node000002"><a xlink:href="classX__O__5x5__Board.html#ad2e0c1e9c3cb85acdbff6c081ad7b8b3" target="_top" xlink:title="Check if the game is over.">
<polygon fill="white" stroke="#666666" points="130,-67.5 3,-67.5 3,-37.5 130,-37.5 130,-67.5"/>
<text text-anchor="start" x="11" y="-55.5" font-family="Helvetica,sans-Serif" font-size="10.00">X_O_5x5_Board::game</text>
<text text-anchor="middle" x="66.5" y="-44.5" font-family="Helvetica,sans-Serif" font-size="10.00">_is_over</text>
</a>
</g>
</g>
<!-- Node1&#45;&gt;Node2 -->
<g id="edge1_Node000001_Node000002" class="edge">
<title>Node1&#45;&gt;Node2</title>
<g id="a_edge1_Node000001_Node000002"><a xlink:title=" ">
<path fill="none" stroke="#63b8ff" d="M158.38,-40.42C148.95,-41.67 139.38,-42.95 130.16,-44.17"/>
<polygon fill="#63b8ff" stroke="#63b8ff" points="159.09,-43.86 168.54,-39.07 158.17,-36.92 159.09,-43.86"/>
</a>
</g>
</g>
<!-- Node3 -->
<g id="Node000003" class="node">
<title>Node3</title>
<g id="a_Node000003"><a xlink:href="classX__O__5x5__Board.html#af85ffbe23533e0388f64ca0f55b58979" target="_top" xlink:title="Check if a player has lost.">
<polygon fill="white" stroke="#666666" points="133,-19 0,-19 0,0 133,0 133,-19"/>
<text text-anchor="middle" x="66.5" y="-7" font-family="Helvetica,sans-Serif" font-size="10.00">X_O_5x5_Board::is_lose</text>
</a>
</g>
</g>
<!-- Node1&#45;&gt;Node3 -->
<g id="edge2_Node000001_Node000003" class="edge">
<title>Node1&#45;&gt;Node3</title>
<g id="a_edge2_Node000001_Node000003"><a xlink:title=" ">
<path fill="none" stroke="#63b8ff" d="M158.36,-21.03C149.95,-19.96 141.43,-18.88 133.15,-17.83"/>
<polygon fill="#63b8ff" stroke="#63b8ff" points="158.18,-24.53 168.54,-22.32 159.06,-17.59 158.18,-24.53"/>
</a>
</g>
</g>
</g>
</svg>
