<?xml version="1.0" encoding="UTF-8" standalone="no"?>
<!DOCTYPE svg PUBLIC "-//W3C//DTD SVG 1.1//EN"
 "http://www.w3.org/Graphics/SVG/1.1/DTD/svg11.dtd">
<!-- Generated by graphviz version 2.43.0 (0)
 -->
<!-- Title: Ultimate_XO_Board::game_is_over Pages: 1 -->
<svg width="405pt" height="86pt"
 viewBox="0.00 0.00 405.00 86.00" xmlns="http://www.w3.org/2000/svg" xmlns:xlink="http://www.w3.org/1999/xlink">
<g id="graph0" class="graph" transform="scale(1 1) rotate(0) translate(4 82)">
<title>Ultimate_XO_Board::game_is_over</title>
<!-- Node1 -->
<g id="Node000001" class="node">
<title>Node1</title>
<g id="a_Node000001"><a xlink:title="Determines if the game is over (win or draw).">
<polygon fill="#999999" stroke="#666666" points="118,-54 0,-54 0,-24 118,-24 118,-54"/>
<text text-anchor="start" x="8" y="-42" font-family="Helvetica,sans-Serif" font-size="10.00">Ultimate_XO_Board::</text>
<text text-anchor="middle" x="59" y="-31" font-family="Helvetica,sans-Serif" font-size="10.00">game_is_over</text>
</a>
</g>
</g>
<!-- Node2 -->
<g id="Node000002" class="node">
<title>Node2</title>
<g id="a_Node000002"><a xlink:href="classUltimate__XO__Board.html#ac47eab5bd084a6f6cf417137e34393a1" target="_top" xlink:title="Checks if the game has ended in a draw.">
<polygon fill="white" stroke="#666666" points="272,-78 154,-78 154,-48 272,-48 272,-78"/>
<text text-anchor="start" x="162" y="-66" font-family="Helvetica,sans-Serif" font-size="10.00">Ultimate_XO_Board::</text>
<text text-anchor="middle" x="213" y="-55" font-family="Helvetica,sans-Serif" font-size="10.00">is_draw</text>
</a>
</g>
</g>
<!-- Node1&#45;&gt;Node2 -->
<g id="edge1_Node000001_Node000002" class="edge">
<title>Node1&#45;&gt;Node2</title>
<g id="a_edge1_Node000001_Node000002"><a xlink:title=" ">
<path fill="none" stroke="#63b8ff" d="M118.33,-48.21C126.7,-49.53 135.36,-50.9 143.9,-52.25"/>
<polygon fill="#63b8ff" stroke="#63b8ff" points="143.4,-55.71 153.82,-53.81 144.49,-48.8 143.4,-55.71"/>
</a>
</g>
</g>
<!-- Node4 -->
<g id="Node000004" class="node">
<title>Node4</title>
<g id="a_Node000004"><a xlink:href="classUltimate__XO__Board.html#a626ddd9872d4fcb10257ba08aacbc941" target="_top" xlink:title="Checks if the given player has won the game.">
<polygon fill="white" stroke="#666666" points="272,-30 154,-30 154,0 272,0 272,-30"/>
<text text-anchor="start" x="162" y="-18" font-family="Helvetica,sans-Serif" font-size="10.00">Ultimate_XO_Board::</text>
<text text-anchor="middle" x="213" y="-7" font-family="Helvetica,sans-Serif" font-size="10.00">is_win</text>
</a>
</g>
</g>
<!-- Node1&#45;&gt;Node4 -->
<g id="edge3_Node000001_Node000004" class="edge">
<title>Node1&#45;&gt;Node4</title>
<g id="a_edge3_Node000001_Node000004"><a xlink:title=" ">
<path fill="none" stroke="#63b8ff" d="M118.33,-29.79C126.7,-28.47 135.36,-27.1 143.9,-25.75"/>
<polygon fill="#63b8ff" stroke="#63b8ff" points="144.49,-29.2 153.82,-24.19 143.4,-22.29 144.49,-29.2"/>
</a>
</g>
</g>
<!-- Node3 -->
<g id="Node000003" class="node">
<title>Node3</title>
<g id="a_Node000003"><a xlink:href="classBoard.html#a8dbe2a243881986f3e53b45799d377fc" target="_top" xlink:title="Check if the game ended in a draw.">
<polygon fill="white" stroke="#666666" points="397,-72.5 308,-72.5 308,-53.5 397,-53.5 397,-72.5"/>
<text text-anchor="middle" x="352.5" y="-60.5" font-family="Helvetica,sans-Serif" font-size="10.00">Board::is_draw</text>
</a>
</g>
</g>
<!-- Node2&#45;&gt;Node3 -->
<g id="edge2_Node000002_Node000003" class="edge">
<title>Node2&#45;&gt;Node3</title>
<g id="a_edge2_Node000002_Node000003"><a xlink:title=" ">
<path fill="none" stroke="#63b8ff" d="M272.31,-63C280.65,-63 289.2,-63 297.45,-63"/>
<polygon fill="#63b8ff" stroke="#63b8ff" points="297.7,-66.5 307.7,-63 297.7,-59.5 297.7,-66.5"/>
</a>
</g>
</g>
<!-- Node5 -->
<g id="Node000005" class="node">
<title>Node5</title>
<g id="a_Node000005"><a xlink:href="classBoard.html#ab316fe3e79677b4617fc3d90d6c48f33" target="_top" xlink:title="Check if a player has won.">
<polygon fill="white" stroke="#666666" points="393.5,-24.5 311.5,-24.5 311.5,-5.5 393.5,-5.5 393.5,-24.5"/>
<text text-anchor="middle" x="352.5" y="-12.5" font-family="Helvetica,sans-Serif" font-size="10.00">Board::is_win</text>
</a>
</g>
</g>
<!-- Node4&#45;&gt;Node5 -->
<g id="edge4_Node000004_Node000005" class="edge">
<title>Node4&#45;&gt;Node5</title>
<g id="a_edge4_Node000004_Node000005"><a xlink:title=" ">
<path fill="none" stroke="#63b8ff" d="M272.31,-15C281.99,-15 291.95,-15 301.4,-15"/>
<polygon fill="#63b8ff" stroke="#63b8ff" points="301.41,-18.5 311.41,-15 301.41,-11.5 301.41,-18.5"/>
</a>
</g>
</g>
</g>
</svg>
