<?xml version="1.0" encoding="UTF-8" standalone="no"?>
<!DOCTYPE svg PUBLIC "-//W3C//DTD SVG 1.1//EN"
 "http://www.w3.org/Graphics/SVG/1.1/DTD/svg11.dtd">
<!-- Generated by graphviz version 2.43.0 (0)
 -->
<!-- Title: FourFourAIPlayer::createUndoMoveForSymbol Pages: 1 -->
<svg width="541pt" height="61pt"
 viewBox="0.00 0.00 541.00 60.50" xmlns="http://www.w3.org/2000/svg" xmlns:xlink="http://www.w3.org/1999/xlink">
<g id="graph0" class="graph" transform="scale(1 1) rotate(0) translate(4 56.5)">
<title>FourFourAIPlayer::createUndoMoveForSymbol</title>
<!-- Node1 -->
<g id="Node000001" class="node">
<title>Node1</title>
<g id="a_Node000001"><a xlink:title="Helper to create undo move for any symbol.">
<polygon fill="#999999" stroke="#666666" points="533,-52.5 397,-52.5 397,-22.5 533,-22.5 533,-52.5"/>
<text text-anchor="start" x="405" y="-40.5" font-family="Helvetica,sans-Serif" font-size="10.00">FourFourAIPlayer::create</text>
<text text-anchor="middle" x="465" y="-29.5" font-family="Helvetica,sans-Serif" font-size="10.00">UndoMoveForSymbol</text>
</a>
</g>
</g>
<!-- Node2 -->
<g id="Node000002" class="node">
<title>Node2</title>
<g id="a_Node000002"><a xlink:href="classFourFourAIPlayer.html#ae65b9079173802af7f5091473ce5f513" target="_top" xlink:title="Override calculateMove to handle direction&#45;based moves.">
<polygon fill="white" stroke="#666666" points="176,-47 0,-47 0,-28 176,-28 176,-47"/>
<text text-anchor="middle" x="88" y="-35" font-family="Helvetica,sans-Serif" font-size="10.00">FourFourAIPlayer::calculateMove</text>
</a>
</g>
</g>
<!-- Node1&#45;&gt;Node2 -->
<g id="edge1_Node000001_Node000002" class="edge">
<title>Node1&#45;&gt;Node2</title>
<g id="a_edge1_Node000001_Node000002"><a xlink:title=" ">
<path fill="none" stroke="#63b8ff" d="M386.64,-44.99C377.99,-45.61 369.31,-46.14 361,-46.5 294.84,-49.38 278.18,-48.92 212,-46.5 200.45,-46.08 188.29,-45.43 176.31,-44.68"/>
<polygon fill="#63b8ff" stroke="#63b8ff" points="387.03,-48.47 396.74,-44.23 386.5,-41.49 387.03,-48.47"/>
</a>
</g>
</g>
<!-- Node3 -->
<g id="Node000003" class="node">
<title>Node3</title>
<g id="a_Node000003"><a xlink:href="classFourFourAIPlayer.html#a8427da39d2c0c84609a00dbd51347c9f" target="_top" xlink:title="Override minimax to handle opponent pieces correctly.">
<polygon fill="white" stroke="#666666" points="361,-19 212,-19 212,0 361,0 361,-19"/>
<text text-anchor="middle" x="286.5" y="-7" font-family="Helvetica,sans-Serif" font-size="10.00">FourFourAIPlayer::minimax</text>
</a>
</g>
</g>
<!-- Node1&#45;&gt;Node3 -->
<g id="edge2_Node000001_Node000003" class="edge">
<title>Node1&#45;&gt;Node3</title>
<g id="a_edge2_Node000001_Node000003"><a xlink:title=" ">
<path fill="none" stroke="#63b8ff" d="M386.81,-25.25C373.68,-23.17 360.21,-21.04 347.6,-19.03"/>
<polygon fill="#63b8ff" stroke="#63b8ff" points="386.34,-28.72 396.77,-26.83 387.44,-21.81 386.34,-28.72"/>
</a>
</g>
</g>
<!-- Node3&#45;&gt;Node2 -->
<g id="edge3_Node000003_Node000002" class="edge">
<title>Node3&#45;&gt;Node2</title>
<g id="a_edge3_Node000003_Node000002"><a xlink:title=" ">
<path fill="none" stroke="#63b8ff" d="M208.59,-20.46C191.21,-22.94 172.88,-25.55 155.95,-27.96"/>
<polygon fill="#63b8ff" stroke="#63b8ff" points="209.29,-23.89 218.7,-19.02 208.31,-16.96 209.29,-23.89"/>
</a>
</g>
</g>
<!-- Node3&#45;&gt;Node3 -->
<g id="edge4_Node000003_Node000003" class="edge">
<title>Node3&#45;&gt;Node3</title>
<g id="a_edge4_Node000003_Node000003"><a xlink:title=" ">
<path fill="none" stroke="#63b8ff" d="M319.81,-27.45C318.86,-32.82 307.76,-37 286.5,-37 254.86,-37 245.72,-27.73 259.07,-19.08"/>
<polygon fill="#63b8ff" stroke="#63b8ff" points="322.55,-25.26 313.93,-19.08 316.82,-29.28 322.55,-25.26"/>
</a>
</g>
</g>
</g>
</svg>
