<?xml version="1.0" encoding="UTF-8" standalone="no"?>
<!DOCTYPE svg PUBLIC "-//W3C//DTD SVG 1.1//EN"
 "http://www.w3.org/Graphics/SVG/1.1/DTD/svg11.dtd">
<!-- Generated by graphviz version 2.43.0 (0)
 -->
<!-- Title: Player::get_symbol Pages: 1 -->
<svg width="659pt" height="770pt"
 viewBox="0.00 0.00 659.00 769.50" xmlns="http://www.w3.org/2000/svg" xmlns:xlink="http://www.w3.org/1999/xlink">
<g id="graph0" class="graph" transform="scale(1 1) rotate(0) translate(4 765.5)">
<title>Player::get_symbol</title>
<!-- Node1 -->
<g id="Node000001" class="node">
<title>Node1</title>
<g id="a_Node000001"><a xlink:title="Get the player&#39;s symbol.">
<polygon fill="#999999" stroke="#666666" points="651,-401.5 541,-401.5 541,-382.5 651,-382.5 651,-401.5"/>
<text text-anchor="middle" x="596" y="-389.5" font-family="Helvetica,sans-Serif" font-size="10.00">Player::get_symbol</text>
</a>
</g>
</g>
<!-- Node2 -->
<g id="Node000002" class="node">
<title>Node2</title>
<g id="a_Node000002"><a xlink:href="classFour__Four__XO__UI.html#a462e22aa01d930bda7449c759f36c86f" target="_top" xlink:title="Retrieves the next move from a player.">
<polygon fill="white" stroke="#666666" points="503.5,-761.5 350.5,-761.5 350.5,-742.5 503.5,-742.5 503.5,-761.5"/>
<text text-anchor="middle" x="427" y="-749.5" font-family="Helvetica,sans-Serif" font-size="10.00">Four_Four_XO_UI::get_move</text>
</a>
</g>
</g>
<!-- Node1&#45;&gt;Node2 -->
<g id="edge1_Node000001_Node000002" class="edge">
<title>Node1&#45;&gt;Node2</title>
<g id="a_edge1_Node000001_Node000002"><a xlink:title=" ">
<path fill="none" stroke="#63b8ff" d="M592.47,-411.89C583.66,-477.87 552.33,-687.96 505,-734 501.56,-737.35 497.61,-740.12 493.38,-742.41"/>
<polygon fill="#63b8ff" stroke="#63b8ff" points="595.98,-412 593.81,-401.63 589.04,-411.09 595.98,-412"/>
</a>
</g>
</g>
<!-- Node3 -->
<g id="Node000003" class="node">
<title>Node3</title>
<g id="a_Node000003"><a xlink:href="classInfinit__XO__UI.html#a01e2ad782bacda8c2f7cff214617b54c" target="_top" xlink:title="Retrieves the next move from a player.">
<polygon fill="white" stroke="#666666" points="494,-724.5 360,-724.5 360,-705.5 494,-705.5 494,-724.5"/>
<text text-anchor="middle" x="427" y="-712.5" font-family="Helvetica,sans-Serif" font-size="10.00">Infinit_XO_UI::get_move</text>
</a>
</g>
</g>
<!-- Node1&#45;&gt;Node3 -->
<g id="edge2_Node000001_Node000003" class="edge">
<title>Node1&#45;&gt;Node3</title>
<g id="a_edge2_Node000001_Node000003"><a xlink:title=" ">
<path fill="none" stroke="#63b8ff" d="M595.43,-411.91C595.44,-466.01 587.69,-617.02 505,-696 501.02,-699.8 496.4,-702.88 491.44,-705.37"/>
<polygon fill="#63b8ff" stroke="#63b8ff" points="598.92,-411.59 595.32,-401.63 591.92,-411.66 598.92,-411.59"/>
</a>
</g>
</g>
<!-- Node4 -->
<g id="Node000004" class="node">
<title>Node4</title>
<g id="a_Node000004"><a xlink:href="classMisere__Tic__Tac__Toe__UI.html#a13c2f356fe79f87ed9bce9ca4efadb68" target="_top" xlink:title="Retrieves the next move from a player.">
<polygon fill="white" stroke="#666666" points="483,-687 371,-687 371,-657 483,-657 483,-687"/>
<text text-anchor="start" x="379" y="-675" font-family="Helvetica,sans-Serif" font-size="10.00">Misere_Tic_Tac_Toe</text>
<text text-anchor="middle" x="427" y="-664" font-family="Helvetica,sans-Serif" font-size="10.00">_UI::get_move</text>
</a>
</g>
</g>
<!-- Node1&#45;&gt;Node4 -->
<g id="edge3_Node000001_Node000004" class="edge">
<title>Node1&#45;&gt;Node4</title>
<g id="a_edge3_Node000001_Node000004"><a xlink:title=" ">
<path fill="none" stroke="#63b8ff" d="M593.86,-411.99C590.06,-459.8 573.75,-581.67 505,-648 498.85,-653.93 491.26,-658.4 483.27,-661.76"/>
<polygon fill="#63b8ff" stroke="#63b8ff" points="597.37,-411.97 594.57,-401.75 590.39,-411.48 597.37,-411.97"/>
</a>
</g>
</g>
<!-- Node5 -->
<g id="Node000005" class="node">
<title>Node5</title>
<g id="a_Node000005"><a xlink:href="classNumerical__XO__UI.html#af6296ae59c604456f531f4e996e99467" target="_top" xlink:title="Ask the user (or AI) to make a move.">
<polygon fill="white" stroke="#666666" points="505,-638.5 349,-638.5 349,-619.5 505,-619.5 505,-638.5"/>
<text text-anchor="middle" x="427" y="-626.5" font-family="Helvetica,sans-Serif" font-size="10.00">Numerical_XO_UI::get_move</text>
</a>
</g>
</g>
<!-- Node1&#45;&gt;Node5 -->
<g id="edge4_Node000001_Node000005" class="edge">
<title>Node1&#45;&gt;Node5</title>
<g id="a_edge4_Node000001_Node000005"><a xlink:title=" ">
<path fill="none" stroke="#63b8ff" d="M592.88,-411.72C587.16,-454.85 567.35,-557.92 505,-611 501.03,-614.38 496.54,-617.16 491.77,-619.43"/>
<polygon fill="#63b8ff" stroke="#63b8ff" points="596.37,-412.02 594.1,-401.67 589.42,-411.18 596.37,-412.02"/>
</a>
</g>
</g>
<!-- Node6 -->
<g id="Node000006" class="node">
<title>Node6</title>
<g id="a_Node000006"><a xlink:href="classSUS__UI.html#a621a4bfadf8d79f2b2b66f2241c310c3" target="_top" xlink:title="Retrieves the next move from a player.">
<polygon fill="white" stroke="#666666" points="480.5,-601.5 373.5,-601.5 373.5,-582.5 480.5,-582.5 480.5,-601.5"/>
<text text-anchor="middle" x="427" y="-589.5" font-family="Helvetica,sans-Serif" font-size="10.00">SUS_UI::get_move</text>
</a>
</g>
</g>
<!-- Node1&#45;&gt;Node6 -->
<g id="edge5_Node000001_Node000006" class="edge">
<title>Node1&#45;&gt;Node6</title>
<g id="a_edge5_Node000001_Node000006"><a xlink:title=" ">
<path fill="none" stroke="#63b8ff" d="M591.02,-411.94C582.39,-449.72 558.31,-531.71 505,-574 497.9,-579.63 489.34,-583.55 480.55,-586.28"/>
<polygon fill="#63b8ff" stroke="#63b8ff" points="594.53,-412.24 593.21,-401.73 587.69,-410.77 594.53,-412.24"/>
</a>
</g>
</g>
<!-- Node7 -->
<g id="Node000007" class="node">
<title>Node7</title>
<g id="a_Node000007"><a xlink:href="classX__O__5x5__UI.html#a60163186f3074fea418f530e78f5f9f1" target="_top" xlink:title="Ask the user (or AI) to make a move.">
<polygon fill="white" stroke="#666666" points="492,-564.5 362,-564.5 362,-545.5 492,-545.5 492,-564.5"/>
<text text-anchor="middle" x="427" y="-552.5" font-family="Helvetica,sans-Serif" font-size="10.00">X_O_5x5_UI::get_move</text>
</a>
</g>
</g>
<!-- Node1&#45;&gt;Node7 -->
<g id="edge6_Node000001_Node000007" class="edge">
<title>Node1&#45;&gt;Node7</title>
<g id="a_edge6_Node000001_Node000007"><a xlink:title=" ">
<path fill="none" stroke="#63b8ff" d="M588.29,-411.62C576.55,-442.94 549.2,-503.97 505,-536 499.65,-539.88 493.6,-542.97 487.29,-545.43"/>
<polygon fill="#63b8ff" stroke="#63b8ff" points="591.71,-412.47 591.8,-401.87 585.12,-410.1 591.71,-412.47"/>
</a>
</g>
</g>
<!-- Node8 -->
<g id="Node000008" class="node">
<title>Node8</title>
<g id="a_Node000008"><a xlink:href="classMisere__Tic__Tac__Toe__board.html#a17b6a2ec14f1f4c9dc5b6cd59127bc56" target="_top" xlink:title="Checks if the given player has lost the game.">
<polygon fill="white" stroke="#666666" points="483,-527 371,-527 371,-497 483,-497 483,-527"/>
<text text-anchor="start" x="379" y="-515" font-family="Helvetica,sans-Serif" font-size="10.00">Misere_Tic_Tac_Toe</text>
<text text-anchor="middle" x="427" y="-504" font-family="Helvetica,sans-Serif" font-size="10.00">_board::is_lose</text>
</a>
</g>
</g>
<!-- Node1&#45;&gt;Node8 -->
<g id="edge7_Node000001_Node000008" class="edge">
<title>Node1&#45;&gt;Node8</title>
<g id="a_edge7_Node000001_Node000008"><a xlink:title=" ">
<path fill="none" stroke="#63b8ff" d="M582.67,-410C567.01,-431.55 538.03,-467.3 505,-488 498.36,-492.16 490.93,-495.66 483.39,-498.57"/>
<polygon fill="#63b8ff" stroke="#63b8ff" points="585.61,-411.91 588.53,-401.72 579.9,-407.86 585.61,-411.91"/>
</a>
</g>
</g>
<!-- Node11 -->
<g id="Node000011" class="node">
<title>Node11</title>
<g id="a_Node000011"><a xlink:href="classFour__Four__XO__Board.html#a469ec43cdebb07b56a2b780ba9134506" target="_top" xlink:title="Check if a player has won.">
<polygon fill="white" stroke="#666666" points="485,-479 369,-479 369,-449 485,-449 485,-479"/>
<text text-anchor="start" x="377" y="-467" font-family="Helvetica,sans-Serif" font-size="10.00">Four_Four_XO_Board</text>
<text text-anchor="middle" x="427" y="-456" font-family="Helvetica,sans-Serif" font-size="10.00">::is_win</text>
</a>
</g>
</g>
<!-- Node1&#45;&gt;Node11 -->
<g id="edge11_Node000001_Node000011" class="edge">
<title>Node1&#45;&gt;Node11</title>
<g id="a_edge11_Node000001_Node000011"><a xlink:title=" ">
<path fill="none" stroke="#63b8ff" d="M570.1,-406.92C552.37,-417.13 527.74,-430.49 505,-440 497.38,-443.19 489.18,-446.18 481.07,-448.9"/>
<polygon fill="#63b8ff" stroke="#63b8ff" points="572.32,-409.68 579.19,-401.61 568.79,-403.63 572.32,-409.68"/>
</a>
</g>
</g>
<!-- Node14 -->
<g id="Node000014" class="node">
<title>Node14</title>
<g id="a_Node000014"><a xlink:href="classInfinity__X__O__Board.html#adee61151bd324d1e28fb1391e1df0789" target="_top" xlink:title="Checks if the given player has won the game.">
<polygon fill="white" stroke="#666666" points="481.5,-431 372.5,-431 372.5,-401 481.5,-401 481.5,-431"/>
<text text-anchor="start" x="380.5" y="-419" font-family="Helvetica,sans-Serif" font-size="10.00">Infinity_X_O_Board</text>
<text text-anchor="middle" x="427" y="-408" font-family="Helvetica,sans-Serif" font-size="10.00">::is_win</text>
</a>
</g>
</g>
<!-- Node1&#45;&gt;Node14 -->
<g id="edge15_Node000001_Node000014" class="edge">
<title>Node1&#45;&gt;Node14</title>
<g id="a_edge15_Node000001_Node000014"><a xlink:title=" ">
<path fill="none" stroke="#63b8ff" d="M530.83,-401.22C514.59,-403.56 497.32,-406.04 481.66,-408.29"/>
<polygon fill="#63b8ff" stroke="#63b8ff" points="531.38,-404.68 540.78,-399.79 530.38,-397.75 531.38,-404.68"/>
</a>
</g>
</g>
<!-- Node17 -->
<g id="Node000017" class="node">
<title>Node17</title>
<g id="a_Node000017"><a xlink:href="classNumerical__X__O__Board.html#a0940816900ed8bf06b0cd49d70b443fd" target="_top" xlink:title="Check if a player has won.">
<polygon fill="white" stroke="#666666" points="489.5,-383 364.5,-383 364.5,-353 489.5,-353 489.5,-383"/>
<text text-anchor="start" x="372.5" y="-371" font-family="Helvetica,sans-Serif" font-size="10.00">Numerical_X_O_Board</text>
<text text-anchor="middle" x="427" y="-360" font-family="Helvetica,sans-Serif" font-size="10.00">::is_win</text>
</a>
</g>
</g>
<!-- Node1&#45;&gt;Node17 -->
<g id="edge19_Node000001_Node000017" class="edge">
<title>Node1&#45;&gt;Node17</title>
<g id="a_edge19_Node000001_Node000017"><a xlink:title=" ">
<path fill="none" stroke="#63b8ff" d="M530.67,-382.75C517.24,-380.82 503.11,-378.79 489.77,-376.88"/>
<polygon fill="#63b8ff" stroke="#63b8ff" points="530.38,-386.25 540.78,-384.21 531.38,-379.32 530.38,-386.25"/>
</a>
</g>
</g>
<!-- Node20 -->
<g id="Node000020" class="node">
<title>Node20</title>
<g id="a_Node000020"><a xlink:href="classSUS__Board.html#a48747aa0b5f24bac5b5953576725b3ec" target="_top" xlink:title="Checks if the given player has won the game.">
<polygon fill="white" stroke="#666666" points="480.5,-334.5 373.5,-334.5 373.5,-315.5 480.5,-315.5 480.5,-334.5"/>
<text text-anchor="middle" x="427" y="-322.5" font-family="Helvetica,sans-Serif" font-size="10.00">SUS_Board::is_win</text>
</a>
</g>
</g>
<!-- Node1&#45;&gt;Node20 -->
<g id="edge23_Node000001_Node000020" class="edge">
<title>Node1&#45;&gt;Node20</title>
<g id="a_edge23_Node000001_Node000020"><a xlink:title=" ">
<path fill="none" stroke="#63b8ff" d="M570.91,-377.03C553.22,-366.57 528.3,-352.93 505,-344 495.36,-340.3 484.76,-337.14 474.58,-334.52"/>
<polygon fill="#63b8ff" stroke="#63b8ff" points="569.57,-380.31 579.94,-382.47 573.18,-374.31 569.57,-380.31"/>
</a>
</g>
</g>
<!-- Node23 -->
<g id="Node000023" class="node">
<title>Node23</title>
<g id="a_Node000023"><a xlink:href="classX__O__5x5__Board.html#a90eeba3a2b960065c81ab50b08997da5" target="_top" xlink:title="Check if a player has won.">
<polygon fill="white" stroke="#666666" points="492,-297.5 362,-297.5 362,-278.5 492,-278.5 492,-297.5"/>
<text text-anchor="middle" x="427" y="-285.5" font-family="Helvetica,sans-Serif" font-size="10.00">X_O_5x5_Board::is_win</text>
</a>
</g>
</g>
<!-- Node1&#45;&gt;Node23 -->
<g id="edge27_Node000001_Node000023" class="edge">
<title>Node1&#45;&gt;Node23</title>
<g id="a_edge27_Node000001_Node000023"><a xlink:title=" ">
<path fill="none" stroke="#63b8ff" d="M581.43,-374.64C565.29,-355.22 536.56,-324.21 505,-307 497.87,-303.11 489.93,-300 481.95,-297.53"/>
<polygon fill="#63b8ff" stroke="#63b8ff" points="578.72,-376.86 587.73,-382.42 584.16,-372.45 578.72,-376.86"/>
</a>
</g>
</g>
<!-- Node26 -->
<g id="Node000026" class="node">
<title>Node26</title>
<g id="a_Node000026"><a xlink:href="classFour__Four__XO__Board.html#a406a2273ba6b32bc074afdd0402223ac" target="_top" xlink:title="Update the board with a new move.">
<polygon fill="white" stroke="#666666" points="485,-260 369,-260 369,-230 485,-230 485,-260"/>
<text text-anchor="start" x="377" y="-248" font-family="Helvetica,sans-Serif" font-size="10.00">Four_Four_XO_Board</text>
<text text-anchor="middle" x="427" y="-237" font-family="Helvetica,sans-Serif" font-size="10.00">::update_board</text>
</a>
</g>
</g>
<!-- Node1&#45;&gt;Node26 -->
<g id="edge30_Node000001_Node000026" class="edge">
<title>Node1&#45;&gt;Node26</title>
<g id="a_edge30_Node000001_Node000026"><a xlink:title=" ">
<path fill="none" stroke="#63b8ff" d="M586.08,-373.45C572.32,-346.77 543.43,-297.7 505,-270 498.96,-265.64 492.12,-262.02 485.07,-259.01"/>
<polygon fill="#63b8ff" stroke="#63b8ff" points="582.99,-375.12 590.6,-382.5 589.26,-371.99 582.99,-375.12"/>
</a>
</g>
</g>
<!-- Node27 -->
<g id="Node000027" class="node">
<title>Node27</title>
<g id="a_Node000027"><a xlink:href="classInfinity__X__O__Board.html#acdf958b1a2d08227ccfe316a68519622" target="_top" xlink:title="Updates the board with a player&#39;s move.">
<polygon fill="white" stroke="#666666" points="481.5,-212 372.5,-212 372.5,-182 481.5,-182 481.5,-212"/>
<text text-anchor="start" x="380.5" y="-200" font-family="Helvetica,sans-Serif" font-size="10.00">Infinity_X_O_Board</text>
<text text-anchor="middle" x="427" y="-189" font-family="Helvetica,sans-Serif" font-size="10.00">::update_board</text>
</a>
</g>
</g>
<!-- Node1&#45;&gt;Node27 -->
<g id="edge31_Node000001_Node000027" class="edge">
<title>Node1&#45;&gt;Node27</title>
<g id="a_edge31_Node000001_Node000027"><a xlink:title=" ">
<path fill="none" stroke="#63b8ff" d="M589.97,-372.12C579.94,-336.53 554.09,-261.87 505,-221 498.22,-215.36 490.11,-211.04 481.75,-207.73"/>
<polygon fill="#63b8ff" stroke="#63b8ff" points="586.7,-373.45 592.68,-382.2 593.46,-371.64 586.7,-373.45"/>
</a>
</g>
</g>
<!-- Node28 -->
<g id="Node000028" class="node">
<title>Node28</title>
<g id="a_Node000028"><a xlink:href="classMisere__Tic__Tac__Toe__board.html#a51c52a227b90423940eef5c91097d879" target="_top" xlink:title="Updates the board with a player&#39;s move.">
<polygon fill="white" stroke="#666666" points="488,-164 366,-164 366,-134 488,-134 488,-164"/>
<text text-anchor="start" x="374" y="-152" font-family="Helvetica,sans-Serif" font-size="10.00">Misere_Tic_Tac_Toe</text>
<text text-anchor="middle" x="427" y="-141" font-family="Helvetica,sans-Serif" font-size="10.00">_board::update_board</text>
</a>
</g>
</g>
<!-- Node1&#45;&gt;Node28 -->
<g id="edge32_Node000001_Node000028" class="edge">
<title>Node1&#45;&gt;Node28</title>
<g id="a_edge32_Node000001_Node000028"><a xlink:title=" ">
<path fill="none" stroke="#63b8ff" d="M592.55,-372.34C586.2,-329.71 565.26,-228.19 505,-173 500.04,-168.46 494.24,-164.78 488.08,-161.79"/>
<polygon fill="#63b8ff" stroke="#63b8ff" points="589.12,-373.07 593.95,-382.5 596.05,-372.11 589.12,-373.07"/>
</a>
</g>
</g>
<!-- Node29 -->
<g id="Node000029" class="node">
<title>Node29</title>
<g id="a_Node000029"><a xlink:href="classNumerical__X__O__Board.html#ae4bed90db4f9d8308c3b4e7e0db8a5d4" target="_top" xlink:title="Update the board with a new move.">
<polygon fill="white" stroke="#666666" points="489.5,-116 364.5,-116 364.5,-86 489.5,-86 489.5,-116"/>
<text text-anchor="start" x="372.5" y="-104" font-family="Helvetica,sans-Serif" font-size="10.00">Numerical_X_O_Board</text>
<text text-anchor="middle" x="427" y="-93" font-family="Helvetica,sans-Serif" font-size="10.00">::update_board</text>
</a>
</g>
</g>
<!-- Node1&#45;&gt;Node29 -->
<g id="edge33_Node000001_Node000029" class="edge">
<title>Node1&#45;&gt;Node29</title>
<g id="a_edge33_Node000001_Node000029"><a xlink:title=" ">
<path fill="none" stroke="#63b8ff" d="M594.21,-372.16C591.16,-323.05 576.42,-194.79 505,-125 500.49,-120.6 495.19,-117 489.51,-114.06"/>
<polygon fill="#63b8ff" stroke="#63b8ff" points="590.72,-372.56 594.74,-382.37 597.72,-372.2 590.72,-372.56"/>
</a>
</g>
</g>
<!-- Node30 -->
<g id="Node000030" class="node">
<title>Node30</title>
<g id="a_Node000030"><a xlink:href="classSUS__Board.html#a5cf8d1ad2da90ed50b77a7f5d91342f4" target="_top" xlink:title="Updates the board with a player&#39;s move.">
<polygon fill="white" stroke="#666666" points="498.5,-67.5 355.5,-67.5 355.5,-48.5 498.5,-48.5 498.5,-67.5"/>
<text text-anchor="middle" x="427" y="-55.5" font-family="Helvetica,sans-Serif" font-size="10.00">SUS_Board::update_board</text>
</a>
</g>
</g>
<!-- Node1&#45;&gt;Node30 -->
<g id="edge34_Node000001_Node000030" class="edge">
<title>Node1&#45;&gt;Node30</title>
<g id="a_edge34_Node000001_Node000030"><a xlink:title=" ">
<path fill="none" stroke="#63b8ff" d="M595.67,-372.12C596.39,-316.73 590.43,-159.38 505,-77 501.04,-73.18 496.43,-70.08 491.48,-67.59"/>
<polygon fill="#63b8ff" stroke="#63b8ff" points="592.17,-372.25 595.44,-382.32 599.16,-372.41 592.17,-372.25"/>
</a>
</g>
</g>
<!-- Node31 -->
<g id="Node000031" class="node">
<title>Node31</title>
<g id="a_Node000031"><a xlink:href="classX__O__5x5__Board.html#a4c7b73d99de1c299bbef965cdc3c5f32" target="_top" xlink:title="Update the board with a new move.">
<polygon fill="white" stroke="#666666" points="493.5,-30 360.5,-30 360.5,0 493.5,0 493.5,-30"/>
<text text-anchor="start" x="368.5" y="-18" font-family="Helvetica,sans-Serif" font-size="10.00">X_O_5x5_Board::update</text>
<text text-anchor="middle" x="427" y="-7" font-family="Helvetica,sans-Serif" font-size="10.00">_board</text>
</a>
</g>
</g>
<!-- Node1&#45;&gt;Node31 -->
<g id="edge35_Node000001_Node000031" class="edge">
<title>Node1&#45;&gt;Node31</title>
<g id="a_edge35_Node000001_Node000031"><a xlink:title=" ">
<path fill="none" stroke="#63b8ff" d="M592.54,-372.47C583.77,-305.8 552.02,-88.55 505,-39 501.63,-35.44 497.74,-32.41 493.53,-29.83"/>
<polygon fill="#63b8ff" stroke="#63b8ff" points="589.08,-373 593.83,-382.47 596.02,-372.1 589.08,-373"/>
</a>
</g>
</g>
<!-- Node9 -->
<g id="Node000009" class="node">
<title>Node9</title>
<g id="a_Node000009"><a xlink:href="classMisere__Tic__Tac__Toe__board.html#ada7bdaa8066378a91d22134d2b931343" target="_top" xlink:title="Determines if the game is over (win or draw).">
<polygon fill="white" stroke="#666666" points="134,-622 10,-622 10,-592 134,-592 134,-622"/>
<text text-anchor="start" x="18" y="-610" font-family="Helvetica,sans-Serif" font-size="10.00">Misere_Tic_Tac_Toe</text>
<text text-anchor="middle" x="72" y="-599" font-family="Helvetica,sans-Serif" font-size="10.00">_board::game_is_over</text>
</a>
</g>
</g>
<!-- Node8&#45;&gt;Node9 -->
<g id="edge8_Node000008_Node000009" class="edge">
<title>Node8&#45;&gt;Node9</title>
<g id="a_edge8_Node000008_Node000009"><a xlink:title=" ">
<path fill="none" stroke="#63b8ff" d="M361.83,-528.2C357.23,-530.73 352.89,-533.64 349,-537 321.64,-560.67 343.72,-590.9 313,-610 255.32,-645.87 173.79,-634.84 122.17,-622.1"/>
<polygon fill="#63b8ff" stroke="#63b8ff" points="363.43,-531.32 370.92,-523.82 360.39,-525.01 363.43,-531.32"/>
</a>
</g>
</g>
<!-- Node10 -->
<g id="Node000010" class="node">
<title>Node10</title>
<g id="a_Node000010"><a xlink:href="classMisere__Tic__Tac__Toe__board.html#ae61d1f10678bb86d7de70a6a5f0e67f7" target="_top" xlink:title="Checks if the game has ended in a draw.">
<polygon fill="white" stroke="#666666" points="302.5,-601 190.5,-601 190.5,-571 302.5,-571 302.5,-601"/>
<text text-anchor="start" x="198.5" y="-589" font-family="Helvetica,sans-Serif" font-size="10.00">Misere_Tic_Tac_Toe</text>
<text text-anchor="middle" x="246.5" y="-578" font-family="Helvetica,sans-Serif" font-size="10.00">_board::is_draw</text>
</a>
</g>
</g>
<!-- Node8&#45;&gt;Node10 -->
<g id="edge9_Node000008_Node000010" class="edge">
<title>Node8&#45;&gt;Node10</title>
<g id="a_edge9_Node000008_Node000010"><a xlink:title=" ">
<path fill="none" stroke="#63b8ff" d="M365.47,-530.42C359.85,-532.5 354.28,-534.7 349,-537 332.22,-544.3 329.38,-548.84 313,-557 303.43,-561.77 292.89,-566.6 283.12,-570.93"/>
<polygon fill="#63b8ff" stroke="#63b8ff" points="366.71,-533.69 374.95,-527.04 364.35,-527.1 366.71,-533.69"/>
</a>
</g>
</g>
<!-- Node10&#45;&gt;Node9 -->
<g id="edge10_Node000010_Node000009" class="edge">
<title>Node10&#45;&gt;Node9</title>
<g id="a_edge10_Node000010_Node000009"><a xlink:title=" ">
<path fill="none" stroke="#63b8ff" d="M180.16,-593.95C165.05,-595.79 149.03,-597.74 134.11,-599.56"/>
<polygon fill="#63b8ff" stroke="#63b8ff" points="180.94,-597.39 190.45,-592.7 180.1,-590.44 180.94,-597.39"/>
</a>
</g>
</g>
<!-- Node12 -->
<g id="Node000012" class="node">
<title>Node12</title>
<g id="a_Node000012"><a xlink:href="classFour__Four__XO__Board.html#ac6b120eac0b398ddc91e9bc1562badf9" target="_top" xlink:title="Check if the game is over.">
<polygon fill="white" stroke="#666666" points="130,-536 14,-536 14,-506 130,-506 130,-536"/>
<text text-anchor="start" x="22" y="-524" font-family="Helvetica,sans-Serif" font-size="10.00">Four_Four_XO_Board</text>
<text text-anchor="middle" x="72" y="-513" font-family="Helvetica,sans-Serif" font-size="10.00">::game_is_over</text>
</a>
</g>
</g>
<!-- Node11&#45;&gt;Node12 -->
<g id="edge12_Node000011_Node000012" class="edge">
<title>Node11&#45;&gt;Node12</title>
<g id="a_edge12_Node000011_Node000012"><a xlink:title=" ">
<path fill="none" stroke="#63b8ff" d="M359.5,-482.39C355.87,-484.11 352.34,-485.98 349,-488 329.64,-499.71 333.91,-515.34 313,-524 254.29,-548.32 180.36,-542.6 130.18,-534"/>
<polygon fill="#63b8ff" stroke="#63b8ff" points="360.92,-485.6 368.71,-478.41 358.14,-479.17 360.92,-485.6"/>
</a>
</g>
</g>
<!-- Node13 -->
<g id="Node000013" class="node">
<title>Node13</title>
<g id="a_Node000013"><a xlink:href="classFour__Four__XO__Board.html#afcade23d315ec56024baeaaca94e432f" target="_top" xlink:title="Check if the game ended in a draw.">
<polygon fill="white" stroke="#666666" points="304.5,-515 188.5,-515 188.5,-485 304.5,-485 304.5,-515"/>
<text text-anchor="start" x="196.5" y="-503" font-family="Helvetica,sans-Serif" font-size="10.00">Four_Four_XO_Board</text>
<text text-anchor="middle" x="246.5" y="-492" font-family="Helvetica,sans-Serif" font-size="10.00">::is_draw</text>
</a>
</g>
</g>
<!-- Node11&#45;&gt;Node13 -->
<g id="edge13_Node000011_Node000013" class="edge">
<title>Node11&#45;&gt;Node13</title>
<g id="a_edge13_Node000011_Node000013"><a xlink:title=" ">
<path fill="none" stroke="#63b8ff" d="M358.27,-477.66C340.56,-481.23 321.64,-485.05 304.55,-488.49"/>
<polygon fill="#63b8ff" stroke="#63b8ff" points="359.43,-481 368.54,-475.59 358.04,-474.13 359.43,-481"/>
</a>
</g>
</g>
<!-- Node13&#45;&gt;Node12 -->
<g id="edge14_Node000013_Node000012" class="edge">
<title>Node13&#45;&gt;Node12</title>
<g id="a_edge14_Node000013_Node000012"><a xlink:title=" ">
<path fill="none" stroke="#63b8ff" d="M177.85,-508.24C162.08,-510.15 145.45,-512.18 130.19,-514.04"/>
<polygon fill="#63b8ff" stroke="#63b8ff" points="178.56,-511.68 188.06,-506.99 177.71,-504.73 178.56,-511.68"/>
</a>
</g>
</g>
<!-- Node15 -->
<g id="Node000015" class="node">
<title>Node15</title>
<g id="a_Node000015"><a xlink:href="classInfinity__X__O__Board.html#aecd2c26979b7ba39a036ec469363f6bf" target="_top" xlink:title="Determines if the game is over (win or draw).">
<polygon fill="white" stroke="#666666" points="126.5,-450 17.5,-450 17.5,-420 126.5,-420 126.5,-450"/>
<text text-anchor="start" x="25.5" y="-438" font-family="Helvetica,sans-Serif" font-size="10.00">Infinity_X_O_Board</text>
<text text-anchor="middle" x="72" y="-427" font-family="Helvetica,sans-Serif" font-size="10.00">::game_is_over</text>
</a>
</g>
</g>
<!-- Node14&#45;&gt;Node15 -->
<g id="edge16_Node000014_Node000015" class="edge">
<title>Node14&#45;&gt;Node15</title>
<g id="a_edge16_Node000014_Node000015"><a xlink:title=" ">
<path fill="none" stroke="#63b8ff" d="M362.46,-430.59C346.41,-433.66 329.15,-436.44 313,-438 249.12,-444.16 175.25,-441.82 126.52,-438.98"/>
<polygon fill="#63b8ff" stroke="#63b8ff" points="363.15,-434.02 372.28,-428.65 361.79,-427.16 363.15,-434.02"/>
</a>
</g>
</g>
<!-- Node16 -->
<g id="Node000016" class="node">
<title>Node16</title>
<g id="a_Node000016"><a xlink:href="classInfinity__X__O__Board.html#a27dc0d692d24c8ec6e921267424bf046" target="_top" xlink:title="Checks if the game has ended in a draw.">
<polygon fill="white" stroke="#666666" points="301,-429 192,-429 192,-399 301,-399 301,-429"/>
<text text-anchor="start" x="200" y="-417" font-family="Helvetica,sans-Serif" font-size="10.00">Infinity_X_O_Board</text>
<text text-anchor="middle" x="246.5" y="-406" font-family="Helvetica,sans-Serif" font-size="10.00">::is_draw</text>
</a>
</g>
</g>
<!-- Node14&#45;&gt;Node16 -->
<g id="edge17_Node000014_Node000016" class="edge">
<title>Node14&#45;&gt;Node16</title>
<g id="a_edge17_Node000014_Node000016"><a xlink:title=" ">
<path fill="none" stroke="#63b8ff" d="M362.44,-415.29C342.34,-415.06 320.34,-414.82 301.02,-414.6"/>
<polygon fill="#63b8ff" stroke="#63b8ff" points="362.41,-418.79 372.44,-415.4 362.48,-411.79 362.41,-418.79"/>
</a>
</g>
</g>
<!-- Node16&#45;&gt;Node15 -->
<g id="edge18_Node000016_Node000015" class="edge">
<title>Node16&#45;&gt;Node15</title>
<g id="a_edge18_Node000016_Node000015"><a xlink:title=" ">
<path fill="none" stroke="#63b8ff" d="M181.94,-421.74C163.75,-423.95 144.12,-426.34 126.6,-428.47"/>
<polygon fill="#63b8ff" stroke="#63b8ff" points="182.36,-425.21 191.87,-420.53 181.52,-418.26 182.36,-425.21"/>
</a>
</g>
</g>
<!-- Node18 -->
<g id="Node000018" class="node">
<title>Node18</title>
<g id="a_Node000018"><a xlink:href="classNumerical__X__O__Board.html#a4dbd494c6fca2beea04c4180d3d322e9" target="_top" xlink:title="Check if the game is over.">
<polygon fill="white" stroke="#666666" points="134.5,-352 9.5,-352 9.5,-322 134.5,-322 134.5,-352"/>
<text text-anchor="start" x="17.5" y="-340" font-family="Helvetica,sans-Serif" font-size="10.00">Numerical_X_O_Board</text>
<text text-anchor="middle" x="72" y="-329" font-family="Helvetica,sans-Serif" font-size="10.00">::game_is_over</text>
</a>
</g>
</g>
<!-- Node17&#45;&gt;Node18 -->
<g id="edge20_Node000017_Node000018" class="edge">
<title>Node17&#45;&gt;Node18</title>
<g id="a_edge20_Node000017_Node000018"><a xlink:title=" ">
<path fill="none" stroke="#63b8ff" d="M354.27,-364.74C305.14,-362.17 238.53,-358 180,-352 165.26,-350.49 149.43,-348.48 134.58,-346.43"/>
<polygon fill="#63b8ff" stroke="#63b8ff" points="354.31,-368.25 364.48,-365.27 354.67,-361.26 354.31,-368.25"/>
</a>
</g>
</g>
<!-- Node19 -->
<g id="Node000019" class="node">
<title>Node19</title>
<g id="a_Node000019"><a xlink:href="classNumerical__X__O__Board.html#a2d3ee20a3d8e9b2e001649ce85d3a515" target="_top" xlink:title="Check if the game ended in a draw.">
<polygon fill="white" stroke="#666666" points="309,-343 184,-343 184,-313 309,-313 309,-343"/>
<text text-anchor="start" x="192" y="-331" font-family="Helvetica,sans-Serif" font-size="10.00">Numerical_X_O_Board</text>
<text text-anchor="middle" x="246.5" y="-320" font-family="Helvetica,sans-Serif" font-size="10.00">::is_draw</text>
</a>
</g>
</g>
<!-- Node17&#45;&gt;Node19 -->
<g id="edge21_Node000017_Node000019" class="edge">
<title>Node17&#45;&gt;Node19</title>
<g id="a_edge21_Node000017_Node000019"><a xlink:title=" ">
<path fill="none" stroke="#63b8ff" d="M354.14,-351.9C339.24,-348.56 323.67,-345.07 309.18,-341.82"/>
<polygon fill="#63b8ff" stroke="#63b8ff" points="353.8,-355.41 364.32,-354.18 355.33,-348.58 353.8,-355.41"/>
</a>
</g>
</g>
<!-- Node19&#45;&gt;Node18 -->
<g id="edge22_Node000019_Node000018" class="edge">
<title>Node19&#45;&gt;Node18</title>
<g id="a_edge22_Node000019_Node000018"><a xlink:title=" ">
<path fill="none" stroke="#63b8ff" d="M173.48,-331.76C160.57,-332.43 147.23,-333.13 134.65,-333.78"/>
<polygon fill="#63b8ff" stroke="#63b8ff" points="173.91,-335.24 183.71,-331.22 173.54,-328.25 173.91,-335.24"/>
</a>
</g>
</g>
<!-- Node21 -->
<g id="Node000021" class="node">
<title>Node21</title>
<g id="a_Node000021"><a xlink:href="classSUS__Board.html#a1402f8069947c57d4b65f50248e699b2" target="_top" xlink:title="Determines if the game is over (win or draw).">
<polygon fill="white" stroke="#666666" points="144,-284.5 0,-284.5 0,-265.5 144,-265.5 144,-284.5"/>
<text text-anchor="middle" x="72" y="-272.5" font-family="Helvetica,sans-Serif" font-size="10.00">SUS_Board::game_is_over</text>
</a>
</g>
</g>
<!-- Node20&#45;&gt;Node21 -->
<g id="edge24_Node000020_Node000021" class="edge">
<title>Node20&#45;&gt;Node21</title>
<g id="a_edge24_Node000020_Node000021"><a xlink:title=" ">
<path fill="none" stroke="#63b8ff" d="M368.36,-313.56C350.64,-310.24 331.05,-306.77 313,-304 256.37,-295.33 191.9,-287.66 144.05,-282.39"/>
<polygon fill="#63b8ff" stroke="#63b8ff" points="368.08,-317.07 378.56,-315.49 369.38,-310.19 368.08,-317.07"/>
</a>
</g>
</g>
<!-- Node22 -->
<g id="Node000022" class="node">
<title>Node22</title>
<g id="a_Node000022"><a xlink:href="classSUS__Board.html#a006d0b395a8912ceb0335b95cc69de49" target="_top" xlink:title="Checks if the game has ended in a draw.">
<polygon fill="white" stroke="#666666" points="303,-256.5 190,-256.5 190,-237.5 303,-237.5 303,-256.5"/>
<text text-anchor="middle" x="246.5" y="-244.5" font-family="Helvetica,sans-Serif" font-size="10.00">SUS_Board::is_draw</text>
</a>
</g>
</g>
<!-- Node20&#45;&gt;Node22 -->
<g id="edge25_Node000020_Node000022" class="edge">
<title>Node20&#45;&gt;Node22</title>
<g id="a_edge25_Node000020_Node000022"><a xlink:title=" ">
<path fill="none" stroke="#63b8ff" d="M363.42,-313.56C358.41,-311.69 353.53,-309.52 349,-307 329.22,-296 332.07,-283.18 313,-271 303.61,-265 292.51,-260.22 282.14,-256.55"/>
<polygon fill="#63b8ff" stroke="#63b8ff" points="362.58,-316.97 373.18,-316.78 364.78,-310.32 362.58,-316.97"/>
</a>
</g>
</g>
<!-- Node22&#45;&gt;Node21 -->
<g id="edge26_Node000022_Node000021" class="edge">
<title>Node22&#45;&gt;Node21</title>
<g id="a_edge26_Node000022_Node000021"><a xlink:title=" ">
<path fill="none" stroke="#63b8ff" d="M179.75,-257.67C163.94,-260.24 147.16,-262.96 131.7,-265.47"/>
<polygon fill="#63b8ff" stroke="#63b8ff" points="180.66,-261.07 189.97,-256.01 179.54,-254.16 180.66,-261.07"/>
</a>
</g>
</g>
<!-- Node24 -->
<g id="Node000024" class="node">
<title>Node24</title>
<g id="a_Node000024"><a xlink:href="classX__O__5x5__Board.html#ad2e0c1e9c3cb85acdbff6c081ad7b8b3" target="_top" xlink:title="Check if the game is over.">
<polygon fill="white" stroke="#666666" points="310,-219 183,-219 183,-189 310,-189 310,-219"/>
<text text-anchor="start" x="191" y="-207" font-family="Helvetica,sans-Serif" font-size="10.00">X_O_5x5_Board::game</text>
<text text-anchor="middle" x="246.5" y="-196" font-family="Helvetica,sans-Serif" font-size="10.00">_is_over</text>
</a>
</g>
</g>
<!-- Node23&#45;&gt;Node24 -->
<g id="edge28_Node000023_Node000024" class="edge">
<title>Node23&#45;&gt;Node24</title>
<g id="a_edge28_Node000023_Node000024"><a xlink:title=" ">
<path fill="none" stroke="#63b8ff" d="M360.57,-274.84C356.55,-273.13 352.65,-271.19 349,-269 328.49,-256.7 332.72,-242.53 313,-229 307.48,-225.21 301.31,-221.9 295.02,-219.03"/>
<polygon fill="#63b8ff" stroke="#63b8ff" points="359.56,-278.2 370.15,-278.45 362.03,-271.65 359.56,-278.2"/>
</a>
</g>
</g>
<!-- Node25 -->
<g id="Node000025" class="node">
<title>Node25</title>
<g id="a_Node000025"><a xlink:href="classX__O__5x5__Board.html#af85ffbe23533e0388f64ca0f55b58979" target="_top" xlink:title="Check if a player has lost.">
<polygon fill="white" stroke="#666666" points="313,-170.5 180,-170.5 180,-151.5 313,-151.5 313,-170.5"/>
<text text-anchor="middle" x="246.5" y="-158.5" font-family="Helvetica,sans-Serif" font-size="10.00">X_O_5x5_Board::is_lose</text>
</a>
</g>
</g>
<!-- Node23&#45;&gt;Node25 -->
<g id="edge29_Node000023_Node000025" class="edge">
<title>Node23&#45;&gt;Node25</title>
<g id="a_edge29_Node000023_Node000025"><a xlink:title=" ">
<path fill="none" stroke="#63b8ff" d="M355.23,-273.66C353.04,-272.25 350.96,-270.7 349,-269 316.76,-241.05 344.67,-208.59 313,-180 308.69,-176.11 303.64,-173.02 298.27,-170.55"/>
<polygon fill="#63b8ff" stroke="#63b8ff" points="353.62,-276.77 364.08,-278.48 356.97,-270.63 353.62,-276.77"/>
</a>
</g>
</g>
</g>
</svg>
