<?xml version="1.0" encoding="UTF-8" standalone="no"?>
<!DOCTYPE svg PUBLIC "-//W3C//DTD SVG 1.1//EN"
 "http://www.w3.org/Graphics/SVG/1.1/DTD/svg11.dtd">
<!-- Generated by graphviz version 2.43.0 (0)
 -->
<!-- Title: smartPlayer::get_opponent_symbol Pages: 1 -->
<svg width="857pt" height="101pt"
 viewBox="0.00 0.00 857.00 101.00" xmlns="http://www.w3.org/2000/svg" xmlns:xlink="http://www.w3.org/1999/xlink">
<g id="graph0" class="graph" transform="scale(1 1) rotate(0) translate(4 97)">
<title>smartPlayer::get_opponent_symbol</title>
<!-- Node1 -->
<g id="Node000001" class="node">
<title>Node1</title>
<g id="a_Node000001"><a xlink:title=" ">
<polygon fill="#999999" stroke="#666666" points="849,-89.5 700,-89.5 700,-59.5 849,-59.5 849,-89.5"/>
<text text-anchor="start" x="708" y="-77.5" font-family="Helvetica,sans-Serif" font-size="10.00">smartPlayer::get_opponent</text>
<text text-anchor="middle" x="774.5" y="-66.5" font-family="Helvetica,sans-Serif" font-size="10.00">_symbol</text>
</a>
</g>
</g>
<!-- Node2 -->
<g id="Node000002" class="node">
<title>Node2</title>
<g id="a_Node000002"><a xlink:href="classsmartPlayer.html#a6064105bc4b494d926db58ff05c98aaa" target="_top" xlink:title=" ">
<polygon fill="white" stroke="#666666" points="348,-93 195,-93 195,-74 348,-74 348,-93"/>
<text text-anchor="middle" x="271.5" y="-81" font-family="Helvetica,sans-Serif" font-size="10.00">smartPlayer::calculateMove</text>
</a>
</g>
</g>
<!-- Node1&#45;&gt;Node2 -->
<g id="edge1_Node000001_Node000002" class="edge">
<title>Node1&#45;&gt;Node2</title>
<g id="a_edge1_Node000001_Node000002"><a xlink:title=" ">
<path fill="none" stroke="#63b8ff" d="M689.8,-78.08C637.78,-80.12 569.51,-82.47 509,-83.5 455.22,-84.41 394.55,-84.39 348.13,-84.15"/>
<polygon fill="#63b8ff" stroke="#63b8ff" points="690.12,-81.57 699.98,-77.67 689.85,-74.57 690.12,-81.57"/>
</a>
</g>
</g>
<!-- Node3 -->
<g id="Node000003" class="node">
<title>Node3</title>
<g id="a_Node000003"><a xlink:href="classsmartPlayer.html#a046e18221d92303afd36dca43d859898" target="_top" xlink:title=" ">
<polygon fill="white" stroke="#666666" points="664,-56 545,-56 545,-37 664,-37 664,-56"/>
<text text-anchor="middle" x="604.5" y="-44" font-family="Helvetica,sans-Serif" font-size="10.00">smartPlayer::is_draw</text>
</a>
</g>
</g>
<!-- Node1&#45;&gt;Node3 -->
<g id="edge2_Node000001_Node000003" class="edge">
<title>Node1&#45;&gt;Node3</title>
<g id="a_edge2_Node000001_Node000003"><a xlink:title=" ">
<path fill="none" stroke="#63b8ff" d="M689.86,-60.56C680.67,-59.03 671.48,-57.5 662.71,-56.04"/>
<polygon fill="#63b8ff" stroke="#63b8ff" points="689.37,-64.03 699.81,-62.22 690.52,-57.12 689.37,-64.03"/>
</a>
</g>
</g>
<!-- Node4 -->
<g id="Node000004" class="node">
<title>Node4</title>
<g id="a_Node000004"><a xlink:href="classsmartPlayer2.html#acf253a6afb2216922e6a1184c7b50a14" target="_top" xlink:title=" ">
<polygon fill="white" stroke="#666666" points="509,-19 384,-19 384,0 509,0 509,-19"/>
<text text-anchor="middle" x="446.5" y="-7" font-family="Helvetica,sans-Serif" font-size="10.00">smartPlayer2::is_draw</text>
</a>
</g>
</g>
<!-- Node3&#45;&gt;Node4 -->
<g id="edge3_Node000003_Node000004" class="edge">
<title>Node3&#45;&gt;Node4</title>
<g id="a_edge3_Node000003_Node000004"><a xlink:title=" ">
<path fill="none" stroke="#63b8ff" d="M553.51,-34.64C532.28,-29.61 507.86,-23.82 487.81,-19.06"/>
<polygon fill="#63b8ff" stroke="#63b8ff" points="552.79,-38.07 563.33,-36.97 554.4,-31.26 552.79,-38.07"/>
</a>
</g>
</g>
<!-- Node7 -->
<g id="Node000007" class="node">
<title>Node7</title>
<g id="a_Node000007"><a xlink:href="classsmartPlayer.html#a813fa8a35e205952685fc055af8a8e48" target="_top" xlink:title=" ">
<polygon fill="white" stroke="#666666" points="509,-56 384,-56 384,-37 509,-37 509,-56"/>
<text text-anchor="middle" x="446.5" y="-44" font-family="Helvetica,sans-Serif" font-size="10.00">smartPlayer::minimax</text>
</a>
</g>
</g>
<!-- Node3&#45;&gt;Node7 -->
<g id="edge7_Node000003_Node000007" class="edge">
<title>Node3&#45;&gt;Node7</title>
<g id="a_edge7_Node000003_Node000007"><a xlink:title=" ">
<path fill="none" stroke="#63b8ff" d="M534.72,-46.5C526.23,-46.5 517.6,-46.5 509.23,-46.5"/>
<polygon fill="#63b8ff" stroke="#63b8ff" points="534.97,-50 544.97,-46.5 534.97,-43 534.97,-50"/>
</a>
</g>
</g>
<!-- Node5 -->
<g id="Node000005" class="node">
<title>Node5</title>
<g id="a_Node000005"><a xlink:href="classsmartPlayer2.html#a8212944143d4baa2e7b05bca584a0e77" target="_top" xlink:title=" ">
<polygon fill="white" stroke="#666666" points="337,-19 206,-19 206,0 337,0 337,-19"/>
<text text-anchor="middle" x="271.5" y="-7" font-family="Helvetica,sans-Serif" font-size="10.00">smartPlayer2::minimax</text>
</a>
</g>
</g>
<!-- Node4&#45;&gt;Node5 -->
<g id="edge4_Node000004_Node000005" class="edge">
<title>Node4&#45;&gt;Node5</title>
<g id="a_edge4_Node000004_Node000005"><a xlink:title=" ">
<path fill="none" stroke="#63b8ff" d="M373.18,-9.5C361.26,-9.5 348.97,-9.5 337.25,-9.5"/>
<polygon fill="#63b8ff" stroke="#63b8ff" points="373.53,-13 383.53,-9.5 373.53,-6 373.53,-13"/>
</a>
</g>
</g>
<!-- Node5&#45;&gt;Node5 -->
<g id="edge6_Node000005_Node000005" class="edge">
<title>Node5&#45;&gt;Node5</title>
<g id="a_edge6_Node000005_Node000005"><a xlink:title=" ">
<path fill="none" stroke="#63b8ff" d="M304.06,-27.45C303.13,-32.82 292.28,-37 271.5,-37 240.57,-37 231.63,-27.73 244.68,-19.08"/>
<polygon fill="#63b8ff" stroke="#63b8ff" points="306.86,-25.35 298.32,-19.08 301.09,-29.31 306.86,-25.35"/>
</a>
</g>
</g>
<!-- Node6 -->
<g id="Node000006" class="node">
<title>Node6</title>
<g id="a_Node000006"><a xlink:href="classsmartPlayer2.html#af51ff0c3115f5dc34fce64958c52beb2" target="_top" xlink:title=" ">
<polygon fill="white" stroke="#666666" points="159,-19 0,-19 0,0 159,0 159,-19"/>
<text text-anchor="middle" x="79.5" y="-7" font-family="Helvetica,sans-Serif" font-size="10.00">smartPlayer2::calculateMove</text>
</a>
</g>
</g>
<!-- Node5&#45;&gt;Node6 -->
<g id="edge5_Node000005_Node000006" class="edge">
<title>Node5&#45;&gt;Node6</title>
<g id="a_edge5_Node000005_Node000006"><a xlink:title=" ">
<path fill="none" stroke="#63b8ff" d="M195.88,-9.5C183.79,-9.5 171.24,-9.5 159.06,-9.5"/>
<polygon fill="#63b8ff" stroke="#63b8ff" points="195.91,-13 205.91,-9.5 195.91,-6 195.91,-13"/>
</a>
</g>
</g>
<!-- Node7&#45;&gt;Node2 -->
<g id="edge8_Node000007_Node000002" class="edge">
<title>Node7&#45;&gt;Node2</title>
<g id="a_edge8_Node000007_Node000002"><a xlink:title=" ">
<path fill="none" stroke="#63b8ff" d="M391.02,-58.15C367.25,-63.23 339.74,-69.12 317.2,-73.94"/>
<polygon fill="#63b8ff" stroke="#63b8ff" points="391.9,-61.54 400.95,-56.03 390.44,-54.7 391.9,-61.54"/>
</a>
</g>
</g>
<!-- Node7&#45;&gt;Node7 -->
<g id="edge9_Node000007_Node000007" class="edge">
<title>Node7&#45;&gt;Node7</title>
<g id="a_edge9_Node000007_Node000007"><a xlink:title=" ">
<path fill="none" stroke="#63b8ff" d="M475.99,-64.82C474.76,-70.01 464.93,-74 446.5,-74 418.42,-74 410.3,-64.73 422.15,-56.08"/>
<polygon fill="#63b8ff" stroke="#63b8ff" points="478.94,-62.93 470.85,-56.08 472.91,-66.48 478.94,-62.93"/>
</a>
</g>
</g>
</g>
</svg>
