<?xml version="1.0" encoding="UTF-8" standalone="no"?>
<!DOCTYPE svg PUBLIC "-//W3C//DTD SVG 1.1//EN"
 "http://www.w3.org/Graphics/SVG/1.1/DTD/svg11.dtd">
<!-- Generated by graphviz version 2.43.0 (0)
 -->
<!-- Title: AIPlayer::calculateMove Pages: 1 -->
<svg width="811pt" height="419pt"
 viewBox="0.00 0.00 811.00 419.25" xmlns="http://www.w3.org/2000/svg" xmlns:xlink="http://www.w3.org/1999/xlink">
<g id="graph0" class="graph" transform="scale(1 1) rotate(0) translate(4 415.25)">
<title>AIPlayer::calculateMove</title>
<!-- Node1 -->
<g id="Node000001" class="node">
<title>Node1</title>
<g id="a_Node000001"><a xlink:title="Calculate and return the best move using minimax algorithm.">
<polygon fill="#999999" stroke="#666666" points="134,-199 0,-199 0,-180 134,-180 134,-199"/>
<text text-anchor="middle" x="67" y="-187" font-family="Helvetica,sans-Serif" font-size="10.00">AIPlayer::calculateMove</text>
</a>
</g>
</g>
<!-- Node2 -->
<g id="Node000002" class="node">
<title>Node2</title>
<g id="a_Node000002"><a xlink:href="classAIPlayer.html#a7a5e28485ca22a629601e98c3580b6d7" target="_top" xlink:title="Check if a position is valid for making a move.">
<polygon fill="white" stroke="#666666" points="472,-378 364,-378 364,-359 472,-359 472,-378"/>
<text text-anchor="middle" x="418" y="-366" font-family="Helvetica,sans-Serif" font-size="10.00">AIPlayer::condition</text>
</a>
</g>
</g>
<!-- Node1&#45;&gt;Node2 -->
<g id="edge1_Node000001_Node000002" class="edge">
<title>Node1&#45;&gt;Node2</title>
<g id="a_edge1_Node000001_Node000002"><a xlink:title=" ">
<path fill="none" stroke="#63b8ff" d="M72.65,-199C84.91,-222.97 120.6,-286.16 170,-316.5 225.84,-350.8 300.72,-362.77 353.34,-366.79"/>
<polygon fill="#63b8ff" stroke="#63b8ff" points="353.34,-370.3 363.56,-367.5 353.82,-363.32 353.34,-370.3"/>
</a>
</g>
</g>
<!-- Node3 -->
<g id="Node000003" class="node">
<title>Node3</title>
<g id="a_Node000003"><a xlink:href="classPlayer.html#a508617eddfae8915d098102d480fc888" target="_top" xlink:title="Get a pointer to the game board.">
<polygon fill="white" stroke="#666666" points="652.5,-397 531.5,-397 531.5,-378 652.5,-378 652.5,-397"/>
<text text-anchor="middle" x="592" y="-385" font-family="Helvetica,sans-Serif" font-size="10.00">Player::get_board_ptr</text>
</a>
</g>
</g>
<!-- Node1&#45;&gt;Node3 -->
<g id="edge9_Node000001_Node000003" class="edge">
<title>Node1&#45;&gt;Node3</title>
<g id="a_edge9_Node000001_Node000003"><a xlink:title=" ">
<path fill="none" stroke="#63b8ff" d="M70.97,-199.13C80.33,-227.69 112.05,-312.47 170,-352.5 281.34,-429.41 450.86,-413.64 536.88,-398.83"/>
<polygon fill="#63b8ff" stroke="#63b8ff" points="537.71,-402.24 546.94,-397.04 536.48,-395.35 537.71,-402.24"/>
</a>
</g>
</g>
<!-- Node4 -->
<g id="Node000004" class="node">
<title>Node4</title>
<g id="a_Node000004"><a xlink:href="classAIPlayer.html#a7b61c8b977c9322cd5773309bc54c8e8" target="_top" xlink:title="Pure virtual function to create a valid move depending on current game rules. Must be implemented by ...">
<polygon fill="white" stroke="#666666" points="478.5,-341 357.5,-341 357.5,-322 478.5,-322 478.5,-341"/>
<text text-anchor="middle" x="418" y="-329" font-family="Helvetica,sans-Serif" font-size="10.00">AIPlayer::createMove</text>
</a>
</g>
</g>
<!-- Node1&#45;&gt;Node4 -->
<g id="edge3_Node000001_Node000004" class="edge">
<title>Node1&#45;&gt;Node4</title>
<g id="a_edge3_Node000001_Node000004"><a xlink:title=" ">
<path fill="none" stroke="#63b8ff" d="M75.24,-199.06C90.47,-218.41 127.88,-262.2 170,-283.5 225.64,-311.64 296.02,-323.32 347.41,-328.15"/>
<polygon fill="#63b8ff" stroke="#63b8ff" points="347.15,-331.64 357.42,-329.03 347.76,-324.67 347.15,-331.64"/>
</a>
</g>
</g>
<!-- Node5 -->
<g id="Node000005" class="node">
<title>Node5</title>
<g id="a_Node000005"><a xlink:href="classAIPlayer.html#a38676c42e4a922eadace3633b5b046cb" target="_top" xlink:title=" ">
<polygon fill="white" stroke="#666666" points="491,-218 345,-218 345,-199 491,-199 491,-218"/>
<text text-anchor="middle" x="418" y="-206" font-family="Helvetica,sans-Serif" font-size="10.00">AIPlayer::createUndoMove</text>
</a>
</g>
</g>
<!-- Node1&#45;&gt;Node5 -->
<g id="edge4_Node000001_Node000005" class="edge">
<title>Node1&#45;&gt;Node5</title>
<g id="a_edge4_Node000001_Node000005"><a xlink:title=" ">
<path fill="none" stroke="#63b8ff" d="M134.05,-193.1C191.05,-196.2 273.63,-200.69 334.88,-204.03"/>
<polygon fill="#63b8ff" stroke="#63b8ff" points="334.72,-207.53 344.9,-204.57 335.1,-200.54 334.72,-207.53"/>
</a>
</g>
</g>
<!-- Node6 -->
<g id="Node000006" class="node">
<title>Node6</title>
<g id="a_Node000006"><a xlink:href="classAIPlayer.html#ab26d7531433c20c1616ec836a7fb5cce" target="_top" xlink:title="Generate possible move values for a given position.">
<polygon fill="white" stroke="#666666" points="471.5,-143.5 364.5,-143.5 364.5,-113.5 471.5,-113.5 471.5,-143.5"/>
<text text-anchor="start" x="372.5" y="-131.5" font-family="Helvetica,sans-Serif" font-size="10.00">AIPlayer::generate</text>
<text text-anchor="middle" x="418" y="-120.5" font-family="Helvetica,sans-Serif" font-size="10.00">_move_values</text>
</a>
</g>
</g>
<!-- Node1&#45;&gt;Node6 -->
<g id="edge5_Node000001_Node000006" class="edge">
<title>Node1&#45;&gt;Node6</title>
<g id="a_edge5_Node000001_Node000006"><a xlink:title=" ">
<path fill="none" stroke="#63b8ff" d="M122.53,-179.97C185.35,-168.99 288.38,-150.98 354.41,-139.44"/>
<polygon fill="#63b8ff" stroke="#63b8ff" points="355.03,-142.88 364.28,-137.71 353.83,-135.99 355.03,-142.88"/>
</a>
</g>
</g>
<!-- Node7 -->
<g id="Node000007" class="node">
<title>Node7</title>
<g id="a_Node000007"><a xlink:href="classAIPlayer.html#a706839a21ea012862d53269c478a56e6" target="_top" xlink:title="Get the opponent&#39;s symbol.">
<polygon fill="white" stroke="#666666" points="657,-105.5 527,-105.5 527,-75.5 657,-75.5 657,-105.5"/>
<text text-anchor="start" x="535" y="-93.5" font-family="Helvetica,sans-Serif" font-size="10.00">AIPlayer::get_opponent</text>
<text text-anchor="middle" x="592" y="-82.5" font-family="Helvetica,sans-Serif" font-size="10.00">_symbol</text>
</a>
</g>
</g>
<!-- Node1&#45;&gt;Node7 -->
<g id="edge11_Node000001_Node000007" class="edge">
<title>Node1&#45;&gt;Node7</title>
<g id="a_edge11_Node000001_Node000007"><a xlink:title=" ">
<path fill="none" stroke="#63b8ff" d="M86.34,-179.85C106.41,-169.61 139.77,-153.57 170,-143.5 245.6,-118.32 266.07,-115.47 345,-104.5 402.26,-96.54 467.62,-93.09 516.57,-91.6"/>
<polygon fill="#63b8ff" stroke="#63b8ff" points="516.86,-95.09 526.75,-91.31 516.66,-88.09 516.86,-95.09"/>
</a>
</g>
</g>
<!-- Node8 -->
<g id="Node000008" class="node">
<title>Node8</title>
<g id="a_Node000008"><a xlink:href="classPlayer.html#af56f0bf98c0423a3a75b0848607d03a4" target="_top" xlink:title="Get the player&#39;s symbol.">
<polygon fill="white" stroke="#666666" points="803,-100 693,-100 693,-81 803,-81 803,-100"/>
<text text-anchor="middle" x="748" y="-88" font-family="Helvetica,sans-Serif" font-size="10.00">Player::get_symbol</text>
</a>
</g>
</g>
<!-- Node1&#45;&gt;Node8 -->
<g id="edge12_Node000001_Node000008" class="edge">
<title>Node1&#45;&gt;Node8</title>
<g id="a_edge12_Node000001_Node000008"><a xlink:title=" ">
<path fill="none" stroke="#63b8ff" d="M76.11,-179.99C92.03,-162.07 129.37,-123.55 170,-106.5 370.26,-22.47 441.67,-38.28 657,-66.5 674.23,-68.76 692.85,-73.35 708.66,-77.92"/>
<polygon fill="#63b8ff" stroke="#63b8ff" points="708.02,-81.38 718.61,-80.89 710.03,-74.67 708.02,-81.38"/>
</a>
</g>
</g>
<!-- Node9 -->
<g id="Node000009" class="node">
<title>Node9</title>
<g id="a_Node000009"><a xlink:href="classAIPlayer.html#a025987884475f11a556e327dc2a67aaa" target="_top" xlink:title="Get the maximum search depth for minimax algorithm.">
<polygon fill="white" stroke="#666666" points="309,-19 170,-19 170,0 309,0 309,-19"/>
<text text-anchor="middle" x="239.5" y="-7" font-family="Helvetica,sans-Serif" font-size="10.00">AIPlayer::get_max_depth</text>
</a>
</g>
</g>
<!-- Node1&#45;&gt;Node9 -->
<g id="edge10_Node000001_Node000009" class="edge">
<title>Node1&#45;&gt;Node9</title>
<g id="a_edge10_Node000001_Node000009"><a xlink:title=" ">
<path fill="none" stroke="#63b8ff" d="M71.67,-179.87C82.46,-152.79 116.75,-75.2 170,-33.5 175.33,-29.32 181.45,-25.84 187.78,-22.95"/>
<polygon fill="#63b8ff" stroke="#63b8ff" points="189.21,-26.15 197.14,-19.12 186.56,-19.67 189.21,-26.15"/>
</a>
</g>
</g>
<!-- Node10 -->
<g id="Node000010" class="node">
<title>Node10</title>
<g id="a_Node000010"><a xlink:href="classAIPlayer.html#a4c0c158048dc4b7fabb54dafc9fd0659" target="_top" xlink:title="Minimax algorithm with alpha&#45;beta pruning.">
<polygon fill="white" stroke="#666666" points="293,-256 186,-256 186,-237 293,-237 293,-256"/>
<text text-anchor="middle" x="239.5" y="-244" font-family="Helvetica,sans-Serif" font-size="10.00">AIPlayer::minimax</text>
</a>
</g>
</g>
<!-- Node1&#45;&gt;Node10 -->
<g id="edge13_Node000001_Node000010" class="edge">
<title>Node1&#45;&gt;Node10</title>
<g id="a_edge13_Node000001_Node000010"><a xlink:title=" ">
<path fill="none" stroke="#63b8ff" d="M96.54,-199.04C124.94,-208.53 168.71,-223.17 200.13,-233.67"/>
<polygon fill="#63b8ff" stroke="#63b8ff" points="199.28,-237.08 209.87,-236.93 201.49,-230.44 199.28,-237.08"/>
</a>
</g>
</g>
<!-- Node12 -->
<g id="Node000012" class="node">
<title>Node12</title>
<g id="a_Node000012"><a xlink:href="classPlayer.html#adb4e803a7ac0356b111b8ca79d766976" target="_top" xlink:title="Construct a player with name, symbol, and type.">
<polygon fill="white" stroke="#666666" points="460,-181 376,-181 376,-162 460,-162 460,-181"/>
<text text-anchor="middle" x="418" y="-169" font-family="Helvetica,sans-Serif" font-size="10.00">Player::Player</text>
</a>
</g>
</g>
<!-- Node1&#45;&gt;Node12 -->
<g id="edge22_Node000001_Node000012" class="edge">
<title>Node1&#45;&gt;Node12</title>
<g id="a_edge22_Node000001_Node000012"><a xlink:title=" ">
<path fill="none" stroke="#63b8ff" d="M134.05,-186.09C201.31,-182.62 304.16,-177.32 365.58,-174.15"/>
<polygon fill="#63b8ff" stroke="#63b8ff" points="366,-177.64 375.8,-173.62 365.64,-170.64 366,-177.64"/>
</a>
</g>
</g>
<!-- Node2&#45;&gt;Node3 -->
<g id="edge2_Node000002_Node000003" class="edge">
<title>Node2&#45;&gt;Node3</title>
<g id="a_edge2_Node000002_Node000003"><a xlink:title=" ">
<path fill="none" stroke="#63b8ff" d="M472.01,-374.36C487.54,-376.07 504.76,-377.97 521.17,-379.79"/>
<polygon fill="#63b8ff" stroke="#63b8ff" points="520.94,-383.28 531.26,-380.9 521.7,-376.32 520.94,-383.28"/>
</a>
</g>
</g>
<!-- Node6&#45;&gt;Node7 -->
<g id="edge6_Node000006_Node000007" class="edge">
<title>Node6&#45;&gt;Node7</title>
<g id="a_edge6_Node000006_Node000007"><a xlink:title=" ">
<path fill="none" stroke="#63b8ff" d="M471.54,-116.89C485.88,-113.72 501.7,-110.23 517,-106.85"/>
<polygon fill="#63b8ff" stroke="#63b8ff" points="517.95,-110.22 526.96,-104.65 516.44,-103.39 517.95,-110.22"/>
</a>
</g>
</g>
<!-- Node6&#45;&gt;Node8 -->
<g id="edge8_Node000006_Node000008" class="edge">
<title>Node6&#45;&gt;Node8</title>
<g id="a_edge8_Node000006_Node000008"><a xlink:title=" ">
<path fill="none" stroke="#63b8ff" d="M471.8,-128.44C520.25,-127.66 593.86,-124.67 657,-114.5 673.76,-111.8 691.92,-107.28 707.5,-102.88"/>
<polygon fill="#63b8ff" stroke="#63b8ff" points="708.7,-106.18 717.33,-100.03 706.75,-99.46 708.7,-106.18"/>
</a>
</g>
</g>
<!-- Node7&#45;&gt;Node8 -->
<g id="edge7_Node000007_Node000008" class="edge">
<title>Node7&#45;&gt;Node8</title>
<g id="a_edge7_Node000007_Node000008"><a xlink:title=" ">
<path fill="none" stroke="#63b8ff" d="M657.42,-90.5C665.74,-90.5 674.26,-90.5 682.58,-90.5"/>
<polygon fill="#63b8ff" stroke="#63b8ff" points="682.6,-94 692.6,-90.5 682.6,-87 682.6,-94"/>
</a>
</g>
</g>
<!-- Node10&#45;&gt;Node2 -->
<g id="edge14_Node000010_Node000002" class="edge">
<title>Node10&#45;&gt;Node2</title>
<g id="a_edge14_Node000010_Node000002"><a xlink:title=" ">
<path fill="none" stroke="#63b8ff" d="M247.37,-256.26C262.49,-277 300.87,-325.58 345,-350.5 348.22,-352.32 351.62,-353.95 355.12,-355.43"/>
<polygon fill="#63b8ff" stroke="#63b8ff" points="353.98,-358.74 364.58,-358.95 356.43,-352.18 353.98,-358.74"/>
</a>
</g>
</g>
<!-- Node10&#45;&gt;Node4 -->
<g id="edge15_Node000010_Node000004" class="edge">
<title>Node10&#45;&gt;Node4</title>
<g id="a_edge15_Node000010_Node000004"><a xlink:title=" ">
<path fill="none" stroke="#63b8ff" d="M252.98,-256.18C271.9,-270.42 309.39,-296.99 345,-312.5 350.47,-314.88 356.3,-317.02 362.19,-318.93"/>
<polygon fill="#63b8ff" stroke="#63b8ff" points="361.52,-322.38 372.11,-321.92 363.55,-315.68 361.52,-322.38"/>
</a>
</g>
</g>
<!-- Node10&#45;&gt;Node5 -->
<g id="edge16_Node000010_Node000005" class="edge">
<title>Node10&#45;&gt;Node5</title>
<g id="a_edge16_Node000010_Node000005"><a xlink:title=" ">
<path fill="none" stroke="#63b8ff" d="M285.04,-236.91C308.64,-231.83 337.83,-225.54 362.75,-220.18"/>
<polygon fill="#63b8ff" stroke="#63b8ff" points="363.74,-223.55 372.78,-218.02 362.27,-216.7 363.74,-223.55"/>
</a>
</g>
</g>
<!-- Node10&#45;&gt;Node6 -->
<g id="edge18_Node000010_Node000006" class="edge">
<title>Node10&#45;&gt;Node6</title>
<g id="a_edge18_Node000010_Node000006"><a xlink:title=" ">
<path fill="none" stroke="#63b8ff" d="M248.77,-236.97C265.31,-218.46 304.37,-177.35 345,-153.5 348.59,-151.39 352.39,-149.42 356.3,-147.59"/>
<polygon fill="#63b8ff" stroke="#63b8ff" points="357.76,-150.77 365.53,-143.57 354.96,-144.35 357.76,-150.77"/>
</a>
</g>
</g>
<!-- Node10&#45;&gt;Node10 -->
<g id="edge19_Node000010_Node000010" class="edge">
<title>Node10&#45;&gt;Node10</title>
<g id="a_edge19_Node000010_Node000010"><a xlink:title=" ">
<path fill="none" stroke="#63b8ff" d="M212.99,-256.08C200.09,-264.73 208.93,-274 239.5,-274 260.04,-274 270.77,-269.82 271.69,-264.45"/>
<polygon fill="#63b8ff" stroke="#63b8ff" points="274.52,-262.39 266.01,-256.08 268.73,-266.32 274.52,-262.39"/>
</a>
</g>
</g>
<!-- Node11 -->
<g id="Node000011" class="node">
<title>Node11</title>
<g id="a_Node000011"><a xlink:href="classAIPlayer.html#ab348ca15fad1cb2099d9a6336b41c637" target="_top" xlink:title="Evaluate the current board position from AI&#39;s perspective.">
<polygon fill="white" stroke="#666666" points="471,-303.5 365,-303.5 365,-273.5 471,-273.5 471,-303.5"/>
<text text-anchor="start" x="373" y="-291.5" font-family="Helvetica,sans-Serif" font-size="10.00">AIPlayer::evaluate</text>
<text text-anchor="middle" x="418" y="-280.5" font-family="Helvetica,sans-Serif" font-size="10.00">_board</text>
</a>
</g>
</g>
<!-- Node10&#45;&gt;Node11 -->
<g id="edge17_Node000010_Node000011" class="edge">
<title>Node10&#45;&gt;Node11</title>
<g id="a_edge17_Node000010_Node000011"><a xlink:title=" ">
<path fill="none" stroke="#63b8ff" d="M280.55,-256.03C302.45,-261.24 330.07,-267.81 354.71,-273.68"/>
<polygon fill="#63b8ff" stroke="#63b8ff" points="354.17,-277.15 364.71,-276.06 355.79,-270.34 354.17,-277.15"/>
</a>
</g>
</g>
<!-- Node10&#45;&gt;Node12 -->
<g id="edge20_Node000010_Node000012" class="edge">
<title>Node10&#45;&gt;Node12</title>
<g id="a_edge20_Node000010_Node000012"><a xlink:title=" ">
<path fill="none" stroke="#63b8ff" d="M255.54,-236.98C275.37,-224.77 311.67,-203.62 345,-190.5 351.7,-187.86 358.89,-185.47 366.04,-183.35"/>
<polygon fill="#63b8ff" stroke="#63b8ff" points="367.05,-186.7 375.72,-180.62 365.15,-179.97 367.05,-186.7"/>
</a>
</g>
</g>
<!-- Node13 -->
<g id="Node000013" class="node">
<title>Node13</title>
<g id="a_Node000013"><a xlink:href="classPlayer.html#a3617a3ad0db435176a06948065f9a3a6" target="_top" xlink:title="Assign the board pointer for the player.">
<polygon fill="white" stroke="#666666" points="478,-255 358,-255 358,-236 478,-236 478,-255"/>
<text text-anchor="middle" x="418" y="-243" font-family="Helvetica,sans-Serif" font-size="10.00">Player::set_board_ptr</text>
</a>
</g>
</g>
<!-- Node10&#45;&gt;Node13 -->
<g id="edge21_Node000010_Node000013" class="edge">
<title>Node10&#45;&gt;Node13</title>
<g id="a_edge21_Node000010_Node000013"><a xlink:title=" ">
<path fill="none" stroke="#63b8ff" d="M293.46,-246.2C310.51,-246.1 329.67,-245.99 347.72,-245.89"/>
<polygon fill="#63b8ff" stroke="#63b8ff" points="347.93,-249.39 357.91,-245.83 347.89,-242.39 347.93,-249.39"/>
</a>
</g>
</g>
</g>
</svg>
