<?xml version="1.0" encoding="UTF-8" standalone="no"?>
<!DOCTYPE svg PUBLIC "-//W3C//DTD SVG 1.1//EN"
 "http://www.w3.org/Graphics/SVG/1.1/DTD/svg11.dtd">
<!-- Generated by graphviz version 2.43.0 (0)
 -->
<!-- Title: Four_Four_XO_UI::get_move Pages: 1 -->
<svg width="318pt" height="101pt"
 viewBox="0.00 0.00 318.00 101.00" xmlns="http://www.w3.org/2000/svg" xmlns:xlink="http://www.w3.org/1999/xlink">
<g id="graph0" class="graph" transform="scale(1 1) rotate(0) translate(4 97)">
<title>Four_Four_XO_UI::get_move</title>
<!-- Node1 -->
<g id="Node000001" class="node">
<title>Node1</title>
<g id="a_Node000001"><a xlink:title="Retrieves the next move from a player.">
<polygon fill="#999999" stroke="#666666" points="153,-56 0,-56 0,-37 153,-37 153,-56"/>
<text text-anchor="middle" x="76.5" y="-44" font-family="Helvetica,sans-Serif" font-size="10.00">Four_Four_XO_UI::get_move</text>
</a>
</g>
</g>
<!-- Node2 -->
<g id="Node000002" class="node">
<title>Node2</title>
<g id="a_Node000002"><a xlink:href="classPlayer.html#a508617eddfae8915d098102d480fc888" target="_top" xlink:title="Get a pointer to the game board.">
<polygon fill="white" stroke="#666666" points="310,-93 189,-93 189,-74 310,-74 310,-93"/>
<text text-anchor="middle" x="249.5" y="-81" font-family="Helvetica,sans-Serif" font-size="10.00">Player::get_board_ptr</text>
</a>
</g>
</g>
<!-- Node1&#45;&gt;Node2 -->
<g id="edge1_Node000001_Node000002" class="edge">
<title>Node1&#45;&gt;Node2</title>
<g id="a_edge1_Node000001_Node000002"><a xlink:title=" ">
<path fill="none" stroke="#63b8ff" d="M121.54,-56.03C143.79,-60.84 170.99,-66.73 194.49,-71.81"/>
<polygon fill="#63b8ff" stroke="#63b8ff" points="193.8,-75.25 204.32,-73.94 195.28,-68.4 193.8,-75.25"/>
</a>
</g>
</g>
<!-- Node3 -->
<g id="Node000003" class="node">
<title>Node3</title>
<g id="a_Node000003"><a xlink:href="classPlayer.html#af56f0bf98c0423a3a75b0848607d03a4" target="_top" xlink:title="Get the player&#39;s symbol.">
<polygon fill="white" stroke="#666666" points="304.5,-56 194.5,-56 194.5,-37 304.5,-37 304.5,-56"/>
<text text-anchor="middle" x="249.5" y="-44" font-family="Helvetica,sans-Serif" font-size="10.00">Player::get_symbol</text>
</a>
</g>
</g>
<!-- Node1&#45;&gt;Node3 -->
<g id="edge2_Node000001_Node000003" class="edge">
<title>Node1&#45;&gt;Node3</title>
<g id="a_edge2_Node000001_Node000003"><a xlink:title=" ">
<path fill="none" stroke="#63b8ff" d="M153,-46.5C163.47,-46.5 174.14,-46.5 184.37,-46.5"/>
<polygon fill="#63b8ff" stroke="#63b8ff" points="184.44,-50 194.44,-46.5 184.44,-43 184.44,-50"/>
</a>
</g>
</g>
<!-- Node4 -->
<g id="Node000004" class="node">
<title>Node4</title>
<g id="a_Node000004"><a xlink:href="classPlayer.html#a2df3bd299bf7aecfa2275ec6902a60f8" target="_top" xlink:title="Get player type (e.g., &#39;H&#39; or &#39;C&#39;).">
<polygon fill="white" stroke="#666666" points="297.5,-19 201.5,-19 201.5,0 297.5,0 297.5,-19"/>
<text text-anchor="middle" x="249.5" y="-7" font-family="Helvetica,sans-Serif" font-size="10.00">Player::get_type</text>
</a>
</g>
</g>
<!-- Node1&#45;&gt;Node4 -->
<g id="edge3_Node000001_Node000004" class="edge">
<title>Node1&#45;&gt;Node4</title>
<g id="a_edge3_Node000001_Node000004"><a xlink:title=" ">
<path fill="none" stroke="#63b8ff" d="M121.54,-36.97C143.79,-32.16 170.99,-26.27 194.49,-21.19"/>
<polygon fill="#63b8ff" stroke="#63b8ff" points="195.28,-24.6 204.32,-19.06 193.8,-17.75 195.28,-24.6"/>
</a>
</g>
</g>
</g>
</svg>
