<?xml version="1.0" encoding="UTF-8" standalone="no"?>
<!DOCTYPE svg PUBLIC "-//W3C//DTD SVG 1.1//EN"
 "http://www.w3.org/Graphics/SVG/1.1/DTD/svg11.dtd">
<!-- Generated by graphviz version 2.43.0 (0)
 -->
<!-- Title: Four_in_a_row_Board::game_is_over Pages: 1 -->
<svg width="586pt" height="60pt"
 viewBox="0.00 0.00 586.00 60.00" xmlns="http://www.w3.org/2000/svg" xmlns:xlink="http://www.w3.org/1999/xlink">
<g id="graph0" class="graph" transform="scale(1 1) rotate(0) translate(4 56)">
<title>Four_in_a_row_Board::game_is_over</title>
<!-- Node1 -->
<g id="Node000001" class="node">
<title>Node1</title>
<g id="a_Node000001"><a xlink:title="Determines if the game is over (win or draw).">
<polygon fill="#999999" stroke="#666666" points="120,-30 0,-30 0,0 120,0 120,-30"/>
<text text-anchor="start" x="8" y="-18" font-family="Helvetica,sans-Serif" font-size="10.00">Four_in_a_row_Board</text>
<text text-anchor="middle" x="60" y="-7" font-family="Helvetica,sans-Serif" font-size="10.00">::game_is_over</text>
</a>
</g>
</g>
<!-- Node2 -->
<g id="Node000002" class="node">
<title>Node2</title>
<g id="a_Node000002"><a xlink:href="classFour__in__a__row__Board.html#af4475a3ab1b31be663a75ed367f089aa" target="_top" xlink:title="Checks if the game has ended in a draw.">
<polygon fill="white" stroke="#666666" points="276,-52 156,-52 156,-22 276,-22 276,-52"/>
<text text-anchor="start" x="164" y="-40" font-family="Helvetica,sans-Serif" font-size="10.00">Four_in_a_row_Board</text>
<text text-anchor="middle" x="216" y="-29" font-family="Helvetica,sans-Serif" font-size="10.00">::is_draw</text>
</a>
</g>
</g>
<!-- Node1&#45;&gt;Node2 -->
<g id="edge1_Node000001_Node000002" class="edge">
<title>Node1&#45;&gt;Node2</title>
<g id="a_edge1_Node000001_Node000002"><a xlink:title=" ">
<path fill="none" stroke="#63b8ff" d="M120.1,-23.44C128.51,-24.64 137.23,-25.89 145.81,-27.12"/>
<polygon fill="#63b8ff" stroke="#63b8ff" points="145.41,-30.59 155.8,-28.54 146.4,-23.66 145.41,-30.59"/>
</a>
</g>
</g>
<!-- Node3 -->
<g id="Node000003" class="node">
<title>Node3</title>
<g id="a_Node000003"><a xlink:href="classFour__in__a__row__Board.html#a10a2305f75eff7f01fdc1eb6f1541cbb" target="_top" xlink:title="Checks if the given player has won the game.">
<polygon fill="white" stroke="#666666" points="432,-30 312,-30 312,0 432,0 432,-30"/>
<text text-anchor="start" x="320" y="-18" font-family="Helvetica,sans-Serif" font-size="10.00">Four_in_a_row_Board</text>
<text text-anchor="middle" x="372" y="-7" font-family="Helvetica,sans-Serif" font-size="10.00">::is_win</text>
</a>
</g>
</g>
<!-- Node1&#45;&gt;Node3 -->
<g id="edge4_Node000001_Node000003" class="edge">
<title>Node1&#45;&gt;Node3</title>
<g id="a_edge4_Node000001_Node000003"><a xlink:title=" ">
<path fill="none" stroke="#63b8ff" d="M120.04,-13.56C131.94,-13.33 144.37,-13.12 156,-13 209.33,-12.44 222.67,-12.44 276,-13 284.36,-13.09 293.13,-13.22 301.82,-13.37"/>
<polygon fill="#63b8ff" stroke="#63b8ff" points="301.9,-16.88 311.96,-13.56 302.03,-9.88 301.9,-16.88"/>
</a>
</g>
</g>
<!-- Node2&#45;&gt;Node3 -->
<g id="edge2_Node000002_Node000003" class="edge">
<title>Node2&#45;&gt;Node3</title>
<g id="a_edge2_Node000002_Node000003"><a xlink:title=" ">
<path fill="none" stroke="#63b8ff" d="M276.1,-28.56C284.51,-27.36 293.23,-26.11 301.81,-24.88"/>
<polygon fill="#63b8ff" stroke="#63b8ff" points="302.4,-28.34 311.8,-23.46 301.41,-21.41 302.4,-28.34"/>
</a>
</g>
</g>
<!-- Node4 -->
<g id="Node000004" class="node">
<title>Node4</title>
<g id="a_Node000004"><a xlink:href="classPlayer.html#af56f0bf98c0423a3a75b0848607d03a4" target="_top" xlink:title="Get the player&#39;s symbol.">
<polygon fill="white" stroke="#666666" points="578,-24.5 468,-24.5 468,-5.5 578,-5.5 578,-24.5"/>
<text text-anchor="middle" x="523" y="-12.5" font-family="Helvetica,sans-Serif" font-size="10.00">Player::get_symbol</text>
</a>
</g>
</g>
<!-- Node3&#45;&gt;Node4 -->
<g id="edge3_Node000003_Node000004" class="edge">
<title>Node3&#45;&gt;Node4</title>
<g id="a_edge3_Node000003_Node000004"><a xlink:title=" ">
<path fill="none" stroke="#63b8ff" d="M432.32,-15C440.63,-15 449.2,-15 457.59,-15"/>
<polygon fill="#63b8ff" stroke="#63b8ff" points="457.72,-18.5 467.72,-15 457.72,-11.5 457.72,-18.5"/>
</a>
</g>
</g>
</g>
</svg>
