<?xml version="1.0" encoding="UTF-8" standalone="no"?>
<!DOCTYPE svg PUBLIC "-//W3C//DTD SVG 1.1//EN"
 "http://www.w3.org/Graphics/SVG/1.1/DTD/svg11.dtd">
<!-- Generated by graphviz version 2.43.0 (0)
 -->
<!-- Title: Numerical_X_O_Board::is_win Pages: 1 -->
<svg width="455pt" height="59pt"
 viewBox="0.00 0.00 455.00 59.00" xmlns="http://www.w3.org/2000/svg" xmlns:xlink="http://www.w3.org/1999/xlink">
<g id="graph0" class="graph" transform="scale(1 1) rotate(0) translate(4 55)">
<title>Numerical_X_O_Board::is_win</title>
<!-- Node1 -->
<g id="Node000001" class="node">
<title>Node1</title>
<g id="a_Node000001"><a xlink:title="Check if a player has won.">
<polygon fill="#999999" stroke="#666666" points="447,-51 322,-51 322,-21 447,-21 447,-51"/>
<text text-anchor="start" x="330" y="-39" font-family="Helvetica,sans-Serif" font-size="10.00">Numerical_X_O_Board</text>
<text text-anchor="middle" x="384.5" y="-28" font-family="Helvetica,sans-Serif" font-size="10.00">::is_win</text>
</a>
</g>
</g>
<!-- Node2 -->
<g id="Node000002" class="node">
<title>Node2</title>
<g id="a_Node000002"><a xlink:href="classNumerical__X__O__Board.html#a4dbd494c6fca2beea04c4180d3d322e9" target="_top" xlink:title="Check if the game is over.">
<polygon fill="white" stroke="#666666" points="125,-51 0,-51 0,-21 125,-21 125,-51"/>
<text text-anchor="start" x="8" y="-39" font-family="Helvetica,sans-Serif" font-size="10.00">Numerical_X_O_Board</text>
<text text-anchor="middle" x="62.5" y="-28" font-family="Helvetica,sans-Serif" font-size="10.00">::game_is_over</text>
</a>
</g>
</g>
<!-- Node1&#45;&gt;Node2 -->
<g id="edge1_Node000001_Node000002" class="edge">
<title>Node1&#45;&gt;Node2</title>
<g id="a_edge1_Node000001_Node000002"><a xlink:title=" ">
<path fill="none" stroke="#63b8ff" d="M311.75,-38.46C303.07,-38.68 294.34,-38.87 286,-39 230.45,-39.85 216.55,-39.85 161,-39 149.4,-38.82 137.03,-38.52 125.13,-38.18"/>
<polygon fill="#63b8ff" stroke="#63b8ff" points="311.97,-41.95 321.87,-38.18 311.78,-34.96 311.97,-41.95"/>
</a>
</g>
</g>
<!-- Node3 -->
<g id="Node000003" class="node">
<title>Node3</title>
<g id="a_Node000003"><a xlink:href="classNumerical__X__O__Board.html#a2d3ee20a3d8e9b2e001649ce85d3a515" target="_top" xlink:title="Check if the game ended in a draw.">
<polygon fill="white" stroke="#666666" points="286,-30 161,-30 161,0 286,0 286,-30"/>
<text text-anchor="start" x="169" y="-18" font-family="Helvetica,sans-Serif" font-size="10.00">Numerical_X_O_Board</text>
<text text-anchor="middle" x="223.5" y="-7" font-family="Helvetica,sans-Serif" font-size="10.00">::is_draw</text>
</a>
</g>
</g>
<!-- Node1&#45;&gt;Node3 -->
<g id="edge2_Node000001_Node000003" class="edge">
<title>Node1&#45;&gt;Node3</title>
<g id="a_edge2_Node000001_Node000003"><a xlink:title=" ">
<path fill="none" stroke="#63b8ff" d="M311.41,-26.48C303.01,-25.37 294.5,-24.25 286.26,-23.16"/>
<polygon fill="#63b8ff" stroke="#63b8ff" points="311.2,-29.98 321.57,-27.82 312.12,-23.04 311.2,-29.98"/>
</a>
</g>
</g>
<!-- Node3&#45;&gt;Node2 -->
<g id="edge3_Node000003_Node000002" class="edge">
<title>Node3&#45;&gt;Node2</title>
<g id="a_edge3_Node000003_Node000002"><a xlink:title=" ">
<path fill="none" stroke="#63b8ff" d="M150.41,-24.52C142.01,-25.63 133.5,-26.75 125.26,-27.84"/>
<polygon fill="#63b8ff" stroke="#63b8ff" points="151.12,-27.96 160.57,-23.18 150.2,-21.02 151.12,-27.96"/>
</a>
</g>
</g>
</g>
</svg>
