<?xml version="1.0" encoding="UTF-8" standalone="no"?>
<!DOCTYPE svg PUBLIC "-//W3C//DTD SVG 1.1//EN"
 "http://www.w3.org/Graphics/SVG/1.1/DTD/svg11.dtd">
<!-- Generated by graphviz version 2.43.0 (0)
 -->
<!-- Title: Word_XO_Board::is_win Pages: 1 -->
<svg width="448pt" height="64pt"
 viewBox="0.00 0.00 448.00 64.00" xmlns="http://www.w3.org/2000/svg" xmlns:xlink="http://www.w3.org/1999/xlink">
<g id="graph0" class="graph" transform="scale(1 1) rotate(0) translate(4 60)">
<title>Word_XO_Board::is_win</title>
<!-- Node1 -->
<g id="Node000001" class="node">
<title>Node1</title>
<g id="a_Node000001"><a xlink:title="Checks if the given player has won the game.">
<polygon fill="#999999" stroke="#666666" points="131,-37 0,-37 0,-18 131,-18 131,-37"/>
<text text-anchor="middle" x="65.5" y="-25" font-family="Helvetica,sans-Serif" font-size="10.00">Word_XO_Board::is_win</text>
</a>
</g>
</g>
<!-- Node2 -->
<g id="Node000002" class="node">
<title>Node2</title>
<g id="a_Node000002"><a xlink:href="Words__XO_8cpp.html#a647f8969a15d4c17a2317ee247d62223" target="_top" xlink:title=" ">
<polygon fill="white" stroke="#666666" points="260,-56 184,-56 184,-37 260,-37 260,-56"/>
<text text-anchor="middle" x="222" y="-44" font-family="Helvetica,sans-Serif" font-size="10.00">Check_word</text>
</a>
</g>
</g>
<!-- Node1&#45;&gt;Node2 -->
<g id="edge1_Node000001_Node000002" class="edge">
<title>Node1&#45;&gt;Node2</title>
<g id="a_edge1_Node000001_Node000002"><a xlink:title=" ">
<path fill="none" stroke="#63b8ff" d="M131.13,-35.45C145.49,-37.21 160.45,-39.05 173.96,-40.71"/>
<polygon fill="#63b8ff" stroke="#63b8ff" points="173.61,-44.2 183.96,-41.95 174.46,-37.25 173.61,-44.2"/>
</a>
</g>
</g>
<!-- Node4 -->
<g id="Node000004" class="node">
<title>Node4</title>
<g id="a_Node000004"><a xlink:href="classPlayer.html#af56f0bf98c0423a3a75b0848607d03a4" target="_top" xlink:title="Get the player&#39;s symbol.">
<polygon fill="white" stroke="#666666" points="277,-19 167,-19 167,0 277,0 277,-19"/>
<text text-anchor="middle" x="222" y="-7" font-family="Helvetica,sans-Serif" font-size="10.00">Player::get_symbol</text>
</a>
</g>
</g>
<!-- Node1&#45;&gt;Node4 -->
<g id="edge3_Node000001_Node000004" class="edge">
<title>Node1&#45;&gt;Node4</title>
<g id="a_edge3_Node000001_Node000004"><a xlink:title=" ">
<path fill="none" stroke="#63b8ff" d="M131.13,-19.97C139.59,-18.98 148.27,-17.97 156.72,-16.99"/>
<polygon fill="#63b8ff" stroke="#63b8ff" points="157.38,-20.44 166.91,-15.8 156.57,-13.48 157.38,-20.44"/>
</a>
</g>
</g>
<!-- Node3 -->
<g id="Node000003" class="node">
<title>Node3</title>
<g id="a_Node000003"><a xlink:href="Words__XO_8cpp.html#ab65af4b7592bc63ebf5a2b8644511c14" target="_top" xlink:title=" ">
<polygon fill="white" stroke="#666666" points="440,-56 313,-56 313,-37 440,-37 440,-56"/>
<text text-anchor="middle" x="376.5" y="-44" font-family="Helvetica,sans-Serif" font-size="10.00">load_global_dictionary</text>
</a>
</g>
</g>
<!-- Node2&#45;&gt;Node3 -->
<g id="edge2_Node000002_Node000003" class="edge">
<title>Node2&#45;&gt;Node3</title>
<g id="a_edge2_Node000002_Node000003"><a xlink:title=" ">
<path fill="none" stroke="#63b8ff" d="M260.31,-46.5C273.13,-46.5 287.96,-46.5 302.63,-46.5"/>
<polygon fill="#63b8ff" stroke="#63b8ff" points="302.73,-50 312.73,-46.5 302.73,-43 302.73,-50"/>
</a>
</g>
</g>
</g>
</svg>
