<?xml version="1.0" encoding="UTF-8" standalone="no"?>
<!DOCTYPE svg PUBLIC "-//W3C//DTD SVG 1.1//EN"
 "http://www.w3.org/Graphics/SVG/1.1/DTD/svg11.dtd">
<!-- Generated by graphviz version 2.43.0 (0)
 -->
<!-- Title: smartPlayer2::is_draw Pages: 1 -->
<svg width="495pt" height="45pt"
 viewBox="0.00 0.00 495.00 45.00" xmlns="http://www.w3.org/2000/svg" xmlns:xlink="http://www.w3.org/1999/xlink">
<g id="graph0" class="graph" transform="scale(1 1) rotate(0) translate(4 41)">
<title>smartPlayer2::is_draw</title>
<!-- Node1 -->
<g id="Node000001" class="node">
<title>Node1</title>
<g id="a_Node000001"><a xlink:title=" ">
<polygon fill="#999999" stroke="#666666" points="487,-19 362,-19 362,0 487,0 487,-19"/>
<text text-anchor="middle" x="424.5" y="-7" font-family="Helvetica,sans-Serif" font-size="10.00">smartPlayer2::is_draw</text>
</a>
</g>
</g>
<!-- Node2 -->
<g id="Node000002" class="node">
<title>Node2</title>
<g id="a_Node000002"><a xlink:href="classsmartPlayer2.html#a8212944143d4baa2e7b05bca584a0e77" target="_top" xlink:title=" ">
<polygon fill="white" stroke="#666666" points="326,-19 195,-19 195,0 326,0 326,-19"/>
<text text-anchor="middle" x="260.5" y="-7" font-family="Helvetica,sans-Serif" font-size="10.00">smartPlayer2::minimax</text>
</a>
</g>
</g>
<!-- Node1&#45;&gt;Node2 -->
<g id="edge1_Node000001_Node000002" class="edge">
<title>Node1&#45;&gt;Node2</title>
<g id="a_edge1_Node000001_Node000002"><a xlink:title=" ">
<path fill="none" stroke="#63b8ff" d="M351.6,-9.5C343.16,-9.5 334.6,-9.5 326.27,-9.5"/>
<polygon fill="#63b8ff" stroke="#63b8ff" points="351.79,-13 361.79,-9.5 351.79,-6 351.79,-13"/>
</a>
</g>
</g>
<!-- Node2&#45;&gt;Node2 -->
<g id="edge3_Node000002_Node000002" class="edge">
<title>Node2&#45;&gt;Node2</title>
<g id="a_edge3_Node000002_Node000002"><a xlink:title=" ">
<path fill="none" stroke="#63b8ff" d="M291.11,-27.82C289.83,-33.01 279.63,-37 260.5,-37 231.35,-37 222.93,-27.73 235.22,-19.08"/>
<polygon fill="#63b8ff" stroke="#63b8ff" points="293.98,-25.79 285.78,-19.08 288,-29.44 293.98,-25.79"/>
</a>
</g>
</g>
<!-- Node3 -->
<g id="Node000003" class="node">
<title>Node3</title>
<g id="a_Node000003"><a xlink:href="classsmartPlayer2.html#af51ff0c3115f5dc34fce64958c52beb2" target="_top" xlink:title=" ">
<polygon fill="white" stroke="#666666" points="159,-19 0,-19 0,0 159,0 159,-19"/>
<text text-anchor="middle" x="79.5" y="-7" font-family="Helvetica,sans-Serif" font-size="10.00">smartPlayer2::calculateMove</text>
</a>
</g>
</g>
<!-- Node2&#45;&gt;Node3 -->
<g id="edge2_Node000002_Node000003" class="edge">
<title>Node2&#45;&gt;Node3</title>
<g id="a_edge2_Node000002_Node000003"><a xlink:title=" ">
<path fill="none" stroke="#63b8ff" d="M184.67,-9.5C176.22,-9.5 167.58,-9.5 159.08,-9.5"/>
<polygon fill="#63b8ff" stroke="#63b8ff" points="184.88,-13 194.88,-9.5 184.88,-6 184.88,-13"/>
</a>
</g>
</g>
</g>
</svg>
