<?xml version="1.0" encoding="UTF-8" standalone="no"?>
<!DOCTYPE svg PUBLIC "-//W3C//DTD SVG 1.1//EN"
 "http://www.w3.org/Graphics/SVG/1.1/DTD/svg11.dtd">
<!-- Generated by graphviz version 2.43.0 (0)
 -->
<!-- Title: AIPlayer::get_opponent_symbol Pages: 1 -->
<svg width="594pt" height="105pt"
 viewBox="0.00 0.00 594.00 104.50" xmlns="http://www.w3.org/2000/svg" xmlns:xlink="http://www.w3.org/1999/xlink">
<g id="graph0" class="graph" transform="scale(1 1) rotate(0) translate(4 100.5)">
<title>AIPlayer::get_opponent_symbol</title>
<!-- Node1 -->
<g id="Node000001" class="node">
<title>Node1</title>
<g id="a_Node000001"><a xlink:title="Get the opponent&#39;s symbol.">
<polygon fill="#999999" stroke="#666666" points="586,-96.5 456,-96.5 456,-66.5 586,-66.5 586,-96.5"/>
<text text-anchor="start" x="464" y="-84.5" font-family="Helvetica,sans-Serif" font-size="10.00">AIPlayer::get_opponent</text>
<text text-anchor="middle" x="521" y="-73.5" font-family="Helvetica,sans-Serif" font-size="10.00">_symbol</text>
</a>
</g>
</g>
<!-- Node2 -->
<g id="Node000002" class="node">
<title>Node2</title>
<g id="a_Node000002"><a xlink:href="classAIPlayer.html#a962dc21adb2a91029e4d903e701c191a" target="_top" xlink:title="Calculate and return the best move using minimax algorithm.">
<polygon fill="white" stroke="#666666" points="134,-75 0,-75 0,-56 134,-56 134,-75"/>
<text text-anchor="middle" x="67" y="-63" font-family="Helvetica,sans-Serif" font-size="10.00">AIPlayer::calculateMove</text>
</a>
</g>
</g>
<!-- Node1&#45;&gt;Node2 -->
<g id="edge1_Node000001_Node000002" class="edge">
<title>Node1&#45;&gt;Node2</title>
<g id="a_edge1_Node000001_Node000002"><a xlink:title=" ">
<path fill="none" stroke="#63b8ff" d="M445.82,-83.97C437.12,-84.19 428.36,-84.37 420,-84.5 308.84,-86.17 280.8,-85.57 170,-76.5 158.37,-75.55 146.02,-74.36 134.07,-73.13"/>
<polygon fill="#63b8ff" stroke="#63b8ff" points="446.09,-87.47 455.99,-83.71 445.9,-80.47 446.09,-87.47"/>
</a>
</g>
</g>
<!-- Node3 -->
<g id="Node000003" class="node">
<title>Node3</title>
<g id="a_Node000003"><a xlink:href="classAIPlayer.html#ab26d7531433c20c1616ec836a7fb5cce" target="_top" xlink:title="Generate possible move values for a given position.">
<polygon fill="white" stroke="#666666" points="420,-75.5 313,-75.5 313,-45.5 420,-45.5 420,-75.5"/>
<text text-anchor="start" x="321" y="-63.5" font-family="Helvetica,sans-Serif" font-size="10.00">AIPlayer::generate</text>
<text text-anchor="middle" x="366.5" y="-52.5" font-family="Helvetica,sans-Serif" font-size="10.00">_move_values</text>
</a>
</g>
</g>
<!-- Node1&#45;&gt;Node3 -->
<g id="edge2_Node000001_Node000003" class="edge">
<title>Node1&#45;&gt;Node3</title>
<g id="a_edge2_Node000001_Node000003"><a xlink:title=" ">
<path fill="none" stroke="#63b8ff" d="M445.67,-71.26C437.04,-70.08 428.37,-68.88 420.11,-67.74"/>
<polygon fill="#63b8ff" stroke="#63b8ff" points="445.38,-74.76 455.77,-72.65 446.34,-67.82 445.38,-74.76"/>
</a>
</g>
</g>
<!-- Node3&#45;&gt;Node2 -->
<g id="edge3_Node000003_Node000002" class="edge">
<title>Node3&#45;&gt;Node2</title>
<g id="a_edge3_Node000003_Node000002"><a xlink:title=" ">
<path fill="none" stroke="#63b8ff" d="M302.74,-61.55C253.23,-62.39 184.37,-63.54 134.03,-64.39"/>
<polygon fill="#63b8ff" stroke="#63b8ff" points="303.06,-65.05 313,-61.38 302.94,-58.05 303.06,-65.05"/>
</a>
</g>
</g>
<!-- Node4 -->
<g id="Node000004" class="node">
<title>Node4</title>
<g id="a_Node000004"><a xlink:href="classAIPlayer.html#a4c0c158048dc4b7fabb54dafc9fd0659" target="_top" xlink:title="Minimax algorithm with alpha&#45;beta pruning.">
<polygon fill="white" stroke="#666666" points="277,-19 170,-19 170,0 277,0 277,-19"/>
<text text-anchor="middle" x="223.5" y="-7" font-family="Helvetica,sans-Serif" font-size="10.00">AIPlayer::minimax</text>
</a>
</g>
</g>
<!-- Node3&#45;&gt;Node4 -->
<g id="edge4_Node000003_Node000004" class="edge">
<title>Node3&#45;&gt;Node4</title>
<g id="a_edge4_Node000003_Node000004"><a xlink:title=" ">
<path fill="none" stroke="#63b8ff" d="M314.33,-41.99C292.9,-34.24 268.89,-25.56 251.09,-19.12"/>
<polygon fill="#63b8ff" stroke="#63b8ff" points="313.36,-45.36 323.96,-45.47 315.74,-38.78 313.36,-45.36"/>
</a>
</g>
</g>
<!-- Node4&#45;&gt;Node2 -->
<g id="edge5_Node000004_Node000002" class="edge">
<title>Node4&#45;&gt;Node2</title>
<g id="a_edge5_Node000004_Node000002"><a xlink:title=" ">
<path fill="none" stroke="#63b8ff" d="M186.42,-22.58C158.18,-32.81 119.56,-46.81 94.21,-56"/>
<polygon fill="#63b8ff" stroke="#63b8ff" points="187.73,-25.82 195.94,-19.13 185.35,-19.24 187.73,-25.82"/>
</a>
</g>
</g>
<!-- Node4&#45;&gt;Node4 -->
<g id="edge6_Node000004_Node000004" class="edge">
<title>Node4&#45;&gt;Node4</title>
<g id="a_edge6_Node000004_Node000004"><a xlink:title=" ">
<path fill="none" stroke="#63b8ff" d="M249.91,-28.19C248.47,-33.2 239.67,-37 223.5,-37 198.26,-37 190.97,-27.73 201.61,-19.08"/>
<polygon fill="#63b8ff" stroke="#63b8ff" points="252.97,-26.48 245.39,-19.08 246.7,-29.6 252.97,-26.48"/>
</a>
</g>
</g>
</g>
</svg>
