<?xml version="1.0" encoding="UTF-8" standalone="no"?>
<!DOCTYPE svg PUBLIC "-//W3C//DTD SVG 1.1//EN"
 "http://www.w3.org/Graphics/SVG/1.1/DTD/svg11.dtd">
<!-- Generated by graphviz version 2.43.0 (0)
 -->
<!-- Title: Obstacles_XO_Board::is_win Pages: 1 -->
<svg width="431pt" height="59pt"
 viewBox="0.00 0.00 431.00 59.00" xmlns="http://www.w3.org/2000/svg" xmlns:xlink="http://www.w3.org/1999/xlink">
<g id="graph0" class="graph" transform="scale(1 1) rotate(0) translate(4 55)">
<title>Obstacles_XO_Board::is_win</title>
<!-- Node1 -->
<g id="Node000001" class="node">
<title>Node1</title>
<g id="a_Node000001"><a xlink:title="Checks if the given player has won the game.">
<polygon fill="#999999" stroke="#666666" points="423,-51 306,-51 306,-21 423,-21 423,-51"/>
<text text-anchor="start" x="314" y="-39" font-family="Helvetica,sans-Serif" font-size="10.00">Obstacles_XO_Board</text>
<text text-anchor="middle" x="364.5" y="-28" font-family="Helvetica,sans-Serif" font-size="10.00">::is_win</text>
</a>
</g>
</g>
<!-- Node2 -->
<g id="Node000002" class="node">
<title>Node2</title>
<g id="a_Node000002"><a xlink:href="classObstacles__XO__Board.html#a2679a478c779c15846b232de888342aa" target="_top" xlink:title="Determines if the game is over (win or draw).">
<polygon fill="white" stroke="#666666" points="117,-51 0,-51 0,-21 117,-21 117,-51"/>
<text text-anchor="start" x="8" y="-39" font-family="Helvetica,sans-Serif" font-size="10.00">Obstacles_XO_Board</text>
<text text-anchor="middle" x="58.5" y="-28" font-family="Helvetica,sans-Serif" font-size="10.00">::game_is_over</text>
</a>
</g>
</g>
<!-- Node1&#45;&gt;Node2 -->
<g id="edge1_Node000001_Node000002" class="edge">
<title>Node1&#45;&gt;Node2</title>
<g id="a_edge1_Node000001_Node000002"><a xlink:title=" ">
<path fill="none" stroke="#63b8ff" d="M295.6,-38.43C286.99,-38.67 278.29,-38.87 270,-39 218.01,-39.83 204.99,-39.83 153,-39 141.47,-38.82 129.14,-38.5 117.35,-38.15"/>
<polygon fill="#63b8ff" stroke="#63b8ff" points="295.75,-41.93 305.65,-38.15 295.55,-34.93 295.75,-41.93"/>
</a>
</g>
</g>
<!-- Node3 -->
<g id="Node000003" class="node">
<title>Node3</title>
<g id="a_Node000003"><a xlink:href="classObstacles__XO__Board.html#acca6c3d042f40540ec89f4119a8d809f" target="_top" xlink:title="Checks if the game has ended in a draw.">
<polygon fill="white" stroke="#666666" points="270,-30 153,-30 153,0 270,0 270,-30"/>
<text text-anchor="start" x="161" y="-18" font-family="Helvetica,sans-Serif" font-size="10.00">Obstacles_XO_Board</text>
<text text-anchor="middle" x="211.5" y="-7" font-family="Helvetica,sans-Serif" font-size="10.00">::is_draw</text>
</a>
</g>
</g>
<!-- Node1&#45;&gt;Node3 -->
<g id="edge2_Node000001_Node000003" class="edge">
<title>Node1&#45;&gt;Node3</title>
<g id="a_edge2_Node000001_Node000003"><a xlink:title=" ">
<path fill="none" stroke="#63b8ff" d="M295.95,-26.61C287.32,-25.41 278.56,-24.19 270.11,-23.01"/>
<polygon fill="#63b8ff" stroke="#63b8ff" points="295.6,-30.09 305.98,-28 296.56,-23.16 295.6,-30.09"/>
</a>
</g>
</g>
<!-- Node3&#45;&gt;Node2 -->
<g id="edge3_Node000003_Node000002" class="edge">
<title>Node3&#45;&gt;Node2</title>
<g id="a_edge3_Node000003_Node000002"><a xlink:title=" ">
<path fill="none" stroke="#63b8ff" d="M142.95,-24.39C134.32,-25.59 125.56,-26.81 117.11,-27.99"/>
<polygon fill="#63b8ff" stroke="#63b8ff" points="143.56,-27.84 152.98,-23 142.6,-20.91 143.56,-27.84"/>
</a>
</g>
</g>
</g>
</svg>
