<?xml version="1.0" encoding="UTF-8" standalone="no"?>
<!DOCTYPE svg PUBLIC "-//W3C//DTD SVG 1.1//EN"
 "http://www.w3.org/Graphics/SVG/1.1/DTD/svg11.dtd">
<!-- Generated by graphviz version 2.43.0 (0)
 -->
<!-- Title: SUS_UI::setup_players Pages: 1 -->
<svg width="298pt" height="76pt"
 viewBox="0.00 0.00 298.00 75.50" xmlns="http://www.w3.org/2000/svg" xmlns:xlink="http://www.w3.org/1999/xlink">
<g id="graph0" class="graph" transform="scale(1 1) rotate(0) translate(4 71.5)">
<title>SUS_UI::setup_players</title>
<!-- Node1 -->
<g id="Node000001" class="node">
<title>Node1</title>
<g id="a_Node000001"><a xlink:title="Set up players for the game.">
<polygon fill="#999999" stroke="#666666" points="126,-45.5 0,-45.5 0,-26.5 126,-26.5 126,-45.5"/>
<text text-anchor="middle" x="63" y="-33.5" font-family="Helvetica,sans-Serif" font-size="10.00">SUS_UI::setup_players</text>
</a>
</g>
</g>
<!-- Node2 -->
<g id="Node000002" class="node">
<title>Node2</title>
<g id="a_Node000002"><a xlink:href="classSUS__UI.html#a03be65e7b3ef9d336bb5078cd7b604a8" target="_top" xlink:title="Creates a player of the specified type.">
<polygon fill="white" stroke="#666666" points="288.5,-67.5 163.5,-67.5 163.5,-48.5 288.5,-48.5 288.5,-67.5"/>
<text text-anchor="middle" x="226" y="-55.5" font-family="Helvetica,sans-Serif" font-size="10.00">SUS_UI::create_player</text>
</a>
</g>
</g>
<!-- Node1&#45;&gt;Node2 -->
<g id="edge1_Node000001_Node000002" class="edge">
<title>Node1&#45;&gt;Node2</title>
<g id="a_edge1_Node000001_Node000002"><a xlink:title=" ">
<path fill="none" stroke="#63b8ff" d="M126.25,-44.51C135.12,-45.72 144.3,-46.97 153.34,-48.21"/>
<polygon fill="#63b8ff" stroke="#63b8ff" points="153.07,-51.7 163.45,-49.59 154.02,-44.77 153.07,-51.7"/>
</a>
</g>
</g>
<!-- Node3 -->
<g id="Node000003" class="node">
<title>Node3</title>
<g id="a_Node000003"><a xlink:href="classUI.html#ac3d45fea2bbcaa0372d8e5101e116ca1" target="_top" xlink:title="Ask the user to choose the player type from a list.">
<polygon fill="white" stroke="#666666" points="290,-30 162,-30 162,0 290,0 290,-30"/>
<text text-anchor="start" x="170" y="-18" font-family="Helvetica,sans-Serif" font-size="10.00">UI&lt; char &gt;::get_player</text>
<text text-anchor="middle" x="226" y="-7" font-family="Helvetica,sans-Serif" font-size="10.00">_type_choice</text>
</a>
</g>
</g>
<!-- Node1&#45;&gt;Node3 -->
<g id="edge2_Node000001_Node000003" class="edge">
<title>Node1&#45;&gt;Node3</title>
<g id="a_edge2_Node000001_Node000003"><a xlink:title=" ">
<path fill="none" stroke="#63b8ff" d="M126.25,-27.88C134.64,-26.79 143.32,-25.65 151.88,-24.54"/>
<polygon fill="#63b8ff" stroke="#63b8ff" points="152.39,-28 161.86,-23.24 151.49,-21.06 152.39,-28"/>
</a>
</g>
</g>
</g>
</svg>
