<?xml version="1.0" encoding="UTF-8" standalone="no"?>
<!DOCTYPE svg PUBLIC "-//W3C//DTD SVG 1.1//EN"
 "http://www.w3.org/Graphics/SVG/1.1/DTD/svg11.dtd">
<!-- Generated by graphviz version 2.43.0 (0)
 -->
<!-- Title: Player::get_board_ptr Pages: 1 -->
<svg width="321pt" height="261pt"
 viewBox="0.00 0.00 321.00 261.00" xmlns="http://www.w3.org/2000/svg" xmlns:xlink="http://www.w3.org/1999/xlink">
<g id="graph0" class="graph" transform="scale(1 1) rotate(0) translate(4 257)">
<title>Player::get_board_ptr</title>
<!-- Node1 -->
<g id="Node000001" class="node">
<title>Node1</title>
<g id="a_Node000001"><a xlink:title="Get a pointer to the game board.">
<polygon fill="#999999" stroke="#666666" points="313,-130 192,-130 192,-111 313,-111 313,-130"/>
<text text-anchor="middle" x="252.5" y="-118" font-family="Helvetica,sans-Serif" font-size="10.00">Player::get_board_ptr</text>
</a>
</g>
</g>
<!-- Node2 -->
<g id="Node000002" class="node">
<title>Node2</title>
<g id="a_Node000002"><a xlink:href="classFour__Four__XO__UI.html#a462e22aa01d930bda7449c759f36c86f" target="_top" xlink:title="Retrieves the next move from a player.">
<polygon fill="white" stroke="#666666" points="154.5,-253 1.5,-253 1.5,-234 154.5,-234 154.5,-253"/>
<text text-anchor="middle" x="78" y="-241" font-family="Helvetica,sans-Serif" font-size="10.00">Four_Four_XO_UI::get_move</text>
</a>
</g>
</g>
<!-- Node1&#45;&gt;Node2 -->
<g id="edge1_Node000001_Node000002" class="edge">
<title>Node1&#45;&gt;Node2</title>
<g id="a_edge1_Node000001_Node000002"><a xlink:title=" ">
<path fill="none" stroke="#63b8ff" d="M240.22,-138.55C224.4,-162.29 193.32,-203.57 156,-225.5 150.2,-228.91 143.8,-231.67 137.24,-233.91"/>
<polygon fill="#63b8ff" stroke="#63b8ff" points="243.19,-140.4 245.69,-130.1 237.32,-136.59 243.19,-140.4"/>
</a>
</g>
</g>
<!-- Node3 -->
<g id="Node000003" class="node">
<title>Node3</title>
<g id="a_Node000003"><a xlink:href="classInfinit__XO__UI.html#a01e2ad782bacda8c2f7cff214617b54c" target="_top" xlink:title="Retrieves the next move from a player.">
<polygon fill="white" stroke="#666666" points="145,-216 11,-216 11,-197 145,-197 145,-216"/>
<text text-anchor="middle" x="78" y="-204" font-family="Helvetica,sans-Serif" font-size="10.00">Infinit_XO_UI::get_move</text>
</a>
</g>
</g>
<!-- Node1&#45;&gt;Node3 -->
<g id="edge2_Node000001_Node000003" class="edge">
<title>Node1&#45;&gt;Node3</title>
<g id="a_edge2_Node000001_Node000003"><a xlink:title=" ">
<path fill="none" stroke="#63b8ff" d="M232.48,-137.08C214.08,-152.29 184.84,-174.39 156,-187.5 147.6,-191.32 138.33,-194.44 129.21,-196.97"/>
<polygon fill="#63b8ff" stroke="#63b8ff" points="235.2,-139.36 240.59,-130.23 230.69,-134.01 235.2,-139.36"/>
</a>
</g>
</g>
<!-- Node4 -->
<g id="Node000004" class="node">
<title>Node4</title>
<g id="a_Node000004"><a xlink:href="classMisere__Tic__Tac__Toe__UI.html#a13c2f356fe79f87ed9bce9ca4efadb68" target="_top" xlink:title="Retrieves the next move from a player.">
<polygon fill="white" stroke="#666666" points="134,-178.5 22,-178.5 22,-148.5 134,-148.5 134,-178.5"/>
<text text-anchor="start" x="30" y="-166.5" font-family="Helvetica,sans-Serif" font-size="10.00">Misere_Tic_Tac_Toe</text>
<text text-anchor="middle" x="78" y="-155.5" font-family="Helvetica,sans-Serif" font-size="10.00">_UI::get_move</text>
</a>
</g>
</g>
<!-- Node1&#45;&gt;Node4 -->
<g id="edge3_Node000001_Node000004" class="edge">
<title>Node1&#45;&gt;Node4</title>
<g id="a_edge3_Node000001_Node000004"><a xlink:title=" ">
<path fill="none" stroke="#63b8ff" d="M203.34,-132.51C181.86,-137.86 156.44,-144.2 134.2,-149.74"/>
<polygon fill="#63b8ff" stroke="#63b8ff" points="204.36,-135.86 213.22,-130.04 202.67,-129.07 204.36,-135.86"/>
</a>
</g>
</g>
<!-- Node5 -->
<g id="Node000005" class="node">
<title>Node5</title>
<g id="a_Node000005"><a xlink:href="classNumerical__XO__UI.html#af6296ae59c604456f531f4e996e99467" target="_top" xlink:title="Ask the user (or AI) to make a move.">
<polygon fill="white" stroke="#666666" points="156,-130 0,-130 0,-111 156,-111 156,-130"/>
<text text-anchor="middle" x="78" y="-118" font-family="Helvetica,sans-Serif" font-size="10.00">Numerical_XO_UI::get_move</text>
</a>
</g>
</g>
<!-- Node1&#45;&gt;Node5 -->
<g id="edge4_Node000001_Node000005" class="edge">
<title>Node1&#45;&gt;Node5</title>
<g id="a_edge4_Node000001_Node000005"><a xlink:title=" ">
<path fill="none" stroke="#63b8ff" d="M181.54,-120.5C173.15,-120.5 164.55,-120.5 156.06,-120.5"/>
<polygon fill="#63b8ff" stroke="#63b8ff" points="181.65,-124 191.65,-120.5 181.65,-117 181.65,-124"/>
</a>
</g>
</g>
<!-- Node6 -->
<g id="Node000006" class="node">
<title>Node6</title>
<g id="a_Node000006"><a xlink:href="classPyramid__XO__UI.html#a9447abc21ff1b8baa5ac1d91d84b567e" target="_top" xlink:title="Retrieves the next move from a player.">
<polygon fill="white" stroke="#666666" points="151,-93 5,-93 5,-74 151,-74 151,-93"/>
<text text-anchor="middle" x="78" y="-81" font-family="Helvetica,sans-Serif" font-size="10.00">Pyramid_XO_UI::get_move</text>
</a>
</g>
</g>
<!-- Node1&#45;&gt;Node6 -->
<g id="edge5_Node000001_Node000006" class="edge">
<title>Node1&#45;&gt;Node6</title>
<g id="a_edge5_Node000001_Node000006"><a xlink:title=" ">
<path fill="none" stroke="#63b8ff" d="M197.18,-108.85C173.48,-103.77 146.04,-97.88 123.57,-93.06"/>
<polygon fill="#63b8ff" stroke="#63b8ff" points="196.57,-112.3 207.08,-110.97 198.03,-105.45 196.57,-112.3"/>
</a>
</g>
</g>
<!-- Node7 -->
<g id="Node000007" class="node">
<title>Node7</title>
<g id="a_Node000007"><a xlink:href="classSUS__UI.html#a621a4bfadf8d79f2b2b66f2241c310c3" target="_top" xlink:title="Retrieves the next move from a player.">
<polygon fill="white" stroke="#666666" points="131.5,-56 24.5,-56 24.5,-37 131.5,-37 131.5,-56"/>
<text text-anchor="middle" x="78" y="-44" font-family="Helvetica,sans-Serif" font-size="10.00">SUS_UI::get_move</text>
</a>
</g>
</g>
<!-- Node1&#45;&gt;Node7 -->
<g id="edge6_Node000001_Node000007" class="edge">
<title>Node1&#45;&gt;Node7</title>
<g id="a_edge6_Node000001_Node000007"><a xlink:title=" ">
<path fill="none" stroke="#63b8ff" d="M229.13,-105.2C210.34,-92.95 182.39,-76.11 156,-65.5 146.8,-61.8 136.69,-58.68 126.9,-56.11"/>
<polygon fill="#63b8ff" stroke="#63b8ff" points="227.31,-108.19 237.58,-110.8 231.18,-102.35 227.31,-108.19"/>
</a>
</g>
</g>
<!-- Node8 -->
<g id="Node000008" class="node">
<title>Node8</title>
<g id="a_Node000008"><a xlink:href="classX__O__5x5__UI.html#a60163186f3074fea418f530e78f5f9f1" target="_top" xlink:title="Ask the user (or AI) to make a move.">
<polygon fill="white" stroke="#666666" points="143,-19 13,-19 13,0 143,0 143,-19"/>
<text text-anchor="middle" x="78" y="-7" font-family="Helvetica,sans-Serif" font-size="10.00">X_O_5x5_UI::get_move</text>
</a>
</g>
</g>
<!-- Node1&#45;&gt;Node8 -->
<g id="edge7_Node000001_Node000008" class="edge">
<title>Node1&#45;&gt;Node8</title>
<g id="a_edge7_Node000001_Node000008"><a xlink:title=" ">
<path fill="none" stroke="#63b8ff" d="M237.93,-102.64C221.04,-81.68 190.21,-47.38 156,-28.5 149.01,-24.64 141.23,-21.56 133.39,-19.09"/>
<polygon fill="#63b8ff" stroke="#63b8ff" points="235.36,-105.02 244.29,-110.72 240.86,-100.7 235.36,-105.02"/>
</a>
</g>
</g>
</g>
</svg>
