<?xml version="1.0" encoding="UTF-8" standalone="no"?>
<!DOCTYPE svg PUBLIC "-//W3C//DTD SVG 1.1//EN"
 "http://www.w3.org/Graphics/SVG/1.1/DTD/svg11.dtd">
<!-- Generated by graphviz version 2.43.0 (0)
 -->
<!-- Title: smartPlayer2::calculateMove Pages: 1 -->
<svg width="829pt" height="240pt"
 viewBox="0.00 0.00 829.00 240.24" xmlns="http://www.w3.org/2000/svg" xmlns:xlink="http://www.w3.org/1999/xlink">
<g id="graph0" class="graph" transform="scale(1 1) rotate(0) translate(4 236.24)">
<title>smartPlayer2::calculateMove</title>
<!-- Node1 -->
<g id="Node000001" class="node">
<title>Node1</title>
<g id="a_Node000001"><a xlink:title=" ">
<polygon fill="#999999" stroke="#666666" points="159,-91.24 0,-91.24 0,-72.24 159,-72.24 159,-91.24"/>
<text text-anchor="middle" x="79.5" y="-79.24" font-family="Helvetica,sans-Serif" font-size="10.00">smartPlayer2::calculateMove</text>
</a>
</g>
</g>
<!-- Node2 -->
<g id="Node000002" class="node">
<title>Node2</title>
<g id="a_Node000002"><a xlink:href="classPlayer.html#a508617eddfae8915d098102d480fc888" target="_top" xlink:title="Get a pointer to the game board.">
<polygon fill="white" stroke="#666666" points="321,-232.24 200,-232.24 200,-213.24 321,-213.24 321,-232.24"/>
<text text-anchor="middle" x="260.5" y="-220.24" font-family="Helvetica,sans-Serif" font-size="10.00">Player::get_board_ptr</text>
</a>
</g>
</g>
<!-- Node1&#45;&gt;Node2 -->
<g id="edge1_Node000001_Node000002" class="edge">
<title>Node1&#45;&gt;Node2</title>
<g id="a_edge1_Node000001_Node000002"><a xlink:title=" ">
<path fill="none" stroke="#63b8ff" d="M87.45,-91.31C103.83,-113.24 147.1,-167.61 195,-198.74 201.34,-202.86 208.48,-206.41 215.64,-209.41"/>
<polygon fill="#63b8ff" stroke="#63b8ff" points="214.76,-212.83 225.35,-213.18 217.3,-206.3 214.76,-212.83"/>
</a>
</g>
</g>
<!-- Node3 -->
<g id="Node000003" class="node">
<title>Node3</title>
<g id="a_Node000003"><a xlink:href="classsmartPlayer.html#afb2249c0850bf2f4debaece4f4df9bf3" target="_top" xlink:title=" ">
<polygon fill="white" stroke="#666666" points="821,-180.74 690,-180.74 690,-150.74 821,-150.74 821,-180.74"/>
<text text-anchor="start" x="698" y="-168.74" font-family="Helvetica,sans-Serif" font-size="10.00">smartPlayer&lt; char &gt;</text>
<text text-anchor="middle" x="755.5" y="-157.74" font-family="Helvetica,sans-Serif" font-size="10.00">::get_opponent_symbol</text>
</a>
</g>
</g>
<!-- Node1&#45;&gt;Node3 -->
<g id="edge2_Node000001_Node000003" class="edge">
<title>Node1&#45;&gt;Node3</title>
<g id="a_edge2_Node000001_Node000003"><a xlink:title=" ">
<path fill="none" stroke="#63b8ff" d="M109.11,-91.32C132.21,-98.98 165.6,-109.86 195,-118.74 268.81,-141.04 285.62,-155.2 362,-165.74 471.66,-180.88 600.21,-176.8 679.5,-171.8"/>
<polygon fill="#63b8ff" stroke="#63b8ff" points="680.13,-175.27 689.88,-171.13 679.68,-168.28 680.13,-175.27"/>
</a>
</g>
</g>
<!-- Node4 -->
<g id="Node000004" class="node">
<title>Node4</title>
<g id="a_Node000004"><a xlink:href="classPlayer.html#af56f0bf98c0423a3a75b0848607d03a4" target="_top" xlink:title="Get the player&#39;s symbol.">
<polygon fill="white" stroke="#666666" points="810.5,-45.24 700.5,-45.24 700.5,-26.24 810.5,-26.24 810.5,-45.24"/>
<text text-anchor="middle" x="755.5" y="-33.24" font-family="Helvetica,sans-Serif" font-size="10.00">Player::get_symbol</text>
</a>
</g>
</g>
<!-- Node1&#45;&gt;Node4 -->
<g id="edge3_Node000001_Node000004" class="edge">
<title>Node1&#45;&gt;Node4</title>
<g id="a_edge3_Node000001_Node000004"><a xlink:title=" ">
<path fill="none" stroke="#63b8ff" d="M101.63,-72.11C124.3,-62.09 161.59,-46.52 195,-36.74 322.89,0.7 359.99,4.37 493,-3.74 560.66,-7.86 637.62,-17.94 690.43,-25.69"/>
<polygon fill="#63b8ff" stroke="#63b8ff" points="689.93,-29.15 700.34,-27.16 690.96,-22.23 689.93,-29.15"/>
</a>
</g>
</g>
<!-- Node5 -->
<g id="Node000005" class="node">
<title>Node5</title>
<g id="a_Node000005"><a xlink:href="classsmartPlayer2.html#a8212944143d4baa2e7b05bca584a0e77" target="_top" xlink:title=" ">
<polygon fill="white" stroke="#666666" points="326,-91.24 195,-91.24 195,-72.24 326,-72.24 326,-91.24"/>
<text text-anchor="middle" x="260.5" y="-79.24" font-family="Helvetica,sans-Serif" font-size="10.00">smartPlayer2::minimax</text>
</a>
</g>
</g>
<!-- Node1&#45;&gt;Node5 -->
<g id="edge4_Node000001_Node000005" class="edge">
<title>Node1&#45;&gt;Node5</title>
<g id="a_edge4_Node000001_Node000005"><a xlink:title=" ">
<path fill="none" stroke="#63b8ff" d="M159.01,-81.74C167.49,-81.74 176.11,-81.74 184.55,-81.74"/>
<polygon fill="#63b8ff" stroke="#63b8ff" points="184.73,-85.24 194.73,-81.74 184.73,-78.24 184.73,-85.24"/>
</a>
</g>
</g>
<!-- Node12 -->
<g id="Node000012" class="node">
<title>Node12</title>
<g id="a_Node000012"><a xlink:href="classPlayer.html#adb4e803a7ac0356b111b8ca79d766976" target="_top" xlink:title="Construct a player with name, symbol, and type.">
<polygon fill="white" stroke="#666666" points="469.5,-32.24 385.5,-32.24 385.5,-13.24 469.5,-13.24 469.5,-32.24"/>
<text text-anchor="middle" x="427.5" y="-20.24" font-family="Helvetica,sans-Serif" font-size="10.00">Player::Player</text>
</a>
</g>
</g>
<!-- Node1&#45;&gt;Node12 -->
<g id="edge16_Node000001_Node000012" class="edge">
<title>Node1&#45;&gt;Node12</title>
<g id="a_edge16_Node000001_Node000012"><a xlink:title=" ">
<path fill="none" stroke="#63b8ff" d="M136.48,-72.2C202.42,-60.95 311.08,-42.42 375.01,-31.52"/>
<polygon fill="#63b8ff" stroke="#63b8ff" points="375.99,-34.9 385.26,-29.77 374.81,-28 375.99,-34.9"/>
</a>
</g>
</g>
<!-- Node5&#45;&gt;Node5 -->
<g id="edge14_Node000005_Node000005" class="edge">
<title>Node5&#45;&gt;Node5</title>
<g id="a_edge14_Node000005_Node000005"><a xlink:title=" ">
<path fill="none" stroke="#63b8ff" d="M234.91,-91.32C222.47,-99.97 231,-109.24 260.5,-109.24 279.86,-109.24 290.19,-105.25 291.49,-100.06"/>
<polygon fill="#63b8ff" stroke="#63b8ff" points="294.32,-97.99 286.09,-91.32 288.37,-101.67 294.32,-97.99"/>
</a>
</g>
</g>
<!-- Node6 -->
<g id="Node000006" class="node">
<title>Node6</title>
<g id="a_Node000006"><a xlink:href="classsmartPlayer2.html#afed5c26b8eb1ad21be5016ccaf15b989" target="_top" xlink:title=" ">
<polygon fill="white" stroke="#666666" points="493,-118.74 362,-118.74 362,-88.74 493,-88.74 493,-118.74"/>
<text text-anchor="start" x="370" y="-106.74" font-family="Helvetica,sans-Serif" font-size="10.00">smartPlayer2::evaluate</text>
<text text-anchor="middle" x="427.5" y="-95.74" font-family="Helvetica,sans-Serif" font-size="10.00">_board</text>
</a>
</g>
</g>
<!-- Node5&#45;&gt;Node6 -->
<g id="edge5_Node000005_Node000006" class="edge">
<title>Node5&#45;&gt;Node6</title>
<g id="a_edge5_Node000005_Node000006"><a xlink:title=" ">
<path fill="none" stroke="#63b8ff" d="M326.24,-90.37C334.67,-91.5 343.37,-92.66 351.95,-93.8"/>
<polygon fill="#63b8ff" stroke="#63b8ff" points="351.57,-97.28 361.95,-95.13 352.5,-90.34 351.57,-97.28"/>
</a>
</g>
</g>
<!-- Node8 -->
<g id="Node000008" class="node">
<title>Node8</title>
<g id="a_Node000008"><a xlink:href="classsmartPlayer2.html#acf253a6afb2216922e6a1184c7b50a14" target="_top" xlink:title=" ">
<polygon fill="white" stroke="#666666" points="490,-156.24 365,-156.24 365,-137.24 490,-137.24 490,-156.24"/>
<text text-anchor="middle" x="427.5" y="-144.24" font-family="Helvetica,sans-Serif" font-size="10.00">smartPlayer2::is_draw</text>
</a>
</g>
</g>
<!-- Node5&#45;&gt;Node8 -->
<g id="edge7_Node000005_Node000008" class="edge">
<title>Node5&#45;&gt;Node8</title>
<g id="a_edge7_Node000005_Node000008"><a xlink:title=" ">
<path fill="none" stroke="#63b8ff" d="M280.42,-91.39C300.37,-101.32 332.88,-116.85 362,-127.74 368.03,-129.99 374.45,-132.16 380.82,-134.17"/>
<polygon fill="#63b8ff" stroke="#63b8ff" points="380.13,-137.62 390.71,-137.19 382.17,-130.92 380.13,-137.62"/>
</a>
</g>
</g>
<!-- Node11 -->
<g id="Node000011" class="node">
<title>Node11</title>
<g id="a_Node000011"><a xlink:href="classsmartPlayer2.html#a36169753eb8ba31207c80de1769c9ceb" target="_top" xlink:title=" ">
<polygon fill="white" stroke="#666666" points="651,-70.24 532,-70.24 532,-51.24 651,-51.24 651,-70.24"/>
<text text-anchor="middle" x="591.5" y="-58.24" font-family="Helvetica,sans-Serif" font-size="10.00">smartPlayer2::is_win</text>
</a>
</g>
</g>
<!-- Node5&#45;&gt;Node11 -->
<g id="edge12_Node000005_Node000011" class="edge">
<title>Node5&#45;&gt;Node11</title>
<g id="a_edge12_Node000005_Node000011"><a xlink:title=" ">
<path fill="none" stroke="#63b8ff" d="M326.11,-77.62C382.51,-74.02 464.13,-68.81 521.73,-65.13"/>
<polygon fill="#63b8ff" stroke="#63b8ff" points="522.08,-68.61 531.84,-64.48 521.63,-61.63 522.08,-68.61"/>
</a>
</g>
</g>
<!-- Node5&#45;&gt;Node12 -->
<g id="edge15_Node000005_Node000012" class="edge">
<title>Node5&#45;&gt;Node12</title>
<g id="a_edge15_Node000005_Node000012"><a xlink:title=" ">
<path fill="none" stroke="#63b8ff" d="M288.38,-72.13C316.15,-62.2 359.65,-46.64 390.41,-35.65"/>
<polygon fill="#63b8ff" stroke="#63b8ff" points="391.67,-38.91 399.91,-32.25 389.31,-32.32 391.67,-38.91"/>
</a>
</g>
</g>
<!-- Node7 -->
<g id="Node000007" class="node">
<title>Node7</title>
<g id="a_Node000007"><a xlink:href="classsmartPlayer.html#a2065c2b93e69c1851cd4d951f22b1ccb" target="_top" xlink:title=" ">
<polygon fill="white" stroke="#666666" points="654,-118.74 529,-118.74 529,-88.74 654,-88.74 654,-118.74"/>
<text text-anchor="start" x="537" y="-106.74" font-family="Helvetica,sans-Serif" font-size="10.00">smartPlayer::evaluate</text>
<text text-anchor="middle" x="591.5" y="-95.74" font-family="Helvetica,sans-Serif" font-size="10.00">_board</text>
</a>
</g>
</g>
<!-- Node6&#45;&gt;Node7 -->
<g id="edge6_Node000006_Node000007" class="edge">
<title>Node6&#45;&gt;Node7</title>
<g id="a_edge6_Node000006_Node000007"><a xlink:title=" ">
<path fill="none" stroke="#63b8ff" d="M493.46,-103.74C501.78,-103.74 510.34,-103.74 518.76,-103.74"/>
<polygon fill="#63b8ff" stroke="#63b8ff" points="518.95,-107.24 528.95,-103.74 518.95,-100.24 518.95,-107.24"/>
</a>
</g>
</g>
<!-- Node9 -->
<g id="Node000009" class="node">
<title>Node9</title>
<g id="a_Node000009"><a xlink:href="classsmartPlayer.html#a046e18221d92303afd36dca43d859898" target="_top" xlink:title=" ">
<polygon fill="white" stroke="#666666" points="651,-156.24 532,-156.24 532,-137.24 651,-137.24 651,-156.24"/>
<text text-anchor="middle" x="591.5" y="-144.24" font-family="Helvetica,sans-Serif" font-size="10.00">smartPlayer::is_draw</text>
</a>
</g>
</g>
<!-- Node8&#45;&gt;Node9 -->
<g id="edge8_Node000008_Node000009" class="edge">
<title>Node8&#45;&gt;Node9</title>
<g id="a_edge8_Node000008_Node000009"><a xlink:title=" ">
<path fill="none" stroke="#63b8ff" d="M490.21,-146.74C500.47,-146.74 511.17,-146.74 521.59,-146.74"/>
<polygon fill="#63b8ff" stroke="#63b8ff" points="521.9,-150.24 531.9,-146.74 521.9,-143.24 521.9,-150.24"/>
</a>
</g>
</g>
<!-- Node9&#45;&gt;Node3 -->
<g id="edge9_Node000009_Node000003" class="edge">
<title>Node9&#45;&gt;Node3</title>
<g id="a_edge9_Node000009_Node000003"><a xlink:title=" ">
<path fill="none" stroke="#63b8ff" d="M651.44,-153.65C660.61,-154.73 670.19,-155.85 679.65,-156.96"/>
<polygon fill="#63b8ff" stroke="#63b8ff" points="679.51,-160.47 689.85,-158.16 680.33,-153.52 679.51,-160.47"/>
</a>
</g>
</g>
<!-- Node9&#45;&gt;Node4 -->
<g id="edge10_Node000009_Node000004" class="edge">
<title>Node9&#45;&gt;Node4</title>
<g id="a_edge10_Node000009_Node000004"><a xlink:title=" ">
<path fill="none" stroke="#63b8ff" d="M636.67,-137.22C642.83,-134.75 648.82,-131.64 654,-127.74 677.34,-110.17 668.74,-92.78 690,-72.74 699.61,-63.68 711.85,-55.95 723.07,-49.93"/>
<polygon fill="#63b8ff" stroke="#63b8ff" points="724.86,-52.95 732.18,-45.29 721.68,-46.71 724.86,-52.95"/>
</a>
</g>
</g>
<!-- Node10 -->
<g id="Node000010" class="node">
<title>Node10</title>
<g id="a_Node000010"><a xlink:href="classsmartPlayer.html#a0c97a2045a733fbe524f424d6b7eb968" target="_top" xlink:title=" ">
<polygon fill="white" stroke="#666666" points="812,-101.24 699,-101.24 699,-82.24 812,-82.24 812,-101.24"/>
<text text-anchor="middle" x="755.5" y="-89.24" font-family="Helvetica,sans-Serif" font-size="10.00">smartPlayer::is_win</text>
</a>
</g>
</g>
<!-- Node9&#45;&gt;Node10 -->
<g id="edge11_Node000009_Node000010" class="edge">
<title>Node9&#45;&gt;Node10</title>
<g id="a_edge11_Node000009_Node000010"><a xlink:title=" ">
<path fill="none" stroke="#63b8ff" d="M624.51,-137.15C634.03,-134.21 644.46,-130.92 654,-127.74 675.71,-120.5 699.86,-111.87 719.04,-104.87"/>
<polygon fill="#63b8ff" stroke="#63b8ff" points="720.39,-108.11 728.58,-101.38 717.99,-101.53 720.39,-108.11"/>
</a>
</g>
</g>
<!-- Node11&#45;&gt;Node10 -->
<g id="edge13_Node000011_Node000010" class="edge">
<title>Node11&#45;&gt;Node10</title>
<g id="a_edge13_Node000011_Node000010"><a xlink:title=" ">
<path fill="none" stroke="#63b8ff" d="M642.43,-70.29C658.98,-73.46 677.57,-77.02 694.79,-80.31"/>
<polygon fill="#63b8ff" stroke="#63b8ff" points="694.26,-83.78 704.74,-82.22 695.57,-76.9 694.26,-83.78"/>
</a>
</g>
</g>
</g>
</svg>
