<?xml version="1.0" encoding="UTF-8" standalone="no"?>
<!DOCTYPE svg PUBLIC "-//W3C//DTD SVG 1.1//EN"
 "http://www.w3.org/Graphics/SVG/1.1/DTD/svg11.dtd">
<!-- Generated by graphviz version 2.43.0 (0)
 -->
<!-- Title: AIPlayer::minimax Pages: 1 -->
<svg width="609pt" height="272pt"
 viewBox="0.00 0.00 609.00 272.00" xmlns="http://www.w3.org/2000/svg" xmlns:xlink="http://www.w3.org/1999/xlink">
<g id="graph0" class="graph" transform="scale(1 1) rotate(0) translate(4 268)">
<title>AIPlayer::minimax</title>
<!-- Node1 -->
<g id="Node000001" class="node">
<title>Node1</title>
<g id="a_Node000001"><a xlink:title="Minimax algorithm with alpha&#45;beta pruning.">
<polygon fill="#999999" stroke="#666666" points="107,-147 0,-147 0,-128 107,-128 107,-147"/>
<text text-anchor="middle" x="53.5" y="-135" font-family="Helvetica,sans-Serif" font-size="10.00">AIPlayer::minimax</text>
</a>
</g>
</g>
<!-- Node1&#45;&gt;Node1 -->
<g id="edge10_Node000001_Node000001" class="edge">
<title>Node1&#45;&gt;Node1</title>
<g id="a_edge10_Node000001_Node000001"><a xlink:title=" ">
<path fill="none" stroke="#63b8ff" d="M28.53,-147.08C16.38,-155.73 24.71,-165 53.5,-165 72.4,-165 82.48,-161.01 83.74,-155.82"/>
<polygon fill="#63b8ff" stroke="#63b8ff" points="86.63,-153.84 78.47,-147.08 80.64,-157.45 86.63,-153.84"/>
</a>
</g>
</g>
<!-- Node2 -->
<g id="Node000002" class="node">
<title>Node2</title>
<g id="a_Node000002"><a xlink:href="classAIPlayer.html#a7a5e28485ca22a629601e98c3580b6d7" target="_top" xlink:title="Check if a position is valid for making a move.">
<polygon fill="white" stroke="#666666" points="270,-264 162,-264 162,-245 270,-245 270,-264"/>
<text text-anchor="middle" x="216" y="-252" font-family="Helvetica,sans-Serif" font-size="10.00">AIPlayer::condition</text>
</a>
</g>
</g>
<!-- Node1&#45;&gt;Node2 -->
<g id="edge1_Node000001_Node000002" class="edge">
<title>Node1&#45;&gt;Node2</title>
<g id="a_edge1_Node000001_Node000002"><a xlink:title=" ">
<path fill="none" stroke="#63b8ff" d="M60.24,-147.11C72.67,-167.05 104.12,-213.03 143,-236.5 145.96,-238.29 149.09,-239.89 152.32,-241.34"/>
<polygon fill="#63b8ff" stroke="#63b8ff" points="151.05,-244.61 161.63,-245.02 153.62,-238.1 151.05,-244.61"/>
</a>
</g>
</g>
<!-- Node4 -->
<g id="Node000004" class="node">
<title>Node4</title>
<g id="a_Node000004"><a xlink:href="classAIPlayer.html#a7b61c8b977c9322cd5773309bc54c8e8" target="_top" xlink:title="Pure virtual function to create a valid move depending on current game rules. Must be implemented by ...">
<polygon fill="white" stroke="#666666" points="276.5,-227 155.5,-227 155.5,-208 276.5,-208 276.5,-227"/>
<text text-anchor="middle" x="216" y="-215" font-family="Helvetica,sans-Serif" font-size="10.00">AIPlayer::createMove</text>
</a>
</g>
</g>
<!-- Node1&#45;&gt;Node4 -->
<g id="edge3_Node000001_Node000004" class="edge">
<title>Node1&#45;&gt;Node4</title>
<g id="a_edge3_Node000001_Node000004"><a xlink:title=" ">
<path fill="none" stroke="#63b8ff" d="M65.41,-147.17C81.35,-160.8 112.45,-185.56 143,-199.5 147.38,-201.5 152.03,-203.3 156.75,-204.92"/>
<polygon fill="#63b8ff" stroke="#63b8ff" points="155.94,-208.33 166.53,-207.98 158.03,-201.65 155.94,-208.33"/>
</a>
</g>
</g>
<!-- Node5 -->
<g id="Node000005" class="node">
<title>Node5</title>
<g id="a_Node000005"><a xlink:href="classAIPlayer.html#a38676c42e4a922eadace3633b5b046cb" target="_top" xlink:title=" ">
<polygon fill="white" stroke="#666666" points="289,-190 143,-190 143,-171 289,-171 289,-190"/>
<text text-anchor="middle" x="216" y="-178" font-family="Helvetica,sans-Serif" font-size="10.00">AIPlayer::createUndoMove</text>
</a>
</g>
</g>
<!-- Node1&#45;&gt;Node5 -->
<g id="edge4_Node000001_Node000005" class="edge">
<title>Node1&#45;&gt;Node5</title>
<g id="a_edge4_Node000001_Node000005"><a xlink:title=" ">
<path fill="none" stroke="#63b8ff" d="M89.37,-147.02C105.66,-151.44 125.31,-156.77 143,-161.5 151.35,-163.73 160.25,-166.1 168.84,-168.37"/>
<polygon fill="#63b8ff" stroke="#63b8ff" points="168.17,-171.81 178.73,-170.98 169.95,-165.04 168.17,-171.81"/>
</a>
</g>
</g>
<!-- Node6 -->
<g id="Node000006" class="node">
<title>Node6</title>
<g id="a_Node000006"><a xlink:href="classAIPlayer.html#ab348ca15fad1cb2099d9a6336b41c637" target="_top" xlink:title="Evaluate the current board position from AI&#39;s perspective.">
<polygon fill="white" stroke="#666666" points="269,-152.5 163,-152.5 163,-122.5 269,-122.5 269,-152.5"/>
<text text-anchor="start" x="171" y="-140.5" font-family="Helvetica,sans-Serif" font-size="10.00">AIPlayer::evaluate</text>
<text text-anchor="middle" x="216" y="-129.5" font-family="Helvetica,sans-Serif" font-size="10.00">_board</text>
</a>
</g>
</g>
<!-- Node1&#45;&gt;Node6 -->
<g id="edge5_Node000001_Node000006" class="edge">
<title>Node1&#45;&gt;Node6</title>
<g id="a_edge5_Node000001_Node000006"><a xlink:title=" ">
<path fill="none" stroke="#63b8ff" d="M107.05,-137.5C121.61,-137.5 137.56,-137.5 152.62,-137.5"/>
<polygon fill="#63b8ff" stroke="#63b8ff" points="152.88,-141 162.88,-137.5 152.88,-134 152.88,-141"/>
</a>
</g>
</g>
<!-- Node7 -->
<g id="Node000007" class="node">
<title>Node7</title>
<g id="a_Node000007"><a xlink:href="classAIPlayer.html#ab26d7531433c20c1616ec836a7fb5cce" target="_top" xlink:title="Generate possible move values for a given position.">
<polygon fill="white" stroke="#666666" points="269.5,-104.5 162.5,-104.5 162.5,-74.5 269.5,-74.5 269.5,-104.5"/>
<text text-anchor="start" x="170.5" y="-92.5" font-family="Helvetica,sans-Serif" font-size="10.00">AIPlayer::generate</text>
<text text-anchor="middle" x="216" y="-81.5" font-family="Helvetica,sans-Serif" font-size="10.00">_move_values</text>
</a>
</g>
</g>
<!-- Node1&#45;&gt;Node7 -->
<g id="edge6_Node000001_Node000007" class="edge">
<title>Node1&#45;&gt;Node7</title>
<g id="a_edge6_Node000001_Node000007"><a xlink:title=" ">
<path fill="none" stroke="#63b8ff" d="M86.59,-127.9C106.12,-122.06 131.69,-114.41 154.87,-107.48"/>
<polygon fill="#63b8ff" stroke="#63b8ff" points="156.06,-110.78 164.63,-104.56 154.05,-104.08 156.06,-110.78"/>
</a>
</g>
</g>
<!-- Node10 -->
<g id="Node000010" class="node">
<title>Node10</title>
<g id="a_Node000010"><a xlink:href="classPlayer.html#adb4e803a7ac0356b111b8ca79d766976" target="_top" xlink:title="Construct a player with name, symbol, and type.">
<polygon fill="white" stroke="#666666" points="258,-56 174,-56 174,-37 258,-37 258,-56"/>
<text text-anchor="middle" x="216" y="-44" font-family="Helvetica,sans-Serif" font-size="10.00">Player::Player</text>
</a>
</g>
</g>
<!-- Node1&#45;&gt;Node10 -->
<g id="edge11_Node000001_Node000010" class="edge">
<title>Node1&#45;&gt;Node10</title>
<g id="a_edge11_Node000001_Node000010"><a xlink:title=" ">
<path fill="none" stroke="#63b8ff" d="M63.85,-127.54C79.01,-111.99 110.51,-82.02 143,-65.5 149.58,-62.16 156.8,-59.36 164.05,-57.03"/>
<polygon fill="#63b8ff" stroke="#63b8ff" points="165.29,-60.31 173.9,-54.14 163.32,-53.6 165.29,-60.31"/>
</a>
</g>
</g>
<!-- Node11 -->
<g id="Node000011" class="node">
<title>Node11</title>
<g id="a_Node000011"><a xlink:href="classPlayer.html#a3617a3ad0db435176a06948065f9a3a6" target="_top" xlink:title="Assign the board pointer for the player.">
<polygon fill="white" stroke="#666666" points="276,-19 156,-19 156,0 276,0 276,-19"/>
<text text-anchor="middle" x="216" y="-7" font-family="Helvetica,sans-Serif" font-size="10.00">Player::set_board_ptr</text>
</a>
</g>
</g>
<!-- Node1&#45;&gt;Node11 -->
<g id="edge12_Node000001_Node000011" class="edge">
<title>Node1&#45;&gt;Node11</title>
<g id="a_edge12_Node000001_Node000011"><a xlink:title=" ">
<path fill="none" stroke="#63b8ff" d="M59.42,-127.8C70.92,-106.2 101.71,-53.92 143,-27.5 145.58,-25.85 148.29,-24.35 151.1,-22.99"/>
<polygon fill="#63b8ff" stroke="#63b8ff" points="152.48,-26.21 160.34,-19.1 149.76,-19.76 152.48,-26.21"/>
</a>
</g>
</g>
<!-- Node3 -->
<g id="Node000003" class="node">
<title>Node3</title>
<g id="a_Node000003"><a xlink:href="classPlayer.html#a508617eddfae8915d098102d480fc888" target="_top" xlink:title="Get a pointer to the game board.">
<polygon fill="white" stroke="#666666" points="450.5,-264 329.5,-264 329.5,-245 450.5,-245 450.5,-264"/>
<text text-anchor="middle" x="390" y="-252" font-family="Helvetica,sans-Serif" font-size="10.00">Player::get_board_ptr</text>
</a>
</g>
</g>
<!-- Node2&#45;&gt;Node3 -->
<g id="edge2_Node000002_Node000003" class="edge">
<title>Node2&#45;&gt;Node3</title>
<g id="a_edge2_Node000002_Node000003"><a xlink:title=" ">
<path fill="none" stroke="#63b8ff" d="M270.01,-254.5C285.54,-254.5 302.76,-254.5 319.17,-254.5"/>
<polygon fill="#63b8ff" stroke="#63b8ff" points="319.26,-258 329.26,-254.5 319.26,-251 319.26,-258"/>
</a>
</g>
</g>
<!-- Node8 -->
<g id="Node000008" class="node">
<title>Node8</title>
<g id="a_Node000008"><a xlink:href="classAIPlayer.html#a706839a21ea012862d53269c478a56e6" target="_top" xlink:title="Get the opponent&#39;s symbol.">
<polygon fill="white" stroke="#666666" points="455,-125.5 325,-125.5 325,-95.5 455,-95.5 455,-125.5"/>
<text text-anchor="start" x="333" y="-113.5" font-family="Helvetica,sans-Serif" font-size="10.00">AIPlayer::get_opponent</text>
<text text-anchor="middle" x="390" y="-102.5" font-family="Helvetica,sans-Serif" font-size="10.00">_symbol</text>
</a>
</g>
</g>
<!-- Node7&#45;&gt;Node8 -->
<g id="edge7_Node000007_Node000008" class="edge">
<title>Node7&#45;&gt;Node8</title>
<g id="a_edge7_Node000007_Node000008"><a xlink:title=" ">
<path fill="none" stroke="#63b8ff" d="M269.54,-95.91C283.88,-97.67 299.7,-99.6 315,-101.47"/>
<polygon fill="#63b8ff" stroke="#63b8ff" points="314.61,-104.94 324.96,-102.68 315.46,-97.99 314.61,-104.94"/>
</a>
</g>
</g>
<!-- Node9 -->
<g id="Node000009" class="node">
<title>Node9</title>
<g id="a_Node000009"><a xlink:href="classPlayer.html#af56f0bf98c0423a3a75b0848607d03a4" target="_top" xlink:title="Get the player&#39;s symbol.">
<polygon fill="white" stroke="#666666" points="601,-98 491,-98 491,-79 601,-79 601,-98"/>
<text text-anchor="middle" x="546" y="-86" font-family="Helvetica,sans-Serif" font-size="10.00">Player::get_symbol</text>
</a>
</g>
</g>
<!-- Node7&#45;&gt;Node9 -->
<g id="edge9_Node000007_Node000009" class="edge">
<title>Node7&#45;&gt;Node9</title>
<g id="a_edge9_Node000007_Node000009"><a xlink:title=" ">
<path fill="none" stroke="#63b8ff" d="M269.73,-87.74C287.31,-87.23 306.99,-86.75 325,-86.5 382.77,-85.7 397.23,-85.86 455,-86.5 463.31,-86.59 472.06,-86.73 480.69,-86.9"/>
<polygon fill="#63b8ff" stroke="#63b8ff" points="480.68,-90.4 490.75,-87.1 480.82,-83.4 480.68,-90.4"/>
</a>
</g>
</g>
<!-- Node8&#45;&gt;Node9 -->
<g id="edge8_Node000008_Node000009" class="edge">
<title>Node8&#45;&gt;Node9</title>
<g id="a_edge8_Node000008_Node000009"><a xlink:title=" ">
<path fill="none" stroke="#63b8ff" d="M455.42,-101.3C463.74,-100.11 472.26,-98.89 480.58,-97.7"/>
<polygon fill="#63b8ff" stroke="#63b8ff" points="481.2,-101.15 490.6,-96.27 480.21,-94.22 481.2,-101.15"/>
</a>
</g>
</g>
</g>
</svg>
