<?xml version="1.0" encoding="UTF-8" standalone="no"?>
<!DOCTYPE svg PUBLIC "-//W3C//DTD SVG 1.1//EN"
 "http://www.w3.org/Graphics/SVG/1.1/DTD/svg11.dtd">
<!-- Generated by graphviz version 2.43.0 (0)
 -->
<!-- Title: FourFourAIPlayer::condition Pages: 1 -->
<svg width="315pt" height="64pt"
 viewBox="0.00 0.00 315.00 64.00" xmlns="http://www.w3.org/2000/svg" xmlns:xlink="http://www.w3.org/1999/xlink">
<g id="graph0" class="graph" transform="scale(1 1) rotate(0) translate(4 60)">
<title>FourFourAIPlayer::condition</title>
<!-- Node1 -->
<g id="Node000001" class="node">
<title>Node1</title>
<g id="a_Node000001"><a xlink:title="Check if position has a piece belonging to the player that can be moved.">
<polygon fill="#999999" stroke="#666666" points="150,-37 0,-37 0,-18 150,-18 150,-37"/>
<text text-anchor="middle" x="75" y="-25" font-family="Helvetica,sans-Serif" font-size="10.00">FourFourAIPlayer::condition</text>
</a>
</g>
</g>
<!-- Node2 -->
<g id="Node000002" class="node">
<title>Node2</title>
<g id="a_Node000002"><a xlink:href="classPlayer.html#a508617eddfae8915d098102d480fc888" target="_top" xlink:title="Get a pointer to the game board.">
<polygon fill="white" stroke="#666666" points="307,-56 186,-56 186,-37 307,-37 307,-56"/>
<text text-anchor="middle" x="246.5" y="-44" font-family="Helvetica,sans-Serif" font-size="10.00">Player::get_board_ptr</text>
</a>
</g>
</g>
<!-- Node1&#45;&gt;Node2 -->
<g id="edge1_Node000001_Node000002" class="edge">
<title>Node1&#45;&gt;Node2</title>
<g id="a_edge1_Node000001_Node000002"><a xlink:title=" ">
<path fill="none" stroke="#63b8ff" d="M150.35,-35.83C158.82,-36.78 167.43,-37.75 175.84,-38.69"/>
<polygon fill="#63b8ff" stroke="#63b8ff" points="175.65,-42.19 185.98,-39.83 176.43,-35.24 175.65,-42.19"/>
</a>
</g>
</g>
<!-- Node3 -->
<g id="Node000003" class="node">
<title>Node3</title>
<g id="a_Node000003"><a xlink:href="classPlayer.html#af56f0bf98c0423a3a75b0848607d03a4" target="_top" xlink:title="Get the player&#39;s symbol.">
<polygon fill="white" stroke="#666666" points="301.5,-19 191.5,-19 191.5,0 301.5,0 301.5,-19"/>
<text text-anchor="middle" x="246.5" y="-7" font-family="Helvetica,sans-Serif" font-size="10.00">Player::get_symbol</text>
</a>
</g>
</g>
<!-- Node1&#45;&gt;Node3 -->
<g id="edge2_Node000001_Node000003" class="edge">
<title>Node1&#45;&gt;Node3</title>
<g id="a_edge2_Node000001_Node000003"><a xlink:title=" ">
<path fill="none" stroke="#63b8ff" d="M150.35,-19.6C160.69,-18.51 171.24,-17.39 181.37,-16.31"/>
<polygon fill="#63b8ff" stroke="#63b8ff" points="181.76,-19.79 191.34,-15.25 181.02,-12.83 181.76,-19.79"/>
</a>
</g>
</g>
</g>
</svg>
