<?xml version="1.0" encoding="UTF-8" standalone="no"?>
<!DOCTYPE svg PUBLIC "-//W3C//DTD SVG 1.1//EN"
 "http://www.w3.org/Graphics/SVG/1.1/DTD/svg11.dtd">
<!-- Generated by graphviz version 2.43.0 (0)
 -->
<!-- Title: wordSmartPlayer::score_line Pages: 1 -->
<svg width="722pt" height="51pt"
 viewBox="0.00 0.00 722.00 50.50" xmlns="http://www.w3.org/2000/svg" xmlns:xlink="http://www.w3.org/1999/xlink">
<g id="graph0" class="graph" transform="scale(1 1) rotate(0) translate(4 46.5)">
<title>wordSmartPlayer::score_line</title>
<!-- Node1 -->
<g id="Node000001" class="node">
<title>Node1</title>
<g id="a_Node000001"><a xlink:title=" ">
<polygon fill="#999999" stroke="#666666" points="714,-24.5 558,-24.5 558,-5.5 714,-5.5 714,-24.5"/>
<text text-anchor="middle" x="636" y="-12.5" font-family="Helvetica,sans-Serif" font-size="10.00">wordSmartPlayer::score_line</text>
</a>
</g>
</g>
<!-- Node2 -->
<g id="Node000002" class="node">
<title>Node2</title>
<g id="a_Node000002"><a xlink:href="classwordSmartPlayer.html#a08ecaf78a83b4a706176529ddc9e6119" target="_top" xlink:title=" ">
<polygon fill="white" stroke="#666666" points="522,-30 373,-30 373,0 522,0 522,-30"/>
<text text-anchor="start" x="381" y="-18" font-family="Helvetica,sans-Serif" font-size="10.00">wordSmartPlayer::evaluate</text>
<text text-anchor="middle" x="447.5" y="-7" font-family="Helvetica,sans-Serif" font-size="10.00">_board</text>
</a>
</g>
</g>
<!-- Node1&#45;&gt;Node2 -->
<g id="edge1_Node000001_Node000002" class="edge">
<title>Node1&#45;&gt;Node2</title>
<g id="a_edge1_Node000001_Node000002"><a xlink:title=" ">
<path fill="none" stroke="#63b8ff" d="M547.75,-15C539.16,-15 530.49,-15 522.05,-15"/>
<polygon fill="#63b8ff" stroke="#63b8ff" points="547.8,-18.5 557.8,-15 547.8,-11.5 547.8,-18.5"/>
</a>
</g>
</g>
<!-- Node3 -->
<g id="Node000003" class="node">
<title>Node3</title>
<g id="a_Node000003"><a xlink:href="classwordSmartPlayer.html#ad2958d2928652d713002043fe27fdf9b" target="_top" xlink:title=" ">
<polygon fill="white" stroke="#666666" points="337,-24.5 187,-24.5 187,-5.5 337,-5.5 337,-24.5"/>
<text text-anchor="middle" x="262" y="-12.5" font-family="Helvetica,sans-Serif" font-size="10.00">wordSmartPlayer::minimax</text>
</a>
</g>
</g>
<!-- Node2&#45;&gt;Node3 -->
<g id="edge2_Node000002_Node000003" class="edge">
<title>Node2&#45;&gt;Node3</title>
<g id="a_edge2_Node000002_Node000003"><a xlink:title=" ">
<path fill="none" stroke="#63b8ff" d="M362.91,-15C354.34,-15 345.66,-15 337.19,-15"/>
<polygon fill="#63b8ff" stroke="#63b8ff" points="362.92,-18.5 372.92,-15 362.92,-11.5 362.92,-18.5"/>
</a>
</g>
</g>
<!-- Node3&#45;&gt;Node3 -->
<g id="edge4_Node000003_Node000003" class="edge">
<title>Node3&#45;&gt;Node3</title>
<g id="a_edge4_Node000003_Node000003"><a xlink:title=" ">
<path fill="none" stroke="#63b8ff" d="M296.48,-32.57C295.98,-38.12 284.48,-42.5 262,-42.5 229.3,-42.5 219.84,-33.23 233.64,-24.58"/>
<polygon fill="#63b8ff" stroke="#63b8ff" points="299.22,-30.39 290.36,-24.58 293.66,-34.65 299.22,-30.39"/>
</a>
</g>
</g>
<!-- Node4 -->
<g id="Node000004" class="node">
<title>Node4</title>
<g id="a_Node000004"><a xlink:href="classwordSmartPlayer.html#ab4791918e207984b9d8a7400b436a19b" target="_top" xlink:title=" ">
<polygon fill="white" stroke="#666666" points="151,-30 0,-30 0,0 151,0 151,-30"/>
<text text-anchor="start" x="8" y="-18" font-family="Helvetica,sans-Serif" font-size="10.00">wordSmartPlayer::calculate</text>
<text text-anchor="middle" x="75.5" y="-7" font-family="Helvetica,sans-Serif" font-size="10.00">Move2</text>
</a>
</g>
</g>
<!-- Node3&#45;&gt;Node4 -->
<g id="edge3_Node000003_Node000004" class="edge">
<title>Node3&#45;&gt;Node4</title>
<g id="a_edge3_Node000003_Node000004"><a xlink:title=" ">
<path fill="none" stroke="#63b8ff" d="M176.51,-15C168.07,-15 159.53,-15 151.19,-15"/>
<polygon fill="#63b8ff" stroke="#63b8ff" points="176.75,-18.5 186.75,-15 176.75,-11.5 176.75,-18.5"/>
</a>
</g>
</g>
</g>
</svg>
