<?xml version="1.0" encoding="UTF-8" standalone="no"?>
<!DOCTYPE svg PUBLIC "-//W3C//DTD SVG 1.1//EN"
 "http://www.w3.org/Graphics/SVG/1.1/DTD/svg11.dtd">
<!-- Generated by graphviz version 2.43.0 (0)
 -->
<!-- Title: MEMORY_TIC_TAC_TOE_Board::game_is_over Pages: 1 -->
<svg width="616pt" height="60pt"
 viewBox="0.00 0.00 616.00 60.00" xmlns="http://www.w3.org/2000/svg" xmlns:xlink="http://www.w3.org/1999/xlink">
<g id="graph0" class="graph" transform="scale(1 1) rotate(0) translate(4 56)">
<title>MEMORY_TIC_TAC_TOE_Board::game_is_over</title>
<!-- Node1 -->
<g id="Node000001" class="node">
<title>Node1</title>
<g id="a_Node000001"><a xlink:title="Determines if the game is over (win or draw).">
<polygon fill="#999999" stroke="#666666" points="130,-30 0,-30 0,0 130,0 130,-30"/>
<text text-anchor="start" x="8" y="-18" font-family="Helvetica,sans-Serif" font-size="10.00">MEMORY_TIC_TAC_TOE</text>
<text text-anchor="middle" x="65" y="-7" font-family="Helvetica,sans-Serif" font-size="10.00">_Board::game_is_over</text>
</a>
</g>
</g>
<!-- Node2 -->
<g id="Node000002" class="node">
<title>Node2</title>
<g id="a_Node000002"><a xlink:href="classMEMORY__TIC__TAC__TOE__Board.html#a42f4019e449d2c49efdb3129507984e3" target="_top" xlink:title="Checks if the game has ended in a draw.">
<polygon fill="white" stroke="#666666" points="296,-52 166,-52 166,-22 296,-22 296,-52"/>
<text text-anchor="start" x="174" y="-40" font-family="Helvetica,sans-Serif" font-size="10.00">MEMORY_TIC_TAC_TOE</text>
<text text-anchor="middle" x="231" y="-29" font-family="Helvetica,sans-Serif" font-size="10.00">_Board::is_draw</text>
</a>
</g>
</g>
<!-- Node1&#45;&gt;Node2 -->
<g id="edge1_Node000001_Node000002" class="edge">
<title>Node1&#45;&gt;Node2</title>
<g id="a_edge1_Node000001_Node000002"><a xlink:title=" ">
<path fill="none" stroke="#63b8ff" d="M130.35,-23.63C138.73,-24.76 147.37,-25.92 155.9,-27.06"/>
<polygon fill="#63b8ff" stroke="#63b8ff" points="155.46,-30.53 165.84,-28.39 156.39,-23.59 155.46,-30.53"/>
</a>
</g>
</g>
<!-- Node3 -->
<g id="Node000003" class="node">
<title>Node3</title>
<g id="a_Node000003"><a xlink:href="classMEMORY__TIC__TAC__TOE__Board.html#aa9b8d9870ce3341b3e080896513a8d69" target="_top" xlink:title="Checks if the given player has won the game.">
<polygon fill="white" stroke="#666666" points="462,-30 332,-30 332,0 462,0 462,-30"/>
<text text-anchor="start" x="340" y="-18" font-family="Helvetica,sans-Serif" font-size="10.00">MEMORY_TIC_TAC_TOE</text>
<text text-anchor="middle" x="397" y="-7" font-family="Helvetica,sans-Serif" font-size="10.00">_Board::is_win</text>
</a>
</g>
</g>
<!-- Node1&#45;&gt;Node3 -->
<g id="edge4_Node000001_Node000003" class="edge">
<title>Node1&#45;&gt;Node3</title>
<g id="a_edge4_Node000001_Node000003"><a xlink:title=" ">
<path fill="none" stroke="#63b8ff" d="M130.01,-13.53C141.97,-13.31 154.37,-13.12 166,-13 223.77,-12.42 238.23,-12.42 296,-13 304.36,-13.08 313.12,-13.21 321.82,-13.35"/>
<polygon fill="#63b8ff" stroke="#63b8ff" points="321.93,-16.85 331.99,-13.53 322.05,-9.85 321.93,-16.85"/>
</a>
</g>
</g>
<!-- Node2&#45;&gt;Node3 -->
<g id="edge2_Node000002_Node000003" class="edge">
<title>Node2&#45;&gt;Node3</title>
<g id="a_edge2_Node000002_Node000003"><a xlink:title=" ">
<path fill="none" stroke="#63b8ff" d="M296.35,-28.37C304.73,-27.24 313.37,-26.08 321.9,-24.94"/>
<polygon fill="#63b8ff" stroke="#63b8ff" points="322.39,-28.41 331.84,-23.61 321.46,-21.47 322.39,-28.41"/>
</a>
</g>
</g>
<!-- Node4 -->
<g id="Node000004" class="node">
<title>Node4</title>
<g id="a_Node000004"><a xlink:href="classPlayer.html#af56f0bf98c0423a3a75b0848607d03a4" target="_top" xlink:title="Get the player&#39;s symbol.">
<polygon fill="white" stroke="#666666" points="608,-24.5 498,-24.5 498,-5.5 608,-5.5 608,-24.5"/>
<text text-anchor="middle" x="553" y="-12.5" font-family="Helvetica,sans-Serif" font-size="10.00">Player::get_symbol</text>
</a>
</g>
</g>
<!-- Node3&#45;&gt;Node4 -->
<g id="edge3_Node000003_Node000004" class="edge">
<title>Node3&#45;&gt;Node4</title>
<g id="a_edge3_Node000003_Node000004"><a xlink:title=" ">
<path fill="none" stroke="#63b8ff" d="M462.42,-15C470.74,-15 479.26,-15 487.58,-15"/>
<polygon fill="#63b8ff" stroke="#63b8ff" points="487.6,-18.5 497.6,-15 487.6,-11.5 487.6,-18.5"/>
</a>
</g>
</g>
</g>
</svg>
