<?xml version="1.0" encoding="UTF-8" standalone="no"?>
<!DOCTYPE svg PUBLIC "-//W3C//DTD SVG 1.1//EN"
 "http://www.w3.org/Graphics/SVG/1.1/DTD/svg11.dtd">
<!-- Generated by graphviz version 2.43.0 (0)
 -->
<!-- Title: FourFourAIPlayer::minimax Pages: 1 -->
<svg width="369pt" height="45pt"
 viewBox="0.00 0.00 369.00 45.00" xmlns="http://www.w3.org/2000/svg" xmlns:xlink="http://www.w3.org/1999/xlink">
<g id="graph0" class="graph" transform="scale(1 1) rotate(0) translate(4 41)">
<title>FourFourAIPlayer::minimax</title>
<!-- Node1 -->
<g id="Node000001" class="node">
<title>Node1</title>
<g id="a_Node000001"><a xlink:title="Override minimax to handle opponent pieces correctly.">
<polygon fill="#999999" stroke="#666666" points="361,-19 212,-19 212,0 361,0 361,-19"/>
<text text-anchor="middle" x="286.5" y="-7" font-family="Helvetica,sans-Serif" font-size="10.00">FourFourAIPlayer::minimax</text>
</a>
</g>
</g>
<!-- Node1&#45;&gt;Node1 -->
<g id="edge2_Node000001_Node000001" class="edge">
<title>Node1&#45;&gt;Node1</title>
<g id="a_edge2_Node000001_Node000001"><a xlink:title=" ">
<path fill="none" stroke="#63b8ff" d="M323.62,-26.69C323.62,-32.42 311.24,-37 286.5,-37 251.31,-37 241.14,-27.73 255.98,-19.08"/>
<polygon fill="#63b8ff" stroke="#63b8ff" points="326.22,-24.34 317.02,-19.08 320.93,-28.93 326.22,-24.34"/>
</a>
</g>
</g>
<!-- Node2 -->
<g id="Node000002" class="node">
<title>Node2</title>
<g id="a_Node000002"><a xlink:href="classFourFourAIPlayer.html#ae65b9079173802af7f5091473ce5f513" target="_top" xlink:title="Override calculateMove to handle direction&#45;based moves.">
<polygon fill="white" stroke="#666666" points="176,-19 0,-19 0,0 176,0 176,-19"/>
<text text-anchor="middle" x="88" y="-7" font-family="Helvetica,sans-Serif" font-size="10.00">FourFourAIPlayer::calculateMove</text>
</a>
</g>
</g>
<!-- Node1&#45;&gt;Node2 -->
<g id="edge1_Node000001_Node000002" class="edge">
<title>Node1&#45;&gt;Node2</title>
<g id="a_edge1_Node000001_Node000002"><a xlink:title=" ">
<path fill="none" stroke="#63b8ff" d="M201.56,-9.5C193.12,-9.5 184.53,-9.5 176.05,-9.5"/>
<polygon fill="#63b8ff" stroke="#63b8ff" points="201.77,-13 211.77,-9.5 201.77,-6 201.77,-13"/>
</a>
</g>
</g>
</g>
</svg>
