<?xml version="1.0" encoding="UTF-8" standalone="no"?>
<!DOCTYPE svg PUBLIC "-//W3C//DTD SVG 1.1//EN"
 "http://www.w3.org/Graphics/SVG/1.1/DTD/svg11.dtd">
<!-- Generated by graphviz version 2.43.0 (0)
 -->
<!-- Title: Numerical_X_O_Board::game_is_over Pages: 1 -->
<svg width="601pt" height="60pt"
 viewBox="0.00 0.00 601.00 60.00" xmlns="http://www.w3.org/2000/svg" xmlns:xlink="http://www.w3.org/1999/xlink">
<g id="graph0" class="graph" transform="scale(1 1) rotate(0) translate(4 56)">
<title>Numerical_X_O_Board::game_is_over</title>
<!-- Node1 -->
<g id="Node000001" class="node">
<title>Node1</title>
<g id="a_Node000001"><a xlink:title="Check if the game is over.">
<polygon fill="#999999" stroke="#666666" points="125,-30 0,-30 0,0 125,0 125,-30"/>
<text text-anchor="start" x="8" y="-18" font-family="Helvetica,sans-Serif" font-size="10.00">Numerical_X_O_Board</text>
<text text-anchor="middle" x="62.5" y="-7" font-family="Helvetica,sans-Serif" font-size="10.00">::game_is_over</text>
</a>
</g>
</g>
<!-- Node2 -->
<g id="Node000002" class="node">
<title>Node2</title>
<g id="a_Node000002"><a xlink:href="classNumerical__X__O__Board.html#a2d3ee20a3d8e9b2e001649ce85d3a515" target="_top" xlink:title="Check if the game ended in a draw.">
<polygon fill="white" stroke="#666666" points="286,-52 161,-52 161,-22 286,-22 286,-52"/>
<text text-anchor="start" x="169" y="-40" font-family="Helvetica,sans-Serif" font-size="10.00">Numerical_X_O_Board</text>
<text text-anchor="middle" x="223.5" y="-29" font-family="Helvetica,sans-Serif" font-size="10.00">::is_draw</text>
</a>
</g>
</g>
<!-- Node1&#45;&gt;Node2 -->
<g id="edge1_Node000001_Node000002" class="edge">
<title>Node1&#45;&gt;Node2</title>
<g id="a_edge1_Node000001_Node000002"><a xlink:title=" ">
<path fill="none" stroke="#63b8ff" d="M125.43,-23.57C133.67,-24.71 142.18,-25.89 150.58,-27.05"/>
<polygon fill="#63b8ff" stroke="#63b8ff" points="150.35,-30.55 160.74,-28.45 151.31,-23.62 150.35,-30.55"/>
</a>
</g>
</g>
<!-- Node3 -->
<g id="Node000003" class="node">
<title>Node3</title>
<g id="a_Node000003"><a xlink:href="classNumerical__X__O__Board.html#a0940816900ed8bf06b0cd49d70b443fd" target="_top" xlink:title="Check if a player has won.">
<polygon fill="white" stroke="#666666" points="447,-30 322,-30 322,0 447,0 447,-30"/>
<text text-anchor="start" x="330" y="-18" font-family="Helvetica,sans-Serif" font-size="10.00">Numerical_X_O_Board</text>
<text text-anchor="middle" x="384.5" y="-7" font-family="Helvetica,sans-Serif" font-size="10.00">::is_win</text>
</a>
</g>
</g>
<!-- Node1&#45;&gt;Node3 -->
<g id="edge4_Node000001_Node000003" class="edge">
<title>Node1&#45;&gt;Node3</title>
<g id="a_edge4_Node000001_Node000003"><a xlink:title=" ">
<path fill="none" stroke="#63b8ff" d="M125.13,-13.54C137.03,-13.32 149.4,-13.12 161,-13 216.55,-12.43 230.45,-12.43 286,-13 294.34,-13.09 303.07,-13.21 311.74,-13.36"/>
<polygon fill="#63b8ff" stroke="#63b8ff" points="311.81,-16.86 321.87,-13.54 311.93,-9.86 311.81,-16.86"/>
</a>
</g>
</g>
<!-- Node2&#45;&gt;Node3 -->
<g id="edge2_Node000002_Node000003" class="edge">
<title>Node2&#45;&gt;Node3</title>
<g id="a_edge2_Node000002_Node000003"><a xlink:title=" ">
<path fill="none" stroke="#63b8ff" d="M286.43,-28.43C294.67,-27.29 303.18,-26.11 311.58,-24.95"/>
<polygon fill="#63b8ff" stroke="#63b8ff" points="312.31,-28.38 321.74,-23.55 311.35,-21.45 312.31,-28.38"/>
</a>
</g>
</g>
<!-- Node4 -->
<g id="Node000004" class="node">
<title>Node4</title>
<g id="a_Node000004"><a xlink:href="classPlayer.html#af56f0bf98c0423a3a75b0848607d03a4" target="_top" xlink:title="Get the player&#39;s symbol.">
<polygon fill="white" stroke="#666666" points="593,-24.5 483,-24.5 483,-5.5 593,-5.5 593,-24.5"/>
<text text-anchor="middle" x="538" y="-12.5" font-family="Helvetica,sans-Serif" font-size="10.00">Player::get_symbol</text>
</a>
</g>
</g>
<!-- Node3&#45;&gt;Node4 -->
<g id="edge3_Node000003_Node000004" class="edge">
<title>Node3&#45;&gt;Node4</title>
<g id="a_edge3_Node000003_Node000004"><a xlink:title=" ">
<path fill="none" stroke="#63b8ff" d="M447.12,-15C455.51,-15 464.13,-15 472.57,-15"/>
<polygon fill="#63b8ff" stroke="#63b8ff" points="472.73,-18.5 482.73,-15 472.73,-11.5 472.73,-18.5"/>
</a>
</g>
</g>
</g>
</svg>
