<?xml version="1.0" encoding="UTF-8" standalone="no"?>
<!DOCTYPE svg PUBLIC "-//W3C//DTD SVG 1.1//EN"
 "http://www.w3.org/Graphics/SVG/1.1/DTD/svg11.dtd">
<!-- Generated by graphviz version 2.43.0 (0)
 -->
<!-- Title: SUS_SmartPlayer::score_line Pages: 1 -->
<svg width="726pt" height="51pt"
 viewBox="0.00 0.00 726.00 50.50" xmlns="http://www.w3.org/2000/svg" xmlns:xlink="http://www.w3.org/1999/xlink">
<g id="graph0" class="graph" transform="scale(1 1) rotate(0) translate(4 46.5)">
<title>SUS_SmartPlayer::score_line</title>
<!-- Node1 -->
<g id="Node000001" class="node">
<title>Node1</title>
<g id="a_Node000001"><a xlink:title=" ">
<polygon fill="#999999" stroke="#666666" points="718,-24.5 561,-24.5 561,-5.5 718,-5.5 718,-24.5"/>
<text text-anchor="middle" x="639.5" y="-12.5" font-family="Helvetica,sans-Serif" font-size="10.00">SUS_SmartPlayer::score_line</text>
</a>
</g>
</g>
<!-- Node2 -->
<g id="Node000002" class="node">
<title>Node2</title>
<g id="a_Node000002"><a xlink:href="classSUS__SmartPlayer.html#ab30f91013d7c1ce971a56d4697cdd841" target="_top" xlink:title=" ">
<polygon fill="white" stroke="#666666" points="525,-30 375,-30 375,0 525,0 525,-30"/>
<text text-anchor="start" x="383" y="-18" font-family="Helvetica,sans-Serif" font-size="10.00">SUS_SmartPlayer::evaluate</text>
<text text-anchor="middle" x="450" y="-7" font-family="Helvetica,sans-Serif" font-size="10.00">_board</text>
</a>
</g>
</g>
<!-- Node1&#45;&gt;Node2 -->
<g id="edge1_Node000001_Node000002" class="edge">
<title>Node1&#45;&gt;Node2</title>
<g id="a_edge1_Node000001_Node000002"><a xlink:title=" ">
<path fill="none" stroke="#63b8ff" d="M550.87,-15C542.3,-15 533.66,-15 525.24,-15"/>
<polygon fill="#63b8ff" stroke="#63b8ff" points="550.88,-18.5 560.88,-15 550.88,-11.5 550.88,-18.5"/>
</a>
</g>
</g>
<!-- Node3 -->
<g id="Node000003" class="node">
<title>Node3</title>
<g id="a_Node000003"><a xlink:href="classSUS__SmartPlayer.html#a12997b1bc461e8622940323f673cc5ec" target="_top" xlink:title=" ">
<polygon fill="white" stroke="#666666" points="339,-24.5 188,-24.5 188,-5.5 339,-5.5 339,-24.5"/>
<text text-anchor="middle" x="263.5" y="-12.5" font-family="Helvetica,sans-Serif" font-size="10.00">SUS_SmartPlayer::minimax</text>
</a>
</g>
</g>
<!-- Node2&#45;&gt;Node3 -->
<g id="edge2_Node000002_Node000003" class="edge">
<title>Node2&#45;&gt;Node3</title>
<g id="a_edge2_Node000002_Node000003"><a xlink:title=" ">
<path fill="none" stroke="#63b8ff" d="M364.51,-15C356.07,-15 347.53,-15 339.19,-15"/>
<polygon fill="#63b8ff" stroke="#63b8ff" points="364.75,-18.5 374.75,-15 364.75,-11.5 364.75,-18.5"/>
</a>
</g>
</g>
<!-- Node3&#45;&gt;Node3 -->
<g id="edge4_Node000003_Node000003" class="edge">
<title>Node3&#45;&gt;Node3</title>
<g id="a_edge4_Node000003_Node000003"><a xlink:title=" ">
<path fill="none" stroke="#63b8ff" d="M298.36,-32.57C297.85,-38.12 286.23,-42.5 263.5,-42.5 230.44,-42.5 220.89,-33.23 234.83,-24.58"/>
<polygon fill="#63b8ff" stroke="#63b8ff" points="301.06,-30.34 292.17,-24.58 295.53,-34.63 301.06,-30.34"/>
</a>
</g>
</g>
<!-- Node4 -->
<g id="Node000004" class="node">
<title>Node4</title>
<g id="a_Node000004"><a xlink:href="classSUS__SmartPlayer.html#a0bdb4e9b63a7fabb9e95c31ba7a5dc02" target="_top" xlink:title=" ">
<polygon fill="white" stroke="#666666" points="152,-30 0,-30 0,0 152,0 152,-30"/>
<text text-anchor="start" x="8" y="-18" font-family="Helvetica,sans-Serif" font-size="10.00">SUS_SmartPlayer::calculate</text>
<text text-anchor="middle" x="76" y="-7" font-family="Helvetica,sans-Serif" font-size="10.00">Move2</text>
</a>
</g>
</g>
<!-- Node3&#45;&gt;Node4 -->
<g id="edge3_Node000003_Node000004" class="edge">
<title>Node3&#45;&gt;Node4</title>
<g id="a_edge3_Node000003_Node000004"><a xlink:title=" ">
<path fill="none" stroke="#63b8ff" d="M177.84,-15C169.25,-15 160.57,-15 152.1,-15"/>
<polygon fill="#63b8ff" stroke="#63b8ff" points="177.85,-18.5 187.85,-15 177.85,-11.5 177.85,-18.5"/>
</a>
</g>
</g>
</g>
</svg>
