<?xml version="1.0" encoding="UTF-8" standalone="no"?>
<!DOCTYPE svg PUBLIC "-//W3C//DTD SVG 1.1//EN"
 "http://www.w3.org/Graphics/SVG/1.1/DTD/svg11.dtd">
<!-- Generated by graphviz version 2.43.0 (0)
 -->
<!-- Title: smartPlayer::is_win Pages: 1 -->
<svg width="821pt" height="119pt"
 viewBox="0.00 0.00 821.00 119.00" xmlns="http://www.w3.org/2000/svg" xmlns:xlink="http://www.w3.org/1999/xlink">
<g id="graph0" class="graph" transform="scale(1 1) rotate(0) translate(4 115)">
<title>smartPlayer::is_win</title>
<!-- Node1 -->
<g id="Node000001" class="node">
<title>Node1</title>
<g id="a_Node000001"><a xlink:title=" ">
<polygon fill="#999999" stroke="#666666" points="813,-69 700,-69 700,-50 813,-50 813,-69"/>
<text text-anchor="middle" x="756.5" y="-57" font-family="Helvetica,sans-Serif" font-size="10.00">smartPlayer::is_win</text>
</a>
</g>
</g>
<!-- Node2 -->
<g id="Node000002" class="node">
<title>Node2</title>
<g id="a_Node000002"><a xlink:href="classsmartPlayer.html#a046e18221d92303afd36dca43d859898" target="_top" xlink:title=" ">
<polygon fill="white" stroke="#666666" points="664,-69 545,-69 545,-50 664,-50 664,-69"/>
<text text-anchor="middle" x="604.5" y="-57" font-family="Helvetica,sans-Serif" font-size="10.00">smartPlayer::is_draw</text>
</a>
</g>
</g>
<!-- Node1&#45;&gt;Node2 -->
<g id="edge1_Node000001_Node000002" class="edge">
<title>Node1&#45;&gt;Node2</title>
<g id="a_edge1_Node000001_Node000002"><a xlink:title=" ">
<path fill="none" stroke="#63b8ff" d="M689.47,-59.5C681.04,-59.5 672.46,-59.5 664.16,-59.5"/>
<polygon fill="#63b8ff" stroke="#63b8ff" points="689.65,-63 699.65,-59.5 689.65,-56 689.65,-63"/>
</a>
</g>
</g>
<!-- Node6 -->
<g id="Node000006" class="node">
<title>Node6</title>
<g id="a_Node000006"><a xlink:href="classsmartPlayer.html#a813fa8a35e205952685fc055af8a8e48" target="_top" xlink:title=" ">
<polygon fill="white" stroke="#666666" points="509,-19 384,-19 384,0 509,0 509,-19"/>
<text text-anchor="middle" x="446.5" y="-7" font-family="Helvetica,sans-Serif" font-size="10.00">smartPlayer::minimax</text>
</a>
</g>
</g>
<!-- Node1&#45;&gt;Node6 -->
<g id="edge11_Node000001_Node000006" class="edge">
<title>Node1&#45;&gt;Node6</title>
<g id="a_edge11_Node000001_Node000006"><a xlink:title=" ">
<path fill="none" stroke="#63b8ff" d="M702.44,-47.9C689.87,-45.31 676.48,-42.69 664,-40.5 612.01,-31.39 552.65,-23.03 509.25,-17.3"/>
<polygon fill="#63b8ff" stroke="#63b8ff" points="701.82,-51.34 712.32,-49.96 703.24,-44.49 701.82,-51.34"/>
</a>
</g>
</g>
<!-- Node8 -->
<g id="Node000008" class="node">
<title>Node8</title>
<g id="a_Node000008"><a xlink:href="classsmartPlayer2.html#a36169753eb8ba31207c80de1769c9ceb" target="_top" xlink:title=" ">
<polygon fill="white" stroke="#666666" points="664,-109 545,-109 545,-90 664,-90 664,-109"/>
<text text-anchor="middle" x="604.5" y="-97" font-family="Helvetica,sans-Serif" font-size="10.00">smartPlayer2::is_win</text>
</a>
</g>
</g>
<!-- Node1&#45;&gt;Node8 -->
<g id="edge9_Node000001_Node000008" class="edge">
<title>Node1&#45;&gt;Node8</title>
<g id="a_edge9_Node000001_Node000008"><a xlink:title=" ">
<path fill="none" stroke="#63b8ff" d="M709.76,-71.7C687.72,-77.58 661.68,-84.52 641.14,-90"/>
<polygon fill="#63b8ff" stroke="#63b8ff" points="710.81,-75.04 719.57,-69.08 709.01,-68.28 710.81,-75.04"/>
</a>
</g>
</g>
<!-- Node3 -->
<g id="Node000003" class="node">
<title>Node3</title>
<g id="a_Node000003"><a xlink:href="classsmartPlayer2.html#acf253a6afb2216922e6a1184c7b50a14" target="_top" xlink:title=" ">
<polygon fill="white" stroke="#666666" points="509,-74 384,-74 384,-55 509,-55 509,-74"/>
<text text-anchor="middle" x="446.5" y="-62" font-family="Helvetica,sans-Serif" font-size="10.00">smartPlayer2::is_draw</text>
</a>
</g>
</g>
<!-- Node2&#45;&gt;Node3 -->
<g id="edge2_Node000002_Node000003" class="edge">
<title>Node2&#45;&gt;Node3</title>
<g id="a_edge2_Node000002_Node000003"><a xlink:title=" ">
<path fill="none" stroke="#63b8ff" d="M534.72,-61.7C526.23,-61.98 517.6,-62.25 509.23,-62.52"/>
<polygon fill="#63b8ff" stroke="#63b8ff" points="535.08,-65.19 544.97,-61.38 534.86,-58.2 535.08,-65.19"/>
</a>
</g>
</g>
<!-- Node2&#45;&gt;Node6 -->
<g id="edge6_Node000002_Node000006" class="edge">
<title>Node2&#45;&gt;Node6</title>
<g id="a_edge6_Node000002_Node000006"><a xlink:title=" ">
<path fill="none" stroke="#63b8ff" d="M564.27,-46.93C537.3,-38.28 502.05,-26.98 477.36,-19.07"/>
<polygon fill="#63b8ff" stroke="#63b8ff" points="563.2,-50.26 573.79,-49.98 565.34,-43.59 563.2,-50.26"/>
</a>
</g>
</g>
<!-- Node4 -->
<g id="Node000004" class="node">
<title>Node4</title>
<g id="a_Node000004"><a xlink:href="classsmartPlayer2.html#a8212944143d4baa2e7b05bca584a0e77" target="_top" xlink:title=" ">
<polygon fill="white" stroke="#666666" points="337,-93 206,-93 206,-74 337,-74 337,-93"/>
<text text-anchor="middle" x="271.5" y="-81" font-family="Helvetica,sans-Serif" font-size="10.00">smartPlayer2::minimax</text>
</a>
</g>
</g>
<!-- Node3&#45;&gt;Node4 -->
<g id="edge3_Node000003_Node000004" class="edge">
<title>Node3&#45;&gt;Node4</title>
<g id="a_edge3_Node000003_Node000004"><a xlink:title=" ">
<path fill="none" stroke="#63b8ff" d="M373.54,-72.4C361.5,-73.73 349.08,-75.09 337.25,-76.39"/>
<polygon fill="#63b8ff" stroke="#63b8ff" points="373.97,-75.88 383.53,-71.31 373.21,-68.92 373.97,-75.88"/>
</a>
</g>
</g>
<!-- Node4&#45;&gt;Node4 -->
<g id="edge5_Node000004_Node000004" class="edge">
<title>Node4&#45;&gt;Node4</title>
<g id="a_edge5_Node000004_Node000004"><a xlink:title=" ">
<path fill="none" stroke="#63b8ff" d="M304.06,-101.45C303.13,-106.82 292.28,-111 271.5,-111 240.57,-111 231.63,-101.73 244.68,-93.08"/>
<polygon fill="#63b8ff" stroke="#63b8ff" points="306.86,-99.35 298.32,-93.08 301.09,-103.31 306.86,-99.35"/>
</a>
</g>
</g>
<!-- Node5 -->
<g id="Node000005" class="node">
<title>Node5</title>
<g id="a_Node000005"><a xlink:href="classsmartPlayer2.html#af51ff0c3115f5dc34fce64958c52beb2" target="_top" xlink:title=" ">
<polygon fill="white" stroke="#666666" points="159,-93 0,-93 0,-74 159,-74 159,-93"/>
<text text-anchor="middle" x="79.5" y="-81" font-family="Helvetica,sans-Serif" font-size="10.00">smartPlayer2::calculateMove</text>
</a>
</g>
</g>
<!-- Node4&#45;&gt;Node5 -->
<g id="edge4_Node000004_Node000005" class="edge">
<title>Node4&#45;&gt;Node5</title>
<g id="a_edge4_Node000004_Node000005"><a xlink:title=" ">
<path fill="none" stroke="#63b8ff" d="M195.88,-83.5C183.79,-83.5 171.24,-83.5 159.06,-83.5"/>
<polygon fill="#63b8ff" stroke="#63b8ff" points="195.91,-87 205.91,-83.5 195.91,-80 195.91,-87"/>
</a>
</g>
</g>
<!-- Node6&#45;&gt;Node6 -->
<g id="edge8_Node000006_Node000006" class="edge">
<title>Node6&#45;&gt;Node6</title>
<g id="a_edge8_Node000006_Node000006"><a xlink:title=" ">
<path fill="none" stroke="#63b8ff" d="M475.99,-27.82C474.76,-33.01 464.93,-37 446.5,-37 418.42,-37 410.3,-27.73 422.15,-19.08"/>
<polygon fill="#63b8ff" stroke="#63b8ff" points="478.94,-25.93 470.85,-19.08 472.91,-29.48 478.94,-25.93"/>
</a>
</g>
</g>
<!-- Node7 -->
<g id="Node000007" class="node">
<title>Node7</title>
<g id="a_Node000007"><a xlink:href="classsmartPlayer.html#a6064105bc4b494d926db58ff05c98aaa" target="_top" xlink:title=" ">
<polygon fill="white" stroke="#666666" points="348,-19 195,-19 195,0 348,0 348,-19"/>
<text text-anchor="middle" x="271.5" y="-7" font-family="Helvetica,sans-Serif" font-size="10.00">smartPlayer::calculateMove</text>
</a>
</g>
</g>
<!-- Node6&#45;&gt;Node7 -->
<g id="edge7_Node000006_Node000007" class="edge">
<title>Node6&#45;&gt;Node7</title>
<g id="a_edge7_Node000006_Node000007"><a xlink:title=" ">
<path fill="none" stroke="#63b8ff" d="M373.48,-9.5C365.14,-9.5 356.62,-9.5 348.23,-9.5"/>
<polygon fill="#63b8ff" stroke="#63b8ff" points="373.53,-13 383.53,-9.5 373.53,-6 373.53,-13"/>
</a>
</g>
</g>
<!-- Node8&#45;&gt;Node4 -->
<g id="edge10_Node000008_Node000004" class="edge">
<title>Node8&#45;&gt;Node4</title>
<g id="a_edge10_Node000008_Node000004"><a xlink:title=" ">
<path fill="none" stroke="#63b8ff" d="M534.52,-96.17C476.48,-93.36 394.08,-89.38 337.26,-86.63"/>
<polygon fill="#63b8ff" stroke="#63b8ff" points="534.55,-99.67 544.71,-96.66 534.89,-92.68 534.55,-99.67"/>
</a>
</g>
</g>
</g>
</svg>
