<?xml version="1.0" encoding="UTF-8" standalone="no"?>
<!DOCTYPE svg PUBLIC "-//W3C//DTD SVG 1.1//EN"
 "http://www.w3.org/Graphics/SVG/1.1/DTD/svg11.dtd">
<!-- Generated by graphviz version 2.43.0 (0)
 -->
<!-- Title: SUS_SmartPlayer::minimax Pages: 1 -->
<svg width="538pt" height="161pt"
 viewBox="0.00 0.00 538.00 160.50" xmlns="http://www.w3.org/2000/svg" xmlns:xlink="http://www.w3.org/1999/xlink">
<g id="graph0" class="graph" transform="scale(1 1) rotate(0) translate(4 156.5)">
<title>SUS_SmartPlayer::minimax</title>
<!-- Node1 -->
<g id="Node000001" class="node">
<title>Node1</title>
<g id="a_Node000001"><a xlink:title=" ">
<polygon fill="#999999" stroke="#666666" points="151,-77 0,-77 0,-58 151,-58 151,-77"/>
<text text-anchor="middle" x="75.5" y="-65" font-family="Helvetica,sans-Serif" font-size="10.00">SUS_SmartPlayer::minimax</text>
</a>
</g>
</g>
<!-- Node1&#45;&gt;Node1 -->
<g id="edge6_Node000001_Node000001" class="edge">
<title>Node1&#45;&gt;Node1</title>
<g id="a_edge6_Node000001_Node000001"><a xlink:title=" ">
<path fill="none" stroke="#63b8ff" d="M46.83,-77.08C32.89,-85.73 42.44,-95 75.5,-95 98.23,-95 109.85,-90.62 110.36,-85.07"/>
<polygon fill="#63b8ff" stroke="#63b8ff" points="113.06,-82.84 104.17,-77.08 107.53,-87.13 113.06,-82.84"/>
</a>
</g>
</g>
<!-- Node2 -->
<g id="Node000002" class="node">
<title>Node2</title>
<g id="a_Node000002"><a xlink:href="classSUS__SmartPlayer.html#ab30f91013d7c1ce971a56d4697cdd841" target="_top" xlink:title=" ">
<polygon fill="white" stroke="#666666" points="337,-152.5 187,-152.5 187,-122.5 337,-122.5 337,-152.5"/>
<text text-anchor="start" x="195" y="-140.5" font-family="Helvetica,sans-Serif" font-size="10.00">SUS_SmartPlayer::evaluate</text>
<text text-anchor="middle" x="262" y="-129.5" font-family="Helvetica,sans-Serif" font-size="10.00">_board</text>
</a>
</g>
</g>
<!-- Node1&#45;&gt;Node2 -->
<g id="edge1_Node000001_Node000002" class="edge">
<title>Node1&#45;&gt;Node2</title>
<g id="a_edge1_Node000001_Node000002"><a xlink:title=" ">
<path fill="none" stroke="#63b8ff" d="M97.89,-77.01C120,-86.7 155.62,-101.9 187,-113.5 192.15,-115.4 197.52,-117.31 202.93,-119.16"/>
<polygon fill="#63b8ff" stroke="#63b8ff" points="202.05,-122.56 212.64,-122.44 204.28,-115.92 202.05,-122.56"/>
</a>
</g>
</g>
<!-- Node4 -->
<g id="Node000004" class="node">
<title>Node4</title>
<g id="a_Node000004"><a xlink:href="classsmartPlayer.html#a046e18221d92303afd36dca43d859898" target="_top" xlink:title=" ">
<polygon fill="white" stroke="#666666" points="321.5,-104.5 202.5,-104.5 202.5,-74.5 321.5,-74.5 321.5,-104.5"/>
<text text-anchor="start" x="210.5" y="-92.5" font-family="Helvetica,sans-Serif" font-size="10.00">smartPlayer&lt; char &gt;</text>
<text text-anchor="middle" x="262" y="-81.5" font-family="Helvetica,sans-Serif" font-size="10.00">::is_draw</text>
</a>
</g>
</g>
<!-- Node1&#45;&gt;Node4 -->
<g id="edge3_Node000001_Node000004" class="edge">
<title>Node1&#45;&gt;Node4</title>
<g id="a_edge3_Node000001_Node000004"><a xlink:title=" ">
<path fill="none" stroke="#63b8ff" d="M151.01,-76.38C164.64,-78.01 178.8,-79.7 192.25,-81.3"/>
<polygon fill="#63b8ff" stroke="#63b8ff" points="192.04,-84.8 202.38,-82.51 192.87,-77.85 192.04,-84.8"/>
</a>
</g>
</g>
<!-- Node5 -->
<g id="Node000005" class="node">
<title>Node5</title>
<g id="a_Node000005"><a xlink:href="classSUS__SmartPlayer.html#a61507481e4a30112152cbfdb2247f7ab" target="_top" xlink:title=" ">
<polygon fill="white" stroke="#666666" points="331,-56 193,-56 193,-37 331,-37 331,-56"/>
<text text-anchor="middle" x="262" y="-44" font-family="Helvetica,sans-Serif" font-size="10.00">SUS_SmartPlayer::is_win</text>
</a>
</g>
</g>
<!-- Node1&#45;&gt;Node5 -->
<g id="edge4_Node000001_Node000005" class="edge">
<title>Node1&#45;&gt;Node5</title>
<g id="a_edge4_Node000001_Node000005"><a xlink:title=" ">
<path fill="none" stroke="#63b8ff" d="M151.01,-59.02C161.47,-57.83 172.25,-56.6 182.77,-55.4"/>
<polygon fill="#63b8ff" stroke="#63b8ff" points="183.23,-58.87 192.77,-54.27 182.44,-51.92 183.23,-58.87"/>
</a>
</g>
</g>
<!-- Node7 -->
<g id="Node000007" class="node">
<title>Node7</title>
<g id="a_Node000007"><a xlink:href="classPlayer.html#adb4e803a7ac0356b111b8ca79d766976" target="_top" xlink:title="Construct a player with name, symbol, and type.">
<polygon fill="white" stroke="#666666" points="304,-19 220,-19 220,0 304,0 304,-19"/>
<text text-anchor="middle" x="262" y="-7" font-family="Helvetica,sans-Serif" font-size="10.00">Player::Player</text>
</a>
</g>
</g>
<!-- Node1&#45;&gt;Node7 -->
<g id="edge7_Node000001_Node000007" class="edge">
<title>Node1&#45;&gt;Node7</title>
<g id="a_edge7_Node000001_Node000007"><a xlink:title=" ">
<path fill="none" stroke="#63b8ff" d="M100.39,-58C122.6,-49.37 156.72,-36.63 187,-27.5 194.31,-25.3 202.08,-23.17 209.74,-21.2"/>
<polygon fill="#63b8ff" stroke="#63b8ff" points="210.84,-24.53 219.69,-18.71 209.14,-17.74 210.84,-24.53"/>
</a>
</g>
</g>
<!-- Node3 -->
<g id="Node000003" class="node">
<title>Node3</title>
<g id="a_Node000003"><a xlink:href="classSUS__SmartPlayer.html#ac863026d3597041ff7a39c9e732efe1a" target="_top" xlink:title=" ">
<polygon fill="white" stroke="#666666" points="530,-147 373,-147 373,-128 530,-128 530,-147"/>
<text text-anchor="middle" x="451.5" y="-135" font-family="Helvetica,sans-Serif" font-size="10.00">SUS_SmartPlayer::score_line</text>
</a>
</g>
</g>
<!-- Node2&#45;&gt;Node3 -->
<g id="edge2_Node000002_Node000003" class="edge">
<title>Node2&#45;&gt;Node3</title>
<g id="a_edge2_Node000002_Node000003"><a xlink:title=" ">
<path fill="none" stroke="#63b8ff" d="M337.1,-137.5C345.57,-137.5 354.25,-137.5 362.87,-137.5"/>
<polygon fill="#63b8ff" stroke="#63b8ff" points="362.93,-141 372.93,-137.5 362.93,-134 362.93,-141"/>
</a>
</g>
</g>
<!-- Node6 -->
<g id="Node000006" class="node">
<title>Node6</title>
<g id="a_Node000006"><a xlink:href="classSUS__SmartPlayer.html#aa40dcb9df49cf3eb6f32c88e9f25e9e4" target="_top" xlink:title=" ">
<polygon fill="white" stroke="#666666" points="509.5,-61.5 393.5,-61.5 393.5,-31.5 509.5,-31.5 509.5,-61.5"/>
<text text-anchor="start" x="401.5" y="-49.5" font-family="Helvetica,sans-Serif" font-size="10.00">SUS_SmartPlayer::is</text>
<text text-anchor="middle" x="451.5" y="-38.5" font-family="Helvetica,sans-Serif" font-size="10.00">_valid_word</text>
</a>
</g>
</g>
<!-- Node5&#45;&gt;Node6 -->
<g id="edge5_Node000005_Node000006" class="edge">
<title>Node5&#45;&gt;Node6</title>
<g id="a_edge5_Node000005_Node000006"><a xlink:title=" ">
<path fill="none" stroke="#63b8ff" d="M331.22,-46.5C348.13,-46.5 366.24,-46.5 383.11,-46.5"/>
<polygon fill="#63b8ff" stroke="#63b8ff" points="383.43,-50 393.43,-46.5 383.43,-43 383.43,-50"/>
</a>
</g>
</g>
</g>
</svg>
