<?xml version="1.0" encoding="UTF-8" standalone="no"?>
<!DOCTYPE svg PUBLIC "-//W3C//DTD SVG 1.1//EN"
 "http://www.w3.org/Graphics/SVG/1.1/DTD/svg11.dtd">
<!-- Generated by graphviz version 2.43.0 (0)
 -->
<!-- Title: X_O_5x5_Board::is_lose Pages: 1 -->
<svg width="453pt" height="27pt"
 viewBox="0.00 0.00 453.00 27.00" xmlns="http://www.w3.org/2000/svg" xmlns:xlink="http://www.w3.org/1999/xlink">
<g id="graph0" class="graph" transform="scale(1 1) rotate(0) translate(4 23)">
<title>X_O_5x5_Board::is_lose</title>
<!-- Node1 -->
<g id="Node000001" class="node">
<title>Node1</title>
<g id="a_Node000001"><a xlink:title="Check if a player has lost.">
<polygon fill="#999999" stroke="#666666" points="133,-19 0,-19 0,0 133,0 133,-19"/>
<text text-anchor="middle" x="66.5" y="-7" font-family="Helvetica,sans-Serif" font-size="10.00">X_O_5x5_Board::is_lose</text>
</a>
</g>
</g>
<!-- Node2 -->
<g id="Node000002" class="node">
<title>Node2</title>
<g id="a_Node000002"><a xlink:href="classX__O__5x5__Board.html#a90eeba3a2b960065c81ab50b08997da5" target="_top" xlink:title="Check if a player has won.">
<polygon fill="white" stroke="#666666" points="299,-19 169,-19 169,0 299,0 299,-19"/>
<text text-anchor="middle" x="234" y="-7" font-family="Helvetica,sans-Serif" font-size="10.00">X_O_5x5_Board::is_win</text>
</a>
</g>
</g>
<!-- Node1&#45;&gt;Node2 -->
<g id="edge1_Node000001_Node000002" class="edge">
<title>Node1&#45;&gt;Node2</title>
<g id="a_edge1_Node000001_Node000002"><a xlink:title=" ">
<path fill="none" stroke="#63b8ff" d="M133.39,-9.5C141.72,-9.5 150.29,-9.5 158.74,-9.5"/>
<polygon fill="#63b8ff" stroke="#63b8ff" points="158.96,-13 168.96,-9.5 158.96,-6 158.96,-13"/>
</a>
</g>
</g>
<!-- Node3 -->
<g id="Node000003" class="node">
<title>Node3</title>
<g id="a_Node000003"><a xlink:href="classPlayer.html#af56f0bf98c0423a3a75b0848607d03a4" target="_top" xlink:title="Get the player&#39;s symbol.">
<polygon fill="white" stroke="#666666" points="445,-19 335,-19 335,0 445,0 445,-19"/>
<text text-anchor="middle" x="390" y="-7" font-family="Helvetica,sans-Serif" font-size="10.00">Player::get_symbol</text>
</a>
</g>
</g>
<!-- Node2&#45;&gt;Node3 -->
<g id="edge2_Node000002_Node000003" class="edge">
<title>Node2&#45;&gt;Node3</title>
<g id="a_edge2_Node000002_Node000003"><a xlink:title=" ">
<path fill="none" stroke="#63b8ff" d="M299.42,-9.5C307.74,-9.5 316.26,-9.5 324.58,-9.5"/>
<polygon fill="#63b8ff" stroke="#63b8ff" points="324.6,-13 334.6,-9.5 324.6,-6 324.6,-13"/>
</a>
</g>
</g>
</g>
</svg>
