<?xml version="1.0" encoding="UTF-8" standalone="no"?>
<!DOCTYPE svg PUBLIC "-//W3C//DTD SVG 1.1//EN"
 "http://www.w3.org/Graphics/SVG/1.1/DTD/svg11.dtd">
<!-- Generated by graphviz version 2.43.0 (0)
 -->
<!-- Title: Pyramid_XO_Board::is_win Pages: 1 -->
<svg width="522pt" height="52pt"
 viewBox="0.00 0.00 522.00 51.50" xmlns="http://www.w3.org/2000/svg" xmlns:xlink="http://www.w3.org/1999/xlink">
<g id="graph0" class="graph" transform="scale(1 1) rotate(0) translate(4 47.5)">
<title>Pyramid_XO_Board::is_win</title>
<!-- Node1 -->
<g id="Node000001" class="node">
<title>Node1</title>
<g id="a_Node000001"><a xlink:title="Checks if the given player has won the game.">
<polygon fill="#999999" stroke="#666666" points="514,-38 368,-38 368,-19 514,-19 514,-38"/>
<text text-anchor="middle" x="441" y="-26" font-family="Helvetica,sans-Serif" font-size="10.00">Pyramid_XO_Board::is_win</text>
</a>
</g>
</g>
<!-- Node2 -->
<g id="Node000002" class="node">
<title>Node2</title>
<g id="a_Node000002"><a xlink:href="classPyramid__XO__Board.html#a4ea52230886944457ad5dfd1d8732da7" target="_top" xlink:title="Determines if the game is over (win or draw).">
<polygon fill="white" stroke="#666666" points="143,-43.5 0,-43.5 0,-13.5 143,-13.5 143,-43.5"/>
<text text-anchor="start" x="8" y="-31.5" font-family="Helvetica,sans-Serif" font-size="10.00">Pyramid_XO_Board::game</text>
<text text-anchor="middle" x="71.5" y="-20.5" font-family="Helvetica,sans-Serif" font-size="10.00">_is_over</text>
</a>
</g>
</g>
<!-- Node1&#45;&gt;Node2 -->
<g id="edge1_Node000001_Node000002" class="edge">
<title>Node1&#45;&gt;Node2</title>
<g id="a_edge1_Node000001_Node000002"><a xlink:title=" ">
<path fill="none" stroke="#63b8ff" d="M357.7,-28.5C293.25,-28.5 204.54,-28.5 143.25,-28.5"/>
<polygon fill="#63b8ff" stroke="#63b8ff" points="357.83,-32 367.83,-28.5 357.83,-25 357.83,-32"/>
</a>
</g>
</g>
<!-- Node3 -->
<g id="Node000003" class="node">
<title>Node3</title>
<g id="a_Node000003"><a xlink:href="classPyramid__XO__Board.html#a8fe3a3f5772c0cda1eb6c847f6bdf39c" target="_top" xlink:title="Checks if the game has ended in a draw.">
<polygon fill="white" stroke="#666666" points="332,-19 179,-19 179,0 332,0 332,-19"/>
<text text-anchor="middle" x="255.5" y="-7" font-family="Helvetica,sans-Serif" font-size="10.00">Pyramid_XO_Board::is_draw</text>
</a>
</g>
</g>
<!-- Node1&#45;&gt;Node3 -->
<g id="edge2_Node000001_Node000003" class="edge">
<title>Node1&#45;&gt;Node3</title>
<g id="a_edge2_Node000001_Node000003"><a xlink:title=" ">
<path fill="none" stroke="#63b8ff" d="M357.75,-19.98C349.18,-19.1 340.5,-18.2 332.02,-17.32"/>
<polygon fill="#63b8ff" stroke="#63b8ff" points="357.43,-23.47 367.74,-21.02 358.15,-16.51 357.43,-23.47"/>
</a>
</g>
</g>
<!-- Node3&#45;&gt;Node2 -->
<g id="edge3_Node000003_Node000002" class="edge">
<title>Node3&#45;&gt;Node2</title>
<g id="a_edge3_Node000003_Node000002"><a xlink:title=" ">
<path fill="none" stroke="#63b8ff" d="M168.86,-18.44C160.27,-19.34 151.61,-20.24 143.2,-21.12"/>
<polygon fill="#63b8ff" stroke="#63b8ff" points="169.31,-21.91 178.9,-17.39 168.59,-14.95 169.31,-21.91"/>
</a>
</g>
</g>
</g>
</svg>
