<?xml version="1.0" encoding="UTF-8" standalone="no"?>
<!DOCTYPE svg PUBLIC "-//W3C//DTD SVG 1.1//EN"
 "http://www.w3.org/Graphics/SVG/1.1/DTD/svg11.dtd">
<!-- Generated by graphviz version 2.43.0 (0)
 -->
<!-- Title: smartPlayer::calculateMove Pages: 1 -->
<svg width="814pt" height="265pt"
 viewBox="0.00 0.00 814.00 265.00" xmlns="http://www.w3.org/2000/svg" xmlns:xlink="http://www.w3.org/1999/xlink">
<g id="graph0" class="graph" transform="scale(1 1) rotate(0) translate(4 261)">
<title>smartPlayer::calculateMove</title>
<!-- Node1 -->
<g id="Node000001" class="node">
<title>Node1</title>
<g id="a_Node000001"><a xlink:title=" ">
<polygon fill="#999999" stroke="#666666" points="153,-181 0,-181 0,-162 153,-162 153,-181"/>
<text text-anchor="middle" x="76.5" y="-169" font-family="Helvetica,sans-Serif" font-size="10.00">smartPlayer::calculateMove</text>
</a>
</g>
</g>
<!-- Node2 -->
<g id="Node000002" class="node">
<title>Node2</title>
<g id="a_Node000002"><a xlink:href="classPlayer.html#a508617eddfae8915d098102d480fc888" target="_top" xlink:title="Get a pointer to the game board.">
<polygon fill="white" stroke="#666666" points="312,-257 191,-257 191,-238 312,-238 312,-257"/>
<text text-anchor="middle" x="251.5" y="-245" font-family="Helvetica,sans-Serif" font-size="10.00">Player::get_board_ptr</text>
</a>
</g>
</g>
<!-- Node1&#45;&gt;Node2 -->
<g id="edge1_Node000001_Node000002" class="edge">
<title>Node1&#45;&gt;Node2</title>
<g id="a_edge1_Node000001_Node000002"><a xlink:title=" ">
<path fill="none" stroke="#63b8ff" d="M97.07,-181.09C119.2,-191.83 156.4,-209.55 189,-223.5 197.5,-227.14 206.75,-230.86 215.43,-234.26"/>
<polygon fill="#63b8ff" stroke="#63b8ff" points="214.33,-237.59 224.92,-237.94 216.86,-231.06 214.33,-237.59"/>
</a>
</g>
</g>
<!-- Node3 -->
<g id="Node000003" class="node">
<title>Node3</title>
<g id="a_Node000003"><a xlink:href="classsmartPlayer.html#afb2249c0850bf2f4debaece4f4df9bf3" target="_top" xlink:title=" ">
<polygon fill="white" stroke="#666666" points="660,-181.5 511,-181.5 511,-151.5 660,-151.5 660,-181.5"/>
<text text-anchor="start" x="519" y="-169.5" font-family="Helvetica,sans-Serif" font-size="10.00">smartPlayer::get_opponent</text>
<text text-anchor="middle" x="585.5" y="-158.5" font-family="Helvetica,sans-Serif" font-size="10.00">_symbol</text>
</a>
</g>
</g>
<!-- Node1&#45;&gt;Node3 -->
<g id="edge2_Node000001_Node000003" class="edge">
<title>Node1&#45;&gt;Node3</title>
<g id="a_edge2_Node000001_Node000003"><a xlink:title=" ">
<path fill="none" stroke="#63b8ff" d="M153.13,-170.75C246.31,-169.84 404.12,-168.28 500.85,-167.32"/>
<polygon fill="#63b8ff" stroke="#63b8ff" points="500.91,-170.82 510.88,-167.23 500.85,-163.82 500.91,-170.82"/>
</a>
</g>
</g>
<!-- Node4 -->
<g id="Node000004" class="node">
<title>Node4</title>
<g id="a_Node000004"><a xlink:href="classPlayer.html#af56f0bf98c0423a3a75b0848607d03a4" target="_top" xlink:title="Get the player&#39;s symbol.">
<polygon fill="white" stroke="#666666" points="806,-176 696,-176 696,-157 806,-157 806,-176"/>
<text text-anchor="middle" x="751" y="-164" font-family="Helvetica,sans-Serif" font-size="10.00">Player::get_symbol</text>
</a>
</g>
</g>
<!-- Node1&#45;&gt;Node4 -->
<g id="edge4_Node000001_Node000004" class="edge">
<title>Node1&#45;&gt;Node4</title>
<g id="a_edge4_Node000001_Node000004"><a xlink:title=" ">
<path fill="none" stroke="#63b8ff" d="M153.3,-180.54C165.23,-181.71 177.44,-182.75 189,-183.5 397.92,-196.99 452.42,-217.7 660,-190.5 677.23,-188.24 695.85,-183.65 711.66,-179.08"/>
<polygon fill="#63b8ff" stroke="#63b8ff" points="713.03,-182.33 721.61,-176.11 711.02,-175.62 713.03,-182.33"/>
</a>
</g>
</g>
<!-- Node5 -->
<g id="Node000005" class="node">
<title>Node5</title>
<g id="a_Node000005"><a xlink:href="classsmartPlayer.html#a813fa8a35e205952685fc055af8a8e48" target="_top" xlink:title=" ">
<polygon fill="white" stroke="#666666" points="314,-100 189,-100 189,-81 314,-81 314,-100"/>
<text text-anchor="middle" x="251.5" y="-88" font-family="Helvetica,sans-Serif" font-size="10.00">smartPlayer::minimax</text>
</a>
</g>
</g>
<!-- Node1&#45;&gt;Node5 -->
<g id="edge5_Node000001_Node000005" class="edge">
<title>Node1&#45;&gt;Node5</title>
<g id="a_edge5_Node000001_Node000005"><a xlink:title=" ">
<path fill="none" stroke="#63b8ff" d="M98.02,-161.89C128.46,-147.64 185.72,-120.83 220.75,-104.43"/>
<polygon fill="#63b8ff" stroke="#63b8ff" points="222.43,-107.51 230,-100.1 219.46,-101.17 222.43,-107.51"/>
</a>
</g>
</g>
<!-- Node9 -->
<g id="Node000009" class="node">
<title>Node9</title>
<g id="a_Node000009"><a xlink:href="classPlayer.html#adb4e803a7ac0356b111b8ca79d766976" target="_top" xlink:title="Construct a player with name, symbol, and type.">
<polygon fill="white" stroke="#666666" points="454.5,-19 370.5,-19 370.5,0 454.5,0 454.5,-19"/>
<text text-anchor="middle" x="412.5" y="-7" font-family="Helvetica,sans-Serif" font-size="10.00">Player::Player</text>
</a>
</g>
</g>
<!-- Node1&#45;&gt;Node9 -->
<g id="edge14_Node000001_Node000009" class="edge">
<title>Node1&#45;&gt;Node9</title>
<g id="a_edge14_Node000001_Node000009"><a xlink:title=" ">
<path fill="none" stroke="#63b8ff" d="M85.67,-161.75C102.78,-141.96 144.5,-96.87 189,-72.5 243.62,-42.59 313.74,-25.8 360.52,-17.2"/>
<polygon fill="#63b8ff" stroke="#63b8ff" points="361.19,-20.64 370.43,-15.44 359.97,-13.75 361.19,-20.64"/>
</a>
</g>
</g>
<!-- Node3&#45;&gt;Node4 -->
<g id="edge3_Node000003_Node000004" class="edge">
<title>Node3&#45;&gt;Node4</title>
<g id="a_edge3_Node000003_Node000004"><a xlink:title=" ">
<path fill="none" stroke="#63b8ff" d="M660.12,-166.5C668.68,-166.5 677.35,-166.5 685.77,-166.5"/>
<polygon fill="#63b8ff" stroke="#63b8ff" points="685.88,-170 695.88,-166.5 685.88,-163 685.88,-170"/>
</a>
</g>
</g>
<!-- Node5&#45;&gt;Node5 -->
<g id="edge12_Node000005_Node000005" class="edge">
<title>Node5&#45;&gt;Node5</title>
<g id="a_edge12_Node000005_Node000005"><a xlink:title=" ">
<path fill="none" stroke="#63b8ff" d="M226.84,-100.08C214.84,-108.73 223.06,-118 251.5,-118 270.16,-118 280.12,-114.01 281.37,-108.82"/>
<polygon fill="#63b8ff" stroke="#63b8ff" points="284.29,-106.88 276.16,-100.08 278.27,-110.47 284.29,-106.88"/>
</a>
</g>
</g>
<!-- Node6 -->
<g id="Node000006" class="node">
<title>Node6</title>
<g id="a_Node000006"><a xlink:href="classsmartPlayer.html#a2065c2b93e69c1851cd4d951f22b1ccb" target="_top" xlink:title=" ">
<polygon fill="white" stroke="#666666" points="475,-105.5 350,-105.5 350,-75.5 475,-75.5 475,-105.5"/>
<text text-anchor="start" x="358" y="-93.5" font-family="Helvetica,sans-Serif" font-size="10.00">smartPlayer::evaluate</text>
<text text-anchor="middle" x="412.5" y="-82.5" font-family="Helvetica,sans-Serif" font-size="10.00">_board</text>
</a>
</g>
</g>
<!-- Node5&#45;&gt;Node6 -->
<g id="edge6_Node000005_Node000006" class="edge">
<title>Node5&#45;&gt;Node6</title>
<g id="a_edge6_Node000005_Node000006"><a xlink:title=" ">
<path fill="none" stroke="#63b8ff" d="M314.43,-90.5C322.67,-90.5 331.18,-90.5 339.58,-90.5"/>
<polygon fill="#63b8ff" stroke="#63b8ff" points="339.74,-94 349.74,-90.5 339.74,-87 339.74,-94"/>
</a>
</g>
</g>
<!-- Node7 -->
<g id="Node000007" class="node">
<title>Node7</title>
<g id="a_Node000007"><a xlink:href="classsmartPlayer.html#a046e18221d92303afd36dca43d859898" target="_top" xlink:title=" ">
<polygon fill="white" stroke="#666666" points="472,-143 353,-143 353,-124 472,-124 472,-143"/>
<text text-anchor="middle" x="412.5" y="-131" font-family="Helvetica,sans-Serif" font-size="10.00">smartPlayer::is_draw</text>
</a>
</g>
</g>
<!-- Node5&#45;&gt;Node7 -->
<g id="edge7_Node000005_Node000007" class="edge">
<title>Node5&#45;&gt;Node7</title>
<g id="a_edge7_Node000005_Node000007"><a xlink:title=" ">
<path fill="none" stroke="#63b8ff" d="M287.79,-100.04C310.95,-106.31 341.44,-114.55 366.36,-121.29"/>
<polygon fill="#63b8ff" stroke="#63b8ff" points="365.74,-124.75 376.31,-123.98 367.57,-117.99 365.74,-124.75"/>
</a>
</g>
</g>
<!-- Node8 -->
<g id="Node000008" class="node">
<title>Node8</title>
<g id="a_Node000008"><a xlink:href="classsmartPlayer.html#a0c97a2045a733fbe524f424d6b7eb968" target="_top" xlink:title=" ">
<polygon fill="white" stroke="#666666" points="642,-76 529,-76 529,-57 642,-57 642,-76"/>
<text text-anchor="middle" x="585.5" y="-64" font-family="Helvetica,sans-Serif" font-size="10.00">smartPlayer::is_win</text>
</a>
</g>
</g>
<!-- Node5&#45;&gt;Node8 -->
<g id="edge11_Node000005_Node000008" class="edge">
<title>Node5&#45;&gt;Node8</title>
<g id="a_edge11_Node000005_Node000008"><a xlink:title=" ">
<path fill="none" stroke="#63b8ff" d="M283.32,-80.89C302.33,-75.47 327.33,-69.25 350,-66.5 406.67,-59.63 471.61,-60.28 518.76,-62.28"/>
<polygon fill="#63b8ff" stroke="#63b8ff" points="518.69,-65.78 528.84,-62.74 519.01,-58.79 518.69,-65.78"/>
</a>
</g>
</g>
<!-- Node5&#45;&gt;Node9 -->
<g id="edge13_Node000005_Node000009" class="edge">
<title>Node5&#45;&gt;Node9</title>
<g id="a_edge13_Node000005_Node000009"><a xlink:title=" ">
<path fill="none" stroke="#63b8ff" d="M267.3,-80.86C286.06,-68.87 319.64,-48.19 350,-33.5 357.86,-29.7 366.49,-26.03 374.73,-22.76"/>
<polygon fill="#63b8ff" stroke="#63b8ff" points="376.1,-25.98 384.16,-19.11 373.58,-19.46 376.1,-25.98"/>
</a>
</g>
</g>
<!-- Node7&#45;&gt;Node3 -->
<g id="edge8_Node000007_Node000003" class="edge">
<title>Node7&#45;&gt;Node3</title>
<g id="a_edge8_Node000007_Node000003"><a xlink:title=" ">
<path fill="none" stroke="#63b8ff" d="M462.96,-143.04C474.91,-145.35 488,-147.88 501.04,-150.39"/>
<polygon fill="#63b8ff" stroke="#63b8ff" points="500.49,-153.85 510.97,-152.31 501.82,-146.98 500.49,-153.85"/>
</a>
</g>
</g>
<!-- Node7&#45;&gt;Node4 -->
<g id="edge9_Node000007_Node000004" class="edge">
<title>Node7&#45;&gt;Node4</title>
<g id="a_edge9_Node000007_Node000004"><a xlink:title=" ">
<path fill="none" stroke="#63b8ff" d="M472.11,-131.97C522.27,-131.53 596.26,-132.96 660,-142.5 676.92,-145.03 695.23,-149.57 710.89,-154.03"/>
<polygon fill="#63b8ff" stroke="#63b8ff" points="710.18,-157.46 720.76,-156.92 712.15,-150.75 710.18,-157.46"/>
</a>
</g>
</g>
<!-- Node7&#45;&gt;Node8 -->
<g id="edge10_Node000007_Node000008" class="edge">
<title>Node7&#45;&gt;Node8</title>
<g id="a_edge10_Node000007_Node000008"><a xlink:title=" ">
<path fill="none" stroke="#63b8ff" d="M446.93,-123.93C456.1,-121.1 465.99,-117.85 475,-114.5 502.79,-104.15 533.66,-90.41 555.52,-80.28"/>
<polygon fill="#63b8ff" stroke="#63b8ff" points="557.02,-83.44 564.6,-76.04 554.06,-77.1 557.02,-83.44"/>
</a>
</g>
</g>
</g>
</svg>
