<?xml version="1.0" encoding="UTF-8" standalone="no"?>
<!DOCTYPE svg PUBLIC "-//W3C//DTD SVG 1.1//EN"
 "http://www.w3.org/Graphics/SVG/1.1/DTD/svg11.dtd">
<!-- Generated by graphviz version 2.43.0 (0)
 -->
<!-- Title: smartPlayer::evaluate_board Pages: 1 -->
<svg width="684pt" height="106pt"
 viewBox="0.00 0.00 684.00 106.00" xmlns="http://www.w3.org/2000/svg" xmlns:xlink="http://www.w3.org/1999/xlink">
<g id="graph0" class="graph" transform="scale(1 1) rotate(0) translate(4 102)">
<title>smartPlayer::evaluate_board</title>
<!-- Node1 -->
<g id="Node000001" class="node">
<title>Node1</title>
<g id="a_Node000001"><a xlink:title=" ">
<polygon fill="#999999" stroke="#666666" points="676,-54.5 551,-54.5 551,-24.5 676,-24.5 676,-54.5"/>
<text text-anchor="start" x="559" y="-42.5" font-family="Helvetica,sans-Serif" font-size="10.00">smartPlayer::evaluate</text>
<text text-anchor="middle" x="613.5" y="-31.5" font-family="Helvetica,sans-Serif" font-size="10.00">_board</text>
</a>
</g>
</g>
<!-- Node2 -->
<g id="Node000002" class="node">
<title>Node2</title>
<g id="a_Node000002"><a xlink:href="classsmartPlayer2.html#afed5c26b8eb1ad21be5016ccaf15b989" target="_top" xlink:title=" ">
<polygon fill="white" stroke="#666666" points="515,-85.5 384,-85.5 384,-55.5 515,-55.5 515,-85.5"/>
<text text-anchor="start" x="392" y="-73.5" font-family="Helvetica,sans-Serif" font-size="10.00">smartPlayer2::evaluate</text>
<text text-anchor="middle" x="449.5" y="-62.5" font-family="Helvetica,sans-Serif" font-size="10.00">_board</text>
</a>
</g>
</g>
<!-- Node1&#45;&gt;Node2 -->
<g id="edge1_Node000001_Node000002" class="edge">
<title>Node1&#45;&gt;Node2</title>
<g id="a_edge1_Node000001_Node000002"><a xlink:title=" ">
<path fill="none" stroke="#63b8ff" d="M540.87,-53.21C532.35,-54.84 523.69,-56.5 515.27,-58.11"/>
<polygon fill="#63b8ff" stroke="#63b8ff" points="541.63,-56.63 550.79,-51.31 540.31,-49.75 541.63,-56.63"/>
</a>
</g>
</g>
<!-- Node5 -->
<g id="Node000005" class="node">
<title>Node5</title>
<g id="a_Node000005"><a xlink:href="classsmartPlayer.html#a813fa8a35e205952685fc055af8a8e48" target="_top" xlink:title=" ">
<polygon fill="white" stroke="#666666" points="512,-19 387,-19 387,0 512,0 512,-19"/>
<text text-anchor="middle" x="449.5" y="-7" font-family="Helvetica,sans-Serif" font-size="10.00">smartPlayer::minimax</text>
</a>
</g>
</g>
<!-- Node1&#45;&gt;Node5 -->
<g id="edge5_Node000001_Node000005" class="edge">
<title>Node1&#45;&gt;Node5</title>
<g id="a_edge5_Node000001_Node000005"><a xlink:title=" ">
<path fill="none" stroke="#63b8ff" d="M540.87,-26.24C527.79,-23.81 514.37,-21.33 502.02,-19.04"/>
<polygon fill="#63b8ff" stroke="#63b8ff" points="540.32,-29.69 550.79,-28.07 541.6,-22.81 540.32,-29.69"/>
</a>
</g>
</g>
<!-- Node3 -->
<g id="Node000003" class="node">
<title>Node3</title>
<g id="a_Node000003"><a xlink:href="classsmartPlayer2.html#a8212944143d4baa2e7b05bca584a0e77" target="_top" xlink:title=" ">
<polygon fill="white" stroke="#666666" points="337,-80 206,-80 206,-61 337,-61 337,-80"/>
<text text-anchor="middle" x="271.5" y="-68" font-family="Helvetica,sans-Serif" font-size="10.00">smartPlayer2::minimax</text>
</a>
</g>
</g>
<!-- Node2&#45;&gt;Node3 -->
<g id="edge2_Node000002_Node000003" class="edge">
<title>Node2&#45;&gt;Node3</title>
<g id="a_edge2_Node000002_Node000003"><a xlink:title=" ">
<path fill="none" stroke="#63b8ff" d="M373.79,-70.5C361.57,-70.5 348.99,-70.5 337.03,-70.5"/>
<polygon fill="#63b8ff" stroke="#63b8ff" points="373.96,-74 383.96,-70.5 373.96,-67 373.96,-74"/>
</a>
</g>
</g>
<!-- Node3&#45;&gt;Node3 -->
<g id="edge4_Node000003_Node000003" class="edge">
<title>Node3&#45;&gt;Node3</title>
<g id="a_edge4_Node000003_Node000003"><a xlink:title=" ">
<path fill="none" stroke="#63b8ff" d="M304.81,-88.45C303.86,-93.82 292.76,-98 271.5,-98 239.86,-98 230.72,-88.73 244.07,-80.08"/>
<polygon fill="#63b8ff" stroke="#63b8ff" points="307.55,-86.26 298.93,-80.08 301.82,-90.28 307.55,-86.26"/>
</a>
</g>
</g>
<!-- Node4 -->
<g id="Node000004" class="node">
<title>Node4</title>
<g id="a_Node000004"><a xlink:href="classsmartPlayer2.html#af51ff0c3115f5dc34fce64958c52beb2" target="_top" xlink:title=" ">
<polygon fill="white" stroke="#666666" points="159,-80 0,-80 0,-61 159,-61 159,-80"/>
<text text-anchor="middle" x="79.5" y="-68" font-family="Helvetica,sans-Serif" font-size="10.00">smartPlayer2::calculateMove</text>
</a>
</g>
</g>
<!-- Node3&#45;&gt;Node4 -->
<g id="edge3_Node000003_Node000004" class="edge">
<title>Node3&#45;&gt;Node4</title>
<g id="a_edge3_Node000003_Node000004"><a xlink:title=" ">
<path fill="none" stroke="#63b8ff" d="M195.88,-70.5C183.79,-70.5 171.24,-70.5 159.06,-70.5"/>
<polygon fill="#63b8ff" stroke="#63b8ff" points="195.91,-74 205.91,-70.5 195.91,-67 195.91,-74"/>
</a>
</g>
</g>
<!-- Node5&#45;&gt;Node5 -->
<g id="edge7_Node000005_Node000005" class="edge">
<title>Node5&#45;&gt;Node5</title>
<g id="a_edge7_Node000005_Node000005"><a xlink:title=" ">
<path fill="none" stroke="#63b8ff" d="M480.11,-27.82C478.83,-33.01 468.63,-37 449.5,-37 420.35,-37 411.93,-27.73 424.22,-19.08"/>
<polygon fill="#63b8ff" stroke="#63b8ff" points="482.98,-25.79 474.78,-19.08 477,-29.44 482.98,-25.79"/>
</a>
</g>
</g>
<!-- Node6 -->
<g id="Node000006" class="node">
<title>Node6</title>
<g id="a_Node000006"><a xlink:href="classsmartPlayer.html#a6064105bc4b494d926db58ff05c98aaa" target="_top" xlink:title=" ">
<polygon fill="white" stroke="#666666" points="348,-19 195,-19 195,0 348,0 348,-19"/>
<text text-anchor="middle" x="271.5" y="-7" font-family="Helvetica,sans-Serif" font-size="10.00">smartPlayer::calculateMove</text>
</a>
</g>
</g>
<!-- Node5&#45;&gt;Node6 -->
<g id="edge6_Node000005_Node000006" class="edge">
<title>Node5&#45;&gt;Node6</title>
<g id="a_edge6_Node000005_Node000006"><a xlink:title=" ">
<path fill="none" stroke="#63b8ff" d="M376.85,-9.5C367.43,-9.5 357.75,-9.5 348.27,-9.5"/>
<polygon fill="#63b8ff" stroke="#63b8ff" points="376.94,-13 386.94,-9.5 376.94,-6 376.94,-13"/>
</a>
</g>
</g>
</g>
</svg>
