<?xml version="1.0" encoding="UTF-8" standalone="no"?>
<!DOCTYPE svg PUBLIC "-//W3C//DTD SVG 1.1//EN"
 "http://www.w3.org/Graphics/SVG/1.1/DTD/svg11.dtd">
<!-- Generated by graphviz version 2.43.0 (0)
 -->
<!-- Title: DiamondSmartPlayer::calculateMove Pages: 1 -->
<svg width="296pt" height="199pt"
 viewBox="0.00 0.00 296.00 199.00" xmlns="http://www.w3.org/2000/svg" xmlns:xlink="http://www.w3.org/1999/xlink">
<g id="graph0" class="graph" transform="scale(1 1) rotate(0) translate(4 195)">
<title>DiamondSmartPlayer::calculateMove</title>
<!-- Node1 -->
<g id="Node000001" class="node">
<title>Node1</title>
<g id="a_Node000001"><a xlink:title="Calculate the best move through Minmax algorithms.">
<polygon fill="#999999" stroke="#666666" points="121,-110.5 0,-110.5 0,-80.5 121,-80.5 121,-110.5"/>
<text text-anchor="start" x="8" y="-98.5" font-family="Helvetica,sans-Serif" font-size="10.00">DiamondSmartPlayer</text>
<text text-anchor="middle" x="60.5" y="-87.5" font-family="Helvetica,sans-Serif" font-size="10.00">::calculateMove</text>
</a>
</g>
</g>
<!-- Node2 -->
<g id="Node000002" class="node">
<title>Node2</title>
<g id="a_Node000002"><a xlink:href="classPlayer.html#a508617eddfae8915d098102d480fc888" target="_top" xlink:title="Get a pointer to the game board.">
<polygon fill="white" stroke="#666666" points="283,-191 162,-191 162,-172 283,-172 283,-191"/>
<text text-anchor="middle" x="222.5" y="-179" font-family="Helvetica,sans-Serif" font-size="10.00">Player::get_board_ptr</text>
</a>
</g>
</g>
<!-- Node1&#45;&gt;Node2 -->
<g id="edge1_Node000001_Node000002" class="edge">
<title>Node1&#45;&gt;Node2</title>
<g id="a_edge1_Node000001_Node000002"><a xlink:title=" ">
<path fill="none" stroke="#63b8ff" d="M79.4,-110.76C97.8,-125.78 127.81,-148.43 157,-162.5 161.68,-164.75 166.68,-166.8 171.75,-168.64"/>
<polygon fill="#63b8ff" stroke="#63b8ff" points="170.92,-172.05 181.51,-171.93 173.15,-165.42 170.92,-172.05"/>
</a>
</g>
</g>
<!-- Node3 -->
<g id="Node000003" class="node">
<title>Node3</title>
<g id="a_Node000003"><a xlink:href="classDiamondSmartPlayer.html#a79068d223109acfd8872f26c8a0a36af" target="_top" xlink:title=" ">
<polygon fill="white" stroke="#666666" points="288,-153.5 157,-153.5 157,-123.5 288,-123.5 288,-153.5"/>
<text text-anchor="start" x="165" y="-141.5" font-family="Helvetica,sans-Serif" font-size="10.00">DiamondSmartPlayer</text>
<text text-anchor="middle" x="222.5" y="-130.5" font-family="Helvetica,sans-Serif" font-size="10.00">::get_opponent_symbol</text>
</a>
</g>
</g>
<!-- Node1&#45;&gt;Node3 -->
<g id="edge2_Node000001_Node000003" class="edge">
<title>Node1&#45;&gt;Node3</title>
<g id="a_edge2_Node000001_Node000003"><a xlink:title=" ">
<path fill="none" stroke="#63b8ff" d="M117.46,-110.54C129.76,-113.85 142.9,-117.38 155.55,-120.78"/>
<polygon fill="#63b8ff" stroke="#63b8ff" points="155.01,-124.25 165.57,-123.47 156.82,-117.49 155.01,-124.25"/>
</a>
</g>
</g>
<!-- Node4 -->
<g id="Node000004" class="node">
<title>Node4</title>
<g id="a_Node000004"><a xlink:href="classPlayer.html#af56f0bf98c0423a3a75b0848607d03a4" target="_top" xlink:title="Get the player&#39;s symbol.">
<polygon fill="white" stroke="#666666" points="277.5,-105 167.5,-105 167.5,-86 277.5,-86 277.5,-105"/>
<text text-anchor="middle" x="222.5" y="-93" font-family="Helvetica,sans-Serif" font-size="10.00">Player::get_symbol</text>
</a>
</g>
</g>
<!-- Node1&#45;&gt;Node4 -->
<g id="edge3_Node000001_Node000004" class="edge">
<title>Node1&#45;&gt;Node4</title>
<g id="a_edge3_Node000001_Node000004"><a xlink:title=" ">
<path fill="none" stroke="#63b8ff" d="M121.08,-95.5C132.83,-95.5 145.21,-95.5 157.11,-95.5"/>
<polygon fill="#63b8ff" stroke="#63b8ff" points="157.42,-99 167.42,-95.5 157.42,-92 157.42,-99"/>
</a>
</g>
</g>
<!-- Node5 -->
<g id="Node000005" class="node">
<title>Node5</title>
<g id="a_Node000005"><a xlink:href="classsmartPlayer.html#a813fa8a35e205952685fc055af8a8e48" target="_top" xlink:title=" ">
<polygon fill="white" stroke="#666666" points="282,-67.5 163,-67.5 163,-37.5 282,-37.5 282,-67.5"/>
<text text-anchor="start" x="171" y="-55.5" font-family="Helvetica,sans-Serif" font-size="10.00">smartPlayer&lt; char &gt;</text>
<text text-anchor="middle" x="222.5" y="-44.5" font-family="Helvetica,sans-Serif" font-size="10.00">::minimax</text>
</a>
</g>
</g>
<!-- Node1&#45;&gt;Node5 -->
<g id="edge4_Node000001_Node000005" class="edge">
<title>Node1&#45;&gt;Node5</title>
<g id="a_edge4_Node000001_Node000005"><a xlink:title=" ">
<path fill="none" stroke="#63b8ff" d="M117.46,-80.46C129.76,-77.15 142.9,-73.62 155.55,-70.22"/>
<polygon fill="#63b8ff" stroke="#63b8ff" points="156.82,-73.51 165.57,-67.53 155.01,-66.75 156.82,-73.51"/>
</a>
</g>
</g>
<!-- Node6 -->
<g id="Node000006" class="node">
<title>Node6</title>
<g id="a_Node000006"><a xlink:href="classPlayer.html#adb4e803a7ac0356b111b8ca79d766976" target="_top" xlink:title="Construct a player with name, symbol, and type.">
<polygon fill="white" stroke="#666666" points="264.5,-19 180.5,-19 180.5,0 264.5,0 264.5,-19"/>
<text text-anchor="middle" x="222.5" y="-7" font-family="Helvetica,sans-Serif" font-size="10.00">Player::Player</text>
</a>
</g>
</g>
<!-- Node1&#45;&gt;Node6 -->
<g id="edge5_Node000001_Node000006" class="edge">
<title>Node1&#45;&gt;Node6</title>
<g id="a_edge5_Node000001_Node000006"><a xlink:title=" ">
<path fill="none" stroke="#63b8ff" d="M79.4,-80.24C97.8,-65.22 127.81,-42.57 157,-28.5 161.68,-26.25 166.68,-24.2 171.75,-22.36"/>
<polygon fill="#63b8ff" stroke="#63b8ff" points="173.15,-25.58 181.51,-19.07 170.92,-18.95 173.15,-25.58"/>
</a>
</g>
</g>
</g>
</svg>
