<?xml version="1.0" encoding="UTF-8" standalone="no"?>
<!DOCTYPE svg PUBLIC "-//W3C//DTD SVG 1.1//EN"
 "http://www.w3.org/Graphics/SVG/1.1/DTD/svg11.dtd">
<!-- Generated by graphviz version 2.43.0 (0)
 -->
<!-- Title: SUS_SmartPlayer::calculateMove2 Pages: 1 -->
<svg width="726pt" height="206pt"
 viewBox="0.00 0.00 726.00 206.00" xmlns="http://www.w3.org/2000/svg" xmlns:xlink="http://www.w3.org/1999/xlink">
<g id="graph0" class="graph" transform="scale(1 1) rotate(0) translate(4 202)">
<title>SUS_SmartPlayer::calculateMove2</title>
<!-- Node1 -->
<g id="Node000001" class="node">
<title>Node1</title>
<g id="a_Node000001"><a xlink:title=" ">
<polygon fill="#999999" stroke="#666666" points="152,-117.5 0,-117.5 0,-87.5 152,-87.5 152,-117.5"/>
<text text-anchor="start" x="8" y="-105.5" font-family="Helvetica,sans-Serif" font-size="10.00">SUS_SmartPlayer::calculate</text>
<text text-anchor="middle" x="76" y="-94.5" font-family="Helvetica,sans-Serif" font-size="10.00">Move2</text>
</a>
</g>
</g>
<!-- Node2 -->
<g id="Node000002" class="node">
<title>Node2</title>
<g id="a_Node000002"><a xlink:href="classPlayer.html#a508617eddfae8915d098102d480fc888" target="_top" xlink:title="Get a pointer to the game board.">
<polygon fill="white" stroke="#666666" points="324,-198 203,-198 203,-179 324,-179 324,-198"/>
<text text-anchor="middle" x="263.5" y="-186" font-family="Helvetica,sans-Serif" font-size="10.00">Player::get_board_ptr</text>
</a>
</g>
</g>
<!-- Node1&#45;&gt;Node2 -->
<g id="edge1_Node000001_Node000002" class="edge">
<title>Node1&#45;&gt;Node2</title>
<g id="a_edge1_Node000001_Node000002"><a xlink:title=" ">
<path fill="none" stroke="#63b8ff" d="M97.7,-117.55C119.29,-132.62 154.57,-155.51 188,-169.5 193.82,-171.94 200.03,-174.12 206.28,-176.06"/>
<polygon fill="#63b8ff" stroke="#63b8ff" points="205.52,-179.48 216.1,-178.91 207.48,-172.76 205.52,-179.48"/>
</a>
</g>
</g>
<!-- Node3 -->
<g id="Node000003" class="node">
<title>Node3</title>
<g id="a_Node000003"><a xlink:href="classsmartPlayer.html#afb2249c0850bf2f4debaece4f4df9bf3" target="_top" xlink:title=" ">
<polygon fill="white" stroke="#666666" points="329,-160.5 198,-160.5 198,-130.5 329,-130.5 329,-160.5"/>
<text text-anchor="start" x="206" y="-148.5" font-family="Helvetica,sans-Serif" font-size="10.00">smartPlayer&lt; char &gt;</text>
<text text-anchor="middle" x="263.5" y="-137.5" font-family="Helvetica,sans-Serif" font-size="10.00">::get_opponent_symbol</text>
</a>
</g>
</g>
<!-- Node1&#45;&gt;Node3 -->
<g id="edge2_Node000001_Node000003" class="edge">
<title>Node1&#45;&gt;Node3</title>
<g id="a_edge2_Node000001_Node000003"><a xlink:title=" ">
<path fill="none" stroke="#63b8ff" d="M141.88,-117.54C156.79,-121 172.76,-124.7 188.05,-128.24"/>
<polygon fill="#63b8ff" stroke="#63b8ff" points="187.44,-131.69 197.97,-130.54 189.02,-124.87 187.44,-131.69"/>
</a>
</g>
</g>
<!-- Node4 -->
<g id="Node000004" class="node">
<title>Node4</title>
<g id="a_Node000004"><a xlink:href="classPlayer.html#af56f0bf98c0423a3a75b0848607d03a4" target="_top" xlink:title="Get the player&#39;s symbol.">
<polygon fill="white" stroke="#666666" points="318.5,-112 208.5,-112 208.5,-93 318.5,-93 318.5,-112"/>
<text text-anchor="middle" x="263.5" y="-100" font-family="Helvetica,sans-Serif" font-size="10.00">Player::get_symbol</text>
</a>
</g>
</g>
<!-- Node1&#45;&gt;Node4 -->
<g id="edge3_Node000001_Node000004" class="edge">
<title>Node1&#45;&gt;Node4</title>
<g id="a_edge3_Node000001_Node000004"><a xlink:title=" ">
<path fill="none" stroke="#63b8ff" d="M152.18,-102.5C167.44,-102.5 183.36,-102.5 198.2,-102.5"/>
<polygon fill="#63b8ff" stroke="#63b8ff" points="198.28,-106 208.28,-102.5 198.28,-99 198.28,-106"/>
</a>
</g>
</g>
<!-- Node5 -->
<g id="Node000005" class="node">
<title>Node5</title>
<g id="a_Node000005"><a xlink:href="classSUS__SmartPlayer.html#a12997b1bc461e8622940323f673cc5ec" target="_top" xlink:title=" ">
<polygon fill="white" stroke="#666666" points="339,-57 188,-57 188,-38 339,-38 339,-57"/>
<text text-anchor="middle" x="263.5" y="-45" font-family="Helvetica,sans-Serif" font-size="10.00">SUS_SmartPlayer::minimax</text>
</a>
</g>
</g>
<!-- Node1&#45;&gt;Node5 -->
<g id="edge4_Node000001_Node000005" class="edge">
<title>Node1&#45;&gt;Node5</title>
<g id="a_edge4_Node000001_Node000005"><a xlink:title=" ">
<path fill="none" stroke="#63b8ff" d="M127.69,-87.47C156.83,-78.83 192.99,-68.11 220.53,-59.94"/>
<polygon fill="#63b8ff" stroke="#63b8ff" points="221.66,-63.26 230.25,-57.06 219.67,-56.55 221.66,-63.26"/>
</a>
</g>
</g>
<!-- Node11 -->
<g id="Node000011" class="node">
<title>Node11</title>
<g id="a_Node000011"><a xlink:href="classPlayer.html#adb4e803a7ac0356b111b8ca79d766976" target="_top" xlink:title="Construct a player with name, symbol, and type.">
<polygon fill="white" stroke="#666666" points="492,-19 408,-19 408,0 492,0 492,-19"/>
<text text-anchor="middle" x="450" y="-7" font-family="Helvetica,sans-Serif" font-size="10.00">Player::Player</text>
</a>
</g>
</g>
<!-- Node1&#45;&gt;Node11 -->
<g id="edge12_Node000001_Node000011" class="edge">
<title>Node1&#45;&gt;Node11</title>
<g id="a_edge12_Node000001_Node000011"><a xlink:title=" ">
<path fill="none" stroke="#63b8ff" d="M93.55,-87.38C114.03,-69.71 150.76,-41.27 188,-28.5 257.7,-4.6 343.85,-3.36 397.62,-5.66"/>
<polygon fill="#63b8ff" stroke="#63b8ff" points="397.77,-9.17 407.93,-6.16 398.11,-2.18 397.77,-9.17"/>
</a>
</g>
</g>
<!-- Node5&#45;&gt;Node5 -->
<g id="edge10_Node000005_Node000005" class="edge">
<title>Node5&#45;&gt;Node5</title>
<g id="a_edge10_Node000005_Node000005"><a xlink:title=" ">
<path fill="none" stroke="#63b8ff" d="M234.83,-57.08C220.89,-65.73 230.44,-75 263.5,-75 286.23,-75 297.85,-70.62 298.36,-65.07"/>
<polygon fill="#63b8ff" stroke="#63b8ff" points="301.06,-62.84 292.17,-57.08 295.53,-67.13 301.06,-62.84"/>
</a>
</g>
</g>
<!-- Node6 -->
<g id="Node000006" class="node">
<title>Node6</title>
<g id="a_Node000006"><a xlink:href="classSUS__SmartPlayer.html#ab30f91013d7c1ce971a56d4697cdd841" target="_top" xlink:title=" ">
<polygon fill="white" stroke="#666666" points="525,-152.5 375,-152.5 375,-122.5 525,-122.5 525,-152.5"/>
<text text-anchor="start" x="383" y="-140.5" font-family="Helvetica,sans-Serif" font-size="10.00">SUS_SmartPlayer::evaluate</text>
<text text-anchor="middle" x="450" y="-129.5" font-family="Helvetica,sans-Serif" font-size="10.00">_board</text>
</a>
</g>
</g>
<!-- Node5&#45;&gt;Node6 -->
<g id="edge5_Node000005_Node000006" class="edge">
<title>Node5&#45;&gt;Node6</title>
<g id="a_edge5_Node000005_Node000006"><a xlink:title=" ">
<path fill="none" stroke="#63b8ff" d="M287.03,-57.14C302.17,-63.98 322.34,-73.83 339,-84.5 356.3,-95.58 356.93,-103.72 375,-113.5 378.28,-115.28 381.72,-116.95 385.23,-118.52"/>
<polygon fill="#63b8ff" stroke="#63b8ff" points="384.11,-121.84 394.69,-122.43 386.79,-115.37 384.11,-121.84"/>
</a>
</g>
</g>
<!-- Node8 -->
<g id="Node000008" class="node">
<title>Node8</title>
<g id="a_Node000008"><a xlink:href="classsmartPlayer.html#a046e18221d92303afd36dca43d859898" target="_top" xlink:title=" ">
<polygon fill="white" stroke="#666666" points="509.5,-104.5 390.5,-104.5 390.5,-74.5 509.5,-74.5 509.5,-104.5"/>
<text text-anchor="start" x="398.5" y="-92.5" font-family="Helvetica,sans-Serif" font-size="10.00">smartPlayer&lt; char &gt;</text>
<text text-anchor="middle" x="450" y="-81.5" font-family="Helvetica,sans-Serif" font-size="10.00">::is_draw</text>
</a>
</g>
</g>
<!-- Node5&#45;&gt;Node8 -->
<g id="edge7_Node000005_Node000008" class="edge">
<title>Node5&#45;&gt;Node8</title>
<g id="a_edge7_Node000005_Node000008"><a xlink:title=" ">
<path fill="none" stroke="#63b8ff" d="M306.37,-57.03C328.24,-62.01 355.55,-68.23 380.41,-73.89"/>
<polygon fill="#63b8ff" stroke="#63b8ff" points="379.64,-77.3 390.17,-76.11 381.19,-70.47 379.64,-77.3"/>
</a>
</g>
</g>
<!-- Node9 -->
<g id="Node000009" class="node">
<title>Node9</title>
<g id="a_Node000009"><a xlink:href="classSUS__SmartPlayer.html#a61507481e4a30112152cbfdb2247f7ab" target="_top" xlink:title=" ">
<polygon fill="white" stroke="#666666" points="519,-56 381,-56 381,-37 519,-37 519,-56"/>
<text text-anchor="middle" x="450" y="-44" font-family="Helvetica,sans-Serif" font-size="10.00">SUS_SmartPlayer::is_win</text>
</a>
</g>
</g>
<!-- Node5&#45;&gt;Node9 -->
<g id="edge8_Node000005_Node000009" class="edge">
<title>Node5&#45;&gt;Node9</title>
<g id="a_edge8_Node000005_Node000009"><a xlink:title=" ">
<path fill="none" stroke="#63b8ff" d="M339.01,-47.1C349.36,-47.04 360.02,-46.98 370.45,-46.93"/>
<polygon fill="#63b8ff" stroke="#63b8ff" points="370.79,-50.42 380.77,-46.87 370.75,-43.42 370.79,-50.42"/>
</a>
</g>
</g>
<!-- Node5&#45;&gt;Node11 -->
<g id="edge11_Node000005_Node000011" class="edge">
<title>Node5&#45;&gt;Node11</title>
<g id="a_edge11_Node000005_Node000011"><a xlink:title=" ">
<path fill="none" stroke="#63b8ff" d="M311.06,-37.91C337.47,-32.47 370.56,-25.66 397.71,-20.06"/>
<polygon fill="#63b8ff" stroke="#63b8ff" points="398.71,-23.43 407.8,-17.99 397.3,-16.57 398.71,-23.43"/>
</a>
</g>
</g>
<!-- Node7 -->
<g id="Node000007" class="node">
<title>Node7</title>
<g id="a_Node000007"><a xlink:href="classSUS__SmartPlayer.html#ac863026d3597041ff7a39c9e732efe1a" target="_top" xlink:title=" ">
<polygon fill="white" stroke="#666666" points="718,-147 561,-147 561,-128 718,-128 718,-147"/>
<text text-anchor="middle" x="639.5" y="-135" font-family="Helvetica,sans-Serif" font-size="10.00">SUS_SmartPlayer::score_line</text>
</a>
</g>
</g>
<!-- Node6&#45;&gt;Node7 -->
<g id="edge6_Node000006_Node000007" class="edge">
<title>Node6&#45;&gt;Node7</title>
<g id="a_edge6_Node000006_Node000007"><a xlink:title=" ">
<path fill="none" stroke="#63b8ff" d="M525.1,-137.5C533.57,-137.5 542.25,-137.5 550.87,-137.5"/>
<polygon fill="#63b8ff" stroke="#63b8ff" points="550.93,-141 560.93,-137.5 550.93,-134 550.93,-141"/>
</a>
</g>
</g>
<!-- Node10 -->
<g id="Node000010" class="node">
<title>Node10</title>
<g id="a_Node000010"><a xlink:href="classSUS__SmartPlayer.html#aa40dcb9df49cf3eb6f32c88e9f25e9e4" target="_top" xlink:title=" ">
<polygon fill="white" stroke="#666666" points="697.5,-61.5 581.5,-61.5 581.5,-31.5 697.5,-31.5 697.5,-61.5"/>
<text text-anchor="start" x="589.5" y="-49.5" font-family="Helvetica,sans-Serif" font-size="10.00">SUS_SmartPlayer::is</text>
<text text-anchor="middle" x="639.5" y="-38.5" font-family="Helvetica,sans-Serif" font-size="10.00">_valid_word</text>
</a>
</g>
</g>
<!-- Node9&#45;&gt;Node10 -->
<g id="edge9_Node000009_Node000010" class="edge">
<title>Node9&#45;&gt;Node10</title>
<g id="a_edge9_Node000009_Node000010"><a xlink:title=" ">
<path fill="none" stroke="#63b8ff" d="M519.22,-46.5C536.13,-46.5 554.24,-46.5 571.11,-46.5"/>
<polygon fill="#63b8ff" stroke="#63b8ff" points="571.43,-50 581.43,-46.5 571.43,-43 571.43,-50"/>
</a>
</g>
</g>
</g>
</svg>
