<?xml version="1.0" encoding="UTF-8" standalone="no"?>
<!DOCTYPE svg PUBLIC "-//W3C//DTD SVG 1.1//EN"
 "http://www.w3.org/Graphics/SVG/1.1/DTD/svg11.dtd">
<!-- Generated by graphviz version 2.43.0 (0)
 -->
<!-- Title: SUS_SmartPlayer::is_valid_word Pages: 1 -->
<svg width="673pt" height="51pt"
 viewBox="0.00 0.00 673.00 50.50" xmlns="http://www.w3.org/2000/svg" xmlns:xlink="http://www.w3.org/1999/xlink">
<g id="graph0" class="graph" transform="scale(1 1) rotate(0) translate(4 46.5)">
<title>SUS_SmartPlayer::is_valid_word</title>
<!-- Node1 -->
<g id="Node000001" class="node">
<title>Node1</title>
<g id="a_Node000001"><a xlink:title=" ">
<polygon fill="#999999" stroke="#666666" points="665,-30 549,-30 549,0 665,0 665,-30"/>
<text text-anchor="start" x="557" y="-18" font-family="Helvetica,sans-Serif" font-size="10.00">SUS_SmartPlayer::is</text>
<text text-anchor="middle" x="607" y="-7" font-family="Helvetica,sans-Serif" font-size="10.00">_valid_word</text>
</a>
</g>
</g>
<!-- Node2 -->
<g id="Node000002" class="node">
<title>Node2</title>
<g id="a_Node000002"><a xlink:href="classSUS__SmartPlayer.html#a61507481e4a30112152cbfdb2247f7ab" target="_top" xlink:title=" ">
<polygon fill="white" stroke="#666666" points="513,-24.5 375,-24.5 375,-5.5 513,-5.5 513,-24.5"/>
<text text-anchor="middle" x="444" y="-12.5" font-family="Helvetica,sans-Serif" font-size="10.00">SUS_SmartPlayer::is_win</text>
</a>
</g>
</g>
<!-- Node1&#45;&gt;Node2 -->
<g id="edge1_Node000001_Node000002" class="edge">
<title>Node1&#45;&gt;Node2</title>
<g id="a_edge1_Node000001_Node000002"><a xlink:title=" ">
<path fill="none" stroke="#63b8ff" d="M538.6,-15C530.15,-15 521.5,-15 513.05,-15"/>
<polygon fill="#63b8ff" stroke="#63b8ff" points="538.78,-18.5 548.78,-15 538.78,-11.5 538.78,-18.5"/>
</a>
</g>
</g>
<!-- Node3 -->
<g id="Node000003" class="node">
<title>Node3</title>
<g id="a_Node000003"><a xlink:href="classSUS__SmartPlayer.html#a12997b1bc461e8622940323f673cc5ec" target="_top" xlink:title=" ">
<polygon fill="white" stroke="#666666" points="339,-24.5 188,-24.5 188,-5.5 339,-5.5 339,-24.5"/>
<text text-anchor="middle" x="263.5" y="-12.5" font-family="Helvetica,sans-Serif" font-size="10.00">SUS_SmartPlayer::minimax</text>
</a>
</g>
</g>
<!-- Node2&#45;&gt;Node3 -->
<g id="edge2_Node000002_Node000003" class="edge">
<title>Node2&#45;&gt;Node3</title>
<g id="a_edge2_Node000002_Node000003"><a xlink:title=" ">
<path fill="none" stroke="#63b8ff" d="M364.58,-15C356.16,-15 347.62,-15 339.25,-15"/>
<polygon fill="#63b8ff" stroke="#63b8ff" points="364.75,-18.5 374.75,-15 364.75,-11.5 364.75,-18.5"/>
</a>
</g>
</g>
<!-- Node3&#45;&gt;Node3 -->
<g id="edge4_Node000003_Node000003" class="edge">
<title>Node3&#45;&gt;Node3</title>
<g id="a_edge4_Node000003_Node000003"><a xlink:title=" ">
<path fill="none" stroke="#63b8ff" d="M297.18,-32.95C296.22,-38.32 284.99,-42.5 263.5,-42.5 231.51,-42.5 222.26,-33.23 235.76,-24.58"/>
<polygon fill="#63b8ff" stroke="#63b8ff" points="299.89,-30.71 291.24,-24.58 294.18,-34.76 299.89,-30.71"/>
</a>
</g>
</g>
<!-- Node4 -->
<g id="Node000004" class="node">
<title>Node4</title>
<g id="a_Node000004"><a xlink:href="classSUS__SmartPlayer.html#a0bdb4e9b63a7fabb9e95c31ba7a5dc02" target="_top" xlink:title=" ">
<polygon fill="white" stroke="#666666" points="152,-30 0,-30 0,0 152,0 152,-30"/>
<text text-anchor="start" x="8" y="-18" font-family="Helvetica,sans-Serif" font-size="10.00">SUS_SmartPlayer::calculate</text>
<text text-anchor="middle" x="76" y="-7" font-family="Helvetica,sans-Serif" font-size="10.00">Move2</text>
</a>
</g>
</g>
<!-- Node3&#45;&gt;Node4 -->
<g id="edge3_Node000003_Node000004" class="edge">
<title>Node3&#45;&gt;Node4</title>
<g id="a_edge3_Node000003_Node000004"><a xlink:title=" ">
<path fill="none" stroke="#63b8ff" d="M177.84,-15C169.25,-15 160.57,-15 152.1,-15"/>
<polygon fill="#63b8ff" stroke="#63b8ff" points="177.85,-18.5 187.85,-15 177.85,-11.5 177.85,-18.5"/>
</a>
</g>
</g>
</g>
</svg>
