<?xml version="1.0" encoding="UTF-8" standalone="no"?>
<!DOCTYPE svg PUBLIC "-//W3C//DTD SVG 1.1//EN"
 "http://www.w3.org/Graphics/SVG/1.1/DTD/svg11.dtd">
<!-- Generated by graphviz version 2.43.0 (0)
 -->
<!-- Title: smartPlayer::minimax Pages: 1 -->
<svg width="625pt" height="152pt"
 viewBox="0.00 0.00 625.00 151.50" xmlns="http://www.w3.org/2000/svg" xmlns:xlink="http://www.w3.org/1999/xlink">
<g id="graph0" class="graph" transform="scale(1 1) rotate(0) translate(4 147.5)">
<title>smartPlayer::minimax</title>
<!-- Node1 -->
<g id="Node000001" class="node">
<title>Node1</title>
<g id="a_Node000001"><a xlink:title=" ">
<polygon fill="#999999" stroke="#666666" points="125,-76 0,-76 0,-57 125,-57 125,-76"/>
<text text-anchor="middle" x="62.5" y="-64" font-family="Helvetica,sans-Serif" font-size="10.00">smartPlayer::minimax</text>
</a>
</g>
</g>
<!-- Node1&#45;&gt;Node1 -->
<g id="edge8_Node000001_Node000001" class="edge">
<title>Node1&#45;&gt;Node1</title>
<g id="a_edge8_Node000001_Node000001"><a xlink:title=" ">
<path fill="none" stroke="#63b8ff" d="M37.84,-76.08C25.84,-84.73 34.06,-94 62.5,-94 81.16,-94 91.12,-90.01 92.37,-84.82"/>
<polygon fill="#63b8ff" stroke="#63b8ff" points="95.29,-82.88 87.16,-76.08 89.27,-86.47 95.29,-82.88"/>
</a>
</g>
</g>
<!-- Node2 -->
<g id="Node000002" class="node">
<title>Node2</title>
<g id="a_Node000002"><a xlink:href="classsmartPlayer.html#a2065c2b93e69c1851cd4d951f22b1ccb" target="_top" xlink:title=" ">
<polygon fill="white" stroke="#666666" points="286,-143.5 161,-143.5 161,-113.5 286,-113.5 286,-143.5"/>
<text text-anchor="start" x="169" y="-131.5" font-family="Helvetica,sans-Serif" font-size="10.00">smartPlayer::evaluate</text>
<text text-anchor="middle" x="223.5" y="-120.5" font-family="Helvetica,sans-Serif" font-size="10.00">_board</text>
</a>
</g>
</g>
<!-- Node1&#45;&gt;Node2 -->
<g id="edge1_Node000001_Node000002" class="edge">
<title>Node1&#45;&gt;Node2</title>
<g id="a_edge1_Node000001_Node000002"><a xlink:title=" ">
<path fill="none" stroke="#63b8ff" d="M88,-76.05C110.93,-84.99 145.83,-98.6 174.34,-109.72"/>
<polygon fill="#63b8ff" stroke="#63b8ff" points="173.15,-113.01 183.74,-113.38 175.69,-106.49 173.15,-113.01"/>
</a>
</g>
</g>
<!-- Node3 -->
<g id="Node000003" class="node">
<title>Node3</title>
<g id="a_Node000003"><a xlink:href="classsmartPlayer.html#a046e18221d92303afd36dca43d859898" target="_top" xlink:title=" ">
<polygon fill="white" stroke="#666666" points="283,-95 164,-95 164,-76 283,-76 283,-95"/>
<text text-anchor="middle" x="223.5" y="-83" font-family="Helvetica,sans-Serif" font-size="10.00">smartPlayer::is_draw</text>
</a>
</g>
</g>
<!-- Node1&#45;&gt;Node3 -->
<g id="edge2_Node000001_Node000003" class="edge">
<title>Node1&#45;&gt;Node3</title>
<g id="a_edge2_Node000001_Node000003"><a xlink:title=" ">
<path fill="none" stroke="#63b8ff" d="M125.43,-73.9C134.71,-75.01 144.34,-76.16 153.75,-77.28"/>
<polygon fill="#63b8ff" stroke="#63b8ff" points="153.52,-80.78 163.86,-78.49 154.35,-73.83 153.52,-80.78"/>
</a>
</g>
</g>
<!-- Node6 -->
<g id="Node000006" class="node">
<title>Node6</title>
<g id="a_Node000006"><a xlink:href="classsmartPlayer.html#a0c97a2045a733fbe524f424d6b7eb968" target="_top" xlink:title=" ">
<polygon fill="white" stroke="#666666" points="453,-57 340,-57 340,-38 453,-38 453,-57"/>
<text text-anchor="middle" x="396.5" y="-45" font-family="Helvetica,sans-Serif" font-size="10.00">smartPlayer::is_win</text>
</a>
</g>
</g>
<!-- Node1&#45;&gt;Node6 -->
<g id="edge7_Node000001_Node000006" class="edge">
<title>Node1&#45;&gt;Node6</title>
<g id="a_edge7_Node000001_Node000006"><a xlink:title=" ">
<path fill="none" stroke="#63b8ff" d="M125.17,-62.97C183.4,-59.64 270.44,-54.66 329.92,-51.25"/>
<polygon fill="#63b8ff" stroke="#63b8ff" points="330.17,-54.74 339.96,-50.68 329.77,-47.76 330.17,-54.74"/>
</a>
</g>
</g>
<!-- Node7 -->
<g id="Node000007" class="node">
<title>Node7</title>
<g id="a_Node000007"><a xlink:href="classPlayer.html#adb4e803a7ac0356b111b8ca79d766976" target="_top" xlink:title="Construct a player with name, symbol, and type.">
<polygon fill="white" stroke="#666666" points="265.5,-19 181.5,-19 181.5,0 265.5,0 265.5,-19"/>
<text text-anchor="middle" x="223.5" y="-7" font-family="Helvetica,sans-Serif" font-size="10.00">Player::Player</text>
</a>
</g>
</g>
<!-- Node1&#45;&gt;Node7 -->
<g id="edge9_Node000001_Node000007" class="edge">
<title>Node1&#45;&gt;Node7</title>
<g id="a_edge9_Node000001_Node000007"><a xlink:title=" ">
<path fill="none" stroke="#63b8ff" d="M90.11,-56.96C116.48,-47.51 157.06,-32.96 186.34,-22.46"/>
<polygon fill="#63b8ff" stroke="#63b8ff" points="187.57,-25.74 195.8,-19.07 185.21,-19.15 187.57,-25.74"/>
</a>
</g>
</g>
<!-- Node4 -->
<g id="Node000004" class="node">
<title>Node4</title>
<g id="a_Node000004"><a xlink:href="classsmartPlayer.html#afb2249c0850bf2f4debaece4f4df9bf3" target="_top" xlink:title=" ">
<polygon fill="white" stroke="#666666" points="471,-143.5 322,-143.5 322,-113.5 471,-113.5 471,-143.5"/>
<text text-anchor="start" x="330" y="-131.5" font-family="Helvetica,sans-Serif" font-size="10.00">smartPlayer::get_opponent</text>
<text text-anchor="middle" x="396.5" y="-120.5" font-family="Helvetica,sans-Serif" font-size="10.00">_symbol</text>
</a>
</g>
</g>
<!-- Node3&#45;&gt;Node4 -->
<g id="edge3_Node000003_Node000004" class="edge">
<title>Node3&#45;&gt;Node4</title>
<g id="a_edge3_Node000003_Node000004"><a xlink:title=" ">
<path fill="none" stroke="#63b8ff" d="M262.45,-95.04C281.14,-99.74 304.27,-105.56 325.97,-111.02"/>
<polygon fill="#63b8ff" stroke="#63b8ff" points="325.27,-114.45 335.82,-113.49 326.98,-107.66 325.27,-114.45"/>
</a>
</g>
</g>
<!-- Node5 -->
<g id="Node000005" class="node">
<title>Node5</title>
<g id="a_Node000005"><a xlink:href="classPlayer.html#af56f0bf98c0423a3a75b0848607d03a4" target="_top" xlink:title="Get the player&#39;s symbol.">
<polygon fill="white" stroke="#666666" points="617,-116 507,-116 507,-97 617,-97 617,-116"/>
<text text-anchor="middle" x="562" y="-104" font-family="Helvetica,sans-Serif" font-size="10.00">Player::get_symbol</text>
</a>
</g>
</g>
<!-- Node3&#45;&gt;Node5 -->
<g id="edge5_Node000003_Node000005" class="edge">
<title>Node3&#45;&gt;Node5</title>
<g id="a_edge5_Node000003_Node000005"><a xlink:title=" ">
<path fill="none" stroke="#63b8ff" d="M283.11,-89.16C342.87,-92.89 435.3,-98.66 496.95,-102.5"/>
<polygon fill="#63b8ff" stroke="#63b8ff" points="496.75,-106 506.95,-103.13 497.18,-99.01 496.75,-106"/>
</a>
</g>
</g>
<!-- Node3&#45;&gt;Node6 -->
<g id="edge6_Node000003_Node000006" class="edge">
<title>Node3&#45;&gt;Node6</title>
<g id="a_edge6_Node000003_Node000006"><a xlink:title=" ">
<path fill="none" stroke="#63b8ff" d="M267.65,-75.91C290.42,-70.85 318.55,-64.6 342.62,-59.25"/>
<polygon fill="#63b8ff" stroke="#63b8ff" points="343.66,-62.61 352.66,-57.02 342.14,-55.77 343.66,-62.61"/>
</a>
</g>
</g>
<!-- Node4&#45;&gt;Node5 -->
<g id="edge4_Node000004_Node000005" class="edge">
<title>Node4&#45;&gt;Node5</title>
<g id="a_edge4_Node000004_Node000005"><a xlink:title=" ">
<path fill="none" stroke="#63b8ff" d="M471.12,-118.59C479.68,-117.44 488.35,-116.28 496.77,-115.14"/>
<polygon fill="#63b8ff" stroke="#63b8ff" points="497.44,-118.58 506.88,-113.78 496.5,-111.65 497.44,-118.58"/>
</a>
</g>
</g>
</g>
</svg>
