<?xml version="1.0" encoding="UTF-8" standalone="no"?>
<!DOCTYPE svg PUBLIC "-//W3C//DTD SVG 1.1//EN"
 "http://www.w3.org/Graphics/SVG/1.1/DTD/svg11.dtd">
<!-- Generated by graphviz version 2.43.0 (0)
 -->
<!-- Title: Player::get_symbol Pages: 1 -->
<svg width="679pt" height="892pt"
 viewBox="0.00 0.00 679.00 891.50" xmlns="http://www.w3.org/2000/svg" xmlns:xlink="http://www.w3.org/1999/xlink">
<g id="graph0" class="graph" transform="scale(1 1) rotate(0) translate(4 887.5)">
<title>Player::get_symbol</title>
<!-- Node1 -->
<g id="Node000001" class="node">
<title>Node1</title>
<g id="a_Node000001"><a xlink:title="Get the player&#39;s symbol.">
<polygon fill="#999999" stroke="#666666" points="671,-462.5 561,-462.5 561,-443.5 671,-443.5 671,-462.5"/>
<text text-anchor="middle" x="616" y="-450.5" font-family="Helvetica,sans-Serif" font-size="10.00">Player::get_symbol</text>
</a>
</g>
</g>
<!-- Node2 -->
<g id="Node000002" class="node">
<title>Node2</title>
<g id="a_Node000002"><a xlink:href="classFour__Four__XO__UI.html#a462e22aa01d930bda7449c759f36c86f" target="_top" xlink:title="Retrieves the next move from a player.">
<polygon fill="white" stroke="#666666" points="523.5,-883.5 370.5,-883.5 370.5,-864.5 523.5,-864.5 523.5,-883.5"/>
<text text-anchor="middle" x="447" y="-871.5" font-family="Helvetica,sans-Serif" font-size="10.00">Four_Four_XO_UI::get_move</text>
</a>
</g>
</g>
<!-- Node1&#45;&gt;Node2 -->
<g id="edge1_Node000001_Node000002" class="edge">
<title>Node1&#45;&gt;Node2</title>
<g id="a_edge1_Node000001_Node000002"><a xlink:title=" ">
<path fill="none" stroke="#63b8ff" d="M613.3,-473.01C606.66,-546.53 580.06,-800.39 525,-856 521.72,-859.32 517.95,-862.07 513.88,-864.35"/>
<polygon fill="#63b8ff" stroke="#63b8ff" points="616.81,-473.08 614.2,-462.81 609.84,-472.47 616.81,-473.08"/>
</a>
</g>
</g>
<!-- Node3 -->
<g id="Node000003" class="node">
<title>Node3</title>
<g id="a_Node000003"><a xlink:href="classInfinit__XO__UI.html#a01e2ad782bacda8c2f7cff214617b54c" target="_top" xlink:title="Retrieves the next move from a player.">
<polygon fill="white" stroke="#666666" points="514,-846.5 380,-846.5 380,-827.5 514,-827.5 514,-846.5"/>
<text text-anchor="middle" x="447" y="-834.5" font-family="Helvetica,sans-Serif" font-size="10.00">Infinit_XO_UI::get_move</text>
</a>
</g>
</g>
<!-- Node1&#45;&gt;Node3 -->
<g id="edge2_Node000001_Node000003" class="edge">
<title>Node1&#45;&gt;Node3</title>
<g id="a_edge2_Node000001_Node000003"><a xlink:title=" ">
<path fill="none" stroke="#63b8ff" d="M612.8,-472.84C604.78,-541.58 574.95,-768.04 525,-818 521.2,-821.8 516.78,-824.88 512,-827.37"/>
<polygon fill="#63b8ff" stroke="#63b8ff" points="616.32,-472.89 613.97,-462.56 609.36,-472.1 616.32,-472.89"/>
</a>
</g>
</g>
<!-- Node4 -->
<g id="Node000004" class="node">
<title>Node4</title>
<g id="a_Node000004"><a xlink:href="classMisere__Tic__Tac__Toe__UI.html#a13c2f356fe79f87ed9bce9ca4efadb68" target="_top" xlink:title="Retrieves the next move from a player.">
<polygon fill="white" stroke="#666666" points="503,-809 391,-809 391,-779 503,-779 503,-809"/>
<text text-anchor="start" x="399" y="-797" font-family="Helvetica,sans-Serif" font-size="10.00">Misere_Tic_Tac_Toe</text>
<text text-anchor="middle" x="447" y="-786" font-family="Helvetica,sans-Serif" font-size="10.00">_UI::get_move</text>
</a>
</g>
</g>
<!-- Node1&#45;&gt;Node4 -->
<g id="edge3_Node000001_Node000004" class="edge">
<title>Node1&#45;&gt;Node4</title>
<g id="a_edge3_Node000001_Node000004"><a xlink:title=" ">
<path fill="none" stroke="#63b8ff" d="M615.45,-472.74C615.61,-527.79 608.33,-684.52 525,-770 518.94,-776.22 511.3,-780.83 503.2,-784.25"/>
<polygon fill="#63b8ff" stroke="#63b8ff" points="618.95,-472.56 615.33,-462.6 611.95,-472.64 618.95,-472.56"/>
</a>
</g>
</g>
<!-- Node5 -->
<g id="Node000005" class="node">
<title>Node5</title>
<g id="a_Node000005"><a xlink:href="classNumerical__XO__UI.html#af6296ae59c604456f531f4e996e99467" target="_top" xlink:title="Ask the user (or AI) to make a move.">
<polygon fill="white" stroke="#666666" points="525,-760.5 369,-760.5 369,-741.5 525,-741.5 525,-760.5"/>
<text text-anchor="middle" x="447" y="-748.5" font-family="Helvetica,sans-Serif" font-size="10.00">Numerical_XO_UI::get_move</text>
</a>
</g>
</g>
<!-- Node1&#45;&gt;Node5 -->
<g id="edge4_Node000001_Node000005" class="edge">
<title>Node1&#45;&gt;Node5</title>
<g id="a_edge4_Node000001_Node000005"><a xlink:title=" ">
<path fill="none" stroke="#63b8ff" d="M614.89,-472.77C613.48,-523.95 602.31,-661.74 525,-733 521.37,-736.35 517.23,-739.11 512.81,-741.39"/>
<polygon fill="#63b8ff" stroke="#63b8ff" points="618.39,-472.77 615.07,-462.71 611.39,-472.65 618.39,-472.77"/>
</a>
</g>
</g>
<!-- Node6 -->
<g id="Node000006" class="node">
<title>Node6</title>
<g id="a_Node000006"><a xlink:href="classPyramid__XO__UI.html#a9447abc21ff1b8baa5ac1d91d84b567e" target="_top" xlink:title="Retrieves the next move from a player.">
<polygon fill="white" stroke="#666666" points="520,-723.5 374,-723.5 374,-704.5 520,-704.5 520,-723.5"/>
<text text-anchor="middle" x="447" y="-711.5" font-family="Helvetica,sans-Serif" font-size="10.00">Pyramid_XO_UI::get_move</text>
</a>
</g>
</g>
<!-- Node1&#45;&gt;Node6 -->
<g id="edge5_Node000001_Node000006" class="edge">
<title>Node1&#45;&gt;Node6</title>
<g id="a_edge5_Node000001_Node000006"><a xlink:title=" ">
<path fill="none" stroke="#63b8ff" d="M613.77,-472.93C609.77,-519.47 593.11,-635.91 525,-696 521.19,-699.36 516.87,-702.13 512.28,-704.4"/>
<polygon fill="#63b8ff" stroke="#63b8ff" points="617.28,-472.91 614.53,-462.68 610.3,-472.39 617.28,-472.91"/>
</a>
</g>
</g>
<!-- Node7 -->
<g id="Node000007" class="node">
<title>Node7</title>
<g id="a_Node000007"><a xlink:href="classSUS__UI.html#a621a4bfadf8d79f2b2b66f2241c310c3" target="_top" xlink:title="Retrieves the next move from a player.">
<polygon fill="white" stroke="#666666" points="500.5,-686.5 393.5,-686.5 393.5,-667.5 500.5,-667.5 500.5,-686.5"/>
<text text-anchor="middle" x="447" y="-674.5" font-family="Helvetica,sans-Serif" font-size="10.00">SUS_UI::get_move</text>
</a>
</g>
</g>
<!-- Node1&#45;&gt;Node7 -->
<g id="edge6_Node000001_Node000007" class="edge">
<title>Node1&#45;&gt;Node7</title>
<g id="a_edge6_Node000001_Node000007"><a xlink:title=" ">
<path fill="none" stroke="#63b8ff" d="M612.32,-472.67C605.63,-513.91 584.22,-609.7 525,-659 518.04,-664.8 509.55,-668.8 500.78,-671.55"/>
<polygon fill="#63b8ff" stroke="#63b8ff" points="615.82,-472.97 613.84,-462.57 608.89,-471.93 615.82,-472.97"/>
</a>
</g>
</g>
<!-- Node8 -->
<g id="Node000008" class="node">
<title>Node8</title>
<g id="a_Node000008"><a xlink:href="classX__O__5x5__UI.html#a60163186f3074fea418f530e78f5f9f1" target="_top" xlink:title="Ask the user (or AI) to make a move.">
<polygon fill="white" stroke="#666666" points="512,-649.5 382,-649.5 382,-630.5 512,-630.5 512,-649.5"/>
<text text-anchor="middle" x="447" y="-637.5" font-family="Helvetica,sans-Serif" font-size="10.00">X_O_5x5_UI::get_move</text>
</a>
</g>
</g>
<!-- Node1&#45;&gt;Node8 -->
<g id="edge7_Node000001_Node000008" class="edge">
<title>Node1&#45;&gt;Node8</title>
<g id="a_edge7_Node000001_Node000008"><a xlink:title=" ">
<path fill="none" stroke="#63b8ff" d="M610.1,-472.83C600.28,-508.27 574.75,-582.35 525,-621 520,-624.89 514.31,-627.99 508.34,-630.46"/>
<polygon fill="#63b8ff" stroke="#63b8ff" points="613.58,-473.34 612.75,-462.78 606.82,-471.56 613.58,-473.34"/>
</a>
</g>
</g>
<!-- Node9 -->
<g id="Node000009" class="node">
<title>Node9</title>
<g id="a_Node000009"><a xlink:href="classMisere__Tic__Tac__Toe__board.html#a17b6a2ec14f1f4c9dc5b6cd59127bc56" target="_top" xlink:title="Checks if the given player has lost the game.">
<polygon fill="white" stroke="#666666" points="503,-612 391,-612 391,-582 503,-582 503,-612"/>
<text text-anchor="start" x="399" y="-600" font-family="Helvetica,sans-Serif" font-size="10.00">Misere_Tic_Tac_Toe</text>
<text text-anchor="middle" x="447" y="-589" font-family="Helvetica,sans-Serif" font-size="10.00">_board::is_lose</text>
</a>
</g>
</g>
<!-- Node1&#45;&gt;Node9 -->
<g id="edge8_Node000001_Node000009" class="edge">
<title>Node1&#45;&gt;Node9</title>
<g id="a_edge8_Node000001_Node000009"><a xlink:title=" ">
<path fill="none" stroke="#63b8ff" d="M605.83,-471.69C591.95,-498.1 563.11,-546.1 525,-573 518.37,-577.68 510.78,-581.48 503.03,-584.54"/>
<polygon fill="#63b8ff" stroke="#63b8ff" points="608.99,-473.21 610.41,-462.72 602.75,-470.03 608.99,-473.21"/>
</a>
</g>
</g>
<!-- Node12 -->
<g id="Node000012" class="node">
<title>Node12</title>
<g id="a_Node000012"><a xlink:href="classFour__Four__XO__Board.html#a469ec43cdebb07b56a2b780ba9134506" target="_top" xlink:title="Check if a player has won.">
<polygon fill="white" stroke="#666666" points="505,-564 389,-564 389,-534 505,-534 505,-564"/>
<text text-anchor="start" x="397" y="-552" font-family="Helvetica,sans-Serif" font-size="10.00">Four_Four_XO_Board</text>
<text text-anchor="middle" x="447" y="-541" font-family="Helvetica,sans-Serif" font-size="10.00">::is_win</text>
</a>
</g>
</g>
<!-- Node1&#45;&gt;Node12 -->
<g id="edge12_Node000001_Node000012" class="edge">
<title>Node1&#45;&gt;Node12</title>
<g id="a_edge12_Node000001_Node000012"><a xlink:title=" ">
<path fill="none" stroke="#63b8ff" d="M597.85,-470.01C580.7,-486.18 552.94,-510.15 525,-525 518.69,-528.35 511.84,-531.32 504.92,-533.92"/>
<polygon fill="#63b8ff" stroke="#63b8ff" points="600.58,-472.24 605.36,-462.78 595.73,-467.19 600.58,-472.24"/>
</a>
</g>
</g>
<!-- Node15 -->
<g id="Node000015" class="node">
<title>Node15</title>
<g id="a_Node000015"><a xlink:href="classInfinity__X__O__Board.html#adee61151bd324d1e28fb1391e1df0789" target="_top" xlink:title="Checks if the given player has won the game.">
<polygon fill="white" stroke="#666666" points="501.5,-516 392.5,-516 392.5,-486 501.5,-486 501.5,-516"/>
<text text-anchor="start" x="400.5" y="-504" font-family="Helvetica,sans-Serif" font-size="10.00">Infinity_X_O_Board</text>
<text text-anchor="middle" x="447" y="-493" font-family="Helvetica,sans-Serif" font-size="10.00">::is_win</text>
</a>
</g>
</g>
<!-- Node1&#45;&gt;Node15 -->
<g id="edge16_Node000001_Node000015" class="edge">
<title>Node1&#45;&gt;Node15</title>
<g id="a_edge16_Node000001_Node000015"><a xlink:title=" ">
<path fill="none" stroke="#63b8ff" d="M571.95,-465.37C550.12,-471.65 523.42,-479.32 500.41,-485.94"/>
<polygon fill="#63b8ff" stroke="#63b8ff" points="572.96,-468.72 581.61,-462.6 571.03,-462 572.96,-468.72"/>
</a>
</g>
</g>
<!-- Node18 -->
<g id="Node000018" class="node">
<title>Node18</title>
<g id="a_Node000018"><a xlink:href="classNumerical__X__O__Board.html#a0940816900ed8bf06b0cd49d70b443fd" target="_top" xlink:title="Check if a player has won.">
<polygon fill="white" stroke="#666666" points="509.5,-468 384.5,-468 384.5,-438 509.5,-438 509.5,-468"/>
<text text-anchor="start" x="392.5" y="-456" font-family="Helvetica,sans-Serif" font-size="10.00">Numerical_X_O_Board</text>
<text text-anchor="middle" x="447" y="-445" font-family="Helvetica,sans-Serif" font-size="10.00">::is_win</text>
</a>
</g>
</g>
<!-- Node1&#45;&gt;Node18 -->
<g id="edge20_Node000001_Node000018" class="edge">
<title>Node1&#45;&gt;Node18</title>
<g id="a_edge20_Node000001_Node000018"><a xlink:title=" ">
<path fill="none" stroke="#63b8ff" d="M550.67,-453C537.24,-453 523.11,-453 509.77,-453"/>
<polygon fill="#63b8ff" stroke="#63b8ff" points="550.78,-456.5 560.78,-453 550.78,-449.5 550.78,-456.5"/>
</a>
</g>
</g>
<!-- Node21 -->
<g id="Node000021" class="node">
<title>Node21</title>
<g id="a_Node000021"><a xlink:href="classPyramid__XO__Board.html#a757067ee52a8f5b1cf1b6777b6c7b331" target="_top" xlink:title="Checks if the given player has won the game.">
<polygon fill="white" stroke="#666666" points="520,-419.5 374,-419.5 374,-400.5 520,-400.5 520,-419.5"/>
<text text-anchor="middle" x="447" y="-407.5" font-family="Helvetica,sans-Serif" font-size="10.00">Pyramid_XO_Board::is_win</text>
</a>
</g>
</g>
<!-- Node1&#45;&gt;Node21 -->
<g id="edge24_Node000001_Node000021" class="edge">
<title>Node1&#45;&gt;Node21</title>
<g id="a_edge24_Node000001_Node000021"><a xlink:title=" ">
<path fill="none" stroke="#63b8ff" d="M569.51,-440.69C555.27,-436.89 539.49,-432.72 525,-429 512.73,-425.85 499.33,-422.51 487.21,-419.52"/>
<polygon fill="#63b8ff" stroke="#63b8ff" points="569,-444.18 579.56,-443.39 570.81,-437.42 569,-444.18"/>
</a>
</g>
</g>
<!-- Node24 -->
<g id="Node000024" class="node">
<title>Node24</title>
<g id="a_Node000024"><a xlink:href="classSUS__Board.html#a48747aa0b5f24bac5b5953576725b3ec" target="_top" xlink:title="Checks if the given player has won the game.">
<polygon fill="white" stroke="#666666" points="500.5,-382.5 393.5,-382.5 393.5,-363.5 500.5,-363.5 500.5,-382.5"/>
<text text-anchor="middle" x="447" y="-370.5" font-family="Helvetica,sans-Serif" font-size="10.00">SUS_Board::is_win</text>
</a>
</g>
</g>
<!-- Node1&#45;&gt;Node24 -->
<g id="edge28_Node000001_Node000024" class="edge">
<title>Node1&#45;&gt;Node24</title>
<g id="a_edge28_Node000001_Node000024"><a xlink:title=" ">
<path fill="none" stroke="#63b8ff" d="M595.63,-436.87C578.18,-423.09 551.29,-403.7 525,-392 516.45,-388.19 507,-385.07 497.75,-382.53"/>
<polygon fill="#63b8ff" stroke="#63b8ff" points="593.87,-439.94 603.85,-443.49 598.26,-434.49 593.87,-439.94"/>
</a>
</g>
</g>
<!-- Node27 -->
<g id="Node000027" class="node">
<title>Node27</title>
<g id="a_Node000027"><a xlink:href="classX__O__5x5__Board.html#a90eeba3a2b960065c81ab50b08997da5" target="_top" xlink:title="Check if a player has won.">
<polygon fill="white" stroke="#666666" points="512,-345.5 382,-345.5 382,-326.5 512,-326.5 512,-345.5"/>
<text text-anchor="middle" x="447" y="-333.5" font-family="Helvetica,sans-Serif" font-size="10.00">X_O_5x5_Board::is_win</text>
</a>
</g>
</g>
<!-- Node1&#45;&gt;Node27 -->
<g id="edge32_Node000001_Node000027" class="edge">
<title>Node1&#45;&gt;Node27</title>
<g id="a_edge32_Node000001_Node000027"><a xlink:title=" ">
<path fill="none" stroke="#63b8ff" d="M603.43,-434.96C588.19,-412.69 559.26,-375.3 525,-355 518.48,-351.14 511.22,-348.06 503.82,-345.61"/>
<polygon fill="#63b8ff" stroke="#63b8ff" points="600.65,-437.09 609.1,-443.48 606.47,-433.22 600.65,-437.09"/>
</a>
</g>
</g>
<!-- Node30 -->
<g id="Node000030" class="node">
<title>Node30</title>
<g id="a_Node000030"><a xlink:href="classFour__Four__XO__Board.html#a406a2273ba6b32bc074afdd0402223ac" target="_top" xlink:title="Update the board with a new move.">
<polygon fill="white" stroke="#666666" points="505,-308 389,-308 389,-278 505,-278 505,-308"/>
<text text-anchor="start" x="397" y="-296" font-family="Helvetica,sans-Serif" font-size="10.00">Four_Four_XO_Board</text>
<text text-anchor="middle" x="447" y="-285" font-family="Helvetica,sans-Serif" font-size="10.00">::update_board</text>
</a>
</g>
</g>
<!-- Node1&#45;&gt;Node30 -->
<g id="edge35_Node000001_Node000030" class="edge">
<title>Node1&#45;&gt;Node30</title>
<g id="a_edge35_Node000001_Node000030"><a xlink:title=" ">
<path fill="none" stroke="#63b8ff" d="M607.15,-433.72C594.29,-404.48 565.99,-349.06 525,-318 519.06,-313.5 512.28,-309.79 505.26,-306.74"/>
<polygon fill="#63b8ff" stroke="#63b8ff" points="604.05,-435.38 611.19,-443.21 610.5,-432.64 604.05,-435.38"/>
</a>
</g>
</g>
<!-- Node31 -->
<g id="Node000031" class="node">
<title>Node31</title>
<g id="a_Node000031"><a xlink:href="classInfinity__X__O__Board.html#acdf958b1a2d08227ccfe316a68519622" target="_top" xlink:title="Updates the board with a player&#39;s move.">
<polygon fill="white" stroke="#666666" points="501.5,-260 392.5,-260 392.5,-230 501.5,-230 501.5,-260"/>
<text text-anchor="start" x="400.5" y="-248" font-family="Helvetica,sans-Serif" font-size="10.00">Infinity_X_O_Board</text>
<text text-anchor="middle" x="447" y="-237" font-family="Helvetica,sans-Serif" font-size="10.00">::update_board</text>
</a>
</g>
</g>
<!-- Node1&#45;&gt;Node31 -->
<g id="edge36_Node000001_Node000031" class="edge">
<title>Node1&#45;&gt;Node31</title>
<g id="a_edge36_Node000001_Node000031"><a xlink:title=" ">
<path fill="none" stroke="#63b8ff" d="M610.8,-433.19C601.8,-395.6 577.1,-313.69 525,-269 518.3,-263.26 510.24,-258.89 501.89,-255.56"/>
<polygon fill="#63b8ff" stroke="#63b8ff" points="607.48,-434.37 613.1,-443.34 614.3,-432.82 607.48,-434.37"/>
</a>
</g>
</g>
<!-- Node32 -->
<g id="Node000032" class="node">
<title>Node32</title>
<g id="a_Node000032"><a xlink:href="classMisere__Tic__Tac__Toe__board.html#a51c52a227b90423940eef5c91097d879" target="_top" xlink:title="Updates the board with a player&#39;s move.">
<polygon fill="white" stroke="#666666" points="508,-212 386,-212 386,-182 508,-182 508,-212"/>
<text text-anchor="start" x="394" y="-200" font-family="Helvetica,sans-Serif" font-size="10.00">Misere_Tic_Tac_Toe</text>
<text text-anchor="middle" x="447" y="-189" font-family="Helvetica,sans-Serif" font-size="10.00">_board::update_board</text>
</a>
</g>
</g>
<!-- Node1&#45;&gt;Node32 -->
<g id="edge37_Node000001_Node000032" class="edge">
<title>Node1&#45;&gt;Node32</title>
<g id="a_edge37_Node000001_Node000032"><a xlink:title=" ">
<path fill="none" stroke="#63b8ff" d="M613.07,-433.38C607.66,-389 588.31,-280.15 525,-221 520.09,-216.41 514.31,-212.7 508.17,-209.7"/>
<polygon fill="#63b8ff" stroke="#63b8ff" points="609.61,-433.88 614.19,-443.43 616.56,-433.11 609.61,-433.88"/>
</a>
</g>
</g>
<!-- Node33 -->
<g id="Node000033" class="node">
<title>Node33</title>
<g id="a_Node000033"><a xlink:href="classNumerical__X__O__Board.html#ae4bed90db4f9d8308c3b4e7e0db8a5d4" target="_top" xlink:title="Update the board with a new move.">
<polygon fill="white" stroke="#666666" points="509.5,-164 384.5,-164 384.5,-134 509.5,-134 509.5,-164"/>
<text text-anchor="start" x="392.5" y="-152" font-family="Helvetica,sans-Serif" font-size="10.00">Numerical_X_O_Board</text>
<text text-anchor="middle" x="447" y="-141" font-family="Helvetica,sans-Serif" font-size="10.00">::update_board</text>
</a>
</g>
</g>
<!-- Node1&#45;&gt;Node33 -->
<g id="edge38_Node000001_Node000033" class="edge">
<title>Node1&#45;&gt;Node33</title>
<g id="a_edge38_Node000001_Node000033"><a xlink:title=" ">
<path fill="none" stroke="#63b8ff" d="M614.57,-433.23C612.4,-382.56 599.52,-246.86 525,-173 520.52,-168.56 515.24,-164.95 509.58,-162"/>
<polygon fill="#63b8ff" stroke="#63b8ff" points="611.08,-433.57 614.91,-443.45 618.08,-433.34 611.08,-433.57"/>
</a>
</g>
</g>
<!-- Node34 -->
<g id="Node000034" class="node">
<title>Node34</title>
<g id="a_Node000034"><a xlink:href="classPyramid__XO__Board.html#a77b86fd4ce8a0750fc1b979ae23a2407" target="_top" xlink:title="Updates the board with a player&#39;s move.">
<polygon fill="white" stroke="#666666" points="521.5,-116 372.5,-116 372.5,-86 521.5,-86 521.5,-116"/>
<text text-anchor="start" x="380.5" y="-104" font-family="Helvetica,sans-Serif" font-size="10.00">Pyramid_XO_Board::update</text>
<text text-anchor="middle" x="447" y="-93" font-family="Helvetica,sans-Serif" font-size="10.00">_board</text>
</a>
</g>
</g>
<!-- Node1&#45;&gt;Node34 -->
<g id="edge39_Node000001_Node000034" class="edge">
<title>Node1&#45;&gt;Node34</title>
<g id="a_edge39_Node000001_Node000034"><a xlink:title=" ">
<path fill="none" stroke="#63b8ff" d="M615.68,-433.32C616.5,-377.08 610.99,-213.99 525,-125 521.69,-121.58 517.9,-118.64 513.82,-116.12"/>
<polygon fill="#63b8ff" stroke="#63b8ff" points="612.18,-433.29 615.44,-443.37 619.18,-433.45 612.18,-433.29"/>
</a>
</g>
</g>
<!-- Node35 -->
<g id="Node000035" class="node">
<title>Node35</title>
<g id="a_Node000035"><a xlink:href="classSUS__Board.html#a5cf8d1ad2da90ed50b77a7f5d91342f4" target="_top" xlink:title="Updates the board with a player&#39;s move.">
<polygon fill="white" stroke="#666666" points="518.5,-67.5 375.5,-67.5 375.5,-48.5 518.5,-48.5 518.5,-67.5"/>
<text text-anchor="middle" x="447" y="-55.5" font-family="Helvetica,sans-Serif" font-size="10.00">SUS_Board::update_board</text>
</a>
</g>
</g>
<!-- Node1&#45;&gt;Node35 -->
<g id="edge40_Node000001_Node000035" class="edge">
<title>Node1&#45;&gt;Node35</title>
<g id="a_edge40_Node000001_Node000035"><a xlink:title=" ">
<path fill="none" stroke="#63b8ff" d="M612.93,-433C605.28,-362.74 576.3,-128.66 525,-77 521.22,-73.19 516.8,-70.1 512.03,-67.6"/>
<polygon fill="#63b8ff" stroke="#63b8ff" points="609.48,-433.58 614.01,-443.15 616.44,-432.84 609.48,-433.58"/>
</a>
</g>
</g>
<!-- Node36 -->
<g id="Node000036" class="node">
<title>Node36</title>
<g id="a_Node000036"><a xlink:href="classX__O__5x5__Board.html#a4c7b73d99de1c299bbef965cdc3c5f32" target="_top" xlink:title="Update the board with a new move.">
<polygon fill="white" stroke="#666666" points="513.5,-30 380.5,-30 380.5,0 513.5,0 513.5,-30"/>
<text text-anchor="start" x="388.5" y="-18" font-family="Helvetica,sans-Serif" font-size="10.00">X_O_5x5_Board::update</text>
<text text-anchor="middle" x="447" y="-7" font-family="Helvetica,sans-Serif" font-size="10.00">_board</text>
</a>
</g>
</g>
<!-- Node1&#45;&gt;Node36 -->
<g id="edge41_Node000001_Node000036" class="edge">
<title>Node1&#45;&gt;Node36</title>
<g id="a_edge41_Node000001_Node000036"><a xlink:title=" ">
<path fill="none" stroke="#63b8ff" d="M613.29,-433.07C606.54,-358.66 579.34,-98.35 525,-39 521.69,-35.39 517.85,-32.31 513.68,-29.7"/>
<polygon fill="#63b8ff" stroke="#63b8ff" points="609.84,-433.7 614.2,-443.36 616.81,-433.09 609.84,-433.7"/>
</a>
</g>
</g>
<!-- Node10 -->
<g id="Node000010" class="node">
<title>Node10</title>
<g id="a_Node000010"><a xlink:href="classMisere__Tic__Tac__Toe__board.html#ada7bdaa8066378a91d22134d2b931343" target="_top" xlink:title="Determines if the game is over (win or draw).">
<polygon fill="white" stroke="#666666" points="134,-728 10,-728 10,-698 134,-698 134,-728"/>
<text text-anchor="start" x="18" y="-716" font-family="Helvetica,sans-Serif" font-size="10.00">Misere_Tic_Tac_Toe</text>
<text text-anchor="middle" x="72" y="-705" font-family="Helvetica,sans-Serif" font-size="10.00">_board::game_is_over</text>
</a>
</g>
</g>
<!-- Node9&#45;&gt;Node10 -->
<g id="edge9_Node000009_Node000010" class="edge">
<title>Node9&#45;&gt;Node10</title>
<g id="a_edge9_Node000009_Node000010"><a xlink:title=" ">
<path fill="none" stroke="#63b8ff" d="M381.7,-612.69C377.1,-615.32 372.79,-618.4 369,-622 336.56,-652.8 369.86,-690.65 333,-716 269.21,-759.87 174.2,-743.62 118.43,-728.11"/>
<polygon fill="#63b8ff" stroke="#63b8ff" points="383.45,-615.72 390.85,-608.14 380.34,-609.46 383.45,-615.72"/>
</a>
</g>
</g>
<!-- Node11 -->
<g id="Node000011" class="node">
<title>Node11</title>
<g id="a_Node000011"><a xlink:href="classMisere__Tic__Tac__Toe__board.html#ae61d1f10678bb86d7de70a6a5f0e67f7" target="_top" xlink:title="Checks if the game has ended in a draw.">
<polygon fill="white" stroke="#666666" points="312.5,-707 200.5,-707 200.5,-677 312.5,-677 312.5,-707"/>
<text text-anchor="start" x="208.5" y="-695" font-family="Helvetica,sans-Serif" font-size="10.00">Misere_Tic_Tac_Toe</text>
<text text-anchor="middle" x="256.5" y="-684" font-family="Helvetica,sans-Serif" font-size="10.00">_board::is_draw</text>
</a>
</g>
</g>
<!-- Node9&#45;&gt;Node11 -->
<g id="edge10_Node000009_Node000011" class="edge">
<title>Node9&#45;&gt;Node11</title>
<g id="a_edge10_Node000009_Node000011"><a xlink:title=" ">
<path fill="none" stroke="#63b8ff" d="M381.66,-614.9C377.24,-617.02 372.97,-619.38 369,-622 348.74,-635.33 352.9,-649.14 333,-663 325.17,-668.46 316.17,-673.06 307.17,-676.88"/>
<polygon fill="#63b8ff" stroke="#63b8ff" points="383.13,-618.07 390.88,-610.85 380.32,-611.66 383.13,-618.07"/>
</a>
</g>
</g>
<!-- Node11&#45;&gt;Node10 -->
<g id="edge11_Node000011_Node000010" class="edge">
<title>Node11&#45;&gt;Node10</title>
<g id="a_edge11_Node000011_Node000010"><a xlink:title=" ">
<path fill="none" stroke="#63b8ff" d="M190.26,-699.51C171.97,-701.61 152.16,-703.89 134.12,-705.97"/>
<polygon fill="#63b8ff" stroke="#63b8ff" points="190.71,-702.98 200.25,-698.36 189.91,-696.02 190.71,-702.98"/>
</a>
</g>
</g>
<!-- Node13 -->
<g id="Node000013" class="node">
<title>Node13</title>
<g id="a_Node000013"><a xlink:href="classFour__Four__XO__Board.html#ac6b120eac0b398ddc91e9bc1562badf9" target="_top" xlink:title="Check if the game is over.">
<polygon fill="white" stroke="#666666" points="130,-642 14,-642 14,-612 130,-612 130,-642"/>
<text text-anchor="start" x="22" y="-630" font-family="Helvetica,sans-Serif" font-size="10.00">Four_Four_XO_Board</text>
<text text-anchor="middle" x="72" y="-619" font-family="Helvetica,sans-Serif" font-size="10.00">::game_is_over</text>
</a>
</g>
</g>
<!-- Node12&#45;&gt;Node13 -->
<g id="edge13_Node000012_Node000013" class="edge">
<title>Node12&#45;&gt;Node13</title>
<g id="a_edge13_Node000012_Node000013"><a xlink:title=" ">
<path fill="none" stroke="#63b8ff" d="M379.33,-566.32C375.7,-568.31 372.22,-570.53 369,-573 345.23,-591.25 359.24,-615.54 333,-630 268.66,-665.46 181.04,-654.62 125.75,-642.02"/>
<polygon fill="#63b8ff" stroke="#63b8ff" points="381.16,-569.32 388.64,-561.81 378.11,-563.02 381.16,-569.32"/>
</a>
</g>
</g>
<!-- Node14 -->
<g id="Node000014" class="node">
<title>Node14</title>
<g id="a_Node000014"><a xlink:href="classFour__Four__XO__Board.html#afcade23d315ec56024baeaaca94e432f" target="_top" xlink:title="Check if the game ended in a draw.">
<polygon fill="white" stroke="#666666" points="314.5,-621 198.5,-621 198.5,-591 314.5,-591 314.5,-621"/>
<text text-anchor="start" x="206.5" y="-609" font-family="Helvetica,sans-Serif" font-size="10.00">Four_Four_XO_Board</text>
<text text-anchor="middle" x="256.5" y="-598" font-family="Helvetica,sans-Serif" font-size="10.00">::is_draw</text>
</a>
</g>
</g>
<!-- Node12&#45;&gt;Node14 -->
<g id="edge14_Node000012_Node000014" class="edge">
<title>Node12&#45;&gt;Node14</title>
<g id="a_edge14_Node000012_Node000014"><a xlink:title=" ">
<path fill="none" stroke="#63b8ff" d="M386.11,-567.11C360.77,-574.77 331.58,-583.6 307.43,-590.9"/>
<polygon fill="#63b8ff" stroke="#63b8ff" points="387.42,-570.37 395.98,-564.13 385.4,-563.67 387.42,-570.37"/>
</a>
</g>
</g>
<!-- Node14&#45;&gt;Node13 -->
<g id="edge15_Node000014_Node000013" class="edge">
<title>Node14&#45;&gt;Node13</title>
<g id="a_edge15_Node000014_Node000013"><a xlink:title=" ">
<path fill="none" stroke="#63b8ff" d="M188.13,-613.75C169.04,-615.95 148.45,-618.32 130.04,-620.44"/>
<polygon fill="#63b8ff" stroke="#63b8ff" points="188.72,-617.21 198.26,-612.59 187.92,-610.25 188.72,-617.21"/>
</a>
</g>
</g>
<!-- Node16 -->
<g id="Node000016" class="node">
<title>Node16</title>
<g id="a_Node000016"><a xlink:href="classInfinity__X__O__Board.html#aecd2c26979b7ba39a036ec469363f6bf" target="_top" xlink:title="Determines if the game is over (win or draw).">
<polygon fill="white" stroke="#666666" points="126.5,-556 17.5,-556 17.5,-526 126.5,-526 126.5,-556"/>
<text text-anchor="start" x="25.5" y="-544" font-family="Helvetica,sans-Serif" font-size="10.00">Infinity_X_O_Board</text>
<text text-anchor="middle" x="72" y="-533" font-family="Helvetica,sans-Serif" font-size="10.00">::game_is_over</text>
</a>
</g>
</g>
<!-- Node15&#45;&gt;Node16 -->
<g id="edge17_Node000015_Node000016" class="edge">
<title>Node15&#45;&gt;Node16</title>
<g id="a_edge17_Node000015_Node000016"><a xlink:title=" ">
<path fill="none" stroke="#63b8ff" d="M383.43,-519.43C378.51,-521.21 373.65,-523.07 369,-525 352.29,-531.94 350.56,-539.65 333,-544 263.33,-561.26 179.91,-555.92 126.69,-549.4"/>
<polygon fill="#63b8ff" stroke="#63b8ff" points="384.64,-522.72 392.94,-516.13 382.34,-516.1 384.64,-522.72"/>
</a>
</g>
</g>
<!-- Node17 -->
<g id="Node000017" class="node">
<title>Node17</title>
<g id="a_Node000017"><a xlink:href="classInfinity__X__O__Board.html#a27dc0d692d24c8ec6e921267424bf046" target="_top" xlink:title="Checks if the game has ended in a draw.">
<polygon fill="white" stroke="#666666" points="311,-535 202,-535 202,-505 311,-505 311,-535"/>
<text text-anchor="start" x="210" y="-523" font-family="Helvetica,sans-Serif" font-size="10.00">Infinity_X_O_Board</text>
<text text-anchor="middle" x="256.5" y="-512" font-family="Helvetica,sans-Serif" font-size="10.00">::is_draw</text>
</a>
</g>
</g>
<!-- Node15&#45;&gt;Node17 -->
<g id="edge18_Node000015_Node000017" class="edge">
<title>Node15&#45;&gt;Node17</title>
<g id="a_edge18_Node000015_Node000017"><a xlink:title=" ">
<path fill="none" stroke="#63b8ff" d="M382.41,-507.41C359.27,-509.74 333.35,-512.35 311.15,-514.59"/>
<polygon fill="#63b8ff" stroke="#63b8ff" points="382.89,-510.88 392.49,-506.39 382.19,-503.91 382.89,-510.88"/>
</a>
</g>
</g>
<!-- Node17&#45;&gt;Node16 -->
<g id="edge19_Node000017_Node000016" class="edge">
<title>Node17&#45;&gt;Node16</title>
<g id="a_edge19_Node000017_Node000016"><a xlink:title=" ">
<path fill="none" stroke="#63b8ff" d="M191.53,-527.36C170.36,-529.8 147.02,-532.48 126.7,-534.82"/>
<polygon fill="#63b8ff" stroke="#63b8ff" points="192.2,-530.81 201.73,-526.19 191.4,-523.85 192.2,-530.81"/>
</a>
</g>
</g>
<!-- Node19 -->
<g id="Node000019" class="node">
<title>Node19</title>
<g id="a_Node000019"><a xlink:href="classNumerical__X__O__Board.html#a4dbd494c6fca2beea04c4180d3d322e9" target="_top" xlink:title="Check if the game is over.">
<polygon fill="white" stroke="#666666" points="134.5,-470 9.5,-470 9.5,-440 134.5,-440 134.5,-470"/>
<text text-anchor="start" x="17.5" y="-458" font-family="Helvetica,sans-Serif" font-size="10.00">Numerical_X_O_Board</text>
<text text-anchor="middle" x="72" y="-447" font-family="Helvetica,sans-Serif" font-size="10.00">::game_is_over</text>
</a>
</g>
</g>
<!-- Node18&#45;&gt;Node19 -->
<g id="edge21_Node000018_Node000019" class="edge">
<title>Node18&#45;&gt;Node19</title>
<g id="a_edge21_Node000018_Node000019"><a xlink:title=" ">
<path fill="none" stroke="#63b8ff" d="M374.12,-456.66C360.47,-457.22 346.3,-457.71 333,-458 265.02,-459.5 247.99,-458.95 180,-458 165.32,-457.79 149.51,-457.43 134.67,-457.02"/>
<polygon fill="#63b8ff" stroke="#63b8ff" points="374.6,-460.14 384.44,-456.22 374.3,-453.15 374.6,-460.14"/>
</a>
</g>
</g>
<!-- Node20 -->
<g id="Node000020" class="node">
<title>Node20</title>
<g id="a_Node000020"><a xlink:href="classNumerical__X__O__Board.html#a2d3ee20a3d8e9b2e001649ce85d3a515" target="_top" xlink:title="Check if the game ended in a draw.">
<polygon fill="white" stroke="#666666" points="319,-449 194,-449 194,-419 319,-419 319,-449"/>
<text text-anchor="start" x="202" y="-437" font-family="Helvetica,sans-Serif" font-size="10.00">Numerical_X_O_Board</text>
<text text-anchor="middle" x="256.5" y="-426" font-family="Helvetica,sans-Serif" font-size="10.00">::is_draw</text>
</a>
</g>
</g>
<!-- Node18&#45;&gt;Node20 -->
<g id="edge22_Node000018_Node000020" class="edge">
<title>Node18&#45;&gt;Node20</title>
<g id="a_edge22_Node000018_Node000020"><a xlink:title=" ">
<path fill="none" stroke="#63b8ff" d="M374.3,-445.77C356.09,-443.94 336.69,-441.98 319.04,-440.2"/>
<polygon fill="#63b8ff" stroke="#63b8ff" points="373.98,-449.26 384.28,-446.78 374.68,-442.29 373.98,-449.26"/>
</a>
</g>
</g>
<!-- Node20&#45;&gt;Node19 -->
<g id="edge23_Node000020_Node000019" class="edge">
<title>Node20&#45;&gt;Node19</title>
<g id="a_edge23_Node000020_Node000019"><a xlink:title=" ">
<path fill="none" stroke="#63b8ff" d="M183.94,-442.23C167.63,-444.11 150.43,-446.09 134.57,-447.91"/>
<polygon fill="#63b8ff" stroke="#63b8ff" points="184.43,-445.7 193.97,-441.08 183.63,-438.75 184.43,-445.7"/>
</a>
</g>
</g>
<!-- Node22 -->
<g id="Node000022" class="node">
<title>Node22</title>
<g id="a_Node000022"><a xlink:href="classPyramid__XO__Board.html#a4ea52230886944457ad5dfd1d8732da7" target="_top" xlink:title="Determines if the game is over (win or draw).">
<polygon fill="white" stroke="#666666" points="143.5,-378 0.5,-378 0.5,-348 143.5,-348 143.5,-378"/>
<text text-anchor="start" x="8.5" y="-366" font-family="Helvetica,sans-Serif" font-size="10.00">Pyramid_XO_Board::game</text>
<text text-anchor="middle" x="72" y="-355" font-family="Helvetica,sans-Serif" font-size="10.00">_is_over</text>
</a>
</g>
</g>
<!-- Node21&#45;&gt;Node22 -->
<g id="edge25_Node000021_Node000022" class="edge">
<title>Node21&#45;&gt;Node22</title>
<g id="a_edge25_Node000021_Node000022"><a xlink:title=" ">
<path fill="none" stroke="#63b8ff" d="M363.69,-399.63C297.75,-391.32 206.21,-379.79 143.58,-371.89"/>
<polygon fill="#63b8ff" stroke="#63b8ff" points="363.28,-403.1 373.64,-400.88 364.16,-396.16 363.28,-403.1"/>
</a>
</g>
</g>
<!-- Node23 -->
<g id="Node000023" class="node">
<title>Node23</title>
<g id="a_Node000023"><a xlink:href="classPyramid__XO__Board.html#a8fe3a3f5772c0cda1eb6c847f6bdf39c" target="_top" xlink:title="Checks if the game has ended in a draw.">
<polygon fill="white" stroke="#666666" points="333,-362.5 180,-362.5 180,-343.5 333,-343.5 333,-362.5"/>
<text text-anchor="middle" x="256.5" y="-350.5" font-family="Helvetica,sans-Serif" font-size="10.00">Pyramid_XO_Board::is_draw</text>
</a>
</g>
</g>
<!-- Node21&#45;&gt;Node23 -->
<g id="edge26_Node000021_Node000023" class="edge">
<title>Node21&#45;&gt;Node23</title>
<g id="a_edge26_Node000021_Node000023"><a xlink:title=" ">
<path fill="none" stroke="#63b8ff" d="M389.52,-397.93C382.56,-396.11 375.58,-394.12 369,-392 352.5,-386.68 349.27,-382.96 333,-377 318.92,-371.84 303.15,-366.72 289.67,-362.55"/>
<polygon fill="#63b8ff" stroke="#63b8ff" points="389.1,-401.43 399.65,-400.47 390.8,-394.64 389.1,-401.43"/>
</a>
</g>
</g>
<!-- Node23&#45;&gt;Node22 -->
<g id="edge27_Node000023_Node000022" class="edge">
<title>Node23&#45;&gt;Node22</title>
<g id="a_edge27_Node000023_Node000022"><a xlink:title=" ">
<path fill="none" stroke="#63b8ff" d="M169.71,-357.7C160.93,-358.18 152.09,-358.67 143.51,-359.14"/>
<polygon fill="#63b8ff" stroke="#63b8ff" points="170.16,-361.18 179.95,-357.14 169.78,-354.19 170.16,-361.18"/>
</a>
</g>
</g>
<!-- Node25 -->
<g id="Node000025" class="node">
<title>Node25</title>
<g id="a_Node000025"><a xlink:href="classSUS__Board.html#a1402f8069947c57d4b65f50248e699b2" target="_top" xlink:title="Determines if the game is over (win or draw).">
<polygon fill="white" stroke="#666666" points="144,-313.5 0,-313.5 0,-294.5 144,-294.5 144,-313.5"/>
<text text-anchor="middle" x="72" y="-301.5" font-family="Helvetica,sans-Serif" font-size="10.00">SUS_Board::game_is_over</text>
</a>
</g>
</g>
<!-- Node24&#45;&gt;Node25 -->
<g id="edge29_Node000024_Node000025" class="edge">
<title>Node24&#45;&gt;Node25</title>
<g id="a_edge29_Node000024_Node000025"><a xlink:title=" ">
<path fill="none" stroke="#63b8ff" d="M386.19,-360.76C380.32,-359.04 374.5,-357.12 369,-355 351.92,-348.41 350.41,-340.63 333,-335 271.15,-314.99 197.27,-307.66 144.1,-305.09"/>
<polygon fill="#63b8ff" stroke="#63b8ff" points="385.52,-364.2 396.09,-363.47 387.37,-357.45 385.52,-364.2"/>
</a>
</g>
</g>
<!-- Node26 -->
<g id="Node000026" class="node">
<title>Node26</title>
<g id="a_Node000026"><a xlink:href="classSUS__Board.html#a006d0b395a8912ceb0335b95cc69de49" target="_top" xlink:title="Checks if the game has ended in a draw.">
<polygon fill="white" stroke="#666666" points="313,-286.5 200,-286.5 200,-267.5 313,-267.5 313,-286.5"/>
<text text-anchor="middle" x="256.5" y="-274.5" font-family="Helvetica,sans-Serif" font-size="10.00">SUS_Board::is_draw</text>
</a>
</g>
</g>
<!-- Node24&#45;&gt;Node26 -->
<g id="edge30_Node000024_Node000026" class="edge">
<title>Node24&#45;&gt;Node26</title>
<g id="a_edge30_Node000024_Node000026"><a xlink:title=" ">
<path fill="none" stroke="#63b8ff" d="M383.69,-362.86C378.5,-360.72 373.51,-358.13 369,-355 345.3,-338.57 356.04,-318.35 333,-301 324.65,-294.71 314.6,-290.04 304.6,-286.59"/>
<polygon fill="#63b8ff" stroke="#63b8ff" points="382.62,-366.2 393.22,-366.26 384.97,-359.6 382.62,-366.2"/>
</a>
</g>
</g>
<!-- Node26&#45;&gt;Node25 -->
<g id="edge31_Node000026_Node000025" class="edge">
<title>Node26&#45;&gt;Node25</title>
<g id="a_edge31_Node000026_Node000025"><a xlink:title=" ">
<path fill="none" stroke="#63b8ff" d="M189.38,-286.78C172.43,-289.29 154.22,-291.98 137.36,-294.48"/>
<polygon fill="#63b8ff" stroke="#63b8ff" points="190.37,-290.17 199.75,-285.25 189.35,-283.25 190.37,-290.17"/>
</a>
</g>
</g>
<!-- Node28 -->
<g id="Node000028" class="node">
<title>Node28</title>
<g id="a_Node000028"><a xlink:href="classX__O__5x5__Board.html#ad2e0c1e9c3cb85acdbff6c081ad7b8b3" target="_top" xlink:title="Check if the game is over.">
<polygon fill="white" stroke="#666666" points="320,-249 193,-249 193,-219 320,-219 320,-249"/>
<text text-anchor="start" x="201" y="-237" font-family="Helvetica,sans-Serif" font-size="10.00">X_O_5x5_Board::game</text>
<text text-anchor="middle" x="256.5" y="-226" font-family="Helvetica,sans-Serif" font-size="10.00">_is_over</text>
</a>
</g>
</g>
<!-- Node27&#45;&gt;Node28 -->
<g id="edge33_Node000027_Node000028" class="edge">
<title>Node27&#45;&gt;Node28</title>
<g id="a_edge33_Node000027_Node000028"><a xlink:title=" ">
<path fill="none" stroke="#63b8ff" d="M377.49,-322.26C374.52,-320.69 371.67,-318.94 369,-317 344.46,-299.16 356.83,-277.78 333,-259 328.12,-255.15 322.62,-251.89 316.88,-249.12"/>
<polygon fill="#63b8ff" stroke="#63b8ff" points="376.14,-325.49 386.69,-326.45 379.04,-319.12 376.14,-325.49"/>
</a>
</g>
</g>
<!-- Node29 -->
<g id="Node000029" class="node">
<title>Node29</title>
<g id="a_Node000029"><a xlink:href="classX__O__5x5__Board.html#af85ffbe23533e0388f64ca0f55b58979" target="_top" xlink:title="Check if a player has lost.">
<polygon fill="white" stroke="#666666" points="323,-200.5 190,-200.5 190,-181.5 323,-181.5 323,-200.5"/>
<text text-anchor="middle" x="256.5" y="-188.5" font-family="Helvetica,sans-Serif" font-size="10.00">X_O_5x5_Board::is_lose</text>
</a>
</g>
</g>
<!-- Node27&#45;&gt;Node29 -->
<g id="edge34_Node000027_Node000029" class="edge">
<title>Node27&#45;&gt;Node29</title>
<g id="a_edge34_Node000027_Node000029"><a xlink:title=" ">
<path fill="none" stroke="#63b8ff" d="M374.36,-321.3C372.48,-319.98 370.69,-318.55 369,-317 332.09,-283.02 369.84,-244.07 333,-210 328.83,-206.15 324,-203.04 318.83,-200.55"/>
<polygon fill="#63b8ff" stroke="#63b8ff" points="372.68,-324.38 383.08,-326.4 376.21,-318.33 372.68,-324.38"/>
</a>
</g>
</g>
</g>
</svg>
