<?xml version="1.0" encoding="UTF-8" standalone="no"?>
<!DOCTYPE svg PUBLIC "-//W3C//DTD SVG 1.1//EN"
 "http://www.w3.org/Graphics/SVG/1.1/DTD/svg11.dtd">
<!-- Generated by graphviz version 2.43.0 (0)
 -->
<!-- Title: Player::get_board_ptr Pages: 1 -->
<svg width="722pt" height="691pt"
 viewBox="0.00 0.00 722.00 691.09" xmlns="http://www.w3.org/2000/svg" xmlns:xlink="http://www.w3.org/1999/xlink">
<g id="graph0" class="graph" transform="scale(1 1) rotate(0) translate(4 687.09)">
<title>Player::get_board_ptr</title>
<!-- Node1 -->
<g id="Node000001" class="node">
<title>Node1</title>
<g id="a_Node000001"><a xlink:title="Get a pointer to the game board.">
<polygon fill="#999999" stroke="#666666" points="714,-323 593,-323 593,-304 714,-304 714,-323"/>
<text text-anchor="middle" x="653.5" y="-311" font-family="Helvetica,sans-Serif" font-size="10.00">Player::get_board_ptr</text>
</a>
</g>
</g>
<!-- Node2 -->
<g id="Node000002" class="node">
<title>Node2</title>
<g id="a_Node000002"><a xlink:href="classAIPlayer.html#a962dc21adb2a91029e4d903e701c191a" target="_top" xlink:title="Calculate and return the best move using minimax algorithm.">
<polygon fill="white" stroke="#666666" points="155,-566 21,-566 21,-547 155,-547 155,-566"/>
<text text-anchor="middle" x="88" y="-554" font-family="Helvetica,sans-Serif" font-size="10.00">AIPlayer::calculateMove</text>
</a>
</g>
</g>
<!-- Node1&#45;&gt;Node2 -->
<g id="edge1_Node000001_Node000002" class="edge">
<title>Node1&#45;&gt;Node2</title>
<g id="a_edge1_Node000001_Node000002"><a xlink:title=" ">
<path fill="none" stroke="#63b8ff" d="M649.82,-333.51C640.62,-398.88 608.03,-604.17 557,-642.5 410.02,-752.88 165,-606.42 103.39,-566.2"/>
<polygon fill="#63b8ff" stroke="#63b8ff" points="653.33,-333.7 651.22,-323.31 646.39,-332.74 653.33,-333.7"/>
</a>
</g>
</g>
<!-- Node3 -->
<g id="Node000003" class="node">
<title>Node3</title>
<g id="a_Node000003"><a xlink:href="classsmartPlayer.html#a6064105bc4b494d926db58ff05c98aaa" target="_top" xlink:title=" ">
<polygon fill="white" stroke="#666666" points="554,-633 401,-633 401,-614 554,-614 554,-633"/>
<text text-anchor="middle" x="477.5" y="-621" font-family="Helvetica,sans-Serif" font-size="10.00">smartPlayer::calculateMove</text>
</a>
</g>
</g>
<!-- Node1&#45;&gt;Node3 -->
<g id="edge2_Node000001_Node000003" class="edge">
<title>Node1&#45;&gt;Node3</title>
<g id="a_edge2_Node000001_Node000003"><a xlink:title=" ">
<path fill="none" stroke="#63b8ff" d="M652.31,-333.09C650.68,-385.68 638.64,-530.94 557,-605.5 553.28,-608.89 549.06,-611.69 544.54,-613.99"/>
<polygon fill="#63b8ff" stroke="#63b8ff" points="655.81,-333.15 652.52,-323.08 648.81,-333 655.81,-333.15"/>
</a>
</g>
</g>
<!-- Node4 -->
<g id="Node000004" class="node">
<title>Node4</title>
<g id="a_Node000004"><a xlink:href="classsmartPlayer2.html#af51ff0c3115f5dc34fce64958c52beb2" target="_top" xlink:title=" ">
<polygon fill="white" stroke="#666666" points="557,-596 398,-596 398,-577 557,-577 557,-596"/>
<text text-anchor="middle" x="477.5" y="-584" font-family="Helvetica,sans-Serif" font-size="10.00">smartPlayer2::calculateMove</text>
</a>
</g>
</g>
<!-- Node1&#45;&gt;Node4 -->
<g id="edge3_Node000001_Node000004" class="edge">
<title>Node1&#45;&gt;Node4</title>
<g id="a_edge3_Node000001_Node000004"><a xlink:title=" ">
<path fill="none" stroke="#63b8ff" d="M651.14,-333.33C646.75,-381.25 628.71,-504.05 557,-567.5 552.69,-571.31 547.75,-574.39 542.49,-576.87"/>
<polygon fill="#63b8ff" stroke="#63b8ff" points="654.65,-333.33 651.97,-323.08 647.68,-332.77 654.65,-333.33"/>
</a>
</g>
</g>
<!-- Node5 -->
<g id="Node000005" class="node">
<title>Node5</title>
<g id="a_Node000005"><a xlink:href="classDiamondSmartPlayer.html#a544a98099735ad4a86139fbba28697cf" target="_top" xlink:title="Calculate the best move through Minmax algorithms.">
<polygon fill="white" stroke="#666666" points="538,-558.5 417,-558.5 417,-528.5 538,-528.5 538,-558.5"/>
<text text-anchor="start" x="425" y="-546.5" font-family="Helvetica,sans-Serif" font-size="10.00">DiamondSmartPlayer</text>
<text text-anchor="middle" x="477.5" y="-535.5" font-family="Helvetica,sans-Serif" font-size="10.00">::calculateMove</text>
</a>
</g>
</g>
<!-- Node1&#45;&gt;Node5 -->
<g id="edge4_Node000001_Node000005" class="edge">
<title>Node1&#45;&gt;Node5</title>
<g id="a_edge4_Node000001_Node000005"><a xlink:title=" ">
<path fill="none" stroke="#63b8ff" d="M648.89,-333.45C640.42,-374.45 615.41,-468.61 557,-519.5 551.52,-524.27 545.11,-528.1 538.35,-531.16"/>
<polygon fill="#63b8ff" stroke="#63b8ff" points="652.38,-333.86 650.85,-323.38 645.5,-332.52 652.38,-333.86"/>
</a>
</g>
</g>
<!-- Node6 -->
<g id="Node000006" class="node">
<title>Node6</title>
<g id="a_Node000006"><a xlink:href="classFourFourAIPlayer.html#ae65b9079173802af7f5091473ce5f513" target="_top" xlink:title="Override calculateMove to handle direction&#45;based moves.">
<polygon fill="white" stroke="#666666" points="176,-280 0,-280 0,-261 176,-261 176,-280"/>
<text text-anchor="middle" x="88" y="-268" font-family="Helvetica,sans-Serif" font-size="10.00">FourFourAIPlayer::calculateMove</text>
</a>
</g>
</g>
<!-- Node1&#45;&gt;Node6 -->
<g id="edge5_Node000001_Node000006" class="edge">
<title>Node1&#45;&gt;Node6</title>
<g id="a_edge5_Node000001_Node000006"><a xlink:title=" ">
<path fill="none" stroke="#63b8ff" d="M611.42,-301.21C594.7,-296.72 575.08,-292.11 557,-289.5 425.21,-270.47 270.54,-268.01 176.18,-268.71"/>
<polygon fill="#63b8ff" stroke="#63b8ff" points="610.85,-304.68 621.42,-303.97 612.72,-297.93 610.85,-304.68"/>
</a>
</g>
</g>
<!-- Node7 -->
<g id="Node000007" class="node">
<title>Node7</title>
<g id="a_Node000007"><a xlink:href="classMisereSmartPlayer.html#a994d1480fd59b8fe70f90fd5376ff19c" target="_top" xlink:title=" ">
<polygon fill="white" stroke="#666666" points="535.5,-472.5 419.5,-472.5 419.5,-442.5 535.5,-442.5 535.5,-472.5"/>
<text text-anchor="start" x="427.5" y="-460.5" font-family="Helvetica,sans-Serif" font-size="10.00">MisereSmartPlayer::</text>
<text text-anchor="middle" x="477.5" y="-449.5" font-family="Helvetica,sans-Serif" font-size="10.00">calculateMove</text>
</a>
</g>
</g>
<!-- Node1&#45;&gt;Node7 -->
<g id="edge6_Node000001_Node000007" class="edge">
<title>Node1&#45;&gt;Node7</title>
<g id="a_edge6_Node000001_Node000007"><a xlink:title=" ">
<path fill="none" stroke="#63b8ff" d="M642.5,-332.21C627.43,-358.64 596.42,-406.66 557,-433.5 550.52,-437.91 543.2,-441.53 535.7,-444.5"/>
<polygon fill="#63b8ff" stroke="#63b8ff" points="645.69,-333.67 647.48,-323.23 639.57,-330.27 645.69,-333.67"/>
</a>
</g>
</g>
<!-- Node8 -->
<g id="Node000008" class="node">
<title>Node8</title>
<g id="a_Node000008"><a xlink:href="classSUS__SmartPlayer.html#a0bdb4e9b63a7fabb9e95c31ba7a5dc02" target="_top" xlink:title=" ">
<polygon fill="white" stroke="#666666" points="553.5,-424.5 401.5,-424.5 401.5,-394.5 553.5,-394.5 553.5,-424.5"/>
<text text-anchor="start" x="409.5" y="-412.5" font-family="Helvetica,sans-Serif" font-size="10.00">SUS_SmartPlayer::calculate</text>
<text text-anchor="middle" x="477.5" y="-401.5" font-family="Helvetica,sans-Serif" font-size="10.00">Move2</text>
</a>
</g>
</g>
<!-- Node1&#45;&gt;Node8 -->
<g id="edge7_Node000001_Node000008" class="edge">
<title>Node1&#45;&gt;Node8</title>
<g id="a_edge7_Node000001_Node000008"><a xlink:title=" ">
<path fill="none" stroke="#63b8ff" d="M634.92,-329.79C616.66,-345.93 586.68,-370.37 557,-385.5 550.4,-388.87 543.24,-391.85 536.02,-394.48"/>
<polygon fill="#63b8ff" stroke="#63b8ff" points="637.35,-332.31 642.43,-323.02 632.66,-327.11 637.35,-332.31"/>
</a>
</g>
</g>
<!-- Node9 -->
<g id="Node000009" class="node">
<title>Node9</title>
<g id="a_Node000009"><a xlink:href="classwordSmartPlayer.html#ab4791918e207984b9d8a7400b436a19b" target="_top" xlink:title=" ">
<polygon fill="white" stroke="#666666" points="553,-376.5 402,-376.5 402,-346.5 553,-346.5 553,-376.5"/>
<text text-anchor="start" x="410" y="-364.5" font-family="Helvetica,sans-Serif" font-size="10.00">wordSmartPlayer::calculate</text>
<text text-anchor="middle" x="477.5" y="-353.5" font-family="Helvetica,sans-Serif" font-size="10.00">Move2</text>
</a>
</g>
</g>
<!-- Node1&#45;&gt;Node9 -->
<g id="edge8_Node000001_Node000009" class="edge">
<title>Node1&#45;&gt;Node9</title>
<g id="a_edge8_Node000001_Node000009"><a xlink:title=" ">
<path fill="none" stroke="#63b8ff" d="M607.95,-325.79C585.15,-332.08 557.19,-339.79 533.1,-346.44"/>
<polygon fill="#63b8ff" stroke="#63b8ff" points="609,-329.13 617.71,-323.1 607.14,-322.38 609,-329.13"/>
</a>
</g>
</g>
<!-- Node10 -->
<g id="Node000010" class="node">
<title>Node10</title>
<g id="a_Node000010"><a xlink:href="classAIPlayer.html#a7a5e28485ca22a629601e98c3580b6d7" target="_top" xlink:title="Check if a position is valid for making a move.">
<polygon fill="white" stroke="#666666" points="531.5,-510 423.5,-510 423.5,-491 531.5,-491 531.5,-510"/>
<text text-anchor="middle" x="477.5" y="-498" font-family="Helvetica,sans-Serif" font-size="10.00">AIPlayer::condition</text>
</a>
</g>
</g>
<!-- Node1&#45;&gt;Node10 -->
<g id="edge9_Node000001_Node000010" class="edge">
<title>Node1&#45;&gt;Node10</title>
<g id="a_edge9_Node000001_Node000010"><a xlink:title=" ">
<path fill="none" stroke="#63b8ff" d="M647.09,-332.91C636.21,-368.23 608.24,-442.9 557,-481.5 549.61,-487.07 540.81,-491.03 531.82,-493.84"/>
<polygon fill="#63b8ff" stroke="#63b8ff" points="650.46,-333.88 649.93,-323.3 643.74,-331.9 650.46,-333.88"/>
</a>
</g>
</g>
<!-- Node12 -->
<g id="Node000012" class="node">
<title>Node12</title>
<g id="a_Node000012"><a xlink:href="classFourFourAIPlayer.html#a63c588798fa1ec23ad3cb4cd96370a97" target="_top" xlink:title="Check if position has a piece belonging to the player that can be moved.">
<polygon fill="white" stroke="#666666" points="362,-242 212,-242 212,-223 362,-223 362,-242"/>
<text text-anchor="middle" x="287" y="-230" font-family="Helvetica,sans-Serif" font-size="10.00">FourFourAIPlayer::condition</text>
</a>
</g>
</g>
<!-- Node1&#45;&gt;Node12 -->
<g id="edge14_Node000001_Node000012" class="edge">
<title>Node1&#45;&gt;Node12</title>
<g id="a_edge14_Node000001_Node000012"><a xlink:title=" ">
<path fill="none" stroke="#63b8ff" d="M632.2,-297.66C613.71,-284.18 585.1,-265.61 557,-256.5 493.44,-235.89 417.29,-230.79 362.26,-230.32"/>
<polygon fill="#63b8ff" stroke="#63b8ff" points="630.31,-300.62 640.41,-303.8 634.5,-295.01 630.31,-300.62"/>
</a>
</g>
</g>
<!-- Node13 -->
<g id="Node000013" class="node">
<title>Node13</title>
<g id="a_Node000013"><a xlink:href="classFourFourAIPlayer.html#a3485e13e60dbd5ec0e28dfbcab943159" target="_top" xlink:title="Check if position has a piece belonging to a specific symbol.">
<polygon fill="white" stroke="#666666" points="552.5,-328.5 402.5,-328.5 402.5,-298.5 552.5,-298.5 552.5,-328.5"/>
<text text-anchor="start" x="410.5" y="-316.5" font-family="Helvetica,sans-Serif" font-size="10.00">FourFourAIPlayer::condition</text>
<text text-anchor="middle" x="477.5" y="-305.5" font-family="Helvetica,sans-Serif" font-size="10.00">_for_symbol</text>
</a>
</g>
</g>
<!-- Node1&#45;&gt;Node13 -->
<g id="edge16_Node000001_Node000013" class="edge">
<title>Node1&#45;&gt;Node13</title>
<g id="a_edge16_Node000001_Node000013"><a xlink:title=" ">
<path fill="none" stroke="#63b8ff" d="M582.51,-313.5C572.67,-313.5 562.54,-313.5 552.64,-313.5"/>
<polygon fill="#63b8ff" stroke="#63b8ff" points="582.62,-317 592.62,-313.5 582.62,-310 582.62,-317"/>
</a>
</g>
</g>
<!-- Node15 -->
<g id="Node000015" class="node">
<title>Node15</title>
<g id="a_Node000015"><a xlink:href="classInfinit__XO__UI.html#a01e2ad782bacda8c2f7cff214617b54c" target="_top" xlink:title="Retrieves the next move from a player.">
<polygon fill="white" stroke="#666666" points="544.5,-204 410.5,-204 410.5,-185 544.5,-185 544.5,-204"/>
<text text-anchor="middle" x="477.5" y="-192" font-family="Helvetica,sans-Serif" font-size="10.00">Infinit_XO_UI::get_move</text>
</a>
</g>
</g>
<!-- Node1&#45;&gt;Node15 -->
<g id="edge20_Node000001_Node000015" class="edge">
<title>Node1&#45;&gt;Node15</title>
<g id="a_edge20_Node000001_Node000015"><a xlink:title=" ">
<path fill="none" stroke="#63b8ff" d="M639.14,-295.69C622.25,-274.38 591.23,-239.01 557,-218.5 546.73,-212.35 534.75,-207.65 523.28,-204.11"/>
<polygon fill="#63b8ff" stroke="#63b8ff" points="636.59,-298.12 645.48,-303.88 642.13,-293.83 636.59,-298.12"/>
</a>
</g>
</g>
<!-- Node16 -->
<g id="Node000016" class="node">
<title>Node16</title>
<g id="a_Node000016"><a xlink:href="classNumerical__XO__UI.html#af6296ae59c604456f531f4e996e99467" target="_top" xlink:title="Ask the user (or AI) to make a move.">
<polygon fill="white" stroke="#666666" points="555.5,-167 399.5,-167 399.5,-148 555.5,-148 555.5,-167"/>
<text text-anchor="middle" x="477.5" y="-155" font-family="Helvetica,sans-Serif" font-size="10.00">Numerical_XO_UI::get_move</text>
</a>
</g>
</g>
<!-- Node1&#45;&gt;Node16 -->
<g id="edge21_Node000001_Node000016" class="edge">
<title>Node1&#45;&gt;Node16</title>
<g id="a_edge21_Node000001_Node000016"><a xlink:title=" ">
<path fill="none" stroke="#63b8ff" d="M644.87,-294.6C631.68,-264.44 601.67,-205.76 557,-175.5 552.02,-172.13 546.5,-169.38 540.76,-167.14"/>
<polygon fill="#63b8ff" stroke="#63b8ff" points="641.72,-296.13 648.83,-303.99 648.17,-293.41 641.72,-296.13"/>
</a>
</g>
</g>
<!-- Node17 -->
<g id="Node000017" class="node">
<title>Node17</title>
<g id="a_Node000017"><a xlink:href="classObstacles__XO__UI.html#af38dd50ff53dd04ff3fc3cf11bbbae9a" target="_top" xlink:title="Retrieves the next move from a player.">
<polygon fill="white" stroke="#666666" points="554.5,-130 400.5,-130 400.5,-111 554.5,-111 554.5,-130"/>
<text text-anchor="middle" x="477.5" y="-118" font-family="Helvetica,sans-Serif" font-size="10.00">Obstacles_XO_UI::get_move</text>
</a>
</g>
</g>
<!-- Node1&#45;&gt;Node17 -->
<g id="edge22_Node000001_Node000017" class="edge">
<title>Node1&#45;&gt;Node17</title>
<g id="a_edge22_Node000001_Node000017"><a xlink:title=" ">
<path fill="none" stroke="#63b8ff" d="M647.53,-293.75C637.24,-257.1 610,-178.65 557,-138.5 552.54,-135.12 547.56,-132.36 542.33,-130.11"/>
<polygon fill="#63b8ff" stroke="#63b8ff" points="644.22,-294.94 650.19,-303.69 650.99,-293.13 644.22,-294.94"/>
</a>
</g>
</g>
<!-- Node18 -->
<g id="Node000018" class="node">
<title>Node18</title>
<g id="a_Node000018"><a xlink:href="classSUS__UI.html#a621a4bfadf8d79f2b2b66f2241c310c3" target="_top" xlink:title="Retrieves the next move from a player.">
<polygon fill="white" stroke="#666666" points="531,-93 424,-93 424,-74 531,-74 531,-93"/>
<text text-anchor="middle" x="477.5" y="-81" font-family="Helvetica,sans-Serif" font-size="10.00">SUS_UI::get_move</text>
</a>
</g>
</g>
<!-- Node1&#45;&gt;Node18 -->
<g id="edge23_Node000001_Node000018" class="edge">
<title>Node1&#45;&gt;Node18</title>
<g id="a_edge23_Node000001_Node000018"><a xlink:title=" ">
<path fill="none" stroke="#63b8ff" d="M649.57,-293.77C642.21,-251.56 618.91,-152.23 557,-101.5 549.54,-95.39 540.4,-91.26 531.02,-88.49"/>
<polygon fill="#63b8ff" stroke="#63b8ff" points="646.11,-294.33 651.17,-303.64 653.02,-293.21 646.11,-294.33"/>
</a>
</g>
</g>
<!-- Node19 -->
<g id="Node000019" class="node">
<title>Node19</title>
<g id="a_Node000019"><a xlink:href="classUltimate__XO__UI.html#af23c123c7d50d44645ed7f61c4fdac85" target="_top" xlink:title="Retrieves the next move from a player.">
<polygon fill="white" stroke="#666666" points="552,-56 403,-56 403,-37 552,-37 552,-56"/>
<text text-anchor="middle" x="477.5" y="-44" font-family="Helvetica,sans-Serif" font-size="10.00">Ultimate_XO_UI::get_move</text>
</a>
</g>
</g>
<!-- Node1&#45;&gt;Node19 -->
<g id="edge24_Node000001_Node000019" class="edge">
<title>Node1&#45;&gt;Node19</title>
<g id="a_edge24_Node000001_Node000019"><a xlink:title=" ">
<path fill="none" stroke="#63b8ff" d="M651.03,-293.67C646.4,-246.32 627.89,-126.05 557,-64.5 553.09,-61.11 548.68,-58.32 543.98,-56.03"/>
<polygon fill="#63b8ff" stroke="#63b8ff" points="647.56,-294.16 651.91,-303.82 654.53,-293.56 647.56,-294.16"/>
</a>
</g>
</g>
<!-- Node20 -->
<g id="Node000020" class="node">
<title>Node20</title>
<g id="a_Node000020"><a xlink:href="classWord__XO__UI.html#a468a141aff236927a593e8b105f6a6ab" target="_top" xlink:title="Retrieves the next move from a player.">
<polygon fill="white" stroke="#666666" points="543,-19 412,-19 412,0 543,0 543,-19"/>
<text text-anchor="middle" x="477.5" y="-7" font-family="Helvetica,sans-Serif" font-size="10.00">Word_XO_UI::get_move</text>
</a>
</g>
</g>
<!-- Node1&#45;&gt;Node20 -->
<g id="edge25_Node000001_Node000020" class="edge">
<title>Node1&#45;&gt;Node20</title>
<g id="a_edge25_Node000001_Node000020"><a xlink:title=" ">
<path fill="none" stroke="#63b8ff" d="M652.14,-293.62C650.08,-241.54 637.01,-100.11 557,-27.5 552.86,-23.74 548.09,-20.72 543,-18.29"/>
<polygon fill="#63b8ff" stroke="#63b8ff" points="648.65,-293.95 652.45,-303.84 655.65,-293.74 648.65,-293.95"/>
</a>
</g>
</g>
<!-- Node10&#45;&gt;Node2 -->
<g id="edge10_Node000010_Node000002" class="edge">
<title>Node10&#45;&gt;Node2</title>
<g id="a_edge10_Node000010_Node000002"><a xlink:title=" ">
<path fill="none" stroke="#63b8ff" d="M419.55,-512.67C412.22,-514.7 404.88,-516.98 398,-519.5 381.2,-525.64 379.26,-532.79 362,-537.5 293.14,-556.3 211.07,-559.58 155.01,-559.08"/>
<polygon fill="#63b8ff" stroke="#63b8ff" points="420.72,-515.98 429.49,-510.04 418.93,-509.21 420.72,-515.98"/>
</a>
</g>
</g>
<!-- Node11 -->
<g id="Node000011" class="node">
<title>Node11</title>
<g id="a_Node000011"><a xlink:href="classAIPlayer.html#a4c0c158048dc4b7fabb54dafc9fd0659" target="_top" xlink:title="Minimax algorithm with alpha&#45;beta pruning.">
<polygon fill="white" stroke="#666666" points="340.5,-510 233.5,-510 233.5,-491 340.5,-491 340.5,-510"/>
<text text-anchor="middle" x="287" y="-498" font-family="Helvetica,sans-Serif" font-size="10.00">AIPlayer::minimax</text>
</a>
</g>
</g>
<!-- Node10&#45;&gt;Node11 -->
<g id="edge11_Node000010_Node000011" class="edge">
<title>Node10&#45;&gt;Node11</title>
<g id="a_edge11_Node000010_Node000011"><a xlink:title=" ">
<path fill="none" stroke="#63b8ff" d="M413.23,-500.5C389.64,-500.5 363.14,-500.5 340.61,-500.5"/>
<polygon fill="#63b8ff" stroke="#63b8ff" points="413.49,-504 423.49,-500.5 413.49,-497 413.49,-504"/>
</a>
</g>
</g>
<!-- Node11&#45;&gt;Node2 -->
<g id="edge12_Node000011_Node000002" class="edge">
<title>Node11&#45;&gt;Node2</title>
<g id="a_edge12_Node000011_Node000002"><a xlink:title=" ">
<path fill="none" stroke="#63b8ff" d="M242.34,-512.91C206.14,-523.2 155.45,-537.61 122.42,-547"/>
<polygon fill="#63b8ff" stroke="#63b8ff" points="243.47,-516.23 252.13,-510.13 241.56,-509.49 243.47,-516.23"/>
</a>
</g>
</g>
<!-- Node11&#45;&gt;Node11 -->
<g id="edge13_Node000011_Node000011" class="edge">
<title>Node11&#45;&gt;Node11</title>
<g id="a_edge13_Node000011_Node000011"><a xlink:title=" ">
<path fill="none" stroke="#63b8ff" d="M322.61,-518.07C322.09,-523.62 310.22,-528 287,-528 253.23,-528 243.47,-518.73 257.72,-510.08"/>
<polygon fill="#63b8ff" stroke="#63b8ff" points="325.23,-515.75 316.28,-510.08 319.75,-520.1 325.23,-515.75"/>
</a>
</g>
</g>
<!-- Node12&#45;&gt;Node6 -->
<g id="edge15_Node000012_Node000006" class="edge">
<title>Node12&#45;&gt;Node6</title>
<g id="a_edge15_Node000012_Node000006"><a xlink:title=" ">
<path fill="none" stroke="#63b8ff" d="M226.44,-243.99C198.33,-249.41 165.18,-255.81 138.48,-260.96"/>
<polygon fill="#63b8ff" stroke="#63b8ff" points="227.39,-247.37 236.54,-242.04 226.06,-240.5 227.39,-247.37"/>
</a>
</g>
</g>
<!-- Node14 -->
<g id="Node000014" class="node">
<title>Node14</title>
<g id="a_Node000014"><a xlink:href="classFourFourAIPlayer.html#a8427da39d2c0c84609a00dbd51347c9f" target="_top" xlink:title="Override minimax to handle opponent pieces correctly.">
<polygon fill="white" stroke="#666666" points="361.5,-321 212.5,-321 212.5,-302 361.5,-302 361.5,-321"/>
<text text-anchor="middle" x="287" y="-309" font-family="Helvetica,sans-Serif" font-size="10.00">FourFourAIPlayer::minimax</text>
</a>
</g>
</g>
<!-- Node13&#45;&gt;Node14 -->
<g id="edge17_Node000013_Node000014" class="edge">
<title>Node13&#45;&gt;Node14</title>
<g id="a_edge17_Node000013_Node000014"><a xlink:title=" ">
<path fill="none" stroke="#63b8ff" d="M392.14,-312.6C381.93,-312.5 371.57,-312.39 361.54,-312.28"/>
<polygon fill="#63b8ff" stroke="#63b8ff" points="392.23,-316.11 402.27,-312.71 392.31,-309.11 392.23,-316.11"/>
</a>
</g>
</g>
<!-- Node14&#45;&gt;Node6 -->
<g id="edge18_Node000014_Node000006" class="edge">
<title>Node14&#45;&gt;Node6</title>
<g id="a_edge18_Node000014_Node000006"><a xlink:title=" ">
<path fill="none" stroke="#63b8ff" d="M230.35,-299.92C200.16,-293.63 163.29,-285.96 134.78,-280.03"/>
<polygon fill="#63b8ff" stroke="#63b8ff" points="229.81,-303.38 240.31,-301.99 231.23,-296.53 229.81,-303.38"/>
</a>
</g>
</g>
<!-- Node14&#45;&gt;Node14 -->
<g id="edge19_Node000014_Node000014" class="edge">
<title>Node14&#45;&gt;Node14</title>
<g id="a_edge19_Node000014_Node000014"><a xlink:title=" ">
<path fill="none" stroke="#63b8ff" d="M322.61,-329.07C322.09,-334.62 310.22,-339 287,-339 253.23,-339 243.47,-329.73 257.72,-321.08"/>
<polygon fill="#63b8ff" stroke="#63b8ff" points="325.23,-326.75 316.28,-321.08 319.75,-331.1 325.23,-326.75"/>
</a>
</g>
</g>
</g>
</svg>
