<?xml version="1.0" encoding="UTF-8" standalone="no"?>
<!DOCTYPE svg PUBLIC "-//W3C//DTD SVG 1.1//EN"
 "http://www.w3.org/Graphics/SVG/1.1/DTD/svg11.dtd">
<!-- Generated by graphviz version 2.43.0 (0)
 -->
<!-- Title: Player&lt; T &gt; Pages: 1 -->
<svg width="396pt" height="212pt"
 viewBox="0.00 0.00 396.00 212.00" xmlns="http://www.w3.org/2000/svg" xmlns:xlink="http://www.w3.org/1999/xlink">
<g id="graph0" class="graph" transform="scale(1 1) rotate(0) translate(4 208)">
<title>Player&lt; T &gt;</title>
<!-- Node1 -->
<g id="Node000001" class="node">
<title>Node1</title>
<g id="a_Node000001"><a xlink:title="Base template for all players (human or AI).">
<polygon fill="#999999" stroke="#666666" points="76,-92 0,-92 0,-73 76,-73 76,-92"/>
<text text-anchor="middle" x="38" y="-80" font-family="Helvetica,sans-Serif" font-size="10.00">Player&lt; T &gt;</text>
</a>
</g>
</g>
<!-- Node2 -->
<g id="Node000002" class="node">
<title>Node2</title>
<g id="a_Node000002"><a xlink:href="classAIPlayer.html" target="_top" xlink:title=" ">
<polygon fill="white" stroke="#666666" points="222,-176 121,-176 121,-157 222,-157 222,-176"/>
<text text-anchor="middle" x="171.5" y="-164" font-family="Helvetica,sans-Serif" font-size="10.00">AIPlayer&lt; char &gt;</text>
</a>
</g>
</g>
<!-- Node1&#45;&gt;Node2 -->
<g id="edge1_Node000001_Node000002" class="edge">
<title>Node1&#45;&gt;Node2</title>
<g id="a_edge1_Node000001_Node000002"><a xlink:title=" ">
<path fill="none" stroke="#63b8ff" d="M62.55,-97.54C89.52,-114.77 132.91,-142.49 155.59,-156.98"/>
<polygon fill="#63b8ff" stroke="#63b8ff" points="64.4,-94.57 54.08,-92.14 60.63,-100.47 64.4,-94.57"/>
</a>
</g>
</g>
<!-- Node4 -->
<g id="Node000004" class="node">
<title>Node4</title>
<g id="a_Node000004"><a xlink:href="classsmartPlayer.html" target="_top" xlink:title=" ">
<polygon fill="white" stroke="#666666" points="231,-111 112,-111 112,-92 231,-92 231,-111"/>
<text text-anchor="middle" x="171.5" y="-99" font-family="Helvetica,sans-Serif" font-size="10.00">smartPlayer&lt; char &gt;</text>
</a>
</g>
</g>
<!-- Node1&#45;&gt;Node4 -->
<g id="edge3_Node000001_Node000004" class="edge">
<title>Node1&#45;&gt;Node4</title>
<g id="a_edge3_Node000001_Node000004"><a xlink:title=" ">
<path fill="none" stroke="#63b8ff" d="M86.24,-89.33C94.57,-90.53 103.33,-91.8 111.93,-93.04"/>
<polygon fill="#63b8ff" stroke="#63b8ff" points="86.73,-85.86 76.33,-87.89 85.73,-92.79 86.73,-85.86"/>
</a>
</g>
</g>
<!-- Node10 -->
<g id="Node000010" class="node">
<title>Node10</title>
<g id="a_Node000010"><a xlink:href="classAIPlayer.html" target="_top" xlink:title="Base class for AI players following Open&#45;Closed Principle (OCP).">
<polygon fill="white" stroke="#666666" points="214.5,-74 128.5,-74 128.5,-55 214.5,-55 214.5,-74"/>
<text text-anchor="middle" x="171.5" y="-62" font-family="Helvetica,sans-Serif" font-size="10.00">AIPlayer&lt; T &gt;</text>
</a>
</g>
</g>
<!-- Node1&#45;&gt;Node10 -->
<g id="edge9_Node000001_Node000010" class="edge">
<title>Node1&#45;&gt;Node10</title>
<g id="a_edge9_Node000001_Node000010"><a xlink:title=" ">
<path fill="none" stroke="#63b8ff" d="M86.54,-75.99C100.25,-74.12 115.1,-72.08 128.45,-70.26"/>
<polygon fill="#63b8ff" stroke="#63b8ff" points="85.76,-72.57 76.33,-77.39 86.71,-79.5 85.76,-72.57"/>
</a>
</g>
</g>
<!-- Node11 -->
<g id="Node000011" class="node">
<title>Node11</title>
<g id="a_Node000011"><a xlink:href="classsmartPlayer.html" target="_top" xlink:title=" ">
<polygon fill="white" stroke="#666666" points="223.5,-37 119.5,-37 119.5,-18 223.5,-18 223.5,-37"/>
<text text-anchor="middle" x="171.5" y="-25" font-family="Helvetica,sans-Serif" font-size="10.00">smartPlayer&lt; T &gt;</text>
</a>
</g>
</g>
<!-- Node1&#45;&gt;Node11 -->
<g id="edge10_Node000001_Node000011" class="edge">
<title>Node1&#45;&gt;Node11</title>
<g id="a_edge10_Node000001_Node000011"><a xlink:title=" ">
<path fill="none" stroke="#63b8ff" d="M65.93,-68.06C79.53,-61.07 96.41,-52.84 112,-46.5 120.41,-43.08 129.68,-39.84 138.32,-37.03"/>
<polygon fill="#63b8ff" stroke="#63b8ff" points="63.92,-65.16 56.67,-72.89 67.16,-71.37 63.92,-65.16"/>
</a>
</g>
</g>
<!-- Node3 -->
<g id="Node000003" class="node">
<title>Node3</title>
<g id="a_Node000003"><a xlink:href="classFourFourAIPlayer.html" target="_top" xlink:title="AI player for Four&#45;Four XO game using minimax algorithm.">
<polygon fill="white" stroke="#666666" points="377,-204 278,-204 278,-185 377,-185 377,-204"/>
<text text-anchor="middle" x="327.5" y="-192" font-family="Helvetica,sans-Serif" font-size="10.00">FourFourAIPlayer</text>
</a>
</g>
</g>
<!-- Node2&#45;&gt;Node3 -->
<g id="edge2_Node000002_Node000003" class="edge">
<title>Node2&#45;&gt;Node3</title>
<g id="a_edge2_Node000002_Node000003"><a xlink:title=" ">
<path fill="none" stroke="#63b8ff" d="M232.32,-177.38C247.38,-180.12 263.37,-183.02 277.81,-185.65"/>
<polygon fill="#63b8ff" stroke="#63b8ff" points="232.54,-173.86 222.07,-175.51 231.29,-180.75 232.54,-173.86"/>
</a>
</g>
</g>
<!-- Node5 -->
<g id="Node000005" class="node">
<title>Node5</title>
<g id="a_Node000005"><a xlink:href="classDiamondSmartPlayer.html" target="_top" xlink:title=" ">
<polygon fill="white" stroke="#666666" points="388,-167 267,-167 267,-148 388,-148 388,-167"/>
<text text-anchor="middle" x="327.5" y="-155" font-family="Helvetica,sans-Serif" font-size="10.00">DiamondSmartPlayer</text>
</a>
</g>
</g>
<!-- Node4&#45;&gt;Node5 -->
<g id="edge4_Node000004_Node000005" class="edge">
<title>Node4&#45;&gt;Node5</title>
<g id="a_edge4_Node000004_Node000005"><a xlink:title=" ">
<path fill="none" stroke="#63b8ff" d="M204.1,-115.02C222.34,-122.62 245.79,-132.04 267,-139.5 275.35,-142.43 284.45,-145.34 292.97,-147.92"/>
<polygon fill="#63b8ff" stroke="#63b8ff" points="205.39,-111.77 194.82,-111.13 202.68,-118.22 205.39,-111.77"/>
</a>
</g>
</g>
<!-- Node6 -->
<g id="Node000006" class="node">
<title>Node6</title>
<g id="a_Node000006"><a xlink:href="classMisereSmartPlayer.html" target="_top" xlink:title=" ">
<polygon fill="white" stroke="#666666" points="382.5,-130 272.5,-130 272.5,-111 382.5,-111 382.5,-130"/>
<text text-anchor="middle" x="327.5" y="-118" font-family="Helvetica,sans-Serif" font-size="10.00">MisereSmartPlayer</text>
</a>
</g>
</g>
<!-- Node4&#45;&gt;Node6 -->
<g id="edge5_Node000004_Node000006" class="edge">
<title>Node4&#45;&gt;Node6</title>
<g id="a_edge5_Node000004_Node000006"><a xlink:title=" ">
<path fill="none" stroke="#63b8ff" d="M241.09,-109.96C251.55,-111.25 262.22,-112.57 272.31,-113.81"/>
<polygon fill="#63b8ff" stroke="#63b8ff" points="241.51,-106.49 231.16,-108.74 240.66,-113.44 241.51,-106.49"/>
</a>
</g>
</g>
<!-- Node7 -->
<g id="Node000007" class="node">
<title>Node7</title>
<g id="a_Node000007"><a xlink:href="classSUS__SmartPlayer.html" target="_top" xlink:title=" ">
<polygon fill="white" stroke="#666666" points="378,-93 277,-93 277,-74 378,-74 378,-93"/>
<text text-anchor="middle" x="327.5" y="-81" font-family="Helvetica,sans-Serif" font-size="10.00">SUS_SmartPlayer</text>
</a>
</g>
</g>
<!-- Node4&#45;&gt;Node7 -->
<g id="edge6_Node000004_Node000007" class="edge">
<title>Node4&#45;&gt;Node7</title>
<g id="a_edge6_Node000004_Node000007"><a xlink:title=" ">
<path fill="none" stroke="#63b8ff" d="M241.09,-93.48C253.02,-92.09 265.23,-90.66 276.54,-89.34"/>
<polygon fill="#63b8ff" stroke="#63b8ff" points="240.69,-90.01 231.16,-94.64 241.5,-96.96 240.69,-90.01"/>
</a>
</g>
</g>
<!-- Node8 -->
<g id="Node000008" class="node">
<title>Node8</title>
<g id="a_Node000008"><a xlink:href="classsmartPlayer2.html" target="_top" xlink:title=" ">
<polygon fill="white" stroke="#666666" points="368.5,-56 286.5,-56 286.5,-37 368.5,-37 368.5,-56"/>
<text text-anchor="middle" x="327.5" y="-44" font-family="Helvetica,sans-Serif" font-size="10.00">smartPlayer2</text>
</a>
</g>
</g>
<!-- Node4&#45;&gt;Node8 -->
<g id="edge7_Node000004_Node000008" class="edge">
<title>Node4&#45;&gt;Node8</title>
<g id="a_edge7_Node000004_Node000008"><a xlink:title=" ">
<path fill="none" stroke="#63b8ff" d="M216.37,-88.87C221.35,-87.18 226.31,-85.38 231,-83.5 247.61,-76.85 250.43,-72.24 267,-65.5 275.44,-62.07 284.74,-58.84 293.44,-56.06"/>
<polygon fill="#63b8ff" stroke="#63b8ff" points="215.28,-85.54 206.86,-91.97 217.45,-92.2 215.28,-85.54"/>
</a>
</g>
</g>
<!-- Node9 -->
<g id="Node000009" class="node">
<title>Node9</title>
<g id="a_Node000009"><a xlink:href="classwordSmartPlayer.html" target="_top" xlink:title=" ">
<polygon fill="white" stroke="#666666" points="378,-19 277,-19 277,0 378,0 378,-19"/>
<text text-anchor="middle" x="327.5" y="-7" font-family="Helvetica,sans-Serif" font-size="10.00">wordSmartPlayer</text>
</a>
</g>
</g>
<!-- Node4&#45;&gt;Node9 -->
<g id="edge8_Node000004_Node000009" class="edge">
<title>Node4&#45;&gt;Node9</title>
<g id="a_edge8_Node000004_Node000009"><a xlink:title=" ">
<path fill="none" stroke="#63b8ff" d="M225.23,-87.32C227.24,-86.15 229.17,-84.88 231,-83.5 254.35,-65.94 243.75,-46.18 267,-28.5 272.09,-24.63 278,-21.53 284.07,-19.06"/>
<polygon fill="#63b8ff" stroke="#63b8ff" points="223.43,-84.3 216.03,-91.88 226.54,-90.58 223.43,-84.3"/>
</a>
</g>
</g>
</g>
</svg>
