<?xml version="1.0" encoding="UTF-8" standalone="no"?>
<!DOCTYPE svg PUBLIC "-//W3C//DTD SVG 1.1//EN"
 "http://www.w3.org/Graphics/SVG/1.1/DTD/svg11.dtd">
<!-- Generated by graphviz version 2.43.0 (0)
 -->
<!-- Title: Diamond_Tic_Tac_Toe_Board::game_is_over Pages: 1 -->
<svg width="597pt" height="60pt"
 viewBox="0.00 0.00 597.00 60.00" xmlns="http://www.w3.org/2000/svg" xmlns:xlink="http://www.w3.org/1999/xlink">
<g id="graph0" class="graph" transform="scale(1 1) rotate(0) translate(4 56)">
<title>Diamond_Tic_Tac_Toe_Board::game_is_over</title>
<!-- Node1 -->
<g id="Node000001" class="node">
<title>Node1</title>
<g id="a_Node000001"><a xlink:title="Determines if the game is over (win or draw).">
<polygon fill="#999999" stroke="#666666" points="125,-30 0,-30 0,0 125,0 125,-30"/>
<text text-anchor="start" x="8" y="-18" font-family="Helvetica,sans-Serif" font-size="10.00">Diamond_Tic_Tac_Toe</text>
<text text-anchor="middle" x="62.5" y="-7" font-family="Helvetica,sans-Serif" font-size="10.00">_Board::game_is_over</text>
</a>
</g>
</g>
<!-- Node2 -->
<g id="Node000002" class="node">
<title>Node2</title>
<g id="a_Node000002"><a xlink:href="classDiamond__Tic__Tac__Toe__Board.html#a53278a31e7bdeb673ed49f35ff38d541" target="_top" xlink:title="Checks if the game has ended in a draw.">
<polygon fill="white" stroke="#666666" points="284,-52 161,-52 161,-22 284,-22 284,-52"/>
<text text-anchor="start" x="169" y="-40" font-family="Helvetica,sans-Serif" font-size="10.00">Diamond_Tic_Tac_Toe</text>
<text text-anchor="middle" x="222.5" y="-29" font-family="Helvetica,sans-Serif" font-size="10.00">_Board::is_draw</text>
</a>
</g>
</g>
<!-- Node1&#45;&gt;Node2 -->
<g id="edge1_Node000001_Node000002" class="edge">
<title>Node1&#45;&gt;Node2</title>
<g id="a_edge1_Node000001_Node000002"><a xlink:title=" ">
<path fill="none" stroke="#63b8ff" d="M125.04,-23.57C133.51,-24.75 142.26,-25.97 150.88,-27.17"/>
<polygon fill="#63b8ff" stroke="#63b8ff" points="150.52,-30.65 160.91,-28.56 151.49,-23.72 150.52,-30.65"/>
</a>
</g>
</g>
<!-- Node3 -->
<g id="Node000003" class="node">
<title>Node3</title>
<g id="a_Node000003"><a xlink:href="classDiamond__Tic__Tac__Toe__Board.html#a45f1c473e3191dcf085abdecabb3c403" target="_top" xlink:title="Checks if the given player has won the game.">
<polygon fill="white" stroke="#666666" points="443,-30 320,-30 320,0 443,0 443,-30"/>
<text text-anchor="start" x="328" y="-18" font-family="Helvetica,sans-Serif" font-size="10.00">Diamond_Tic_Tac_Toe</text>
<text text-anchor="middle" x="381.5" y="-7" font-family="Helvetica,sans-Serif" font-size="10.00">_Board::is_win</text>
</a>
</g>
</g>
<!-- Node1&#45;&gt;Node3 -->
<g id="edge4_Node000001_Node000003" class="edge">
<title>Node1&#45;&gt;Node3</title>
<g id="a_edge4_Node000001_Node000003"><a xlink:title=" ">
<path fill="none" stroke="#63b8ff" d="M125.13,-13.54C137.03,-13.32 149.4,-13.12 161,-13 215.66,-12.44 229.34,-12.43 284,-13 292.31,-13.09 301.02,-13.21 309.67,-13.36"/>
<polygon fill="#63b8ff" stroke="#63b8ff" points="309.7,-16.87 319.76,-13.55 309.83,-9.87 309.7,-16.87"/>
</a>
</g>
</g>
<!-- Node2&#45;&gt;Node3 -->
<g id="edge2_Node000002_Node000003" class="edge">
<title>Node2&#45;&gt;Node3</title>
<g id="a_edge2_Node000002_Node000003"><a xlink:title=" ">
<path fill="none" stroke="#63b8ff" d="M284.2,-28.49C292.64,-27.31 301.36,-26.09 309.95,-24.89"/>
<polygon fill="#63b8ff" stroke="#63b8ff" points="310.54,-28.34 319.96,-23.48 309.57,-21.4 310.54,-28.34"/>
</a>
</g>
</g>
<!-- Node4 -->
<g id="Node000004" class="node">
<title>Node4</title>
<g id="a_Node000004"><a xlink:href="classPlayer.html#af56f0bf98c0423a3a75b0848607d03a4" target="_top" xlink:title="Get the player&#39;s symbol.">
<polygon fill="white" stroke="#666666" points="589,-24.5 479,-24.5 479,-5.5 589,-5.5 589,-24.5"/>
<text text-anchor="middle" x="534" y="-12.5" font-family="Helvetica,sans-Serif" font-size="10.00">Player::get_symbol</text>
</a>
</g>
</g>
<!-- Node3&#45;&gt;Node4 -->
<g id="edge3_Node000003_Node000004" class="edge">
<title>Node3&#45;&gt;Node4</title>
<g id="a_edge3_Node000003_Node000004"><a xlink:title=" ">
<path fill="none" stroke="#63b8ff" d="M443.28,-15C451.63,-15 460.23,-15 468.64,-15"/>
<polygon fill="#63b8ff" stroke="#63b8ff" points="468.79,-18.5 478.79,-15 468.79,-11.5 468.79,-18.5"/>
</a>
</g>
</g>
</g>
</svg>
