<?xml version="1.0" encoding="UTF-8" standalone="no"?>
<!DOCTYPE svg PUBLIC "-//W3C//DTD SVG 1.1//EN"
 "http://www.w3.org/Graphics/SVG/1.1/DTD/svg11.dtd">
<!-- Generated by graphviz version 2.43.0 (0)
 -->
<!-- Title: Pyramid_XO_UI::setup_players Pages: 1 -->
<svg width="330pt" height="124pt"
 viewBox="0.00 0.00 330.00 124.00" xmlns="http://www.w3.org/2000/svg" xmlns:xlink="http://www.w3.org/1999/xlink">
<g id="graph0" class="graph" transform="scale(1 1) rotate(0) translate(4 120)">
<title>Pyramid_XO_UI::setup_players</title>
<!-- Node1 -->
<g id="Node000001" class="node">
<title>Node1</title>
<g id="a_Node000001"><a xlink:title="Setup smartPlayer.">
<polygon fill="#999999" stroke="#666666" points="125,-73 0,-73 0,-43 125,-43 125,-73"/>
<text text-anchor="start" x="8" y="-61" font-family="Helvetica,sans-Serif" font-size="10.00">Pyramid_XO_UI::setup</text>
<text text-anchor="middle" x="62.5" y="-50" font-family="Helvetica,sans-Serif" font-size="10.00">_players</text>
</a>
</g>
</g>
<!-- Node2 -->
<g id="Node000002" class="node">
<title>Node2</title>
<g id="a_Node000002"><a xlink:href="classPyramid__XO__UI.html#ab7c835c5fbf86ec08d3262e840cd7563" target="_top" xlink:title="Creates a player of the specified type.">
<polygon fill="white" stroke="#666666" points="305.5,-116 177.5,-116 177.5,-86 305.5,-86 305.5,-116"/>
<text text-anchor="start" x="185.5" y="-104" font-family="Helvetica,sans-Serif" font-size="10.00">Pyramid_XO_UI::create</text>
<text text-anchor="middle" x="241.5" y="-93" font-family="Helvetica,sans-Serif" font-size="10.00">_player</text>
</a>
</g>
</g>
<!-- Node1&#45;&gt;Node2 -->
<g id="edge1_Node000001_Node000002" class="edge">
<title>Node1&#45;&gt;Node2</title>
<g id="a_edge1_Node000001_Node000002"><a xlink:title=" ">
<path fill="none" stroke="#63b8ff" d="M125.41,-73.04C139.42,-76.44 154.41,-80.09 168.79,-83.58"/>
<polygon fill="#63b8ff" stroke="#63b8ff" points="168.09,-87.01 178.63,-85.97 169.74,-80.21 168.09,-87.01"/>
</a>
</g>
</g>
<!-- Node3 -->
<g id="Node000003" class="node">
<title>Node3</title>
<g id="a_Node000003"><a xlink:href="classUI.html#a7b1603de1f73fbb4006e4f00a27c44da" target="_top" xlink:title="Ask the user for the player&#39;s name.">
<polygon fill="white" stroke="#666666" points="322,-67.5 161,-67.5 161,-48.5 322,-48.5 322,-67.5"/>
<text text-anchor="middle" x="241.5" y="-55.5" font-family="Helvetica,sans-Serif" font-size="10.00">UI&lt; char &gt;::get_player_name</text>
</a>
</g>
</g>
<!-- Node1&#45;&gt;Node3 -->
<g id="edge2_Node000001_Node000003" class="edge">
<title>Node1&#45;&gt;Node3</title>
<g id="a_edge2_Node000001_Node000003"><a xlink:title=" ">
<path fill="none" stroke="#63b8ff" d="M125.41,-58C133.65,-58 142.23,-58 150.82,-58"/>
<polygon fill="#63b8ff" stroke="#63b8ff" points="150.9,-61.5 160.9,-58 150.9,-54.5 150.9,-61.5"/>
</a>
</g>
</g>
<!-- Node4 -->
<g id="Node000004" class="node">
<title>Node4</title>
<g id="a_Node000004"><a xlink:href="classUI.html#ac3d45fea2bbcaa0372d8e5101e116ca1" target="_top" xlink:title="Ask the user to choose the player type from a list.">
<polygon fill="white" stroke="#666666" points="305.5,-30 177.5,-30 177.5,0 305.5,0 305.5,-30"/>
<text text-anchor="start" x="185.5" y="-18" font-family="Helvetica,sans-Serif" font-size="10.00">UI&lt; char &gt;::get_player</text>
<text text-anchor="middle" x="241.5" y="-7" font-family="Helvetica,sans-Serif" font-size="10.00">_type_choice</text>
</a>
</g>
</g>
<!-- Node1&#45;&gt;Node4 -->
<g id="edge3_Node000001_Node000004" class="edge">
<title>Node1&#45;&gt;Node4</title>
<g id="a_edge3_Node000001_Node000004"><a xlink:title=" ">
<path fill="none" stroke="#63b8ff" d="M125.41,-42.96C139.42,-39.56 154.41,-35.91 168.79,-32.42"/>
<polygon fill="#63b8ff" stroke="#63b8ff" points="169.74,-35.79 178.63,-30.03 168.09,-28.99 169.74,-35.79"/>
</a>
</g>
</g>
</g>
</svg>
