<?xml version="1.0" encoding="UTF-8" standalone="no"?>
<!DOCTYPE svg PUBLIC "-//W3C//DTD SVG 1.1//EN"
 "http://www.w3.org/Graphics/SVG/1.1/DTD/svg11.dtd">
<!-- Generated by graphviz version 2.43.0 (0)
 -->
<!-- Title: Four_Four_XO_Board::game_is_over Pages: 1 -->
<svg width="574pt" height="60pt"
 viewBox="0.00 0.00 574.00 60.00" xmlns="http://www.w3.org/2000/svg" xmlns:xlink="http://www.w3.org/1999/xlink">
<g id="graph0" class="graph" transform="scale(1 1) rotate(0) translate(4 56)">
<title>Four_Four_XO_Board::game_is_over</title>
<!-- Node1 -->
<g id="Node000001" class="node">
<title>Node1</title>
<g id="a_Node000001"><a xlink:title="Check if the game is over.">
<polygon fill="#999999" stroke="#666666" points="116,-30 0,-30 0,0 116,0 116,-30"/>
<text text-anchor="start" x="8" y="-18" font-family="Helvetica,sans-Serif" font-size="10.00">Four_Four_XO_Board</text>
<text text-anchor="middle" x="58" y="-7" font-family="Helvetica,sans-Serif" font-size="10.00">::game_is_over</text>
</a>
</g>
</g>
<!-- Node2 -->
<g id="Node000002" class="node">
<title>Node2</title>
<g id="a_Node000002"><a xlink:href="classFour__Four__XO__Board.html#afcade23d315ec56024baeaaca94e432f" target="_top" xlink:title="Check if the game ended in a draw.">
<polygon fill="white" stroke="#666666" points="268,-52 152,-52 152,-22 268,-22 268,-52"/>
<text text-anchor="start" x="160" y="-40" font-family="Helvetica,sans-Serif" font-size="10.00">Four_Four_XO_Board</text>
<text text-anchor="middle" x="210" y="-29" font-family="Helvetica,sans-Serif" font-size="10.00">::is_draw</text>
</a>
</g>
</g>
<!-- Node1&#45;&gt;Node2 -->
<g id="edge1_Node000001_Node000002" class="edge">
<title>Node1&#45;&gt;Node2</title>
<g id="a_edge1_Node000001_Node000002"><a xlink:title=" ">
<path fill="none" stroke="#63b8ff" d="M116.14,-23.38C124.47,-24.6 133.11,-25.87 141.62,-27.12"/>
<polygon fill="#63b8ff" stroke="#63b8ff" points="141.12,-30.58 151.53,-28.57 142.14,-23.66 141.12,-30.58"/>
</a>
</g>
</g>
<!-- Node3 -->
<g id="Node000003" class="node">
<title>Node3</title>
<g id="a_Node000003"><a xlink:href="classFour__Four__XO__Board.html#a469ec43cdebb07b56a2b780ba9134506" target="_top" xlink:title="Check if a player has won.">
<polygon fill="white" stroke="#666666" points="420,-30 304,-30 304,0 420,0 420,-30"/>
<text text-anchor="start" x="312" y="-18" font-family="Helvetica,sans-Serif" font-size="10.00">Four_Four_XO_Board</text>
<text text-anchor="middle" x="362" y="-7" font-family="Helvetica,sans-Serif" font-size="10.00">::is_win</text>
</a>
</g>
</g>
<!-- Node1&#45;&gt;Node3 -->
<g id="edge4_Node000001_Node000003" class="edge">
<title>Node1&#45;&gt;Node3</title>
<g id="a_edge4_Node000001_Node000003"><a xlink:title=" ">
<path fill="none" stroke="#63b8ff" d="M116.05,-13.58C127.93,-13.34 140.37,-13.13 152,-13 203.55,-12.45 216.45,-12.45 268,-13 276.36,-13.09 285.14,-13.23 293.82,-13.38"/>
<polygon fill="#63b8ff" stroke="#63b8ff" points="293.89,-16.89 303.95,-13.58 294.02,-9.89 293.89,-16.89"/>
</a>
</g>
</g>
<!-- Node2&#45;&gt;Node3 -->
<g id="edge2_Node000002_Node000003" class="edge">
<title>Node2&#45;&gt;Node3</title>
<g id="a_edge2_Node000002_Node000003"><a xlink:title=" ">
<path fill="none" stroke="#63b8ff" d="M268.14,-28.62C276.47,-27.4 285.11,-26.13 293.62,-24.88"/>
<polygon fill="#63b8ff" stroke="#63b8ff" points="294.14,-28.34 303.53,-23.43 293.12,-21.42 294.14,-28.34"/>
</a>
</g>
</g>
<!-- Node4 -->
<g id="Node000004" class="node">
<title>Node4</title>
<g id="a_Node000004"><a xlink:href="classPlayer.html#af56f0bf98c0423a3a75b0848607d03a4" target="_top" xlink:title="Get the player&#39;s symbol.">
<polygon fill="white" stroke="#666666" points="566,-24.5 456,-24.5 456,-5.5 566,-5.5 566,-24.5"/>
<text text-anchor="middle" x="511" y="-12.5" font-family="Helvetica,sans-Serif" font-size="10.00">Player::get_symbol</text>
</a>
</g>
</g>
<!-- Node3&#45;&gt;Node4 -->
<g id="edge3_Node000003_Node000004" class="edge">
<title>Node3&#45;&gt;Node4</title>
<g id="a_edge3_Node000003_Node000004"><a xlink:title=" ">
<path fill="none" stroke="#63b8ff" d="M420.25,-15C428.51,-15 437.05,-15 445.43,-15"/>
<polygon fill="#63b8ff" stroke="#63b8ff" points="445.55,-18.5 455.55,-15 445.55,-11.5 445.55,-18.5"/>
</a>
</g>
</g>
</g>
</svg>
