<?xml version="1.0" encoding="UTF-8" standalone="no"?>
<!DOCTYPE svg PUBLIC "-//W3C//DTD SVG 1.1//EN"
 "http://www.w3.org/Graphics/SVG/1.1/DTD/svg11.dtd">
<!-- Generated by graphviz version 2.43.0 (0)
 -->
<!-- Title: Misere_Tic_Tac_Toe_board::game_is_over Pages: 1 -->
<svg width="574pt" height="60pt"
 viewBox="0.00 0.00 574.00 60.00" xmlns="http://www.w3.org/2000/svg" xmlns:xlink="http://www.w3.org/1999/xlink">
<g id="graph0" class="graph" transform="scale(1 1) rotate(0) translate(4 56)">
<title>Misere_Tic_Tac_Toe_board::game_is_over</title>
<!-- Node1 -->
<g id="Node000001" class="node">
<title>Node1</title>
<g id="a_Node000001"><a xlink:title="Determines if the game is over (win or draw).">
<polygon fill="#999999" stroke="#666666" points="124,-30 0,-30 0,0 124,0 124,-30"/>
<text text-anchor="start" x="8" y="-18" font-family="Helvetica,sans-Serif" font-size="10.00">Misere_Tic_Tac_Toe</text>
<text text-anchor="middle" x="62" y="-7" font-family="Helvetica,sans-Serif" font-size="10.00">_board::game_is_over</text>
</a>
</g>
</g>
<!-- Node2 -->
<g id="Node000002" class="node">
<title>Node2</title>
<g id="a_Node000002"><a xlink:href="classMisere__Tic__Tac__Toe__board.html#ae61d1f10678bb86d7de70a6a5f0e67f7" target="_top" xlink:title="Checks if the game has ended in a draw.">
<polygon fill="white" stroke="#666666" points="272,-52 160,-52 160,-22 272,-22 272,-52"/>
<text text-anchor="start" x="168" y="-40" font-family="Helvetica,sans-Serif" font-size="10.00">Misere_Tic_Tac_Toe</text>
<text text-anchor="middle" x="216" y="-29" font-family="Helvetica,sans-Serif" font-size="10.00">_board::is_draw</text>
</a>
</g>
</g>
<!-- Node1&#45;&gt;Node2 -->
<g id="edge1_Node000001_Node000002" class="edge">
<title>Node1&#45;&gt;Node2</title>
<g id="a_edge1_Node000001_Node000002"><a xlink:title=" ">
<path fill="none" stroke="#63b8ff" d="M124.39,-23.88C132.7,-25.09 141.26,-26.33 149.65,-27.54"/>
<polygon fill="#63b8ff" stroke="#63b8ff" points="149.36,-31.04 159.76,-29 150.36,-24.11 149.36,-31.04"/>
</a>
</g>
</g>
<!-- Node3 -->
<g id="Node000003" class="node">
<title>Node3</title>
<g id="a_Node000003"><a xlink:href="classMisere__Tic__Tac__Toe__board.html#a17b6a2ec14f1f4c9dc5b6cd59127bc56" target="_top" xlink:title="Checks if the given player has lost the game.">
<polygon fill="white" stroke="#666666" points="420,-30 308,-30 308,0 420,0 420,-30"/>
<text text-anchor="start" x="316" y="-18" font-family="Helvetica,sans-Serif" font-size="10.00">Misere_Tic_Tac_Toe</text>
<text text-anchor="middle" x="364" y="-7" font-family="Helvetica,sans-Serif" font-size="10.00">_board::is_lose</text>
</a>
</g>
</g>
<!-- Node1&#45;&gt;Node3 -->
<g id="edge4_Node000001_Node000003" class="edge">
<title>Node1&#45;&gt;Node3</title>
<g id="a_edge4_Node000001_Node000003"><a xlink:title=" ">
<path fill="none" stroke="#63b8ff" d="M124.05,-13.55C135.97,-13.32 148.38,-13.12 160,-13 209.78,-12.49 222.23,-12.45 272,-13 280.29,-13.09 289.01,-13.23 297.62,-13.39"/>
<polygon fill="#63b8ff" stroke="#63b8ff" points="297.59,-16.89 307.66,-13.59 297.73,-9.89 297.59,-16.89"/>
</a>
</g>
</g>
<!-- Node2&#45;&gt;Node3 -->
<g id="edge2_Node000002_Node000003" class="edge">
<title>Node2&#45;&gt;Node3</title>
<g id="a_edge2_Node000002_Node000003"><a xlink:title=" ">
<path fill="none" stroke="#63b8ff" d="M272.2,-28.68C280.55,-27.42 289.24,-26.11 297.79,-24.83"/>
<polygon fill="#63b8ff" stroke="#63b8ff" points="298.36,-28.28 307.73,-23.33 297.32,-21.36 298.36,-28.28"/>
</a>
</g>
</g>
<!-- Node4 -->
<g id="Node000004" class="node">
<title>Node4</title>
<g id="a_Node000004"><a xlink:href="classPlayer.html#af56f0bf98c0423a3a75b0848607d03a4" target="_top" xlink:title="Get the player&#39;s symbol.">
<polygon fill="white" stroke="#666666" points="566,-24.5 456,-24.5 456,-5.5 566,-5.5 566,-24.5"/>
<text text-anchor="middle" x="511" y="-12.5" font-family="Helvetica,sans-Serif" font-size="10.00">Player::get_symbol</text>
</a>
</g>
</g>
<!-- Node3&#45;&gt;Node4 -->
<g id="edge3_Node000003_Node000004" class="edge">
<title>Node3&#45;&gt;Node4</title>
<g id="a_edge3_Node000003_Node000004"><a xlink:title=" ">
<path fill="none" stroke="#63b8ff" d="M420.23,-15C428.54,-15 437.17,-15 445.65,-15"/>
<polygon fill="#63b8ff" stroke="#63b8ff" points="445.88,-18.5 455.88,-15 445.88,-11.5 445.88,-18.5"/>
</a>
</g>
</g>
</g>
</svg>
