<?xml version="1.0" encoding="UTF-8" standalone="no"?>
<!DOCTYPE svg PUBLIC "-//W3C//DTD SVG 1.1//EN"
 "http://www.w3.org/Graphics/SVG/1.1/DTD/svg11.dtd">
<!-- Generated by graphviz version 2.43.0 (0)
 -->
<!-- Title: Player::set_board_ptr Pages: 1 -->
<svg width="728pt" height="169pt"
 viewBox="0.00 0.00 728.00 168.50" xmlns="http://www.w3.org/2000/svg" xmlns:xlink="http://www.w3.org/1999/xlink">
<g id="graph0" class="graph" transform="scale(1 1) rotate(0) translate(4 164.5)">
<title>Player::set_board_ptr</title>
<!-- Node1 -->
<g id="Node000001" class="node">
<title>Node1</title>
<g id="a_Node000001"><a xlink:title="Assign the board pointer for the player.">
<polygon fill="#999999" stroke="#666666" points="720,-93 600,-93 600,-74 720,-74 720,-93"/>
<text text-anchor="middle" x="660" y="-81" font-family="Helvetica,sans-Serif" font-size="10.00">Player::set_board_ptr</text>
</a>
</g>
</g>
<!-- Node2 -->
<g id="Node000002" class="node">
<title>Node2</title>
<g id="a_Node000002"><a xlink:href="classFourFourAIPlayer.html#a3586ff3a70afa4f0aaf2309764d6a453" target="_top" xlink:title="Evaluate board position with heuristic.">
<polygon fill="white" stroke="#666666" points="554.5,-160.5 406.5,-160.5 406.5,-130.5 554.5,-130.5 554.5,-160.5"/>
<text text-anchor="start" x="414.5" y="-148.5" font-family="Helvetica,sans-Serif" font-size="10.00">FourFourAIPlayer::evaluate</text>
<text text-anchor="middle" x="480.5" y="-137.5" font-family="Helvetica,sans-Serif" font-size="10.00">_board</text>
</a>
</g>
</g>
<!-- Node1&#45;&gt;Node2 -->
<g id="edge1_Node000001_Node000002" class="edge">
<title>Node1&#45;&gt;Node2</title>
<g id="a_edge1_Node000001_Node000002"><a xlink:title=" ">
<path fill="none" stroke="#63b8ff" d="M622.12,-96.38C593.79,-106.28 554.59,-119.97 524.78,-130.38"/>
<polygon fill="#63b8ff" stroke="#63b8ff" points="623.37,-99.65 631.65,-93.05 621.06,-93.05 623.37,-99.65"/>
</a>
</g>
</g>
<!-- Node3 -->
<g id="Node000003" class="node">
<title>Node3</title>
<g id="a_Node000003"><a xlink:href="classFourFourAIPlayer.html#a8427da39d2c0c84609a00dbd51347c9f" target="_top" xlink:title="Override minimax to handle opponent pieces correctly.">
<polygon fill="white" stroke="#666666" points="361,-133 212,-133 212,-114 361,-114 361,-133"/>
<text text-anchor="middle" x="286.5" y="-121" font-family="Helvetica,sans-Serif" font-size="10.00">FourFourAIPlayer::minimax</text>
</a>
</g>
</g>
<!-- Node1&#45;&gt;Node3 -->
<g id="edge6_Node000001_Node000003" class="edge">
<title>Node1&#45;&gt;Node3</title>
<g id="a_edge6_Node000001_Node000003"><a xlink:title=" ">
<path fill="none" stroke="#63b8ff" d="M589.57,-90.98C524.54,-97.98 427.68,-108.41 361.27,-115.56"/>
<polygon fill="#63b8ff" stroke="#63b8ff" points="590.16,-94.43 599.72,-89.88 589.41,-87.47 590.16,-94.43"/>
</a>
</g>
</g>
<!-- Node5 -->
<g id="Node000005" class="node">
<title>Node5</title>
<g id="a_Node000005"><a xlink:href="classGameManager.html#addaf3682d9783bdc432a8e3273b5b92c" target="_top" xlink:title="Construct a game manager with board, players, and UI.">
<polygon fill="white" stroke="#666666" points="564,-74 397,-74 397,-55 564,-55 564,-74"/>
<text text-anchor="middle" x="480.5" y="-62" font-family="Helvetica,sans-Serif" font-size="10.00">GameManager::GameManager</text>
</a>
</g>
</g>
<!-- Node1&#45;&gt;Node5 -->
<g id="edge5_Node000001_Node000005" class="edge">
<title>Node1&#45;&gt;Node5</title>
<g id="a_edge5_Node000001_Node000005"><a xlink:title=" ">
<path fill="none" stroke="#63b8ff" d="M589.76,-76.09C581.33,-75.19 572.66,-74.26 564.06,-73.34"/>
<polygon fill="#63b8ff" stroke="#63b8ff" points="589.58,-79.59 599.9,-77.17 590.32,-72.63 589.58,-79.59"/>
</a>
</g>
</g>
<!-- Node6 -->
<g id="Node000006" class="node">
<title>Node6</title>
<g id="a_Node000006"><a xlink:href="classAIPlayer.html#a4c0c158048dc4b7fabb54dafc9fd0659" target="_top" xlink:title="Minimax algorithm with alpha&#45;beta pruning.">
<polygon fill="white" stroke="#666666" points="534,-19 427,-19 427,0 534,0 534,-19"/>
<text text-anchor="middle" x="480.5" y="-7" font-family="Helvetica,sans-Serif" font-size="10.00">AIPlayer::minimax</text>
</a>
</g>
</g>
<!-- Node1&#45;&gt;Node6 -->
<g id="edge7_Node000001_Node000006" class="edge">
<title>Node1&#45;&gt;Node6</title>
<g id="a_edge7_Node000001_Node000006"><a xlink:title=" ">
<path fill="none" stroke="#63b8ff" d="M626.78,-70.07C591.47,-55.35 535.71,-32.1 504.54,-19.1"/>
<polygon fill="#63b8ff" stroke="#63b8ff" points="625.58,-73.36 636.16,-73.98 628.28,-66.9 625.58,-73.36"/>
</a>
</g>
</g>
<!-- Node2&#45;&gt;Node3 -->
<g id="edge2_Node000002_Node000003" class="edge">
<title>Node2&#45;&gt;Node3</title>
<g id="a_edge2_Node000002_Node000003"><a xlink:title=" ">
<path fill="none" stroke="#63b8ff" d="M396.18,-135.95C384.49,-134.61 372.55,-133.25 361.07,-131.93"/>
<polygon fill="#63b8ff" stroke="#63b8ff" points="396.03,-139.46 406.37,-137.12 396.83,-132.5 396.03,-139.46"/>
</a>
</g>
</g>
<!-- Node3&#45;&gt;Node3 -->
<g id="edge4_Node000003_Node000003" class="edge">
<title>Node3&#45;&gt;Node3</title>
<g id="a_edge4_Node000003_Node000003"><a xlink:title=" ">
<path fill="none" stroke="#63b8ff" d="M322.48,-141.07C321.95,-146.62 309.96,-151 286.5,-151 252.37,-151 242.51,-141.73 256.91,-133.08"/>
<polygon fill="#63b8ff" stroke="#63b8ff" points="325.07,-138.71 316.09,-133.08 319.61,-143.08 325.07,-138.71"/>
</a>
</g>
</g>
<!-- Node4 -->
<g id="Node000004" class="node">
<title>Node4</title>
<g id="a_Node000004"><a xlink:href="classFourFourAIPlayer.html#ae65b9079173802af7f5091473ce5f513" target="_top" xlink:title="Override calculateMove to handle direction&#45;based moves.">
<polygon fill="white" stroke="#666666" points="176,-133 0,-133 0,-114 176,-114 176,-133"/>
<text text-anchor="middle" x="88" y="-121" font-family="Helvetica,sans-Serif" font-size="10.00">FourFourAIPlayer::calculateMove</text>
</a>
</g>
</g>
<!-- Node3&#45;&gt;Node4 -->
<g id="edge3_Node000003_Node000004" class="edge">
<title>Node3&#45;&gt;Node4</title>
<g id="a_edge3_Node000003_Node000004"><a xlink:title=" ">
<path fill="none" stroke="#63b8ff" d="M201.56,-123.5C193.12,-123.5 184.53,-123.5 176.05,-123.5"/>
<polygon fill="#63b8ff" stroke="#63b8ff" points="201.77,-127 211.77,-123.5 201.77,-120 201.77,-127"/>
</a>
</g>
</g>
<!-- Node6&#45;&gt;Node6 -->
<g id="edge9_Node000006_Node000006" class="edge">
<title>Node6&#45;&gt;Node6</title>
<g id="a_edge9_Node000006_Node000006"><a xlink:title=" ">
<path fill="none" stroke="#63b8ff" d="M513.81,-27.45C512.86,-32.82 501.76,-37 480.5,-37 448.86,-37 439.72,-27.73 453.07,-19.08"/>
<polygon fill="#63b8ff" stroke="#63b8ff" points="516.55,-25.26 507.93,-19.08 510.82,-29.28 516.55,-25.26"/>
</a>
</g>
</g>
<!-- Node7 -->
<g id="Node000007" class="node">
<title>Node7</title>
<g id="a_Node000007"><a xlink:href="classAIPlayer.html#a962dc21adb2a91029e4d903e701c191a" target="_top" xlink:title="Calculate and return the best move using minimax algorithm.">
<polygon fill="white" stroke="#666666" points="353.5,-19 219.5,-19 219.5,0 353.5,0 353.5,-19"/>
<text text-anchor="middle" x="286.5" y="-7" font-family="Helvetica,sans-Serif" font-size="10.00">AIPlayer::calculateMove</text>
</a>
</g>
</g>
<!-- Node6&#45;&gt;Node7 -->
<g id="edge8_Node000006_Node000007" class="edge">
<title>Node6&#45;&gt;Node7</title>
<g id="a_edge8_Node000006_Node000007"><a xlink:title=" ">
<path fill="none" stroke="#63b8ff" d="M416.78,-9.5C396.62,-9.5 374.24,-9.5 353.83,-9.5"/>
<polygon fill="#63b8ff" stroke="#63b8ff" points="416.78,-13 426.78,-9.5 416.78,-6 416.78,-13"/>
</a>
</g>
</g>
</g>
</svg>
