<?xml version="1.0" encoding="UTF-8" standalone="no"?>
<!DOCTYPE svg PUBLIC "-//W3C//DTD SVG 1.1//EN"
 "http://www.w3.org/Graphics/SVG/1.1/DTD/svg11.dtd">
<!-- Generated by graphviz version 2.43.0 (0)
 -->
<!-- Title: Player::get_name Pages: 1 -->
<svg width="357pt" height="64pt"
 viewBox="0.00 0.00 357.00 64.00" xmlns="http://www.w3.org/2000/svg" xmlns:xlink="http://www.w3.org/1999/xlink">
<g id="graph0" class="graph" transform="scale(1 1) rotate(0) translate(4 60)">
<title>Player::get_name</title>
<!-- Node1 -->
<g id="Node000001" class="node">
<title>Node1</title>
<g id="a_Node000001"><a xlink:title="Get the player&#39;s name.">
<polygon fill="#999999" stroke="#666666" points="349,-37 247,-37 247,-18 349,-18 349,-37"/>
<text text-anchor="middle" x="298" y="-25" font-family="Helvetica,sans-Serif" font-size="10.00">Player::get_name</text>
</a>
</g>
</g>
<!-- Node2 -->
<g id="Node000002" class="node">
<title>Node2</title>
<g id="a_Node000002"><a xlink:href="classMenu.html#ac23355e22b1ace3631aa713c8122ffc3" target="_top" xlink:title=" ">
<polygon fill="white" stroke="#666666" points="208.5,-56 103.5,-56 103.5,-37 208.5,-37 208.5,-56"/>
<text text-anchor="middle" x="156" y="-44" font-family="Helvetica,sans-Serif" font-size="10.00">Menu::print_menu</text>
</a>
</g>
</g>
<!-- Node1&#45;&gt;Node2 -->
<g id="edge1_Node000001_Node000002" class="edge">
<title>Node1&#45;&gt;Node2</title>
<g id="a_edge1_Node000001_Node000002"><a xlink:title=" ">
<path fill="none" stroke="#63b8ff" d="M236.81,-35.67C227.45,-36.94 217.84,-38.24 208.68,-39.49"/>
<polygon fill="#63b8ff" stroke="#63b8ff" points="237.41,-39.12 246.85,-34.31 236.47,-32.18 237.41,-39.12"/>
</a>
</g>
</g>
<!-- Node4 -->
<g id="Node000004" class="node">
<title>Node4</title>
<g id="a_Node000004"><a xlink:href="classGameManager.html#a71f46d5189dac5c773f608cea1b5a203" target="_top" xlink:title="Run the main game loop until someone wins or the game ends.">
<polygon fill="white" stroke="#666666" points="211,-19 101,-19 101,0 211,0 211,-19"/>
<text text-anchor="middle" x="156" y="-7" font-family="Helvetica,sans-Serif" font-size="10.00">GameManager::run</text>
</a>
</g>
</g>
<!-- Node1&#45;&gt;Node4 -->
<g id="edge3_Node000001_Node000004" class="edge">
<title>Node1&#45;&gt;Node4</title>
<g id="a_edge3_Node000001_Node000004"><a xlink:title=" ">
<path fill="none" stroke="#63b8ff" d="M236.9,-19.77C228.31,-18.67 219.52,-17.54 211.06,-16.45"/>
<polygon fill="#63b8ff" stroke="#63b8ff" points="236.49,-23.25 246.85,-21.05 237.38,-16.31 236.49,-23.25"/>
</a>
</g>
</g>
<!-- Node3 -->
<g id="Node000003" class="node">
<title>Node3</title>
<g id="a_Node000003"><a xlink:href="classMenu.html#a35656cd130e24d69383a5c9d0a73a38c" target="_top" xlink:title=" ">
<polygon fill="white" stroke="#666666" points="65,-56 0,-56 0,-37 65,-37 65,-56"/>
<text text-anchor="middle" x="32.5" y="-44" font-family="Helvetica,sans-Serif" font-size="10.00">Menu::run</text>
</a>
</g>
</g>
<!-- Node2&#45;&gt;Node3 -->
<g id="edge2_Node000002_Node000003" class="edge">
<title>Node2&#45;&gt;Node3</title>
<g id="a_edge2_Node000002_Node000003"><a xlink:title=" ">
<path fill="none" stroke="#63b8ff" d="M93.29,-46.5C83.5,-46.5 73.73,-46.5 65.02,-46.5"/>
<polygon fill="#63b8ff" stroke="#63b8ff" points="93.47,-50 103.47,-46.5 93.47,-43 93.47,-50"/>
</a>
</g>
</g>
</g>
</svg>
