<?xml version="1.0" encoding="UTF-8" standalone="no"?>
<!DOCTYPE svg PUBLIC "-//W3C//DTD SVG 1.1//EN"
 "http://www.w3.org/Graphics/SVG/1.1/DTD/svg11.dtd">
<!-- Generated by graphviz version 2.43.0 (0)
 -->
<!-- Title: Word_XO_Board::is_draw Pages: 1 -->
<svg width="621pt" height="64pt"
 viewBox="0.00 0.00 621.00 64.00" xmlns="http://www.w3.org/2000/svg" xmlns:xlink="http://www.w3.org/1999/xlink">
<g id="graph0" class="graph" transform="scale(1 1) rotate(0) translate(4 60)">
<title>Word_XO_Board::is_draw</title>
<!-- Node1 -->
<g id="Node000001" class="node">
<title>Node1</title>
<g id="a_Node000001"><a xlink:title="Checks if the game has ended in a draw.">
<polygon fill="#999999" stroke="#666666" points="137,-37 0,-37 0,-18 137,-18 137,-37"/>
<text text-anchor="middle" x="68.5" y="-25" font-family="Helvetica,sans-Serif" font-size="10.00">Word_XO_Board::is_draw</text>
</a>
</g>
</g>
<!-- Node2 -->
<g id="Node000002" class="node">
<title>Node2</title>
<g id="a_Node000002"><a xlink:href="classWord__XO__Board.html#a423c6610a952ef533ed2ac414992e0bc" target="_top" xlink:title="Checks if the given player has won the game.">
<polygon fill="white" stroke="#666666" points="304,-37 173,-37 173,-18 304,-18 304,-37"/>
<text text-anchor="middle" x="238.5" y="-25" font-family="Helvetica,sans-Serif" font-size="10.00">Word_XO_Board::is_win</text>
</a>
</g>
</g>
<!-- Node1&#45;&gt;Node2 -->
<g id="edge1_Node000001_Node000002" class="edge">
<title>Node1&#45;&gt;Node2</title>
<g id="a_edge1_Node000001_Node000002"><a xlink:title=" ">
<path fill="none" stroke="#63b8ff" d="M137.35,-27.5C145.7,-27.5 154.27,-27.5 162.72,-27.5"/>
<polygon fill="#63b8ff" stroke="#63b8ff" points="162.94,-31 172.94,-27.5 162.94,-24 162.94,-31"/>
</a>
</g>
</g>
<!-- Node3 -->
<g id="Node000003" class="node">
<title>Node3</title>
<g id="a_Node000003"><a xlink:href="Words__XO_8cpp.html#a647f8969a15d4c17a2317ee247d62223" target="_top" xlink:title=" ">
<polygon fill="white" stroke="#666666" points="433,-56 357,-56 357,-37 433,-37 433,-56"/>
<text text-anchor="middle" x="395" y="-44" font-family="Helvetica,sans-Serif" font-size="10.00">Check_word</text>
</a>
</g>
</g>
<!-- Node2&#45;&gt;Node3 -->
<g id="edge2_Node000002_Node000003" class="edge">
<title>Node2&#45;&gt;Node3</title>
<g id="a_edge2_Node000002_Node000003"><a xlink:title=" ">
<path fill="none" stroke="#63b8ff" d="M304.13,-35.45C318.49,-37.21 333.45,-39.05 346.96,-40.71"/>
<polygon fill="#63b8ff" stroke="#63b8ff" points="346.61,-44.2 356.96,-41.95 347.46,-37.25 346.61,-44.2"/>
</a>
</g>
</g>
<!-- Node5 -->
<g id="Node000005" class="node">
<title>Node5</title>
<g id="a_Node000005"><a xlink:href="classPlayer.html#af56f0bf98c0423a3a75b0848607d03a4" target="_top" xlink:title="Get the player&#39;s symbol.">
<polygon fill="white" stroke="#666666" points="450,-19 340,-19 340,0 450,0 450,-19"/>
<text text-anchor="middle" x="395" y="-7" font-family="Helvetica,sans-Serif" font-size="10.00">Player::get_symbol</text>
</a>
</g>
</g>
<!-- Node2&#45;&gt;Node5 -->
<g id="edge4_Node000002_Node000005" class="edge">
<title>Node2&#45;&gt;Node5</title>
<g id="a_edge4_Node000002_Node000005"><a xlink:title=" ">
<path fill="none" stroke="#63b8ff" d="M304.13,-19.97C312.59,-18.98 321.27,-17.97 329.72,-16.99"/>
<polygon fill="#63b8ff" stroke="#63b8ff" points="330.38,-20.44 339.91,-15.8 329.57,-13.48 330.38,-20.44"/>
</a>
</g>
</g>
<!-- Node4 -->
<g id="Node000004" class="node">
<title>Node4</title>
<g id="a_Node000004"><a xlink:href="Words__XO_8cpp.html#ab65af4b7592bc63ebf5a2b8644511c14" target="_top" xlink:title=" ">
<polygon fill="white" stroke="#666666" points="613,-56 486,-56 486,-37 613,-37 613,-56"/>
<text text-anchor="middle" x="549.5" y="-44" font-family="Helvetica,sans-Serif" font-size="10.00">load_global_dictionary</text>
</a>
</g>
</g>
<!-- Node3&#45;&gt;Node4 -->
<g id="edge3_Node000003_Node000004" class="edge">
<title>Node3&#45;&gt;Node4</title>
<g id="a_edge3_Node000003_Node000004"><a xlink:title=" ">
<path fill="none" stroke="#63b8ff" d="M433.31,-46.5C446.13,-46.5 460.96,-46.5 475.63,-46.5"/>
<polygon fill="#63b8ff" stroke="#63b8ff" points="475.73,-50 485.73,-46.5 475.73,-43 475.73,-50"/>
</a>
</g>
</g>
</g>
</svg>
