<?xml version="1.0" encoding="UTF-8" standalone="no"?>
<!DOCTYPE svg PUBLIC "-//W3C//DTD SVG 1.1//EN"
 "http://www.w3.org/Graphics/SVG/1.1/DTD/svg11.dtd">
<!-- Generated by graphviz version 2.43.0 (0)
 -->
<!-- Title: SUS_Board::game_is_over Pages: 1 -->
<svg width="590pt" height="46pt"
 viewBox="0.00 0.00 590.00 46.00" xmlns="http://www.w3.org/2000/svg" xmlns:xlink="http://www.w3.org/1999/xlink">
<g id="graph0" class="graph" transform="scale(1 1) rotate(0) translate(4 42)">
<title>SUS_Board::game_is_over</title>
<!-- Node1 -->
<g id="Node000001" class="node">
<title>Node1</title>
<g id="a_Node000001"><a xlink:title="Determines if the game is over (win or draw).">
<polygon fill="#999999" stroke="#666666" points="144,-19 0,-19 0,0 144,0 144,-19"/>
<text text-anchor="middle" x="72" y="-7" font-family="Helvetica,sans-Serif" font-size="10.00">SUS_Board::game_is_over</text>
</a>
</g>
</g>
<!-- Node2 -->
<g id="Node000002" class="node">
<title>Node2</title>
<g id="a_Node000002"><a xlink:href="classSUS__Board.html#a006d0b395a8912ceb0335b95cc69de49" target="_top" xlink:title="Checks if the game has ended in a draw.">
<polygon fill="white" stroke="#666666" points="293,-38 180,-38 180,-19 293,-19 293,-38"/>
<text text-anchor="middle" x="236.5" y="-26" font-family="Helvetica,sans-Serif" font-size="10.00">SUS_Board::is_draw</text>
</a>
</g>
</g>
<!-- Node1&#45;&gt;Node2 -->
<g id="edge1_Node000001_Node000002" class="edge">
<title>Node1&#45;&gt;Node2</title>
<g id="a_edge1_Node000001_Node000002"><a xlink:title=" ">
<path fill="none" stroke="#63b8ff" d="M144.27,-17.83C152.76,-18.83 161.4,-19.84 169.8,-20.82"/>
<polygon fill="#63b8ff" stroke="#63b8ff" points="169.58,-24.32 179.91,-22 170.39,-17.36 169.58,-24.32"/>
</a>
</g>
</g>
<!-- Node3 -->
<g id="Node000003" class="node">
<title>Node3</title>
<g id="a_Node000003"><a xlink:href="classSUS__Board.html#a48747aa0b5f24bac5b5953576725b3ec" target="_top" xlink:title="Checks if the given player has won the game.">
<polygon fill="white" stroke="#666666" points="436,-19 329,-19 329,0 436,0 436,-19"/>
<text text-anchor="middle" x="382.5" y="-7" font-family="Helvetica,sans-Serif" font-size="10.00">SUS_Board::is_win</text>
</a>
</g>
</g>
<!-- Node1&#45;&gt;Node3 -->
<g id="edge4_Node000001_Node000003" class="edge">
<title>Node1&#45;&gt;Node3</title>
<g id="a_edge4_Node000001_Node000003"><a xlink:title=" ">
<path fill="none" stroke="#63b8ff" d="M144.16,-9.5C196.94,-9.5 268.2,-9.5 318.83,-9.5"/>
<polygon fill="#63b8ff" stroke="#63b8ff" points="318.99,-13 328.99,-9.5 318.99,-6 318.99,-13"/>
</a>
</g>
</g>
<!-- Node2&#45;&gt;Node3 -->
<g id="edge2_Node000002_Node000003" class="edge">
<title>Node2&#45;&gt;Node3</title>
<g id="a_edge2_Node000002_Node000003"><a xlink:title=" ">
<path fill="none" stroke="#63b8ff" d="M293.17,-21.15C301.59,-20.04 310.33,-18.89 318.88,-17.76"/>
<polygon fill="#63b8ff" stroke="#63b8ff" points="319.35,-21.23 328.81,-16.45 318.44,-14.29 319.35,-21.23"/>
</a>
</g>
</g>
<!-- Node4 -->
<g id="Node000004" class="node">
<title>Node4</title>
<g id="a_Node000004"><a xlink:href="classPlayer.html#af56f0bf98c0423a3a75b0848607d03a4" target="_top" xlink:title="Get the player&#39;s symbol.">
<polygon fill="white" stroke="#666666" points="582,-19 472,-19 472,0 582,0 582,-19"/>
<text text-anchor="middle" x="527" y="-7" font-family="Helvetica,sans-Serif" font-size="10.00">Player::get_symbol</text>
</a>
</g>
</g>
<!-- Node3&#45;&gt;Node4 -->
<g id="edge3_Node000003_Node000004" class="edge">
<title>Node3&#45;&gt;Node4</title>
<g id="a_edge3_Node000003_Node000004"><a xlink:title=" ">
<path fill="none" stroke="#63b8ff" d="M436.16,-9.5C444.39,-9.5 452.97,-9.5 461.43,-9.5"/>
<polygon fill="#63b8ff" stroke="#63b8ff" points="461.65,-13 471.65,-9.5 461.65,-6 461.65,-13"/>
</a>
</g>
</g>
</g>
</svg>
