<?xml version="1.0" encoding="UTF-8" standalone="no"?>
<!DOCTYPE svg PUBLIC "-//W3C//DTD SVG 1.1//EN"
 "http://www.w3.org/Graphics/SVG/1.1/DTD/svg11.dtd">
<!-- Generated by graphviz version 2.43.0 (0)
 -->
<!-- Title: Player::Player Pages: 1 -->
<svg width="491pt" height="604pt"
 viewBox="0.00 0.00 491.00 604.04" xmlns="http://www.w3.org/2000/svg" xmlns:xlink="http://www.w3.org/1999/xlink">
<g id="graph0" class="graph" transform="scale(1 1) rotate(0) translate(4 600.04)">
<title>Player::Player</title>
<!-- Node1 -->
<g id="Node000001" class="node">
<title>Node1</title>
<g id="a_Node000001"><a xlink:title="Construct a player with name, symbol, and type.">
<polygon fill="#999999" stroke="#666666" points="483,-305.04 399,-305.04 399,-286.04 483,-286.04 483,-305.04"/>
<text text-anchor="middle" x="441" y="-293.04" font-family="Helvetica,sans-Serif" font-size="10.00">Player::Player</text>
</a>
</g>
</g>
<!-- Node2 -->
<g id="Node000002" class="node">
<title>Node2</title>
<g id="a_Node000002"><a xlink:href="classAIPlayer.html#a962dc21adb2a91029e4d903e701c191a" target="_top" xlink:title="Calculate and return the best move using minimax algorithm.">
<polygon fill="white" stroke="#666666" points="155,-559.04 21,-559.04 21,-540.04 155,-540.04 155,-559.04"/>
<text text-anchor="middle" x="88" y="-547.04" font-family="Helvetica,sans-Serif" font-size="10.00">AIPlayer::calculateMove</text>
</a>
</g>
</g>
<!-- Node1&#45;&gt;Node2 -->
<g id="edge1_Node000001_Node000002" class="edge">
<title>Node1&#45;&gt;Node2</title>
<g id="a_edge1_Node000001_Node000002"><a xlink:title=" ">
<path fill="none" stroke="#63b8ff" d="M438.67,-315.62C434.79,-356.83 419.84,-451.03 363,-498.54 332.14,-524.33 225.8,-538.13 155.04,-544.64"/>
<polygon fill="#63b8ff" stroke="#63b8ff" points="442.17,-315.74 439.49,-305.49 435.19,-315.17 442.17,-315.74"/>
</a>
</g>
</g>
<!-- Node3 -->
<g id="Node000003" class="node">
<title>Node3</title>
<g id="a_Node000003"><a xlink:href="classsmartPlayer.html#a6064105bc4b494d926db58ff05c98aaa" target="_top" xlink:title=" ">
<polygon fill="white" stroke="#666666" points="164.5,-450.04 11.5,-450.04 11.5,-431.04 164.5,-431.04 164.5,-450.04"/>
<text text-anchor="middle" x="88" y="-438.04" font-family="Helvetica,sans-Serif" font-size="10.00">smartPlayer::calculateMove</text>
</a>
</g>
</g>
<!-- Node1&#45;&gt;Node3 -->
<g id="edge2_Node000001_Node000003" class="edge">
<title>Node1&#45;&gt;Node3</title>
<g id="a_edge2_Node000001_Node000003"><a xlink:title=" ">
<path fill="none" stroke="#63b8ff" d="M438.24,-315.53C433.65,-354 417.58,-437.68 363,-473.54 280.71,-527.6 153.97,-473.6 107.17,-450.19"/>
<polygon fill="#63b8ff" stroke="#63b8ff" points="441.77,-315.45 439.33,-305.14 434.8,-314.73 441.77,-315.45"/>
</a>
</g>
</g>
<!-- Node4 -->
<g id="Node000004" class="node">
<title>Node4</title>
<g id="a_Node000004"><a xlink:href="classsmartPlayer2.html#af51ff0c3115f5dc34fce64958c52beb2" target="_top" xlink:title=" ">
<polygon fill="white" stroke="#666666" points="167.5,-324.04 8.5,-324.04 8.5,-305.04 167.5,-305.04 167.5,-324.04"/>
<text text-anchor="middle" x="88" y="-312.04" font-family="Helvetica,sans-Serif" font-size="10.00">smartPlayer2::calculateMove</text>
</a>
</g>
</g>
<!-- Node1&#45;&gt;Node4 -->
<g id="edge3_Node000001_Node000004" class="edge">
<title>Node1&#45;&gt;Node4</title>
<g id="a_edge3_Node000001_Node000004"><a xlink:title=" ">
<path fill="none" stroke="#63b8ff" d="M388.65,-298.32C330.52,-301.46 235.14,-306.63 167.63,-310.28"/>
<polygon fill="#63b8ff" stroke="#63b8ff" points="388.91,-301.81 398.7,-297.77 388.53,-294.82 388.91,-301.81"/>
</a>
</g>
</g>
<!-- Node5 -->
<g id="Node000005" class="node">
<title>Node5</title>
<g id="a_Node000005"><a xlink:href="classDiamondSmartPlayer.html#a544a98099735ad4a86139fbba28697cf" target="_top" xlink:title="Calculate the best move through Minmax algorithms.">
<polygon fill="white" stroke="#666666" points="348,-464.54 227,-464.54 227,-434.54 348,-434.54 348,-464.54"/>
<text text-anchor="start" x="235" y="-452.54" font-family="Helvetica,sans-Serif" font-size="10.00">DiamondSmartPlayer</text>
<text text-anchor="middle" x="287.5" y="-441.54" font-family="Helvetica,sans-Serif" font-size="10.00">::calculateMove</text>
</a>
</g>
</g>
<!-- Node1&#45;&gt;Node5 -->
<g id="edge4_Node000001_Node000005" class="edge">
<title>Node1&#45;&gt;Node5</title>
<g id="a_edge4_Node000001_Node000005"><a xlink:title=" ">
<path fill="none" stroke="#63b8ff" d="M433.58,-314.9C423.2,-343.25 400.08,-395.93 363,-425.54 358.54,-429.1 353.54,-432.14 348.29,-434.73"/>
<polygon fill="#63b8ff" stroke="#63b8ff" points="436.93,-315.91 436.94,-305.32 430.33,-313.6 436.93,-315.91"/>
</a>
</g>
</g>
<!-- Node6 -->
<g id="Node000006" class="node">
<title>Node6</title>
<g id="a_Node000006"><a xlink:href="classFourFourAIPlayer.html#ae65b9079173802af7f5091473ce5f513" target="_top" xlink:title="Override calculateMove to handle direction&#45;based moves.">
<polygon fill="white" stroke="#666666" points="176,-230.04 0,-230.04 0,-211.04 176,-211.04 176,-230.04"/>
<text text-anchor="middle" x="88" y="-218.04" font-family="Helvetica,sans-Serif" font-size="10.00">FourFourAIPlayer::calculateMove</text>
</a>
</g>
</g>
<!-- Node1&#45;&gt;Node6 -->
<g id="edge5_Node000001_Node000006" class="edge">
<title>Node1&#45;&gt;Node6</title>
<g id="a_edge5_Node000001_Node000006"><a xlink:title=" ">
<path fill="none" stroke="#63b8ff" d="M427.69,-277.42C414.22,-259.38 390.81,-232.79 363,-221.54 286.94,-190.75 188.97,-201 133.16,-210.96"/>
<polygon fill="#63b8ff" stroke="#63b8ff" points="425.13,-279.86 433.8,-285.95 430.82,-275.78 425.13,-279.86"/>
</a>
</g>
</g>
<!-- Node7 -->
<g id="Node000007" class="node">
<title>Node7</title>
<g id="a_Node000007"><a xlink:href="classSUS__SmartPlayer.html#a0bdb4e9b63a7fabb9e95c31ba7a5dc02" target="_top" xlink:title=" ">
<polygon fill="white" stroke="#666666" points="164,-141.54 12,-141.54 12,-111.54 164,-111.54 164,-141.54"/>
<text text-anchor="start" x="20" y="-129.54" font-family="Helvetica,sans-Serif" font-size="10.00">SUS_SmartPlayer::calculate</text>
<text text-anchor="middle" x="88" y="-118.54" font-family="Helvetica,sans-Serif" font-size="10.00">Move2</text>
</a>
</g>
</g>
<!-- Node1&#45;&gt;Node7 -->
<g id="edge6_Node000001_Node000007" class="edge">
<title>Node1&#45;&gt;Node7</title>
<g id="a_edge6_Node000001_Node000007"><a xlink:title=" ">
<path fill="none" stroke="#63b8ff" d="M437.69,-275.61C432.23,-238.82 414.82,-160.92 363,-127.54 295.72,-84.19 198.52,-97.39 139.79,-111.53"/>
<polygon fill="#63b8ff" stroke="#63b8ff" points="434.23,-276.17 439.03,-285.62 441.17,-275.24 434.23,-276.17"/>
</a>
</g>
</g>
<!-- Node8 -->
<g id="Node000008" class="node">
<title>Node8</title>
<g id="a_Node000008"><a xlink:href="classwordSmartPlayer.html#ab4791918e207984b9d8a7400b436a19b" target="_top" xlink:title=" ">
<polygon fill="white" stroke="#666666" points="163.5,-47.54 12.5,-47.54 12.5,-17.54 163.5,-17.54 163.5,-47.54"/>
<text text-anchor="start" x="20.5" y="-35.54" font-family="Helvetica,sans-Serif" font-size="10.00">wordSmartPlayer::calculate</text>
<text text-anchor="middle" x="88" y="-24.54" font-family="Helvetica,sans-Serif" font-size="10.00">Move2</text>
</a>
</g>
</g>
<!-- Node1&#45;&gt;Node8 -->
<g id="edge7_Node000001_Node000008" class="edge">
<title>Node1&#45;&gt;Node8</title>
<g id="a_edge7_Node000001_Node000008"><a xlink:title=" ">
<path fill="none" stroke="#63b8ff" d="M437.31,-276.04C429.19,-220.32 402.99,-62.49 363,-32.54 296.47,17.31 193.1,-0.9 134.18,-17.47"/>
<polygon fill="#63b8ff" stroke="#63b8ff" points="433.86,-276.62 438.73,-286.02 440.79,-275.63 433.86,-276.62"/>
</a>
</g>
</g>
<!-- Node9 -->
<g id="Node000009" class="node">
<title>Node9</title>
<g id="a_Node000009"><a xlink:href="classFourFourAIPlayer.html#a8427da39d2c0c84609a00dbd51347c9f" target="_top" xlink:title="Override minimax to handle opponent pieces correctly.">
<polygon fill="white" stroke="#666666" points="362,-249.04 213,-249.04 213,-230.04 362,-230.04 362,-249.04"/>
<text text-anchor="middle" x="287.5" y="-237.04" font-family="Helvetica,sans-Serif" font-size="10.00">FourFourAIPlayer::minimax</text>
</a>
</g>
</g>
<!-- Node1&#45;&gt;Node9 -->
<g id="edge8_Node000001_Node000009" class="edge">
<title>Node1&#45;&gt;Node9</title>
<g id="a_edge8_Node000001_Node000009"><a xlink:title=" ">
<path fill="none" stroke="#63b8ff" d="M404.26,-282.33C376.6,-272.1 338.95,-258.19 314.2,-249.04"/>
<polygon fill="#63b8ff" stroke="#63b8ff" points="403.36,-285.73 413.96,-285.91 405.79,-279.16 403.36,-285.73"/>
</a>
</g>
</g>
<!-- Node10 -->
<g id="Node000010" class="node">
<title>Node10</title>
<g id="a_Node000010"><a xlink:href="classAIPlayer.html#a4c0c158048dc4b7fabb54dafc9fd0659" target="_top" xlink:title="Minimax algorithm with alpha&#45;beta pruning.">
<polygon fill="white" stroke="#666666" points="341,-578.04 234,-578.04 234,-559.04 341,-559.04 341,-578.04"/>
<text text-anchor="middle" x="287.5" y="-566.04" font-family="Helvetica,sans-Serif" font-size="10.00">AIPlayer::minimax</text>
</a>
</g>
</g>
<!-- Node1&#45;&gt;Node10 -->
<g id="edge11_Node000001_Node000010" class="edge">
<title>Node1&#45;&gt;Node10</title>
<g id="a_edge11_Node000001_Node000010"><a xlink:title=" ">
<path fill="none" stroke="#63b8ff" d="M439.74,-315.5C438.04,-362.21 427.22,-479.56 363,-544.54 356.79,-550.82 348.93,-555.46 340.66,-558.88"/>
<polygon fill="#63b8ff" stroke="#63b8ff" points="443.25,-315.31 440,-305.22 436.25,-315.13 443.25,-315.31"/>
</a>
</g>
</g>
<!-- Node11 -->
<g id="Node000011" class="node">
<title>Node11</title>
<g id="a_Node000011"><a xlink:href="classSUS__SmartPlayer.html#a12997b1bc461e8622940323f673cc5ec" target="_top" xlink:title=" ">
<polygon fill="white" stroke="#666666" points="363,-155.04 212,-155.04 212,-136.04 363,-136.04 363,-155.04"/>
<text text-anchor="middle" x="287.5" y="-143.04" font-family="Helvetica,sans-Serif" font-size="10.00">SUS_SmartPlayer::minimax</text>
</a>
</g>
</g>
<!-- Node1&#45;&gt;Node11 -->
<g id="edge14_Node000001_Node000011" class="edge">
<title>Node1&#45;&gt;Node11</title>
<g id="a_edge14_Node000001_Node000011"><a xlink:title=" ">
<path fill="none" stroke="#63b8ff" d="M430.17,-276.99C417.19,-253.84 392.52,-214.08 363,-187.54 347.65,-173.74 327.01,-162.54 311.34,-155.19"/>
<polygon fill="#63b8ff" stroke="#63b8ff" points="427.12,-278.71 434.99,-285.8 433.26,-275.35 427.12,-278.71"/>
</a>
</g>
</g>
<!-- Node12 -->
<g id="Node000012" class="node">
<title>Node12</title>
<g id="a_Node000012"><a xlink:href="classwordSmartPlayer.html#ad2958d2928652d713002043fe27fdf9b" target="_top" xlink:title=" ">
<polygon fill="white" stroke="#666666" points="362.5,-61.04 212.5,-61.04 212.5,-42.04 362.5,-42.04 362.5,-61.04"/>
<text text-anchor="middle" x="287.5" y="-49.04" font-family="Helvetica,sans-Serif" font-size="10.00">wordSmartPlayer::minimax</text>
</a>
</g>
</g>
<!-- Node1&#45;&gt;Node12 -->
<g id="edge17_Node000001_Node000012" class="edge">
<title>Node1&#45;&gt;Node12</title>
<g id="a_edge17_Node000001_Node000012"><a xlink:title=" ">
<path fill="none" stroke="#63b8ff" d="M437.08,-275.91C430.39,-236.97 410.69,-148.93 363,-93.54 350.21,-78.68 330.8,-67.98 315,-61.1"/>
<polygon fill="#63b8ff" stroke="#63b8ff" points="433.65,-276.61 438.69,-285.92 440.56,-275.49 433.65,-276.61"/>
</a>
</g>
</g>
<!-- Node13 -->
<g id="Node000013" class="node">
<title>Node13</title>
<g id="a_Node000013"><a xlink:href="classsmartPlayer2.html#a8212944143d4baa2e7b05bca584a0e77" target="_top" xlink:title=" ">
<polygon fill="white" stroke="#666666" points="353,-343.04 222,-343.04 222,-324.04 353,-324.04 353,-343.04"/>
<text text-anchor="middle" x="287.5" y="-331.04" font-family="Helvetica,sans-Serif" font-size="10.00">smartPlayer2::minimax</text>
</a>
</g>
</g>
<!-- Node1&#45;&gt;Node13 -->
<g id="edge20_Node000001_Node000013" class="edge">
<title>Node1&#45;&gt;Node13</title>
<g id="a_edge20_Node000001_Node000013"><a xlink:title=" ">
<path fill="none" stroke="#63b8ff" d="M392,-307.58C370.83,-312.89 346.31,-319.04 326.45,-324.02"/>
<polygon fill="#63b8ff" stroke="#63b8ff" points="392.92,-310.95 401.77,-305.13 391.22,-304.16 392.92,-310.95"/>
</a>
</g>
</g>
<!-- Node14 -->
<g id="Node000014" class="node">
<title>Node14</title>
<g id="a_Node000014"><a xlink:href="classsmartPlayer.html#a813fa8a35e205952685fc055af8a8e48" target="_top" xlink:title=" ">
<polygon fill="white" stroke="#666666" points="350,-398.04 225,-398.04 225,-379.04 350,-379.04 350,-398.04"/>
<text text-anchor="middle" x="287.5" y="-386.04" font-family="Helvetica,sans-Serif" font-size="10.00">smartPlayer::minimax</text>
</a>
</g>
</g>
<!-- Node1&#45;&gt;Node14 -->
<g id="edge23_Node000001_Node000014" class="edge">
<title>Node1&#45;&gt;Node14</title>
<g id="a_edge23_Node000001_Node000014"><a xlink:title=" ">
<path fill="none" stroke="#63b8ff" d="M426.46,-313.42C412.46,-330.66 389.01,-356.17 363,-370.54 356.83,-373.95 350.02,-376.72 343.1,-378.96"/>
<polygon fill="#63b8ff" stroke="#63b8ff" points="429.45,-315.29 432.89,-305.27 423.95,-310.95 429.45,-315.29"/>
</a>
</g>
</g>
<!-- Node9&#45;&gt;Node6 -->
<g id="edge9_Node000009_Node000006" class="edge">
<title>Node9&#45;&gt;Node6</title>
<g id="a_edge9_Node000009_Node000006"><a xlink:title=" ">
<path fill="none" stroke="#63b8ff" d="M202.76,-231.48C194,-230.64 185.08,-229.78 176.28,-228.93"/>
<polygon fill="#63b8ff" stroke="#63b8ff" points="202.67,-234.99 212.96,-232.46 203.34,-228.02 202.67,-234.99"/>
</a>
</g>
</g>
<!-- Node9&#45;&gt;Node9 -->
<g id="edge10_Node000009_Node000009" class="edge">
<title>Node9&#45;&gt;Node9</title>
<g id="a_edge10_Node000009_Node000009"><a xlink:title=" ">
<path fill="none" stroke="#63b8ff" d="M315.87,-257.86C314.69,-263.05 305.23,-267.04 287.5,-267.04 260.48,-267.04 252.68,-257.77 264.07,-249.12"/>
<polygon fill="#63b8ff" stroke="#63b8ff" points="318.9,-256.1 310.93,-249.12 312.81,-259.55 318.9,-256.1"/>
</a>
</g>
</g>
<!-- Node10&#45;&gt;Node2 -->
<g id="edge12_Node000010_Node000002" class="edge">
<title>Node10&#45;&gt;Node2</title>
<g id="a_edge12_Node000010_Node000002"><a xlink:title=" ">
<path fill="none" stroke="#63b8ff" d="M223.7,-562.49C201.9,-560.4 177.39,-558.04 155.31,-555.92"/>
<polygon fill="#63b8ff" stroke="#63b8ff" points="223.54,-566 233.83,-563.47 224.21,-559.03 223.54,-566"/>
</a>
</g>
</g>
<!-- Node10&#45;&gt;Node10 -->
<g id="edge13_Node000010_Node000010" class="edge">
<title>Node10&#45;&gt;Node10</title>
<g id="a_edge13_Node000010_Node000010"><a xlink:title=" ">
<path fill="none" stroke="#63b8ff" d="M315.87,-586.86C314.69,-592.05 305.23,-596.04 287.5,-596.04 260.48,-596.04 252.68,-586.77 264.07,-578.12"/>
<polygon fill="#63b8ff" stroke="#63b8ff" points="318.9,-585.1 310.93,-578.12 312.81,-588.55 318.9,-585.1"/>
</a>
</g>
</g>
<!-- Node11&#45;&gt;Node7 -->
<g id="edge15_Node000011_Node000007" class="edge">
<title>Node11&#45;&gt;Node7</title>
<g id="a_edge15_Node000011_Node000007"><a xlink:title=" ">
<path fill="none" stroke="#63b8ff" d="M201.85,-137.39C189.3,-136.19 176.44,-134.95 164.1,-133.76"/>
<polygon fill="#63b8ff" stroke="#63b8ff" points="201.54,-140.88 211.83,-138.35 202.21,-133.91 201.54,-140.88"/>
</a>
</g>
</g>
<!-- Node11&#45;&gt;Node11 -->
<g id="edge16_Node000011_Node000011" class="edge">
<title>Node11&#45;&gt;Node11</title>
<g id="a_edge16_Node000011_Node000011"><a xlink:title=" ">
<path fill="none" stroke="#63b8ff" d="M315.87,-163.86C314.69,-169.05 305.23,-173.04 287.5,-173.04 260.48,-173.04 252.68,-163.77 264.07,-155.12"/>
<polygon fill="#63b8ff" stroke="#63b8ff" points="318.9,-162.1 310.93,-155.12 312.81,-165.55 318.9,-162.1"/>
</a>
</g>
</g>
<!-- Node12&#45;&gt;Node8 -->
<g id="edge18_Node000012_Node000008" class="edge">
<title>Node12&#45;&gt;Node8</title>
<g id="a_edge18_Node000012_Node000008"><a xlink:title=" ">
<path fill="none" stroke="#63b8ff" d="M202.18,-43.42C189.33,-42.19 176.14,-40.92 163.52,-39.71"/>
<polygon fill="#63b8ff" stroke="#63b8ff" points="202.11,-46.93 212.4,-44.41 202.78,-39.97 202.11,-46.93"/>
</a>
</g>
</g>
<!-- Node12&#45;&gt;Node12 -->
<g id="edge19_Node000012_Node000012" class="edge">
<title>Node12&#45;&gt;Node12</title>
<g id="a_edge19_Node000012_Node000012"><a xlink:title=" ">
<path fill="none" stroke="#63b8ff" d="M315.87,-69.86C314.69,-75.05 305.23,-79.04 287.5,-79.04 260.48,-79.04 252.68,-69.77 264.07,-61.12"/>
<polygon fill="#63b8ff" stroke="#63b8ff" points="318.9,-68.1 310.93,-61.12 312.81,-71.55 318.9,-68.1"/>
</a>
</g>
</g>
<!-- Node13&#45;&gt;Node4 -->
<g id="edge21_Node000013_Node000004" class="edge">
<title>Node13&#45;&gt;Node4</title>
<g id="a_edge21_Node000013_Node000004"><a xlink:title=" ">
<path fill="none" stroke="#63b8ff" d="M211.52,-326.32C197.15,-324.94 182.07,-323.49 167.6,-322.1"/>
<polygon fill="#63b8ff" stroke="#63b8ff" points="211.54,-329.84 221.83,-327.32 212.21,-322.87 211.54,-329.84"/>
</a>
</g>
</g>
<!-- Node13&#45;&gt;Node13 -->
<g id="edge22_Node000013_Node000013" class="edge">
<title>Node13&#45;&gt;Node13</title>
<g id="a_edge22_Node000013_Node000013"><a xlink:title=" ">
<path fill="none" stroke="#63b8ff" d="M315.87,-351.86C314.69,-357.05 305.23,-361.04 287.5,-361.04 260.48,-361.04 252.68,-351.77 264.07,-343.12"/>
<polygon fill="#63b8ff" stroke="#63b8ff" points="318.9,-350.1 310.93,-343.12 312.81,-353.55 318.9,-350.1"/>
</a>
</g>
</g>
<!-- Node14&#45;&gt;Node3 -->
<g id="edge24_Node000014_Node000003" class="edge">
<title>Node14&#45;&gt;Node3</title>
<g id="a_edge24_Node000014_Node000003"><a xlink:title=" ">
<path fill="none" stroke="#63b8ff" d="M240.28,-400.7C205.22,-409.94 157.69,-422.45 125.33,-430.97"/>
<polygon fill="#63b8ff" stroke="#63b8ff" points="241.5,-404 250.28,-398.07 239.71,-397.24 241.5,-404"/>
</a>
</g>
</g>
<!-- Node14&#45;&gt;Node14 -->
<g id="edge25_Node000014_Node000014" class="edge">
<title>Node14&#45;&gt;Node14</title>
<g id="a_edge25_Node000014_Node000014"><a xlink:title=" ">
<path fill="none" stroke="#63b8ff" d="M315.87,-406.86C314.69,-412.05 305.23,-416.04 287.5,-416.04 260.48,-416.04 252.68,-406.77 264.07,-398.12"/>
<polygon fill="#63b8ff" stroke="#63b8ff" points="318.9,-405.1 310.93,-398.12 312.81,-408.55 318.9,-405.1"/>
</a>
</g>
</g>
</g>
</svg>
