<?xml version="1.0" encoding="UTF-8" standalone="no"?>
<!DOCTYPE svg PUBLIC "-//W3C//DTD SVG 1.1//EN"
 "http://www.w3.org/Graphics/SVG/1.1/DTD/svg11.dtd">
<!-- Generated by graphviz version 2.43.0 (0)
 -->
<!-- Title: wordSmartPlayer::minimax Pages: 1 -->
<svg width="345pt" height="51pt"
 viewBox="0.00 0.00 345.00 50.50" xmlns="http://www.w3.org/2000/svg" xmlns:xlink="http://www.w3.org/1999/xlink">
<g id="graph0" class="graph" transform="scale(1 1) rotate(0) translate(4 46.5)">
<title>wordSmartPlayer::minimax</title>
<!-- Node1 -->
<g id="Node000001" class="node">
<title>Node1</title>
<g id="a_Node000001"><a xlink:title=" ">
<polygon fill="#999999" stroke="#666666" points="337,-24.5 187,-24.5 187,-5.5 337,-5.5 337,-24.5"/>
<text text-anchor="middle" x="262" y="-12.5" font-family="Helvetica,sans-Serif" font-size="10.00">wordSmartPlayer::minimax</text>
</a>
</g>
</g>
<!-- Node1&#45;&gt;Node1 -->
<g id="edge2_Node000001_Node000001" class="edge">
<title>Node1&#45;&gt;Node1</title>
<g id="a_edge2_Node000001_Node000001"><a xlink:title=" ">
<path fill="none" stroke="#63b8ff" d="M296.86,-32.57C296.35,-38.12 284.73,-42.5 262,-42.5 228.94,-42.5 219.39,-33.23 233.33,-24.58"/>
<polygon fill="#63b8ff" stroke="#63b8ff" points="299.56,-30.34 290.67,-24.58 294.03,-34.63 299.56,-30.34"/>
</a>
</g>
</g>
<!-- Node2 -->
<g id="Node000002" class="node">
<title>Node2</title>
<g id="a_Node000002"><a xlink:href="classwordSmartPlayer.html#ab4791918e207984b9d8a7400b436a19b" target="_top" xlink:title=" ">
<polygon fill="white" stroke="#666666" points="151,-30 0,-30 0,0 151,0 151,-30"/>
<text text-anchor="start" x="8" y="-18" font-family="Helvetica,sans-Serif" font-size="10.00">wordSmartPlayer::calculate</text>
<text text-anchor="middle" x="75.5" y="-7" font-family="Helvetica,sans-Serif" font-size="10.00">Move2</text>
</a>
</g>
</g>
<!-- Node1&#45;&gt;Node2 -->
<g id="edge1_Node000001_Node000002" class="edge">
<title>Node1&#45;&gt;Node2</title>
<g id="a_edge1_Node000001_Node000002"><a xlink:title=" ">
<path fill="none" stroke="#63b8ff" d="M176.51,-15C168.07,-15 159.53,-15 151.19,-15"/>
<polygon fill="#63b8ff" stroke="#63b8ff" points="176.75,-18.5 186.75,-15 176.75,-11.5 176.75,-18.5"/>
</a>
</g>
</g>
</g>
</svg>
