<?xml version="1.0" encoding="UTF-8" standalone="no"?>
<!DOCTYPE svg PUBLIC "-//W3C//DTD SVG 1.1//EN"
 "http://www.w3.org/Graphics/SVG/1.1/DTD/svg11.dtd">
<!-- Generated by graphviz version 2.43.0 (0)
 -->
<!-- Title: AIPlayer::condition Pages: 1 -->
<svg width="429pt" height="56pt"
 viewBox="0.00 0.00 429.00 56.22" xmlns="http://www.w3.org/2000/svg" xmlns:xlink="http://www.w3.org/1999/xlink">
<g id="graph0" class="graph" transform="scale(1 1) rotate(0) translate(4 52.22)">
<title>AIPlayer::condition</title>
<!-- Node1 -->
<g id="Node000001" class="node">
<title>Node1</title>
<g id="a_Node000001"><a xlink:title="Check if a position is valid for making a move.">
<polygon fill="#999999" stroke="#666666" points="421,-47 313,-47 313,-28 421,-28 421,-47"/>
<text text-anchor="middle" x="367" y="-35" font-family="Helvetica,sans-Serif" font-size="10.00">AIPlayer::condition</text>
</a>
</g>
</g>
<!-- Node2 -->
<g id="Node000002" class="node">
<title>Node2</title>
<g id="a_Node000002"><a xlink:href="classAIPlayer.html#a962dc21adb2a91029e4d903e701c191a" target="_top" xlink:title="Calculate and return the best move using minimax algorithm.">
<polygon fill="white" stroke="#666666" points="134,-47 0,-47 0,-28 134,-28 134,-47"/>
<text text-anchor="middle" x="67" y="-35" font-family="Helvetica,sans-Serif" font-size="10.00">AIPlayer::calculateMove</text>
</a>
</g>
</g>
<!-- Node1&#45;&gt;Node2 -->
<g id="edge1_Node000001_Node000002" class="edge">
<title>Node1&#45;&gt;Node2</title>
<g id="a_edge1_Node000001_Node000002"><a xlink:title=" ">
<path fill="none" stroke="#63b8ff" d="M302.81,-44.68C294.15,-45.44 285.36,-46.08 277,-46.5 229.5,-48.9 217.51,-48.59 170,-46.5 158.37,-45.99 146.01,-45.15 134.06,-44.18"/>
<polygon fill="#63b8ff" stroke="#63b8ff" points="303.25,-48.16 312.89,-43.76 302.61,-41.19 303.25,-48.16"/>
</a>
</g>
</g>
<!-- Node3 -->
<g id="Node000003" class="node">
<title>Node3</title>
<g id="a_Node000003"><a xlink:href="classAIPlayer.html#a4c0c158048dc4b7fabb54dafc9fd0659" target="_top" xlink:title="Minimax algorithm with alpha&#45;beta pruning.">
<polygon fill="white" stroke="#666666" points="277,-19 170,-19 170,0 277,0 277,-19"/>
<text text-anchor="middle" x="223.5" y="-7" font-family="Helvetica,sans-Serif" font-size="10.00">AIPlayer::minimax</text>
</a>
</g>
</g>
<!-- Node1&#45;&gt;Node3 -->
<g id="edge2_Node000001_Node000003" class="edge">
<title>Node1&#45;&gt;Node3</title>
<g id="a_edge2_Node000001_Node000003"><a xlink:title=" ">
<path fill="none" stroke="#63b8ff" d="M307.61,-25.95C295.96,-23.64 283.84,-21.24 272.58,-19.01"/>
<polygon fill="#63b8ff" stroke="#63b8ff" points="307.21,-29.43 317.7,-27.94 308.57,-22.57 307.21,-29.43"/>
</a>
</g>
</g>
<!-- Node3&#45;&gt;Node2 -->
<g id="edge3_Node000003_Node000002" class="edge">
<title>Node3&#45;&gt;Node2</title>
<g id="a_edge3_Node000003_Node000002"><a xlink:title=" ">
<path fill="none" stroke="#63b8ff" d="M159.9,-20.84C146.82,-23.21 133.17,-25.69 120.5,-27.99"/>
<polygon fill="#63b8ff" stroke="#63b8ff" points="160.55,-24.28 169.76,-19.06 159.3,-17.4 160.55,-24.28"/>
</a>
</g>
</g>
<!-- Node3&#45;&gt;Node3 -->
<g id="edge4_Node000003_Node000003" class="edge">
<title>Node3&#45;&gt;Node3</title>
<g id="a_edge4_Node000003_Node000003"><a xlink:title=" ">
<path fill="none" stroke="#63b8ff" d="M249.91,-28.19C248.47,-33.2 239.67,-37 223.5,-37 198.26,-37 190.97,-27.73 201.61,-19.08"/>
<polygon fill="#63b8ff" stroke="#63b8ff" points="252.97,-26.48 245.39,-19.08 246.7,-29.6 252.97,-26.48"/>
</a>
</g>
</g>
</g>
</svg>
