<?xml version="1.0" encoding="UTF-8" standalone="no"?>
<!DOCTYPE svg PUBLIC "-//W3C//DTD SVG 1.1//EN"
 "http://www.w3.org/Graphics/SVG/1.1/DTD/svg11.dtd">
<!-- Generated by graphviz version 2.43.0 (0)
 -->
<!-- Title: Pyramid_XO_Board::is_draw Pages: 1 -->
<svg width="489pt" height="27pt"
 viewBox="0.00 0.00 489.00 27.00" xmlns="http://www.w3.org/2000/svg" xmlns:xlink="http://www.w3.org/1999/xlink">
<g id="graph0" class="graph" transform="scale(1 1) rotate(0) translate(4 23)">
<title>Pyramid_XO_Board::is_draw</title>
<!-- Node1 -->
<g id="Node000001" class="node">
<title>Node1</title>
<g id="a_Node000001"><a xlink:title="Checks if the game has ended in a draw.">
<polygon fill="#999999" stroke="#666666" points="153,-19 0,-19 0,0 153,0 153,-19"/>
<text text-anchor="middle" x="76.5" y="-7" font-family="Helvetica,sans-Serif" font-size="10.00">Pyramid_XO_Board::is_draw</text>
</a>
</g>
</g>
<!-- Node2 -->
<g id="Node000002" class="node">
<title>Node2</title>
<g id="a_Node000002"><a xlink:href="classPyramid__XO__Board.html#a757067ee52a8f5b1cf1b6777b6c7b331" target="_top" xlink:title="Checks if the given player has won the game.">
<polygon fill="white" stroke="#666666" points="335,-19 189,-19 189,0 335,0 335,-19"/>
<text text-anchor="middle" x="262" y="-7" font-family="Helvetica,sans-Serif" font-size="10.00">Pyramid_XO_Board::is_win</text>
</a>
</g>
</g>
<!-- Node1&#45;&gt;Node2 -->
<g id="edge1_Node000001_Node000002" class="edge">
<title>Node1&#45;&gt;Node2</title>
<g id="a_edge1_Node000001_Node000002"><a xlink:title=" ">
<path fill="none" stroke="#63b8ff" d="M153.2,-9.5C161.55,-9.5 170.08,-9.5 178.51,-9.5"/>
<polygon fill="#63b8ff" stroke="#63b8ff" points="178.72,-13 188.72,-9.5 178.72,-6 178.72,-13"/>
</a>
</g>
</g>
<!-- Node3 -->
<g id="Node000003" class="node">
<title>Node3</title>
<g id="a_Node000003"><a xlink:href="classPlayer.html#af56f0bf98c0423a3a75b0848607d03a4" target="_top" xlink:title="Get the player&#39;s symbol.">
<polygon fill="white" stroke="#666666" points="481,-19 371,-19 371,0 481,0 481,-19"/>
<text text-anchor="middle" x="426" y="-7" font-family="Helvetica,sans-Serif" font-size="10.00">Player::get_symbol</text>
</a>
</g>
</g>
<!-- Node2&#45;&gt;Node3 -->
<g id="edge2_Node000002_Node000003" class="edge">
<title>Node2&#45;&gt;Node3</title>
<g id="a_edge2_Node000002_Node000003"><a xlink:title=" ">
<path fill="none" stroke="#63b8ff" d="M335.47,-9.5C343.76,-9.5 352.18,-9.5 360.36,-9.5"/>
<polygon fill="#63b8ff" stroke="#63b8ff" points="360.57,-13 370.57,-9.5 360.57,-6 360.57,-13"/>
</a>
</g>
</g>
</g>
</svg>
