<?xml version="1.0" encoding="UTF-8" standalone="no"?>
<!DOCTYPE svg PUBLIC "-//W3C//DTD SVG 1.1//EN"
 "http://www.w3.org/Graphics/SVG/1.1/DTD/svg11.dtd">
<!-- Generated by graphviz version 2.43.0 (0)
 -->
<!-- Title: Ultimate_XO_UI::setup_players Pages: 1 -->
<svg width="302pt" height="86pt"
 viewBox="0.00 0.00 302.00 86.00" xmlns="http://www.w3.org/2000/svg" xmlns:xlink="http://www.w3.org/1999/xlink">
<g id="graph0" class="graph" transform="scale(1 1) rotate(0) translate(4 82)">
<title>Ultimate_XO_UI::setup_players</title>
<!-- Node1 -->
<g id="Node000001" class="node">
<title>Node1</title>
<g id="a_Node000001"><a xlink:title="Set up players for the game.">
<polygon fill="#999999" stroke="#666666" points="127,-54 0,-54 0,-24 127,-24 127,-54"/>
<text text-anchor="start" x="8" y="-42" font-family="Helvetica,sans-Serif" font-size="10.00">Ultimate_XO_UI::setup</text>
<text text-anchor="middle" x="63.5" y="-31" font-family="Helvetica,sans-Serif" font-size="10.00">_players</text>
</a>
</g>
</g>
<!-- Node2 -->
<g id="Node000002" class="node">
<title>Node2</title>
<g id="a_Node000002"><a xlink:href="classUltimate__XO__UI.html#a1daf6c6533d68c8b2dfd78fcda2f28d5" target="_top" xlink:title="Creates a player of the specified type.">
<polygon fill="white" stroke="#666666" points="294,-78 163,-78 163,-48 294,-48 294,-78"/>
<text text-anchor="start" x="171" y="-66" font-family="Helvetica,sans-Serif" font-size="10.00">Ultimate_XO_UI::create</text>
<text text-anchor="middle" x="228.5" y="-55" font-family="Helvetica,sans-Serif" font-size="10.00">_player</text>
</a>
</g>
</g>
<!-- Node1&#45;&gt;Node2 -->
<g id="edge1_Node000001_Node000002" class="edge">
<title>Node1&#45;&gt;Node2</title>
<g id="a_edge1_Node000001_Node000002"><a xlink:title=" ">
<path fill="none" stroke="#63b8ff" d="M127.05,-48.21C135.51,-49.46 144.25,-50.74 152.89,-52.01"/>
<polygon fill="#63b8ff" stroke="#63b8ff" points="152.55,-55.5 162.95,-53.5 153.57,-48.58 152.55,-55.5"/>
</a>
</g>
</g>
<!-- Node3 -->
<g id="Node000003" class="node">
<title>Node3</title>
<g id="a_Node000003"><a xlink:href="classUI.html#ac3d45fea2bbcaa0372d8e5101e116ca1" target="_top" xlink:title="Ask the user to choose the player type from a list.">
<polygon fill="white" stroke="#666666" points="292.5,-30 164.5,-30 164.5,0 292.5,0 292.5,-30"/>
<text text-anchor="start" x="172.5" y="-18" font-family="Helvetica,sans-Serif" font-size="10.00">UI&lt; char &gt;::get_player</text>
<text text-anchor="middle" x="228.5" y="-7" font-family="Helvetica,sans-Serif" font-size="10.00">_type_choice</text>
</a>
</g>
</g>
<!-- Node1&#45;&gt;Node3 -->
<g id="edge2_Node000001_Node000003" class="edge">
<title>Node1&#45;&gt;Node3</title>
<g id="a_edge2_Node000001_Node000003"><a xlink:title=" ">
<path fill="none" stroke="#63b8ff" d="M127.05,-29.79C135.93,-28.48 145.11,-27.13 154.17,-25.8"/>
<polygon fill="#63b8ff" stroke="#63b8ff" points="154.92,-29.22 164.3,-24.3 153.9,-22.3 154.92,-29.22"/>
</a>
</g>
</g>
</g>
</svg>
