<?xml version="1.0" encoding="UTF-8" standalone="no"?>
<!DOCTYPE svg PUBLIC "-//W3C//DTD SVG 1.1//EN"
 "http://www.w3.org/Graphics/SVG/1.1/DTD/svg11.dtd">
<!-- Generated by graphviz version 2.43.0 (0)
 -->
<!-- Title: FourFourAIPlayer::minimax Pages: 1 -->
<svg width="500pt" height="210pt"
 viewBox="0.00 0.00 500.00 209.50" xmlns="http://www.w3.org/2000/svg" xmlns:xlink="http://www.w3.org/1999/xlink">
<g id="graph0" class="graph" transform="scale(1 1) rotate(0) translate(4 205.5)">
<title>FourFourAIPlayer::minimax</title>
<!-- Node1 -->
<g id="Node000001" class="node">
<title>Node1</title>
<g id="a_Node000001"><a xlink:title="Override minimax to handle opponent pieces correctly.">
<polygon fill="#999999" stroke="#666666" points="149,-100 0,-100 0,-81 149,-81 149,-100"/>
<text text-anchor="middle" x="74.5" y="-88" font-family="Helvetica,sans-Serif" font-size="10.00">FourFourAIPlayer::minimax</text>
</a>
</g>
</g>
<!-- Node1&#45;&gt;Node1 -->
<g id="edge6_Node000001_Node000001" class="edge">
<title>Node1&#45;&gt;Node1</title>
<g id="a_edge6_Node000001_Node000001"><a xlink:title=" ">
<path fill="none" stroke="#63b8ff" d="M46.14,-100.08C32.34,-108.73 41.8,-118 74.5,-118 96.98,-118 108.48,-113.62 108.98,-108.07"/>
<polygon fill="#63b8ff" stroke="#63b8ff" points="111.72,-105.89 102.86,-100.08 106.16,-110.15 111.72,-105.89"/>
</a>
</g>
</g>
<!-- Node2 -->
<g id="Node000002" class="node">
<title>Node2</title>
<g id="a_Node000002"><a xlink:href="classFourFourAIPlayer.html#a3485e13e60dbd5ec0e28dfbcab943159" target="_top" xlink:title="Check if position has a piece belonging to a specific symbol.">
<polygon fill="white" stroke="#666666" points="335,-201.5 185,-201.5 185,-171.5 335,-171.5 335,-201.5"/>
<text text-anchor="start" x="193" y="-189.5" font-family="Helvetica,sans-Serif" font-size="10.00">FourFourAIPlayer::condition</text>
<text text-anchor="middle" x="260" y="-178.5" font-family="Helvetica,sans-Serif" font-size="10.00">_for_symbol</text>
</a>
</g>
</g>
<!-- Node1&#45;&gt;Node2 -->
<g id="edge1_Node000001_Node000002" class="edge">
<title>Node1&#45;&gt;Node2</title>
<g id="a_edge1_Node000001_Node000002"><a xlink:title=" ">
<path fill="none" stroke="#63b8ff" d="M87.66,-100.08C107.2,-115.11 147.26,-144.38 185,-162.5 188.84,-164.34 192.85,-166.09 196.93,-167.75"/>
<polygon fill="#63b8ff" stroke="#63b8ff" points="195.97,-171.13 206.56,-171.44 198.47,-164.59 195.97,-171.13"/>
</a>
</g>
</g>
<!-- Node4 -->
<g id="Node000004" class="node">
<title>Node4</title>
<g id="a_Node000004"><a xlink:href="classFourFourAIPlayer.html#a626a29524a02b6b57e18b54303d4c570" target="_top" xlink:title="Helper to create undo move for any symbol.">
<polygon fill="white" stroke="#666666" points="328,-153.5 192,-153.5 192,-123.5 328,-123.5 328,-153.5"/>
<text text-anchor="start" x="200" y="-141.5" font-family="Helvetica,sans-Serif" font-size="10.00">FourFourAIPlayer::create</text>
<text text-anchor="middle" x="260" y="-130.5" font-family="Helvetica,sans-Serif" font-size="10.00">UndoMoveForSymbol</text>
</a>
</g>
</g>
<!-- Node1&#45;&gt;Node4 -->
<g id="edge3_Node000001_Node000004" class="edge">
<title>Node1&#45;&gt;Node4</title>
<g id="a_edge3_Node000001_Node000004"><a xlink:title=" ">
<path fill="none" stroke="#63b8ff" d="M112.19,-100.1C134.92,-106.04 164.8,-113.86 191.67,-120.89"/>
<polygon fill="#63b8ff" stroke="#63b8ff" points="190.86,-124.29 201.42,-123.44 192.63,-117.52 190.86,-124.29"/>
</a>
</g>
</g>
<!-- Node5 -->
<g id="Node000005" class="node">
<title>Node5</title>
<g id="a_Node000005"><a xlink:href="classFourFourAIPlayer.html#a3586ff3a70afa4f0aaf2309764d6a453" target="_top" xlink:title="Evaluate board position with heuristic.">
<polygon fill="white" stroke="#666666" points="334,-105.5 186,-105.5 186,-75.5 334,-75.5 334,-105.5"/>
<text text-anchor="start" x="194" y="-93.5" font-family="Helvetica,sans-Serif" font-size="10.00">FourFourAIPlayer::evaluate</text>
<text text-anchor="middle" x="260" y="-82.5" font-family="Helvetica,sans-Serif" font-size="10.00">_board</text>
</a>
</g>
</g>
<!-- Node1&#45;&gt;Node5 -->
<g id="edge4_Node000001_Node000005" class="edge">
<title>Node1&#45;&gt;Node5</title>
<g id="a_edge4_Node000001_Node000005"><a xlink:title=" ">
<path fill="none" stroke="#63b8ff" d="M149.08,-90.5C157.75,-90.5 166.65,-90.5 175.44,-90.5"/>
<polygon fill="#63b8ff" stroke="#63b8ff" points="175.7,-94 185.7,-90.5 175.7,-87 175.7,-94"/>
</a>
</g>
</g>
<!-- Node6 -->
<g id="Node000006" class="node">
<title>Node6</title>
<g id="a_Node000006"><a xlink:href="classPlayer.html#a3617a3ad0db435176a06948065f9a3a6" target="_top" xlink:title="Assign the board pointer for the player.">
<polygon fill="white" stroke="#666666" points="491.5,-79 371.5,-79 371.5,-60 491.5,-60 491.5,-79"/>
<text text-anchor="middle" x="431.5" y="-67" font-family="Helvetica,sans-Serif" font-size="10.00">Player::set_board_ptr</text>
</a>
</g>
</g>
<!-- Node1&#45;&gt;Node6 -->
<g id="edge8_Node000001_Node000006" class="edge">
<title>Node1&#45;&gt;Node6</title>
<g id="a_edge8_Node000001_Node000006"><a xlink:title=" ">
<path fill="none" stroke="#63b8ff" d="M110.2,-80.89C131.57,-75.47 159.65,-69.25 185,-66.5 251.28,-59.32 268.34,-65.45 335,-66.5 343.46,-66.63 352.35,-66.83 361.15,-67.07"/>
<polygon fill="#63b8ff" stroke="#63b8ff" points="361.32,-70.57 371.41,-67.35 361.51,-63.57 361.32,-70.57"/>
</a>
</g>
</g>
<!-- Node7 -->
<g id="Node000007" class="node">
<title>Node7</title>
<g id="a_Node000007"><a xlink:href="classPlayer.html#adb4e803a7ac0356b111b8ca79d766976" target="_top" xlink:title="Construct a player with name, symbol, and type.">
<polygon fill="white" stroke="#666666" points="302,-19 218,-19 218,0 302,0 302,-19"/>
<text text-anchor="middle" x="260" y="-7" font-family="Helvetica,sans-Serif" font-size="10.00">Player::Player</text>
</a>
</g>
</g>
<!-- Node1&#45;&gt;Node7 -->
<g id="edge7_Node000001_Node000007" class="edge">
<title>Node1&#45;&gt;Node7</title>
<g id="a_edge7_Node000001_Node000007"><a xlink:title=" ">
<path fill="none" stroke="#63b8ff" d="M91.78,-80.93C112.82,-68.82 150.8,-47.83 185,-33.5 194.82,-29.39 205.6,-25.53 215.83,-22.16"/>
<polygon fill="#63b8ff" stroke="#63b8ff" points="216.96,-25.48 225.42,-19.09 214.83,-18.81 216.96,-25.48"/>
</a>
</g>
</g>
<!-- Node3 -->
<g id="Node000003" class="node">
<title>Node3</title>
<g id="a_Node000003"><a xlink:href="classPlayer.html#a508617eddfae8915d098102d480fc888" target="_top" xlink:title="Get a pointer to the game board.">
<polygon fill="white" stroke="#666666" points="492,-196 371,-196 371,-177 492,-177 492,-196"/>
<text text-anchor="middle" x="431.5" y="-184" font-family="Helvetica,sans-Serif" font-size="10.00">Player::get_board_ptr</text>
</a>
</g>
</g>
<!-- Node2&#45;&gt;Node3 -->
<g id="edge2_Node000002_Node000003" class="edge">
<title>Node2&#45;&gt;Node3</title>
<g id="a_edge2_Node000002_Node000003"><a xlink:title=" ">
<path fill="none" stroke="#63b8ff" d="M335.35,-186.5C343.82,-186.5 352.43,-186.5 360.84,-186.5"/>
<polygon fill="#63b8ff" stroke="#63b8ff" points="360.98,-190 370.98,-186.5 360.98,-183 360.98,-190"/>
</a>
</g>
</g>
<!-- Node5&#45;&gt;Node6 -->
<g id="edge5_Node000005_Node000006" class="edge">
<title>Node5&#45;&gt;Node6</title>
<g id="a_edge5_Node000005_Node000006"><a xlink:title=" ">
<path fill="none" stroke="#63b8ff" d="M334.36,-81.41C343.33,-80.3 352.47,-79.17 361.38,-78.06"/>
<polygon fill="#63b8ff" stroke="#63b8ff" points="361.82,-81.54 371.31,-76.83 360.96,-74.59 361.82,-81.54"/>
</a>
</g>
</g>
</g>
</svg>
