<?xml version="1.0" encoding="UTF-8" standalone="no"?>
<!DOCTYPE svg PUBLIC "-//W3C//DTD SVG 1.1//EN"
 "http://www.w3.org/Graphics/SVG/1.1/DTD/svg11.dtd">
<!-- Generated by graphviz version 2.43.0 (0)
 -->
<!-- Title: SUS_Board::is_win Pages: 1 -->
<svg width="444pt" height="46pt"
 viewBox="0.00 0.00 444.00 46.00" xmlns="http://www.w3.org/2000/svg" xmlns:xlink="http://www.w3.org/1999/xlink">
<g id="graph0" class="graph" transform="scale(1 1) rotate(0) translate(4 42)">
<title>SUS_Board::is_win</title>
<!-- Node1 -->
<g id="Node000001" class="node">
<title>Node1</title>
<g id="a_Node000001"><a xlink:title="Checks if the given player has won the game.">
<polygon fill="#999999" stroke="#666666" points="436,-38 329,-38 329,-19 436,-19 436,-38"/>
<text text-anchor="middle" x="382.5" y="-26" font-family="Helvetica,sans-Serif" font-size="10.00">SUS_Board::is_win</text>
</a>
</g>
</g>
<!-- Node2 -->
<g id="Node000002" class="node">
<title>Node2</title>
<g id="a_Node000002"><a xlink:href="classSUS__Board.html#a1402f8069947c57d4b65f50248e699b2" target="_top" xlink:title="Determines if the game is over (win or draw).">
<polygon fill="white" stroke="#666666" points="144,-38 0,-38 0,-19 144,-19 144,-38"/>
<text text-anchor="middle" x="72" y="-26" font-family="Helvetica,sans-Serif" font-size="10.00">SUS_Board::game_is_over</text>
</a>
</g>
</g>
<!-- Node1&#45;&gt;Node2 -->
<g id="edge1_Node000001_Node000002" class="edge">
<title>Node1&#45;&gt;Node2</title>
<g id="a_edge1_Node000001_Node000002"><a xlink:title=" ">
<path fill="none" stroke="#63b8ff" d="M318.67,-28.5C268.08,-28.5 196.97,-28.5 144.26,-28.5"/>
<polygon fill="#63b8ff" stroke="#63b8ff" points="318.82,-32 328.82,-28.5 318.82,-25 318.82,-32"/>
</a>
</g>
</g>
<!-- Node3 -->
<g id="Node000003" class="node">
<title>Node3</title>
<g id="a_Node000003"><a xlink:href="classSUS__Board.html#a006d0b395a8912ceb0335b95cc69de49" target="_top" xlink:title="Checks if the game has ended in a draw.">
<polygon fill="white" stroke="#666666" points="293,-19 180,-19 180,0 293,0 293,-19"/>
<text text-anchor="middle" x="236.5" y="-7" font-family="Helvetica,sans-Serif" font-size="10.00">SUS_Board::is_draw</text>
</a>
</g>
</g>
<!-- Node1&#45;&gt;Node3 -->
<g id="edge2_Node000001_Node000003" class="edge">
<title>Node1&#45;&gt;Node3</title>
<g id="a_edge2_Node000001_Node000003"><a xlink:title=" ">
<path fill="none" stroke="#63b8ff" d="M318.53,-20.19C310.1,-19.08 301.5,-17.94 293.2,-16.85"/>
<polygon fill="#63b8ff" stroke="#63b8ff" points="318.33,-23.69 328.7,-21.53 319.24,-16.75 318.33,-23.69"/>
</a>
</g>
</g>
<!-- Node3&#45;&gt;Node2 -->
<g id="edge3_Node000003_Node000002" class="edge">
<title>Node3&#45;&gt;Node2</title>
<g id="a_edge3_Node000003_Node000002"><a xlink:title=" ">
<path fill="none" stroke="#63b8ff" d="M169.54,-17.21C161.21,-18.19 152.65,-19.19 144.24,-20.17"/>
<polygon fill="#63b8ff" stroke="#63b8ff" points="170.05,-20.68 179.58,-16.04 169.24,-13.72 170.05,-20.68"/>
</a>
</g>
</g>
</g>
</svg>
