<?xml version="1.0" encoding="UTF-8" standalone="no"?>
<!DOCTYPE svg PUBLIC "-//W3C//DTD SVG 1.1//EN"
 "http://www.w3.org/Graphics/SVG/1.1/DTD/svg11.dtd">
<!-- Generated by graphviz version 2.43.0 (0)
 -->
<!-- Title: Player::get_type Pages: 1 -->
<svg width="297pt" height="469pt"
 viewBox="0.00 0.00 297.00 468.50" xmlns="http://www.w3.org/2000/svg" xmlns:xlink="http://www.w3.org/1999/xlink">
<g id="graph0" class="graph" transform="scale(1 1) rotate(0) translate(4 464.5)">
<title>Player::get_type</title>
<!-- Node1 -->
<g id="Node000001" class="node">
<title>Node1</title>
<g id="a_Node000001"><a xlink:title="Get player type (e.g., &#39;H&#39; or &#39;C&#39;).">
<polygon fill="#999999" stroke="#666666" points="289,-222 193,-222 193,-203 289,-203 289,-222"/>
<text text-anchor="middle" x="241" y="-210" font-family="Helvetica,sans-Serif" font-size="10.00">Player::get_type</text>
</a>
</g>
</g>
<!-- Node2 -->
<g id="Node000002" class="node">
<title>Node2</title>
<g id="a_Node000002"><a xlink:href="classDiamond__Tic__Tac__Toe__UI.html#a02d44e878b59b3433f9a9a5ee7b70372" target="_top" xlink:title="Retrieves the next move from a player.">
<polygon fill="white" stroke="#666666" points="140,-460.5 17,-460.5 17,-430.5 140,-430.5 140,-460.5"/>
<text text-anchor="start" x="25" y="-448.5" font-family="Helvetica,sans-Serif" font-size="10.00">Diamond_Tic_Tac_Toe</text>
<text text-anchor="middle" x="78.5" y="-437.5" font-family="Helvetica,sans-Serif" font-size="10.00">_UI::get_move</text>
</a>
</g>
</g>
<!-- Node1&#45;&gt;Node2 -->
<g id="edge1_Node000001_Node000002" class="edge">
<title>Node1&#45;&gt;Node2</title>
<g id="a_edge1_Node000001_Node000002"><a xlink:title=" ">
<path fill="none" stroke="#63b8ff" d="M237.84,-232.09C232.26,-273.23 213.58,-369.15 157,-421.5 152.04,-426.09 146.21,-429.8 140.02,-432.81"/>
<polygon fill="#63b8ff" stroke="#63b8ff" points="241.33,-232.37 239.09,-222.02 234.38,-231.51 241.33,-232.37"/>
</a>
</g>
</g>
<!-- Node3 -->
<g id="Node000003" class="node">
<title>Node3</title>
<g id="a_Node000003"><a xlink:href="classFour__in__a__row__UI.html#ae1c2682677ba6efbd4566b0c9ecf5532" target="_top" xlink:title="Retrieves the next move from a player.">
<polygon fill="white" stroke="#666666" points="157,-412 0,-412 0,-393 157,-393 157,-412"/>
<text text-anchor="middle" x="78.5" y="-400" font-family="Helvetica,sans-Serif" font-size="10.00">Four_in_a_row_UI::get_move</text>
</a>
</g>
</g>
<!-- Node1&#45;&gt;Node3 -->
<g id="edge2_Node000001_Node000003" class="edge">
<title>Node1&#45;&gt;Node3</title>
<g id="a_edge2_Node000001_Node000003"><a xlink:title=" ">
<path fill="none" stroke="#63b8ff" d="M236.27,-232.32C228.38,-268.43 206.53,-344.88 157,-384.5 152.79,-387.87 148.07,-390.62 143.08,-392.88"/>
<polygon fill="#63b8ff" stroke="#63b8ff" points="239.78,-232.6 238.35,-222.11 232.92,-231.2 239.78,-232.6"/>
</a>
</g>
</g>
<!-- Node4 -->
<g id="Node000004" class="node">
<title>Node4</title>
<g id="a_Node000004"><a xlink:href="classInfinit__XO__UI.html#a01e2ad782bacda8c2f7cff214617b54c" target="_top" xlink:title="Retrieves the next move from a player.">
<polygon fill="white" stroke="#666666" points="145.5,-375 11.5,-375 11.5,-356 145.5,-356 145.5,-375"/>
<text text-anchor="middle" x="78.5" y="-363" font-family="Helvetica,sans-Serif" font-size="10.00">Infinit_XO_UI::get_move</text>
</a>
</g>
</g>
<!-- Node1&#45;&gt;Node4 -->
<g id="edge3_Node000001_Node000004" class="edge">
<title>Node1&#45;&gt;Node4</title>
<g id="a_edge3_Node000001_Node000004"><a xlink:title=" ">
<path fill="none" stroke="#63b8ff" d="M233.57,-231.57C222.65,-260.95 197.62,-316.99 157,-346.5 151.62,-350.41 145.53,-353.52 139.19,-355.99"/>
<polygon fill="#63b8ff" stroke="#63b8ff" points="236.9,-232.64 236.96,-222.05 230.31,-230.29 236.9,-232.64"/>
</a>
</g>
</g>
<!-- Node5 -->
<g id="Node000005" class="node">
<title>Node5</title>
<g id="a_Node000005"><a xlink:href="classMEMORY__TIC__TAC__TOE__UI.html#a250a43990310d27ea3eaaca58300b4ab" target="_top" xlink:title="Retrieves the next move from a player.">
<polygon fill="white" stroke="#666666" points="143.5,-337.5 13.5,-337.5 13.5,-307.5 143.5,-307.5 143.5,-337.5"/>
<text text-anchor="start" x="21.5" y="-325.5" font-family="Helvetica,sans-Serif" font-size="10.00">MEMORY_TIC_TAC_TOE</text>
<text text-anchor="middle" x="78.5" y="-314.5" font-family="Helvetica,sans-Serif" font-size="10.00">_UI::get_move</text>
</a>
</g>
</g>
<!-- Node1&#45;&gt;Node5 -->
<g id="edge4_Node000001_Node000005" class="edge">
<title>Node1&#45;&gt;Node5</title>
<g id="a_edge4_Node000001_Node000005"><a xlink:title=" ">
<path fill="none" stroke="#63b8ff" d="M227.25,-230.31C212.45,-249.74 186.29,-280.47 157,-298.5 151.48,-301.9 145.45,-304.85 139.25,-307.4"/>
<polygon fill="#63b8ff" stroke="#63b8ff" points="230.25,-232.14 233.39,-222.02 224.62,-227.97 230.25,-232.14"/>
</a>
</g>
</g>
<!-- Node6 -->
<g id="Node000006" class="node">
<title>Node6</title>
<g id="a_Node000006"><a xlink:href="classMisere__Tic__Tac__Toe__UI.html#a13c2f356fe79f87ed9bce9ca4efadb68" target="_top" xlink:title="Retrieves the next move from a player.">
<polygon fill="white" stroke="#666666" points="134.5,-289.5 22.5,-289.5 22.5,-259.5 134.5,-259.5 134.5,-289.5"/>
<text text-anchor="start" x="30.5" y="-277.5" font-family="Helvetica,sans-Serif" font-size="10.00">Misere_Tic_Tac_Toe</text>
<text text-anchor="middle" x="78.5" y="-266.5" font-family="Helvetica,sans-Serif" font-size="10.00">_UI::get_move</text>
</a>
</g>
</g>
<!-- Node1&#45;&gt;Node6 -->
<g id="edge5_Node000001_Node000006" class="edge">
<title>Node1&#45;&gt;Node6</title>
<g id="a_edge5_Node000001_Node000006"><a xlink:title=" ">
<path fill="none" stroke="#63b8ff" d="M211.6,-226.61C195.74,-234.2 175.51,-243.43 157,-250.5 148.84,-253.62 140.09,-256.63 131.51,-259.41"/>
<polygon fill="#63b8ff" stroke="#63b8ff" points="213.37,-229.63 220.85,-222.12 210.32,-223.34 213.37,-229.63"/>
</a>
</g>
</g>
<!-- Node7 -->
<g id="Node000007" class="node">
<title>Node7</title>
<g id="a_Node000007"><a xlink:href="classNumerical__XO__UI.html#af6296ae59c604456f531f4e996e99467" target="_top" xlink:title="Ask the user (or AI) to make a move.">
<polygon fill="white" stroke="#666666" points="156.5,-241 0.5,-241 0.5,-222 156.5,-222 156.5,-241"/>
<text text-anchor="middle" x="78.5" y="-229" font-family="Helvetica,sans-Serif" font-size="10.00">Numerical_XO_UI::get_move</text>
</a>
</g>
</g>
<!-- Node1&#45;&gt;Node7 -->
<g id="edge6_Node000001_Node000007" class="edge">
<title>Node1&#45;&gt;Node7</title>
<g id="a_edge6_Node000001_Node000007"><a xlink:title=" ">
<path fill="none" stroke="#63b8ff" d="M182.61,-219.29C174.15,-220.29 165.33,-221.34 156.55,-222.38"/>
<polygon fill="#63b8ff" stroke="#63b8ff" points="183.19,-222.75 192.71,-218.1 182.37,-215.8 183.19,-222.75"/>
</a>
</g>
</g>
<!-- Node8 -->
<g id="Node000008" class="node">
<title>Node8</title>
<g id="a_Node000008"><a xlink:href="classObstacles__XO__UI.html#af38dd50ff53dd04ff3fc3cf11bbbae9a" target="_top" xlink:title="Retrieves the next move from a player.">
<polygon fill="white" stroke="#666666" points="155.5,-204 1.5,-204 1.5,-185 155.5,-185 155.5,-204"/>
<text text-anchor="middle" x="78.5" y="-192" font-family="Helvetica,sans-Serif" font-size="10.00">Obstacles_XO_UI::get_move</text>
</a>
</g>
</g>
<!-- Node1&#45;&gt;Node8 -->
<g id="edge7_Node000001_Node000008" class="edge">
<title>Node1&#45;&gt;Node8</title>
<g id="a_edge7_Node000001_Node000008"><a xlink:title=" ">
<path fill="none" stroke="#63b8ff" d="M182.64,-206.07C173.89,-205.09 164.73,-204.06 155.65,-203.04"/>
<polygon fill="#63b8ff" stroke="#63b8ff" points="182.38,-209.56 192.71,-207.2 183.17,-202.6 182.38,-209.56"/>
</a>
</g>
</g>
<!-- Node9 -->
<g id="Node000009" class="node">
<title>Node9</title>
<g id="a_Node000009"><a xlink:href="classPyramid__XO__UI.html#a9447abc21ff1b8baa5ac1d91d84b567e" target="_top" xlink:title="Retrieves the next move from a player.">
<polygon fill="white" stroke="#666666" points="151.5,-167 5.5,-167 5.5,-148 151.5,-148 151.5,-167"/>
<text text-anchor="middle" x="78.5" y="-155" font-family="Helvetica,sans-Serif" font-size="10.00">Pyramid_XO_UI::get_move</text>
</a>
</g>
</g>
<!-- Node1&#45;&gt;Node9 -->
<g id="edge8_Node000001_Node000009" class="edge">
<title>Node1&#45;&gt;Node9</title>
<g id="a_edge8_Node000001_Node000009"><a xlink:title=" ">
<path fill="none" stroke="#63b8ff" d="M211.36,-198.65C195.58,-191.39 175.49,-182.73 157,-176.5 146.5,-172.96 134.99,-169.78 124.13,-167.08"/>
<polygon fill="#63b8ff" stroke="#63b8ff" points="210.04,-201.9 220.58,-202.96 213,-195.56 210.04,-201.9"/>
</a>
</g>
</g>
<!-- Node10 -->
<g id="Node000010" class="node">
<title>Node10</title>
<g id="a_Node000010"><a xlink:href="classSUS__UI.html#a621a4bfadf8d79f2b2b66f2241c310c3" target="_top" xlink:title="Retrieves the next move from a player.">
<polygon fill="white" stroke="#666666" points="132,-130 25,-130 25,-111 132,-111 132,-130"/>
<text text-anchor="middle" x="78.5" y="-118" font-family="Helvetica,sans-Serif" font-size="10.00">SUS_UI::get_move</text>
</a>
</g>
</g>
<!-- Node1&#45;&gt;Node10 -->
<g id="edge9_Node000001_Node000010" class="edge">
<title>Node1&#45;&gt;Node10</title>
<g id="a_edge9_Node000001_Node000010"><a xlink:title=" ">
<path fill="none" stroke="#63b8ff" d="M225.18,-195.35C209.79,-178.62 184.2,-153.69 157,-139.5 149.26,-135.46 140.64,-132.26 132.04,-129.73"/>
<polygon fill="#63b8ff" stroke="#63b8ff" points="222.59,-197.71 231.87,-202.81 227.8,-193.03 222.59,-197.71"/>
</a>
</g>
</g>
<!-- Node11 -->
<g id="Node000011" class="node">
<title>Node11</title>
<g id="a_Node000011"><a xlink:href="classUltimate__XO__UI.html#af23c123c7d50d44645ed7f61c4fdac85" target="_top" xlink:title="Retrieves the next move from a player.">
<polygon fill="white" stroke="#666666" points="153,-93 4,-93 4,-74 153,-74 153,-93"/>
<text text-anchor="middle" x="78.5" y="-81" font-family="Helvetica,sans-Serif" font-size="10.00">Ultimate_XO_UI::get_move</text>
</a>
</g>
</g>
<!-- Node1&#45;&gt;Node11 -->
<g id="edge10_Node000001_Node000011" class="edge">
<title>Node1&#45;&gt;Node11</title>
<g id="a_edge10_Node000001_Node000011"><a xlink:title=" ">
<path fill="none" stroke="#63b8ff" d="M231,-193.68C218.14,-168.86 192.12,-125.63 157,-102.5 151.1,-98.61 144.47,-95.52 137.65,-93.06"/>
<polygon fill="#63b8ff" stroke="#63b8ff" points="227.96,-195.41 235.56,-202.79 234.22,-192.28 227.96,-195.41"/>
</a>
</g>
</g>
<!-- Node12 -->
<g id="Node000012" class="node">
<title>Node12</title>
<g id="a_Node000012"><a xlink:href="classWord__XO__UI.html#a468a141aff236927a593e8b105f6a6ab" target="_top" xlink:title="Retrieves the next move from a player.">
<polygon fill="white" stroke="#666666" points="144,-56 13,-56 13,-37 144,-37 144,-56"/>
<text text-anchor="middle" x="78.5" y="-44" font-family="Helvetica,sans-Serif" font-size="10.00">Word_XO_UI::get_move</text>
</a>
</g>
</g>
<!-- Node1&#45;&gt;Node12 -->
<g id="edge11_Node000001_Node000012" class="edge">
<title>Node1&#45;&gt;Node12</title>
<g id="a_edge11_Node000001_Node000012"><a xlink:title=" ">
<path fill="none" stroke="#63b8ff" d="M234.53,-192.96C224.59,-161.15 200.46,-98.44 157,-65.5 151.92,-61.65 146.17,-58.57 140.14,-56.11"/>
<polygon fill="#63b8ff" stroke="#63b8ff" points="231.26,-194.23 237.46,-202.82 237.97,-192.24 231.26,-194.23"/>
</a>
</g>
</g>
<!-- Node13 -->
<g id="Node000013" class="node">
<title>Node13</title>
<g id="a_Node000013"><a xlink:href="classX__O__5x5__UI.html#a60163186f3074fea418f530e78f5f9f1" target="_top" xlink:title="Ask the user (or AI) to make a move.">
<polygon fill="white" stroke="#666666" points="143.5,-19 13.5,-19 13.5,0 143.5,0 143.5,-19"/>
<text text-anchor="middle" x="78.5" y="-7" font-family="Helvetica,sans-Serif" font-size="10.00">X_O_5x5_UI::get_move</text>
</a>
</g>
</g>
<!-- Node1&#45;&gt;Node13 -->
<g id="edge12_Node000001_Node000013" class="edge">
<title>Node1&#45;&gt;Node13</title>
<g id="a_edge12_Node000001_Node000013"><a xlink:title=" ">
<path fill="none" stroke="#63b8ff" d="M236.85,-192.43C229.78,-154.39 209.01,-71.75 157,-28.5 152.42,-24.69 147.19,-21.63 141.66,-19.16"/>
<polygon fill="#63b8ff" stroke="#63b8ff" points="233.47,-193.45 238.62,-202.71 240.37,-192.26 233.47,-193.45"/>
</a>
</g>
</g>
</g>
</svg>
