<?xml version="1.0" encoding="UTF-8" standalone="no"?>
<!DOCTYPE svg PUBLIC "-//W3C//DTD SVG 1.1//EN"
 "http://www.w3.org/Graphics/SVG/1.1/DTD/svg11.dtd">
<!-- Generated by graphviz version 2.43.0 (0)
 -->
<!-- Title: Obstacles_XO_Board::game_is_over Pages: 1 -->
<svg width="577pt" height="60pt"
 viewBox="0.00 0.00 577.00 60.00" xmlns="http://www.w3.org/2000/svg" xmlns:xlink="http://www.w3.org/1999/xlink">
<g id="graph0" class="graph" transform="scale(1 1) rotate(0) translate(4 56)">
<title>Obstacles_XO_Board::game_is_over</title>
<!-- Node1 -->
<g id="Node000001" class="node">
<title>Node1</title>
<g id="a_Node000001"><a xlink:title="Determines if the game is over (win or draw).">
<polygon fill="#999999" stroke="#666666" points="117,-30 0,-30 0,0 117,0 117,-30"/>
<text text-anchor="start" x="8" y="-18" font-family="Helvetica,sans-Serif" font-size="10.00">Obstacles_XO_Board</text>
<text text-anchor="middle" x="58.5" y="-7" font-family="Helvetica,sans-Serif" font-size="10.00">::game_is_over</text>
</a>
</g>
</g>
<!-- Node2 -->
<g id="Node000002" class="node">
<title>Node2</title>
<g id="a_Node000002"><a xlink:href="classObstacles__XO__Board.html#acca6c3d042f40540ec89f4119a8d809f" target="_top" xlink:title="Checks if the game has ended in a draw.">
<polygon fill="white" stroke="#666666" points="270,-52 153,-52 153,-22 270,-22 270,-52"/>
<text text-anchor="start" x="161" y="-40" font-family="Helvetica,sans-Serif" font-size="10.00">Obstacles_XO_Board</text>
<text text-anchor="middle" x="211.5" y="-29" font-family="Helvetica,sans-Serif" font-size="10.00">::is_draw</text>
</a>
</g>
</g>
<!-- Node1&#45;&gt;Node2 -->
<g id="edge1_Node000001_Node000002" class="edge">
<title>Node1&#45;&gt;Node2</title>
<g id="a_edge1_Node000001_Node000002"><a xlink:title=" ">
<path fill="none" stroke="#63b8ff" d="M117.02,-23.38C125.46,-24.61 134.23,-25.89 142.86,-27.14"/>
<polygon fill="#63b8ff" stroke="#63b8ff" points="142.49,-30.63 152.89,-28.61 143.5,-23.7 142.49,-30.63"/>
</a>
</g>
</g>
<!-- Node3 -->
<g id="Node000003" class="node">
<title>Node3</title>
<g id="a_Node000003"><a xlink:href="classObstacles__XO__Board.html#af87aa4c90181835037636e1d43c349ed" target="_top" xlink:title="Checks if the given player has won the game.">
<polygon fill="white" stroke="#666666" points="423,-30 306,-30 306,0 423,0 423,-30"/>
<text text-anchor="start" x="314" y="-18" font-family="Helvetica,sans-Serif" font-size="10.00">Obstacles_XO_Board</text>
<text text-anchor="middle" x="364.5" y="-7" font-family="Helvetica,sans-Serif" font-size="10.00">::is_win</text>
</a>
</g>
</g>
<!-- Node1&#45;&gt;Node3 -->
<g id="edge4_Node000001_Node000003" class="edge">
<title>Node1&#45;&gt;Node3</title>
<g id="a_edge4_Node000001_Node000003"><a xlink:title=" ">
<path fill="none" stroke="#63b8ff" d="M117.35,-13.57C129.15,-13.33 141.47,-13.12 153,-13 205,-12.44 218,-12.44 270,-13 278.29,-13.09 286.98,-13.22 295.6,-13.38"/>
<polygon fill="#63b8ff" stroke="#63b8ff" points="295.58,-16.88 305.65,-13.57 295.71,-9.88 295.58,-16.88"/>
</a>
</g>
</g>
<!-- Node2&#45;&gt;Node3 -->
<g id="edge2_Node000002_Node000003" class="edge">
<title>Node2&#45;&gt;Node3</title>
<g id="a_edge2_Node000002_Node000003"><a xlink:title=" ">
<path fill="none" stroke="#63b8ff" d="M270.02,-28.62C278.46,-27.39 287.23,-26.11 295.86,-24.86"/>
<polygon fill="#63b8ff" stroke="#63b8ff" points="296.5,-28.3 305.89,-23.39 295.49,-21.37 296.5,-28.3"/>
</a>
</g>
</g>
<!-- Node4 -->
<g id="Node000004" class="node">
<title>Node4</title>
<g id="a_Node000004"><a xlink:href="classPlayer.html#af56f0bf98c0423a3a75b0848607d03a4" target="_top" xlink:title="Get the player&#39;s symbol.">
<polygon fill="white" stroke="#666666" points="569,-24.5 459,-24.5 459,-5.5 569,-5.5 569,-24.5"/>
<text text-anchor="middle" x="514" y="-12.5" font-family="Helvetica,sans-Serif" font-size="10.00">Player::get_symbol</text>
</a>
</g>
</g>
<!-- Node3&#45;&gt;Node4 -->
<g id="edge3_Node000003_Node000004" class="edge">
<title>Node3&#45;&gt;Node4</title>
<g id="a_edge3_Node000003_Node000004"><a xlink:title=" ">
<path fill="none" stroke="#63b8ff" d="M423.37,-15C431.64,-15 440.18,-15 448.56,-15"/>
<polygon fill="#63b8ff" stroke="#63b8ff" points="448.67,-18.5 458.67,-15 448.67,-11.5 448.67,-18.5"/>
</a>
</g>
</g>
</g>
</svg>
