<?xml version="1.0" encoding="UTF-8" standalone="no"?>
<!DOCTYPE svg PUBLIC "-//W3C//DTD SVG 1.1//EN"
 "http://www.w3.org/Graphics/SVG/1.1/DTD/svg11.dtd">
<!-- Generated by graphviz version 2.43.0 (0)
 -->
<!-- Title: Infinity_X_O_Board::game_is_over Pages: 1 -->
<svg width="553pt" height="60pt"
 viewBox="0.00 0.00 553.00 60.00" xmlns="http://www.w3.org/2000/svg" xmlns:xlink="http://www.w3.org/1999/xlink">
<g id="graph0" class="graph" transform="scale(1 1) rotate(0) translate(4 56)">
<title>Infinity_X_O_Board::game_is_over</title>
<!-- Node1 -->
<g id="Node000001" class="node">
<title>Node1</title>
<g id="a_Node000001"><a xlink:title="Determines if the game is over (win or draw).">
<polygon fill="#999999" stroke="#666666" points="109,-30 0,-30 0,0 109,0 109,-30"/>
<text text-anchor="start" x="8" y="-18" font-family="Helvetica,sans-Serif" font-size="10.00">Infinity_X_O_Board</text>
<text text-anchor="middle" x="54.5" y="-7" font-family="Helvetica,sans-Serif" font-size="10.00">::game_is_over</text>
</a>
</g>
</g>
<!-- Node2 -->
<g id="Node000002" class="node">
<title>Node2</title>
<g id="a_Node000002"><a xlink:href="classInfinity__X__O__Board.html#a27dc0d692d24c8ec6e921267424bf046" target="_top" xlink:title="Checks if the game has ended in a draw.">
<polygon fill="white" stroke="#666666" points="254,-52 145,-52 145,-22 254,-22 254,-52"/>
<text text-anchor="start" x="153" y="-40" font-family="Helvetica,sans-Serif" font-size="10.00">Infinity_X_O_Board</text>
<text text-anchor="middle" x="199.5" y="-29" font-family="Helvetica,sans-Serif" font-size="10.00">::is_draw</text>
</a>
</g>
</g>
<!-- Node1&#45;&gt;Node2 -->
<g id="edge1_Node000001_Node000002" class="edge">
<title>Node1&#45;&gt;Node2</title>
<g id="a_edge1_Node000001_Node000002"><a xlink:title=" ">
<path fill="none" stroke="#63b8ff" d="M109.15,-23.25C117.47,-24.53 126.13,-25.87 134.65,-27.18"/>
<polygon fill="#63b8ff" stroke="#63b8ff" points="134.13,-30.64 144.54,-28.7 135.19,-23.72 134.13,-30.64"/>
</a>
</g>
</g>
<!-- Node3 -->
<g id="Node000003" class="node">
<title>Node3</title>
<g id="a_Node000003"><a xlink:href="classInfinity__X__O__Board.html#adee61151bd324d1e28fb1391e1df0789" target="_top" xlink:title="Checks if the given player has won the game.">
<polygon fill="white" stroke="#666666" points="399,-30 290,-30 290,0 399,0 399,-30"/>
<text text-anchor="start" x="298" y="-18" font-family="Helvetica,sans-Serif" font-size="10.00">Infinity_X_O_Board</text>
<text text-anchor="middle" x="344.5" y="-7" font-family="Helvetica,sans-Serif" font-size="10.00">::is_win</text>
</a>
</g>
</g>
<!-- Node1&#45;&gt;Node3 -->
<g id="edge4_Node000001_Node000003" class="edge">
<title>Node1&#45;&gt;Node3</title>
<g id="a_edge4_Node000001_Node000003"><a xlink:title=" ">
<path fill="none" stroke="#63b8ff" d="M109.45,-13.6C121.17,-13.35 133.5,-13.13 145,-13 193.44,-12.46 205.56,-12.46 254,-13 262.27,-13.09 270.96,-13.23 279.55,-13.4"/>
<polygon fill="#63b8ff" stroke="#63b8ff" points="279.48,-16.9 289.55,-13.6 279.62,-9.9 279.48,-16.9"/>
</a>
</g>
</g>
<!-- Node2&#45;&gt;Node3 -->
<g id="edge2_Node000002_Node000003" class="edge">
<title>Node2&#45;&gt;Node3</title>
<g id="a_edge2_Node000002_Node000003"><a xlink:title=" ">
<path fill="none" stroke="#63b8ff" d="M254.15,-28.75C262.47,-27.47 271.13,-26.13 279.65,-24.82"/>
<polygon fill="#63b8ff" stroke="#63b8ff" points="280.19,-28.28 289.54,-23.3 279.13,-21.36 280.19,-28.28"/>
</a>
</g>
</g>
<!-- Node4 -->
<g id="Node000004" class="node">
<title>Node4</title>
<g id="a_Node000004"><a xlink:href="classPlayer.html#af56f0bf98c0423a3a75b0848607d03a4" target="_top" xlink:title="Get the player&#39;s symbol.">
<polygon fill="white" stroke="#666666" points="545,-24.5 435,-24.5 435,-5.5 545,-5.5 545,-24.5"/>
<text text-anchor="middle" x="490" y="-12.5" font-family="Helvetica,sans-Serif" font-size="10.00">Player::get_symbol</text>
</a>
</g>
</g>
<!-- Node3&#45;&gt;Node4 -->
<g id="edge3_Node000003_Node000004" class="edge">
<title>Node3&#45;&gt;Node4</title>
<g id="a_edge3_Node000003_Node000004"><a xlink:title=" ">
<path fill="none" stroke="#63b8ff" d="M399.34,-15C407.6,-15 416.19,-15 424.64,-15"/>
<polygon fill="#63b8ff" stroke="#63b8ff" points="424.86,-18.5 434.86,-15 424.86,-11.5 424.86,-18.5"/>
</a>
</g>
</g>
</g>
</svg>
