<?xml version="1.0" encoding="UTF-8" standalone="no"?>
<!DOCTYPE svg PUBLIC "-//W3C//DTD SVG 1.1//EN"
 "http://www.w3.org/Graphics/SVG/1.1/DTD/svg11.dtd">
<!-- Generated by graphviz version 2.43.0 (0)
 -->
<!-- Title: MEMORY_TIC_TAC_TOE_Board::is_win Pages: 1 -->
<svg width="470pt" height="59pt"
 viewBox="0.00 0.00 470.00 59.00" xmlns="http://www.w3.org/2000/svg" xmlns:xlink="http://www.w3.org/1999/xlink">
<g id="graph0" class="graph" transform="scale(1 1) rotate(0) translate(4 55)">
<title>MEMORY_TIC_TAC_TOE_Board::is_win</title>
<!-- Node1 -->
<g id="Node000001" class="node">
<title>Node1</title>
<g id="a_Node000001"><a xlink:title="Checks if the given player has won the game.">
<polygon fill="#999999" stroke="#666666" points="462,-51 332,-51 332,-21 462,-21 462,-51"/>
<text text-anchor="start" x="340" y="-39" font-family="Helvetica,sans-Serif" font-size="10.00">MEMORY_TIC_TAC_TOE</text>
<text text-anchor="middle" x="397" y="-28" font-family="Helvetica,sans-Serif" font-size="10.00">_Board::is_win</text>
</a>
</g>
</g>
<!-- Node2 -->
<g id="Node000002" class="node">
<title>Node2</title>
<g id="a_Node000002"><a xlink:href="classMEMORY__TIC__TAC__TOE__Board.html#af4fff22495f8616d8ab9d1a24e4b3dbc" target="_top" xlink:title="Determines if the game is over (win or draw).">
<polygon fill="white" stroke="#666666" points="130,-51 0,-51 0,-21 130,-21 130,-51"/>
<text text-anchor="start" x="8" y="-39" font-family="Helvetica,sans-Serif" font-size="10.00">MEMORY_TIC_TAC_TOE</text>
<text text-anchor="middle" x="65" y="-28" font-family="Helvetica,sans-Serif" font-size="10.00">_Board::game_is_over</text>
</a>
</g>
</g>
<!-- Node1&#45;&gt;Node2 -->
<g id="edge1_Node000001_Node000002" class="edge">
<title>Node1&#45;&gt;Node2</title>
<g id="a_edge1_Node000001_Node000002"><a xlink:title=" ">
<path fill="none" stroke="#63b8ff" d="M321.82,-38.47C313.12,-38.69 304.36,-38.87 296,-39 238.23,-39.87 223.77,-39.87 166,-39 154.36,-38.83 141.97,-38.54 130.01,-38.21"/>
<polygon fill="#63b8ff" stroke="#63b8ff" points="322.09,-41.97 331.99,-38.21 321.9,-34.97 322.09,-41.97"/>
</a>
</g>
</g>
<!-- Node3 -->
<g id="Node000003" class="node">
<title>Node3</title>
<g id="a_Node000003"><a xlink:href="classMEMORY__TIC__TAC__TOE__Board.html#a42f4019e449d2c49efdb3129507984e3" target="_top" xlink:title="Checks if the game has ended in a draw.">
<polygon fill="white" stroke="#666666" points="296,-30 166,-30 166,0 296,0 296,-30"/>
<text text-anchor="start" x="174" y="-18" font-family="Helvetica,sans-Serif" font-size="10.00">MEMORY_TIC_TAC_TOE</text>
<text text-anchor="middle" x="231" y="-7" font-family="Helvetica,sans-Serif" font-size="10.00">_Board::is_draw</text>
</a>
</g>
</g>
<!-- Node1&#45;&gt;Node3 -->
<g id="edge2_Node000001_Node000003" class="edge">
<title>Node1&#45;&gt;Node3</title>
<g id="a_edge2_Node000001_Node000003"><a xlink:title=" ">
<path fill="none" stroke="#63b8ff" d="M321.71,-26.49C313.18,-25.4 304.54,-24.29 296.16,-23.22"/>
<polygon fill="#63b8ff" stroke="#63b8ff" points="321.29,-29.96 331.65,-27.76 322.18,-23.02 321.29,-29.96"/>
</a>
</g>
</g>
<!-- Node3&#45;&gt;Node2 -->
<g id="edge3_Node000003_Node000002" class="edge">
<title>Node3&#45;&gt;Node2</title>
<g id="a_edge3_Node000003_Node000002"><a xlink:title=" ">
<path fill="none" stroke="#63b8ff" d="M155.71,-24.51C147.18,-25.6 138.54,-26.71 130.16,-27.78"/>
<polygon fill="#63b8ff" stroke="#63b8ff" points="156.18,-27.98 165.65,-23.24 155.29,-21.04 156.18,-27.98"/>
</a>
</g>
</g>
</g>
</svg>
