<?xml version="1.0" encoding="UTF-8" standalone="no"?>
<!DOCTYPE svg PUBLIC "-//W3C//DTD SVG 1.1//EN"
 "http://www.w3.org/Graphics/SVG/1.1/DTD/svg11.dtd">
<!-- Generated by graphviz version 2.43.0 (0)
 -->
<!-- Title: AIPlayer::generate_move_values Pages: 1 -->
<svg width="427pt" height="60pt"
 viewBox="0.00 0.00 427.00 60.00" xmlns="http://www.w3.org/2000/svg" xmlns:xlink="http://www.w3.org/1999/xlink">
<g id="graph0" class="graph" transform="scale(1 1) rotate(0) translate(4 56)">
<title>AIPlayer::generate_move_values</title>
<!-- Node1 -->
<g id="Node000001" class="node">
<title>Node1</title>
<g id="a_Node000001"><a xlink:title="Generate possible move values for a given position.">
<polygon fill="#999999" stroke="#666666" points="107,-30 0,-30 0,0 107,0 107,-30"/>
<text text-anchor="start" x="8" y="-18" font-family="Helvetica,sans-Serif" font-size="10.00">AIPlayer::generate</text>
<text text-anchor="middle" x="53.5" y="-7" font-family="Helvetica,sans-Serif" font-size="10.00">_move_values</text>
</a>
</g>
</g>
<!-- Node2 -->
<g id="Node000002" class="node">
<title>Node2</title>
<g id="a_Node000002"><a xlink:href="classAIPlayer.html#a706839a21ea012862d53269c478a56e6" target="_top" xlink:title="Get the opponent&#39;s symbol.">
<polygon fill="white" stroke="#666666" points="273,-52 143,-52 143,-22 273,-22 273,-52"/>
<text text-anchor="start" x="151" y="-40" font-family="Helvetica,sans-Serif" font-size="10.00">AIPlayer::get_opponent</text>
<text text-anchor="middle" x="208" y="-29" font-family="Helvetica,sans-Serif" font-size="10.00">_symbol</text>
</a>
</g>
</g>
<!-- Node1&#45;&gt;Node2 -->
<g id="edge1_Node000001_Node000002" class="edge">
<title>Node1&#45;&gt;Node2</title>
<g id="a_edge1_Node000001_Node000002"><a xlink:title=" ">
<path fill="none" stroke="#63b8ff" d="M107.41,-22.63C115.63,-23.82 124.26,-25.06 132.85,-26.3"/>
<polygon fill="#63b8ff" stroke="#63b8ff" points="132.49,-29.79 142.89,-27.75 133.49,-22.86 132.49,-29.79"/>
</a>
</g>
</g>
<!-- Node3 -->
<g id="Node000003" class="node">
<title>Node3</title>
<g id="a_Node000003"><a xlink:href="classPlayer.html#af56f0bf98c0423a3a75b0848607d03a4" target="_top" xlink:title="Get the player&#39;s symbol.">
<polygon fill="white" stroke="#666666" points="419,-24.5 309,-24.5 309,-5.5 419,-5.5 419,-24.5"/>
<text text-anchor="middle" x="364" y="-12.5" font-family="Helvetica,sans-Serif" font-size="10.00">Player::get_symbol</text>
</a>
</g>
</g>
<!-- Node1&#45;&gt;Node3 -->
<g id="edge3_Node000001_Node000003" class="edge">
<title>Node1&#45;&gt;Node3</title>
<g id="a_edge3_Node000001_Node000003"><a xlink:title=" ">
<path fill="none" stroke="#63b8ff" d="M107.38,-13.61C119.11,-13.36 131.47,-13.13 143,-13 200.77,-12.35 215.23,-12.36 273,-13 281.31,-13.09 290.06,-13.23 298.69,-13.4"/>
<polygon fill="#63b8ff" stroke="#63b8ff" points="298.68,-16.9 308.75,-13.6 298.82,-9.9 298.68,-16.9"/>
</a>
</g>
</g>
<!-- Node2&#45;&gt;Node3 -->
<g id="edge2_Node000002_Node000003" class="edge">
<title>Node2&#45;&gt;Node3</title>
<g id="a_edge2_Node000002_Node000003"><a xlink:title=" ">
<path fill="none" stroke="#63b8ff" d="M273.42,-27.8C281.74,-26.61 290.26,-25.39 298.58,-24.2"/>
<polygon fill="#63b8ff" stroke="#63b8ff" points="299.2,-27.65 308.6,-22.77 298.21,-20.72 299.2,-27.65"/>
</a>
</g>
</g>
</g>
</svg>
