<?xml version="1.0" encoding="UTF-8" standalone="no"?>
<!DOCTYPE svg PUBLIC "-//W3C//DTD SVG 1.1//EN"
 "http://www.w3.org/Graphics/SVG/1.1/DTD/svg11.dtd">
<!-- Generated by graphviz version 2.43.0 (0)
 -->
<!-- Title: X_O_5x5_UI::get_move Pages: 1 -->
<svg width="295pt" height="101pt"
 viewBox="0.00 0.00 295.00 101.00" xmlns="http://www.w3.org/2000/svg" xmlns:xlink="http://www.w3.org/1999/xlink">
<g id="graph0" class="graph" transform="scale(1 1) rotate(0) translate(4 97)">
<title>X_O_5x5_UI::get_move</title>
<!-- Node1 -->
<g id="Node000001" class="node">
<title>Node1</title>
<g id="a_Node000001"><a xlink:title="Ask the user (or AI) to make a move.">
<polygon fill="#999999" stroke="#666666" points="130,-56 0,-56 0,-37 130,-37 130,-56"/>
<text text-anchor="middle" x="65" y="-44" font-family="Helvetica,sans-Serif" font-size="10.00">X_O_5x5_UI::get_move</text>
</a>
</g>
</g>
<!-- Node2 -->
<g id="Node000002" class="node">
<title>Node2</title>
<g id="a_Node000002"><a xlink:href="classPlayer.html#a508617eddfae8915d098102d480fc888" target="_top" xlink:title="Get a pointer to the game board.">
<polygon fill="white" stroke="#666666" points="287,-93 166,-93 166,-74 287,-74 287,-93"/>
<text text-anchor="middle" x="226.5" y="-81" font-family="Helvetica,sans-Serif" font-size="10.00">Player::get_board_ptr</text>
</a>
</g>
</g>
<!-- Node1&#45;&gt;Node2 -->
<g id="edge1_Node000001_Node000002" class="edge">
<title>Node1&#45;&gt;Node2</title>
<g id="a_edge1_Node000001_Node000002"><a xlink:title=" ">
<path fill="none" stroke="#63b8ff" d="M107.08,-56.03C127.65,-60.8 152.75,-66.62 174.54,-71.68"/>
<polygon fill="#63b8ff" stroke="#63b8ff" points="173.75,-75.09 184.29,-73.94 175.34,-68.27 173.75,-75.09"/>
</a>
</g>
</g>
<!-- Node3 -->
<g id="Node000003" class="node">
<title>Node3</title>
<g id="a_Node000003"><a xlink:href="classPlayer.html#af56f0bf98c0423a3a75b0848607d03a4" target="_top" xlink:title="Get the player&#39;s symbol.">
<polygon fill="white" stroke="#666666" points="281.5,-56 171.5,-56 171.5,-37 281.5,-37 281.5,-56"/>
<text text-anchor="middle" x="226.5" y="-44" font-family="Helvetica,sans-Serif" font-size="10.00">Player::get_symbol</text>
</a>
</g>
</g>
<!-- Node1&#45;&gt;Node3 -->
<g id="edge2_Node000001_Node000003" class="edge">
<title>Node1&#45;&gt;Node3</title>
<g id="a_edge2_Node000001_Node000003"><a xlink:title=" ">
<path fill="none" stroke="#63b8ff" d="M130.42,-46.5C140.6,-46.5 151.12,-46.5 161.3,-46.5"/>
<polygon fill="#63b8ff" stroke="#63b8ff" points="161.33,-50 171.33,-46.5 161.33,-43 161.33,-50"/>
</a>
</g>
</g>
<!-- Node4 -->
<g id="Node000004" class="node">
<title>Node4</title>
<g id="a_Node000004"><a xlink:href="classPlayer.html#a2df3bd299bf7aecfa2275ec6902a60f8" target="_top" xlink:title="Get player type (e.g., &#39;H&#39; or &#39;C&#39;).">
<polygon fill="white" stroke="#666666" points="274.5,-19 178.5,-19 178.5,0 274.5,0 274.5,-19"/>
<text text-anchor="middle" x="226.5" y="-7" font-family="Helvetica,sans-Serif" font-size="10.00">Player::get_type</text>
</a>
</g>
</g>
<!-- Node1&#45;&gt;Node4 -->
<g id="edge3_Node000001_Node000004" class="edge">
<title>Node1&#45;&gt;Node4</title>
<g id="a_edge3_Node000001_Node000004"><a xlink:title=" ">
<path fill="none" stroke="#63b8ff" d="M107.08,-36.97C127.65,-32.2 152.75,-26.38 174.54,-21.32"/>
<polygon fill="#63b8ff" stroke="#63b8ff" points="175.34,-24.73 184.29,-19.06 173.75,-17.91 175.34,-24.73"/>
</a>
</g>
</g>
</g>
</svg>
