<?xml version="1.0" encoding="UTF-8" standalone="no"?>
<!DOCTYPE svg PUBLIC "-//W3C//DTD SVG 1.1//EN"
 "http://www.w3.org/Graphics/SVG/1.1/DTD/svg11.dtd">
<!-- Generated by graphviz version 2.43.0 (0)
 -->
<!-- Title: smartPlayer2::evaluate_board Pages: 1 -->
<svg width="501pt" height="51pt"
 viewBox="0.00 0.00 501.00 50.50" xmlns="http://www.w3.org/2000/svg" xmlns:xlink="http://www.w3.org/1999/xlink">
<g id="graph0" class="graph" transform="scale(1 1) rotate(0) translate(4 46.5)">
<title>smartPlayer2::evaluate_board</title>
<!-- Node1 -->
<g id="Node000001" class="node">
<title>Node1</title>
<g id="a_Node000001"><a xlink:title=" ">
<polygon fill="#999999" stroke="#666666" points="493,-30 362,-30 362,0 493,0 493,-30"/>
<text text-anchor="start" x="370" y="-18" font-family="Helvetica,sans-Serif" font-size="10.00">smartPlayer2::evaluate</text>
<text text-anchor="middle" x="427.5" y="-7" font-family="Helvetica,sans-Serif" font-size="10.00">_board</text>
</a>
</g>
</g>
<!-- Node2 -->
<g id="Node000002" class="node">
<title>Node2</title>
<g id="a_Node000002"><a xlink:href="classsmartPlayer2.html#a8212944143d4baa2e7b05bca584a0e77" target="_top" xlink:title=" ">
<polygon fill="white" stroke="#666666" points="326,-24.5 195,-24.5 195,-5.5 326,-5.5 326,-24.5"/>
<text text-anchor="middle" x="260.5" y="-12.5" font-family="Helvetica,sans-Serif" font-size="10.00">smartPlayer2::minimax</text>
</a>
</g>
</g>
<!-- Node1&#45;&gt;Node2 -->
<g id="edge1_Node000001_Node000002" class="edge">
<title>Node1&#45;&gt;Node2</title>
<g id="a_edge1_Node000001_Node000002"><a xlink:title=" ">
<path fill="none" stroke="#63b8ff" d="M351.76,-15C343.18,-15 334.48,-15 326.05,-15"/>
<polygon fill="#63b8ff" stroke="#63b8ff" points="351.76,-18.5 361.76,-15 351.76,-11.5 351.76,-18.5"/>
</a>
</g>
</g>
<!-- Node2&#45;&gt;Node2 -->
<g id="edge3_Node000002_Node000002" class="edge">
<title>Node2&#45;&gt;Node2</title>
<g id="a_edge3_Node000002_Node000002"><a xlink:title=" ">
<path fill="none" stroke="#63b8ff" d="M291.49,-33.32C290.19,-38.51 279.86,-42.5 260.5,-42.5 231,-42.5 222.47,-33.23 234.91,-24.58"/>
<polygon fill="#63b8ff" stroke="#63b8ff" points="294.32,-31.25 286.09,-24.58 288.37,-34.93 294.32,-31.25"/>
</a>
</g>
</g>
<!-- Node3 -->
<g id="Node000003" class="node">
<title>Node3</title>
<g id="a_Node000003"><a xlink:href="classsmartPlayer2.html#af51ff0c3115f5dc34fce64958c52beb2" target="_top" xlink:title=" ">
<polygon fill="white" stroke="#666666" points="159,-24.5 0,-24.5 0,-5.5 159,-5.5 159,-24.5"/>
<text text-anchor="middle" x="79.5" y="-12.5" font-family="Helvetica,sans-Serif" font-size="10.00">smartPlayer2::calculateMove</text>
</a>
</g>
</g>
<!-- Node2&#45;&gt;Node3 -->
<g id="edge2_Node000002_Node000003" class="edge">
<title>Node2&#45;&gt;Node3</title>
<g id="a_edge2_Node000002_Node000003"><a xlink:title=" ">
<path fill="none" stroke="#63b8ff" d="M184.67,-15C176.22,-15 167.58,-15 159.08,-15"/>
<polygon fill="#63b8ff" stroke="#63b8ff" points="184.88,-18.5 194.88,-15 184.88,-11.5 184.88,-18.5"/>
</a>
</g>
</g>
</g>
</svg>
