<?xml version="1.0" encoding="UTF-8" standalone="no"?>
<!DOCTYPE svg PUBLIC "-//W3C//DTD SVG 1.1//EN"
 "http://www.w3.org/Graphics/SVG/1.1/DTD/svg11.dtd">
<!-- Generated by graphviz version 2.43.0 (0)
 -->
<!-- Title: wordSmartPlayer::minimax Pages: 1 -->
<svg width="535pt" height="161pt"
 viewBox="0.00 0.00 535.00 160.50" xmlns="http://www.w3.org/2000/svg" xmlns:xlink="http://www.w3.org/1999/xlink">
<g id="graph0" class="graph" transform="scale(1 1) rotate(0) translate(4 156.5)">
<title>wordSmartPlayer::minimax</title>
<!-- Node1 -->
<g id="Node000001" class="node">
<title>Node1</title>
<g id="a_Node000001"><a xlink:title=" ">
<polygon fill="#999999" stroke="#666666" points="150,-77 0,-77 0,-58 150,-58 150,-77"/>
<text text-anchor="middle" x="75" y="-65" font-family="Helvetica,sans-Serif" font-size="10.00">wordSmartPlayer::minimax</text>
</a>
</g>
</g>
<!-- Node1&#45;&gt;Node1 -->
<g id="edge6_Node000001_Node000001" class="edge">
<title>Node1&#45;&gt;Node1</title>
<g id="a_edge6_Node000001_Node000001"><a xlink:title=" ">
<path fill="none" stroke="#63b8ff" d="M46.64,-77.08C32.84,-85.73 42.3,-95 75,-95 97.48,-95 108.98,-90.62 109.48,-85.07"/>
<polygon fill="#63b8ff" stroke="#63b8ff" points="112.22,-82.89 103.36,-77.08 106.66,-87.15 112.22,-82.89"/>
</a>
</g>
</g>
<!-- Node2 -->
<g id="Node000002" class="node">
<title>Node2</title>
<g id="a_Node000002"><a xlink:href="classwordSmartPlayer.html#a08ecaf78a83b4a706176529ddc9e6119" target="_top" xlink:title=" ">
<polygon fill="white" stroke="#666666" points="335,-152.5 186,-152.5 186,-122.5 335,-122.5 335,-152.5"/>
<text text-anchor="start" x="194" y="-140.5" font-family="Helvetica,sans-Serif" font-size="10.00">wordSmartPlayer::evaluate</text>
<text text-anchor="middle" x="260.5" y="-129.5" font-family="Helvetica,sans-Serif" font-size="10.00">_board</text>
</a>
</g>
</g>
<!-- Node1&#45;&gt;Node2 -->
<g id="edge1_Node000001_Node000002" class="edge">
<title>Node1&#45;&gt;Node2</title>
<g id="a_edge1_Node000001_Node000002"><a xlink:title=" ">
<path fill="none" stroke="#63b8ff" d="M97.3,-77.01C119.31,-86.69 154.76,-101.89 186,-113.5 191.11,-115.4 196.45,-117.3 201.82,-119.16"/>
<polygon fill="#63b8ff" stroke="#63b8ff" points="200.87,-122.53 211.47,-122.43 203.12,-115.9 200.87,-122.53"/>
</a>
</g>
</g>
<!-- Node4 -->
<g id="Node000004" class="node">
<title>Node4</title>
<g id="a_Node000004"><a xlink:href="classsmartPlayer.html#a046e18221d92303afd36dca43d859898" target="_top" xlink:title=" ">
<polygon fill="white" stroke="#666666" points="320,-104.5 201,-104.5 201,-74.5 320,-74.5 320,-104.5"/>
<text text-anchor="start" x="209" y="-92.5" font-family="Helvetica,sans-Serif" font-size="10.00">smartPlayer&lt; char &gt;</text>
<text text-anchor="middle" x="260.5" y="-81.5" font-family="Helvetica,sans-Serif" font-size="10.00">::is_draw</text>
</a>
</g>
</g>
<!-- Node1&#45;&gt;Node4 -->
<g id="edge3_Node000001_Node000004" class="edge">
<title>Node1&#45;&gt;Node4</title>
<g id="a_edge3_Node000001_Node000004"><a xlink:title=" ">
<path fill="none" stroke="#63b8ff" d="M150.11,-76.38C163.58,-78 177.58,-79.68 190.89,-81.27"/>
<polygon fill="#63b8ff" stroke="#63b8ff" points="190.57,-84.76 200.91,-82.48 191.4,-77.81 190.57,-84.76"/>
</a>
</g>
</g>
<!-- Node5 -->
<g id="Node000005" class="node">
<title>Node5</title>
<g id="a_Node000005"><a xlink:href="classwordSmartPlayer.html#a626ed24f5a4811dde93bfaf94ce81497" target="_top" xlink:title=" ">
<polygon fill="white" stroke="#666666" points="329,-56 192,-56 192,-37 329,-37 329,-56"/>
<text text-anchor="middle" x="260.5" y="-44" font-family="Helvetica,sans-Serif" font-size="10.00">wordSmartPlayer::is_win</text>
</a>
</g>
</g>
<!-- Node1&#45;&gt;Node5 -->
<g id="edge4_Node000001_Node000005" class="edge">
<title>Node1&#45;&gt;Node5</title>
<g id="a_edge4_Node000001_Node000005"><a xlink:title=" ">
<path fill="none" stroke="#63b8ff" d="M150.11,-59.02C160.59,-57.82 171.38,-56.58 181.92,-55.38"/>
<polygon fill="#63b8ff" stroke="#63b8ff" points="182.39,-58.85 191.93,-54.23 181.6,-51.89 182.39,-58.85"/>
</a>
</g>
</g>
<!-- Node7 -->
<g id="Node000007" class="node">
<title>Node7</title>
<g id="a_Node000007"><a xlink:href="classPlayer.html#adb4e803a7ac0356b111b8ca79d766976" target="_top" xlink:title="Construct a player with name, symbol, and type.">
<polygon fill="white" stroke="#666666" points="302.5,-19 218.5,-19 218.5,0 302.5,0 302.5,-19"/>
<text text-anchor="middle" x="260.5" y="-7" font-family="Helvetica,sans-Serif" font-size="10.00">Player::Player</text>
</a>
</g>
</g>
<!-- Node1&#45;&gt;Node7 -->
<g id="edge7_Node000001_Node000007" class="edge">
<title>Node1&#45;&gt;Node7</title>
<g id="a_edge7_Node000001_Node000007"><a xlink:title=" ">
<path fill="none" stroke="#63b8ff" d="M100.21,-57.84C122.33,-49.21 156.05,-36.58 186,-27.5 193.26,-25.3 200.97,-23.18 208.58,-21.21"/>
<polygon fill="#63b8ff" stroke="#63b8ff" points="209.62,-24.55 218.46,-18.71 207.91,-17.77 209.62,-24.55"/>
</a>
</g>
</g>
<!-- Node3 -->
<g id="Node000003" class="node">
<title>Node3</title>
<g id="a_Node000003"><a xlink:href="classwordSmartPlayer.html#a1fe6cbd81a0e85792f482bb50f5e4b5f" target="_top" xlink:title=" ">
<polygon fill="white" stroke="#666666" points="527,-147 371,-147 371,-128 527,-128 527,-147"/>
<text text-anchor="middle" x="449" y="-135" font-family="Helvetica,sans-Serif" font-size="10.00">wordSmartPlayer::score_line</text>
</a>
</g>
</g>
<!-- Node2&#45;&gt;Node3 -->
<g id="edge2_Node000002_Node000003" class="edge">
<title>Node2&#45;&gt;Node3</title>
<g id="a_edge2_Node000002_Node000003"><a xlink:title=" ">
<path fill="none" stroke="#63b8ff" d="M335.21,-137.5C343.63,-137.5 352.26,-137.5 360.83,-137.5"/>
<polygon fill="#63b8ff" stroke="#63b8ff" points="360.84,-141 370.84,-137.5 360.84,-134 360.84,-141"/>
</a>
</g>
</g>
<!-- Node6 -->
<g id="Node000006" class="node">
<title>Node6</title>
<g id="a_Node000006"><a xlink:href="classwordSmartPlayer.html#a153987c87159821a01b6ceb0e81a4d73" target="_top" xlink:title=" ">
<polygon fill="white" stroke="#666666" points="506.5,-61.5 391.5,-61.5 391.5,-31.5 506.5,-31.5 506.5,-61.5"/>
<text text-anchor="start" x="399.5" y="-49.5" font-family="Helvetica,sans-Serif" font-size="10.00">wordSmartPlayer::is</text>
<text text-anchor="middle" x="449" y="-38.5" font-family="Helvetica,sans-Serif" font-size="10.00">_valid_word</text>
</a>
</g>
</g>
<!-- Node5&#45;&gt;Node6 -->
<g id="edge5_Node000005_Node000006" class="edge">
<title>Node5&#45;&gt;Node6</title>
<g id="a_edge5_Node000005_Node000006"><a xlink:title=" ">
<path fill="none" stroke="#63b8ff" d="M329.09,-46.5C346.01,-46.5 364.16,-46.5 381.05,-46.5"/>
<polygon fill="#63b8ff" stroke="#63b8ff" points="381.38,-50 391.38,-46.5 381.38,-43 381.38,-50"/>
</a>
</g>
</g>
</g>
</svg>
