<?xml version="1.0" encoding="UTF-8" standalone="no"?>
<!DOCTYPE svg PUBLIC "-//W3C//DTD SVG 1.1//EN"
 "http://www.w3.org/Graphics/SVG/1.1/DTD/svg11.dtd">
<!-- Generated by graphviz version 2.43.0 (0)
 -->
<!-- Title: smartPlayer2::is_draw Pages: 1 -->
<svg width="619pt" height="114pt"
 viewBox="0.00 0.00 619.00 113.50" xmlns="http://www.w3.org/2000/svg" xmlns:xlink="http://www.w3.org/1999/xlink">
<g id="graph0" class="graph" transform="scale(1 1) rotate(0) translate(4 109.5)">
<title>smartPlayer2::is_draw</title>
<!-- Node1 -->
<g id="Node000001" class="node">
<title>Node1</title>
<g id="a_Node000001"><a xlink:title=" ">
<polygon fill="#999999" stroke="#666666" points="125,-57 0,-57 0,-38 125,-38 125,-57"/>
<text text-anchor="middle" x="62.5" y="-45" font-family="Helvetica,sans-Serif" font-size="10.00">smartPlayer2::is_draw</text>
</a>
</g>
</g>
<!-- Node2 -->
<g id="Node000002" class="node">
<title>Node2</title>
<g id="a_Node000002"><a xlink:href="classsmartPlayer.html#a046e18221d92303afd36dca43d859898" target="_top" xlink:title=" ">
<polygon fill="white" stroke="#666666" points="280,-57 161,-57 161,-38 280,-38 280,-57"/>
<text text-anchor="middle" x="220.5" y="-45" font-family="Helvetica,sans-Serif" font-size="10.00">smartPlayer::is_draw</text>
</a>
</g>
</g>
<!-- Node1&#45;&gt;Node2 -->
<g id="edge1_Node000001_Node000002" class="edge">
<title>Node1&#45;&gt;Node2</title>
<g id="a_edge1_Node000001_Node000002"><a xlink:title=" ">
<path fill="none" stroke="#63b8ff" d="M125.16,-47.5C133.51,-47.5 142.13,-47.5 150.6,-47.5"/>
<polygon fill="#63b8ff" stroke="#63b8ff" points="150.84,-51 160.84,-47.5 150.84,-44 150.84,-51"/>
</a>
</g>
</g>
<!-- Node3 -->
<g id="Node000003" class="node">
<title>Node3</title>
<g id="a_Node000003"><a xlink:href="classsmartPlayer.html#afb2249c0850bf2f4debaece4f4df9bf3" target="_top" xlink:title=" ">
<polygon fill="white" stroke="#666666" points="465,-105.5 316,-105.5 316,-75.5 465,-75.5 465,-105.5"/>
<text text-anchor="start" x="324" y="-93.5" font-family="Helvetica,sans-Serif" font-size="10.00">smartPlayer::get_opponent</text>
<text text-anchor="middle" x="390.5" y="-82.5" font-family="Helvetica,sans-Serif" font-size="10.00">_symbol</text>
</a>
</g>
</g>
<!-- Node2&#45;&gt;Node3 -->
<g id="edge2_Node000002_Node000003" class="edge">
<title>Node2&#45;&gt;Node3</title>
<g id="a_edge2_Node000002_Node000003"><a xlink:title=" ">
<path fill="none" stroke="#63b8ff" d="M258.78,-57.04C277.06,-61.72 299.66,-67.51 320.9,-72.94"/>
<polygon fill="#63b8ff" stroke="#63b8ff" points="320.32,-76.4 330.87,-75.49 322.05,-69.62 320.32,-76.4"/>
</a>
</g>
</g>
<!-- Node4 -->
<g id="Node000004" class="node">
<title>Node4</title>
<g id="a_Node000004"><a xlink:href="classPlayer.html#af56f0bf98c0423a3a75b0848607d03a4" target="_top" xlink:title="Get the player&#39;s symbol.">
<polygon fill="white" stroke="#666666" points="611,-78 501,-78 501,-59 611,-59 611,-78"/>
<text text-anchor="middle" x="556" y="-66" font-family="Helvetica,sans-Serif" font-size="10.00">Player::get_symbol</text>
</a>
</g>
</g>
<!-- Node2&#45;&gt;Node4 -->
<g id="edge4_Node000002_Node000004" class="edge">
<title>Node2&#45;&gt;Node4</title>
<g id="a_edge4_Node000002_Node000004"><a xlink:title=" ">
<path fill="none" stroke="#63b8ff" d="M280.36,-51.21C339.31,-54.92 429.79,-60.62 490.62,-64.45"/>
<polygon fill="#63b8ff" stroke="#63b8ff" points="490.67,-67.96 500.87,-65.09 491.11,-60.97 490.67,-67.96"/>
</a>
</g>
</g>
<!-- Node5 -->
<g id="Node000005" class="node">
<title>Node5</title>
<g id="a_Node000005"><a xlink:href="classsmartPlayer.html#a0c97a2045a733fbe524f424d6b7eb968" target="_top" xlink:title=" ">
<polygon fill="white" stroke="#666666" points="447,-19 334,-19 334,0 447,0 447,-19"/>
<text text-anchor="middle" x="390.5" y="-7" font-family="Helvetica,sans-Serif" font-size="10.00">smartPlayer::is_win</text>
</a>
</g>
</g>
<!-- Node2&#45;&gt;Node5 -->
<g id="edge5_Node000002_Node000005" class="edge">
<title>Node2&#45;&gt;Node5</title>
<g id="a_edge5_Node000002_Node000005"><a xlink:title=" ">
<path fill="none" stroke="#63b8ff" d="M263.89,-37.91C286.26,-32.85 313.9,-26.6 337.55,-21.25"/>
<polygon fill="#63b8ff" stroke="#63b8ff" points="338.43,-24.64 347.41,-19.02 336.89,-17.81 338.43,-24.64"/>
</a>
</g>
</g>
<!-- Node3&#45;&gt;Node4 -->
<g id="edge3_Node000003_Node000004" class="edge">
<title>Node3&#45;&gt;Node4</title>
<g id="a_edge3_Node000003_Node000004"><a xlink:title=" ">
<path fill="none" stroke="#63b8ff" d="M465.12,-80.59C473.68,-79.44 482.35,-78.28 490.77,-77.14"/>
<polygon fill="#63b8ff" stroke="#63b8ff" points="491.44,-80.58 500.88,-75.78 490.5,-73.65 491.44,-80.58"/>
</a>
</g>
</g>
</g>
</svg>
