<?xml version="1.0" encoding="UTF-8" standalone="no"?>
<!DOCTYPE svg PUBLIC "-//W3C//DTD SVG 1.1//EN"
 "http://www.w3.org/Graphics/SVG/1.1/DTD/svg11.dtd">
<!-- Generated by graphviz version 2.43.0 (0)
 -->
<!-- Title: FourFourAIPlayer::calculateMove Pages: 1 -->
<svg width="726pt" height="373pt"
 viewBox="0.00 0.00 726.00 373.12" xmlns="http://www.w3.org/2000/svg" xmlns:xlink="http://www.w3.org/1999/xlink">
<g id="graph0" class="graph" transform="scale(1 1) rotate(0) translate(4 369.12)">
<title>FourFourAIPlayer::calculateMove</title>
<!-- Node1 -->
<g id="Node000001" class="node">
<title>Node1</title>
<g id="a_Node000001"><a xlink:title="Override calculateMove to handle direction&#45;based moves.">
<polygon fill="#999999" stroke="#666666" points="176,-213.12 0,-213.12 0,-194.12 176,-194.12 176,-213.12"/>
<text text-anchor="middle" x="88" y="-201.12" font-family="Helvetica,sans-Serif" font-size="10.00">FourFourAIPlayer::calculateMove</text>
</a>
</g>
</g>
<!-- Node2 -->
<g id="Node000002" class="node">
<title>Node2</title>
<g id="a_Node000002"><a xlink:href="classFourFourAIPlayer.html#a63c588798fa1ec23ad3cb4cd96370a97" target="_top" xlink:title="Check if position has a piece belonging to the player that can be moved.">
<polygon fill="white" stroke="#666666" points="368.5,-365.12 218.5,-365.12 218.5,-346.12 368.5,-346.12 368.5,-365.12"/>
<text text-anchor="middle" x="293.5" y="-353.12" font-family="Helvetica,sans-Serif" font-size="10.00">FourFourAIPlayer::condition</text>
</a>
</g>
</g>
<!-- Node1&#45;&gt;Node2 -->
<g id="edge1_Node000001_Node000002" class="edge">
<title>Node1&#45;&gt;Node2</title>
<g id="a_edge1_Node000001_Node000002"><a xlink:title=" ">
<path fill="none" stroke="#63b8ff" d="M95.52,-213.27C112.09,-237.04 158.32,-298.89 212,-331.62 219.34,-336.1 227.57,-339.78 235.88,-342.81"/>
<polygon fill="#63b8ff" stroke="#63b8ff" points="235.04,-346.22 245.64,-346.06 237.26,-339.58 235.04,-346.22"/>
</a>
</g>
</g>
<!-- Node3 -->
<g id="Node000003" class="node">
<title>Node3</title>
<g id="a_Node000003"><a xlink:href="classPlayer.html#a508617eddfae8915d098102d480fc888" target="_top" xlink:title="Get a pointer to the game board.">
<polygon fill="white" stroke="#666666" points="718,-251.12 597,-251.12 597,-232.12 718,-232.12 718,-251.12"/>
<text text-anchor="middle" x="657.5" y="-239.12" font-family="Helvetica,sans-Serif" font-size="10.00">Player::get_board_ptr</text>
</a>
</g>
</g>
<!-- Node1&#45;&gt;Node3 -->
<g id="edge7_Node000001_Node000003" class="edge">
<title>Node1&#45;&gt;Node3</title>
<g id="a_edge7_Node000001_Node000003"><a xlink:title=" ">
<path fill="none" stroke="#63b8ff" d="M176.33,-211.74C188.31,-212.76 200.46,-213.76 212,-214.62 344.37,-224.56 499.14,-233.31 586.71,-238"/>
<polygon fill="#63b8ff" stroke="#63b8ff" points="586.62,-241.5 596.79,-238.54 586.99,-234.51 586.62,-241.5"/>
</a>
</g>
</g>
<!-- Node4 -->
<g id="Node000004" class="node">
<title>Node4</title>
<g id="a_Node000004"><a xlink:href="classPlayer.html#af56f0bf98c0423a3a75b0848607d03a4" target="_top" xlink:title="Get the player&#39;s symbol.">
<polygon fill="white" stroke="#666666" points="541,-327.12 431,-327.12 431,-308.12 541,-308.12 541,-327.12"/>
<text text-anchor="middle" x="486" y="-315.12" font-family="Helvetica,sans-Serif" font-size="10.00">Player::get_symbol</text>
</a>
</g>
</g>
<!-- Node1&#45;&gt;Node4 -->
<g id="edge10_Node000001_Node000004" class="edge">
<title>Node1&#45;&gt;Node4</title>
<g id="a_edge10_Node000001_Node000004"><a xlink:title=" ">
<path fill="none" stroke="#63b8ff" d="M97.67,-213.42C116.26,-233.65 162.32,-279.72 212,-298.62 279.83,-324.43 363.9,-326.2 420.69,-323.44"/>
<polygon fill="#63b8ff" stroke="#63b8ff" points="421.17,-326.92 430.97,-322.87 420.79,-319.93 421.17,-326.92"/>
</a>
</g>
</g>
<!-- Node5 -->
<g id="Node000005" class="node">
<title>Node5</title>
<g id="a_Node000005"><a xlink:href="classFourFourAIPlayer.html#a3e7b4ec9c592f25a40afe0be8dc05449" target="_top" xlink:title="Create a dualMove at position (x, y) with stored direction.">
<polygon fill="white" stroke="#666666" points="375,-289.12 212,-289.12 212,-270.12 375,-270.12 375,-289.12"/>
<text text-anchor="middle" x="293.5" y="-277.12" font-family="Helvetica,sans-Serif" font-size="10.00">FourFourAIPlayer::createMove</text>
</a>
</g>
</g>
<!-- Node1&#45;&gt;Node5 -->
<g id="edge4_Node000001_Node000005" class="edge">
<title>Node1&#45;&gt;Node5</title>
<g id="a_edge4_Node000001_Node000005"><a xlink:title=" ">
<path fill="none" stroke="#63b8ff" d="M109.62,-213.16C133.83,-224.17 175.34,-242.45 212,-255.62 223.47,-259.74 236.04,-263.73 247.76,-267.24"/>
<polygon fill="#63b8ff" stroke="#63b8ff" points="246.78,-270.6 257.36,-270.06 248.75,-263.88 246.78,-270.6"/>
</a>
</g>
</g>
<!-- Node6 -->
<g id="Node000006" class="node">
<title>Node6</title>
<g id="a_Node000006"><a xlink:href="classFourFourAIPlayer.html#a626a29524a02b6b57e18b54303d4c570" target="_top" xlink:title="Helper to create undo move for any symbol.">
<polygon fill="white" stroke="#666666" points="554,-211.62 418,-211.62 418,-181.62 554,-181.62 554,-211.62"/>
<text text-anchor="start" x="426" y="-199.62" font-family="Helvetica,sans-Serif" font-size="10.00">FourFourAIPlayer::create</text>
<text text-anchor="middle" x="486" y="-188.62" font-family="Helvetica,sans-Serif" font-size="10.00">UndoMoveForSymbol</text>
</a>
</g>
</g>
<!-- Node1&#45;&gt;Node6 -->
<g id="edge6_Node000001_Node000006" class="edge">
<title>Node1&#45;&gt;Node6</title>
<g id="a_edge6_Node000001_Node000006"><a xlink:title=" ">
<path fill="none" stroke="#63b8ff" d="M176.39,-202.08C245.47,-200.86 340.99,-199.17 407.39,-197.99"/>
<polygon fill="#63b8ff" stroke="#63b8ff" points="407.86,-201.49 417.79,-197.81 407.73,-194.49 407.86,-201.49"/>
</a>
</g>
</g>
<!-- Node7 -->
<g id="Node000007" class="node">
<title>Node7</title>
<g id="a_Node000007"><a xlink:href="classAIPlayer.html#a025987884475f11a556e327dc2a67aaa" target="_top" xlink:title="Get the maximum search depth for minimax algorithm.">
<polygon fill="white" stroke="#666666" points="354.5,-175.62 232.5,-175.62 232.5,-145.62 354.5,-145.62 354.5,-175.62"/>
<text text-anchor="start" x="240.5" y="-163.62" font-family="Helvetica,sans-Serif" font-size="10.00">AIPlayer&lt; char &gt;::get</text>
<text text-anchor="middle" x="293.5" y="-152.62" font-family="Helvetica,sans-Serif" font-size="10.00">_max_depth</text>
</a>
</g>
</g>
<!-- Node1&#45;&gt;Node7 -->
<g id="edge8_Node000001_Node000007" class="edge">
<title>Node1&#45;&gt;Node7</title>
<g id="a_edge8_Node000001_Node000007"><a xlink:title=" ">
<path fill="none" stroke="#63b8ff" d="M134.16,-194.08C160.04,-188.61 193.06,-181.63 222.26,-175.46"/>
<polygon fill="#63b8ff" stroke="#63b8ff" points="223.34,-178.81 232.4,-173.32 221.89,-171.96 223.34,-178.81"/>
</a>
</g>
</g>
<!-- Node8 -->
<g id="Node000008" class="node">
<title>Node8</title>
<g id="a_Node000008"><a xlink:href="classAIPlayer.html#a706839a21ea012862d53269c478a56e6" target="_top" xlink:title="Get the opponent&#39;s symbol.">
<polygon fill="white" stroke="#666666" points="354.5,-127.62 232.5,-127.62 232.5,-97.62 354.5,-97.62 354.5,-127.62"/>
<text text-anchor="start" x="240.5" y="-115.62" font-family="Helvetica,sans-Serif" font-size="10.00">AIPlayer&lt; char &gt;::get</text>
<text text-anchor="middle" x="293.5" y="-104.62" font-family="Helvetica,sans-Serif" font-size="10.00">_opponent_symbol</text>
</a>
</g>
</g>
<!-- Node1&#45;&gt;Node8 -->
<g id="edge9_Node000001_Node000008" class="edge">
<title>Node1&#45;&gt;Node8</title>
<g id="a_edge9_Node000001_Node000008"><a xlink:title=" ">
<path fill="none" stroke="#63b8ff" d="M104.02,-194.09C126.7,-180.02 171.36,-153.53 212,-136.62 216.76,-134.64 221.74,-132.75 226.79,-130.96"/>
<polygon fill="#63b8ff" stroke="#63b8ff" points="228.19,-134.18 236.54,-127.65 225.94,-127.55 228.19,-134.18"/>
</a>
</g>
</g>
<!-- Node9 -->
<g id="Node000009" class="node">
<title>Node9</title>
<g id="a_Node000009"><a xlink:href="classFourFourAIPlayer.html#a8427da39d2c0c84609a00dbd51347c9f" target="_top" xlink:title="Override minimax to handle opponent pieces correctly.">
<polygon fill="white" stroke="#666666" points="368,-61.12 219,-61.12 219,-42.12 368,-42.12 368,-61.12"/>
<text text-anchor="middle" x="293.5" y="-49.12" font-family="Helvetica,sans-Serif" font-size="10.00">FourFourAIPlayer::minimax</text>
</a>
</g>
</g>
<!-- Node1&#45;&gt;Node9 -->
<g id="edge11_Node000001_Node000009" class="edge">
<title>Node1&#45;&gt;Node9</title>
<g id="a_edge11_Node000001_Node000009"><a xlink:title=" ">
<path fill="none" stroke="#63b8ff" d="M97.39,-193.88C116.17,-172.55 163.7,-121.05 212,-88.62 225.8,-79.36 242.29,-71.32 256.75,-65.13"/>
<polygon fill="#63b8ff" stroke="#63b8ff" points="258.47,-68.2 266.37,-61.14 255.79,-61.73 258.47,-68.2"/>
</a>
</g>
</g>
<!-- Node13 -->
<g id="Node000013" class="node">
<title>Node13</title>
<g id="a_Node000013"><a xlink:href="classPlayer.html#adb4e803a7ac0356b111b8ca79d766976" target="_top" xlink:title="Construct a player with name, symbol, and type.">
<polygon fill="white" stroke="#666666" points="528,-23.12 444,-23.12 444,-4.12 528,-4.12 528,-23.12"/>
<text text-anchor="middle" x="486" y="-11.12" font-family="Helvetica,sans-Serif" font-size="10.00">Player::Player</text>
</a>
</g>
</g>
<!-- Node1&#45;&gt;Node13 -->
<g id="edge20_Node000001_Node000013" class="edge">
<title>Node1&#45;&gt;Node13</title>
<g id="a_edge20_Node000001_Node000013"><a xlink:title=" ">
<path fill="none" stroke="#63b8ff" d="M92.49,-193.98C103.99,-163.74 143.96,-70.54 212,-32.62 281.1,5.88 375.8,2.34 433.57,-4.85"/>
<polygon fill="#63b8ff" stroke="#63b8ff" points="433.19,-8.33 443.56,-6.17 434.11,-1.39 433.19,-8.33"/>
</a>
</g>
</g>
<!-- Node2&#45;&gt;Node3 -->
<g id="edge2_Node000002_Node000003" class="edge">
<title>Node2&#45;&gt;Node3</title>
<g id="a_edge2_Node000002_Node000003"><a xlink:title=" ">
<path fill="none" stroke="#63b8ff" d="M368.56,-363.81C424.01,-366.82 500.41,-364.19 561,-336.62 597.86,-319.85 628.54,-282.31 644.55,-259.77"/>
<polygon fill="#63b8ff" stroke="#63b8ff" points="647.52,-261.62 650.3,-251.39 641.75,-257.65 647.52,-261.62"/>
</a>
</g>
</g>
<!-- Node2&#45;&gt;Node4 -->
<g id="edge3_Node000002_Node000004" class="edge">
<title>Node2&#45;&gt;Node4</title>
<g id="a_edge3_Node000002_Node000004"><a xlink:title=" ">
<path fill="none" stroke="#63b8ff" d="M342.57,-346.03C368.28,-340.91 400.11,-334.55 427.16,-329.16"/>
<polygon fill="#63b8ff" stroke="#63b8ff" points="428.15,-332.53 437.27,-327.14 426.78,-325.67 428.15,-332.53"/>
</a>
</g>
</g>
<!-- Node5&#45;&gt;Node4 -->
<g id="edge5_Node000005_Node000004" class="edge">
<title>Node5&#45;&gt;Node4</title>
<g id="a_edge5_Node000005_Node000004"><a xlink:title=" ">
<path fill="none" stroke="#63b8ff" d="M342.57,-289.21C368.28,-294.34 400.11,-300.69 427.16,-306.09"/>
<polygon fill="#63b8ff" stroke="#63b8ff" points="426.78,-309.58 437.27,-308.1 428.15,-302.71 426.78,-309.58"/>
</a>
</g>
</g>
<!-- Node9&#45;&gt;Node6 -->
<g id="edge14_Node000009_Node000006" class="edge">
<title>Node9&#45;&gt;Node6</title>
<g id="a_edge14_Node000009_Node000006"><a xlink:title=" ">
<path fill="none" stroke="#63b8ff" d="M328.72,-61.2C344.42,-67.02 362.33,-75.85 375,-88.62 402.46,-116.3 382.6,-141.91 411,-168.62 414.1,-171.53 417.52,-174.15 421.16,-176.5"/>
<polygon fill="#63b8ff" stroke="#63b8ff" points="419.54,-179.61 429.96,-181.52 423,-173.52 419.54,-179.61"/>
</a>
</g>
</g>
<!-- Node9&#45;&gt;Node9 -->
<g id="edge17_Node000009_Node000009" class="edge">
<title>Node9&#45;&gt;Node9</title>
<g id="a_edge17_Node000009_Node000009"><a xlink:title=" ">
<path fill="none" stroke="#63b8ff" d="M263.91,-61.2C249.51,-69.86 259.38,-79.12 293.5,-79.12 316.96,-79.12 328.95,-74.74 329.48,-69.19"/>
<polygon fill="#63b8ff" stroke="#63b8ff" points="332.07,-66.83 323.09,-61.2 326.61,-71.2 332.07,-66.83"/>
</a>
</g>
</g>
<!-- Node10 -->
<g id="Node000010" class="node">
<title>Node10</title>
<g id="a_Node000010"><a xlink:href="classFourFourAIPlayer.html#a3485e13e60dbd5ec0e28dfbcab943159" target="_top" xlink:title="Check if position has a piece belonging to a specific symbol.">
<polygon fill="white" stroke="#666666" points="561,-159.62 411,-159.62 411,-129.62 561,-129.62 561,-159.62"/>
<text text-anchor="start" x="419" y="-147.62" font-family="Helvetica,sans-Serif" font-size="10.00">FourFourAIPlayer::condition</text>
<text text-anchor="middle" x="486" y="-136.62" font-family="Helvetica,sans-Serif" font-size="10.00">_for_symbol</text>
</a>
</g>
</g>
<!-- Node9&#45;&gt;Node10 -->
<g id="edge12_Node000009_Node000010" class="edge">
<title>Node9&#45;&gt;Node10</title>
<g id="a_edge12_Node000009_Node000010"><a xlink:title=" ">
<path fill="none" stroke="#63b8ff" d="M319.68,-61.18C336.01,-67.86 357.44,-77.54 375,-88.62 392.62,-99.73 392.89,-108.34 411,-118.62 415.4,-121.12 420.09,-123.44 424.88,-125.58"/>
<polygon fill="#63b8ff" stroke="#63b8ff" points="423.6,-128.85 434.18,-129.49 426.31,-122.39 423.6,-128.85"/>
</a>
</g>
</g>
<!-- Node11 -->
<g id="Node000011" class="node">
<title>Node11</title>
<g id="a_Node000011"><a xlink:href="classFourFourAIPlayer.html#a3586ff3a70afa4f0aaf2309764d6a453" target="_top" xlink:title="Evaluate board position with heuristic.">
<polygon fill="white" stroke="#666666" points="560,-109.62 412,-109.62 412,-79.62 560,-79.62 560,-109.62"/>
<text text-anchor="start" x="420" y="-97.62" font-family="Helvetica,sans-Serif" font-size="10.00">FourFourAIPlayer::evaluate</text>
<text text-anchor="middle" x="486" y="-86.62" font-family="Helvetica,sans-Serif" font-size="10.00">_board</text>
</a>
</g>
</g>
<!-- Node9&#45;&gt;Node11 -->
<g id="edge15_Node000009_Node000011" class="edge">
<title>Node9&#45;&gt;Node11</title>
<g id="a_edge15_Node000009_Node000011"><a xlink:title=" ">
<path fill="none" stroke="#63b8ff" d="M336.78,-61.17C357.88,-65.93 384.06,-71.84 408.52,-77.36"/>
<polygon fill="#63b8ff" stroke="#63b8ff" points="407.99,-80.83 418.52,-79.62 409.53,-74 407.99,-80.83"/>
</a>
</g>
</g>
<!-- Node12 -->
<g id="Node000012" class="node">
<title>Node12</title>
<g id="a_Node000012"><a xlink:href="classPlayer.html#a3617a3ad0db435176a06948065f9a3a6" target="_top" xlink:title="Assign the board pointer for the player.">
<polygon fill="white" stroke="#666666" points="717.5,-83.12 597.5,-83.12 597.5,-64.12 717.5,-64.12 717.5,-83.12"/>
<text text-anchor="middle" x="657.5" y="-71.12" font-family="Helvetica,sans-Serif" font-size="10.00">Player::set_board_ptr</text>
</a>
</g>
</g>
<!-- Node9&#45;&gt;Node12 -->
<g id="edge19_Node000009_Node000012" class="edge">
<title>Node9&#45;&gt;Node12</title>
<g id="a_edge19_Node000009_Node000012"><a xlink:title=" ">
<path fill="none" stroke="#63b8ff" d="M368.19,-56.1C432.23,-59.99 524.31,-65.59 587.06,-69.4"/>
<polygon fill="#63b8ff" stroke="#63b8ff" points="587.06,-72.91 597.26,-70.02 587.49,-65.92 587.06,-72.91"/>
</a>
</g>
</g>
<!-- Node9&#45;&gt;Node13 -->
<g id="edge18_Node000009_Node000013" class="edge">
<title>Node9&#45;&gt;Node13</title>
<g id="a_edge18_Node000009_Node000013"><a xlink:title=" ">
<path fill="none" stroke="#63b8ff" d="M342.57,-42.03C370.35,-36.49 405.3,-29.52 433.62,-23.87"/>
<polygon fill="#63b8ff" stroke="#63b8ff" points="434.61,-27.24 443.73,-21.85 433.24,-20.38 434.61,-27.24"/>
</a>
</g>
</g>
<!-- Node10&#45;&gt;Node3 -->
<g id="edge13_Node000010_Node000003" class="edge">
<title>Node10&#45;&gt;Node3</title>
<g id="a_edge13_Node000010_Node000003"><a xlink:title=" ">
<path fill="none" stroke="#63b8ff" d="M532.45,-159.65C542.09,-163.43 552.05,-167.81 561,-172.62 589.43,-187.92 619.1,-210.58 637.68,-225.71"/>
<polygon fill="#63b8ff" stroke="#63b8ff" points="635.45,-228.41 645.39,-232.08 639.91,-223.01 635.45,-228.41"/>
</a>
</g>
</g>
<!-- Node11&#45;&gt;Node12 -->
<g id="edge16_Node000011_Node000012" class="edge">
<title>Node11&#45;&gt;Node12</title>
<g id="a_edge16_Node000011_Node000012"><a xlink:title=" ">
<path fill="none" stroke="#63b8ff" d="M560.36,-85.53C569.33,-84.42 578.47,-83.29 587.38,-82.19"/>
<polygon fill="#63b8ff" stroke="#63b8ff" points="587.82,-85.66 597.31,-80.96 586.96,-78.71 587.82,-85.66"/>
</a>
</g>
</g>
</g>
</svg>
