<?xml version="1.0" encoding="UTF-8" standalone="no"?>
<!DOCTYPE svg PUBLIC "-//W3C//DTD SVG 1.1//EN"
 "http://www.w3.org/Graphics/SVG/1.1/DTD/svg11.dtd">
<!-- Generated by graphviz version 2.43.0 (0)
 -->
<!-- Title: Pyramid_XO_Board::game_is_over Pages: 1 -->
<svg width="668pt" height="52pt"
 viewBox="0.00 0.00 668.00 51.50" xmlns="http://www.w3.org/2000/svg" xmlns:xlink="http://www.w3.org/1999/xlink">
<g id="graph0" class="graph" transform="scale(1 1) rotate(0) translate(4 47.5)">
<title>Pyramid_XO_Board::game_is_over</title>
<!-- Node1 -->
<g id="Node000001" class="node">
<title>Node1</title>
<g id="a_Node000001"><a xlink:title="Determines if the game is over (win or draw).">
<polygon fill="#999999" stroke="#666666" points="143,-30 0,-30 0,0 143,0 143,-30"/>
<text text-anchor="start" x="8" y="-18" font-family="Helvetica,sans-Serif" font-size="10.00">Pyramid_XO_Board::game</text>
<text text-anchor="middle" x="71.5" y="-7" font-family="Helvetica,sans-Serif" font-size="10.00">_is_over</text>
</a>
</g>
</g>
<!-- Node2 -->
<g id="Node000002" class="node">
<title>Node2</title>
<g id="a_Node000002"><a xlink:href="classPyramid__XO__Board.html#a8fe3a3f5772c0cda1eb6c847f6bdf39c" target="_top" xlink:title="Checks if the game has ended in a draw.">
<polygon fill="white" stroke="#666666" points="332,-43.5 179,-43.5 179,-24.5 332,-24.5 332,-43.5"/>
<text text-anchor="middle" x="255.5" y="-31.5" font-family="Helvetica,sans-Serif" font-size="10.00">Pyramid_XO_Board::is_draw</text>
</a>
</g>
</g>
<!-- Node1&#45;&gt;Node2 -->
<g id="edge1_Node000001_Node000002" class="edge">
<title>Node1&#45;&gt;Node2</title>
<g id="a_edge1_Node000001_Node000002"><a xlink:title=" ">
<path fill="none" stroke="#63b8ff" d="M143.13,-22.37C151.53,-23.25 160.18,-24.15 168.76,-25.05"/>
<polygon fill="#63b8ff" stroke="#63b8ff" points="168.48,-28.54 178.79,-26.1 169.21,-21.58 168.48,-28.54"/>
</a>
</g>
</g>
<!-- Node3 -->
<g id="Node000003" class="node">
<title>Node3</title>
<g id="a_Node000003"><a xlink:href="classPyramid__XO__Board.html#a757067ee52a8f5b1cf1b6777b6c7b331" target="_top" xlink:title="Checks if the given player has won the game.">
<polygon fill="white" stroke="#666666" points="514,-24.5 368,-24.5 368,-5.5 514,-5.5 514,-24.5"/>
<text text-anchor="middle" x="441" y="-12.5" font-family="Helvetica,sans-Serif" font-size="10.00">Pyramid_XO_Board::is_win</text>
</a>
</g>
</g>
<!-- Node1&#45;&gt;Node3 -->
<g id="edge4_Node000001_Node000003" class="edge">
<title>Node1&#45;&gt;Node3</title>
<g id="a_edge4_Node000001_Node000003"><a xlink:title=" ">
<path fill="none" stroke="#63b8ff" d="M143.36,-15C204.63,-15 293.26,-15 357.67,-15"/>
<polygon fill="#63b8ff" stroke="#63b8ff" points="357.79,-18.5 367.79,-15 357.79,-11.5 357.79,-18.5"/>
</a>
</g>
</g>
<!-- Node2&#45;&gt;Node3 -->
<g id="edge2_Node000002_Node000003" class="edge">
<title>Node2&#45;&gt;Node3</title>
<g id="a_edge2_Node000002_Node000003"><a xlink:title=" ">
<path fill="none" stroke="#63b8ff" d="M332.2,-26.16C340.55,-25.3 349.08,-24.41 357.51,-23.54"/>
<polygon fill="#63b8ff" stroke="#63b8ff" points="358.14,-26.99 367.72,-22.48 357.42,-20.03 358.14,-26.99"/>
</a>
</g>
</g>
<!-- Node4 -->
<g id="Node000004" class="node">
<title>Node4</title>
<g id="a_Node000004"><a xlink:href="classPlayer.html#af56f0bf98c0423a3a75b0848607d03a4" target="_top" xlink:title="Get the player&#39;s symbol.">
<polygon fill="white" stroke="#666666" points="660,-24.5 550,-24.5 550,-5.5 660,-5.5 660,-24.5"/>
<text text-anchor="middle" x="605" y="-12.5" font-family="Helvetica,sans-Serif" font-size="10.00">Player::get_symbol</text>
</a>
</g>
</g>
<!-- Node3&#45;&gt;Node4 -->
<g id="edge3_Node000003_Node000004" class="edge">
<title>Node3&#45;&gt;Node4</title>
<g id="a_edge3_Node000003_Node000004"><a xlink:title=" ">
<path fill="none" stroke="#63b8ff" d="M514.47,-15C522.76,-15 531.18,-15 539.36,-15"/>
<polygon fill="#63b8ff" stroke="#63b8ff" points="539.57,-18.5 549.57,-15 539.57,-11.5 539.57,-18.5"/>
</a>
</g>
</g>
</g>
</svg>
