<?xml version="1.0" encoding="UTF-8" standalone="no"?>
<!DOCTYPE svg PUBLIC "-//W3C//DTD SVG 1.1//EN"
 "http://www.w3.org/Graphics/SVG/1.1/DTD/svg11.dtd">
<!-- Generated by graphviz version 2.43.0 (0)
 -->
<!-- Title: Four_in_a_row_Board::is_win Pages: 1 -->
<svg width="440pt" height="59pt"
 viewBox="0.00 0.00 440.00 59.00" xmlns="http://www.w3.org/2000/svg" xmlns:xlink="http://www.w3.org/1999/xlink">
<g id="graph0" class="graph" transform="scale(1 1) rotate(0) translate(4 55)">
<title>Four_in_a_row_Board::is_win</title>
<!-- Node1 -->
<g id="Node000001" class="node">
<title>Node1</title>
<g id="a_Node000001"><a xlink:title="Checks if the given player has won the game.">
<polygon fill="#999999" stroke="#666666" points="432,-51 312,-51 312,-21 432,-21 432,-51"/>
<text text-anchor="start" x="320" y="-39" font-family="Helvetica,sans-Serif" font-size="10.00">Four_in_a_row_Board</text>
<text text-anchor="middle" x="372" y="-28" font-family="Helvetica,sans-Serif" font-size="10.00">::is_win</text>
</a>
</g>
</g>
<!-- Node2 -->
<g id="Node000002" class="node">
<title>Node2</title>
<g id="a_Node000002"><a xlink:href="classFour__in__a__row__Board.html#aa3d741c8cdddc115bb90c61bde8d899a" target="_top" xlink:title="Determines if the game is over (win or draw).">
<polygon fill="white" stroke="#666666" points="120,-51 0,-51 0,-21 120,-21 120,-51"/>
<text text-anchor="start" x="8" y="-39" font-family="Helvetica,sans-Serif" font-size="10.00">Four_in_a_row_Board</text>
<text text-anchor="middle" x="60" y="-28" font-family="Helvetica,sans-Serif" font-size="10.00">::game_is_over</text>
</a>
</g>
</g>
<!-- Node1&#45;&gt;Node2 -->
<g id="edge1_Node000001_Node000002" class="edge">
<title>Node1&#45;&gt;Node2</title>
<g id="a_edge1_Node000001_Node000002"><a xlink:title=" ">
<path fill="none" stroke="#63b8ff" d="M301.83,-38.44C293.13,-38.67 284.36,-38.87 276,-39 222.67,-39.84 209.33,-39.84 156,-39 144.37,-38.82 131.94,-38.51 120.03,-38.15"/>
<polygon fill="#63b8ff" stroke="#63b8ff" points="302.07,-41.93 311.97,-38.15 301.87,-34.94 302.07,-41.93"/>
</a>
</g>
</g>
<!-- Node3 -->
<g id="Node000003" class="node">
<title>Node3</title>
<g id="a_Node000003"><a xlink:href="classFour__in__a__row__Board.html#af4475a3ab1b31be663a75ed367f089aa" target="_top" xlink:title="Checks if the game has ended in a draw.">
<polygon fill="white" stroke="#666666" points="276,-30 156,-30 156,0 276,0 276,-30"/>
<text text-anchor="start" x="164" y="-18" font-family="Helvetica,sans-Serif" font-size="10.00">Four_in_a_row_Board</text>
<text text-anchor="middle" x="216" y="-7" font-family="Helvetica,sans-Serif" font-size="10.00">::is_draw</text>
</a>
</g>
</g>
<!-- Node1&#45;&gt;Node3 -->
<g id="edge2_Node000001_Node000003" class="edge">
<title>Node1&#45;&gt;Node3</title>
<g id="a_edge2_Node000001_Node000003"><a xlink:title=" ">
<path fill="none" stroke="#63b8ff" d="M301.91,-26.58C293.33,-25.41 284.61,-24.22 276.2,-23.07"/>
<polygon fill="#63b8ff" stroke="#63b8ff" points="301.52,-30.06 311.9,-27.94 302.46,-23.12 301.52,-30.06"/>
</a>
</g>
</g>
<!-- Node3&#45;&gt;Node2 -->
<g id="edge3_Node000003_Node000002" class="edge">
<title>Node3&#45;&gt;Node2</title>
<g id="a_edge3_Node000003_Node000002"><a xlink:title=" ">
<path fill="none" stroke="#63b8ff" d="M145.91,-24.42C137.33,-25.59 128.61,-26.78 120.2,-27.93"/>
<polygon fill="#63b8ff" stroke="#63b8ff" points="146.46,-27.88 155.9,-23.06 145.52,-20.94 146.46,-27.88"/>
</a>
</g>
</g>
</g>
</svg>
