<?xml version="1.0" encoding="UTF-8" standalone="no"?>
<!DOCTYPE svg PUBLIC "-//W3C//DTD SVG 1.1//EN"
 "http://www.w3.org/Graphics/SVG/1.1/DTD/svg11.dtd">
<!-- Generated by graphviz version 2.43.0 (0)
 -->
<!-- Title: Diamond_Tic_Tac_Toe_Board::is_win Pages: 1 -->
<svg width="451pt" height="59pt"
 viewBox="0.00 0.00 451.00 59.00" xmlns="http://www.w3.org/2000/svg" xmlns:xlink="http://www.w3.org/1999/xlink">
<g id="graph0" class="graph" transform="scale(1 1) rotate(0) translate(4 55)">
<title>Diamond_Tic_Tac_Toe_Board::is_win</title>
<!-- Node1 -->
<g id="Node000001" class="node">
<title>Node1</title>
<g id="a_Node000001"><a xlink:title="Checks if the given player has won the game.">
<polygon fill="#999999" stroke="#666666" points="443,-51 320,-51 320,-21 443,-21 443,-51"/>
<text text-anchor="start" x="328" y="-39" font-family="Helvetica,sans-Serif" font-size="10.00">Diamond_Tic_Tac_Toe</text>
<text text-anchor="middle" x="381.5" y="-28" font-family="Helvetica,sans-Serif" font-size="10.00">_Board::is_win</text>
</a>
</g>
</g>
<!-- Node2 -->
<g id="Node000002" class="node">
<title>Node2</title>
<g id="a_Node000002"><a xlink:href="classDiamond__Tic__Tac__Toe__Board.html#a8b8463957057101e5ae2d9d4b05cdb29" target="_top" xlink:title="Determines if the game is over (win or draw).">
<polygon fill="white" stroke="#666666" points="125,-51 0,-51 0,-21 125,-21 125,-51"/>
<text text-anchor="start" x="8" y="-39" font-family="Helvetica,sans-Serif" font-size="10.00">Diamond_Tic_Tac_Toe</text>
<text text-anchor="middle" x="62.5" y="-28" font-family="Helvetica,sans-Serif" font-size="10.00">_Board::game_is_over</text>
</a>
</g>
</g>
<!-- Node1&#45;&gt;Node2 -->
<g id="edge1_Node000001_Node000002" class="edge">
<title>Node1&#45;&gt;Node2</title>
<g id="a_edge1_Node000001_Node000002"><a xlink:title=" ">
<path fill="none" stroke="#63b8ff" d="M309.67,-38.45C301.02,-38.68 292.31,-38.87 284,-39 229.34,-39.85 215.66,-39.84 161,-39 149.4,-38.82 137.03,-38.52 125.13,-38.18"/>
<polygon fill="#63b8ff" stroke="#63b8ff" points="309.86,-41.95 319.76,-38.18 309.67,-34.95 309.86,-41.95"/>
</a>
</g>
</g>
<!-- Node3 -->
<g id="Node000003" class="node">
<title>Node3</title>
<g id="a_Node000003"><a xlink:href="classDiamond__Tic__Tac__Toe__Board.html#a53278a31e7bdeb673ed49f35ff38d541" target="_top" xlink:title="Checks if the game has ended in a draw.">
<polygon fill="white" stroke="#666666" points="284,-30 161,-30 161,0 284,0 284,-30"/>
<text text-anchor="start" x="169" y="-18" font-family="Helvetica,sans-Serif" font-size="10.00">Diamond_Tic_Tac_Toe</text>
<text text-anchor="middle" x="222.5" y="-7" font-family="Helvetica,sans-Serif" font-size="10.00">_Board::is_draw</text>
</a>
</g>
</g>
<!-- Node1&#45;&gt;Node3 -->
<g id="edge2_Node000001_Node000003" class="edge">
<title>Node1&#45;&gt;Node3</title>
<g id="a_edge2_Node000001_Node000003"><a xlink:title=" ">
<path fill="none" stroke="#63b8ff" d="M309.79,-26.54C301.19,-25.39 292.47,-24.23 284.04,-23.1"/>
<polygon fill="#63b8ff" stroke="#63b8ff" points="309.42,-30.02 319.8,-27.88 310.35,-23.09 309.42,-30.02"/>
</a>
</g>
</g>
<!-- Node3&#45;&gt;Node2 -->
<g id="edge3_Node000003_Node000002" class="edge">
<title>Node3&#45;&gt;Node2</title>
<g id="a_edge3_Node000003_Node000002"><a xlink:title=" ">
<path fill="none" stroke="#63b8ff" d="M150.84,-24.39C142.23,-25.54 133.48,-26.7 125.02,-27.82"/>
<polygon fill="#63b8ff" stroke="#63b8ff" points="151.41,-27.85 160.86,-23.06 150.49,-20.91 151.41,-27.85"/>
</a>
</g>
</g>
</g>
</svg>
