<?xml version="1.0" encoding="UTF-8" standalone="no"?>
<!DOCTYPE svg PUBLIC "-//W3C//DTD SVG 1.1//EN"
 "http://www.w3.org/Graphics/SVG/1.1/DTD/svg11.dtd">
<!-- Generated by graphviz version 2.43.0 (0)
 -->
<!-- Title: AIPlayer::generate_move_values Pages: 1 -->
<svg width="428pt" height="61pt"
 viewBox="0.00 0.00 428.00 60.50" xmlns="http://www.w3.org/2000/svg" xmlns:xlink="http://www.w3.org/1999/xlink">
<g id="graph0" class="graph" transform="scale(1 1) rotate(0) translate(4 56.5)">
<title>AIPlayer::generate_move_values</title>
<!-- Node1 -->
<g id="Node000001" class="node">
<title>Node1</title>
<g id="a_Node000001"><a xlink:title="Generate possible move values for a given position.">
<polygon fill="#999999" stroke="#666666" points="420,-52.5 313,-52.5 313,-22.5 420,-22.5 420,-52.5"/>
<text text-anchor="start" x="321" y="-40.5" font-family="Helvetica,sans-Serif" font-size="10.00">AIPlayer::generate</text>
<text text-anchor="middle" x="366.5" y="-29.5" font-family="Helvetica,sans-Serif" font-size="10.00">_move_values</text>
</a>
</g>
</g>
<!-- Node2 -->
<g id="Node000002" class="node">
<title>Node2</title>
<g id="a_Node000002"><a xlink:href="classAIPlayer.html#a962dc21adb2a91029e4d903e701c191a" target="_top" xlink:title="Calculate and return the best move using minimax algorithm.">
<polygon fill="white" stroke="#666666" points="134,-47 0,-47 0,-28 134,-28 134,-47"/>
<text text-anchor="middle" x="67" y="-35" font-family="Helvetica,sans-Serif" font-size="10.00">AIPlayer::calculateMove</text>
</a>
</g>
</g>
<!-- Node1&#45;&gt;Node2 -->
<g id="edge1_Node000001_Node000002" class="edge">
<title>Node1&#45;&gt;Node2</title>
<g id="a_edge1_Node000001_Node000002"><a xlink:title=" ">
<path fill="none" stroke="#63b8ff" d="M302.66,-44.68C294.05,-45.44 285.31,-46.08 277,-46.5 229.51,-48.91 217.51,-48.59 170,-46.5 158.37,-45.99 146.01,-45.15 134.06,-44.18"/>
<polygon fill="#63b8ff" stroke="#63b8ff" points="303.05,-48.16 312.69,-43.76 302.41,-41.19 303.05,-48.16"/>
</a>
</g>
</g>
<!-- Node3 -->
<g id="Node000003" class="node">
<title>Node3</title>
<g id="a_Node000003"><a xlink:href="classAIPlayer.html#a4c0c158048dc4b7fabb54dafc9fd0659" target="_top" xlink:title="Minimax algorithm with alpha&#45;beta pruning.">
<polygon fill="white" stroke="#666666" points="277,-19 170,-19 170,0 277,0 277,-19"/>
<text text-anchor="middle" x="223.5" y="-7" font-family="Helvetica,sans-Serif" font-size="10.00">AIPlayer::minimax</text>
</a>
</g>
</g>
<!-- Node1&#45;&gt;Node3 -->
<g id="edge2_Node000001_Node000003" class="edge">
<title>Node1&#45;&gt;Node3</title>
<g id="a_edge2_Node000001_Node000003"><a xlink:title=" ">
<path fill="none" stroke="#63b8ff" d="M302.87,-25.06C292.64,-23.03 282.19,-20.96 272.39,-19.01"/>
<polygon fill="#63b8ff" stroke="#63b8ff" points="302.51,-28.56 313,-27.07 303.87,-21.69 302.51,-28.56"/>
</a>
</g>
</g>
<!-- Node3&#45;&gt;Node2 -->
<g id="edge3_Node000003_Node000002" class="edge">
<title>Node3&#45;&gt;Node2</title>
<g id="a_edge3_Node000003_Node000002"><a xlink:title=" ">
<path fill="none" stroke="#63b8ff" d="M159.9,-20.84C146.82,-23.21 133.17,-25.69 120.5,-27.99"/>
<polygon fill="#63b8ff" stroke="#63b8ff" points="160.55,-24.28 169.76,-19.06 159.3,-17.4 160.55,-24.28"/>
</a>
</g>
</g>
<!-- Node3&#45;&gt;Node3 -->
<g id="edge4_Node000003_Node000003" class="edge">
<title>Node3&#45;&gt;Node3</title>
<g id="a_edge4_Node000003_Node000003"><a xlink:title=" ">
<path fill="none" stroke="#63b8ff" d="M249.91,-28.19C248.47,-33.2 239.67,-37 223.5,-37 198.26,-37 190.97,-27.73 201.61,-19.08"/>
<polygon fill="#63b8ff" stroke="#63b8ff" points="252.97,-26.48 245.39,-19.08 246.7,-29.6 252.97,-26.48"/>
</a>
</g>
</g>
</g>
</svg>
