<?xml version="1.0" encoding="UTF-8" standalone="no"?>
<!DOCTYPE svg PUBLIC "-//W3C//DTD SVG 1.1//EN"
 "http://www.w3.org/Graphics/SVG/1.1/DTD/svg11.dtd">
<!-- Generated by graphviz version 2.43.0 (0)
 -->
<!-- Title: Misere_Tic_Tac_Toe_UI::setup_players Pages: 1 -->
<svg width="317pt" height="124pt"
 viewBox="0.00 0.00 317.00 124.00" xmlns="http://www.w3.org/2000/svg" xmlns:xlink="http://www.w3.org/1999/xlink">
<g id="graph0" class="graph" transform="scale(1 1) rotate(0) translate(4 120)">
<title>Misere_Tic_Tac_Toe_UI::setup_players</title>
<!-- Node1 -->
<g id="Node000001" class="node">
<title>Node1</title>
<g id="a_Node000001"><a xlink:title="Setup smartPlayer.">
<polygon fill="#999999" stroke="#666666" points="112,-73 0,-73 0,-43 112,-43 112,-73"/>
<text text-anchor="start" x="8" y="-61" font-family="Helvetica,sans-Serif" font-size="10.00">Misere_Tic_Tac_Toe</text>
<text text-anchor="middle" x="56" y="-50" font-family="Helvetica,sans-Serif" font-size="10.00">_UI::setup_players</text>
</a>
</g>
</g>
<!-- Node2 -->
<g id="Node000002" class="node">
<title>Node2</title>
<g id="a_Node000002"><a xlink:href="classMisere__Tic__Tac__Toe__UI.html#ac79b0792cb9c8b62efe244232f82a141" target="_top" xlink:title="Creates a player of the specified type.">
<polygon fill="white" stroke="#666666" points="284.5,-116 172.5,-116 172.5,-86 284.5,-86 284.5,-116"/>
<text text-anchor="start" x="180.5" y="-104" font-family="Helvetica,sans-Serif" font-size="10.00">Misere_Tic_Tac_Toe</text>
<text text-anchor="middle" x="228.5" y="-93" font-family="Helvetica,sans-Serif" font-size="10.00">_UI::create_player</text>
</a>
</g>
</g>
<!-- Node1&#45;&gt;Node2 -->
<g id="edge1_Node000001_Node000002" class="edge">
<title>Node1&#45;&gt;Node2</title>
<g id="a_edge1_Node000001_Node000002"><a xlink:title=" ">
<path fill="none" stroke="#63b8ff" d="M112.36,-71.96C128.3,-75.98 145.84,-80.41 162.32,-84.56"/>
<polygon fill="#63b8ff" stroke="#63b8ff" points="161.87,-88.06 172.42,-87.11 163.58,-81.27 161.87,-88.06"/>
</a>
</g>
</g>
<!-- Node3 -->
<g id="Node000003" class="node">
<title>Node3</title>
<g id="a_Node000003"><a xlink:href="classUI.html#a7b1603de1f73fbb4006e4f00a27c44da" target="_top" xlink:title="Ask the user for the player&#39;s name.">
<polygon fill="white" stroke="#666666" points="309,-67.5 148,-67.5 148,-48.5 309,-48.5 309,-67.5"/>
<text text-anchor="middle" x="228.5" y="-55.5" font-family="Helvetica,sans-Serif" font-size="10.00">UI&lt; char &gt;::get_player_name</text>
</a>
</g>
</g>
<!-- Node1&#45;&gt;Node3 -->
<g id="edge2_Node000001_Node000003" class="edge">
<title>Node1&#45;&gt;Node3</title>
<g id="a_edge2_Node000001_Node000003"><a xlink:title=" ">
<path fill="none" stroke="#63b8ff" d="M112.36,-58C120.53,-58 129.13,-58 137.79,-58"/>
<polygon fill="#63b8ff" stroke="#63b8ff" points="137.96,-61.5 147.96,-58 137.96,-54.5 137.96,-61.5"/>
</a>
</g>
</g>
<!-- Node4 -->
<g id="Node000004" class="node">
<title>Node4</title>
<g id="a_Node000004"><a xlink:href="classUI.html#ac3d45fea2bbcaa0372d8e5101e116ca1" target="_top" xlink:title="Ask the user to choose the player type from a list.">
<polygon fill="white" stroke="#666666" points="292.5,-30 164.5,-30 164.5,0 292.5,0 292.5,-30"/>
<text text-anchor="start" x="172.5" y="-18" font-family="Helvetica,sans-Serif" font-size="10.00">UI&lt; char &gt;::get_player</text>
<text text-anchor="middle" x="228.5" y="-7" font-family="Helvetica,sans-Serif" font-size="10.00">_type_choice</text>
</a>
</g>
</g>
<!-- Node1&#45;&gt;Node4 -->
<g id="edge3_Node000001_Node000004" class="edge">
<title>Node1&#45;&gt;Node4</title>
<g id="a_edge3_Node000001_Node000004"><a xlink:title=" ">
<path fill="none" stroke="#63b8ff" d="M112.36,-44.04C126.95,-40.36 142.89,-36.34 158.12,-32.5"/>
<polygon fill="#63b8ff" stroke="#63b8ff" points="159.17,-35.84 168.01,-30 157.46,-29.05 159.17,-35.84"/>
</a>
</g>
</g>
</g>
</svg>
