<?xml version="1.0" encoding="UTF-8" standalone="no"?>
<!DOCTYPE svg PUBLIC "-//W3C//DTD SVG 1.1//EN"
 "http://www.w3.org/Graphics/SVG/1.1/DTD/svg11.dtd">
<!-- Generated by graphviz version 2.43.0 (0)
 -->
<!-- Title: Infinity_X_O_Board::update_board Pages: 1 -->
<svg width="260pt" height="101pt"
 viewBox="0.00 0.00 260.00 101.00" xmlns="http://www.w3.org/2000/svg" xmlns:xlink="http://www.w3.org/1999/xlink">
<g id="graph0" class="graph" transform="scale(1 1) rotate(0) translate(4 97)">
<title>Infinity_X_O_Board::update_board</title>
<!-- Node1 -->
<g id="Node000001" class="node">
<title>Node1</title>
<g id="a_Node000001"><a xlink:title="Updates the board with a player&#39;s move.">
<polygon fill="#999999" stroke="#666666" points="109,-61.5 0,-61.5 0,-31.5 109,-31.5 109,-61.5"/>
<text text-anchor="start" x="8" y="-49.5" font-family="Helvetica,sans-Serif" font-size="10.00">Infinity_X_O_Board</text>
<text text-anchor="middle" x="54.5" y="-38.5" font-family="Helvetica,sans-Serif" font-size="10.00">::update_board</text>
</a>
</g>
</g>
<!-- Node2 -->
<g id="Node000002" class="node">
<title>Node2</title>
<g id="a_Node000002"><a xlink:href="classMove.html#a595bf740852c05a1cb425ef2640fd4ff" target="_top" xlink:title="Get the move symbol.">
<polygon fill="white" stroke="#666666" points="252,-93 145,-93 145,-74 252,-74 252,-93"/>
<text text-anchor="middle" x="198.5" y="-81" font-family="Helvetica,sans-Serif" font-size="10.00">Move::get_symbol</text>
</a>
</g>
</g>
<!-- Node1&#45;&gt;Node2 -->
<g id="edge1_Node000001_Node000002" class="edge">
<title>Node1&#45;&gt;Node2</title>
<g id="a_edge1_Node000001_Node000002"><a xlink:title=" ">
<path fill="none" stroke="#63b8ff" d="M109.18,-60.49C122.95,-64.08 137.65,-67.9 151.02,-71.39"/>
<polygon fill="#63b8ff" stroke="#63b8ff" points="150.39,-74.84 160.95,-73.98 152.15,-68.07 150.39,-74.84"/>
</a>
</g>
</g>
<!-- Node3 -->
<g id="Node000003" class="node">
<title>Node3</title>
<g id="a_Node000003"><a xlink:href="classMove.html#a9d4f543a81e361f872d37bcfb64d5b55" target="_top" xlink:title="Get row index.">
<polygon fill="white" stroke="#666666" points="237,-56 160,-56 160,-37 237,-37 237,-56"/>
<text text-anchor="middle" x="198.5" y="-44" font-family="Helvetica,sans-Serif" font-size="10.00">Move::get_x</text>
</a>
</g>
</g>
<!-- Node1&#45;&gt;Node3 -->
<g id="edge2_Node000001_Node000003" class="edge">
<title>Node1&#45;&gt;Node3</title>
<g id="a_edge2_Node000001_Node000003"><a xlink:title=" ">
<path fill="none" stroke="#63b8ff" d="M109.18,-46.5C122.45,-46.5 136.57,-46.5 149.54,-46.5"/>
<polygon fill="#63b8ff" stroke="#63b8ff" points="149.65,-50 159.65,-46.5 149.65,-43 149.65,-50"/>
</a>
</g>
</g>
<!-- Node4 -->
<g id="Node000004" class="node">
<title>Node4</title>
<g id="a_Node000004"><a xlink:href="classMove.html#a96469802a55c9083a1e93c7edec8a00c" target="_top" xlink:title="Get column index.">
<polygon fill="white" stroke="#666666" points="237,-19 160,-19 160,0 237,0 237,-19"/>
<text text-anchor="middle" x="198.5" y="-7" font-family="Helvetica,sans-Serif" font-size="10.00">Move::get_y</text>
</a>
</g>
</g>
<!-- Node1&#45;&gt;Node4 -->
<g id="edge3_Node000001_Node000004" class="edge">
<title>Node1&#45;&gt;Node4</title>
<g id="a_edge3_Node000001_Node000004"><a xlink:title=" ">
<path fill="none" stroke="#63b8ff" d="M109.18,-32.51C122.95,-28.92 137.65,-25.1 151.02,-21.61"/>
<polygon fill="#63b8ff" stroke="#63b8ff" points="152.15,-24.93 160.95,-19.02 150.39,-18.16 152.15,-24.93"/>
</a>
</g>
</g>
</g>
</svg>
