<?xml version="1.0" encoding="UTF-8" standalone="no"?>
<!DOCTYPE svg PUBLIC "-//W3C//DTD SVG 1.1//EN"
 "http://www.w3.org/Graphics/SVG/1.1/DTD/svg11.dtd">
<!-- Generated by graphviz version 2.43.0 (0)
 -->
<!-- Title: X_O_5x5_Board::game_is_over Pages: 1 -->
<svg width="454pt" height="64pt"
 viewBox="0.00 0.00 454.00 64.00" xmlns="http://www.w3.org/2000/svg" xmlns:xlink="http://www.w3.org/1999/xlink">
<g id="graph0" class="graph" transform="scale(1 1) rotate(0) translate(4 60)">
<title>X_O_5x5_Board::game_is_over</title>
<!-- Node1 -->
<g id="Node000001" class="node">
<title>Node1</title>
<g id="a_Node000001"><a xlink:title="Check if the game is over.">
<polygon fill="#999999" stroke="#666666" points="127,-42.5 0,-42.5 0,-12.5 127,-12.5 127,-42.5"/>
<text text-anchor="start" x="8" y="-30.5" font-family="Helvetica,sans-Serif" font-size="10.00">X_O_5x5_Board::game</text>
<text text-anchor="middle" x="63.5" y="-19.5" font-family="Helvetica,sans-Serif" font-size="10.00">_is_over</text>
</a>
</g>
</g>
<!-- Node2 -->
<g id="Node000002" class="node">
<title>Node2</title>
<g id="a_Node000002"><a xlink:href="classX__O__5x5__Board.html#af71219aef79883d9aab1fb4c7b5b3f87" target="_top" xlink:title="Check if the game ended in a draw.">
<polygon fill="white" stroke="#666666" points="300,-56 163,-56 163,-37 300,-37 300,-56"/>
<text text-anchor="middle" x="231.5" y="-44" font-family="Helvetica,sans-Serif" font-size="10.00">X_O_5x5_Board::is_draw</text>
</a>
</g>
</g>
<!-- Node1&#45;&gt;Node2 -->
<g id="edge1_Node000001_Node000002" class="edge">
<title>Node1&#45;&gt;Node2</title>
<g id="a_edge1_Node000001_Node000002"><a xlink:title=" ">
<path fill="none" stroke="#63b8ff" d="M127.26,-34.68C135.64,-35.64 144.31,-36.64 152.91,-37.62"/>
<polygon fill="#63b8ff" stroke="#63b8ff" points="152.61,-41.11 162.94,-38.77 153.41,-34.15 152.61,-41.11"/>
</a>
</g>
</g>
<!-- Node3 -->
<g id="Node000003" class="node">
<title>Node3</title>
<g id="a_Node000003"><a xlink:href="classX__O__5x5__Board.html#a90eeba3a2b960065c81ab50b08997da5" target="_top" xlink:title="Check if a player has won.">
<polygon fill="white" stroke="#666666" points="296.5,-19 166.5,-19 166.5,0 296.5,0 296.5,-19"/>
<text text-anchor="middle" x="231.5" y="-7" font-family="Helvetica,sans-Serif" font-size="10.00">X_O_5x5_Board::is_win</text>
</a>
</g>
</g>
<!-- Node1&#45;&gt;Node3 -->
<g id="edge2_Node000001_Node000003" class="edge">
<title>Node1&#45;&gt;Node3</title>
<g id="a_edge2_Node000001_Node000003"><a xlink:title=" ">
<path fill="none" stroke="#63b8ff" d="M127.26,-20.69C136.73,-19.67 146.58,-18.6 156.26,-17.55"/>
<polygon fill="#63b8ff" stroke="#63b8ff" points="156.71,-21.02 166.27,-16.46 155.95,-14.06 156.71,-21.02"/>
</a>
</g>
</g>
<!-- Node4 -->
<g id="Node000004" class="node">
<title>Node4</title>
<g id="a_Node000004"><a xlink:href="classPlayer.html#af56f0bf98c0423a3a75b0848607d03a4" target="_top" xlink:title="Get the player&#39;s symbol.">
<polygon fill="white" stroke="#666666" points="446,-19 336,-19 336,0 446,0 446,-19"/>
<text text-anchor="middle" x="391" y="-7" font-family="Helvetica,sans-Serif" font-size="10.00">Player::get_symbol</text>
</a>
</g>
</g>
<!-- Node3&#45;&gt;Node4 -->
<g id="edge3_Node000003_Node000004" class="edge">
<title>Node3&#45;&gt;Node4</title>
<g id="a_edge3_Node000003_Node000004"><a xlink:title=" ">
<path fill="none" stroke="#63b8ff" d="M296.56,-9.5C306.07,-9.5 315.87,-9.5 325.39,-9.5"/>
<polygon fill="#63b8ff" stroke="#63b8ff" points="325.58,-13 335.58,-9.5 325.58,-6 325.58,-13"/>
</a>
</g>
</g>
</g>
</svg>
