<?xml version="1.0" encoding="UTF-8" standalone="no"?>
<!DOCTYPE svg PUBLIC "-//W3C//DTD SVG 1.1//EN"
 "http://www.w3.org/Graphics/SVG/1.1/DTD/svg11.dtd">
<!-- Generated by graphviz version 2.43.0 (0)
 -->
<!-- Title: Word_XO_Board::game_is_over Pages: 1 -->
<svg width="785pt" height="64pt"
 viewBox="0.00 0.00 785.00 64.00" xmlns="http://www.w3.org/2000/svg" xmlns:xlink="http://www.w3.org/1999/xlink">
<g id="graph0" class="graph" transform="scale(1 1) rotate(0) translate(4 60)">
<title>Word_XO_Board::game_is_over</title>
<!-- Node1 -->
<g id="Node000001" class="node">
<title>Node1</title>
<g id="a_Node000001"><a xlink:title="Determines if the game is over (win or draw).">
<polygon fill="#999999" stroke="#666666" points="128,-42.5 0,-42.5 0,-12.5 128,-12.5 128,-42.5"/>
<text text-anchor="start" x="8" y="-30.5" font-family="Helvetica,sans-Serif" font-size="10.00">Word_XO_Board::game</text>
<text text-anchor="middle" x="64" y="-19.5" font-family="Helvetica,sans-Serif" font-size="10.00">_is_over</text>
</a>
</g>
</g>
<!-- Node2 -->
<g id="Node000002" class="node">
<title>Node2</title>
<g id="a_Node000002"><a xlink:href="classWord__XO__Board.html#a8c05ad3bda2665753e852b60144bd520" target="_top" xlink:title="Checks if the game has ended in a draw.">
<polygon fill="white" stroke="#666666" points="301,-56 164,-56 164,-37 301,-37 301,-56"/>
<text text-anchor="middle" x="232.5" y="-44" font-family="Helvetica,sans-Serif" font-size="10.00">Word_XO_Board::is_draw</text>
</a>
</g>
</g>
<!-- Node1&#45;&gt;Node2 -->
<g id="edge1_Node000001_Node000002" class="edge">
<title>Node1&#45;&gt;Node2</title>
<g id="a_edge1_Node000001_Node000002"><a xlink:title=" ">
<path fill="none" stroke="#63b8ff" d="M128.42,-34.74C136.74,-35.69 145.35,-36.67 153.87,-37.64"/>
<polygon fill="#63b8ff" stroke="#63b8ff" points="153.49,-41.12 163.82,-38.78 154.28,-34.17 153.49,-41.12"/>
</a>
</g>
</g>
<!-- Node3 -->
<g id="Node000003" class="node">
<title>Node3</title>
<g id="a_Node000003"><a xlink:href="classWord__XO__Board.html#a423c6610a952ef533ed2ac414992e0bc" target="_top" xlink:title="Checks if the given player has won the game.">
<polygon fill="white" stroke="#666666" points="468,-37 337,-37 337,-18 468,-18 468,-37"/>
<text text-anchor="middle" x="402.5" y="-25" font-family="Helvetica,sans-Serif" font-size="10.00">Word_XO_Board::is_win</text>
</a>
</g>
</g>
<!-- Node1&#45;&gt;Node3 -->
<g id="edge6_Node000001_Node000003" class="edge">
<title>Node1&#45;&gt;Node3</title>
<g id="a_edge6_Node000001_Node000003"><a xlink:title=" ">
<path fill="none" stroke="#63b8ff" d="M128.29,-27.5C184.62,-27.5 267.09,-27.5 326.67,-27.5"/>
<polygon fill="#63b8ff" stroke="#63b8ff" points="326.77,-31 336.77,-27.5 326.77,-24 326.77,-31"/>
</a>
</g>
</g>
<!-- Node2&#45;&gt;Node3 -->
<g id="edge2_Node000002_Node000003" class="edge">
<title>Node2&#45;&gt;Node3</title>
<g id="a_edge2_Node000002_Node000003"><a xlink:title=" ">
<path fill="none" stroke="#63b8ff" d="M301.35,-38.83C309.79,-37.87 318.46,-36.89 327,-35.93"/>
<polygon fill="#63b8ff" stroke="#63b8ff" points="327.39,-39.4 336.94,-34.8 326.61,-32.45 327.39,-39.4"/>
</a>
</g>
</g>
<!-- Node4 -->
<g id="Node000004" class="node">
<title>Node4</title>
<g id="a_Node000004"><a xlink:href="Words__XO_8cpp.html#a647f8969a15d4c17a2317ee247d62223" target="_top" xlink:title=" ">
<polygon fill="white" stroke="#666666" points="597,-56 521,-56 521,-37 597,-37 597,-56"/>
<text text-anchor="middle" x="559" y="-44" font-family="Helvetica,sans-Serif" font-size="10.00">Check_word</text>
</a>
</g>
</g>
<!-- Node3&#45;&gt;Node4 -->
<g id="edge3_Node000003_Node000004" class="edge">
<title>Node3&#45;&gt;Node4</title>
<g id="a_edge3_Node000003_Node000004"><a xlink:title=" ">
<path fill="none" stroke="#63b8ff" d="M468.13,-35.45C482.49,-37.21 497.45,-39.05 510.96,-40.71"/>
<polygon fill="#63b8ff" stroke="#63b8ff" points="510.61,-44.2 520.96,-41.95 511.46,-37.25 510.61,-44.2"/>
</a>
</g>
</g>
<!-- Node6 -->
<g id="Node000006" class="node">
<title>Node6</title>
<g id="a_Node000006"><a xlink:href="classPlayer.html#af56f0bf98c0423a3a75b0848607d03a4" target="_top" xlink:title="Get the player&#39;s symbol.">
<polygon fill="white" stroke="#666666" points="614,-19 504,-19 504,0 614,0 614,-19"/>
<text text-anchor="middle" x="559" y="-7" font-family="Helvetica,sans-Serif" font-size="10.00">Player::get_symbol</text>
</a>
</g>
</g>
<!-- Node3&#45;&gt;Node6 -->
<g id="edge5_Node000003_Node000006" class="edge">
<title>Node3&#45;&gt;Node6</title>
<g id="a_edge5_Node000003_Node000006"><a xlink:title=" ">
<path fill="none" stroke="#63b8ff" d="M468.13,-19.97C476.59,-18.98 485.27,-17.97 493.72,-16.99"/>
<polygon fill="#63b8ff" stroke="#63b8ff" points="494.38,-20.44 503.91,-15.8 493.57,-13.48 494.38,-20.44"/>
</a>
</g>
</g>
<!-- Node5 -->
<g id="Node000005" class="node">
<title>Node5</title>
<g id="a_Node000005"><a xlink:href="Words__XO_8cpp.html#ab65af4b7592bc63ebf5a2b8644511c14" target="_top" xlink:title=" ">
<polygon fill="white" stroke="#666666" points="777,-56 650,-56 650,-37 777,-37 777,-56"/>
<text text-anchor="middle" x="713.5" y="-44" font-family="Helvetica,sans-Serif" font-size="10.00">load_global_dictionary</text>
</a>
</g>
</g>
<!-- Node4&#45;&gt;Node5 -->
<g id="edge4_Node000004_Node000005" class="edge">
<title>Node4&#45;&gt;Node5</title>
<g id="a_edge4_Node000004_Node000005"><a xlink:title=" ">
<path fill="none" stroke="#63b8ff" d="M597.31,-46.5C610.13,-46.5 624.96,-46.5 639.63,-46.5"/>
<polygon fill="#63b8ff" stroke="#63b8ff" points="639.73,-50 649.73,-46.5 639.73,-43 639.73,-50"/>
</a>
</g>
</g>
</g>
</svg>
