<?xml version="1.0" encoding="UTF-8" standalone="no"?>
<!DOCTYPE svg PUBLIC "-//W3C//DTD SVG 1.1//EN"
 "http://www.w3.org/Graphics/SVG/1.1/DTD/svg11.dtd">
<!-- Generated by graphviz version 2.43.0 (0)
 -->
<!-- Title: Player::get_board_ptr Pages: 1 -->
<svg width="321pt" height="224pt"
 viewBox="0.00 0.00 321.00 224.00" xmlns="http://www.w3.org/2000/svg" xmlns:xlink="http://www.w3.org/1999/xlink">
<g id="graph0" class="graph" transform="scale(1 1) rotate(0) translate(4 220)">
<title>Player::get_board_ptr</title>
<!-- Node1 -->
<g id="Node000001" class="node">
<title>Node1</title>
<g id="a_Node000001"><a xlink:title="Get a pointer to the game board.">
<polygon fill="#999999" stroke="#666666" points="313,-114 192,-114 192,-95 313,-95 313,-114"/>
<text text-anchor="middle" x="252.5" y="-102" font-family="Helvetica,sans-Serif" font-size="10.00">Player::get_board_ptr</text>
</a>
</g>
</g>
<!-- Node2 -->
<g id="Node000002" class="node">
<title>Node2</title>
<g id="a_Node000002"><a xlink:href="classFour__Four__XO__UI.html#a462e22aa01d930bda7449c759f36c86f" target="_top" xlink:title="Retrieves the next move from a player.">
<polygon fill="white" stroke="#666666" points="154.5,-216 1.5,-216 1.5,-197 154.5,-197 154.5,-216"/>
<text text-anchor="middle" x="78" y="-204" font-family="Helvetica,sans-Serif" font-size="10.00">Four_Four_XO_UI::get_move</text>
</a>
</g>
</g>
<!-- Node1&#45;&gt;Node2 -->
<g id="edge1_Node000001_Node000002" class="edge">
<title>Node1&#45;&gt;Node2</title>
<g id="a_edge1_Node000001_Node000002"><a xlink:title=" ">
<path fill="none" stroke="#63b8ff" d="M236.59,-121.99C219.21,-141.24 188.66,-171.68 156,-188.5 149.41,-191.89 142.17,-194.66 134.86,-196.9"/>
<polygon fill="#63b8ff" stroke="#63b8ff" points="239.42,-124.08 243.41,-114.26 234.17,-119.45 239.42,-124.08"/>
</a>
</g>
</g>
<!-- Node3 -->
<g id="Node000003" class="node">
<title>Node3</title>
<g id="a_Node000003"><a xlink:href="classInfinit__XO__UI.html#a01e2ad782bacda8c2f7cff214617b54c" target="_top" xlink:title="Retrieves the next move from a player.">
<polygon fill="white" stroke="#666666" points="145,-179 11,-179 11,-160 145,-160 145,-179"/>
<text text-anchor="middle" x="78" y="-167" font-family="Helvetica,sans-Serif" font-size="10.00">Infinit_XO_UI::get_move</text>
</a>
</g>
</g>
<!-- Node1&#45;&gt;Node3 -->
<g id="edge2_Node000001_Node000003" class="edge">
<title>Node1&#45;&gt;Node3</title>
<g id="a_edge2_Node000001_Node000003"><a xlink:title=" ">
<path fill="none" stroke="#63b8ff" d="M225.5,-118.84C206.64,-128.78 180.29,-141.76 156,-150.5 145.89,-154.14 134.8,-157.32 124.25,-159.99"/>
<polygon fill="#63b8ff" stroke="#63b8ff" points="227.2,-121.9 234.37,-114.09 223.9,-115.73 227.2,-121.9"/>
</a>
</g>
</g>
<!-- Node4 -->
<g id="Node000004" class="node">
<title>Node4</title>
<g id="a_Node000004"><a xlink:href="classMisere__Tic__Tac__Toe__UI.html#a13c2f356fe79f87ed9bce9ca4efadb68" target="_top" xlink:title="Retrieves the next move from a player.">
<polygon fill="white" stroke="#666666" points="134,-141.5 22,-141.5 22,-111.5 134,-111.5 134,-141.5"/>
<text text-anchor="start" x="30" y="-129.5" font-family="Helvetica,sans-Serif" font-size="10.00">Misere_Tic_Tac_Toe</text>
<text text-anchor="middle" x="78" y="-118.5" font-family="Helvetica,sans-Serif" font-size="10.00">_UI::get_move</text>
</a>
</g>
</g>
<!-- Node1&#45;&gt;Node4 -->
<g id="edge3_Node000001_Node000004" class="edge">
<title>Node1&#45;&gt;Node4</title>
<g id="a_edge3_Node000001_Node000004"><a xlink:title=" ">
<path fill="none" stroke="#63b8ff" d="M181.43,-113.44C165.67,-115.45 149.16,-117.55 134.11,-119.47"/>
<polygon fill="#63b8ff" stroke="#63b8ff" points="182.18,-116.87 191.65,-112.13 181.29,-109.93 182.18,-116.87"/>
</a>
</g>
</g>
<!-- Node5 -->
<g id="Node000005" class="node">
<title>Node5</title>
<g id="a_Node000005"><a xlink:href="classNumerical__XO__UI.html#af6296ae59c604456f531f4e996e99467" target="_top" xlink:title="Ask the user (or AI) to make a move.">
<polygon fill="white" stroke="#666666" points="156,-93 0,-93 0,-74 156,-74 156,-93"/>
<text text-anchor="middle" x="78" y="-81" font-family="Helvetica,sans-Serif" font-size="10.00">Numerical_XO_UI::get_move</text>
</a>
</g>
</g>
<!-- Node1&#45;&gt;Node5 -->
<g id="edge4_Node000001_Node000005" class="edge">
<title>Node1&#45;&gt;Node5</title>
<g id="a_edge4_Node000001_Node000005"><a xlink:title=" ">
<path fill="none" stroke="#63b8ff" d="M181.54,-95.98C173.15,-94.96 164.55,-93.91 156.06,-92.88"/>
<polygon fill="#63b8ff" stroke="#63b8ff" points="181.3,-99.48 191.65,-97.21 182.15,-92.53 181.3,-99.48"/>
</a>
</g>
</g>
<!-- Node6 -->
<g id="Node000006" class="node">
<title>Node6</title>
<g id="a_Node000006"><a xlink:href="classSUS__UI.html#a621a4bfadf8d79f2b2b66f2241c310c3" target="_top" xlink:title="Retrieves the next move from a player.">
<polygon fill="white" stroke="#666666" points="131.5,-56 24.5,-56 24.5,-37 131.5,-37 131.5,-56"/>
<text text-anchor="middle" x="78" y="-44" font-family="Helvetica,sans-Serif" font-size="10.00">SUS_UI::get_move</text>
</a>
</g>
</g>
<!-- Node1&#45;&gt;Node6 -->
<g id="edge5_Node000001_Node000006" class="edge">
<title>Node1&#45;&gt;Node6</title>
<g id="a_edge5_Node000001_Node000006"><a xlink:title=" ">
<path fill="none" stroke="#63b8ff" d="M221.19,-90.8C202.62,-82.74 178.23,-72.74 156,-65.5 145.26,-62 133.51,-58.8 122.48,-56.06"/>
<polygon fill="#63b8ff" stroke="#63b8ff" points="220.03,-94.11 230.59,-94.93 222.84,-87.7 220.03,-94.11"/>
</a>
</g>
</g>
<!-- Node7 -->
<g id="Node000007" class="node">
<title>Node7</title>
<g id="a_Node000007"><a xlink:href="classX__O__5x5__UI.html#a60163186f3074fea418f530e78f5f9f1" target="_top" xlink:title="Ask the user (or AI) to make a move.">
<polygon fill="white" stroke="#666666" points="143,-19 13,-19 13,0 143,0 143,-19"/>
<text text-anchor="middle" x="78" y="-7" font-family="Helvetica,sans-Serif" font-size="10.00">X_O_5x5_UI::get_move</text>
</a>
</g>
</g>
<!-- Node1&#45;&gt;Node7 -->
<g id="edge6_Node000001_Node000007" class="edge">
<title>Node1&#45;&gt;Node7</title>
<g id="a_edge6_Node000001_Node000007"><a xlink:title=" ">
<path fill="none" stroke="#63b8ff" d="M235.13,-87.74C217.25,-70.4 187,-43.74 156,-28.5 148.22,-24.67 139.6,-21.58 131.03,-19.09"/>
<polygon fill="#63b8ff" stroke="#63b8ff" points="232.87,-90.43 242.43,-94.98 237.79,-85.46 232.87,-90.43"/>
</a>
</g>
</g>
</g>
</svg>
