<?xml version="1.0" encoding="UTF-8" standalone="no"?>
<!DOCTYPE svg PUBLIC "-//W3C//DTD SVG 1.1//EN"
 "http://www.w3.org/Graphics/SVG/1.1/DTD/svg11.dtd">
<!-- Generated by graphviz version 2.43.0 (0)
 -->
<!-- Title: Diamond_Tic_Tac_Toe_UI::setup_players Pages: 1 -->
<svg width="328pt" height="124pt"
 viewBox="0.00 0.00 328.00 124.00" xmlns="http://www.w3.org/2000/svg" xmlns:xlink="http://www.w3.org/1999/xlink">
<g id="graph0" class="graph" transform="scale(1 1) rotate(0) translate(4 120)">
<title>Diamond_Tic_Tac_Toe_UI::setup_players</title>
<!-- Node1 -->
<g id="Node000001" class="node">
<title>Node1</title>
<g id="a_Node000001"><a xlink:title="Setup smartPlayer.">
<polygon fill="#999999" stroke="#666666" points="123,-73 0,-73 0,-43 123,-43 123,-73"/>
<text text-anchor="start" x="8" y="-61" font-family="Helvetica,sans-Serif" font-size="10.00">Diamond_Tic_Tac_Toe</text>
<text text-anchor="middle" x="61.5" y="-50" font-family="Helvetica,sans-Serif" font-size="10.00">_UI::setup_players</text>
</a>
</g>
</g>
<!-- Node2 -->
<g id="Node000002" class="node">
<title>Node2</title>
<g id="a_Node000002"><a xlink:href="classDiamond__Tic__Tac__Toe__UI.html#a01af5f62663ce57ac6a2b72256190bee" target="_top" xlink:title="Creates a player of the specified type.">
<polygon fill="white" stroke="#666666" points="301,-116 178,-116 178,-86 301,-86 301,-116"/>
<text text-anchor="start" x="186" y="-104" font-family="Helvetica,sans-Serif" font-size="10.00">Diamond_Tic_Tac_Toe</text>
<text text-anchor="middle" x="239.5" y="-93" font-family="Helvetica,sans-Serif" font-size="10.00">_UI::create_player</text>
</a>
</g>
</g>
<!-- Node1&#45;&gt;Node2 -->
<g id="edge1_Node000001_Node000002" class="edge">
<title>Node1&#45;&gt;Node2</title>
<g id="a_edge1_Node000001_Node000002"><a xlink:title=" ">
<path fill="none" stroke="#63b8ff" d="M123.07,-72.8C137.45,-76.31 152.92,-80.09 167.71,-83.7"/>
<polygon fill="#63b8ff" stroke="#63b8ff" points="167.27,-87.2 177.82,-86.17 168.94,-80.4 167.27,-87.2"/>
</a>
</g>
</g>
<!-- Node3 -->
<g id="Node000003" class="node">
<title>Node3</title>
<g id="a_Node000003"><a xlink:href="classUI.html#a7b1603de1f73fbb4006e4f00a27c44da" target="_top" xlink:title="Ask the user for the player&#39;s name.">
<polygon fill="white" stroke="#666666" points="320,-67.5 159,-67.5 159,-48.5 320,-48.5 320,-67.5"/>
<text text-anchor="middle" x="239.5" y="-55.5" font-family="Helvetica,sans-Serif" font-size="10.00">UI&lt; char &gt;::get_player_name</text>
</a>
</g>
</g>
<!-- Node1&#45;&gt;Node3 -->
<g id="edge2_Node000001_Node000003" class="edge">
<title>Node1&#45;&gt;Node3</title>
<g id="a_edge2_Node000001_Node000003"><a xlink:title=" ">
<path fill="none" stroke="#63b8ff" d="M123.07,-58C131.36,-58 140.01,-58 148.69,-58"/>
<polygon fill="#63b8ff" stroke="#63b8ff" points="148.86,-61.5 158.86,-58 148.86,-54.5 148.86,-61.5"/>
</a>
</g>
</g>
<!-- Node4 -->
<g id="Node000004" class="node">
<title>Node4</title>
<g id="a_Node000004"><a xlink:href="classUI.html#ac3d45fea2bbcaa0372d8e5101e116ca1" target="_top" xlink:title="Ask the user to choose the player type from a list.">
<polygon fill="white" stroke="#666666" points="303.5,-30 175.5,-30 175.5,0 303.5,0 303.5,-30"/>
<text text-anchor="start" x="183.5" y="-18" font-family="Helvetica,sans-Serif" font-size="10.00">UI&lt; char &gt;::get_player</text>
<text text-anchor="middle" x="239.5" y="-7" font-family="Helvetica,sans-Serif" font-size="10.00">_type_choice</text>
</a>
</g>
</g>
<!-- Node1&#45;&gt;Node4 -->
<g id="edge3_Node000001_Node000004" class="edge">
<title>Node1&#45;&gt;Node4</title>
<g id="a_edge3_Node000001_Node000004"><a xlink:title=" ">
<path fill="none" stroke="#63b8ff" d="M123.07,-43.2C137.21,-39.75 152.4,-36.04 166.96,-32.48"/>
<polygon fill="#63b8ff" stroke="#63b8ff" points="168.04,-35.82 176.92,-30.04 166.38,-29.02 168.04,-35.82"/>
</a>
</g>
</g>
</g>
</svg>
