<?xml version="1.0" encoding="UTF-8" standalone="no"?>
<!DOCTYPE svg PUBLIC "-//W3C//DTD SVG 1.1//EN"
 "http://www.w3.org/Graphics/SVG/1.1/DTD/svg11.dtd">
<!-- Generated by graphviz version 2.43.0 (0)
 -->
<!-- Title: Four_Four_XO_UI::setup_players Pages: 1 -->
<svg width="336pt" height="124pt"
 viewBox="0.00 0.00 336.00 124.00" xmlns="http://www.w3.org/2000/svg" xmlns:xlink="http://www.w3.org/1999/xlink">
<g id="graph0" class="graph" transform="scale(1 1) rotate(0) translate(4 120)">
<title>Four_Four_XO_UI::setup_players</title>
<!-- Node1 -->
<g id="Node000001" class="node">
<title>Node1</title>
<g id="a_Node000001"><a xlink:title="Set up players (Human or Computer).">
<polygon fill="#999999" stroke="#666666" points="131,-73 0,-73 0,-43 131,-43 131,-73"/>
<text text-anchor="start" x="8" y="-61" font-family="Helvetica,sans-Serif" font-size="10.00">Four_Four_XO_UI::setup</text>
<text text-anchor="middle" x="65.5" y="-50" font-family="Helvetica,sans-Serif" font-size="10.00">_players</text>
</a>
</g>
</g>
<!-- Node2 -->
<g id="Node000002" class="node">
<title>Node2</title>
<g id="a_Node000002"><a xlink:href="classFour__Four__XO__UI.html#a59ebccfaecdea3e1c55b7acb20c9abca" target="_top" xlink:title="Create a player based on name, symbol, and type.">
<polygon fill="white" stroke="#666666" points="315,-116 180,-116 180,-86 315,-86 315,-116"/>
<text text-anchor="start" x="188" y="-104" font-family="Helvetica,sans-Serif" font-size="10.00">Four_Four_XO_UI::create</text>
<text text-anchor="middle" x="247.5" y="-93" font-family="Helvetica,sans-Serif" font-size="10.00">_player</text>
</a>
</g>
</g>
<!-- Node1&#45;&gt;Node2 -->
<g id="edge1_Node000001_Node000002" class="edge">
<title>Node1&#45;&gt;Node2</title>
<g id="a_edge1_Node000001_Node000002"><a xlink:title=" ">
<path fill="none" stroke="#63b8ff" d="M129.46,-73.04C143.71,-76.44 158.95,-80.09 173.58,-83.58"/>
<polygon fill="#63b8ff" stroke="#63b8ff" points="173.04,-87.05 183.58,-85.97 174.67,-80.24 173.04,-87.05"/>
</a>
</g>
</g>
<!-- Node3 -->
<g id="Node000003" class="node">
<title>Node3</title>
<g id="a_Node000003"><a xlink:href="classUI.html#a7b1603de1f73fbb4006e4f00a27c44da" target="_top" xlink:title="Ask the user for the player&#39;s name.">
<polygon fill="white" stroke="#666666" points="328,-67.5 167,-67.5 167,-48.5 328,-48.5 328,-67.5"/>
<text text-anchor="middle" x="247.5" y="-55.5" font-family="Helvetica,sans-Serif" font-size="10.00">UI&lt; char &gt;::get_player_name</text>
</a>
</g>
</g>
<!-- Node1&#45;&gt;Node3 -->
<g id="edge2_Node000001_Node000003" class="edge">
<title>Node1&#45;&gt;Node3</title>
<g id="a_edge2_Node000001_Node000003"><a xlink:title=" ">
<path fill="none" stroke="#63b8ff" d="M131.23,-58C139.56,-58 148.21,-58 156.85,-58"/>
<polygon fill="#63b8ff" stroke="#63b8ff" points="156.97,-61.5 166.97,-58 156.97,-54.5 156.97,-61.5"/>
</a>
</g>
</g>
<!-- Node4 -->
<g id="Node000004" class="node">
<title>Node4</title>
<g id="a_Node000004"><a xlink:href="classUI.html#ac3d45fea2bbcaa0372d8e5101e116ca1" target="_top" xlink:title="Ask the user to choose the player type from a list.">
<polygon fill="white" stroke="#666666" points="311.5,-30 183.5,-30 183.5,0 311.5,0 311.5,-30"/>
<text text-anchor="start" x="191.5" y="-18" font-family="Helvetica,sans-Serif" font-size="10.00">UI&lt; char &gt;::get_player</text>
<text text-anchor="middle" x="247.5" y="-7" font-family="Helvetica,sans-Serif" font-size="10.00">_type_choice</text>
</a>
</g>
</g>
<!-- Node1&#45;&gt;Node4 -->
<g id="edge3_Node000001_Node000004" class="edge">
<title>Node1&#45;&gt;Node4</title>
<g id="a_edge3_Node000001_Node000004"><a xlink:title=" ">
<path fill="none" stroke="#63b8ff" d="M129.46,-42.96C143.71,-39.56 158.95,-35.91 173.58,-32.42"/>
<polygon fill="#63b8ff" stroke="#63b8ff" points="174.67,-35.76 183.58,-30.03 173.04,-28.95 174.67,-35.76"/>
</a>
</g>
</g>
</g>
</svg>
