<?xml version="1.0" encoding="UTF-8" standalone="no"?>
<!DOCTYPE svg PUBLIC "-//W3C//DTD SVG 1.1//EN"
 "http://www.w3.org/Graphics/SVG/1.1/DTD/svg11.dtd">
<!-- Generated by graphviz version 2.43.0 (0)
 -->
<!-- Title: include/Diamond_Tic_Tac_Toe.h Pages: 1 -->
<svg width="337pt" height="203pt"
 viewBox="0.00 0.00 337.00 203.00" xmlns="http://www.w3.org/2000/svg" xmlns:xlink="http://www.w3.org/1999/xlink">
<g id="graph0" class="graph" transform="scale(1 1) rotate(0) translate(4 199)">
<title>include/Diamond_Tic_Tac_Toe.h</title>
<!-- Node1 -->
<g id="Node000001" class="node">
<title>Node1</title>
<g id="a_Node000001"><a xlink:title=" ">
<polygon fill="#999999" stroke="#666666" points="189.5,-195 70.5,-195 70.5,-165 189.5,-165 189.5,-195"/>
<text text-anchor="start" x="78.5" y="-183" font-family="Helvetica,sans-Serif" font-size="10.00">include/Diamond_Tic</text>
<text text-anchor="middle" x="130" y="-172" font-family="Helvetica,sans-Serif" font-size="10.00">_Tac_Toe.h</text>
</a>
</g>
</g>
<!-- Node2 -->
<g id="Node000002" class="node">
<title>Node2</title>
<g id="a_Node000002"><a xlink:title=" ">
<polygon fill="#e0e0e0" stroke="#999999" points="101.5,-129 18.5,-129 18.5,-110 101.5,-110 101.5,-129"/>
<text text-anchor="middle" x="60" y="-117" font-family="Helvetica,sans-Serif" font-size="10.00">bits/stdc++.h</text>
</a>
</g>
</g>
<!-- Node1&#45;&gt;Node2 -->
<g id="edge1_Node000001_Node000002" class="edge">
<title>Node1&#45;&gt;Node2</title>
<g id="a_edge1_Node000001_Node000002"><a xlink:title=" ">
<path fill="none" stroke="#63b8ff" d="M113.05,-164.84C102.58,-156.09 89.14,-144.85 78.41,-135.88"/>
<polygon fill="#63b8ff" stroke="#63b8ff" points="80.41,-132.99 70.49,-129.27 75.92,-138.36 80.41,-132.99"/>
</a>
</g>
</g>
<!-- Node3 -->
<g id="Node000003" class="node">
<title>Node3</title>
<g id="a_Node000003"><a xlink:href="BoardGame__Classes_8h.html" target="_top" xlink:title=" ">
<polygon fill="white" stroke="#666666" points="185,-74 59,-74 59,-55 185,-55 185,-74"/>
<text text-anchor="middle" x="122" y="-62" font-family="Helvetica,sans-Serif" font-size="10.00">BoardGame_Classes.h</text>
</a>
</g>
</g>
<!-- Node1&#45;&gt;Node3 -->
<g id="edge2_Node000001_Node000003" class="edge">
<title>Node1&#45;&gt;Node3</title>
<g id="a_edge2_Node000001_Node000003"><a xlink:title=" ">
<path fill="none" stroke="#63b8ff" d="M128.99,-164.63C127.55,-144.21 124.91,-106.81 123.32,-84.24"/>
<polygon fill="#63b8ff" stroke="#63b8ff" points="126.81,-83.96 122.62,-74.23 119.83,-84.45 126.81,-83.96"/>
</a>
</g>
</g>
<!-- Node8 -->
<g id="Node000008" class="node">
<title>Node8</title>
<g id="a_Node000008"><a xlink:href="Smart__Player_8h.html" target="_top" xlink:title=" ">
<polygon fill="white" stroke="#666666" points="263,-129 173,-129 173,-110 263,-110 263,-129"/>
<text text-anchor="middle" x="218" y="-117" font-family="Helvetica,sans-Serif" font-size="10.00">Smart_Player.h</text>
</a>
</g>
</g>
<!-- Node1&#45;&gt;Node8 -->
<g id="edge7_Node000001_Node000008" class="edge">
<title>Node1&#45;&gt;Node8</title>
<g id="a_edge7_Node000001_Node000008"><a xlink:title=" ">
<path fill="none" stroke="#63b8ff" d="M151.3,-164.84C165.07,-155.68 182.93,-143.82 196.7,-134.66"/>
<polygon fill="#63b8ff" stroke="#63b8ff" points="198.68,-137.55 205.07,-129.09 194.81,-131.72 198.68,-137.55"/>
</a>
</g>
</g>
<!-- Node4 -->
<g id="Node000004" class="node">
<title>Node4</title>
<g id="a_Node000004"><a xlink:title=" ">
<polygon fill="#e0e0e0" stroke="#999999" points="44,-19 0,-19 0,0 44,0 44,-19"/>
<text text-anchor="middle" x="22" y="-7" font-family="Helvetica,sans-Serif" font-size="10.00">string</text>
</a>
</g>
</g>
<!-- Node3&#45;&gt;Node4 -->
<g id="edge3_Node000003_Node000004" class="edge">
<title>Node3&#45;&gt;Node4</title>
<g id="a_edge3_Node000003_Node000004"><a xlink:title=" ">
<path fill="none" stroke="#63b8ff" d="M105.93,-54.98C90.14,-46.61 65.78,-33.7 47.37,-23.95"/>
<polygon fill="#63b8ff" stroke="#63b8ff" points="48.83,-20.76 38.36,-19.17 45.56,-26.95 48.83,-20.76"/>
</a>
</g>
</g>
<!-- Node5 -->
<g id="Node000005" class="node">
<title>Node5</title>
<g id="a_Node000005"><a xlink:title=" ">
<polygon fill="#e0e0e0" stroke="#999999" points="109.5,-19 62.5,-19 62.5,0 109.5,0 109.5,-19"/>
<text text-anchor="middle" x="86" y="-7" font-family="Helvetica,sans-Serif" font-size="10.00">vector</text>
</a>
</g>
</g>
<!-- Node3&#45;&gt;Node5 -->
<g id="edge4_Node000003_Node000005" class="edge">
<title>Node3&#45;&gt;Node5</title>
<g id="a_edge4_Node000003_Node000005"><a xlink:title=" ">
<path fill="none" stroke="#63b8ff" d="M116.06,-54.75C111.02,-47.34 103.66,-36.5 97.49,-27.41"/>
<polygon fill="#63b8ff" stroke="#63b8ff" points="100.35,-25.39 91.83,-19.09 94.56,-29.33 100.35,-25.39"/>
</a>
</g>
</g>
<!-- Node6 -->
<g id="Node000006" class="node">
<title>Node6</title>
<g id="a_Node000006"><a xlink:title=" ">
<polygon fill="#e0e0e0" stroke="#999999" points="188,-19 128,-19 128,0 188,0 188,-19"/>
<text text-anchor="middle" x="158" y="-7" font-family="Helvetica,sans-Serif" font-size="10.00">iostream</text>
</a>
</g>
</g>
<!-- Node3&#45;&gt;Node6 -->
<g id="edge5_Node000003_Node000006" class="edge">
<title>Node3&#45;&gt;Node6</title>
<g id="a_edge5_Node000003_Node000006"><a xlink:title=" ">
<path fill="none" stroke="#63b8ff" d="M127.94,-54.75C132.98,-47.34 140.34,-36.5 146.51,-27.41"/>
<polygon fill="#63b8ff" stroke="#63b8ff" points="149.44,-29.33 152.17,-19.09 143.65,-25.39 149.44,-29.33"/>
</a>
</g>
</g>
<!-- Node7 -->
<g id="Node000007" class="node">
<title>Node7</title>
<g id="a_Node000007"><a xlink:title=" ">
<polygon fill="#e0e0e0" stroke="#999999" points="262,-19 206,-19 206,0 262,0 262,-19"/>
<text text-anchor="middle" x="234" y="-7" font-family="Helvetica,sans-Serif" font-size="10.00">iomanip</text>
</a>
</g>
</g>
<!-- Node3&#45;&gt;Node7 -->
<g id="edge6_Node000003_Node000007" class="edge">
<title>Node3&#45;&gt;Node7</title>
<g id="a_edge6_Node000003_Node000007"><a xlink:title=" ">
<path fill="none" stroke="#63b8ff" d="M139.99,-54.98C157.93,-46.5 185.72,-33.35 206.43,-23.54"/>
<polygon fill="#63b8ff" stroke="#63b8ff" points="208.14,-26.61 215.68,-19.17 205.14,-20.28 208.14,-26.61"/>
</a>
</g>
</g>
<!-- Node8&#45;&gt;Node3 -->
<g id="edge8_Node000008_Node000003" class="edge">
<title>Node8&#45;&gt;Node3</title>
<g id="a_edge8_Node000008_Node000003"><a xlink:title=" ">
<path fill="none" stroke="#63b8ff" d="M202.58,-109.98C187.55,-101.69 164.46,-88.94 146.84,-79.22"/>
<polygon fill="#63b8ff" stroke="#63b8ff" points="148.15,-75.94 137.7,-74.17 144.77,-82.07 148.15,-75.94"/>
</a>
</g>
</g>
<!-- Node9 -->
<g id="Node000009" class="node">
<title>Node9</title>
<g id="a_Node000009"><a xlink:title=" ">
<polygon fill="#e0e0e0" stroke="#999999" points="247,-74 203,-74 203,-55 247,-55 247,-74"/>
<text text-anchor="middle" x="225" y="-62" font-family="Helvetica,sans-Serif" font-size="10.00">limits</text>
</a>
</g>
</g>
<!-- Node8&#45;&gt;Node9 -->
<g id="edge9_Node000008_Node000009" class="edge">
<title>Node8&#45;&gt;Node9</title>
<g id="a_edge9_Node000008_Node000009"><a xlink:title=" ">
<path fill="none" stroke="#63b8ff" d="M219.16,-109.75C220.07,-102.8 221.39,-92.85 222.54,-84.13"/>
<polygon fill="#63b8ff" stroke="#63b8ff" points="226.03,-84.46 223.87,-74.09 219.09,-83.54 226.03,-84.46"/>
</a>
</g>
</g>
<!-- Node10 -->
<g id="Node000010" class="node">
<title>Node10</title>
<g id="a_Node000010"><a xlink:title=" ">
<polygon fill="#e0e0e0" stroke="#999999" points="329,-74 265,-74 265,-55 329,-55 329,-74"/>
<text text-anchor="middle" x="297" y="-62" font-family="Helvetica,sans-Serif" font-size="10.00">algorithm</text>
</a>
</g>
</g>
<!-- Node8&#45;&gt;Node10 -->
<g id="edge10_Node000008_Node000010" class="edge">
<title>Node8&#45;&gt;Node10</title>
<g id="a_edge10_Node000008_Node000010"><a xlink:title=" ">
<path fill="none" stroke="#63b8ff" d="M230.69,-109.98C242.83,-101.84 261.36,-89.41 275.75,-79.76"/>
<polygon fill="#63b8ff" stroke="#63b8ff" points="277.72,-82.65 284.08,-74.17 273.82,-76.84 277.72,-82.65"/>
</a>
</g>
</g>
</g>
</svg>
