<?xml version="1.0" encoding="UTF-8" standalone="no"?>
<!DOCTYPE svg PUBLIC "-//W3C//DTD SVG 1.1//EN"
 "http://www.w3.org/Graphics/SVG/1.1/DTD/svg11.dtd">
<!-- Generated by graphviz version 2.43.0 (0)
 -->
<!-- Title: include/Four_Four_XO.h Pages: 1 -->
<svg width="411pt" height="192pt"
 viewBox="0.00 0.00 410.50 192.00" xmlns="http://www.w3.org/2000/svg" xmlns:xlink="http://www.w3.org/1999/xlink">
<g id="graph0" class="graph" transform="scale(1 1) rotate(0) translate(4 188)">
<title>include/Four_Four_XO.h</title>
<!-- Node1 -->
<g id="Node000001" class="node">
<title>Node1</title>
<g id="a_Node000001"><a xlink:title=" ">
<polygon fill="#999999" stroke="#666666" points="288.5,-184 158.5,-184 158.5,-165 288.5,-165 288.5,-184"/>
<text text-anchor="middle" x="223.5" y="-172" font-family="Helvetica,sans-Serif" font-size="10.00">include/Four_Four_XO.h</text>
</a>
</g>
</g>
<!-- Node2 -->
<g id="Node000002" class="node">
<title>Node2</title>
<g id="a_Node000002"><a xlink:href="BoardGame__Classes_8h.html" target="_top" xlink:title=" ">
<polygon fill="white" stroke="#666666" points="196.5,-74 70.5,-74 70.5,-55 196.5,-55 196.5,-74"/>
<text text-anchor="middle" x="133.5" y="-62" font-family="Helvetica,sans-Serif" font-size="10.00">BoardGame_Classes.h</text>
</a>
</g>
</g>
<!-- Node1&#45;&gt;Node2 -->
<g id="edge1_Node000001_Node000002" class="edge">
<title>Node1&#45;&gt;Node2</title>
<g id="a_edge1_Node000001_Node000002"><a xlink:title=" ">
<path fill="none" stroke="#63b8ff" d="M214.84,-164.9C206.14,-156.12 192.47,-141.98 181.5,-129 168.72,-113.88 155.21,-95.8 145.8,-82.81"/>
<polygon fill="#63b8ff" stroke="#63b8ff" points="148.41,-80.44 139.73,-74.36 142.72,-84.53 148.41,-80.44"/>
</a>
</g>
</g>
<!-- Node4 -->
<g id="Node000004" class="node">
<title>Node4</title>
<g id="a_Node000004"><a xlink:title=" ">
<polygon fill="#e0e0e0" stroke="#999999" points="47,-19 0,-19 0,0 47,0 47,-19"/>
<text text-anchor="middle" x="23.5" y="-7" font-family="Helvetica,sans-Serif" font-size="10.00">vector</text>
</a>
</g>
</g>
<!-- Node1&#45;&gt;Node4 -->
<g id="edge13_Node000001_Node000004" class="edge">
<title>Node1&#45;&gt;Node4</title>
<g id="a_edge13_Node000001_Node000004"><a xlink:title=" ">
<path fill="none" stroke="#63b8ff" d="M192.87,-164.94C152.23,-152 81.02,-123.55 41.5,-74 31.34,-61.26 26.91,-43.09 24.99,-29.44"/>
<polygon fill="#63b8ff" stroke="#63b8ff" points="28.44,-28.83 23.88,-19.26 21.48,-29.58 28.44,-28.83"/>
</a>
</g>
</g>
<!-- Node7 -->
<g id="Node000007" class="node">
<title>Node7</title>
<g id="a_Node000007"><a xlink:href="AiPlayer_8h.html" target="_top" xlink:title=" ">
<polygon fill="white" stroke="#666666" points="256,-129 191,-129 191,-110 256,-110 256,-129"/>
<text text-anchor="middle" x="223.5" y="-117" font-family="Helvetica,sans-Serif" font-size="10.00">AiPlayer.h</text>
</a>
</g>
</g>
<!-- Node1&#45;&gt;Node7 -->
<g id="edge6_Node000001_Node000007" class="edge">
<title>Node1&#45;&gt;Node7</title>
<g id="a_edge6_Node000001_Node000007"><a xlink:title=" ">
<path fill="none" stroke="#63b8ff" d="M223.5,-164.75C223.5,-157.8 223.5,-147.85 223.5,-139.13"/>
<polygon fill="#63b8ff" stroke="#63b8ff" points="227,-139.09 223.5,-129.09 220,-139.09 227,-139.09"/>
</a>
</g>
</g>
<!-- Node9 -->
<g id="Node000009" class="node">
<title>Node9</title>
<g id="a_Node000009"><a xlink:title=" ">
<polygon fill="#e0e0e0" stroke="#999999" points="402.5,-74 358.5,-74 358.5,-55 402.5,-55 402.5,-74"/>
<text text-anchor="middle" x="380.5" y="-62" font-family="Helvetica,sans-Serif" font-size="10.00">limits</text>
</a>
</g>
</g>
<!-- Node1&#45;&gt;Node9 -->
<g id="edge12_Node000001_Node000009" class="edge">
<title>Node1&#45;&gt;Node9</title>
<g id="a_edge12_Node000001_Node000009"><a xlink:title=" ">
<path fill="none" stroke="#63b8ff" d="M233.65,-164.82C248.66,-152.13 277.91,-128.09 304.5,-110 321.04,-98.75 340.53,-87.37 355.63,-78.94"/>
<polygon fill="#63b8ff" stroke="#63b8ff" points="357.34,-82 364.4,-74.1 353.95,-75.87 357.34,-82"/>
</a>
</g>
</g>
<!-- Node11 -->
<g id="Node000011" class="node">
<title>Node11</title>
<g id="a_Node000011"><a xlink:title=" ">
<polygon fill="#e0e0e0" stroke="#999999" points="358,-129 313,-129 313,-110 358,-110 358,-129"/>
<text text-anchor="middle" x="335.5" y="-117" font-family="Helvetica,sans-Serif" font-size="10.00">utility</text>
</a>
</g>
</g>
<!-- Node1&#45;&gt;Node11 -->
<g id="edge14_Node000001_Node000011" class="edge">
<title>Node1&#45;&gt;Node11</title>
<g id="a_edge14_Node000001_Node000011"><a xlink:title=" ">
<path fill="none" stroke="#63b8ff" d="M241.49,-164.98C259.43,-156.5 287.22,-143.35 307.93,-133.54"/>
<polygon fill="#63b8ff" stroke="#63b8ff" points="309.64,-136.61 317.18,-129.17 306.64,-130.28 309.64,-136.61"/>
</a>
</g>
</g>
<!-- Node3 -->
<g id="Node000003" class="node">
<title>Node3</title>
<g id="a_Node000003"><a xlink:title=" ">
<polygon fill="#e0e0e0" stroke="#999999" points="109.5,-19 65.5,-19 65.5,0 109.5,0 109.5,-19"/>
<text text-anchor="middle" x="87.5" y="-7" font-family="Helvetica,sans-Serif" font-size="10.00">string</text>
</a>
</g>
</g>
<!-- Node2&#45;&gt;Node3 -->
<g id="edge2_Node000002_Node000003" class="edge">
<title>Node2&#45;&gt;Node3</title>
<g id="a_edge2_Node000002_Node000003"><a xlink:title=" ">
<path fill="none" stroke="#63b8ff" d="M125.9,-54.75C119.34,-47.18 109.68,-36.05 101.69,-26.84"/>
<polygon fill="#63b8ff" stroke="#63b8ff" points="104.15,-24.35 94.95,-19.09 98.87,-28.94 104.15,-24.35"/>
</a>
</g>
</g>
<!-- Node2&#45;&gt;Node4 -->
<g id="edge3_Node000002_Node000004" class="edge">
<title>Node2&#45;&gt;Node4</title>
<g id="a_edge3_Node000002_Node000004"><a xlink:title=" ">
<path fill="none" stroke="#63b8ff" d="M115.83,-54.98C98.21,-46.5 70.92,-33.35 50.57,-23.54"/>
<polygon fill="#63b8ff" stroke="#63b8ff" points="52.02,-20.36 41.49,-19.17 48.98,-26.66 52.02,-20.36"/>
</a>
</g>
</g>
<!-- Node5 -->
<g id="Node000005" class="node">
<title>Node5</title>
<g id="a_Node000005"><a xlink:title=" ">
<polygon fill="#e0e0e0" stroke="#999999" points="187.5,-19 127.5,-19 127.5,0 187.5,0 187.5,-19"/>
<text text-anchor="middle" x="157.5" y="-7" font-family="Helvetica,sans-Serif" font-size="10.00">iostream</text>
</a>
</g>
</g>
<!-- Node2&#45;&gt;Node5 -->
<g id="edge4_Node000002_Node000005" class="edge">
<title>Node2&#45;&gt;Node5</title>
<g id="a_edge4_Node000002_Node000005"><a xlink:title=" ">
<path fill="none" stroke="#63b8ff" d="M137.46,-54.75C140.71,-47.57 145.42,-37.18 149.45,-28.27"/>
<polygon fill="#63b8ff" stroke="#63b8ff" points="152.67,-29.64 153.61,-19.09 146.3,-26.75 152.67,-29.64"/>
</a>
</g>
</g>
<!-- Node6 -->
<g id="Node000006" class="node">
<title>Node6</title>
<g id="a_Node000006"><a xlink:title=" ">
<polygon fill="#e0e0e0" stroke="#999999" points="261.5,-19 205.5,-19 205.5,0 261.5,0 261.5,-19"/>
<text text-anchor="middle" x="233.5" y="-7" font-family="Helvetica,sans-Serif" font-size="10.00">iomanip</text>
</a>
</g>
</g>
<!-- Node2&#45;&gt;Node6 -->
<g id="edge5_Node000002_Node000006" class="edge">
<title>Node2&#45;&gt;Node6</title>
<g id="a_edge5_Node000002_Node000006"><a xlink:title=" ">
<path fill="none" stroke="#63b8ff" d="M149.57,-54.98C165.36,-46.61 189.72,-33.7 208.13,-23.95"/>
<polygon fill="#63b8ff" stroke="#63b8ff" points="209.94,-26.95 217.14,-19.17 206.67,-20.76 209.94,-26.95"/>
</a>
</g>
</g>
<!-- Node7&#45;&gt;Node2 -->
<g id="edge7_Node000007_Node000002" class="edge">
<title>Node7&#45;&gt;Node2</title>
<g id="a_edge7_Node000007_Node000002"><a xlink:title=" ">
<path fill="none" stroke="#63b8ff" d="M209.04,-109.98C195.08,-101.77 173.71,-89.18 157.25,-79.49"/>
<polygon fill="#63b8ff" stroke="#63b8ff" points="158.62,-76.23 148.22,-74.17 155.06,-82.26 158.62,-76.23"/>
</a>
</g>
</g>
<!-- Node7&#45;&gt;Node4 -->
<g id="edge10_Node000007_Node000004" class="edge">
<title>Node7&#45;&gt;Node4</title>
<g id="a_edge10_Node000007_Node000004"><a xlink:title=" ">
<path fill="none" stroke="#63b8ff" d="M190.85,-116.63C155.7,-113.13 99.7,-103.03 61.5,-74 46.35,-62.49 36.02,-43.05 29.99,-28.71"/>
<polygon fill="#63b8ff" stroke="#63b8ff" points="33.24,-27.41 26.36,-19.35 26.72,-29.94 33.24,-27.41"/>
</a>
</g>
</g>
<!-- Node8 -->
<g id="Node000008" class="node">
<title>Node8</title>
<g id="a_Node000008"><a xlink:title=" ">
<polygon fill="#e0e0e0" stroke="#999999" points="252.5,-74 214.5,-74 214.5,-55 252.5,-55 252.5,-74"/>
<text text-anchor="middle" x="233.5" y="-62" font-family="Helvetica,sans-Serif" font-size="10.00">map</text>
</a>
</g>
</g>
<!-- Node7&#45;&gt;Node8 -->
<g id="edge8_Node000007_Node000008" class="edge">
<title>Node7&#45;&gt;Node8</title>
<g id="a_edge8_Node000007_Node000008"><a xlink:title=" ">
<path fill="none" stroke="#63b8ff" d="M225.15,-109.75C226.46,-102.8 228.34,-92.85 229.98,-84.13"/>
<polygon fill="#63b8ff" stroke="#63b8ff" points="233.46,-84.56 231.88,-74.09 226.59,-83.27 233.46,-84.56"/>
</a>
</g>
</g>
<!-- Node7&#45;&gt;Node9 -->
<g id="edge9_Node000007_Node000009" class="edge">
<title>Node7&#45;&gt;Node9</title>
<g id="a_edge9_Node000007_Node000009"><a xlink:title=" ">
<path fill="none" stroke="#63b8ff" d="M248.72,-109.98C275.86,-100.82 319.09,-86.23 348.57,-76.28"/>
<polygon fill="#63b8ff" stroke="#63b8ff" points="350.03,-79.48 358.38,-72.97 347.79,-72.85 350.03,-79.48"/>
</a>
</g>
</g>
<!-- Node10 -->
<g id="Node000010" class="node">
<title>Node10</title>
<g id="a_Node000010"><a xlink:title=" ">
<polygon fill="#e0e0e0" stroke="#999999" points="340,-74 271,-74 271,-55 340,-55 340,-74"/>
<text text-anchor="middle" x="305.5" y="-62" font-family="Helvetica,sans-Serif" font-size="10.00">type_traits</text>
</a>
</g>
</g>
<!-- Node7&#45;&gt;Node10 -->
<g id="edge11_Node000007_Node000010" class="edge">
<title>Node7&#45;&gt;Node10</title>
<g id="a_edge11_Node000007_Node000010"><a xlink:title=" ">
<path fill="none" stroke="#63b8ff" d="M236.67,-109.98C249.27,-101.84 268.5,-89.41 283.44,-79.76"/>
<polygon fill="#63b8ff" stroke="#63b8ff" points="285.59,-82.54 292.09,-74.17 281.79,-76.66 285.59,-82.54"/>
</a>
</g>
</g>
</g>
</svg>
