<?xml version="1.0" encoding="UTF-8" standalone="no"?>
<!DOCTYPE svg PUBLIC "-//W3C//DTD SVG 1.1//EN"
 "http://www.w3.org/Graphics/SVG/1.1/DTD/svg11.dtd">
<!-- Generated by graphviz version 2.43.0 (0)
 -->
<!-- Title: src/Four&#45;in&#45;a&#45;row.cpp Pages: 1 -->
<svg width="380pt" height="203pt"
 viewBox="0.00 0.00 379.50 203.00" xmlns="http://www.w3.org/2000/svg" xmlns:xlink="http://www.w3.org/1999/xlink">
<g id="graph0" class="graph" transform="scale(1 1) rotate(0) translate(4 199)">
<title>src/Four&#45;in&#45;a&#45;row.cpp</title>
<!-- Node1 -->
<g id="Node000001" class="node">
<title>Node1</title>
<g id="a_Node000001"><a xlink:title=" ">
<polygon fill="#999999" stroke="#666666" points="187,-195 68,-195 68,-176 187,-176 187,-195"/>
<text text-anchor="middle" x="127.5" y="-183" font-family="Helvetica,sans-Serif" font-size="10.00">src/Four&#45;in&#45;a&#45;row.cpp</text>
</a>
</g>
</g>
<!-- Node2 -->
<g id="Node000002" class="node">
<title>Node2</title>
<g id="a_Node000002"><a xlink:href="Four-in-a-row_8h.html" target="_top" xlink:title="Defines the X&#45;O (Tic&#45;Tac&#45;Toe) specific classes that extend the generic board game framework.">
<polygon fill="white" stroke="#666666" points="176.5,-140 78.5,-140 78.5,-110 176.5,-110 176.5,-140"/>
<text text-anchor="start" x="86.5" y="-128" font-family="Helvetica,sans-Serif" font-size="10.00">../include/Four&#45;in</text>
<text text-anchor="middle" x="127.5" y="-117" font-family="Helvetica,sans-Serif" font-size="10.00">&#45;a&#45;row.h</text>
</a>
</g>
</g>
<!-- Node1&#45;&gt;Node2 -->
<g id="edge1_Node000001_Node000002" class="edge">
<title>Node1&#45;&gt;Node2</title>
<g id="a_edge1_Node000001_Node000002"><a xlink:title=" ">
<path fill="none" stroke="#63b8ff" d="M127.5,-175.87C127.5,-169.11 127.5,-159.35 127.5,-150.26"/>
<polygon fill="#63b8ff" stroke="#63b8ff" points="131,-150.11 127.5,-140.11 124,-150.11 131,-150.11"/>
</a>
</g>
</g>
<!-- Node3 -->
<g id="Node000003" class="node">
<title>Node3</title>
<g id="a_Node000003"><a xlink:title=" ">
<polygon fill="#e0e0e0" stroke="#999999" points="83,-74 0,-74 0,-55 83,-55 83,-74"/>
<text text-anchor="middle" x="41.5" y="-62" font-family="Helvetica,sans-Serif" font-size="10.00">bits/stdc++.h</text>
</a>
</g>
</g>
<!-- Node1&#45;&gt;Node3 -->
<g id="edge12_Node000001_Node000003" class="edge">
<title>Node1&#45;&gt;Node3</title>
<g id="a_edge12_Node000001_Node000003"><a xlink:title=" ">
<path fill="none" stroke="#63b8ff" d="M111.99,-175.95C99.04,-168.11 80.91,-155.4 69.5,-140 56.93,-123.04 49.39,-99.8 45.36,-83.81"/>
<polygon fill="#63b8ff" stroke="#63b8ff" points="48.77,-83.01 43.1,-74.06 41.95,-84.59 48.77,-83.01"/>
</a>
</g>
</g>
<!-- Node9 -->
<g id="Node000009" class="node">
<title>Node9</title>
<g id="a_Node000009"><a xlink:href="Smart__Player_8h.html" target="_top" xlink:title=" ">
<polygon fill="white" stroke="#666666" points="334,-134.5 197,-134.5 197,-115.5 334,-115.5 334,-134.5"/>
<text text-anchor="middle" x="265.5" y="-122.5" font-family="Helvetica,sans-Serif" font-size="10.00">../include/Smart_Player.h</text>
</a>
</g>
</g>
<!-- Node1&#45;&gt;Node9 -->
<g id="edge8_Node000001_Node000009" class="edge">
<title>Node1&#45;&gt;Node9</title>
<g id="a_edge8_Node000001_Node000009"><a xlink:title=" ">
<path fill="none" stroke="#63b8ff" d="M147.57,-175.99C170.87,-166.12 209.51,-149.73 236.18,-138.43"/>
<polygon fill="#63b8ff" stroke="#63b8ff" points="237.57,-141.64 245.41,-134.52 234.84,-135.2 237.57,-141.64"/>
</a>
</g>
</g>
<!-- Node2&#45;&gt;Node3 -->
<g id="edge2_Node000002_Node000003" class="edge">
<title>Node2&#45;&gt;Node3</title>
<g id="a_edge2_Node000002_Node000003"><a xlink:title=" ">
<path fill="none" stroke="#63b8ff" d="M106.68,-109.84C93.35,-100.77 76.11,-89.04 62.71,-79.92"/>
<polygon fill="#63b8ff" stroke="#63b8ff" points="64.37,-76.83 54.13,-74.09 60.43,-82.61 64.37,-76.83"/>
</a>
</g>
</g>
<!-- Node4 -->
<g id="Node000004" class="node">
<title>Node4</title>
<g id="a_Node000004"><a xlink:href="BoardGame__Classes_8h.html" target="_top" xlink:title=" ">
<polygon fill="white" stroke="#666666" points="227.5,-74 101.5,-74 101.5,-55 227.5,-55 227.5,-74"/>
<text text-anchor="middle" x="164.5" y="-62" font-family="Helvetica,sans-Serif" font-size="10.00">BoardGame_Classes.h</text>
</a>
</g>
</g>
<!-- Node2&#45;&gt;Node4 -->
<g id="edge3_Node000002_Node000004" class="edge">
<title>Node2&#45;&gt;Node4</title>
<g id="a_edge3_Node000002_Node000004"><a xlink:title=" ">
<path fill="none" stroke="#63b8ff" d="M136.46,-109.84C141.61,-101.69 148.12,-91.4 153.57,-82.78"/>
<polygon fill="#63b8ff" stroke="#63b8ff" points="156.57,-84.59 158.96,-74.27 150.65,-80.85 156.57,-84.59"/>
</a>
</g>
</g>
<!-- Node5 -->
<g id="Node000005" class="node">
<title>Node5</title>
<g id="a_Node000005"><a xlink:title=" ">
<polygon fill="#e0e0e0" stroke="#999999" points="86.5,-19 42.5,-19 42.5,0 86.5,0 86.5,-19"/>
<text text-anchor="middle" x="64.5" y="-7" font-family="Helvetica,sans-Serif" font-size="10.00">string</text>
</a>
</g>
</g>
<!-- Node4&#45;&gt;Node5 -->
<g id="edge4_Node000004_Node000005" class="edge">
<title>Node4&#45;&gt;Node5</title>
<g id="a_edge4_Node000004_Node000005"><a xlink:title=" ">
<path fill="none" stroke="#63b8ff" d="M148.43,-54.98C132.64,-46.61 108.28,-33.7 89.87,-23.95"/>
<polygon fill="#63b8ff" stroke="#63b8ff" points="91.33,-20.76 80.86,-19.17 88.06,-26.95 91.33,-20.76"/>
</a>
</g>
</g>
<!-- Node6 -->
<g id="Node000006" class="node">
<title>Node6</title>
<g id="a_Node000006"><a xlink:title=" ">
<polygon fill="#e0e0e0" stroke="#999999" points="152,-19 105,-19 105,0 152,0 152,-19"/>
<text text-anchor="middle" x="128.5" y="-7" font-family="Helvetica,sans-Serif" font-size="10.00">vector</text>
</a>
</g>
</g>
<!-- Node4&#45;&gt;Node6 -->
<g id="edge5_Node000004_Node000006" class="edge">
<title>Node4&#45;&gt;Node6</title>
<g id="a_edge5_Node000004_Node000006"><a xlink:title=" ">
<path fill="none" stroke="#63b8ff" d="M158.56,-54.75C153.52,-47.34 146.16,-36.5 139.99,-27.41"/>
<polygon fill="#63b8ff" stroke="#63b8ff" points="142.85,-25.39 134.33,-19.09 137.06,-29.33 142.85,-25.39"/>
</a>
</g>
</g>
<!-- Node7 -->
<g id="Node000007" class="node">
<title>Node7</title>
<g id="a_Node000007"><a xlink:title=" ">
<polygon fill="#e0e0e0" stroke="#999999" points="230.5,-19 170.5,-19 170.5,0 230.5,0 230.5,-19"/>
<text text-anchor="middle" x="200.5" y="-7" font-family="Helvetica,sans-Serif" font-size="10.00">iostream</text>
</a>
</g>
</g>
<!-- Node4&#45;&gt;Node7 -->
<g id="edge6_Node000004_Node000007" class="edge">
<title>Node4&#45;&gt;Node7</title>
<g id="a_edge6_Node000004_Node000007"><a xlink:title=" ">
<path fill="none" stroke="#63b8ff" d="M170.44,-54.75C175.48,-47.34 182.84,-36.5 189.01,-27.41"/>
<polygon fill="#63b8ff" stroke="#63b8ff" points="191.94,-29.33 194.67,-19.09 186.15,-25.39 191.94,-29.33"/>
</a>
</g>
</g>
<!-- Node8 -->
<g id="Node000008" class="node">
<title>Node8</title>
<g id="a_Node000008"><a xlink:title=" ">
<polygon fill="#e0e0e0" stroke="#999999" points="304.5,-19 248.5,-19 248.5,0 304.5,0 304.5,-19"/>
<text text-anchor="middle" x="276.5" y="-7" font-family="Helvetica,sans-Serif" font-size="10.00">iomanip</text>
</a>
</g>
</g>
<!-- Node4&#45;&gt;Node8 -->
<g id="edge7_Node000004_Node000008" class="edge">
<title>Node4&#45;&gt;Node8</title>
<g id="a_edge7_Node000004_Node000008"><a xlink:title=" ">
<path fill="none" stroke="#63b8ff" d="M182.49,-54.98C200.43,-46.5 228.22,-33.35 248.93,-23.54"/>
<polygon fill="#63b8ff" stroke="#63b8ff" points="250.64,-26.61 258.18,-19.17 247.64,-20.28 250.64,-26.61"/>
</a>
</g>
</g>
<!-- Node9&#45;&gt;Node4 -->
<g id="edge9_Node000009_Node000004" class="edge">
<title>Node9&#45;&gt;Node4</title>
<g id="a_edge9_Node000009_Node000004"><a xlink:title=" ">
<path fill="none" stroke="#63b8ff" d="M250.6,-115.37C234.19,-105.86 207.57,-90.45 188.27,-79.27"/>
<polygon fill="#63b8ff" stroke="#63b8ff" points="189.87,-76.15 179.46,-74.17 186.36,-82.21 189.87,-76.15"/>
</a>
</g>
</g>
<!-- Node10 -->
<g id="Node000010" class="node">
<title>Node10</title>
<g id="a_Node000010"><a xlink:title=" ">
<polygon fill="#e0e0e0" stroke="#999999" points="289.5,-74 245.5,-74 245.5,-55 289.5,-55 289.5,-74"/>
<text text-anchor="middle" x="267.5" y="-62" font-family="Helvetica,sans-Serif" font-size="10.00">limits</text>
</a>
</g>
</g>
<!-- Node9&#45;&gt;Node10 -->
<g id="edge10_Node000009_Node000010" class="edge">
<title>Node9&#45;&gt;Node10</title>
<g id="a_edge10_Node000009_Node000010"><a xlink:title=" ">
<path fill="none" stroke="#63b8ff" d="M265.8,-115.37C266.07,-107.25 266.5,-94.81 266.85,-84.39"/>
<polygon fill="#63b8ff" stroke="#63b8ff" points="270.36,-84.28 267.2,-74.17 263.36,-84.04 270.36,-84.28"/>
</a>
</g>
</g>
<!-- Node11 -->
<g id="Node000011" class="node">
<title>Node11</title>
<g id="a_Node000011"><a xlink:title=" ">
<polygon fill="#e0e0e0" stroke="#999999" points="371.5,-74 307.5,-74 307.5,-55 371.5,-55 371.5,-74"/>
<text text-anchor="middle" x="339.5" y="-62" font-family="Helvetica,sans-Serif" font-size="10.00">algorithm</text>
</a>
</g>
</g>
<!-- Node9&#45;&gt;Node11 -->
<g id="edge11_Node000009_Node000011" class="edge">
<title>Node9&#45;&gt;Node11</title>
<g id="a_edge11_Node000009_Node000011"><a xlink:title=" ">
<path fill="none" stroke="#63b8ff" d="M276.42,-115.37C288.01,-106.21 306.53,-91.56 320.52,-80.51"/>
<polygon fill="#63b8ff" stroke="#63b8ff" points="322.86,-83.11 328.54,-74.17 318.52,-77.62 322.86,-83.11"/>
</a>
</g>
</g>
</g>
</svg>
