<?xml version="1.0" encoding="UTF-8" standalone="no"?>
<!DOCTYPE svg PUBLIC "-//W3C//DTD SVG 1.1//EN"
 "http://www.w3.org/Graphics/SVG/1.1/DTD/svg11.dtd">
<!-- Generated by graphviz version 2.43.0 (0)
 -->
<!-- Title: src/Infinity_XO_Classes.cpp Pages: 1 -->
<svg width="354pt" height="203pt"
 viewBox="0.00 0.00 353.50 203.00" xmlns="http://www.w3.org/2000/svg" xmlns:xlink="http://www.w3.org/1999/xlink">
<g id="graph0" class="graph" transform="scale(1 1) rotate(0) translate(4 199)">
<title>src/Infinity_XO_Classes.cpp</title>
<!-- Node1 -->
<g id="Node000001" class="node">
<title>Node1</title>
<g id="a_Node000001"><a xlink:title=" ">
<polygon fill="#999999" stroke="#666666" points="303.5,-195 154.5,-195 154.5,-176 303.5,-176 303.5,-195"/>
<text text-anchor="middle" x="229" y="-183" font-family="Helvetica,sans-Serif" font-size="10.00">src/Infinity_XO_Classes.cpp</text>
</a>
</g>
</g>
<!-- Node2 -->
<g id="Node000002" class="node">
<title>Node2</title>
<g id="a_Node000002"><a xlink:title=" ">
<polygon fill="#e0e0e0" stroke="#999999" points="60,-19 0,-19 0,0 60,0 60,-19"/>
<text text-anchor="middle" x="30" y="-7" font-family="Helvetica,sans-Serif" font-size="10.00">iostream</text>
</a>
</g>
</g>
<!-- Node1&#45;&gt;Node2 -->
<g id="edge1_Node000001_Node000002" class="edge">
<title>Node1&#45;&gt;Node2</title>
<g id="a_edge1_Node000001_Node000002"><a xlink:title=" ">
<path fill="none" stroke="#63b8ff" d="M196.34,-175.99C152.04,-162.54 74.39,-131.75 39,-74 30.81,-60.64 28.91,-42.77 28.85,-29.39"/>
<polygon fill="#63b8ff" stroke="#63b8ff" points="32.36,-29.12 29.17,-19.02 25.36,-28.91 32.36,-29.12"/>
</a>
</g>
</g>
<!-- Node3 -->
<g id="Node000003" class="node">
<title>Node3</title>
<g id="a_Node000003"><a xlink:title=" ">
<polygon fill="#e0e0e0" stroke="#999999" points="281,-19 225,-19 225,0 281,0 281,-19"/>
<text text-anchor="middle" x="253" y="-7" font-family="Helvetica,sans-Serif" font-size="10.00">iomanip</text>
</a>
</g>
</g>
<!-- Node1&#45;&gt;Node3 -->
<g id="edge2_Node000001_Node000003" class="edge">
<title>Node1&#45;&gt;Node3</title>
<g id="a_edge2_Node000001_Node000003"><a xlink:title=" ">
<path fill="none" stroke="#63b8ff" d="M234.04,-175.99C238.9,-167.29 245.95,-153.21 249,-140 257.9,-101.42 256.45,-54.66 254.68,-29.22"/>
<polygon fill="#63b8ff" stroke="#63b8ff" points="258.16,-28.82 253.88,-19.13 251.18,-29.38 258.16,-28.82"/>
</a>
</g>
</g>
<!-- Node4 -->
<g id="Node000004" class="node">
<title>Node4</title>
<g id="a_Node000004"><a xlink:title=" ">
<polygon fill="#e0e0e0" stroke="#999999" points="345.5,-134.5 296.5,-134.5 296.5,-115.5 345.5,-115.5 345.5,-134.5"/>
<text text-anchor="middle" x="321" y="-122.5" font-family="Helvetica,sans-Serif" font-size="10.00">cctype</text>
</a>
</g>
</g>
<!-- Node1&#45;&gt;Node4 -->
<g id="edge3_Node000001_Node000004" class="edge">
<title>Node1&#45;&gt;Node4</title>
<g id="a_edge3_Node000001_Node000004"><a xlink:title=" ">
<path fill="none" stroke="#63b8ff" d="M242.57,-175.87C257.39,-166.45 281.33,-151.23 298.86,-140.08"/>
<polygon fill="#63b8ff" stroke="#63b8ff" points="300.81,-142.99 307.37,-134.67 297.05,-137.08 300.81,-142.99"/>
</a>
</g>
</g>
<!-- Node5 -->
<g id="Node000005" class="node">
<title>Node5</title>
<g id="a_Node000005"><a xlink:href="Infinity__XO__Classes_8h.html" target="_top" xlink:title=" ">
<polygon fill="white" stroke="#666666" points="240,-140 142,-140 142,-110 240,-110 240,-140"/>
<text text-anchor="start" x="150" y="-128" font-family="Helvetica,sans-Serif" font-size="10.00">../include/Infinity</text>
<text text-anchor="middle" x="191" y="-117" font-family="Helvetica,sans-Serif" font-size="10.00">_XO_Classes.h</text>
</a>
</g>
</g>
<!-- Node1&#45;&gt;Node5 -->
<g id="edge4_Node000001_Node000005" class="edge">
<title>Node1&#45;&gt;Node5</title>
<g id="a_edge4_Node000001_Node000005"><a xlink:title=" ">
<path fill="none" stroke="#63b8ff" d="M223.39,-175.87C218.76,-168.74 211.97,-158.28 205.8,-148.79"/>
<polygon fill="#63b8ff" stroke="#63b8ff" points="208.55,-146.59 200.17,-140.11 202.68,-150.41 208.55,-146.59"/>
</a>
</g>
</g>
<!-- Node6 -->
<g id="Node000006" class="node">
<title>Node6</title>
<g id="a_Node000006"><a xlink:title=" ">
<polygon fill="#e0e0e0" stroke="#999999" points="239.5,-74 192.5,-74 192.5,-55 239.5,-55 239.5,-74"/>
<text text-anchor="middle" x="216" y="-62" font-family="Helvetica,sans-Serif" font-size="10.00">queue</text>
</a>
</g>
</g>
<!-- Node5&#45;&gt;Node6 -->
<g id="edge5_Node000005_Node000006" class="edge">
<title>Node5&#45;&gt;Node6</title>
<g id="a_edge5_Node000005_Node000006"><a xlink:title=" ">
<path fill="none" stroke="#63b8ff" d="M197.05,-109.84C200.42,-101.95 204.65,-92.05 208.26,-83.61"/>
<polygon fill="#63b8ff" stroke="#63b8ff" points="211.54,-84.84 212.25,-74.27 205.11,-82.09 211.54,-84.84"/>
</a>
</g>
</g>
<!-- Node7 -->
<g id="Node000007" class="node">
<title>Node7</title>
<g id="a_Node000007"><a xlink:href="BoardGame__Classes_8h.html" target="_top" xlink:title=" ">
<polygon fill="white" stroke="#666666" points="174,-74 48,-74 48,-55 174,-55 174,-74"/>
<text text-anchor="middle" x="111" y="-62" font-family="Helvetica,sans-Serif" font-size="10.00">BoardGame_Classes.h</text>
</a>
</g>
</g>
<!-- Node5&#45;&gt;Node7 -->
<g id="edge6_Node000005_Node000007" class="edge">
<title>Node5&#45;&gt;Node7</title>
<g id="a_edge6_Node000005_Node000007"><a xlink:title=" ">
<path fill="none" stroke="#63b8ff" d="M171.63,-109.84C159.43,-100.91 143.69,-89.41 131.31,-80.35"/>
<polygon fill="#63b8ff" stroke="#63b8ff" points="133.13,-77.34 122.99,-74.27 128.99,-82.99 133.13,-77.34"/>
</a>
</g>
</g>
<!-- Node7&#45;&gt;Node2 -->
<g id="edge9_Node000007_Node000002" class="edge">
<title>Node7&#45;&gt;Node2</title>
<g id="a_edge9_Node000007_Node000002"><a xlink:title=" ">
<path fill="none" stroke="#63b8ff" d="M97.99,-54.98C85.54,-46.84 66.54,-34.41 51.79,-24.76"/>
<polygon fill="#63b8ff" stroke="#63b8ff" points="53.54,-21.72 43.25,-19.17 49.7,-27.57 53.54,-21.72"/>
</a>
</g>
</g>
<!-- Node7&#45;&gt;Node3 -->
<g id="edge10_Node000007_Node000003" class="edge">
<title>Node7&#45;&gt;Node3</title>
<g id="a_edge10_Node000007_Node000003"><a xlink:title=" ">
<path fill="none" stroke="#63b8ff" d="M133.81,-54.98C157.17,-46.27 193.7,-32.63 220.17,-22.75"/>
<polygon fill="#63b8ff" stroke="#63b8ff" points="221.63,-25.95 229.77,-19.17 219.18,-19.39 221.63,-25.95"/>
</a>
</g>
</g>
<!-- Node8 -->
<g id="Node000008" class="node">
<title>Node8</title>
<g id="a_Node000008"><a xlink:title=" ">
<polygon fill="#e0e0e0" stroke="#999999" points="127,-19 83,-19 83,0 127,0 127,-19"/>
<text text-anchor="middle" x="105" y="-7" font-family="Helvetica,sans-Serif" font-size="10.00">string</text>
</a>
</g>
</g>
<!-- Node7&#45;&gt;Node8 -->
<g id="edge7_Node000007_Node000008" class="edge">
<title>Node7&#45;&gt;Node8</title>
<g id="a_edge7_Node000007_Node000008"><a xlink:title=" ">
<path fill="none" stroke="#63b8ff" d="M110.01,-54.75C109.22,-47.8 108.1,-37.85 107.11,-29.13"/>
<polygon fill="#63b8ff" stroke="#63b8ff" points="110.58,-28.63 105.97,-19.09 103.62,-29.42 110.58,-28.63"/>
</a>
</g>
</g>
<!-- Node9 -->
<g id="Node000009" class="node">
<title>Node9</title>
<g id="a_Node000009"><a xlink:title=" ">
<polygon fill="#e0e0e0" stroke="#999999" points="192.5,-19 145.5,-19 145.5,0 192.5,0 192.5,-19"/>
<text text-anchor="middle" x="169" y="-7" font-family="Helvetica,sans-Serif" font-size="10.00">vector</text>
</a>
</g>
</g>
<!-- Node7&#45;&gt;Node9 -->
<g id="edge8_Node000007_Node000009" class="edge">
<title>Node7&#45;&gt;Node9</title>
<g id="a_edge8_Node000007_Node000009"><a xlink:title=" ">
<path fill="none" stroke="#63b8ff" d="M120.32,-54.98C128.81,-47.23 141.56,-35.58 151.88,-26.14"/>
<polygon fill="#63b8ff" stroke="#63b8ff" points="154.49,-28.5 159.51,-19.17 149.77,-23.33 154.49,-28.5"/>
</a>
</g>
</g>
</g>
</svg>
