<?xml version="1.0" encoding="UTF-8" standalone="no"?>
<!DOCTYPE svg PUBLIC "-//W3C//DTD SVG 1.1//EN"
 "http://www.w3.org/Graphics/SVG/1.1/DTD/svg11.dtd">
<!-- Generated by graphviz version 2.43.0 (0)
 -->
<!-- Title: include/Infinity_XO_Classes.h Pages: 1 -->
<svg width="277pt" height="148pt"
 viewBox="0.00 0.00 276.50 148.00" xmlns="http://www.w3.org/2000/svg" xmlns:xlink="http://www.w3.org/1999/xlink">
<g id="graph0" class="graph" transform="scale(1 1) rotate(0) translate(4 144)">
<title>include/Infinity_XO_Classes.h</title>
<!-- Node1 -->
<g id="Node000001" class="node">
<title>Node1</title>
<g id="a_Node000001"><a xlink:title=" ">
<polygon fill="#999999" stroke="#666666" points="129,-140 22,-140 22,-110 129,-110 129,-140"/>
<text text-anchor="start" x="30" y="-128" font-family="Helvetica,sans-Serif" font-size="10.00">include/Infinity_XO</text>
<text text-anchor="middle" x="75.5" y="-117" font-family="Helvetica,sans-Serif" font-size="10.00">_Classes.h</text>
</a>
</g>
</g>
<!-- Node2 -->
<g id="Node000002" class="node">
<title>Node2</title>
<g id="a_Node000002"><a xlink:title=" ">
<polygon fill="#e0e0e0" stroke="#999999" points="47,-74 0,-74 0,-55 47,-55 47,-74"/>
<text text-anchor="middle" x="23.5" y="-62" font-family="Helvetica,sans-Serif" font-size="10.00">queue</text>
</a>
</g>
</g>
<!-- Node1&#45;&gt;Node2 -->
<g id="edge1_Node000001_Node000002" class="edge">
<title>Node1&#45;&gt;Node2</title>
<g id="a_edge1_Node000001_Node000002"><a xlink:title=" ">
<path fill="none" stroke="#63b8ff" d="M62.91,-109.84C55.44,-101.43 45.94,-90.74 38.13,-81.96"/>
<polygon fill="#63b8ff" stroke="#63b8ff" points="40.55,-79.41 31.29,-74.27 35.32,-84.07 40.55,-79.41"/>
</a>
</g>
</g>
<!-- Node3 -->
<g id="Node000003" class="node">
<title>Node3</title>
<g id="a_Node000003"><a xlink:href="BoardGame__Classes_8h.html" target="_top" xlink:title=" ">
<polygon fill="white" stroke="#666666" points="191.5,-74 65.5,-74 65.5,-55 191.5,-55 191.5,-74"/>
<text text-anchor="middle" x="128.5" y="-62" font-family="Helvetica,sans-Serif" font-size="10.00">BoardGame_Classes.h</text>
</a>
</g>
</g>
<!-- Node1&#45;&gt;Node3 -->
<g id="edge2_Node000001_Node000003" class="edge">
<title>Node1&#45;&gt;Node3</title>
<g id="a_edge2_Node000001_Node000003"><a xlink:title=" ">
<path fill="none" stroke="#63b8ff" d="M88.33,-109.84C96.02,-101.35 105.83,-90.52 113.83,-81.69"/>
<polygon fill="#63b8ff" stroke="#63b8ff" points="116.44,-84.03 120.56,-74.27 111.25,-79.33 116.44,-84.03"/>
</a>
</g>
</g>
<!-- Node4 -->
<g id="Node000004" class="node">
<title>Node4</title>
<g id="a_Node000004"><a xlink:title=" ">
<polygon fill="#e0e0e0" stroke="#999999" points="50.5,-19 6.5,-19 6.5,0 50.5,0 50.5,-19"/>
<text text-anchor="middle" x="28.5" y="-7" font-family="Helvetica,sans-Serif" font-size="10.00">string</text>
</a>
</g>
</g>
<!-- Node3&#45;&gt;Node4 -->
<g id="edge3_Node000003_Node000004" class="edge">
<title>Node3&#45;&gt;Node4</title>
<g id="a_edge3_Node000003_Node000004"><a xlink:title=" ">
<path fill="none" stroke="#63b8ff" d="M112.43,-54.98C96.64,-46.61 72.28,-33.7 53.87,-23.95"/>
<polygon fill="#63b8ff" stroke="#63b8ff" points="55.33,-20.76 44.86,-19.17 52.06,-26.95 55.33,-20.76"/>
</a>
</g>
</g>
<!-- Node5 -->
<g id="Node000005" class="node">
<title>Node5</title>
<g id="a_Node000005"><a xlink:title=" ">
<polygon fill="#e0e0e0" stroke="#999999" points="116,-19 69,-19 69,0 116,0 116,-19"/>
<text text-anchor="middle" x="92.5" y="-7" font-family="Helvetica,sans-Serif" font-size="10.00">vector</text>
</a>
</g>
</g>
<!-- Node3&#45;&gt;Node5 -->
<g id="edge4_Node000003_Node000005" class="edge">
<title>Node3&#45;&gt;Node5</title>
<g id="a_edge4_Node000003_Node000005"><a xlink:title=" ">
<path fill="none" stroke="#63b8ff" d="M122.56,-54.75C117.52,-47.34 110.16,-36.5 103.99,-27.41"/>
<polygon fill="#63b8ff" stroke="#63b8ff" points="106.85,-25.39 98.33,-19.09 101.06,-29.33 106.85,-25.39"/>
</a>
</g>
</g>
<!-- Node6 -->
<g id="Node000006" class="node">
<title>Node6</title>
<g id="a_Node000006"><a xlink:title=" ">
<polygon fill="#e0e0e0" stroke="#999999" points="194.5,-19 134.5,-19 134.5,0 194.5,0 194.5,-19"/>
<text text-anchor="middle" x="164.5" y="-7" font-family="Helvetica,sans-Serif" font-size="10.00">iostream</text>
</a>
</g>
</g>
<!-- Node3&#45;&gt;Node6 -->
<g id="edge5_Node000003_Node000006" class="edge">
<title>Node3&#45;&gt;Node6</title>
<g id="a_edge5_Node000003_Node000006"><a xlink:title=" ">
<path fill="none" stroke="#63b8ff" d="M134.44,-54.75C139.48,-47.34 146.84,-36.5 153.01,-27.41"/>
<polygon fill="#63b8ff" stroke="#63b8ff" points="155.94,-29.33 158.67,-19.09 150.15,-25.39 155.94,-29.33"/>
</a>
</g>
</g>
<!-- Node7 -->
<g id="Node000007" class="node">
<title>Node7</title>
<g id="a_Node000007"><a xlink:title=" ">
<polygon fill="#e0e0e0" stroke="#999999" points="268.5,-19 212.5,-19 212.5,0 268.5,0 268.5,-19"/>
<text text-anchor="middle" x="240.5" y="-7" font-family="Helvetica,sans-Serif" font-size="10.00">iomanip</text>
</a>
</g>
</g>
<!-- Node3&#45;&gt;Node7 -->
<g id="edge6_Node000003_Node000007" class="edge">
<title>Node3&#45;&gt;Node7</title>
<g id="a_edge6_Node000003_Node000007"><a xlink:title=" ">
<path fill="none" stroke="#63b8ff" d="M146.49,-54.98C164.43,-46.5 192.22,-33.35 212.93,-23.54"/>
<polygon fill="#63b8ff" stroke="#63b8ff" points="214.64,-26.61 222.18,-19.17 211.64,-20.28 214.64,-26.61"/>
</a>
</g>
</g>
</g>
</svg>
