<?xml version="1.0" encoding="UTF-8" standalone="no"?>
<!DOCTYPE svg PUBLIC "-//W3C//DTD SVG 1.1//EN"
 "http://www.w3.org/Graphics/SVG/1.1/DTD/svg11.dtd">
<!-- Generated by graphviz version 2.43.0 (0)
 -->
<!-- Title: Graphical Class Hierarchy Pages: 1 -->
<svg width="263pt" height="543pt"
 viewBox="0.00 0.00 263.00 542.50" xmlns="http://www.w3.org/2000/svg" xmlns:xlink="http://www.w3.org/1999/xlink">
<g id="graph0" class="graph" transform="scale(1 1) rotate(0) translate(4 538.5)">
<title>Graphical Class Hierarchy</title>
<!-- Node0 -->
<g id="Node000000" class="node">
<title>Node0</title>
<g id="a_Node000000"><a xlink:href="classBoard.html" target="_top" xlink:title=" ">
<polygon fill="white" stroke="#666666" points="89,-259 0,-259 0,-240 89,-240 89,-259"/>
<text text-anchor="middle" x="44.5" y="-247" font-family="Helvetica,sans-Serif" font-size="10.00">Board&lt; char &gt;</text>
</a>
</g>
</g>
<!-- Node1 -->
<g id="Node000001" class="node">
<title>Node1</title>
<g id="a_Node000001"><a xlink:href="classDiamond__Tic__Tac__Toe__Board.html" target="_top" xlink:title=" ">
<polygon fill="white" stroke="#666666" points="251.5,-534.5 128.5,-534.5 128.5,-504.5 251.5,-504.5 251.5,-534.5"/>
<text text-anchor="start" x="136.5" y="-522.5" font-family="Helvetica,sans-Serif" font-size="10.00">Diamond_Tic_Tac_Toe</text>
<text text-anchor="middle" x="190" y="-511.5" font-family="Helvetica,sans-Serif" font-size="10.00">_Board</text>
</a>
</g>
</g>
<!-- Node0&#45;&gt;Node1 -->
<g id="edge1_Node000000_Node000001" class="edge">
<title>Node0&#45;&gt;Node1</title>
<g id="a_edge1_Node000000_Node000001"><a xlink:title=" ">
<path fill="none" stroke="#63b8ff" d="M46.31,-269.67C49.22,-315.85 62.71,-430.26 125,-495.5 128.28,-498.93 132.09,-501.88 136.2,-504.41"/>
<polygon fill="#63b8ff" stroke="#63b8ff" points="49.79,-269.28 45.77,-259.47 42.8,-269.64 49.79,-269.28"/>
</a>
</g>
</g>
<!-- Node2 -->
<g id="Node000002" class="node">
<title>Node2</title>
<g id="a_Node000002"><a xlink:href="classFour__Four__XO__Board.html" target="_top" xlink:title="Represent the 4*4 XO Tic Tac Toe Game.">
<polygon fill="white" stroke="#666666" points="248,-486 132,-486 132,-467 248,-467 248,-486"/>
<text text-anchor="middle" x="190" y="-474" font-family="Helvetica,sans-Serif" font-size="10.00">Four_Four_XO_Board</text>
</a>
</g>
</g>
<!-- Node0&#45;&gt;Node2 -->
<g id="edge2_Node000000_Node000002" class="edge">
<title>Node0&#45;&gt;Node2</title>
<g id="a_edge2_Node000000_Node000002"><a xlink:title=" ">
<path fill="none" stroke="#63b8ff" d="M47.2,-269.19C51.83,-310.52 68.44,-406.78 125,-458.5 128.75,-461.93 133.1,-464.71 137.73,-466.96"/>
<polygon fill="#63b8ff" stroke="#63b8ff" points="50.66,-268.67 46.18,-259.07 43.7,-269.37 50.66,-268.67"/>
</a>
</g>
</g>
<!-- Node3 -->
<g id="Node000003" class="node">
<title>Node3</title>
<g id="a_Node000003"><a xlink:href="classFour__in__a__row__Board.html" target="_top" xlink:title="Represents the Tic&#45;Tac&#45;Toe game board.">
<polygon fill="white" stroke="#666666" points="250,-449 130,-449 130,-430 250,-430 250,-449"/>
<text text-anchor="middle" x="190" y="-437" font-family="Helvetica,sans-Serif" font-size="10.00">Four_in_a_row_Board</text>
</a>
</g>
</g>
<!-- Node0&#45;&gt;Node3 -->
<g id="edge3_Node000000_Node000003" class="edge">
<title>Node0&#45;&gt;Node3</title>
<g id="a_edge3_Node000000_Node000003"><a xlink:title=" ">
<path fill="none" stroke="#63b8ff" d="M49.1,-269.59C56.6,-305.53 77.34,-380.86 125,-421.5 129.04,-424.94 133.69,-427.73 138.61,-429.99"/>
<polygon fill="#63b8ff" stroke="#63b8ff" points="52.46,-268.55 47.11,-259.4 45.59,-269.89 52.46,-268.55"/>
</a>
</g>
</g>
<!-- Node4 -->
<g id="Node000004" class="node">
<title>Node4</title>
<g id="a_Node000004"><a xlink:href="classInfinity__X__O__Board.html" target="_top" xlink:title="Represents the Tic&#45;Tac&#45;Toe game board.">
<polygon fill="white" stroke="#666666" points="244.5,-412 135.5,-412 135.5,-393 244.5,-393 244.5,-412"/>
<text text-anchor="middle" x="190" y="-400" font-family="Helvetica,sans-Serif" font-size="10.00">Infinity_X_O_Board</text>
</a>
</g>
</g>
<!-- Node0&#45;&gt;Node4 -->
<g id="edge4_Node000000_Node000004" class="edge">
<title>Node0&#45;&gt;Node4</title>
<g id="a_edge4_Node000000_Node000004"><a xlink:title=" ">
<path fill="none" stroke="#63b8ff" d="M51.75,-268.75C62.22,-297.93 86.04,-353.14 125,-383.5 129.94,-387.35 135.64,-390.42 141.56,-392.87"/>
<polygon fill="#63b8ff" stroke="#63b8ff" points="55.06,-267.6 48.5,-259.28 48.44,-269.87 55.06,-267.6"/>
</a>
</g>
</g>
<!-- Node5 -->
<g id="Node000005" class="node">
<title>Node5</title>
<g id="a_Node000005"><a xlink:href="classMEMORY__TIC__TAC__TOE__Board.html" target="_top" xlink:title="Represents the Tic&#45;Tac&#45;Toe game board.">
<polygon fill="white" stroke="#666666" points="255,-374.5 125,-374.5 125,-344.5 255,-344.5 255,-374.5"/>
<text text-anchor="start" x="133" y="-362.5" font-family="Helvetica,sans-Serif" font-size="10.00">MEMORY_TIC_TAC_TOE</text>
<text text-anchor="middle" x="190" y="-351.5" font-family="Helvetica,sans-Serif" font-size="10.00">_Board</text>
</a>
</g>
</g>
<!-- Node0&#45;&gt;Node5 -->
<g id="edge5_Node000000_Node000005" class="edge">
<title>Node0&#45;&gt;Node5</title>
<g id="a_edge5_Node000000_Node000005"><a xlink:title=" ">
<path fill="none" stroke="#63b8ff" d="M57.97,-267.32C72.21,-286.51 97.17,-316.8 125,-335.5 130.02,-338.88 135.58,-341.86 141.27,-344.47"/>
<polygon fill="#63b8ff" stroke="#63b8ff" points="60.74,-265.18 52.04,-259.13 55.07,-269.28 60.74,-265.18"/>
</a>
</g>
</g>
<!-- Node6 -->
<g id="Node000006" class="node">
<title>Node6</title>
<g id="a_Node000006"><a xlink:href="classMisere__Tic__Tac__Toe__board.html" target="_top" xlink:title="Represents the Tic&#45;Tac&#45;Toe game board.">
<polygon fill="white" stroke="#666666" points="246,-326.5 134,-326.5 134,-296.5 246,-296.5 246,-326.5"/>
<text text-anchor="start" x="142" y="-314.5" font-family="Helvetica,sans-Serif" font-size="10.00">Misere_Tic_Tac_Toe</text>
<text text-anchor="middle" x="190" y="-303.5" font-family="Helvetica,sans-Serif" font-size="10.00">_board</text>
</a>
</g>
</g>
<!-- Node0&#45;&gt;Node6 -->
<g id="edge6_Node000000_Node000006" class="edge">
<title>Node0&#45;&gt;Node6</title>
<g id="a_edge6_Node000000_Node000006"><a xlink:title=" ">
<path fill="none" stroke="#63b8ff" d="M73.54,-263.64C88.64,-271.07 107.68,-280.13 125,-287.5 132.1,-290.52 139.72,-293.55 147.14,-296.4"/>
<polygon fill="#63b8ff" stroke="#63b8ff" points="74.76,-260.33 64.24,-259.03 71.65,-266.61 74.76,-260.33"/>
</a>
</g>
</g>
<!-- Node7 -->
<g id="Node000007" class="node">
<title>Node7</title>
<g id="a_Node000007"><a xlink:href="classNumerical__X__O__Board.html" target="_top" xlink:title=" ">
<polygon fill="white" stroke="#666666" points="252.5,-278 127.5,-278 127.5,-259 252.5,-259 252.5,-278"/>
<text text-anchor="middle" x="190" y="-266" font-family="Helvetica,sans-Serif" font-size="10.00">Numerical_X_O_Board</text>
</a>
</g>
</g>
<!-- Node0&#45;&gt;Node7 -->
<g id="edge7_Node000000_Node000007" class="edge">
<title>Node0&#45;&gt;Node7</title>
<g id="a_edge7_Node000000_Node000007"><a xlink:title=" ">
<path fill="none" stroke="#63b8ff" d="M99.45,-256.64C108.59,-257.85 118.15,-259.12 127.47,-260.35"/>
<polygon fill="#63b8ff" stroke="#63b8ff" points="99.71,-253.15 89.33,-255.3 98.79,-260.09 99.71,-253.15"/>
</a>
</g>
</g>
<!-- Node8 -->
<g id="Node000008" class="node">
<title>Node8</title>
<g id="a_Node000008"><a xlink:href="classObstacles__XO__Board.html" target="_top" xlink:title=" ">
<polygon fill="white" stroke="#666666" points="248.5,-241 131.5,-241 131.5,-222 248.5,-222 248.5,-241"/>
<text text-anchor="middle" x="190" y="-229" font-family="Helvetica,sans-Serif" font-size="10.00">Obstacles_XO_Board</text>
</a>
</g>
</g>
<!-- Node0&#45;&gt;Node8 -->
<g id="edge8_Node000000_Node000008" class="edge">
<title>Node0&#45;&gt;Node8</title>
<g id="a_edge8_Node000000_Node000008"><a xlink:title=" ">
<path fill="none" stroke="#63b8ff" d="M99.53,-242.72C109.95,-241.42 120.89,-240.04 131.41,-238.72"/>
<polygon fill="#63b8ff" stroke="#63b8ff" points="98.82,-239.28 89.33,-244 99.69,-246.23 98.82,-239.28"/>
</a>
</g>
</g>
<!-- Node9 -->
<g id="Node000009" class="node">
<title>Node9</title>
<g id="a_Node000009"><a xlink:href="classPyramid__XO__Board.html" target="_top" xlink:title=" ">
<polygon fill="white" stroke="#666666" points="245,-204 135,-204 135,-185 245,-185 245,-204"/>
<text text-anchor="middle" x="190" y="-192" font-family="Helvetica,sans-Serif" font-size="10.00">Pyramid_XO_Board</text>
</a>
</g>
</g>
<!-- Node0&#45;&gt;Node9 -->
<g id="edge9_Node000000_Node000009" class="edge">
<title>Node0&#45;&gt;Node9</title>
<g id="a_edge9_Node000000_Node000009"><a xlink:title=" ">
<path fill="none" stroke="#63b8ff" d="M74.03,-235.44C89,-228.35 107.76,-219.93 125,-213.5 134.12,-210.1 144.15,-206.88 153.5,-204.1"/>
<polygon fill="#63b8ff" stroke="#63b8ff" points="72.29,-232.39 64.79,-239.87 75.32,-238.7 72.29,-232.39"/>
</a>
</g>
</g>
<!-- Node10 -->
<g id="Node000010" class="node">
<title>Node10</title>
<g id="a_Node000010"><a xlink:href="classSUS__Board.html" target="_top" xlink:title=" ">
<polygon fill="white" stroke="#666666" points="225,-167 155,-167 155,-148 225,-148 225,-167"/>
<text text-anchor="middle" x="190" y="-155" font-family="Helvetica,sans-Serif" font-size="10.00">SUS_Board</text>
</a>
</g>
</g>
<!-- Node0&#45;&gt;Node10 -->
<g id="edge10_Node000000_Node000010" class="edge">
<title>Node0&#45;&gt;Node10</title>
<g id="a_edge10_Node000000_Node000010"><a xlink:title=" ">
<path fill="none" stroke="#63b8ff" d="M60.1,-232.14C74.88,-215.61 99.18,-191.14 125,-176.5 134.18,-171.3 144.91,-167.39 154.95,-164.52"/>
<polygon fill="#63b8ff" stroke="#63b8ff" points="57.21,-230.13 53.28,-239.97 62.49,-234.72 57.21,-230.13"/>
</a>
</g>
</g>
<!-- Node11 -->
<g id="Node000011" class="node">
<title>Node11</title>
<g id="a_Node000011"><a xlink:href="classUltimate__XO__Board.html" target="_top" xlink:title=" ">
<polygon fill="white" stroke="#666666" points="246,-130 134,-130 134,-111 246,-111 246,-130"/>
<text text-anchor="middle" x="190" y="-118" font-family="Helvetica,sans-Serif" font-size="10.00">Ultimate_XO_Board</text>
</a>
</g>
</g>
<!-- Node0&#45;&gt;Node11 -->
<g id="edge11_Node000000_Node000011" class="edge">
<title>Node0&#45;&gt;Node11</title>
<g id="a_edge11_Node000000_Node000011"><a xlink:title=" ">
<path fill="none" stroke="#63b8ff" d="M54.24,-230.59C66.56,-206 91.36,-163.35 125,-139.5 130.48,-135.61 136.77,-132.51 143.21,-130.04"/>
<polygon fill="#63b8ff" stroke="#63b8ff" points="50.93,-229.4 49.73,-239.92 57.23,-232.44 50.93,-229.4"/>
</a>
</g>
</g>
<!-- Node12 -->
<g id="Node000012" class="node">
<title>Node12</title>
<g id="a_Node000012"><a xlink:href="classWord__XO__Board.html" target="_top" xlink:title="Represents the Word Tic&#45;Tac&#45;Toe game board.">
<polygon fill="white" stroke="#666666" points="237,-93 143,-93 143,-74 237,-74 237,-93"/>
<text text-anchor="middle" x="190" y="-81" font-family="Helvetica,sans-Serif" font-size="10.00">Word_XO_Board</text>
</a>
</g>
</g>
<!-- Node0&#45;&gt;Node12 -->
<g id="edge12_Node000000_Node000012" class="edge">
<title>Node0&#45;&gt;Node12</title>
<g id="a_edge12_Node000000_Node000012"><a xlink:title=" ">
<path fill="none" stroke="#63b8ff" d="M50.67,-230.2C60.1,-198.74 83.08,-136.52 125,-102.5 130.22,-98.26 136.36,-94.97 142.73,-92.41"/>
<polygon fill="#63b8ff" stroke="#63b8ff" points="47.27,-229.37 47.89,-239.95 54,-231.29 47.27,-229.37"/>
</a>
</g>
</g>
<!-- Node13 -->
<g id="Node000013" class="node">
<title>Node13</title>
<g id="a_Node000013"><a xlink:href="classX__O__5x5__Board.html" target="_top" xlink:title=" ">
<polygon fill="white" stroke="#666666" points="236.5,-56 143.5,-56 143.5,-37 236.5,-37 236.5,-56"/>
<text text-anchor="middle" x="190" y="-44" font-family="Helvetica,sans-Serif" font-size="10.00">X_O_5x5_Board</text>
</a>
</g>
</g>
<!-- Node0&#45;&gt;Node13 -->
<g id="edge13_Node000000_Node000013" class="edge">
<title>Node0&#45;&gt;Node13</title>
<g id="a_edge13_Node000000_Node000013"><a xlink:title=" ">
<path fill="none" stroke="#63b8ff" d="M48.44,-229.67C55.08,-192.05 74.76,-110.08 125,-65.5 130.29,-60.81 136.69,-57.27 143.37,-54.61"/>
<polygon fill="#63b8ff" stroke="#63b8ff" points="44.94,-229.4 46.78,-239.83 51.85,-230.53 44.94,-229.4"/>
</a>
</g>
</g>
<!-- Node14 -->
<g id="Node000014" class="node">
<title>Node14</title>
<g id="a_Node000014"><a xlink:href="classmainBoard.html" target="_top" xlink:title=" ">
<polygon fill="white" stroke="#666666" points="225,-19 155,-19 155,0 225,0 225,-19"/>
<text text-anchor="middle" x="190" y="-7" font-family="Helvetica,sans-Serif" font-size="10.00">mainBoard</text>
</a>
</g>
</g>
<!-- Node0&#45;&gt;Node14 -->
<g id="edge14_Node000000_Node000014" class="edge">
<title>Node0&#45;&gt;Node14</title>
<g id="a_edge14_Node000000_Node000014"><a xlink:title=" ">
<path fill="none" stroke="#63b8ff" d="M46.79,-229.93C50.67,-187.06 65.96,-84.28 125,-28.5 133.09,-20.86 144.11,-16.28 154.73,-13.53"/>
<polygon fill="#63b8ff" stroke="#63b8ff" points="43.3,-229.66 46,-239.91 50.27,-230.21 43.3,-229.66"/>
</a>
</g>
</g>
</g>
</svg>
