<?xml version="1.0" encoding="UTF-8" standalone="no"?>
<!DOCTYPE svg PUBLIC "-//W3C//DTD SVG 1.1//EN"
 "http://www.w3.org/Graphics/SVG/1.1/DTD/svg11.dtd">
<!-- Generated by graphviz version 2.43.0 (0)
 -->
<!-- Title: Graphical Class Hierarchy Pages: 1 -->
<svg width="243pt" height="249pt"
 viewBox="0.00 0.00 243.00 249.00" xmlns="http://www.w3.org/2000/svg" xmlns:xlink="http://www.w3.org/1999/xlink">
<g id="graph0" class="graph" transform="scale(1 1) rotate(0) translate(4 245)">
<title>Graphical Class Hierarchy</title>
<!-- Node0 -->
<g id="Node000000" class="node">
<title>Node0</title>
<g id="a_Node000000"><a xlink:href="classUI.html" target="_top" xlink:title=" ">
<polygon fill="white" stroke="#666666" points="71,-130 0,-130 0,-111 71,-111 71,-130"/>
<text text-anchor="middle" x="35.5" y="-118" font-family="Helvetica,sans-Serif" font-size="10.00">UI&lt; char &gt;</text>
</a>
</g>
</g>
<!-- Node1 -->
<g id="Node000001" class="node">
<title>Node1</title>
<g id="a_Node000001"><a xlink:href="classFour__Four__XO__UI.html" target="_top" xlink:title="User Interface class for 4*4 XO Tic Tac Toe Game.">
<polygon fill="white" stroke="#666666" points="220,-241 122,-241 122,-222 220,-222 220,-241"/>
<text text-anchor="middle" x="171" y="-229" font-family="Helvetica,sans-Serif" font-size="10.00">Four_Four_XO_UI</text>
</a>
</g>
</g>
<!-- Node0&#45;&gt;Node1 -->
<g id="edge10_Node000000_Node000001" class="edge">
<title>Node0&#45;&gt;Node1</title>
<g id="a_edge10_Node000000_Node000001"><a xlink:title=" ">
<path fill="none" stroke="#63b8ff" d="M45.74,-138.97C57.24,-160.09 78.85,-194.24 107,-213.5 111.98,-216.91 117.59,-219.67 123.37,-221.92"/>
<polygon fill="#63b8ff" stroke="#63b8ff" points="48.79,-137.26 41.05,-130.02 42.59,-140.51 48.79,-137.26"/>
</a>
</g>
</g>
<!-- Node2 -->
<g id="Node000002" class="node">
<title>Node2</title>
<g id="a_Node000002"><a xlink:href="classInfinit__XO__UI.html" target="_top" xlink:title="User Interface class for the X&#45;O (Tic&#45;Tac&#45;Toe) game.">
<polygon fill="white" stroke="#666666" points="210.5,-204 131.5,-204 131.5,-185 210.5,-185 210.5,-204"/>
<text text-anchor="middle" x="171" y="-192" font-family="Helvetica,sans-Serif" font-size="10.00">Infinit_XO_UI</text>
</a>
</g>
</g>
<!-- Node0&#45;&gt;Node2 -->
<g id="edge11_Node000000_Node000002" class="edge">
<title>Node0&#45;&gt;Node2</title>
<g id="a_edge11_Node000000_Node000002"><a xlink:title=" ">
<path fill="none" stroke="#63b8ff" d="M53.65,-137.34C67.15,-149.76 86.97,-166.2 107,-176.5 114.59,-180.4 123.14,-183.56 131.43,-186.08"/>
<polygon fill="#63b8ff" stroke="#63b8ff" points="55.79,-134.55 46.12,-130.23 50.99,-139.64 55.79,-134.55"/>
</a>
</g>
</g>
<!-- Node3 -->
<g id="Node000003" class="node">
<title>Node3</title>
<g id="a_Node000003"><a xlink:href="classMisere__Tic__Tac__Toe__UI.html" target="_top" xlink:title="User Interface class for the Misere (Tic&#45;Tac&#45;Toe) game.">
<polygon fill="white" stroke="#666666" points="235,-167 107,-167 107,-148 235,-148 235,-167"/>
<text text-anchor="middle" x="171" y="-155" font-family="Helvetica,sans-Serif" font-size="10.00">Misere_Tic_Tac_Toe_UI</text>
</a>
</g>
</g>
<!-- Node0&#45;&gt;Node3 -->
<g id="edge12_Node000000_Node000003" class="edge">
<title>Node0&#45;&gt;Node3</title>
<g id="a_edge12_Node000000_Node000003"><a xlink:title=" ">
<path fill="none" stroke="#63b8ff" d="M80.97,-132.83C98.66,-137.73 118.69,-143.28 135.27,-147.88"/>
<polygon fill="#63b8ff" stroke="#63b8ff" points="81.45,-129.33 70.88,-130.03 79.58,-136.07 81.45,-129.33"/>
</a>
</g>
</g>
<!-- Node4 -->
<g id="Node000004" class="node">
<title>Node4</title>
<g id="a_Node000004"><a xlink:href="classNumerical__XO__UI.html" target="_top" xlink:title=" ">
<polygon fill="white" stroke="#666666" points="221.5,-130 120.5,-130 120.5,-111 221.5,-111 221.5,-130"/>
<text text-anchor="middle" x="171" y="-118" font-family="Helvetica,sans-Serif" font-size="10.00">Numerical_XO_UI</text>
</a>
</g>
</g>
<!-- Node0&#45;&gt;Node4 -->
<g id="edge13_Node000000_Node000004" class="edge">
<title>Node0&#45;&gt;Node4</title>
<g id="a_edge13_Node000000_Node000004"><a xlink:title=" ">
<path fill="none" stroke="#63b8ff" d="M81.42,-120.5C93.94,-120.5 107.6,-120.5 120.37,-120.5"/>
<polygon fill="#63b8ff" stroke="#63b8ff" points="81.23,-117 71.23,-120.5 81.23,-124 81.23,-117"/>
</a>
</g>
</g>
<!-- Node5 -->
<g id="Node000005" class="node">
<title>Node5</title>
<g id="a_Node000005"><a xlink:href="classPyramid__XO__UI.html" target="_top" xlink:title=" ">
<polygon fill="white" stroke="#666666" points="217,-93 125,-93 125,-74 217,-74 217,-93"/>
<text text-anchor="middle" x="171" y="-81" font-family="Helvetica,sans-Serif" font-size="10.00">Pyramid_XO_UI</text>
</a>
</g>
</g>
<!-- Node0&#45;&gt;Node5 -->
<g id="edge14_Node000000_Node000005" class="edge">
<title>Node0&#45;&gt;Node5</title>
<g id="a_edge14_Node000000_Node000005"><a xlink:title=" ">
<path fill="none" stroke="#63b8ff" d="M80.97,-108.17C98.66,-103.27 118.69,-97.72 135.27,-93.12"/>
<polygon fill="#63b8ff" stroke="#63b8ff" points="79.58,-104.93 70.88,-110.97 81.45,-111.67 79.58,-104.93"/>
</a>
</g>
</g>
<!-- Node6 -->
<g id="Node000006" class="node">
<title>Node6</title>
<g id="a_Node000006"><a xlink:href="classSUS__UI.html" target="_top" xlink:title=" ">
<polygon fill="white" stroke="#666666" points="197,-56 145,-56 145,-37 197,-37 197,-56"/>
<text text-anchor="middle" x="171" y="-44" font-family="Helvetica,sans-Serif" font-size="10.00">SUS_UI</text>
</a>
</g>
</g>
<!-- Node0&#45;&gt;Node6 -->
<g id="edge15_Node000000_Node000006" class="edge">
<title>Node0&#45;&gt;Node6</title>
<g id="a_edge15_Node000000_Node000006"><a xlink:title=" ">
<path fill="none" stroke="#63b8ff" d="M54.22,-103.63C67.75,-91.55 87.36,-75.67 107,-65.5 118.87,-59.35 133.05,-54.86 144.95,-51.79"/>
<polygon fill="#63b8ff" stroke="#63b8ff" points="51.64,-101.25 46.63,-110.59 56.37,-106.41 51.64,-101.25"/>
</a>
</g>
</g>
<!-- Node7 -->
<g id="Node000007" class="node">
<title>Node7</title>
<g id="a_Node000007"><a xlink:href="classX__O__5x5__UI.html" target="_top" xlink:title=" ">
<polygon fill="white" stroke="#666666" points="208.5,-19 133.5,-19 133.5,0 208.5,0 208.5,-19"/>
<text text-anchor="middle" x="171" y="-7" font-family="Helvetica,sans-Serif" font-size="10.00">X_O_5x5_UI</text>
</a>
</g>
</g>
<!-- Node0&#45;&gt;Node7 -->
<g id="edge16_Node000000_Node000007" class="edge">
<title>Node0&#45;&gt;Node7</title>
<g id="a_edge16_Node000000_Node000007"><a xlink:title=" ">
<path fill="none" stroke="#63b8ff" d="M46.02,-101.98C57.66,-81.13 79.28,-47.67 107,-28.5 114.8,-23.11 124.16,-19.21 133.26,-16.42"/>
<polygon fill="#63b8ff" stroke="#63b8ff" points="42.91,-100.37 41.25,-110.83 49.07,-103.68 42.91,-100.37"/>
</a>
</g>
</g>
</g>
</svg>
