<?xml version="1.0" encoding="UTF-8" standalone="no"?>
<!DOCTYPE svg PUBLIC "-//W3C//DTD SVG 1.1//EN"
 "http://www.w3.org/Graphics/SVG/1.1/DTD/svg11.dtd">
<!-- Generated by graphviz version 2.43.0 (0)
 -->
<!-- Title: Graphical Class Hierarchy Pages: 1 -->
<svg width="261pt" height="471pt"
 viewBox="0.00 0.00 261.00 471.00" xmlns="http://www.w3.org/2000/svg" xmlns:xlink="http://www.w3.org/1999/xlink">
<g id="graph0" class="graph" transform="scale(1 1) rotate(0) translate(4 467)">
<title>Graphical Class Hierarchy</title>
<!-- Node0 -->
<g id="Node000000" class="node">
<title>Node0</title>
<g id="a_Node000000"><a xlink:href="classUI.html" target="_top" xlink:title=" ">
<polygon fill="white" stroke="#666666" points="71,-241 0,-241 0,-222 71,-222 71,-241"/>
<text text-anchor="middle" x="35.5" y="-229" font-family="Helvetica,sans-Serif" font-size="10.00">UI&lt; char &gt;</text>
</a>
</g>
</g>
<!-- Node1 -->
<g id="Node000001" class="node">
<title>Node1</title>
<g id="a_Node000001"><a xlink:href="classDiamond__Tic__Tac__Toe__UI.html" target="_top" xlink:title=" ">
<polygon fill="white" stroke="#666666" points="249.5,-463 110.5,-463 110.5,-444 249.5,-444 249.5,-463"/>
<text text-anchor="middle" x="180" y="-451" font-family="Helvetica,sans-Serif" font-size="10.00">Diamond_Tic_Tac_Toe_UI</text>
</a>
</g>
</g>
<!-- Node0&#45;&gt;Node1 -->
<g id="edge30_Node000000_Node000001" class="edge">
<title>Node0&#45;&gt;Node1</title>
<g id="a_edge30_Node000000_Node000001"><a xlink:title=" ">
<path fill="none" stroke="#63b8ff" d="M37.35,-251.36C40.22,-292.17 52.69,-385.76 107,-435.5 110.71,-438.89 114.95,-441.67 119.49,-443.94"/>
<polygon fill="#63b8ff" stroke="#63b8ff" points="40.85,-251.12 36.77,-241.33 33.86,-251.52 40.85,-251.12"/>
</a>
</g>
</g>
<!-- Node2 -->
<g id="Node000002" class="node">
<title>Node2</title>
<g id="a_Node000002"><a xlink:href="classFour__Four__XO__UI.html" target="_top" xlink:title="User Interface class for 4*4 XO Tic Tac Toe Game.">
<polygon fill="white" stroke="#666666" points="229,-426 131,-426 131,-407 229,-407 229,-426"/>
<text text-anchor="middle" x="180" y="-414" font-family="Helvetica,sans-Serif" font-size="10.00">Four_Four_XO_UI</text>
</a>
</g>
</g>
<!-- Node0&#45;&gt;Node2 -->
<g id="edge31_Node000000_Node000002" class="edge">
<title>Node0&#45;&gt;Node2</title>
<g id="a_edge31_Node000000_Node000002"><a xlink:title=" ">
<path fill="none" stroke="#63b8ff" d="M39.05,-251.1C44.68,-286.15 61.49,-359.53 107,-398.5 113.75,-404.28 122.1,-408.26 130.68,-410.97"/>
<polygon fill="#63b8ff" stroke="#63b8ff" points="42.51,-250.55 37.59,-241.16 35.58,-251.56 42.51,-250.55"/>
</a>
</g>
</g>
<!-- Node3 -->
<g id="Node000003" class="node">
<title>Node3</title>
<g id="a_Node000003"><a xlink:href="classFour__in__a__row__UI.html" target="_top" xlink:title="User Interface class for the X&#45;O (Tic&#45;Tac&#45;Toe) game.">
<polygon fill="white" stroke="#666666" points="231,-389 129,-389 129,-370 231,-370 231,-389"/>
<text text-anchor="middle" x="180" y="-377" font-family="Helvetica,sans-Serif" font-size="10.00">Four_in_a_row_UI</text>
</a>
</g>
</g>
<!-- Node0&#45;&gt;Node3 -->
<g id="edge32_Node000000_Node000003" class="edge">
<title>Node0&#45;&gt;Node3</title>
<g id="a_edge32_Node000000_Node000003"><a xlink:title=" ">
<path fill="none" stroke="#63b8ff" d="M41.54,-250.74C50.07,-279.37 70.11,-332.91 107,-361.5 113.42,-366.47 121.03,-370.09 128.87,-372.71"/>
<polygon fill="#63b8ff" stroke="#63b8ff" points="44.9,-249.76 38.83,-241.08 38.16,-251.66 44.9,-249.76"/>
</a>
</g>
</g>
<!-- Node4 -->
<g id="Node000004" class="node">
<title>Node4</title>
<g id="a_Node000004"><a xlink:href="classInfinit__XO__UI.html" target="_top" xlink:title="User Interface class for the X&#45;O (Tic&#45;Tac&#45;Toe) game.">
<polygon fill="white" stroke="#666666" points="219.5,-352 140.5,-352 140.5,-333 219.5,-333 219.5,-352"/>
<text text-anchor="middle" x="180" y="-340" font-family="Helvetica,sans-Serif" font-size="10.00">Infinit_XO_UI</text>
</a>
</g>
</g>
<!-- Node0&#45;&gt;Node4 -->
<g id="edge33_Node000000_Node000004" class="edge">
<title>Node0&#45;&gt;Node4</title>
<g id="a_edge33_Node000000_Node000004"><a xlink:title=" ">
<path fill="none" stroke="#63b8ff" d="M45.63,-250.14C57.02,-271.42 78.54,-305.71 107,-324.5 116.89,-331.03 128.97,-335.19 140.39,-337.84"/>
<polygon fill="#63b8ff" stroke="#63b8ff" points="48.67,-248.41 40.99,-241.12 42.45,-251.61 48.67,-248.41"/>
</a>
</g>
</g>
<!-- Node5 -->
<g id="Node000005" class="node">
<title>Node5</title>
<g id="a_Node000005"><a xlink:href="classMEMORY__TIC__TAC__TOE__UI.html" target="_top" xlink:title=" ">
<polygon fill="white" stroke="#666666" points="253,-315 107,-315 107,-296 253,-296 253,-315"/>
<text text-anchor="middle" x="180" y="-303" font-family="Helvetica,sans-Serif" font-size="10.00">MEMORY_TIC_TAC_TOE_UI</text>
</a>
</g>
</g>
<!-- Node0&#45;&gt;Node5 -->
<g id="edge34_Node000000_Node000005" class="edge">
<title>Node0&#45;&gt;Node5</title>
<g id="a_edge34_Node000000_Node000005"><a xlink:title=" ">
<path fill="none" stroke="#63b8ff" d="M53.56,-248.54C67,-261.05 86.8,-277.54 107,-287.5 113.82,-290.86 121.32,-293.63 128.82,-295.9"/>
<polygon fill="#63b8ff" stroke="#63b8ff" points="55.7,-245.74 46.06,-241.35 50.86,-250.8 55.7,-245.74"/>
</a>
</g>
</g>
<!-- Node6 -->
<g id="Node000006" class="node">
<title>Node6</title>
<g id="a_Node000006"><a xlink:href="classMisere__Tic__Tac__Toe__UI.html" target="_top" xlink:title="User Interface class for the Misere (Tic&#45;Tac&#45;Toe) game.">
<polygon fill="white" stroke="#666666" points="244,-278 116,-278 116,-259 244,-259 244,-278"/>
<text text-anchor="middle" x="180" y="-266" font-family="Helvetica,sans-Serif" font-size="10.00">Misere_Tic_Tac_Toe_UI</text>
</a>
</g>
</g>
<!-- Node0&#45;&gt;Node6 -->
<g id="edge35_Node000000_Node000006" class="edge">
<title>Node0&#45;&gt;Node6</title>
<g id="a_edge35_Node000000_Node000006"><a xlink:title=" ">
<path fill="none" stroke="#63b8ff" d="M81.12,-243.66C89.7,-245.96 98.62,-248.32 107,-250.5 117.73,-253.29 129.37,-256.23 140.11,-258.91"/>
<polygon fill="#63b8ff" stroke="#63b8ff" points="81.82,-240.22 71.25,-241 80,-246.98 81.82,-240.22"/>
</a>
</g>
</g>
<!-- Node7 -->
<g id="Node000007" class="node">
<title>Node7</title>
<g id="a_Node000007"><a xlink:href="classNumerical__XO__UI.html" target="_top" xlink:title=" ">
<polygon fill="white" stroke="#666666" points="230.5,-241 129.5,-241 129.5,-222 230.5,-222 230.5,-241"/>
<text text-anchor="middle" x="180" y="-229" font-family="Helvetica,sans-Serif" font-size="10.00">Numerical_XO_UI</text>
</a>
</g>
</g>
<!-- Node0&#45;&gt;Node7 -->
<g id="edge36_Node000000_Node000007" class="edge">
<title>Node0&#45;&gt;Node7</title>
<g id="a_edge36_Node000000_Node000007"><a xlink:title=" ">
<path fill="none" stroke="#63b8ff" d="M81.56,-231.5C96.79,-231.5 113.87,-231.5 129.43,-231.5"/>
<polygon fill="#63b8ff" stroke="#63b8ff" points="81.36,-228 71.36,-231.5 81.36,-235 81.36,-228"/>
</a>
</g>
</g>
<!-- Node8 -->
<g id="Node000008" class="node">
<title>Node8</title>
<g id="a_Node000008"><a xlink:href="classObstacles__XO__UI.html" target="_top" xlink:title=" ">
<polygon fill="white" stroke="#666666" points="229.5,-204 130.5,-204 130.5,-185 229.5,-185 229.5,-204"/>
<text text-anchor="middle" x="180" y="-192" font-family="Helvetica,sans-Serif" font-size="10.00">Obstacles_XO_UI</text>
</a>
</g>
</g>
<!-- Node0&#45;&gt;Node8 -->
<g id="edge37_Node000000_Node000008" class="edge">
<title>Node0&#45;&gt;Node8</title>
<g id="a_edge37_Node000000_Node000008"><a xlink:title=" ">
<path fill="none" stroke="#63b8ff" d="M81.3,-219.87C100.92,-214.77 123.66,-208.87 142.26,-204.04"/>
<polygon fill="#63b8ff" stroke="#63b8ff" points="80.16,-216.55 71.36,-222.45 81.92,-223.32 80.16,-216.55"/>
</a>
</g>
</g>
<!-- Node9 -->
<g id="Node000009" class="node">
<title>Node9</title>
<g id="a_Node000009"><a xlink:href="classPyramid__XO__UI.html" target="_top" xlink:title=" ">
<polygon fill="white" stroke="#666666" points="226,-167 134,-167 134,-148 226,-148 226,-167"/>
<text text-anchor="middle" x="180" y="-155" font-family="Helvetica,sans-Serif" font-size="10.00">Pyramid_XO_UI</text>
</a>
</g>
</g>
<!-- Node0&#45;&gt;Node9 -->
<g id="edge38_Node000000_Node000009" class="edge">
<title>Node0&#45;&gt;Node9</title>
<g id="a_edge38_Node000000_Node000009"><a xlink:title=" ">
<path fill="none" stroke="#63b8ff" d="M53.65,-214.85C67.14,-202.61 86.96,-186.44 107,-176.5 115.34,-172.37 124.68,-169.05 133.81,-166.43"/>
<polygon fill="#63b8ff" stroke="#63b8ff" points="51.04,-212.5 46.12,-221.88 55.82,-217.62 51.04,-212.5"/>
</a>
</g>
</g>
<!-- Node10 -->
<g id="Node000010" class="node">
<title>Node10</title>
<g id="a_Node000010"><a xlink:href="classSUS__UI.html" target="_top" xlink:title=" ">
<polygon fill="white" stroke="#666666" points="206,-130 154,-130 154,-111 206,-111 206,-130"/>
<text text-anchor="middle" x="180" y="-118" font-family="Helvetica,sans-Serif" font-size="10.00">SUS_UI</text>
</a>
</g>
</g>
<!-- Node0&#45;&gt;Node10 -->
<g id="edge39_Node000000_Node000010" class="edge">
<title>Node0&#45;&gt;Node10</title>
<g id="a_edge39_Node000000_Node000010"><a xlink:title=" ">
<path fill="none" stroke="#63b8ff" d="M45.9,-212.81C57.43,-191.79 78.95,-158.18 107,-139.5 120.88,-130.26 139.05,-125.5 153.67,-123.06"/>
<polygon fill="#63b8ff" stroke="#63b8ff" points="42.76,-211.26 41.18,-221.73 48.95,-214.52 42.76,-211.26"/>
</a>
</g>
</g>
<!-- Node11 -->
<g id="Node000011" class="node">
<title>Node11</title>
<g id="a_Node000011"><a xlink:href="classUltimate__XO__UI.html" target="_top" xlink:title=" ">
<polygon fill="white" stroke="#666666" points="227,-93 133,-93 133,-74 227,-74 227,-93"/>
<text text-anchor="middle" x="180" y="-81" font-family="Helvetica,sans-Serif" font-size="10.00">Ultimate_XO_UI</text>
</a>
</g>
</g>
<!-- Node0&#45;&gt;Node11 -->
<g id="edge40_Node000000_Node000011" class="edge">
<title>Node0&#45;&gt;Node11</title>
<g id="a_edge40_Node000000_Node000011"><a xlink:title=" ">
<path fill="none" stroke="#63b8ff" d="M41.76,-212.05C50.47,-183.61 70.65,-130.96 107,-102.5 114.53,-96.6 123.73,-92.53 132.99,-89.71"/>
<polygon fill="#63b8ff" stroke="#63b8ff" points="38.39,-211.09 38.97,-221.67 45.12,-213.04 38.39,-211.09"/>
</a>
</g>
</g>
<!-- Node12 -->
<g id="Node000012" class="node">
<title>Node12</title>
<g id="a_Node000012"><a xlink:href="classWord__XO__UI.html" target="_top" xlink:title="User Interface class for the Word Tic&#45;Tac&#45;Toe game.">
<polygon fill="white" stroke="#666666" points="218,-56 142,-56 142,-37 218,-37 218,-56"/>
<text text-anchor="middle" x="180" y="-44" font-family="Helvetica,sans-Serif" font-size="10.00">Word_XO_UI</text>
</a>
</g>
</g>
<!-- Node0&#45;&gt;Node12 -->
<g id="edge41_Node000000_Node000012" class="edge">
<title>Node0&#45;&gt;Node12</title>
<g id="a_edge41_Node000000_Node000012"><a xlink:title=" ">
<path fill="none" stroke="#63b8ff" d="M39.21,-211.62C45.05,-176.69 62.13,-104.35 107,-65.5 116.68,-57.12 129.64,-52.38 141.89,-49.72"/>
<polygon fill="#63b8ff" stroke="#63b8ff" points="35.69,-211.51 37.64,-221.92 42.61,-212.57 35.69,-211.51"/>
</a>
</g>
</g>
<!-- Node13 -->
<g id="Node000013" class="node">
<title>Node13</title>
<g id="a_Node000013"><a xlink:href="classX__O__5x5__UI.html" target="_top" xlink:title=" ">
<polygon fill="white" stroke="#666666" points="217.5,-19 142.5,-19 142.5,0 217.5,0 217.5,-19"/>
<text text-anchor="middle" x="180" y="-7" font-family="Helvetica,sans-Serif" font-size="10.00">X_O_5x5_UI</text>
</a>
</g>
</g>
<!-- Node0&#45;&gt;Node13 -->
<g id="edge42_Node000000_Node000013" class="edge">
<title>Node0&#45;&gt;Node13</title>
<g id="a_edge42_Node000000_Node000013"><a xlink:title=" ">
<path fill="none" stroke="#63b8ff" d="M37.46,-211.53C40.52,-170.89 53.33,-78.22 107,-28.5 116.58,-19.63 129.81,-14.8 142.31,-12.2"/>
<polygon fill="#63b8ff" stroke="#63b8ff" points="33.95,-211.54 36.82,-221.74 40.94,-211.98 33.95,-211.54"/>
</a>
</g>
</g>
</g>
</svg>
