<?xml version="1.0" encoding="UTF-8" standalone="no"?>
<!DOCTYPE svg PUBLIC "-//W3C//DTD SVG 1.1//EN"
 "http://www.w3.org/Graphics/SVG/1.1/DTD/svg11.dtd">
<!-- Generated by graphviz version 2.43.0 (0)
 -->
<!-- Title: Graphical Class Hierarchy Pages: 1 -->
<svg width="196pt" height="138pt"
 viewBox="0.00 0.00 196.00 138.00" xmlns="http://www.w3.org/2000/svg" xmlns:xlink="http://www.w3.org/1999/xlink">
<g id="graph0" class="graph" transform="scale(1 1) rotate(0) translate(4 134)">
<title>Graphical Class Hierarchy</title>
<!-- Node0 -->
<g id="Node000000" class="node">
<title>Node0</title>
<g id="a_Node000000"><a xlink:href="classMove.html" target="_top" xlink:title=" ">
<polygon fill="white" stroke="#666666" points="87,-74 0,-74 0,-55 87,-55 87,-74"/>
<text text-anchor="middle" x="43.5" y="-62" font-family="Helvetica,sans-Serif" font-size="10.00">Move&lt; char &gt;</text>
</a>
</g>
</g>
<!-- Node1 -->
<g id="Node000001" class="node">
<title>Node1</title>
<g id="a_Node000001"><a xlink:href="classdualMove.html" target="_top" xlink:title="Customized move that changed symbol position in board.">
<polygon fill="white" stroke="#666666" points="188,-130 123,-130 123,-111 188,-111 188,-130"/>
<text text-anchor="middle" x="155.5" y="-118" font-family="Helvetica,sans-Serif" font-size="10.00">dualMove</text>
</a>
</g>
</g>
<!-- Node0&#45;&gt;Node1 -->
<g id="edge16_Node000000_Node000001" class="edge">
<title>Node0&#45;&gt;Node1</title>
<g id="a_edge16_Node000000_Node000001"><a xlink:title=" ">
<path fill="none" stroke="#63b8ff" d="M72.79,-78.9C92.51,-88.94 118.28,-102.06 135.56,-110.86"/>
<polygon fill="#63b8ff" stroke="#63b8ff" points="74.16,-75.67 63.66,-74.25 70.98,-81.91 74.16,-75.67"/>
</a>
</g>
</g>
<!-- Node2 -->
<g id="Node000002" class="node">
<title>Node2</title>
<g id="a_Node000002"><a xlink:href="classnMove.html" target="_top" xlink:title=" ">
<polygon fill="white" stroke="#666666" points="180.5,-93 130.5,-93 130.5,-74 180.5,-74 180.5,-93"/>
<text text-anchor="middle" x="155.5" y="-81" font-family="Helvetica,sans-Serif" font-size="10.00">nMove</text>
</a>
</g>
</g>
<!-- Node0&#45;&gt;Node2 -->
<g id="edge17_Node000000_Node000002" class="edge">
<title>Node0&#45;&gt;Node2</title>
<g id="a_edge17_Node000000_Node000002"><a xlink:title=" ">
<path fill="none" stroke="#63b8ff" d="M97.11,-73.59C108.69,-75.59 120.4,-77.61 130.21,-79.3"/>
<polygon fill="#63b8ff" stroke="#63b8ff" points="97.48,-70.1 87.03,-71.85 96.29,-77 97.48,-70.1"/>
</a>
</g>
</g>
<!-- Node3 -->
<g id="Node000003" class="node">
<title>Node3</title>
<g id="a_Node000003"><a xlink:href="classneMove.html" target="_top" xlink:title="A specialized move class for Word Tic&#45;Tac&#45;Toe.">
<polygon fill="white" stroke="#666666" points="183.5,-56 127.5,-56 127.5,-37 183.5,-37 183.5,-56"/>
<text text-anchor="middle" x="155.5" y="-44" font-family="Helvetica,sans-Serif" font-size="10.00">neMove</text>
</a>
</g>
</g>
<!-- Node0&#45;&gt;Node3 -->
<g id="edge18_Node000000_Node000003" class="edge">
<title>Node0&#45;&gt;Node3</title>
<g id="a_edge18_Node000000_Node000003"><a xlink:title=" ">
<path fill="none" stroke="#63b8ff" d="M97.01,-55.91C107.5,-54.19 118.12,-52.45 127.33,-50.95"/>
<polygon fill="#63b8ff" stroke="#63b8ff" points="96.33,-52.47 87.03,-57.54 97.46,-59.38 96.33,-52.47"/>
</a>
</g>
</g>
<!-- Node4 -->
<g id="Node000004" class="node">
<title>Node4</title>
<g id="a_Node000004"><a xlink:href="classne__Move.html" target="_top" xlink:title=" ">
<polygon fill="white" stroke="#666666" points="186,-19 125,-19 125,0 186,0 186,-19"/>
<text text-anchor="middle" x="155.5" y="-7" font-family="Helvetica,sans-Serif" font-size="10.00">ne_Move</text>
</a>
</g>
</g>
<!-- Node0&#45;&gt;Node4 -->
<g id="edge19_Node000000_Node000004" class="edge">
<title>Node0&#45;&gt;Node4</title>
<g id="a_edge19_Node000000_Node000004"><a xlink:title=" ">
<path fill="none" stroke="#63b8ff" d="M72.73,-50.38C92.32,-40.59 117.9,-27.8 135.19,-19.16"/>
<polygon fill="#63b8ff" stroke="#63b8ff" points="71.04,-47.32 63.66,-54.92 74.17,-53.58 71.04,-47.32"/>
</a>
</g>
</g>
</g>
</svg>
