<?xml version="1.0" encoding="UTF-8" standalone="no"?>
<!DOCTYPE svg PUBLIC "-//W3C//DTD SVG 1.1//EN"
 "http://www.w3.org/Graphics/SVG/1.1/DTD/svg11.dtd">
<!-- Generated by graphviz version 2.43.0 (0)
 -->
<!-- Title: Graphical Class Hierarchy Pages: 1 -->
<svg width="258pt" height="261pt"
 viewBox="0.00 0.00 258.00 261.00" xmlns="http://www.w3.org/2000/svg" xmlns:xlink="http://www.w3.org/1999/xlink">
<g id="graph0" class="graph" transform="scale(1 1) rotate(0) translate(4 257)">
<title>Graphical Class Hierarchy</title>
<!-- Node0 -->
<g id="Node000000" class="node">
<title>Node0</title>
<g id="a_Node000000"><a xlink:href="classBoard.html" target="_top" xlink:title=" ">
<polygon fill="white" stroke="#666666" points="89,-130 0,-130 0,-111 89,-111 89,-130"/>
<text text-anchor="middle" x="44.5" y="-118" font-family="Helvetica,sans-Serif" font-size="10.00">Board&lt; char &gt;</text>
</a>
</g>
</g>
<!-- Node1 -->
<g id="Node000001" class="node">
<title>Node1</title>
<g id="a_Node000001"><a xlink:href="classFour__Four__XO__Board.html" target="_top" xlink:title="Represent the 4*4 XO Tic Tac Toe Game.">
<polygon fill="white" stroke="#666666" points="245.5,-253 129.5,-253 129.5,-234 245.5,-234 245.5,-253"/>
<text text-anchor="middle" x="187.5" y="-241" font-family="Helvetica,sans-Serif" font-size="10.00">Four_Four_XO_Board</text>
</a>
</g>
</g>
<!-- Node0&#45;&gt;Node1 -->
<g id="edge1_Node000000_Node000001" class="edge">
<title>Node0&#45;&gt;Node1</title>
<g id="a_edge1_Node000000_Node000001"><a xlink:title=" ">
<path fill="none" stroke="#63b8ff" d="M54.83,-139.27C67.51,-162.87 92.39,-203.01 125,-225.5 129.95,-228.91 135.54,-231.68 141.29,-233.94"/>
<polygon fill="#63b8ff" stroke="#63b8ff" points="57.87,-137.53 50.15,-130.27 51.66,-140.76 57.87,-137.53"/>
</a>
</g>
</g>
<!-- Node2 -->
<g id="Node000002" class="node">
<title>Node2</title>
<g id="a_Node000002"><a xlink:href="classInfinity__X__O__Board.html" target="_top" xlink:title="Represents the Tic&#45;Tac&#45;Toe game board.">
<polygon fill="white" stroke="#666666" points="242,-216 133,-216 133,-197 242,-197 242,-216"/>
<text text-anchor="middle" x="187.5" y="-204" font-family="Helvetica,sans-Serif" font-size="10.00">Infinity_X_O_Board</text>
</a>
</g>
</g>
<!-- Node0&#45;&gt;Node2 -->
<g id="edge2_Node000000_Node000002" class="edge">
<title>Node0&#45;&gt;Node2</title>
<g id="a_edge2_Node000000_Node000002"><a xlink:title=" ">
<path fill="none" stroke="#63b8ff" d="M61.4,-137.3C76.49,-152.36 100.45,-174.09 125,-187.5 131.87,-191.25 139.57,-194.37 147.15,-196.92"/>
<polygon fill="#63b8ff" stroke="#63b8ff" points="63.86,-134.81 54.36,-130.11 58.86,-139.7 63.86,-134.81"/>
</a>
</g>
</g>
<!-- Node3 -->
<g id="Node000003" class="node">
<title>Node3</title>
<g id="a_Node000003"><a xlink:href="classMisere__Tic__Tac__Toe__board.html" target="_top" xlink:title="Represents the Tic&#45;Tac&#45;Toe game board.">
<polygon fill="white" stroke="#666666" points="243.5,-178.5 131.5,-178.5 131.5,-148.5 243.5,-148.5 243.5,-178.5"/>
<text text-anchor="start" x="139.5" y="-166.5" font-family="Helvetica,sans-Serif" font-size="10.00">Misere_Tic_Tac_Toe</text>
<text text-anchor="middle" x="187.5" y="-155.5" font-family="Helvetica,sans-Serif" font-size="10.00">_board</text>
</a>
</g>
</g>
<!-- Node0&#45;&gt;Node3 -->
<g id="edge3_Node000000_Node000003" class="edge">
<title>Node0&#45;&gt;Node3</title>
<g id="a_edge3_Node000000_Node000003"><a xlink:title=" ">
<path fill="none" stroke="#63b8ff" d="M86.8,-133.09C102.61,-137.92 120.81,-143.47 137.29,-148.49"/>
<polygon fill="#63b8ff" stroke="#63b8ff" points="87.38,-129.61 76.79,-130.04 85.34,-136.31 87.38,-129.61"/>
</a>
</g>
</g>
<!-- Node4 -->
<g id="Node000004" class="node">
<title>Node4</title>
<g id="a_Node000004"><a xlink:href="classNumerical__X__O__Board.html" target="_top" xlink:title=" ">
<polygon fill="white" stroke="#666666" points="250,-130 125,-130 125,-111 250,-111 250,-130"/>
<text text-anchor="middle" x="187.5" y="-118" font-family="Helvetica,sans-Serif" font-size="10.00">Numerical_X_O_Board</text>
</a>
</g>
</g>
<!-- Node0&#45;&gt;Node4 -->
<g id="edge4_Node000000_Node000004" class="edge">
<title>Node0&#45;&gt;Node4</title>
<g id="a_edge4_Node000000_Node000004"><a xlink:title=" ">
<path fill="none" stroke="#63b8ff" d="M99.59,-120.5C107.85,-120.5 116.42,-120.5 124.83,-120.5"/>
<polygon fill="#63b8ff" stroke="#63b8ff" points="99.34,-117 89.34,-120.5 99.34,-124 99.34,-117"/>
</a>
</g>
</g>
<!-- Node5 -->
<g id="Node000005" class="node">
<title>Node5</title>
<g id="a_Node000005"><a xlink:href="classPyramid__XO__Board.html" target="_top" xlink:title=" ">
<polygon fill="white" stroke="#666666" points="242.5,-93 132.5,-93 132.5,-74 242.5,-74 242.5,-93"/>
<text text-anchor="middle" x="187.5" y="-81" font-family="Helvetica,sans-Serif" font-size="10.00">Pyramid_XO_Board</text>
</a>
</g>
</g>
<!-- Node0&#45;&gt;Node5 -->
<g id="edge5_Node000000_Node000005" class="edge">
<title>Node0&#45;&gt;Node5</title>
<g id="a_edge5_Node000000_Node000005"><a xlink:title=" ">
<path fill="none" stroke="#63b8ff" d="M91.69,-108.38C110.55,-103.43 132.06,-97.78 149.82,-93.12"/>
<polygon fill="#63b8ff" stroke="#63b8ff" points="90.6,-105.05 81.81,-110.97 92.37,-111.82 90.6,-105.05"/>
</a>
</g>
</g>
<!-- Node6 -->
<g id="Node000006" class="node">
<title>Node6</title>
<g id="a_Node000006"><a xlink:href="classSUS__Board.html" target="_top" xlink:title=" ">
<polygon fill="white" stroke="#666666" points="222.5,-56 152.5,-56 152.5,-37 222.5,-37 222.5,-56"/>
<text text-anchor="middle" x="187.5" y="-44" font-family="Helvetica,sans-Serif" font-size="10.00">SUS_Board</text>
</a>
</g>
</g>
<!-- Node0&#45;&gt;Node6 -->
<g id="edge6_Node000000_Node000006" class="edge">
<title>Node0&#45;&gt;Node6</title>
<g id="a_edge6_Node000000_Node000006"><a xlink:title=" ">
<path fill="none" stroke="#63b8ff" d="M65.16,-104.35C80.63,-92.28 103.17,-76.11 125,-65.5 133.54,-61.35 143.19,-57.86 152.27,-55.05"/>
<polygon fill="#63b8ff" stroke="#63b8ff" points="62.56,-101.94 56.92,-110.91 66.92,-107.42 62.56,-101.94"/>
</a>
</g>
</g>
<!-- Node7 -->
<g id="Node000007" class="node">
<title>Node7</title>
<g id="a_Node000007"><a xlink:href="classX__O__5x5__Board.html" target="_top" xlink:title=" ">
<polygon fill="white" stroke="#666666" points="234,-19 141,-19 141,0 234,0 234,-19"/>
<text text-anchor="middle" x="187.5" y="-7" font-family="Helvetica,sans-Serif" font-size="10.00">X_O_5x5_Board</text>
</a>
</g>
</g>
<!-- Node0&#45;&gt;Node7 -->
<g id="edge7_Node000000_Node000007" class="edge">
<title>Node0&#45;&gt;Node7</title>
<g id="a_edge7_Node000000_Node000007"><a xlink:title=" ">
<path fill="none" stroke="#63b8ff" d="M56.64,-102.33C70.28,-81.55 95.27,-47.93 125,-28.5 130.89,-24.65 137.61,-21.54 144.39,-19.05"/>
<polygon fill="#63b8ff" stroke="#63b8ff" points="53.62,-100.55 51.2,-110.87 59.52,-104.32 53.62,-100.55"/>
</a>
</g>
</g>
</g>
</svg>
