<?xml version="1.0" encoding="UTF-8" standalone="no"?>
<!DOCTYPE svg PUBLIC "-//W3C//DTD SVG 1.1//EN"
 "http://www.w3.org/Graphics/SVG/1.1/DTD/svg11.dtd">
<!-- Generated by graphviz version 2.43.0 (0)
 -->
<!-- Title: src/main.cpp Pages: 1 -->
<svg width="1781pt" height="280pt"
 viewBox="0.00 0.00 1781.48 280.00" xmlns="http://www.w3.org/2000/svg" xmlns:xlink="http://www.w3.org/1999/xlink">
<g id="graph0" class="graph" transform="scale(1 1) rotate(0) translate(4 276)">
<title>src/main.cpp</title>
<!-- Node1 -->
<g id="Node000001" class="node">
<title>Node1</title>
<g id="a_Node000001"><a xlink:title="Entry point for the FCAI X&#45;O (Tic&#45;Tac&#45;Toe) game.">
<polygon fill="#999999" stroke="#666666" points="943.98,-272 864.98,-272 864.98,-253 943.98,-253 943.98,-272"/>
<text text-anchor="middle" x="904.48" y="-260" font-family="Helvetica,sans-Serif" font-size="10.00">src/main.cpp</text>
</a>
</g>
</g>
<!-- Node2 -->
<g id="Node000002" class="node">
<title>Node2</title>
<g id="a_Node000002"><a xlink:title=" ">
<polygon fill="#e0e0e0" stroke="#999999" points="529.48,-19 469.48,-19 469.48,0 529.48,0 529.48,-19"/>
<text text-anchor="middle" x="499.48" y="-7" font-family="Helvetica,sans-Serif" font-size="10.00">iostream</text>
</a>
</g>
</g>
<!-- Node1&#45;&gt;Node2 -->
<g id="edge1_Node000001_Node000002" class="edge">
<title>Node1&#45;&gt;Node2</title>
<g id="a_edge1_Node000001_Node000002"><a xlink:title=" ">
<path fill="none" stroke="#63b8ff" d="M864.75,-260.14C762.54,-256.29 492.59,-243.81 407.48,-217 351.27,-199.29 322.01,-202 292.48,-151 283.27,-135.09 282.31,-71.56 296.48,-55 317.21,-30.78 406.05,-18.79 459.09,-13.69"/>
<polygon fill="#63b8ff" stroke="#63b8ff" points="459.56,-17.16 469.19,-12.76 458.91,-10.19 459.56,-17.16"/>
</a>
</g>
</g>
<!-- Node3 -->
<g id="Node000003" class="node">
<title>Node3</title>
<g id="a_Node000003"><a xlink:title=" ">
<polygon fill="#e0e0e0" stroke="#999999" points="1613.48,-19 1569.48,-19 1569.48,0 1613.48,0 1613.48,-19"/>
<text text-anchor="middle" x="1591.48" y="-7" font-family="Helvetica,sans-Serif" font-size="10.00">string</text>
</a>
</g>
</g>
<!-- Node1&#45;&gt;Node3 -->
<g id="edge2_Node000001_Node000003" class="edge">
<title>Node1&#45;&gt;Node3</title>
<g id="a_edge2_Node000001_Node000003"><a xlink:title=" ">
<path fill="none" stroke="#63b8ff" d="M943.98,-261.68C1089.55,-261.99 1590.55,-259.91 1646.48,-217 1681.21,-190.35 1681.59,-162.76 1668.48,-121 1656.53,-82.96 1626.34,-46.58 1607.51,-26.51"/>
<polygon fill="#63b8ff" stroke="#63b8ff" points="1609.91,-23.96 1600.45,-19.19 1604.87,-28.82 1609.91,-23.96"/>
</a>
</g>
</g>
<!-- Node4 -->
<g id="Node000004" class="node">
<title>Node4</title>
<g id="a_Node000004"><a xlink:title=" ">
<polygon fill="#e0e0e0" stroke="#999999" points="53.98,-19 6.98,-19 6.98,0 53.98,0 53.98,-19"/>
<text text-anchor="middle" x="30.48" y="-7" font-family="Helvetica,sans-Serif" font-size="10.00">vector</text>
</a>
</g>
</g>
<!-- Node1&#45;&gt;Node4 -->
<g id="edge3_Node000001_Node000004" class="edge">
<title>Node1&#45;&gt;Node4</title>
<g id="a_edge3_Node000001_Node000004"><a xlink:title=" ">
<path fill="none" stroke="#63b8ff" d="M864.86,-261.81C705.28,-262.73 114.92,-263 46.48,-217 -14.58,-175.96 -1.57,-127.21 12.48,-55 14.27,-45.8 17.96,-36.09 21.54,-28.1"/>
<polygon fill="#63b8ff" stroke="#63b8ff" points="24.71,-29.59 25.86,-19.06 18.39,-26.57 24.71,-29.59"/>
</a>
</g>
</g>
<!-- Node5 -->
<g id="Node000005" class="node">
<title>Node5</title>
<g id="a_Node000005"><a xlink:title=" ">
<polygon fill="#e0e0e0" stroke="#999999" points="1773.48,-211.5 1715.48,-211.5 1715.48,-192.5 1773.48,-192.5 1773.48,-211.5"/>
<text text-anchor="middle" x="1744.48" y="-199.5" font-family="Helvetica,sans-Serif" font-size="10.00">memory</text>
</a>
</g>
</g>
<!-- Node1&#45;&gt;Node5 -->
<g id="edge4_Node000001_Node000005" class="edge">
<title>Node1&#45;&gt;Node5</title>
<g id="a_edge4_Node000001_Node000005"><a xlink:title=" ">
<path fill="none" stroke="#63b8ff" d="M944.04,-260.64C1083.79,-257.41 1553.69,-244.7 1701.48,-217 1704.98,-216.34 1708.59,-215.48 1712.16,-214.5"/>
<polygon fill="#63b8ff" stroke="#63b8ff" points="1713.44,-217.77 1722,-211.53 1711.42,-211.07 1713.44,-217.77"/>
</a>
</g>
</g>
<!-- Node6 -->
<g id="Node000006" class="node">
<title>Node6</title>
<g id="a_Node000006"><a xlink:href="BoardGame__Classes_8h.html" target="_top" xlink:title=" ">
<polygon fill="white" stroke="#666666" points="941.48,-85 819.48,-85 819.48,-55 941.48,-55 941.48,-85"/>
<text text-anchor="start" x="827.48" y="-73" font-family="Helvetica,sans-Serif" font-size="10.00">../include/BoardGame</text>
<text text-anchor="middle" x="880.48" y="-62" font-family="Helvetica,sans-Serif" font-size="10.00">_Classes.h</text>
</a>
</g>
</g>
<!-- Node1&#45;&gt;Node6 -->
<g id="edge5_Node000001_Node000006" class="edge">
<title>Node1&#45;&gt;Node6</title>
<g id="a_edge5_Node000001_Node000006"><a xlink:title=" ">
<path fill="none" stroke="#63b8ff" d="M905.8,-252.8C908.9,-230.52 915.57,-169.76 904.48,-121 902.39,-111.82 898.4,-102.36 894.26,-94.18"/>
<polygon fill="#63b8ff" stroke="#63b8ff" points="897.27,-92.38 889.44,-85.24 891.11,-95.71 897.27,-92.38"/>
</a>
</g>
</g>
<!-- Node8 -->
<g id="Node000008" class="node">
<title>Node8</title>
<g id="a_Node000008"><a xlink:href="Four__Four__XO_8h.html" target="_top" xlink:title=" ">
<polygon fill="white" stroke="#666666" points="194.98,-211.5 55.98,-211.5 55.98,-192.5 194.98,-192.5 194.98,-211.5"/>
<text text-anchor="middle" x="125.48" y="-199.5" font-family="Helvetica,sans-Serif" font-size="10.00">../include/Four_Four_XO.h</text>
</a>
</g>
</g>
<!-- Node1&#45;&gt;Node8 -->
<g id="edge10_Node000001_Node000008" class="edge">
<title>Node1&#45;&gt;Node8</title>
<g id="a_edge10_Node000001_Node000008"><a xlink:title=" ">
<path fill="none" stroke="#63b8ff" d="M864.74,-260.02C759.54,-255.86 465.21,-242.67 221.48,-217 210.83,-215.88 199.56,-214.45 188.62,-212.94"/>
<polygon fill="#63b8ff" stroke="#63b8ff" points="189.09,-209.47 178.7,-211.53 188.11,-216.4 189.09,-209.47"/>
</a>
</g>
</g>
<!-- Node14 -->
<g id="Node000014" class="node">
<title>Node14</title>
<g id="a_Node000014"><a xlink:href="Infinity__XO__Classes_8h.html" target="_top" xlink:title=" ">
<polygon fill="white" stroke="#666666" points="712.48,-217 614.48,-217 614.48,-187 712.48,-187 712.48,-217"/>
<text text-anchor="start" x="622.48" y="-205" font-family="Helvetica,sans-Serif" font-size="10.00">../include/Infinity</text>
<text text-anchor="middle" x="663.48" y="-194" font-family="Helvetica,sans-Serif" font-size="10.00">_XO_Classes.h</text>
</a>
</g>
</g>
<!-- Node1&#45;&gt;Node14 -->
<g id="edge21_Node000001_Node000014" class="edge">
<title>Node1&#45;&gt;Node14</title>
<g id="a_edge21_Node000001_Node000014"><a xlink:title=" ">
<path fill="none" stroke="#63b8ff" d="M869.44,-252.99C831,-243.66 768.67,-228.53 722.64,-217.36"/>
<polygon fill="#63b8ff" stroke="#63b8ff" points="723.32,-213.93 712.78,-214.97 721.67,-220.73 723.32,-213.93"/>
</a>
</g>
</g>
<!-- Node16 -->
<g id="Node000016" class="node">
<title>Node16</title>
<g id="a_Node000016"><a xlink:href="Numerical__X__O_8h.html" target="_top" xlink:title=" ">
<polygon fill="white" stroke="#666666" points="895.48,-151 781.48,-151 781.48,-121 895.48,-121 895.48,-151"/>
<text text-anchor="start" x="789.48" y="-139" font-family="Helvetica,sans-Serif" font-size="10.00">../include/Numerical</text>
<text text-anchor="middle" x="838.48" y="-128" font-family="Helvetica,sans-Serif" font-size="10.00">_X_O.h</text>
</a>
</g>
</g>
<!-- Node1&#45;&gt;Node16 -->
<g id="edge24_Node000001_Node000016" class="edge">
<title>Node1&#45;&gt;Node16</title>
<g id="a_edge24_Node000001_Node000016"><a xlink:title=" ">
<path fill="none" stroke="#63b8ff" d="M899.94,-252.94C889.94,-234.07 865.69,-188.34 850.82,-160.28"/>
<polygon fill="#63b8ff" stroke="#63b8ff" points="853.76,-158.36 845.99,-151.16 847.58,-161.64 853.76,-158.36"/>
</a>
</g>
</g>
<!-- Node17 -->
<g id="Node000017" class="node">
<title>Node17</title>
<g id="a_Node000017"><a xlink:href="Misere__Tic__Tac__Toe_8h.html" target="_top" xlink:title="Defines the X&#45;O (Tic&#45;Tac&#45;Toe) specific classes that extend the generic board game framework.">
<polygon fill="white" stroke="#666666" points="1344.48,-217 1228.48,-217 1228.48,-187 1344.48,-187 1344.48,-217"/>
<text text-anchor="start" x="1236.48" y="-205" font-family="Helvetica,sans-Serif" font-size="10.00">../include/Misere_Tic</text>
<text text-anchor="middle" x="1286.48" y="-194" font-family="Helvetica,sans-Serif" font-size="10.00">_Tac_Toe.h</text>
</a>
</g>
</g>
<!-- Node1&#45;&gt;Node17 -->
<g id="edge26_Node000001_Node000017" class="edge">
<title>Node1&#45;&gt;Node17</title>
<g id="a_edge26_Node000001_Node000017"><a xlink:title=" ">
<path fill="none" stroke="#63b8ff" d="M944.39,-256.71C1002.44,-249.57 1113.77,-235.16 1218.32,-217.13"/>
<polygon fill="#63b8ff" stroke="#63b8ff" points="1219.17,-220.54 1228.42,-215.38 1217.97,-213.64 1219.17,-220.54"/>
</a>
</g>
</g>
<!-- Node21 -->
<g id="Node000021" class="node">
<title>Node21</title>
<g id="a_Node000021"><a xlink:href="SUS__Classes_8h.html" target="_top" xlink:title=" ">
<polygon fill="white" stroke="#666666" points="1658.98,-145.5 1523.98,-145.5 1523.98,-126.5 1658.98,-126.5 1658.98,-145.5"/>
<text text-anchor="middle" x="1591.48" y="-133.5" font-family="Helvetica,sans-Serif" font-size="10.00">../include/SUS_Classes.h</text>
</a>
</g>
</g>
<!-- Node1&#45;&gt;Node21 -->
<g id="edge33_Node000001_Node000021" class="edge">
<title>Node1&#45;&gt;Node21</title>
<g id="a_edge33_Node000001_Node000021"><a xlink:title=" ">
<path fill="none" stroke="#63b8ff" d="M944.05,-260.56C1092.07,-256.84 1605.83,-242.15 1629.48,-217 1646.93,-198.45 1625.89,-170.41 1608.86,-152.93"/>
<polygon fill="#63b8ff" stroke="#63b8ff" points="1611.07,-150.2 1601.48,-145.72 1606.18,-155.21 1611.07,-150.2"/>
</a>
</g>
</g>
<!-- Node22 -->
<g id="Node000022" class="node">
<title>Node22</title>
<g id="a_Node000022"><a xlink:href="X__O__5x5_8h.html" target="_top" xlink:title=" ">
<polygon fill="white" stroke="#666666" points="1067.48,-145.5 951.48,-145.5 951.48,-126.5 1067.48,-126.5 1067.48,-145.5"/>
<text text-anchor="middle" x="1009.48" y="-133.5" font-family="Helvetica,sans-Serif" font-size="10.00">../include/X_O_5x5.h</text>
</a>
</g>
</g>
<!-- Node1&#45;&gt;Node22 -->
<g id="edge36_Node000001_Node000022" class="edge">
<title>Node1&#45;&gt;Node22</title>
<g id="a_edge36_Node000001_Node000022"><a xlink:title=" ">
<path fill="none" stroke="#63b8ff" d="M910.51,-252.99C920.6,-238.9 941.76,-209.99 961.48,-187 971.64,-175.16 983.82,-162.48 993.37,-152.86"/>
<polygon fill="#63b8ff" stroke="#63b8ff" points="996.07,-155.11 1000.67,-145.57 991.12,-150.16 996.07,-155.11"/>
</a>
</g>
</g>
<!-- Node23 -->
<g id="Node000023" class="node">
<title>Node23</title>
<g id="a_Node000023"><a xlink:href="Pyramid__XO_8h.html" target="_top" xlink:title=" ">
<polygon fill="white" stroke="#666666" points="1620.48,-211.5 1488.48,-211.5 1488.48,-192.5 1620.48,-192.5 1620.48,-211.5"/>
<text text-anchor="middle" x="1554.48" y="-199.5" font-family="Helvetica,sans-Serif" font-size="10.00">../include/Pyramid_XO.h</text>
</a>
</g>
</g>
<!-- Node1&#45;&gt;Node23 -->
<g id="edge38_Node000001_Node000023" class="edge">
<title>Node1&#45;&gt;Node23</title>
<g id="a_edge38_Node000001_Node000023"><a xlink:title=" ">
<path fill="none" stroke="#63b8ff" d="M944.02,-259.9C1037.48,-255.81 1279.2,-243.36 1479.48,-217 1487.24,-215.98 1495.4,-214.68 1503.38,-213.3"/>
<polygon fill="#63b8ff" stroke="#63b8ff" points="1504.12,-216.72 1513.34,-211.5 1502.88,-209.83 1504.12,-216.72"/>
</a>
</g>
</g>
<!-- Node24 -->
<g id="Node000024" class="node">
<title>Node24</title>
<g id="a_Node000024"><a xlink:href="Four-in-a-row_8h.html" target="_top" xlink:title="Defines the X&#45;O (Tic&#45;Tac&#45;Toe) specific classes that extend the generic board game framework.">
<polygon fill="white" stroke="#666666" points="1068.48,-217 970.48,-217 970.48,-187 1068.48,-187 1068.48,-217"/>
<text text-anchor="start" x="978.48" y="-205" font-family="Helvetica,sans-Serif" font-size="10.00">../include/Four&#45;in</text>
<text text-anchor="middle" x="1019.48" y="-194" font-family="Helvetica,sans-Serif" font-size="10.00">&#45;a&#45;row.h</text>
</a>
</g>
</g>
<!-- Node1&#45;&gt;Node24 -->
<g id="edge41_Node000001_Node000024" class="edge">
<title>Node1&#45;&gt;Node24</title>
<g id="a_edge41_Node000001_Node000024"><a xlink:title=" ">
<path fill="none" stroke="#63b8ff" d="M921.45,-252.87C937.49,-244.71 962.08,-232.2 982.62,-221.75"/>
<polygon fill="#63b8ff" stroke="#63b8ff" points="984.41,-224.77 991.73,-217.11 981.23,-218.53 984.41,-224.77"/>
</a>
</g>
</g>
<!-- Node25 -->
<g id="Node000025" class="node">
<title>Node25</title>
<g id="a_Node000025"><a xlink:href="Diamond__Tic__Tac__Toe_8h.html" target="_top" xlink:title=" ">
<polygon fill="white" stroke="#666666" points="1470.48,-217 1362.48,-217 1362.48,-187 1470.48,-187 1470.48,-217"/>
<text text-anchor="start" x="1370.48" y="-205" font-family="Helvetica,sans-Serif" font-size="10.00">../include/Diamond</text>
<text text-anchor="middle" x="1416.48" y="-194" font-family="Helvetica,sans-Serif" font-size="10.00">_Tic_Tac_Toe.h</text>
</a>
</g>
</g>
<!-- Node1&#45;&gt;Node25 -->
<g id="edge44_Node000001_Node000025" class="edge">
<title>Node1&#45;&gt;Node25</title>
<g id="a_edge44_Node000001_Node000025"><a xlink:title=" ">
<path fill="none" stroke="#63b8ff" d="M944.02,-259.18C1020.79,-254.33 1195.51,-241.61 1351.98,-217.11"/>
<polygon fill="#63b8ff" stroke="#63b8ff" points="1352.93,-220.5 1362.26,-215.48 1351.84,-213.59 1352.93,-220.5"/>
</a>
</g>
</g>
<!-- Node26 -->
<g id="Node000026" class="node">
<title>Node26</title>
<g id="a_Node000026"><a xlink:href="Obstacles__XO_8h.html" target="_top" xlink:title="Defines the Obstacles Tic&#45;Tac&#45;Toe game classes.">
<polygon fill="white" stroke="#666666" points="583.48,-145.5 443.48,-145.5 443.48,-126.5 583.48,-126.5 583.48,-145.5"/>
<text text-anchor="middle" x="513.48" y="-133.5" font-family="Helvetica,sans-Serif" font-size="10.00">../include/Obstacles_XO.h</text>
</a>
</g>
</g>
<!-- Node1&#45;&gt;Node26 -->
<g id="edge48_Node000001_Node000026" class="edge">
<title>Node1&#45;&gt;Node26</title>
<g id="a_edge48_Node000001_Node000026"><a xlink:title=" ">
<path fill="none" stroke="#63b8ff" d="M864.93,-260.45C762.03,-257.33 492.03,-246.38 465.48,-217 447.34,-196.93 473.29,-169 493.53,-152.01"/>
<polygon fill="#63b8ff" stroke="#63b8ff" points="495.83,-154.65 501.44,-145.66 491.45,-149.19 495.83,-154.65"/>
</a>
</g>
</g>
<!-- Node27 -->
<g id="Node000027" class="node">
<title>Node27</title>
<g id="a_Node000027"><a xlink:href="Words__XO_8h.html" target="_top" xlink:title="Defines the Word Tic&#45;Tac&#45;Toe specific classes that extend the generic board game framework.">
<polygon fill="white" stroke="#666666" points="596.48,-211.5 474.48,-211.5 474.48,-192.5 596.48,-192.5 596.48,-211.5"/>
<text text-anchor="middle" x="535.48" y="-199.5" font-family="Helvetica,sans-Serif" font-size="10.00">../include/Words_XO.h</text>
</a>
</g>
</g>
<!-- Node1&#45;&gt;Node27 -->
<g id="edge50_Node000001_Node000027" class="edge">
<title>Node1&#45;&gt;Node27</title>
<g id="a_edge50_Node000001_Node000027"><a xlink:title=" ">
<path fill="none" stroke="#63b8ff" d="M864.72,-256.22C807.33,-248.46 698.03,-233.13 605.48,-217 599.31,-215.92 592.85,-214.73 586.45,-213.5"/>
<polygon fill="#63b8ff" stroke="#63b8ff" points="586.99,-210.04 576.5,-211.56 585.65,-216.91 586.99,-210.04"/>
</a>
</g>
</g>
<!-- Node28 -->
<g id="Node000028" class="node">
<title>Node28</title>
<g id="a_Node000028"><a xlink:href="Memory__Tic-Tac-Toe_8h.html" target="_top" xlink:title=" ">
<polygon fill="white" stroke="#666666" points="1210.48,-217 1086.48,-217 1086.48,-187 1210.48,-187 1210.48,-217"/>
<text text-anchor="start" x="1094.48" y="-205" font-family="Helvetica,sans-Serif" font-size="10.00">../include/Memory_Tic</text>
<text text-anchor="middle" x="1148.48" y="-194" font-family="Helvetica,sans-Serif" font-size="10.00">&#45;Tac&#45;Toe.h</text>
</a>
</g>
</g>
<!-- Node1&#45;&gt;Node28 -->
<g id="edge52_Node000001_Node000028" class="edge">
<title>Node1&#45;&gt;Node28</title>
<g id="a_edge52_Node000001_Node000028"><a xlink:title=" ">
<path fill="none" stroke="#63b8ff" d="M939.96,-252.99C976.53,-244.23 1034.47,-230.33 1080.01,-219.42"/>
<polygon fill="#63b8ff" stroke="#63b8ff" points="1080.91,-222.8 1089.82,-217.06 1079.28,-215.99 1080.91,-222.8"/>
</a>
</g>
</g>
<!-- Node29 -->
<g id="Node000029" class="node">
<title>Node29</title>
<g id="a_Node000029"><a xlink:href="Ultimate__Tic__Tac__Toe_8h.html" target="_top" xlink:title=" ">
<polygon fill="white" stroke="#666666" points="837.98,-217 730.98,-217 730.98,-187 837.98,-187 837.98,-217"/>
<text text-anchor="start" x="738.98" y="-205" font-family="Helvetica,sans-Serif" font-size="10.00">../include/Ultimate</text>
<text text-anchor="middle" x="784.48" y="-194" font-family="Helvetica,sans-Serif" font-size="10.00">_Tic_Tac_Toe.h</text>
</a>
</g>
</g>
<!-- Node1&#45;&gt;Node29 -->
<g id="edge55_Node000001_Node000029" class="edge">
<title>Node1&#45;&gt;Node29</title>
<g id="a_edge55_Node000001_Node000029"><a xlink:title=" ">
<path fill="none" stroke="#63b8ff" d="M887.03,-252.99C870.27,-244.82 844.38,-232.2 822.81,-221.69"/>
<polygon fill="#63b8ff" stroke="#63b8ff" points="824.08,-218.41 813.56,-217.18 821.02,-224.71 824.08,-218.41"/>
</a>
</g>
</g>
<!-- Node30 -->
<g id="Node000030" class="node">
<title>Node30</title>
<g id="a_Node000030"><a xlink:href="gamesMenu_8h.html" target="_top" xlink:title=" ">
<polygon fill="white" stroke="#666666" points="425.48,-145.5 301.48,-145.5 301.48,-126.5 425.48,-126.5 425.48,-145.5"/>
<text text-anchor="middle" x="363.48" y="-133.5" font-family="Helvetica,sans-Serif" font-size="10.00">include/gamesMenu.h</text>
</a>
</g>
</g>
<!-- Node1&#45;&gt;Node30 -->
<g id="edge57_Node000001_Node000030" class="edge">
<title>Node1&#45;&gt;Node30</title>
<g id="a_edge57_Node000001_Node000030"><a xlink:title=" ">
<path fill="none" stroke="#63b8ff" d="M864.81,-260.64C769.22,-258.07 528.66,-248.57 455.48,-217 422.61,-202.82 393.02,-172.47 376.72,-153.5"/>
<polygon fill="#63b8ff" stroke="#63b8ff" points="379.3,-151.12 370.2,-145.68 373.92,-155.6 379.3,-151.12"/>
</a>
</g>
</g>
<!-- Node6&#45;&gt;Node2 -->
<g id="edge8_Node000006_Node000002" class="edge">
<title>Node6&#45;&gt;Node2</title>
<g id="a_edge8_Node000006_Node000002"><a xlink:title=" ">
<path fill="none" stroke="#63b8ff" d="M819.26,-59.6C740.79,-47.55 606.91,-27 540.02,-16.72"/>
<polygon fill="#63b8ff" stroke="#63b8ff" points="540.29,-13.23 529.88,-15.17 539.23,-20.14 540.29,-13.23"/>
</a>
</g>
</g>
<!-- Node6&#45;&gt;Node3 -->
<g id="edge6_Node000006_Node000003" class="edge">
<title>Node6&#45;&gt;Node3</title>
<g id="a_edge6_Node000006_Node000003"><a xlink:title=" ">
<path fill="none" stroke="#63b8ff" d="M941.71,-63.96C1087.1,-52 1449.14,-22.21 1559.22,-13.15"/>
<polygon fill="#63b8ff" stroke="#63b8ff" points="1559.68,-16.63 1569.36,-12.32 1559.11,-9.65 1559.68,-16.63"/>
</a>
</g>
</g>
<!-- Node6&#45;&gt;Node4 -->
<g id="edge7_Node000006_Node000004" class="edge">
<title>Node6&#45;&gt;Node4</title>
<g id="a_edge7_Node000006_Node000004"><a xlink:title=" ">
<path fill="none" stroke="#63b8ff" d="M819.35,-64.79C652.37,-53.3 192.44,-21.65 64.12,-12.81"/>
<polygon fill="#63b8ff" stroke="#63b8ff" points="64.31,-9.32 54.09,-12.13 63.83,-16.3 64.31,-9.32"/>
</a>
</g>
</g>
<!-- Node7 -->
<g id="Node000007" class="node">
<title>Node7</title>
<g id="a_Node000007"><a xlink:title=" ">
<polygon fill="#e0e0e0" stroke="#999999" points="908.48,-19 852.48,-19 852.48,0 908.48,0 908.48,-19"/>
<text text-anchor="middle" x="880.48" y="-7" font-family="Helvetica,sans-Serif" font-size="10.00">iomanip</text>
</a>
</g>
</g>
<!-- Node6&#45;&gt;Node7 -->
<g id="edge9_Node000006_Node000007" class="edge">
<title>Node6&#45;&gt;Node7</title>
<g id="a_edge9_Node000006_Node000007"><a xlink:title=" ">
<path fill="none" stroke="#63b8ff" d="M880.48,-54.84C880.48,-47.21 880.48,-37.7 880.48,-29.45"/>
<polygon fill="#63b8ff" stroke="#63b8ff" points="883.98,-29.27 880.48,-19.27 876.98,-29.27 883.98,-29.27"/>
</a>
</g>
</g>
<!-- Node8&#45;&gt;Node4 -->
<g id="edge19_Node000008_Node000004" class="edge">
<title>Node8&#45;&gt;Node4</title>
<g id="a_edge19_Node000008_Node000004"><a xlink:title=" ">
<path fill="none" stroke="#63b8ff" d="M90.59,-192.49C69.19,-185.27 43.48,-172.54 30.48,-151 7.44,-112.84 17.29,-57.57 24.82,-29.06"/>
<polygon fill="#63b8ff" stroke="#63b8ff" points="28.25,-29.8 27.61,-19.22 21.51,-27.89 28.25,-29.8"/>
</a>
</g>
</g>
<!-- Node8&#45;&gt;Node6 -->
<g id="edge11_Node000008_Node000006" class="edge">
<title>Node8&#45;&gt;Node6</title>
<g id="a_edge11_Node000008_Node000006"><a xlink:title=" ">
<path fill="none" stroke="#63b8ff" d="M141.5,-192.4C176.98,-173.52 261.46,-129.44 292.48,-121 387.98,-95 674.28,-79.77 808.96,-73.86"/>
<polygon fill="#63b8ff" stroke="#63b8ff" points="809.33,-77.34 819.17,-73.41 809.03,-70.35 809.33,-77.34"/>
</a>
</g>
</g>
<!-- Node9 -->
<g id="Node000009" class="node">
<title>Node9</title>
<g id="a_Node000009"><a xlink:href="AiPlayer_8h.html" target="_top" xlink:title=" ">
<polygon fill="white" stroke="#666666" points="206.98,-145.5 141.98,-145.5 141.98,-126.5 206.98,-126.5 206.98,-145.5"/>
<text text-anchor="middle" x="174.48" y="-133.5" font-family="Helvetica,sans-Serif" font-size="10.00">AiPlayer.h</text>
</a>
</g>
</g>
<!-- Node8&#45;&gt;Node9 -->
<g id="edge12_Node000008_Node000009" class="edge">
<title>Node8&#45;&gt;Node9</title>
<g id="a_edge12_Node000008_Node000009"><a xlink:title=" ">
<path fill="none" stroke="#63b8ff" d="M132.09,-192.37C139.57,-182.59 151.95,-166.42 161.41,-154.08"/>
<polygon fill="#63b8ff" stroke="#63b8ff" points="164.36,-155.97 167.66,-145.91 158.8,-151.72 164.36,-155.97"/>
</a>
</g>
</g>
<!-- Node11 -->
<g id="Node000011" class="node">
<title>Node11</title>
<g id="a_Node000011"><a xlink:title=" ">
<polygon fill="#e0e0e0" stroke="#999999" points="209.48,-79.5 165.48,-79.5 165.48,-60.5 209.48,-60.5 209.48,-79.5"/>
<text text-anchor="middle" x="187.48" y="-67.5" font-family="Helvetica,sans-Serif" font-size="10.00">limits</text>
</a>
</g>
</g>
<!-- Node8&#45;&gt;Node11 -->
<g id="edge18_Node000008_Node000011" class="edge">
<title>Node8&#45;&gt;Node11</title>
<g id="a_edge18_Node000008_Node000011"><a xlink:title=" ">
<path fill="none" stroke="#63b8ff" d="M124.23,-192.04C122.52,-176.62 120.84,-144.48 132.48,-121 139.6,-106.63 152.78,-94.42 164.45,-85.67"/>
<polygon fill="#63b8ff" stroke="#63b8ff" points="166.8,-88.3 172.95,-79.67 162.76,-82.57 166.8,-88.3"/>
</a>
</g>
</g>
<!-- Node13 -->
<g id="Node000013" class="node">
<title>Node13</title>
<g id="a_Node000013"><a xlink:title=" ">
<polygon fill="#e0e0e0" stroke="#999999" points="84.98,-145.5 39.98,-145.5 39.98,-126.5 84.98,-126.5 84.98,-145.5"/>
<text text-anchor="middle" x="62.48" y="-133.5" font-family="Helvetica,sans-Serif" font-size="10.00">utility</text>
</a>
</g>
</g>
<!-- Node8&#45;&gt;Node13 -->
<g id="edge20_Node000008_Node000013" class="edge">
<title>Node8&#45;&gt;Node13</title>
<g id="a_edge20_Node000008_Node000013"><a xlink:title=" ">
<path fill="none" stroke="#63b8ff" d="M116.98,-192.37C107.17,-182.4 90.82,-165.79 78.58,-153.36"/>
<polygon fill="#63b8ff" stroke="#63b8ff" points="80.75,-150.58 71.24,-145.91 75.77,-155.49 80.75,-150.58"/>
</a>
</g>
</g>
<!-- Node9&#45;&gt;Node4 -->
<g id="edge16_Node000009_Node000004" class="edge">
<title>Node9&#45;&gt;Node4</title>
<g id="a_edge16_Node000009_Node000004"><a xlink:title=" ">
<path fill="none" stroke="#63b8ff" d="M143.44,-126.37C120.42,-118.67 89.52,-105.4 68.48,-85 52.4,-69.41 41.91,-45.57 36.1,-29.07"/>
<polygon fill="#63b8ff" stroke="#63b8ff" points="39.39,-27.87 32.95,-19.46 32.74,-30.05 39.39,-27.87"/>
</a>
</g>
</g>
<!-- Node9&#45;&gt;Node6 -->
<g id="edge13_Node000009_Node000006" class="edge">
<title>Node9&#45;&gt;Node6</title>
<g id="a_edge13_Node000009_Node000006"><a xlink:title=" ">
<path fill="none" stroke="#63b8ff" d="M207.08,-128.98C222.86,-126.23 242.11,-123.13 259.48,-121 457.75,-96.73 693.13,-81.46 808.9,-74.83"/>
<polygon fill="#63b8ff" stroke="#63b8ff" points="809.26,-78.31 819.05,-74.25 808.87,-71.33 809.26,-78.31"/>
</a>
</g>
</g>
<!-- Node10 -->
<g id="Node000010" class="node">
<title>Node10</title>
<g id="a_Node000010"><a xlink:title=" ">
<polygon fill="#e0e0e0" stroke="#999999" points="343.48,-79.5 305.48,-79.5 305.48,-60.5 343.48,-60.5 343.48,-79.5"/>
<text text-anchor="middle" x="324.48" y="-67.5" font-family="Helvetica,sans-Serif" font-size="10.00">map</text>
</a>
</g>
</g>
<!-- Node9&#45;&gt;Node10 -->
<g id="edge14_Node000009_Node000010" class="edge">
<title>Node9&#45;&gt;Node10</title>
<g id="a_edge14_Node000009_Node000010"><a xlink:title=" ">
<path fill="none" stroke="#63b8ff" d="M194.71,-126.37C220.72,-115.27 266.05,-95.93 295.66,-83.3"/>
<polygon fill="#63b8ff" stroke="#63b8ff" points="297.22,-86.44 305.04,-79.29 294.47,-80 297.22,-86.44"/>
</a>
</g>
</g>
<!-- Node9&#45;&gt;Node11 -->
<g id="edge15_Node000009_Node000011" class="edge">
<title>Node9&#45;&gt;Node11</title>
<g id="a_edge15_Node000009_Node000011"><a xlink:title=" ">
<path fill="none" stroke="#63b8ff" d="M176.23,-126.37C178.12,-117.07 181.19,-101.98 183.64,-89.9"/>
<polygon fill="#63b8ff" stroke="#63b8ff" points="187.11,-90.4 185.67,-79.91 180.25,-89.01 187.11,-90.4"/>
</a>
</g>
</g>
<!-- Node12 -->
<g id="Node000012" class="node">
<title>Node12</title>
<g id="a_Node000012"><a xlink:title=" ">
<polygon fill="#e0e0e0" stroke="#999999" points="146.98,-79.5 77.98,-79.5 77.98,-60.5 146.98,-60.5 146.98,-79.5"/>
<text text-anchor="middle" x="112.48" y="-67.5" font-family="Helvetica,sans-Serif" font-size="10.00">type_traits</text>
</a>
</g>
</g>
<!-- Node9&#45;&gt;Node12 -->
<g id="edge17_Node000009_Node000012" class="edge">
<title>Node9&#45;&gt;Node12</title>
<g id="a_edge17_Node000009_Node000012"><a xlink:title=" ">
<path fill="none" stroke="#63b8ff" d="M166.12,-126.37C156.46,-116.4 140.37,-99.79 128.33,-87.36"/>
<polygon fill="#63b8ff" stroke="#63b8ff" points="130.58,-84.65 121.11,-79.91 125.55,-89.52 130.58,-84.65"/>
</a>
</g>
</g>
<!-- Node14&#45;&gt;Node6 -->
<g id="edge23_Node000014_Node000006" class="edge">
<title>Node14&#45;&gt;Node6</title>
<g id="a_edge23_Node000014_Node000006"><a xlink:title=" ">
<path fill="none" stroke="#63b8ff" d="M678.07,-186.8C696.38,-169.54 729.29,-140.35 761.48,-121 782.81,-108.18 808.03,-97.07 829.75,-88.6"/>
<polygon fill="#63b8ff" stroke="#63b8ff" points="831.05,-91.86 839.14,-85.02 828.55,-85.32 831.05,-91.86"/>
</a>
</g>
</g>
<!-- Node15 -->
<g id="Node000015" class="node">
<title>Node15</title>
<g id="a_Node000015"><a xlink:title=" ">
<polygon fill="#e0e0e0" stroke="#999999" points="686.98,-145.5 639.98,-145.5 639.98,-126.5 686.98,-126.5 686.98,-145.5"/>
<text text-anchor="middle" x="663.48" y="-133.5" font-family="Helvetica,sans-Serif" font-size="10.00">queue</text>
</a>
</g>
</g>
<!-- Node14&#45;&gt;Node15 -->
<g id="edge22_Node000014_Node000015" class="edge">
<title>Node14&#45;&gt;Node15</title>
<g id="a_edge22_Node000014_Node000015"><a xlink:title=" ">
<path fill="none" stroke="#63b8ff" d="M663.48,-186.8C663.48,-177.7 663.48,-165.79 663.48,-155.9"/>
<polygon fill="#63b8ff" stroke="#63b8ff" points="666.98,-155.84 663.48,-145.84 659.98,-155.84 666.98,-155.84"/>
</a>
</g>
</g>
<!-- Node16&#45;&gt;Node6 -->
<g id="edge25_Node000016_Node000006" class="edge">
<title>Node16&#45;&gt;Node6</title>
<g id="a_edge25_Node000016_Node000006"><a xlink:title=" ">
<path fill="none" stroke="#63b8ff" d="M847.8,-120.8C853.02,-112.84 859.65,-102.74 865.58,-93.71"/>
<polygon fill="#63b8ff" stroke="#63b8ff" points="868.62,-95.44 871.18,-85.16 862.77,-91.6 868.62,-95.44"/>
</a>
</g>
</g>
<!-- Node17&#45;&gt;Node6 -->
<g id="edge28_Node000017_Node000006" class="edge">
<title>Node17&#45;&gt;Node6</title>
<g id="a_edge28_Node000017_Node000006"><a xlink:title=" ">
<path fill="none" stroke="#63b8ff" d="M1285.1,-186.87C1282.5,-168.56 1275.13,-137.08 1254.48,-121 1208.66,-85.32 1046.93,-75.08 951.81,-72.16"/>
<polygon fill="#63b8ff" stroke="#63b8ff" points="951.78,-68.65 941.69,-71.86 951.58,-75.65 951.78,-68.65"/>
</a>
</g>
</g>
<!-- Node18 -->
<g id="Node000018" class="node">
<title>Node18</title>
<g id="a_Node000018"><a xlink:title=" ">
<polygon fill="#e0e0e0" stroke="#999999" points="1244.98,-145.5 1161.98,-145.5 1161.98,-126.5 1244.98,-126.5 1244.98,-145.5"/>
<text text-anchor="middle" x="1203.48" y="-133.5" font-family="Helvetica,sans-Serif" font-size="10.00">bits/stdc++.h</text>
</a>
</g>
</g>
<!-- Node17&#45;&gt;Node18 -->
<g id="edge27_Node000017_Node000018" class="edge">
<title>Node17&#45;&gt;Node18</title>
<g id="a_edge27_Node000017_Node000018"><a xlink:title=" ">
<path fill="none" stroke="#63b8ff" d="M1268.06,-186.8C1254.74,-176.53 1236.77,-162.67 1223.16,-152.18"/>
<polygon fill="#63b8ff" stroke="#63b8ff" points="1225.01,-149.18 1214.95,-145.84 1220.73,-154.72 1225.01,-149.18"/>
</a>
</g>
</g>
<!-- Node19 -->
<g id="Node000019" class="node">
<title>Node19</title>
<g id="a_Node000019"><a xlink:href="Smart__Player_8h.html" target="_top" xlink:title=" ">
<polygon fill="white" stroke="#666666" points="1429.48,-145.5 1301.48,-145.5 1301.48,-126.5 1429.48,-126.5 1429.48,-145.5"/>
<text text-anchor="middle" x="1365.48" y="-133.5" font-family="Helvetica,sans-Serif" font-size="10.00">include/Smart_Player.h</text>
</a>
</g>
</g>
<!-- Node17&#45;&gt;Node19 -->
<g id="edge29_Node000017_Node000019" class="edge">
<title>Node17&#45;&gt;Node19</title>
<g id="a_edge29_Node000017_Node000019"><a xlink:title=" ">
<path fill="none" stroke="#63b8ff" d="M1304.01,-186.8C1316.69,-176.53 1333.8,-162.67 1346.74,-152.18"/>
<polygon fill="#63b8ff" stroke="#63b8ff" points="1348.99,-154.86 1354.56,-145.84 1344.59,-149.42 1348.99,-154.86"/>
</a>
</g>
</g>
<!-- Node19&#45;&gt;Node6 -->
<g id="edge30_Node000019_Node000006" class="edge">
<title>Node19&#45;&gt;Node6</title>
<g id="a_edge30_Node000019_Node000006"><a xlink:title=" ">
<path fill="none" stroke="#63b8ff" d="M1320.18,-126.43C1309.48,-124.53 1298.09,-122.6 1287.48,-121 1170.19,-103.28 1033.16,-87.45 951.78,-78.55"/>
<polygon fill="#63b8ff" stroke="#63b8ff" points="951.97,-75.05 941.65,-77.45 951.21,-82.01 951.97,-75.05"/>
</a>
</g>
</g>
<!-- Node19&#45;&gt;Node11 -->
<g id="edge31_Node000019_Node000011" class="edge">
<title>Node19&#45;&gt;Node11</title>
<g id="a_edge31_Node000019_Node000011"><a xlink:title=" ">
<path fill="none" stroke="#63b8ff" d="M1305.67,-126.48C1289.12,-124.39 1271.13,-122.36 1254.48,-121 829.82,-86.31 721.1,-120.18 296.48,-85 270.5,-82.85 241.2,-79 219.53,-75.89"/>
<polygon fill="#63b8ff" stroke="#63b8ff" points="219.95,-72.41 209.55,-74.43 218.93,-79.34 219.95,-72.41"/>
</a>
</g>
</g>
<!-- Node20 -->
<g id="Node000020" class="node">
<title>Node20</title>
<g id="a_Node000020"><a xlink:title=" ">
<polygon fill="#e0e0e0" stroke="#999999" points="1397.48,-79.5 1333.48,-79.5 1333.48,-60.5 1397.48,-60.5 1397.48,-79.5"/>
<text text-anchor="middle" x="1365.48" y="-67.5" font-family="Helvetica,sans-Serif" font-size="10.00">algorithm</text>
</a>
</g>
</g>
<!-- Node19&#45;&gt;Node20 -->
<g id="edge32_Node000019_Node000020" class="edge">
<title>Node19&#45;&gt;Node20</title>
<g id="a_edge32_Node000019_Node000020"><a xlink:title=" ">
<path fill="none" stroke="#63b8ff" d="M1365.48,-126.37C1365.48,-117.16 1365.48,-102.29 1365.48,-90.27"/>
<polygon fill="#63b8ff" stroke="#63b8ff" points="1368.98,-89.91 1365.48,-79.91 1361.98,-89.91 1368.98,-89.91"/>
</a>
</g>
</g>
<!-- Node21&#45;&gt;Node3 -->
<g id="edge35_Node000021_Node000003" class="edge">
<title>Node21&#45;&gt;Node3</title>
<g id="a_edge35_Node000021_Node000003"><a xlink:title=" ">
<path fill="none" stroke="#63b8ff" d="M1591.48,-126.44C1591.48,-106.54 1591.48,-56.76 1591.48,-29.35"/>
<polygon fill="#63b8ff" stroke="#63b8ff" points="1594.98,-29.12 1591.48,-19.12 1587.98,-29.12 1594.98,-29.12"/>
</a>
</g>
</g>
<!-- Node21&#45;&gt;Node6 -->
<g id="edge34_Node000021_Node000006" class="edge">
<title>Node21&#45;&gt;Node6</title>
<g id="a_edge34_Node000021_Node000006"><a xlink:title=" ">
<path fill="none" stroke="#63b8ff" d="M1546.04,-126.5C1534.17,-124.48 1521.37,-122.49 1509.48,-121 1308.2,-95.87 1069.03,-80.94 952.08,-74.59"/>
<polygon fill="#63b8ff" stroke="#63b8ff" points="952,-71.08 941.83,-74.04 951.62,-78.07 952,-71.08"/>
</a>
</g>
</g>
<!-- Node22&#45;&gt;Node6 -->
<g id="edge37_Node000022_Node000006" class="edge">
<title>Node22&#45;&gt;Node6</title>
<g id="a_edge37_Node000022_Node000006"><a xlink:title=" ">
<path fill="none" stroke="#63b8ff" d="M992.08,-126.37C973.18,-116.99 942.4,-101.72 917.95,-89.59"/>
<polygon fill="#63b8ff" stroke="#63b8ff" points="919.44,-86.42 908.93,-85.12 916.33,-92.7 919.44,-86.42"/>
</a>
</g>
</g>
<!-- Node23&#45;&gt;Node6 -->
<g id="edge39_Node000023_Node000006" class="edge">
<title>Node23&#45;&gt;Node6</title>
<g id="a_edge39_Node000023_Node000006"><a xlink:title=" ">
<path fill="none" stroke="#63b8ff" d="M1547.1,-192.28C1531.97,-175.1 1495.44,-137.11 1455.48,-121 1365.81,-84.85 1084.6,-74.79 951.57,-72.03"/>
<polygon fill="#63b8ff" stroke="#63b8ff" points="951.55,-68.53 941.48,-71.83 951.41,-75.52 951.55,-68.53"/>
</a>
</g>
</g>
<!-- Node23&#45;&gt;Node19 -->
<g id="edge40_Node000023_Node000019" class="edge">
<title>Node23&#45;&gt;Node19</title>
<g id="a_edge40_Node000023_Node000019"><a xlink:title=" ">
<path fill="none" stroke="#63b8ff" d="M1528.99,-192.37C1495.93,-181.17 1438.08,-161.58 1400.8,-148.96"/>
<polygon fill="#63b8ff" stroke="#63b8ff" points="1401.46,-145.49 1390.87,-145.6 1399.21,-152.12 1401.46,-145.49"/>
</a>
</g>
</g>
<!-- Node24&#45;&gt;Node6 -->
<g id="edge43_Node000024_Node000006" class="edge">
<title>Node24&#45;&gt;Node6</title>
<g id="a_edge43_Node000024_Node000006"><a xlink:title=" ">
<path fill="none" stroke="#63b8ff" d="M1041.69,-186.87C1064.37,-170.68 1093.95,-143.49 1076.48,-121 1061.01,-101.09 1001.22,-87.78 951.7,-79.94"/>
<polygon fill="#63b8ff" stroke="#63b8ff" points="952.04,-76.45 941.63,-78.39 950.98,-83.37 952.04,-76.45"/>
</a>
</g>
</g>
<!-- Node24&#45;&gt;Node18 -->
<g id="edge42_Node000024_Node000018" class="edge">
<title>Node24&#45;&gt;Node18</title>
<g id="a_edge42_Node000024_Node000018"><a xlink:title=" ">
<path fill="none" stroke="#63b8ff" d="M1059.86,-186.95C1092.7,-175.53 1138.51,-159.6 1169.49,-148.82"/>
<polygon fill="#63b8ff" stroke="#63b8ff" points="1170.7,-152.11 1178.99,-145.52 1168.4,-145.5 1170.7,-152.11"/>
</a>
</g>
</g>
<!-- Node25&#45;&gt;Node6 -->
<g id="edge46_Node000025_Node000006" class="edge">
<title>Node25&#45;&gt;Node6</title>
<g id="a_edge46_Node000025_Node000006"><a xlink:title=" ">
<path fill="none" stroke="#63b8ff" d="M1427.43,-186.72C1439.52,-169.11 1455.2,-139.28 1438.48,-121 1406.23,-85.73 1094.63,-75.15 951.6,-72.13"/>
<polygon fill="#63b8ff" stroke="#63b8ff" points="951.67,-68.63 941.6,-71.93 951.52,-75.63 951.67,-68.63"/>
</a>
</g>
</g>
<!-- Node25&#45;&gt;Node18 -->
<g id="edge45_Node000025_Node000018" class="edge">
<title>Node25&#45;&gt;Node18</title>
<g id="a_edge45_Node000025_Node000018"><a xlink:title=" ">
<path fill="none" stroke="#63b8ff" d="M1369.74,-186.95C1331.23,-175.38 1277.31,-159.18 1241.44,-148.41"/>
<polygon fill="#63b8ff" stroke="#63b8ff" points="1242.41,-145.04 1231.83,-145.52 1240.4,-151.75 1242.41,-145.04"/>
</a>
</g>
</g>
<!-- Node25&#45;&gt;Node19 -->
<g id="edge47_Node000025_Node000019" class="edge">
<title>Node25&#45;&gt;Node19</title>
<g id="a_edge47_Node000025_Node000019"><a xlink:title=" ">
<path fill="none" stroke="#63b8ff" d="M1405.16,-186.8C1397.37,-177.01 1386.98,-163.98 1378.79,-153.7"/>
<polygon fill="#63b8ff" stroke="#63b8ff" points="1381.5,-151.48 1372.53,-145.84 1376.02,-155.85 1381.5,-151.48"/>
</a>
</g>
</g>
<!-- Node26&#45;&gt;Node6 -->
<g id="edge49_Node000026_Node000006" class="edge">
<title>Node26&#45;&gt;Node6</title>
<g id="a_edge49_Node000026_Node000006"><a xlink:title=" ">
<path fill="none" stroke="#63b8ff" d="M562.59,-126.44C626.02,-115.37 736.86,-96.05 809.46,-83.38"/>
<polygon fill="#63b8ff" stroke="#63b8ff" points="810.19,-86.81 819.44,-81.64 808.99,-79.91 810.19,-86.81"/>
</a>
</g>
</g>
<!-- Node27&#45;&gt;Node6 -->
<g id="edge51_Node000027_Node000006" class="edge">
<title>Node27&#45;&gt;Node6</title>
<g id="a_edge51_Node000027_Node000006"><a xlink:title=" ">
<path fill="none" stroke="#63b8ff" d="M545.17,-192.45C567.54,-172.81 621.6,-125.73 631.48,-121 687.69,-94.09 757.72,-81.66 809.19,-75.91"/>
<polygon fill="#63b8ff" stroke="#63b8ff" points="809.65,-79.38 819.22,-74.85 808.91,-72.42 809.65,-79.38"/>
</a>
</g>
</g>
<!-- Node28&#45;&gt;Node6 -->
<g id="edge54_Node000028_Node000006" class="edge">
<title>Node28&#45;&gt;Node6</title>
<g id="a_edge54_Node000028_Node000006"><a xlink:title=" ">
<path fill="none" stroke="#63b8ff" d="M1142.44,-186.73C1133.99,-168.56 1116.89,-137.56 1092.48,-121 1050.96,-92.85 995.54,-80.44 951.77,-75.03"/>
<polygon fill="#63b8ff" stroke="#63b8ff" points="952.1,-71.54 941.77,-73.89 951.31,-78.5 952.1,-71.54"/>
</a>
</g>
</g>
<!-- Node28&#45;&gt;Node18 -->
<g id="edge53_Node000028_Node000018" class="edge">
<title>Node28&#45;&gt;Node18</title>
<g id="a_edge53_Node000028_Node000018"><a xlink:title=" ">
<path fill="none" stroke="#63b8ff" d="M1160.69,-186.8C1169.09,-177.01 1180.29,-163.98 1189.13,-153.7"/>
<polygon fill="#63b8ff" stroke="#63b8ff" points="1192.02,-155.71 1195.88,-145.84 1186.71,-151.15 1192.02,-155.71"/>
</a>
</g>
</g>
<!-- Node29&#45;&gt;Node6 -->
<g id="edge56_Node000029_Node000006" class="edge">
<title>Node29&#45;&gt;Node6</title>
<g id="a_edge56_Node000029_Node000006"><a xlink:title=" ">
<path fill="none" stroke="#63b8ff" d="M776.97,-186.79C769.13,-169.8 759.62,-141.12 772.48,-121 781.55,-106.8 795.81,-96.57 811.03,-89.23"/>
<polygon fill="#63b8ff" stroke="#63b8ff" points="812.84,-92.25 820.59,-85.02 810.02,-85.84 812.84,-92.25"/>
</a>
</g>
</g>
<!-- Node30&#45;&gt;Node6 -->
<g id="edge58_Node000030_Node000006" class="edge">
<title>Node30&#45;&gt;Node6</title>
<g id="a_edge58_Node000030_Node000006"><a xlink:title=" ">
<path fill="none" stroke="#63b8ff" d="M403.55,-126.49C413.62,-124.52 424.42,-122.55 434.48,-121 566.14,-100.68 720.88,-85.2 809.14,-77.16"/>
<polygon fill="#63b8ff" stroke="#63b8ff" points="809.66,-80.62 819.31,-76.24 809.03,-73.65 809.66,-80.62"/>
</a>
</g>
</g>
<!-- Node30&#45;&gt;Node10 -->
<g id="edge59_Node000030_Node000010" class="edge">
<title>Node30&#45;&gt;Node10</title>
<g id="a_edge59_Node000030_Node000010"><a xlink:title=" ">
<path fill="none" stroke="#63b8ff" d="M358.22,-126.37C352.38,-116.78 342.79,-101.05 335.33,-88.8"/>
<polygon fill="#63b8ff" stroke="#63b8ff" points="338.1,-86.62 329.91,-79.91 332.12,-90.27 338.1,-86.62"/>
</a>
</g>
</g>
</g>
</svg>
