<?xml version="1.0" encoding="UTF-8" standalone="no"?>
<!DOCTYPE svg PUBLIC "-//W3C//DTD SVG 1.1//EN"
 "http://www.w3.org/Graphics/SVG/1.1/DTD/svg11.dtd">
<!-- Generated by graphviz version 2.43.0 (0)
 -->
<!-- Title: main Pages: 1 -->
<svg width="333pt" height="64pt"
 viewBox="0.00 0.00 333.00 64.00" xmlns="http://www.w3.org/2000/svg" xmlns:xlink="http://www.w3.org/1999/xlink">
<g id="graph0" class="graph" transform="scale(1 1) rotate(0) translate(4 60)">
<title>main</title>
<!-- Node1 -->
<g id="Node000001" class="node">
<title>Node1</title>
<g id="a_Node000001"><a xlink:title="Main function to run the X&#45;O game.">
<polygon fill="#999999" stroke="#666666" points="41,-37 0,-37 0,-18 41,-18 41,-37"/>
<text text-anchor="middle" x="20.5" y="-25" font-family="Helvetica,sans-Serif" font-size="10.00">main</text>
</a>
</g>
</g>
<!-- Node2 -->
<g id="Node000002" class="node">
<title>Node2</title>
<g id="a_Node000002"><a xlink:href="classGameManager.html#a71f46d5189dac5c773f608cea1b5a203" target="_top" xlink:title="Run the main game loop until someone wins or the game ends.">
<polygon fill="white" stroke="#666666" points="187,-56 77,-56 77,-37 187,-37 187,-56"/>
<text text-anchor="middle" x="132" y="-44" font-family="Helvetica,sans-Serif" font-size="10.00">GameManager::run</text>
</a>
</g>
</g>
<!-- Node1&#45;&gt;Node2 -->
<g id="edge1_Node000001_Node000002" class="edge">
<title>Node1&#45;&gt;Node2</title>
<g id="a_edge1_Node000001_Node000002"><a xlink:title=" ">
<path fill="none" stroke="#63b8ff" d="M41.08,-30.9C48.56,-32.2 57.57,-33.76 66.96,-35.39"/>
<polygon fill="#63b8ff" stroke="#63b8ff" points="66.38,-38.84 76.83,-37.1 67.57,-31.94 66.38,-38.84"/>
</a>
</g>
</g>
<!-- Node4 -->
<g id="Node000004" class="node">
<title>Node4</title>
<g id="a_Node000004"><a xlink:href="classUI.html#a6966a040c995b2292e5edddaa94f889a" target="_top" xlink:title="Set up players for the game.">
<polygon fill="white" stroke="#666666" points="182.5,-19 81.5,-19 81.5,0 182.5,0 182.5,-19"/>
<text text-anchor="middle" x="132" y="-7" font-family="Helvetica,sans-Serif" font-size="10.00">UI::setup_players</text>
</a>
</g>
</g>
<!-- Node1&#45;&gt;Node4 -->
<g id="edge3_Node000001_Node000004" class="edge">
<title>Node1&#45;&gt;Node4</title>
<g id="a_edge3_Node000001_Node000004"><a xlink:title=" ">
<path fill="none" stroke="#63b8ff" d="M41.08,-24.28C49.65,-22.87 60.21,-21.14 71.06,-19.35"/>
<polygon fill="#63b8ff" stroke="#63b8ff" points="71.74,-22.79 81.04,-17.71 70.6,-15.88 71.74,-22.79"/>
</a>
</g>
</g>
<!-- Node3 -->
<g id="Node000003" class="node">
<title>Node3</title>
<g id="a_Node000003"><a xlink:href="classPlayer.html#aed2af19790ba73190e3ebeea589518e1" target="_top" xlink:title="Get the player&#39;s name.">
<polygon fill="white" stroke="#666666" points="325,-56 223,-56 223,-37 325,-37 325,-56"/>
<text text-anchor="middle" x="274" y="-44" font-family="Helvetica,sans-Serif" font-size="10.00">Player::get_name</text>
</a>
</g>
</g>
<!-- Node2&#45;&gt;Node3 -->
<g id="edge2_Node000002_Node000003" class="edge">
<title>Node2&#45;&gt;Node3</title>
<g id="a_edge2_Node000002_Node000003"><a xlink:title=" ">
<path fill="none" stroke="#63b8ff" d="M187.13,-46.5C195.44,-46.5 204.07,-46.5 212.52,-46.5"/>
<polygon fill="#63b8ff" stroke="#63b8ff" points="212.69,-50 222.69,-46.5 212.69,-43 212.69,-50"/>
</a>
</g>
</g>
</g>
</svg>
