<?xml version="1.0" encoding="UTF-8" standalone="no"?>
<!DOCTYPE svg PUBLIC "-//W3C//DTD SVG 1.1//EN"
 "http://www.w3.org/Graphics/SVG/1.1/DTD/svg11.dtd">
<!-- Generated by graphviz version 2.43.0 (0)
 -->
<!-- Title: src/main.cpp Pages: 1 -->
<svg width="399pt" height="214pt"
 viewBox="0.00 0.00 399.00 214.00" xmlns="http://www.w3.org/2000/svg" xmlns:xlink="http://www.w3.org/1999/xlink">
<g id="graph0" class="graph" transform="scale(1 1) rotate(0) translate(4 210)">
<title>src/main.cpp</title>
<!-- Node1 -->
<g id="Node000001" class="node">
<title>Node1</title>
<g id="a_Node000001"><a xlink:title="Entry point for the FCAI X&#45;O (Tic&#45;Tac&#45;Toe) game.">
<polygon fill="#999999" stroke="#666666" points="267.5,-206 188.5,-206 188.5,-187 267.5,-187 267.5,-206"/>
<text text-anchor="middle" x="228" y="-194" font-family="Helvetica,sans-Serif" font-size="10.00">src/main.cpp</text>
</a>
</g>
</g>
<!-- Node2 -->
<g id="Node000002" class="node">
<title>Node2</title>
<g id="a_Node000002"><a xlink:title=" ">
<polygon fill="#e0e0e0" stroke="#999999" points="60,-19 0,-19 0,0 60,0 60,-19"/>
<text text-anchor="middle" x="30" y="-7" font-family="Helvetica,sans-Serif" font-size="10.00">iostream</text>
</a>
</g>
</g>
<!-- Node1&#45;&gt;Node2 -->
<g id="edge1_Node000001_Node000002" class="edge">
<title>Node1&#45;&gt;Node2</title>
<g id="a_edge1_Node000001_Node000002"><a xlink:title=" ">
<path fill="none" stroke="#63b8ff" d="M194.05,-186.92C149.51,-173.6 73.36,-143.19 42,-85 32.7,-67.74 30.17,-45.2 29.68,-29.45"/>
<polygon fill="#63b8ff" stroke="#63b8ff" points="33.18,-29.33 29.61,-19.35 26.18,-29.38 33.18,-29.33"/>
</a>
</g>
</g>
<!-- Node3 -->
<g id="Node000003" class="node">
<title>Node3</title>
<g id="a_Node000003"><a xlink:title=" ">
<polygon fill="#e0e0e0" stroke="#999999" points="232,-19 188,-19 188,0 232,0 232,-19"/>
<text text-anchor="middle" x="210" y="-7" font-family="Helvetica,sans-Serif" font-size="10.00">string</text>
</a>
</g>
</g>
<!-- Node1&#45;&gt;Node3 -->
<g id="edge2_Node000001_Node000003" class="edge">
<title>Node1&#45;&gt;Node3</title>
<g id="a_edge2_Node000001_Node000003"><a xlink:title=" ">
<path fill="none" stroke="#63b8ff" d="M233.32,-186.68C238.23,-177.97 245.19,-164.09 248,-151 256.94,-109.28 262.77,-95.03 248,-55 243.94,-43.99 235.81,-33.86 228.1,-26.05"/>
<polygon fill="#63b8ff" stroke="#63b8ff" points="230.39,-23.39 220.71,-19.07 225.58,-28.48 230.39,-23.39"/>
</a>
</g>
</g>
<!-- Node4 -->
<g id="Node000004" class="node">
<title>Node4</title>
<g id="a_Node000004"><a xlink:title=" ">
<polygon fill="#e0e0e0" stroke="#999999" points="312.5,-19 265.5,-19 265.5,0 312.5,0 312.5,-19"/>
<text text-anchor="middle" x="289" y="-7" font-family="Helvetica,sans-Serif" font-size="10.00">vector</text>
</a>
</g>
</g>
<!-- Node1&#45;&gt;Node4 -->
<g id="edge3_Node000001_Node000004" class="edge">
<title>Node1&#45;&gt;Node4</title>
<g id="a_edge3_Node000001_Node000004"><a xlink:title=" ">
<path fill="none" stroke="#63b8ff" d="M237.53,-186.95C246.14,-178.65 258.45,-165.24 265,-151 283.65,-110.48 287.94,-57.37 288.84,-29.48"/>
<polygon fill="#63b8ff" stroke="#63b8ff" points="292.34,-29.26 289.05,-19.19 285.35,-29.11 292.34,-29.26"/>
</a>
</g>
</g>
<!-- Node5 -->
<g id="Node000005" class="node">
<title>Node5</title>
<g id="a_Node000005"><a xlink:title=" ">
<polygon fill="#e0e0e0" stroke="#999999" points="391,-145.5 333,-145.5 333,-126.5 391,-126.5 391,-145.5"/>
<text text-anchor="middle" x="362" y="-133.5" font-family="Helvetica,sans-Serif" font-size="10.00">memory</text>
</a>
</g>
</g>
<!-- Node1&#45;&gt;Node5 -->
<g id="edge4_Node000001_Node000005" class="edge">
<title>Node1&#45;&gt;Node5</title>
<g id="a_edge4_Node000001_Node000005"><a xlink:title=" ">
<path fill="none" stroke="#63b8ff" d="M247.48,-186.99C270.01,-177.16 307.31,-160.88 333.19,-149.58"/>
<polygon fill="#63b8ff" stroke="#63b8ff" points="334.73,-152.73 342.49,-145.52 331.93,-146.31 334.73,-152.73"/>
</a>
</g>
</g>
<!-- Node6 -->
<g id="Node000006" class="node">
<title>Node6</title>
<g id="a_Node000006"><a xlink:href="BoardGame__Classes_8h.html" target="_top" xlink:title=" ">
<polygon fill="white" stroke="#666666" points="173,-85 51,-85 51,-55 173,-55 173,-85"/>
<text text-anchor="start" x="59" y="-73" font-family="Helvetica,sans-Serif" font-size="10.00">../include/BoardGame</text>
<text text-anchor="middle" x="112" y="-62" font-family="Helvetica,sans-Serif" font-size="10.00">_Classes.h</text>
</a>
</g>
</g>
<!-- Node1&#45;&gt;Node6 -->
<g id="edge5_Node000001_Node000006" class="edge">
<title>Node1&#45;&gt;Node6</title>
<g id="a_edge5_Node000001_Node000006"><a xlink:title=" ">
<path fill="none" stroke="#63b8ff" d="M191.71,-187C171.36,-180.42 147.1,-169.26 132,-151 119.13,-135.43 114.37,-112.72 112.69,-95.47"/>
<polygon fill="#63b8ff" stroke="#63b8ff" points="116.15,-94.8 111.98,-85.06 109.17,-95.27 116.15,-94.8"/>
</a>
</g>
</g>
<!-- Node8 -->
<g id="Node000008" class="node">
<title>Node8</title>
<g id="a_Node000008"><a xlink:href="Infinity__XO__Classes_8h.html" target="_top" xlink:title=" ">
<polygon fill="white" stroke="#666666" points="239,-151 141,-151 141,-121 239,-121 239,-151"/>
<text text-anchor="start" x="149" y="-139" font-family="Helvetica,sans-Serif" font-size="10.00">../include/Infinity</text>
<text text-anchor="middle" x="190" y="-128" font-family="Helvetica,sans-Serif" font-size="10.00">_XO_Classes.h</text>
</a>
</g>
</g>
<!-- Node1&#45;&gt;Node8 -->
<g id="edge10_Node000001_Node000008" class="edge">
<title>Node1&#45;&gt;Node8</title>
<g id="a_edge10_Node000001_Node000008"><a xlink:title=" ">
<path fill="none" stroke="#63b8ff" d="M222.39,-186.87C217.76,-179.74 210.97,-169.28 204.8,-159.79"/>
<polygon fill="#63b8ff" stroke="#63b8ff" points="207.55,-157.59 199.17,-151.11 201.68,-161.41 207.55,-157.59"/>
</a>
</g>
</g>
<!-- Node6&#45;&gt;Node2 -->
<g id="edge8_Node000006_Node000002" class="edge">
<title>Node6&#45;&gt;Node2</title>
<g id="a_edge8_Node000006_Node000002"><a xlink:title=" ">
<path fill="none" stroke="#63b8ff" d="M92.15,-54.84C79.52,-45.83 63.2,-34.18 50.45,-25.09"/>
<polygon fill="#63b8ff" stroke="#63b8ff" points="52.46,-22.22 42.29,-19.27 48.4,-27.92 52.46,-22.22"/>
</a>
</g>
</g>
<!-- Node6&#45;&gt;Node3 -->
<g id="edge6_Node000006_Node000003" class="edge">
<title>Node6&#45;&gt;Node3</title>
<g id="a_edge6_Node000006_Node000003"><a xlink:title=" ">
<path fill="none" stroke="#63b8ff" d="M135.72,-54.84C151.2,-45.6 171.32,-33.59 186.71,-24.4"/>
<polygon fill="#63b8ff" stroke="#63b8ff" points="188.81,-27.23 195.6,-19.09 185.22,-21.21 188.81,-27.23"/>
</a>
</g>
</g>
<!-- Node6&#45;&gt;Node4 -->
<g id="edge7_Node000006_Node000004" class="edge">
<title>Node6&#45;&gt;Node4</title>
<g id="a_edge7_Node000006_Node000004"><a xlink:title=" ">
<path fill="none" stroke="#63b8ff" d="M154.4,-54.99C185.5,-44.71 227.15,-30.94 255.84,-21.46"/>
<polygon fill="#63b8ff" stroke="#63b8ff" points="257.01,-24.76 265.41,-18.3 254.81,-18.11 257.01,-24.76"/>
</a>
</g>
</g>
<!-- Node7 -->
<g id="Node000007" class="node">
<title>Node7</title>
<g id="a_Node000007"><a xlink:title=" ">
<polygon fill="#e0e0e0" stroke="#999999" points="140,-19 84,-19 84,0 140,0 140,-19"/>
<text text-anchor="middle" x="112" y="-7" font-family="Helvetica,sans-Serif" font-size="10.00">iomanip</text>
</a>
</g>
</g>
<!-- Node6&#45;&gt;Node7 -->
<g id="edge9_Node000006_Node000007" class="edge">
<title>Node6&#45;&gt;Node7</title>
<g id="a_edge9_Node000006_Node000007"><a xlink:title=" ">
<path fill="none" stroke="#63b8ff" d="M112,-54.84C112,-47.21 112,-37.7 112,-29.45"/>
<polygon fill="#63b8ff" stroke="#63b8ff" points="115.5,-29.27 112,-19.27 108.5,-29.27 115.5,-29.27"/>
</a>
</g>
</g>
<!-- Node8&#45;&gt;Node6 -->
<g id="edge12_Node000008_Node000006" class="edge">
<title>Node8&#45;&gt;Node6</title>
<g id="a_edge12_Node000008_Node000006"><a xlink:title=" ">
<path fill="none" stroke="#63b8ff" d="M172.69,-120.8C162.29,-112.26 148.87,-101.25 137.29,-91.75"/>
<polygon fill="#63b8ff" stroke="#63b8ff" points="139.21,-88.8 129.26,-85.16 134.77,-94.21 139.21,-88.8"/>
</a>
</g>
</g>
<!-- Node9 -->
<g id="Node000009" class="node">
<title>Node9</title>
<g id="a_Node000009"><a xlink:title=" ">
<polygon fill="#e0e0e0" stroke="#999999" points="238.5,-79.5 191.5,-79.5 191.5,-60.5 238.5,-60.5 238.5,-79.5"/>
<text text-anchor="middle" x="215" y="-67.5" font-family="Helvetica,sans-Serif" font-size="10.00">queue</text>
</a>
</g>
</g>
<!-- Node8&#45;&gt;Node9 -->
<g id="edge11_Node000008_Node000009" class="edge">
<title>Node8&#45;&gt;Node9</title>
<g id="a_edge11_Node000008_Node000009"><a xlink:title=" ">
<path fill="none" stroke="#63b8ff" d="M195.55,-120.8C199.18,-111.5 203.96,-99.27 207.87,-89.26"/>
<polygon fill="#63b8ff" stroke="#63b8ff" points="211.17,-90.43 211.55,-79.84 204.65,-87.89 211.17,-90.43"/>
</a>
</g>
</g>
</g>
</svg>
