<?xml version="1.0" encoding="UTF-8" standalone="no"?>
<!DOCTYPE svg PUBLIC "-//W3C//DTD SVG 1.1//EN"
 "http://www.w3.org/Graphics/SVG/1.1/DTD/svg11.dtd">
<!-- Generated by graphviz version 2.43.0 (0)
 -->
<!-- Title: src/main.cpp Pages: 1 -->
<svg width="1029pt" height="214pt"
 viewBox="0.00 0.00 1028.92 214.00" xmlns="http://www.w3.org/2000/svg" xmlns:xlink="http://www.w3.org/1999/xlink">
<g id="graph0" class="graph" transform="scale(1 1) rotate(0) translate(4 210)">
<title>src/main.cpp</title>
<!-- Node1 -->
<g id="Node000001" class="node">
<title>Node1</title>
<g id="a_Node000001"><a xlink:title="Entry point for the FCAI X&#45;O (Tic&#45;Tac&#45;Toe) game.">
<polygon fill="#999999" stroke="#666666" points="600.42,-206 521.42,-206 521.42,-187 600.42,-187 600.42,-206"/>
<text text-anchor="middle" x="560.92" y="-194" font-family="Helvetica,sans-Serif" font-size="10.00">src/main.cpp</text>
</a>
</g>
</g>
<!-- Node2 -->
<g id="Node000002" class="node">
<title>Node2</title>
<g id="a_Node000002"><a xlink:title=" ">
<polygon fill="#e0e0e0" stroke="#999999" points="188.92,-19 128.92,-19 128.92,0 188.92,0 188.92,-19"/>
<text text-anchor="middle" x="158.92" y="-7" font-family="Helvetica,sans-Serif" font-size="10.00">iostream</text>
</a>
</g>
</g>
<!-- Node1&#45;&gt;Node2 -->
<g id="edge1_Node000001_Node000002" class="edge">
<title>Node1&#45;&gt;Node2</title>
<g id="a_edge1_Node000001_Node000002"><a xlink:title=" ">
<path fill="none" stroke="#63b8ff" d="M521.31,-195.31C401.06,-194.34 46.32,-188.3 11.92,-151 -34.03,-101.18 71.6,-47.07 127.31,-23.12"/>
<polygon fill="#63b8ff" stroke="#63b8ff" points="128.9,-26.25 136.76,-19.14 126.19,-19.8 128.9,-26.25"/>
</a>
</g>
</g>
<!-- Node3 -->
<g id="Node000003" class="node">
<title>Node3</title>
<g id="a_Node000003"><a xlink:title=" ">
<polygon fill="#e0e0e0" stroke="#999999" points="415.92,-19 371.92,-19 371.92,0 415.92,0 415.92,-19"/>
<text text-anchor="middle" x="393.92" y="-7" font-family="Helvetica,sans-Serif" font-size="10.00">string</text>
</a>
</g>
</g>
<!-- Node1&#45;&gt;Node3 -->
<g id="edge2_Node000001_Node000003" class="edge">
<title>Node1&#45;&gt;Node3</title>
<g id="a_edge2_Node000001_Node000003"><a xlink:title=" ">
<path fill="none" stroke="#63b8ff" d="M600.58,-196.09C677.47,-196.3 842.41,-191.84 877.92,-151 895.29,-131.02 876.76,-67.7 861.92,-55 790.11,6.42 536.86,-33.37 426.1,-18.67"/>
<polygon fill="#63b8ff" stroke="#63b8ff" points="426.57,-15.2 416.16,-17.13 425.5,-22.12 426.57,-15.2"/>
</a>
</g>
</g>
<!-- Node4 -->
<g id="Node000004" class="node">
<title>Node4</title>
<g id="a_Node000004"><a xlink:title=" ">
<polygon fill="#e0e0e0" stroke="#999999" points="756.42,-19 709.42,-19 709.42,0 756.42,0 756.42,-19"/>
<text text-anchor="middle" x="732.92" y="-7" font-family="Helvetica,sans-Serif" font-size="10.00">vector</text>
</a>
</g>
</g>
<!-- Node1&#45;&gt;Node4 -->
<g id="edge3_Node000001_Node000004" class="edge">
<title>Node1&#45;&gt;Node4</title>
<g id="a_edge3_Node000001_Node000004"><a xlink:title=" ">
<path fill="none" stroke="#63b8ff" d="M600.69,-193.1C685.04,-187.6 875.77,-172.87 894.92,-151 909.88,-133.92 897.98,-71.79 882.92,-55 853.5,-22.2 801.13,-13.1 766.71,-10.83"/>
<polygon fill="#63b8ff" stroke="#63b8ff" points="766.82,-7.33 756.65,-10.33 766.47,-14.33 766.82,-7.33"/>
</a>
</g>
</g>
<!-- Node5 -->
<g id="Node000005" class="node">
<title>Node5</title>
<g id="a_Node000005"><a xlink:title=" ">
<polygon fill="#e0e0e0" stroke="#999999" points="1020.92,-145.5 962.92,-145.5 962.92,-126.5 1020.92,-126.5 1020.92,-145.5"/>
<text text-anchor="middle" x="991.92" y="-133.5" font-family="Helvetica,sans-Serif" font-size="10.00">memory</text>
</a>
</g>
</g>
<!-- Node1&#45;&gt;Node5 -->
<g id="edge4_Node000001_Node000005" class="edge">
<title>Node1&#45;&gt;Node5</title>
<g id="a_edge4_Node000001_Node000005"><a xlink:title=" ">
<path fill="none" stroke="#63b8ff" d="M600.45,-193.59C671.09,-189.59 823.38,-178.35 948.92,-151 952.14,-150.3 955.46,-149.45 958.76,-148.52"/>
<polygon fill="#63b8ff" stroke="#63b8ff" points="959.94,-151.82 968.5,-145.57 957.91,-145.12 959.94,-151.82"/>
</a>
</g>
</g>
<!-- Node6 -->
<g id="Node000006" class="node">
<title>Node6</title>
<g id="a_Node000006"><a xlink:href="BoardGame__Classes_8h.html" target="_top" xlink:title=" ">
<polygon fill="white" stroke="#666666" points="488.92,-85 366.92,-85 366.92,-55 488.92,-55 488.92,-85"/>
<text text-anchor="start" x="374.92" y="-73" font-family="Helvetica,sans-Serif" font-size="10.00">../include/BoardGame</text>
<text text-anchor="middle" x="427.92" y="-62" font-family="Helvetica,sans-Serif" font-size="10.00">_Classes.h</text>
</a>
</g>
</g>
<!-- Node1&#45;&gt;Node6 -->
<g id="edge5_Node000001_Node000006" class="edge">
<title>Node1&#45;&gt;Node6</title>
<g id="a_edge5_Node000001_Node000006"><a xlink:title=" ">
<path fill="none" stroke="#63b8ff" d="M521.11,-193.46C432.41,-188.51 224.67,-174.5 203.92,-151 156.82,-97.66 274.61,-79.88 356.66,-73.96"/>
<polygon fill="#63b8ff" stroke="#63b8ff" points="356.98,-77.44 366.72,-73.28 356.51,-70.46 356.98,-77.44"/>
</a>
</g>
</g>
<!-- Node8 -->
<g id="Node000008" class="node">
<title>Node8</title>
<g id="a_Node000008"><a xlink:href="Four__Four__XO_8h.html" target="_top" xlink:title=" ">
<polygon fill="white" stroke="#666666" points="352.42,-145.5 213.42,-145.5 213.42,-126.5 352.42,-126.5 352.42,-145.5"/>
<text text-anchor="middle" x="282.92" y="-133.5" font-family="Helvetica,sans-Serif" font-size="10.00">../include/Four_Four_XO.h</text>
</a>
</g>
</g>
<!-- Node1&#45;&gt;Node8 -->
<g id="edge10_Node000001_Node000008" class="edge">
<title>Node1&#45;&gt;Node8</title>
<g id="a_edge10_Node000001_Node000008"><a xlink:title=" ">
<path fill="none" stroke="#63b8ff" d="M521.38,-187.18C472.09,-176.81 387.76,-159.06 333.73,-147.69"/>
<polygon fill="#63b8ff" stroke="#63b8ff" points="334.18,-144.21 323.67,-145.58 332.74,-151.06 334.18,-144.21"/>
</a>
</g>
</g>
<!-- Node9 -->
<g id="Node000009" class="node">
<title>Node9</title>
<g id="a_Node000009"><a xlink:href="Infinity__XO__Classes_8h.html" target="_top" xlink:title=" ">
<polygon fill="white" stroke="#666666" points="734.92,-151 636.92,-151 636.92,-121 734.92,-121 734.92,-151"/>
<text text-anchor="start" x="644.92" y="-139" font-family="Helvetica,sans-Serif" font-size="10.00">../include/Infinity</text>
<text text-anchor="middle" x="685.92" y="-128" font-family="Helvetica,sans-Serif" font-size="10.00">_XO_Classes.h</text>
</a>
</g>
</g>
<!-- Node1&#45;&gt;Node9 -->
<g id="edge12_Node000001_Node000009" class="edge">
<title>Node1&#45;&gt;Node9</title>
<g id="a_edge12_Node000001_Node000009"><a xlink:title=" ">
<path fill="none" stroke="#63b8ff" d="M579.09,-186.99C596.63,-178.79 623.76,-166.09 646.29,-155.55"/>
<polygon fill="#63b8ff" stroke="#63b8ff" points="648.05,-158.59 655.62,-151.18 645.08,-152.25 648.05,-158.59"/>
</a>
</g>
</g>
<!-- Node11 -->
<g id="Node000011" class="node">
<title>Node11</title>
<g id="a_Node000011"><a xlink:href="Numerical__X__O_8h.html" target="_top" xlink:title=" ">
<polygon fill="white" stroke="#666666" points="484.92,-151 370.92,-151 370.92,-121 484.92,-121 484.92,-151"/>
<text text-anchor="start" x="378.92" y="-139" font-family="Helvetica,sans-Serif" font-size="10.00">../include/Numerical</text>
<text text-anchor="middle" x="427.92" y="-128" font-family="Helvetica,sans-Serif" font-size="10.00">_X_O.h</text>
</a>
</g>
</g>
<!-- Node1&#45;&gt;Node11 -->
<g id="edge15_Node000001_Node000011" class="edge">
<title>Node1&#45;&gt;Node11</title>
<g id="a_edge15_Node000001_Node000011"><a xlink:title=" ">
<path fill="none" stroke="#63b8ff" d="M541.58,-186.99C522.69,-178.68 493.34,-165.78 469.2,-155.16"/>
<polygon fill="#63b8ff" stroke="#63b8ff" points="470.46,-151.89 459.89,-151.06 467.64,-158.29 470.46,-151.89"/>
</a>
</g>
</g>
<!-- Node12 -->
<g id="Node000012" class="node">
<title>Node12</title>
<g id="a_Node000012"><a xlink:href="Misere__Tic__Tac__Toe_8h.html" target="_top" xlink:title="Defines the X&#45;O (Tic&#45;Tac&#45;Toe) specific classes that extend the generic board game framework.">
<polygon fill="white" stroke="#666666" points="868.92,-151 752.92,-151 752.92,-121 868.92,-121 868.92,-151"/>
<text text-anchor="start" x="760.92" y="-139" font-family="Helvetica,sans-Serif" font-size="10.00">../include/Misere_Tic</text>
<text text-anchor="middle" x="810.92" y="-128" font-family="Helvetica,sans-Serif" font-size="10.00">_Tac_Toe.h</text>
</a>
</g>
</g>
<!-- Node1&#45;&gt;Node12 -->
<g id="edge17_Node000001_Node000012" class="edge">
<title>Node1&#45;&gt;Node12</title>
<g id="a_edge17_Node000001_Node000012"><a xlink:title=" ">
<path fill="none" stroke="#63b8ff" d="M597.27,-186.99C635.33,-178.09 695.97,-163.9 742.94,-152.91"/>
<polygon fill="#63b8ff" stroke="#63b8ff" points="743.8,-156.3 752.74,-150.61 742.2,-149.48 743.8,-156.3"/>
</a>
</g>
</g>
<!-- Node14 -->
<g id="Node000014" class="node">
<title>Node14</title>
<g id="a_Node000014"><a xlink:href="SUS__Classes_8h.html" target="_top" xlink:title=" ">
<polygon fill="white" stroke="#666666" points="156.42,-145.5 21.42,-145.5 21.42,-126.5 156.42,-126.5 156.42,-145.5"/>
<text text-anchor="middle" x="88.92" y="-133.5" font-family="Helvetica,sans-Serif" font-size="10.00">../include/SUS_Classes.h</text>
</a>
</g>
</g>
<!-- Node1&#45;&gt;Node14 -->
<g id="edge20_Node000001_Node000014" class="edge">
<title>Node1&#45;&gt;Node14</title>
<g id="a_edge20_Node000001_Node000014"><a xlink:title=" ">
<path fill="none" stroke="#63b8ff" d="M521.24,-191.71C450.64,-184.79 298.6,-169.17 170.92,-151 162.89,-149.86 154.43,-148.54 146.13,-147.19"/>
<polygon fill="#63b8ff" stroke="#63b8ff" points="146.55,-143.71 136.11,-145.52 145.4,-150.61 146.55,-143.71"/>
</a>
</g>
</g>
<!-- Node15 -->
<g id="Node000015" class="node">
<title>Node15</title>
<g id="a_Node000015"><a xlink:href="X__O__5x5_8h.html" target="_top" xlink:title=" ">
<polygon fill="white" stroke="#666666" points="618.92,-145.5 502.92,-145.5 502.92,-126.5 618.92,-126.5 618.92,-145.5"/>
<text text-anchor="middle" x="560.92" y="-133.5" font-family="Helvetica,sans-Serif" font-size="10.00">../include/X_O_5x5.h</text>
</a>
</g>
</g>
<!-- Node1&#45;&gt;Node15 -->
<g id="edge23_Node000001_Node000015" class="edge">
<title>Node1&#45;&gt;Node15</title>
<g id="a_edge23_Node000001_Node000015"><a xlink:title=" ">
<path fill="none" stroke="#63b8ff" d="M560.92,-186.87C560.92,-178.75 560.92,-166.31 560.92,-155.89"/>
<polygon fill="#63b8ff" stroke="#63b8ff" points="564.42,-155.67 560.92,-145.67 557.42,-155.67 564.42,-155.67"/>
</a>
</g>
</g>
<!-- Node6&#45;&gt;Node2 -->
<g id="edge8_Node000006_Node000002" class="edge">
<title>Node6&#45;&gt;Node2</title>
<g id="a_edge8_Node000006_Node000002"><a xlink:title=" ">
<path fill="none" stroke="#63b8ff" d="M366.88,-55.73C315.39,-44.53 243.2,-28.83 198.82,-19.18"/>
<polygon fill="#63b8ff" stroke="#63b8ff" points="199.5,-15.74 188.98,-17.04 198.01,-22.58 199.5,-15.74"/>
</a>
</g>
</g>
<!-- Node6&#45;&gt;Node3 -->
<g id="edge6_Node000006_Node000003" class="edge">
<title>Node6&#45;&gt;Node3</title>
<g id="a_edge6_Node000006_Node000003"><a xlink:title=" ">
<path fill="none" stroke="#63b8ff" d="M419.69,-54.84C415,-46.78 409.1,-36.62 404.12,-28.06"/>
<polygon fill="#63b8ff" stroke="#63b8ff" points="407.06,-26.15 399.01,-19.27 401.01,-29.67 407.06,-26.15"/>
</a>
</g>
</g>
<!-- Node6&#45;&gt;Node4 -->
<g id="edge7_Node000006_Node000004" class="edge">
<title>Node6&#45;&gt;Node4</title>
<g id="a_edge7_Node000006_Node000004"><a xlink:title=" ">
<path fill="none" stroke="#63b8ff" d="M489.27,-57.23C552.45,-45.11 648.58,-26.68 699.14,-16.98"/>
<polygon fill="#63b8ff" stroke="#63b8ff" points="700.04,-20.37 709.21,-15.05 698.73,-13.49 700.04,-20.37"/>
</a>
</g>
</g>
<!-- Node7 -->
<g id="Node000007" class="node">
<title>Node7</title>
<g id="a_Node000007"><a xlink:title=" ">
<polygon fill="#e0e0e0" stroke="#999999" points="489.92,-19 433.92,-19 433.92,0 489.92,0 489.92,-19"/>
<text text-anchor="middle" x="461.92" y="-7" font-family="Helvetica,sans-Serif" font-size="10.00">iomanip</text>
</a>
</g>
</g>
<!-- Node6&#45;&gt;Node7 -->
<g id="edge9_Node000006_Node000007" class="edge">
<title>Node6&#45;&gt;Node7</title>
<g id="a_edge9_Node000006_Node000007"><a xlink:title=" ">
<path fill="none" stroke="#63b8ff" d="M436.15,-54.84C440.83,-46.78 446.74,-36.62 451.72,-28.06"/>
<polygon fill="#63b8ff" stroke="#63b8ff" points="454.82,-29.67 456.82,-19.27 448.77,-26.15 454.82,-29.67"/>
</a>
</g>
</g>
<!-- Node8&#45;&gt;Node6 -->
<g id="edge11_Node000008_Node000006" class="edge">
<title>Node8&#45;&gt;Node6</title>
<g id="a_edge11_Node000008_Node000006"><a xlink:title=" ">
<path fill="none" stroke="#63b8ff" d="M302.47,-126.37C323.91,-116.91 358.92,-101.45 386.52,-89.27"/>
<polygon fill="#63b8ff" stroke="#63b8ff" points="388.2,-92.36 395.94,-85.12 385.38,-85.95 388.2,-92.36"/>
</a>
</g>
</g>
<!-- Node9&#45;&gt;Node6 -->
<g id="edge14_Node000009_Node000006" class="edge">
<title>Node9&#45;&gt;Node6</title>
<g id="a_edge14_Node000009_Node000006"><a xlink:title=" ">
<path fill="none" stroke="#63b8ff" d="M636.78,-122.81C596.41,-112.8 538.84,-98.52 494.36,-87.48"/>
<polygon fill="#63b8ff" stroke="#63b8ff" points="495.05,-84.05 484.51,-85.04 493.37,-90.84 495.05,-84.05"/>
</a>
</g>
</g>
<!-- Node10 -->
<g id="Node000010" class="node">
<title>Node10</title>
<g id="a_Node000010"><a xlink:title=" ">
<polygon fill="#e0e0e0" stroke="#999999" points="709.42,-79.5 662.42,-79.5 662.42,-60.5 709.42,-60.5 709.42,-79.5"/>
<text text-anchor="middle" x="685.92" y="-67.5" font-family="Helvetica,sans-Serif" font-size="10.00">queue</text>
</a>
</g>
</g>
<!-- Node9&#45;&gt;Node10 -->
<g id="edge13_Node000009_Node000010" class="edge">
<title>Node9&#45;&gt;Node10</title>
<g id="a_edge13_Node000009_Node000010"><a xlink:title=" ">
<path fill="none" stroke="#63b8ff" d="M685.92,-120.8C685.92,-111.7 685.92,-99.79 685.92,-89.9"/>
<polygon fill="#63b8ff" stroke="#63b8ff" points="689.42,-89.84 685.92,-79.84 682.42,-89.84 689.42,-89.84"/>
</a>
</g>
</g>
<!-- Node11&#45;&gt;Node6 -->
<g id="edge16_Node000011_Node000006" class="edge">
<title>Node11&#45;&gt;Node6</title>
<g id="a_edge16_Node000011_Node000006"><a xlink:title=" ">
<path fill="none" stroke="#63b8ff" d="M427.92,-120.8C427.92,-113.34 427.92,-103.99 427.92,-95.41"/>
<polygon fill="#63b8ff" stroke="#63b8ff" points="431.42,-95.16 427.92,-85.16 424.42,-95.16 431.42,-95.16"/>
</a>
</g>
</g>
<!-- Node12&#45;&gt;Node6 -->
<g id="edge19_Node000012_Node000006" class="edge">
<title>Node12&#45;&gt;Node6</title>
<g id="a_edge19_Node000012_Node000006"><a xlink:title=" ">
<path fill="none" stroke="#63b8ff" d="M752.85,-122.68C749.83,-122.1 746.84,-121.54 743.92,-121 660.04,-105.61 563.11,-90.7 498.95,-81.22"/>
<polygon fill="#63b8ff" stroke="#63b8ff" points="499.35,-77.74 488.94,-79.75 498.33,-84.67 499.35,-77.74"/>
</a>
</g>
</g>
<!-- Node13 -->
<g id="Node000013" class="node">
<title>Node13</title>
<g id="a_Node000013"><a xlink:title=" ">
<polygon fill="#e0e0e0" stroke="#999999" points="852.42,-79.5 769.42,-79.5 769.42,-60.5 852.42,-60.5 852.42,-79.5"/>
<text text-anchor="middle" x="810.92" y="-67.5" font-family="Helvetica,sans-Serif" font-size="10.00">bits/stdc++.h</text>
</a>
</g>
</g>
<!-- Node12&#45;&gt;Node13 -->
<g id="edge18_Node000012_Node000013" class="edge">
<title>Node12&#45;&gt;Node13</title>
<g id="a_edge18_Node000012_Node000013"><a xlink:title=" ">
<path fill="none" stroke="#63b8ff" d="M810.92,-120.8C810.92,-111.7 810.92,-99.79 810.92,-89.9"/>
<polygon fill="#63b8ff" stroke="#63b8ff" points="814.42,-89.84 810.92,-79.84 807.42,-89.84 814.42,-89.84"/>
</a>
</g>
</g>
<!-- Node14&#45;&gt;Node3 -->
<g id="edge22_Node000014_Node000003" class="edge">
<title>Node14&#45;&gt;Node3</title>
<g id="a_edge22_Node000014_Node000003"><a xlink:title=" ">
<path fill="none" stroke="#63b8ff" d="M109.88,-126.44C162.66,-104.9 301.23,-48.34 363.2,-23.04"/>
<polygon fill="#63b8ff" stroke="#63b8ff" points="364.87,-26.14 372.81,-19.12 362.23,-19.66 364.87,-26.14"/>
</a>
</g>
</g>
<!-- Node14&#45;&gt;Node6 -->
<g id="edge21_Node000014_Node000006" class="edge">
<title>Node14&#45;&gt;Node6</title>
<g id="a_edge21_Node000014_Node000006"><a xlink:title=" ">
<path fill="none" stroke="#63b8ff" d="M134.29,-126.44C191.26,-115.68 289.65,-97.1 356.7,-84.44"/>
<polygon fill="#63b8ff" stroke="#63b8ff" points="357.59,-87.84 366.77,-82.54 356.29,-80.96 357.59,-87.84"/>
</a>
</g>
</g>
<!-- Node15&#45;&gt;Node6 -->
<g id="edge24_Node000015_Node000006" class="edge">
<title>Node15&#45;&gt;Node6</title>
<g id="a_edge24_Node000015_Node000006"><a xlink:title=" ">
<path fill="none" stroke="#63b8ff" d="M542.98,-126.37C523.49,-116.99 491.76,-101.72 466.55,-89.59"/>
<polygon fill="#63b8ff" stroke="#63b8ff" points="467.78,-86.3 457.25,-85.12 464.75,-92.61 467.78,-86.3"/>
</a>
</g>
</g>
</g>
</svg>
