<?xml version="1.0" encoding="UTF-8" standalone="no"?>
<!DOCTYPE svg PUBLIC "-//W3C//DTD SVG 1.1//EN"
 "http://www.w3.org/Graphics/SVG/1.1/DTD/svg11.dtd">
<!-- Generated by graphviz version 2.43.0 (0)
 -->
<!-- Title: src/main.cpp Pages: 1 -->
<svg width="1172pt" height="214pt"
 viewBox="0.00 0.00 1172.27 214.00" xmlns="http://www.w3.org/2000/svg" xmlns:xlink="http://www.w3.org/1999/xlink">
<g id="graph0" class="graph" transform="scale(1 1) rotate(0) translate(4 210)">
<title>src/main.cpp</title>
<!-- Node1 -->
<g id="Node000001" class="node">
<title>Node1</title>
<g id="a_Node000001"><a xlink:title="Entry point for the FCAI X&#45;O (Tic&#45;Tac&#45;Toe) game.">
<polygon fill="#999999" stroke="#666666" points="670.77,-206 591.77,-206 591.77,-187 670.77,-187 670.77,-206"/>
<text text-anchor="middle" x="631.27" y="-194" font-family="Helvetica,sans-Serif" font-size="10.00">src/main.cpp</text>
</a>
</g>
</g>
<!-- Node2 -->
<g id="Node000002" class="node">
<title>Node2</title>
<g id="a_Node000002"><a xlink:title=" ">
<polygon fill="#e0e0e0" stroke="#999999" points="256.27,-19 196.27,-19 196.27,0 256.27,0 256.27,-19"/>
<text text-anchor="middle" x="226.27" y="-7" font-family="Helvetica,sans-Serif" font-size="10.00">iostream</text>
</a>
</g>
</g>
<!-- Node1&#45;&gt;Node2 -->
<g id="edge1_Node000001_Node000002" class="edge">
<title>Node1&#45;&gt;Node2</title>
<g id="a_edge1_Node000001_Node000002"><a xlink:title=" ">
<path fill="none" stroke="#63b8ff" d="M591.37,-195.7C460.84,-195.94 52.62,-193.28 13.27,-151 -45.72,-87.61 109.57,-39.11 186.29,-19.72"/>
<polygon fill="#63b8ff" stroke="#63b8ff" points="187.26,-23.08 196.12,-17.28 185.58,-16.29 187.26,-23.08"/>
</a>
</g>
</g>
<!-- Node3 -->
<g id="Node000003" class="node">
<title>Node3</title>
<g id="a_Node000003"><a xlink:title=" ">
<polygon fill="#e0e0e0" stroke="#999999" points="483.27,-19 439.27,-19 439.27,0 483.27,0 483.27,-19"/>
<text text-anchor="middle" x="461.27" y="-7" font-family="Helvetica,sans-Serif" font-size="10.00">string</text>
</a>
</g>
</g>
<!-- Node1&#45;&gt;Node3 -->
<g id="edge2_Node000001_Node000003" class="edge">
<title>Node1&#45;&gt;Node3</title>
<g id="a_edge2_Node000001_Node000003"><a xlink:title=" ">
<path fill="none" stroke="#63b8ff" d="M670.84,-193.92C765.37,-189.73 998.19,-176.87 1021.27,-151 1038.94,-131.21 1020.79,-68.11 1005.27,-55 963.46,-19.67 582.64,-27.81 493.5,-18.49"/>
<polygon fill="#63b8ff" stroke="#63b8ff" points="493.88,-15.01 483.51,-17.16 492.96,-21.95 493.88,-15.01"/>
</a>
</g>
</g>
<!-- Node4 -->
<g id="Node000004" class="node">
<title>Node4</title>
<g id="a_Node000004"><a xlink:title=" ">
<polygon fill="#e0e0e0" stroke="#999999" points="894.77,-19 847.77,-19 847.77,0 894.77,0 894.77,-19"/>
<text text-anchor="middle" x="871.27" y="-7" font-family="Helvetica,sans-Serif" font-size="10.00">vector</text>
</a>
</g>
</g>
<!-- Node1&#45;&gt;Node4 -->
<g id="edge3_Node000001_Node000004" class="edge">
<title>Node1&#45;&gt;Node4</title>
<g id="a_edge3_Node000001_Node000004"><a xlink:title=" ">
<path fill="none" stroke="#63b8ff" d="M671.12,-194.11C768.8,-190.28 1014.01,-178.06 1038.27,-151 1053.44,-134.08 1041.81,-72.16 1026.27,-55 995.55,-21.04 940.8,-12.31 905.28,-10.43"/>
<polygon fill="#63b8ff" stroke="#63b8ff" points="905.04,-6.92 894.92,-10.05 904.78,-13.92 905.04,-6.92"/>
</a>
</g>
</g>
<!-- Node5 -->
<g id="Node000005" class="node">
<title>Node5</title>
<g id="a_Node000005"><a xlink:title=" ">
<polygon fill="#e0e0e0" stroke="#999999" points="1164.27,-145.5 1106.27,-145.5 1106.27,-126.5 1164.27,-126.5 1164.27,-145.5"/>
<text text-anchor="middle" x="1135.27" y="-133.5" font-family="Helvetica,sans-Serif" font-size="10.00">memory</text>
</a>
</g>
</g>
<!-- Node1&#45;&gt;Node5 -->
<g id="edge4_Node000001_Node000005" class="edge">
<title>Node1&#45;&gt;Node5</title>
<g id="a_edge4_Node000001_Node000005"><a xlink:title=" ">
<path fill="none" stroke="#63b8ff" d="M670.87,-194.58C751.17,-192.09 938.58,-183.03 1092.27,-151 1095.5,-150.33 1098.83,-149.5 1102.13,-148.58"/>
<polygon fill="#63b8ff" stroke="#63b8ff" points="1103.31,-151.88 1111.87,-145.64 1101.28,-145.18 1103.31,-151.88"/>
</a>
</g>
</g>
<!-- Node6 -->
<g id="Node000006" class="node">
<title>Node6</title>
<g id="a_Node000006"><a xlink:href="BoardGame__Classes_8h.html" target="_top" xlink:title=" ">
<polygon fill="white" stroke="#666666" points="556.27,-85 434.27,-85 434.27,-55 556.27,-55 556.27,-85"/>
<text text-anchor="start" x="442.27" y="-73" font-family="Helvetica,sans-Serif" font-size="10.00">../include/BoardGame</text>
<text text-anchor="middle" x="495.27" y="-62" font-family="Helvetica,sans-Serif" font-size="10.00">_Classes.h</text>
</a>
</g>
</g>
<!-- Node1&#45;&gt;Node6 -->
<g id="edge5_Node000001_Node000006" class="edge">
<title>Node1&#45;&gt;Node6</title>
<g id="a_edge5_Node000001_Node000006"><a xlink:title=" ">
<path fill="none" stroke="#63b8ff" d="M591.44,-194.31C490.5,-190.9 230.88,-179.42 205.27,-151 196.35,-141.09 196.68,-131.2 205.27,-121 232.72,-88.42 347.47,-77.07 424.13,-73.11"/>
<polygon fill="#63b8ff" stroke="#63b8ff" points="424.4,-76.61 434.22,-72.62 424.06,-69.61 424.4,-76.61"/>
</a>
</g>
</g>
<!-- Node8 -->
<g id="Node000008" class="node">
<title>Node8</title>
<g id="a_Node000008"><a xlink:href="Four__Four__XO_8h.html" target="_top" xlink:title=" ">
<polygon fill="white" stroke="#666666" points="353.77,-145.5 214.77,-145.5 214.77,-126.5 353.77,-126.5 353.77,-145.5"/>
<text text-anchor="middle" x="284.27" y="-133.5" font-family="Helvetica,sans-Serif" font-size="10.00">../include/Four_Four_XO.h</text>
</a>
</g>
</g>
<!-- Node1&#45;&gt;Node8 -->
<g id="edge10_Node000001_Node000008" class="edge">
<title>Node1&#45;&gt;Node8</title>
<g id="a_edge10_Node000001_Node000008"><a xlink:title=" ">
<path fill="none" stroke="#63b8ff" d="M591.75,-189.07C539.44,-180.54 444.39,-164.92 363.27,-151 356.45,-149.83 349.29,-148.58 342.2,-147.34"/>
<polygon fill="#63b8ff" stroke="#63b8ff" points="342.34,-143.81 331.88,-145.52 341.13,-150.7 342.34,-143.81"/>
</a>
</g>
</g>
<!-- Node9 -->
<g id="Node000009" class="node">
<title>Node9</title>
<g id="a_Node000009"><a xlink:href="Infinity__XO__Classes_8h.html" target="_top" xlink:title=" ">
<polygon fill="white" stroke="#666666" points="878.27,-151 780.27,-151 780.27,-121 878.27,-121 878.27,-151"/>
<text text-anchor="start" x="788.27" y="-139" font-family="Helvetica,sans-Serif" font-size="10.00">../include/Infinity</text>
<text text-anchor="middle" x="829.27" y="-128" font-family="Helvetica,sans-Serif" font-size="10.00">_XO_Classes.h</text>
</a>
</g>
</g>
<!-- Node1&#45;&gt;Node9 -->
<g id="edge12_Node000001_Node000009" class="edge">
<title>Node1&#45;&gt;Node9</title>
<g id="a_edge12_Node000001_Node000009"><a xlink:title=" ">
<path fill="none" stroke="#63b8ff" d="M660.07,-186.99C689.31,-178.35 735.39,-164.74 772.08,-153.9"/>
<polygon fill="#63b8ff" stroke="#63b8ff" points="773.07,-157.25 781.67,-151.06 771.09,-150.54 773.07,-157.25"/>
</a>
</g>
</g>
<!-- Node11 -->
<g id="Node000011" class="node">
<title>Node11</title>
<g id="a_Node000011"><a xlink:href="Numerical__X__O_8h.html" target="_top" xlink:title=" ">
<polygon fill="white" stroke="#666666" points="486.27,-151 372.27,-151 372.27,-121 486.27,-121 486.27,-151"/>
<text text-anchor="start" x="380.27" y="-139" font-family="Helvetica,sans-Serif" font-size="10.00">../include/Numerical</text>
<text text-anchor="middle" x="429.27" y="-128" font-family="Helvetica,sans-Serif" font-size="10.00">_X_O.h</text>
</a>
</g>
</g>
<!-- Node1&#45;&gt;Node11 -->
<g id="edge15_Node000001_Node000011" class="edge">
<title>Node1&#45;&gt;Node11</title>
<g id="a_edge15_Node000001_Node000011"><a xlink:title=" ">
<path fill="none" stroke="#63b8ff" d="M601.9,-186.99C572.07,-178.35 525.06,-164.74 487.63,-153.9"/>
<polygon fill="#63b8ff" stroke="#63b8ff" points="488.42,-150.48 477.84,-151.06 486.47,-157.21 488.42,-150.48"/>
</a>
</g>
</g>
<!-- Node12 -->
<g id="Node000012" class="node">
<title>Node12</title>
<g id="a_Node000012"><a xlink:href="Misere__Tic__Tac__Toe_8h.html" target="_top" xlink:title="Defines the X&#45;O (Tic&#45;Tac&#45;Toe) specific classes that extend the generic board game framework.">
<polygon fill="white" stroke="#666666" points="1012.27,-151 896.27,-151 896.27,-121 1012.27,-121 1012.27,-151"/>
<text text-anchor="start" x="904.27" y="-139" font-family="Helvetica,sans-Serif" font-size="10.00">../include/Misere_Tic</text>
<text text-anchor="middle" x="954.27" y="-128" font-family="Helvetica,sans-Serif" font-size="10.00">_Tac_Toe.h</text>
</a>
</g>
</g>
<!-- Node1&#45;&gt;Node12 -->
<g id="edge17_Node000001_Node000012" class="edge">
<title>Node1&#45;&gt;Node12</title>
<g id="a_edge17_Node000001_Node000012"><a xlink:title=" ">
<path fill="none" stroke="#63b8ff" d="M670.82,-189.05C719.21,-181.07 803.9,-166.79 886.17,-151.17"/>
<polygon fill="#63b8ff" stroke="#63b8ff" points="887.03,-154.57 896.19,-149.26 885.72,-147.7 887.03,-154.57"/>
</a>
</g>
</g>
<!-- Node14 -->
<g id="Node000014" class="node">
<title>Node14</title>
<g id="a_Node000014"><a xlink:href="SUS__Classes_8h.html" target="_top" xlink:title=" ">
<polygon fill="white" stroke="#666666" points="157.77,-145.5 22.77,-145.5 22.77,-126.5 157.77,-126.5 157.77,-145.5"/>
<text text-anchor="middle" x="90.27" y="-133.5" font-family="Helvetica,sans-Serif" font-size="10.00">../include/SUS_Classes.h</text>
</a>
</g>
</g>
<!-- Node1&#45;&gt;Node14 -->
<g id="edge20_Node000001_Node000014" class="edge">
<title>Node1&#45;&gt;Node14</title>
<g id="a_edge20_Node000001_Node000014"><a xlink:title=" ">
<path fill="none" stroke="#63b8ff" d="M591.56,-192.62C511.86,-186.64 326.82,-171.66 172.27,-151 163.94,-149.89 155.16,-148.55 146.56,-147.16"/>
<polygon fill="#63b8ff" stroke="#63b8ff" points="147.02,-143.69 136.59,-145.51 145.88,-150.6 147.02,-143.69"/>
</a>
</g>
</g>
<!-- Node15 -->
<g id="Node000015" class="node">
<title>Node15</title>
<g id="a_Node000015"><a xlink:href="X__O__5x5_8h.html" target="_top" xlink:title=" ">
<polygon fill="white" stroke="#666666" points="620.27,-145.5 504.27,-145.5 504.27,-126.5 620.27,-126.5 620.27,-145.5"/>
<text text-anchor="middle" x="562.27" y="-133.5" font-family="Helvetica,sans-Serif" font-size="10.00">../include/X_O_5x5.h</text>
</a>
</g>
</g>
<!-- Node1&#45;&gt;Node15 -->
<g id="edge23_Node000001_Node000015" class="edge">
<title>Node1&#45;&gt;Node15</title>
<g id="a_edge23_Node000001_Node000015"><a xlink:title=" ">
<path fill="none" stroke="#63b8ff" d="M621.09,-186.87C610.39,-177.8 593.34,-163.34 580.34,-152.32"/>
<polygon fill="#63b8ff" stroke="#63b8ff" points="582.39,-149.46 572.5,-145.67 577.86,-154.8 582.39,-149.46"/>
</a>
</g>
</g>
<!-- Node16 -->
<g id="Node000016" class="node">
<title>Node16</title>
<g id="a_Node000016"><a xlink:href="Pyramid__XO_8h.html" target="_top" xlink:title=" ">
<polygon fill="white" stroke="#666666" points="761.77,-145.5 638.77,-145.5 638.77,-126.5 761.77,-126.5 761.77,-145.5"/>
<text text-anchor="middle" x="700.27" y="-133.5" font-family="Helvetica,sans-Serif" font-size="10.00">include/Pyramid_XO.h</text>
</a>
</g>
</g>
<!-- Node1&#45;&gt;Node16 -->
<g id="edge25_Node000001_Node000016" class="edge">
<title>Node1&#45;&gt;Node16</title>
<g id="a_edge25_Node000001_Node000016"><a xlink:title=" ">
<path fill="none" stroke="#63b8ff" d="M641.46,-186.87C652.16,-177.8 669.21,-163.34 682.21,-152.32"/>
<polygon fill="#63b8ff" stroke="#63b8ff" points="684.69,-154.8 690.05,-145.67 680.16,-149.46 684.69,-154.8"/>
</a>
</g>
</g>
<!-- Node6&#45;&gt;Node2 -->
<g id="edge8_Node000006_Node000002" class="edge">
<title>Node6&#45;&gt;Node2</title>
<g id="a_edge8_Node000006_Node000002"><a xlink:title=" ">
<path fill="none" stroke="#63b8ff" d="M434.23,-55.73C382.75,-44.53 310.55,-28.83 266.18,-19.18"/>
<polygon fill="#63b8ff" stroke="#63b8ff" points="266.85,-15.74 256.34,-17.04 265.36,-22.58 266.85,-15.74"/>
</a>
</g>
</g>
<!-- Node6&#45;&gt;Node3 -->
<g id="edge6_Node000006_Node000003" class="edge">
<title>Node6&#45;&gt;Node3</title>
<g id="a_edge6_Node000006_Node000003"><a xlink:title=" ">
<path fill="none" stroke="#63b8ff" d="M487.04,-54.84C482.36,-46.78 476.45,-36.62 471.48,-28.06"/>
<polygon fill="#63b8ff" stroke="#63b8ff" points="474.42,-26.15 466.37,-19.27 468.37,-29.67 474.42,-26.15"/>
</a>
</g>
</g>
<!-- Node6&#45;&gt;Node4 -->
<g id="edge7_Node000006_Node000004" class="edge">
<title>Node6&#45;&gt;Node4</title>
<g id="a_edge7_Node000006_Node000004"><a xlink:title=" ">
<path fill="none" stroke="#63b8ff" d="M556.52,-59.47C636.58,-47.01 774.05,-25.63 837.44,-15.76"/>
<polygon fill="#63b8ff" stroke="#63b8ff" points="838.33,-19.17 847.68,-14.17 837.26,-12.25 838.33,-19.17"/>
</a>
</g>
</g>
<!-- Node7 -->
<g id="Node000007" class="node">
<title>Node7</title>
<g id="a_Node000007"><a xlink:title=" ">
<polygon fill="#e0e0e0" stroke="#999999" points="557.27,-19 501.27,-19 501.27,0 557.27,0 557.27,-19"/>
<text text-anchor="middle" x="529.27" y="-7" font-family="Helvetica,sans-Serif" font-size="10.00">iomanip</text>
</a>
</g>
</g>
<!-- Node6&#45;&gt;Node7 -->
<g id="edge9_Node000006_Node000007" class="edge">
<title>Node6&#45;&gt;Node7</title>
<g id="a_edge9_Node000006_Node000007"><a xlink:title=" ">
<path fill="none" stroke="#63b8ff" d="M503.5,-54.84C508.19,-46.78 514.09,-36.62 519.07,-28.06"/>
<polygon fill="#63b8ff" stroke="#63b8ff" points="522.18,-29.67 524.18,-19.27 516.13,-26.15 522.18,-29.67"/>
</a>
</g>
</g>
<!-- Node8&#45;&gt;Node6 -->
<g id="edge11_Node000008_Node000006" class="edge">
<title>Node8&#45;&gt;Node6</title>
<g id="a_edge11_Node000008_Node000006"><a xlink:title=" ">
<path fill="none" stroke="#63b8ff" d="M312.73,-126.37C344.95,-116.6 398.23,-100.43 438.94,-88.09"/>
<polygon fill="#63b8ff" stroke="#63b8ff" points="440.18,-91.37 448.74,-85.12 438.15,-84.67 440.18,-91.37"/>
</a>
</g>
</g>
<!-- Node9&#45;&gt;Node6 -->
<g id="edge14_Node000009_Node000006" class="edge">
<title>Node9&#45;&gt;Node6</title>
<g id="a_edge14_Node000009_Node000006"><a xlink:title=" ">
<path fill="none" stroke="#63b8ff" d="M780.27,-122.96C777.23,-122.28 774.21,-121.62 771.27,-121 701.97,-106.37 622.33,-92.23 566.46,-82.74"/>
<polygon fill="#63b8ff" stroke="#63b8ff" points="566.76,-79.24 556.31,-81.02 565.59,-86.14 566.76,-79.24"/>
</a>
</g>
</g>
<!-- Node10 -->
<g id="Node000010" class="node">
<title>Node10</title>
<g id="a_Node000010"><a xlink:title=" ">
<polygon fill="#e0e0e0" stroke="#999999" points="852.77,-79.5 805.77,-79.5 805.77,-60.5 852.77,-60.5 852.77,-79.5"/>
<text text-anchor="middle" x="829.27" y="-67.5" font-family="Helvetica,sans-Serif" font-size="10.00">queue</text>
</a>
</g>
</g>
<!-- Node9&#45;&gt;Node10 -->
<g id="edge13_Node000009_Node000010" class="edge">
<title>Node9&#45;&gt;Node10</title>
<g id="a_edge13_Node000009_Node000010"><a xlink:title=" ">
<path fill="none" stroke="#63b8ff" d="M829.27,-120.8C829.27,-111.7 829.27,-99.79 829.27,-89.9"/>
<polygon fill="#63b8ff" stroke="#63b8ff" points="832.77,-89.84 829.27,-79.84 825.77,-89.84 832.77,-89.84"/>
</a>
</g>
</g>
<!-- Node11&#45;&gt;Node6 -->
<g id="edge16_Node000011_Node000006" class="edge">
<title>Node11&#45;&gt;Node6</title>
<g id="a_edge16_Node000011_Node000006"><a xlink:title=" ">
<path fill="none" stroke="#63b8ff" d="M443.92,-120.8C452.55,-112.43 463.64,-101.68 473.3,-92.31"/>
<polygon fill="#63b8ff" stroke="#63b8ff" points="475.93,-94.64 480.67,-85.16 471.05,-89.61 475.93,-94.64"/>
</a>
</g>
</g>
<!-- Node12&#45;&gt;Node6 -->
<g id="edge19_Node000012_Node000006" class="edge">
<title>Node12&#45;&gt;Node6</title>
<g id="a_edge19_Node000012_Node000006"><a xlink:title=" ">
<path fill="none" stroke="#63b8ff" d="M896.22,-122.58C893.2,-122.02 890.2,-121.49 887.27,-121 775.9,-102.29 645.68,-86.97 566.9,-78.41"/>
<polygon fill="#63b8ff" stroke="#63b8ff" points="566.92,-74.9 556.6,-77.3 566.17,-81.86 566.92,-74.9"/>
</a>
</g>
</g>
<!-- Node13 -->
<g id="Node000013" class="node">
<title>Node13</title>
<g id="a_Node000013"><a xlink:title=" ">
<polygon fill="#e0e0e0" stroke="#999999" points="995.77,-79.5 912.77,-79.5 912.77,-60.5 995.77,-60.5 995.77,-79.5"/>
<text text-anchor="middle" x="954.27" y="-67.5" font-family="Helvetica,sans-Serif" font-size="10.00">bits/stdc++.h</text>
</a>
</g>
</g>
<!-- Node12&#45;&gt;Node13 -->
<g id="edge18_Node000012_Node000013" class="edge">
<title>Node12&#45;&gt;Node13</title>
<g id="a_edge18_Node000012_Node000013"><a xlink:title=" ">
<path fill="none" stroke="#63b8ff" d="M954.27,-120.8C954.27,-111.7 954.27,-99.79 954.27,-89.9"/>
<polygon fill="#63b8ff" stroke="#63b8ff" points="957.77,-89.84 954.27,-79.84 950.77,-89.84 957.77,-89.84"/>
</a>
</g>
</g>
<!-- Node14&#45;&gt;Node3 -->
<g id="edge22_Node000014_Node000003" class="edge">
<title>Node14&#45;&gt;Node3</title>
<g id="a_edge22_Node000014_Node000003"><a xlink:title=" ">
<path fill="none" stroke="#63b8ff" d="M115.77,-126.44C181.6,-104.35 357.12,-45.45 429.44,-21.18"/>
<polygon fill="#63b8ff" stroke="#63b8ff" points="430.58,-24.49 438.94,-17.99 428.35,-17.86 430.58,-24.49"/>
</a>
</g>
</g>
<!-- Node14&#45;&gt;Node6 -->
<g id="edge21_Node000014_Node000006" class="edge">
<title>Node14&#45;&gt;Node6</title>
<g id="a_edge21_Node000014_Node000006"><a xlink:title=" ">
<path fill="none" stroke="#63b8ff" d="M139.69,-126.44C150.42,-124.61 161.73,-122.72 172.27,-121 258.8,-106.92 358.52,-91.62 424,-81.71"/>
<polygon fill="#63b8ff" stroke="#63b8ff" points="424.84,-85.12 434.21,-80.16 423.8,-78.2 424.84,-85.12"/>
</a>
</g>
</g>
<!-- Node15&#45;&gt;Node6 -->
<g id="edge24_Node000015_Node000006" class="edge">
<title>Node15&#45;&gt;Node6</title>
<g id="a_edge24_Node000015_Node000006"><a xlink:title=" ">
<path fill="none" stroke="#63b8ff" d="M553.24,-126.37C544.07,-117.61 529.52,-103.71 517.3,-92.04"/>
<polygon fill="#63b8ff" stroke="#63b8ff" points="519.7,-89.49 510.05,-85.12 514.87,-94.55 519.7,-89.49"/>
</a>
</g>
</g>
<!-- Node16&#45;&gt;Node6 -->
<g id="edge26_Node000016_Node000006" class="edge">
<title>Node16&#45;&gt;Node6</title>
<g id="a_edge26_Node000016_Node000006"><a xlink:title=" ">
<path fill="none" stroke="#63b8ff" d="M672.63,-126.37C641.39,-116.62 589.77,-100.5 550.26,-88.16"/>
<polygon fill="#63b8ff" stroke="#63b8ff" points="551.08,-84.75 540.49,-85.12 548.99,-91.44 551.08,-84.75"/>
</a>
</g>
</g>
</g>
</svg>
