<?xml version="1.0" encoding="UTF-8" standalone="no"?>
<!DOCTYPE svg PUBLIC "-//W3C//DTD SVG 1.1//EN"
 "http://www.w3.org/Graphics/SVG/1.1/DTD/svg11.dtd">
<!-- Generated by graphviz version 2.43.0 (0)
 -->
<!-- Title: src/Memory_Tic&#45;Tac&#45;Toe.cpp Pages: 1 -->
<svg width="385pt" height="214pt"
 viewBox="0.00 0.00 384.50 214.00" xmlns="http://www.w3.org/2000/svg" xmlns:xlink="http://www.w3.org/1999/xlink">
<g id="graph0" class="graph" transform="scale(1 1) rotate(0) translate(4 210)">
<title>src/Memory_Tic&#45;Tac&#45;Toe.cpp</title>
<!-- Node1 -->
<g id="Node000001" class="node">
<title>Node1</title>
<g id="a_Node000001"><a xlink:title=" ">
<polygon fill="#999999" stroke="#666666" points="182,-206 69,-206 69,-176 182,-176 182,-206"/>
<text text-anchor="start" x="77" y="-194" font-family="Helvetica,sans-Serif" font-size="10.00">src/Memory_Tic&#45;Tac</text>
<text text-anchor="middle" x="125.5" y="-183" font-family="Helvetica,sans-Serif" font-size="10.00">&#45;Toe.cpp</text>
</a>
</g>
</g>
<!-- Node2 -->
<g id="Node000002" class="node">
<title>Node2</title>
<g id="a_Node000002"><a xlink:title=" ">
<polygon fill="#e0e0e0" stroke="#999999" points="83,-74 0,-74 0,-55 83,-55 83,-74"/>
<text text-anchor="middle" x="41.5" y="-62" font-family="Helvetica,sans-Serif" font-size="10.00">bits/stdc++.h</text>
</a>
</g>
</g>
<!-- Node1&#45;&gt;Node2 -->
<g id="edge1_Node000001_Node000002" class="edge">
<title>Node1&#45;&gt;Node2</title>
<g id="a_edge1_Node000001_Node000002"><a xlink:title=" ">
<path fill="none" stroke="#63b8ff" d="M95.24,-175.81C80.66,-167.42 64.27,-155.41 54.5,-140 43.87,-123.22 41.26,-100.26 40.91,-84.28"/>
<polygon fill="#63b8ff" stroke="#63b8ff" points="44.41,-84.08 40.97,-74.06 37.41,-84.04 44.41,-84.08"/>
</a>
</g>
</g>
<!-- Node3 -->
<g id="Node000003" class="node">
<title>Node3</title>
<g id="a_Node000003"><a xlink:href="Memory__Tic-Tac-Toe_8h.html" target="_top" xlink:title=" ">
<polygon fill="white" stroke="#666666" points="187.5,-140 63.5,-140 63.5,-110 187.5,-110 187.5,-140"/>
<text text-anchor="start" x="71.5" y="-128" font-family="Helvetica,sans-Serif" font-size="10.00">../include/Memory_Tic</text>
<text text-anchor="middle" x="125.5" y="-117" font-family="Helvetica,sans-Serif" font-size="10.00">&#45;Tac&#45;Toe.h</text>
</a>
</g>
</g>
<!-- Node1&#45;&gt;Node3 -->
<g id="edge2_Node000001_Node000003" class="edge">
<title>Node1&#45;&gt;Node3</title>
<g id="a_edge2_Node000001_Node000003"><a xlink:title=" ">
<path fill="none" stroke="#63b8ff" d="M125.5,-175.8C125.5,-168.34 125.5,-158.99 125.5,-150.41"/>
<polygon fill="#63b8ff" stroke="#63b8ff" points="129,-150.16 125.5,-140.16 122,-150.16 129,-150.16"/>
</a>
</g>
</g>
<!-- Node9 -->
<g id="Node000009" class="node">
<title>Node9</title>
<g id="a_Node000009"><a xlink:href="Smart__Player_8h.html" target="_top" xlink:title=" ">
<polygon fill="white" stroke="#666666" points="343,-134.5 206,-134.5 206,-115.5 343,-115.5 343,-134.5"/>
<text text-anchor="middle" x="274.5" y="-122.5" font-family="Helvetica,sans-Serif" font-size="10.00">../include/Smart_Player.h</text>
</a>
</g>
</g>
<!-- Node1&#45;&gt;Node9 -->
<g id="edge9_Node000001_Node000009" class="edge">
<title>Node1&#45;&gt;Node9</title>
<g id="a_edge9_Node000001_Node000009"><a xlink:title=" ">
<path fill="none" stroke="#63b8ff" d="M158.2,-175.95C184.21,-164.78 220.28,-149.29 245.33,-138.53"/>
<polygon fill="#63b8ff" stroke="#63b8ff" points="246.86,-141.68 254.67,-134.52 244.1,-135.25 246.86,-141.68"/>
</a>
</g>
</g>
<!-- Node3&#45;&gt;Node2 -->
<g id="edge3_Node000003_Node000002" class="edge">
<title>Node3&#45;&gt;Node2</title>
<g id="a_edge3_Node000003_Node000002"><a xlink:title=" ">
<path fill="none" stroke="#63b8ff" d="M105.17,-109.84C92.23,-100.83 75.51,-89.18 62.45,-80.09"/>
<polygon fill="#63b8ff" stroke="#63b8ff" points="64.29,-77.11 54.09,-74.27 60.29,-82.85 64.29,-77.11"/>
</a>
</g>
</g>
<!-- Node4 -->
<g id="Node000004" class="node">
<title>Node4</title>
<g id="a_Node000004"><a xlink:href="BoardGame__Classes_8h.html" target="_top" xlink:title=" ">
<polygon fill="white" stroke="#666666" points="230.5,-74 104.5,-74 104.5,-55 230.5,-55 230.5,-74"/>
<text text-anchor="middle" x="167.5" y="-62" font-family="Helvetica,sans-Serif" font-size="10.00">BoardGame_Classes.h</text>
</a>
</g>
</g>
<!-- Node3&#45;&gt;Node4 -->
<g id="edge4_Node000003_Node000004" class="edge">
<title>Node3&#45;&gt;Node4</title>
<g id="a_edge4_Node000003_Node000004"><a xlink:title=" ">
<path fill="none" stroke="#63b8ff" d="M135.67,-109.84C141.58,-101.61 149.06,-91.18 155.29,-82.51"/>
<polygon fill="#63b8ff" stroke="#63b8ff" points="158.22,-84.43 161.21,-74.27 152.53,-80.35 158.22,-84.43"/>
</a>
</g>
</g>
<!-- Node5 -->
<g id="Node000005" class="node">
<title>Node5</title>
<g id="a_Node000005"><a xlink:title=" ">
<polygon fill="#e0e0e0" stroke="#999999" points="89.5,-19 45.5,-19 45.5,0 89.5,0 89.5,-19"/>
<text text-anchor="middle" x="67.5" y="-7" font-family="Helvetica,sans-Serif" font-size="10.00">string</text>
</a>
</g>
</g>
<!-- Node4&#45;&gt;Node5 -->
<g id="edge5_Node000004_Node000005" class="edge">
<title>Node4&#45;&gt;Node5</title>
<g id="a_edge5_Node000004_Node000005"><a xlink:title=" ">
<path fill="none" stroke="#63b8ff" d="M151.43,-54.98C135.64,-46.61 111.28,-33.7 92.87,-23.95"/>
<polygon fill="#63b8ff" stroke="#63b8ff" points="94.33,-20.76 83.86,-19.17 91.06,-26.95 94.33,-20.76"/>
</a>
</g>
</g>
<!-- Node6 -->
<g id="Node000006" class="node">
<title>Node6</title>
<g id="a_Node000006"><a xlink:title=" ">
<polygon fill="#e0e0e0" stroke="#999999" points="155,-19 108,-19 108,0 155,0 155,-19"/>
<text text-anchor="middle" x="131.5" y="-7" font-family="Helvetica,sans-Serif" font-size="10.00">vector</text>
</a>
</g>
</g>
<!-- Node4&#45;&gt;Node6 -->
<g id="edge6_Node000004_Node000006" class="edge">
<title>Node4&#45;&gt;Node6</title>
<g id="a_edge6_Node000004_Node000006"><a xlink:title=" ">
<path fill="none" stroke="#63b8ff" d="M161.56,-54.75C156.52,-47.34 149.16,-36.5 142.99,-27.41"/>
<polygon fill="#63b8ff" stroke="#63b8ff" points="145.85,-25.39 137.33,-19.09 140.06,-29.33 145.85,-25.39"/>
</a>
</g>
</g>
<!-- Node7 -->
<g id="Node000007" class="node">
<title>Node7</title>
<g id="a_Node000007"><a xlink:title=" ">
<polygon fill="#e0e0e0" stroke="#999999" points="233.5,-19 173.5,-19 173.5,0 233.5,0 233.5,-19"/>
<text text-anchor="middle" x="203.5" y="-7" font-family="Helvetica,sans-Serif" font-size="10.00">iostream</text>
</a>
</g>
</g>
<!-- Node4&#45;&gt;Node7 -->
<g id="edge7_Node000004_Node000007" class="edge">
<title>Node4&#45;&gt;Node7</title>
<g id="a_edge7_Node000004_Node000007"><a xlink:title=" ">
<path fill="none" stroke="#63b8ff" d="M173.44,-54.75C178.48,-47.34 185.84,-36.5 192.01,-27.41"/>
<polygon fill="#63b8ff" stroke="#63b8ff" points="194.94,-29.33 197.67,-19.09 189.15,-25.39 194.94,-29.33"/>
</a>
</g>
</g>
<!-- Node8 -->
<g id="Node000008" class="node">
<title>Node8</title>
<g id="a_Node000008"><a xlink:title=" ">
<polygon fill="#e0e0e0" stroke="#999999" points="307.5,-19 251.5,-19 251.5,0 307.5,0 307.5,-19"/>
<text text-anchor="middle" x="279.5" y="-7" font-family="Helvetica,sans-Serif" font-size="10.00">iomanip</text>
</a>
</g>
</g>
<!-- Node4&#45;&gt;Node8 -->
<g id="edge8_Node000004_Node000008" class="edge">
<title>Node4&#45;&gt;Node8</title>
<g id="a_edge8_Node000004_Node000008"><a xlink:title=" ">
<path fill="none" stroke="#63b8ff" d="M185.49,-54.98C203.43,-46.5 231.22,-33.35 251.93,-23.54"/>
<polygon fill="#63b8ff" stroke="#63b8ff" points="253.64,-26.61 261.18,-19.17 250.64,-20.28 253.64,-26.61"/>
</a>
</g>
</g>
<!-- Node9&#45;&gt;Node4 -->
<g id="edge10_Node000009_Node000004" class="edge">
<title>Node9&#45;&gt;Node4</title>
<g id="a_edge10_Node000009_Node000004"><a xlink:title=" ">
<path fill="none" stroke="#63b8ff" d="M258.71,-115.37C241.17,-105.78 212.62,-90.17 192.13,-78.97"/>
<polygon fill="#63b8ff" stroke="#63b8ff" points="193.81,-75.89 183.35,-74.17 190.45,-82.04 193.81,-75.89"/>
</a>
</g>
</g>
<!-- Node10 -->
<g id="Node000010" class="node">
<title>Node10</title>
<g id="a_Node000010"><a xlink:title=" ">
<polygon fill="#e0e0e0" stroke="#999999" points="294.5,-74 250.5,-74 250.5,-55 294.5,-55 294.5,-74"/>
<text text-anchor="middle" x="272.5" y="-62" font-family="Helvetica,sans-Serif" font-size="10.00">limits</text>
</a>
</g>
</g>
<!-- Node9&#45;&gt;Node10 -->
<g id="edge11_Node000009_Node000010" class="edge">
<title>Node9&#45;&gt;Node10</title>
<g id="a_edge11_Node000009_Node000010"><a xlink:title=" ">
<path fill="none" stroke="#63b8ff" d="M274.2,-115.37C273.93,-107.25 273.5,-94.81 273.15,-84.39"/>
<polygon fill="#63b8ff" stroke="#63b8ff" points="276.64,-84.04 272.8,-74.17 269.64,-84.28 276.64,-84.04"/>
</a>
</g>
</g>
<!-- Node11 -->
<g id="Node000011" class="node">
<title>Node11</title>
<g id="a_Node000011"><a xlink:title=" ">
<polygon fill="#e0e0e0" stroke="#999999" points="376.5,-74 312.5,-74 312.5,-55 376.5,-55 376.5,-74"/>
<text text-anchor="middle" x="344.5" y="-62" font-family="Helvetica,sans-Serif" font-size="10.00">algorithm</text>
</a>
</g>
</g>
<!-- Node9&#45;&gt;Node11 -->
<g id="edge12_Node000009_Node000011" class="edge">
<title>Node9&#45;&gt;Node11</title>
<g id="a_edge12_Node000009_Node000011"><a xlink:title=" ">
<path fill="none" stroke="#63b8ff" d="M284.83,-115.37C295.69,-106.3 312.99,-91.84 326.17,-80.82"/>
<polygon fill="#63b8ff" stroke="#63b8ff" points="328.7,-83.27 334.13,-74.17 324.21,-77.89 328.7,-83.27"/>
</a>
</g>
</g>
</g>
</svg>
