<?xml version="1.0" encoding="UTF-8" standalone="no"?>
<!DOCTYPE svg PUBLIC "-//W3C//DTD SVG 1.1//EN"
 "http://www.w3.org/Graphics/SVG/1.1/DTD/svg11.dtd">
<!-- Generated by graphviz version 2.43.0 (0)
 -->
<!-- Title: include/Memory_Tic&#45;Tac&#45;Toe.h Pages: 1 -->
<svg width="218pt" height="104pt"
 viewBox="0.00 0.00 218.00 104.00" xmlns="http://www.w3.org/2000/svg" xmlns:xlink="http://www.w3.org/1999/xlink">
<g id="graph0" class="graph" transform="scale(1 1) rotate(0) translate(4 100)">
<title>include/Memory_Tic&#45;Tac&#45;Toe.h</title>
<!-- Node1 -->
<g id="Node000001" class="node">
<title>Node1</title>
<g id="a_Node000001"><a xlink:title=" ">
<polygon fill="#999999" stroke="#666666" points="171,-96 56,-96 56,-66 171,-66 171,-96"/>
<text text-anchor="start" x="64" y="-84" font-family="Helvetica,sans-Serif" font-size="10.00">include/Memory_Tic</text>
<text text-anchor="middle" x="113.5" y="-73" font-family="Helvetica,sans-Serif" font-size="10.00">&#45;Tac&#45;Toe.h</text>
</a>
</g>
</g>
<!-- Node2 -->
<g id="Node000002" class="node">
<title>Node2</title>
<g id="a_Node000002"><a xlink:href="Memory__Tic-Tac-Toe_8cpp.html" target="_top" xlink:title=" ">
<polygon fill="white" stroke="#666666" points="113,-30 0,-30 0,0 113,0 113,-30"/>
<text text-anchor="start" x="8" y="-18" font-family="Helvetica,sans-Serif" font-size="10.00">src/Memory_Tic&#45;Tac</text>
<text text-anchor="middle" x="56.5" y="-7" font-family="Helvetica,sans-Serif" font-size="10.00">&#45;Toe.cpp</text>
</a>
</g>
</g>
<!-- Node1&#45;&gt;Node2 -->
<g id="edge1_Node000001_Node000002" class="edge">
<title>Node1&#45;&gt;Node2</title>
<g id="a_edge1_Node000001_Node000002"><a xlink:title=" ">
<path fill="none" stroke="#63b8ff" d="M93.98,-58.09C85.76,-48.85 76.41,-38.36 69.11,-30.16"/>
<polygon fill="#63b8ff" stroke="#63b8ff" points="91.59,-60.66 100.85,-65.8 96.81,-56 91.59,-60.66"/>
</a>
</g>
</g>
<!-- Node3 -->
<g id="Node000003" class="node">
<title>Node3</title>
<g id="a_Node000003"><a xlink:href="main_8cpp.html" target="_top" xlink:title="Entry point for the FCAI X&#45;O (Tic&#45;Tac&#45;Toe) game.">
<polygon fill="white" stroke="#666666" points="210,-24.5 131,-24.5 131,-5.5 210,-5.5 210,-24.5"/>
<text text-anchor="middle" x="170.5" y="-12.5" font-family="Helvetica,sans-Serif" font-size="10.00">src/main.cpp</text>
</a>
</g>
</g>
<!-- Node1&#45;&gt;Node3 -->
<g id="edge2_Node000001_Node000003" class="edge">
<title>Node1&#45;&gt;Node3</title>
<g id="a_edge2_Node000001_Node000003"><a xlink:title=" ">
<path fill="none" stroke="#63b8ff" d="M132.85,-58.27C143.04,-46.84 154.97,-33.44 162.62,-24.84"/>
<polygon fill="#63b8ff" stroke="#63b8ff" points="130.19,-56 126.15,-65.8 135.41,-60.66 130.19,-56"/>
</a>
</g>
</g>
</g>
</svg>
