<?xml version="1.0" encoding="UTF-8" standalone="no"?>
<!DOCTYPE svg PUBLIC "-//W3C//DTD SVG 1.1//EN"
 "http://www.w3.org/Graphics/SVG/1.1/DTD/svg11.dtd">
<!-- Generated by graphviz version 2.43.0 (0)
 -->
<!-- Title: src/Misere_Tic_Tac_Toe.cpp Pages: 1 -->
<svg width="337pt" height="269pt"
 viewBox="0.00 0.00 337.00 269.00" xmlns="http://www.w3.org/2000/svg" xmlns:xlink="http://www.w3.org/1999/xlink">
<g id="graph0" class="graph" transform="scale(1 1) rotate(0) translate(4 265)">
<title>src/Misere_Tic_Tac_Toe.cpp</title>
<!-- Node1 -->
<g id="Node000001" class="node">
<title>Node1</title>
<g id="a_Node000001"><a xlink:title=" ">
<polygon fill="#999999" stroke="#666666" points="187.5,-261 80.5,-261 80.5,-231 187.5,-231 187.5,-261"/>
<text text-anchor="start" x="88.5" y="-249" font-family="Helvetica,sans-Serif" font-size="10.00">src/Misere_Tic_Tac</text>
<text text-anchor="middle" x="134" y="-238" font-family="Helvetica,sans-Serif" font-size="10.00">_Toe.cpp</text>
</a>
</g>
</g>
<!-- Node2 -->
<g id="Node000002" class="node">
<title>Node2</title>
<g id="a_Node000002"><a xlink:title=" ">
<polygon fill="#e0e0e0" stroke="#999999" points="92.5,-129 9.5,-129 9.5,-110 92.5,-110 92.5,-129"/>
<text text-anchor="middle" x="51" y="-117" font-family="Helvetica,sans-Serif" font-size="10.00">bits/stdc++.h</text>
</a>
</g>
</g>
<!-- Node1&#45;&gt;Node2 -->
<g id="edge1_Node000001_Node000002" class="edge">
<title>Node1&#45;&gt;Node2</title>
<g id="a_edge1_Node000001_Node000002"><a xlink:title=" ">
<path fill="none" stroke="#63b8ff" d="M106.68,-230.91C92.74,-222.35 76.72,-210.15 67,-195 56.19,-178.16 52.57,-155.2 51.41,-139.24"/>
<polygon fill="#63b8ff" stroke="#63b8ff" points="54.9,-138.87 50.94,-129.05 47.91,-139.2 54.9,-138.87"/>
</a>
</g>
</g>
<!-- Node3 -->
<g id="Node000003" class="node">
<title>Node3</title>
<g id="a_Node000003"><a xlink:href="Misere__Tic__Tac__Toe_8h.html" target="_top" xlink:title="Defines the X&#45;O (Tic&#45;Tac&#45;Toe) specific classes that extend the generic board game framework.">
<polygon fill="white" stroke="#666666" points="192,-195 76,-195 76,-165 192,-165 192,-195"/>
<text text-anchor="start" x="84" y="-183" font-family="Helvetica,sans-Serif" font-size="10.00">../include/Misere_Tic</text>
<text text-anchor="middle" x="134" y="-172" font-family="Helvetica,sans-Serif" font-size="10.00">_Tac_Toe.h</text>
</a>
</g>
</g>
<!-- Node1&#45;&gt;Node3 -->
<g id="edge2_Node000001_Node000003" class="edge">
<title>Node1&#45;&gt;Node3</title>
<g id="a_edge2_Node000001_Node000003"><a xlink:title=" ">
<path fill="none" stroke="#63b8ff" d="M134,-230.8C134,-223.34 134,-213.99 134,-205.41"/>
<polygon fill="#63b8ff" stroke="#63b8ff" points="137.5,-205.16 134,-195.16 130.5,-205.16 137.5,-205.16"/>
</a>
</g>
</g>
<!-- Node9 -->
<g id="Node000009" class="node">
<title>Node9</title>
<g id="a_Node000009"><a xlink:href="Smart__Player_8h.html" target="_top" xlink:title=" ">
<polygon fill="white" stroke="#666666" points="284,-129 156,-129 156,-110 284,-110 284,-129"/>
<text text-anchor="middle" x="220" y="-117" font-family="Helvetica,sans-Serif" font-size="10.00">include/Smart_Player.h</text>
</a>
</g>
</g>
<!-- Node1&#45;&gt;Node9 -->
<g id="edge13_Node000001_Node000009" class="edge">
<title>Node1&#45;&gt;Node9</title>
<g id="a_edge13_Node000001_Node000009"><a xlink:title=" ">
<path fill="none" stroke="#63b8ff" d="M160.75,-230.97C174.7,-222.35 190.91,-210.08 201,-195 212.23,-178.22 216.82,-155.25 218.7,-139.27"/>
<polygon fill="#63b8ff" stroke="#63b8ff" points="222.21,-139.34 219.64,-129.06 215.24,-138.7 222.21,-139.34"/>
</a>
</g>
</g>
<!-- Node3&#45;&gt;Node2 -->
<g id="edge3_Node000003_Node000002" class="edge">
<title>Node3&#45;&gt;Node2</title>
<g id="a_edge3_Node000003_Node000002"><a xlink:title=" ">
<path fill="none" stroke="#63b8ff" d="M113.91,-164.84C101.12,-155.83 84.6,-144.18 71.7,-135.09"/>
<polygon fill="#63b8ff" stroke="#63b8ff" points="73.63,-132.17 63.44,-129.27 69.59,-137.89 73.63,-132.17"/>
</a>
</g>
</g>
<!-- Node4 -->
<g id="Node000004" class="node">
<title>Node4</title>
<g id="a_Node000004"><a xlink:href="BoardGame__Classes_8h.html" target="_top" xlink:title=" ">
<polygon fill="white" stroke="#666666" points="185,-74 59,-74 59,-55 185,-55 185,-74"/>
<text text-anchor="middle" x="122" y="-62" font-family="Helvetica,sans-Serif" font-size="10.00">BoardGame_Classes.h</text>
</a>
</g>
</g>
<!-- Node3&#45;&gt;Node4 -->
<g id="edge4_Node000003_Node000004" class="edge">
<title>Node3&#45;&gt;Node4</title>
<g id="a_edge4_Node000003_Node000004"><a xlink:title=" ">
<path fill="none" stroke="#63b8ff" d="M132.48,-164.63C130.32,-144.21 126.37,-106.81 123.98,-84.24"/>
<polygon fill="#63b8ff" stroke="#63b8ff" points="127.46,-83.81 122.92,-74.23 120.49,-84.54 127.46,-83.81"/>
</a>
</g>
</g>
<!-- Node3&#45;&gt;Node9 -->
<g id="edge9_Node000003_Node000009" class="edge">
<title>Node3&#45;&gt;Node9</title>
<g id="a_edge9_Node000003_Node000009"><a xlink:title=" ">
<path fill="none" stroke="#63b8ff" d="M154.82,-164.84C168.15,-155.77 185.39,-144.04 198.79,-134.92"/>
<polygon fill="#63b8ff" stroke="#63b8ff" points="201.07,-137.61 207.37,-129.09 197.13,-131.83 201.07,-137.61"/>
</a>
</g>
</g>
<!-- Node5 -->
<g id="Node000005" class="node">
<title>Node5</title>
<g id="a_Node000005"><a xlink:title=" ">
<polygon fill="#e0e0e0" stroke="#999999" points="44,-19 0,-19 0,0 44,0 44,-19"/>
<text text-anchor="middle" x="22" y="-7" font-family="Helvetica,sans-Serif" font-size="10.00">string</text>
</a>
</g>
</g>
<!-- Node4&#45;&gt;Node5 -->
<g id="edge5_Node000004_Node000005" class="edge">
<title>Node4&#45;&gt;Node5</title>
<g id="a_edge5_Node000004_Node000005"><a xlink:title=" ">
<path fill="none" stroke="#63b8ff" d="M105.93,-54.98C90.14,-46.61 65.78,-33.7 47.37,-23.95"/>
<polygon fill="#63b8ff" stroke="#63b8ff" points="48.83,-20.76 38.36,-19.17 45.56,-26.95 48.83,-20.76"/>
</a>
</g>
</g>
<!-- Node6 -->
<g id="Node000006" class="node">
<title>Node6</title>
<g id="a_Node000006"><a xlink:title=" ">
<polygon fill="#e0e0e0" stroke="#999999" points="109.5,-19 62.5,-19 62.5,0 109.5,0 109.5,-19"/>
<text text-anchor="middle" x="86" y="-7" font-family="Helvetica,sans-Serif" font-size="10.00">vector</text>
</a>
</g>
</g>
<!-- Node4&#45;&gt;Node6 -->
<g id="edge6_Node000004_Node000006" class="edge">
<title>Node4&#45;&gt;Node6</title>
<g id="a_edge6_Node000004_Node000006"><a xlink:title=" ">
<path fill="none" stroke="#63b8ff" d="M116.06,-54.75C111.02,-47.34 103.66,-36.5 97.49,-27.41"/>
<polygon fill="#63b8ff" stroke="#63b8ff" points="100.35,-25.39 91.83,-19.09 94.56,-29.33 100.35,-25.39"/>
</a>
</g>
</g>
<!-- Node7 -->
<g id="Node000007" class="node">
<title>Node7</title>
<g id="a_Node000007"><a xlink:title=" ">
<polygon fill="#e0e0e0" stroke="#999999" points="188,-19 128,-19 128,0 188,0 188,-19"/>
<text text-anchor="middle" x="158" y="-7" font-family="Helvetica,sans-Serif" font-size="10.00">iostream</text>
</a>
</g>
</g>
<!-- Node4&#45;&gt;Node7 -->
<g id="edge7_Node000004_Node000007" class="edge">
<title>Node4&#45;&gt;Node7</title>
<g id="a_edge7_Node000004_Node000007"><a xlink:title=" ">
<path fill="none" stroke="#63b8ff" d="M127.94,-54.75C132.98,-47.34 140.34,-36.5 146.51,-27.41"/>
<polygon fill="#63b8ff" stroke="#63b8ff" points="149.44,-29.33 152.17,-19.09 143.65,-25.39 149.44,-29.33"/>
</a>
</g>
</g>
<!-- Node8 -->
<g id="Node000008" class="node">
<title>Node8</title>
<g id="a_Node000008"><a xlink:title=" ">
<polygon fill="#e0e0e0" stroke="#999999" points="262,-19 206,-19 206,0 262,0 262,-19"/>
<text text-anchor="middle" x="234" y="-7" font-family="Helvetica,sans-Serif" font-size="10.00">iomanip</text>
</a>
</g>
</g>
<!-- Node4&#45;&gt;Node8 -->
<g id="edge8_Node000004_Node000008" class="edge">
<title>Node4&#45;&gt;Node8</title>
<g id="a_edge8_Node000004_Node000008"><a xlink:title=" ">
<path fill="none" stroke="#63b8ff" d="M139.99,-54.98C157.93,-46.5 185.72,-33.35 206.43,-23.54"/>
<polygon fill="#63b8ff" stroke="#63b8ff" points="208.14,-26.61 215.68,-19.17 205.14,-20.28 208.14,-26.61"/>
</a>
</g>
</g>
<!-- Node9&#45;&gt;Node4 -->
<g id="edge10_Node000009_Node000004" class="edge">
<title>Node9&#45;&gt;Node4</title>
<g id="a_edge10_Node000009_Node000004"><a xlink:title=" ">
<path fill="none" stroke="#63b8ff" d="M204.25,-109.98C188.77,-101.61 164.91,-88.7 146.86,-78.95"/>
<polygon fill="#63b8ff" stroke="#63b8ff" points="148.49,-75.85 138.03,-74.17 145.16,-82.01 148.49,-75.85"/>
</a>
</g>
</g>
<!-- Node10 -->
<g id="Node000010" class="node">
<title>Node10</title>
<g id="a_Node000010"><a xlink:title=" ">
<polygon fill="#e0e0e0" stroke="#999999" points="247,-74 203,-74 203,-55 247,-55 247,-74"/>
<text text-anchor="middle" x="225" y="-62" font-family="Helvetica,sans-Serif" font-size="10.00">limits</text>
</a>
</g>
</g>
<!-- Node9&#45;&gt;Node10 -->
<g id="edge11_Node000009_Node000010" class="edge">
<title>Node9&#45;&gt;Node10</title>
<g id="a_edge11_Node000009_Node000010"><a xlink:title=" ">
<path fill="none" stroke="#63b8ff" d="M220.83,-109.75C221.48,-102.8 222.42,-92.85 223.24,-84.13"/>
<polygon fill="#63b8ff" stroke="#63b8ff" points="226.73,-84.37 224.19,-74.09 219.77,-83.72 226.73,-84.37"/>
</a>
</g>
</g>
<!-- Node11 -->
<g id="Node000011" class="node">
<title>Node11</title>
<g id="a_Node000011"><a xlink:title=" ">
<polygon fill="#e0e0e0" stroke="#999999" points="329,-74 265,-74 265,-55 329,-55 329,-74"/>
<text text-anchor="middle" x="297" y="-62" font-family="Helvetica,sans-Serif" font-size="10.00">algorithm</text>
</a>
</g>
</g>
<!-- Node9&#45;&gt;Node11 -->
<g id="edge12_Node000009_Node000011" class="edge">
<title>Node9&#45;&gt;Node11</title>
<g id="a_edge12_Node000009_Node000011"><a xlink:title=" ">
<path fill="none" stroke="#63b8ff" d="M232.37,-109.98C244.09,-101.92 261.92,-89.65 275.89,-80.03"/>
<polygon fill="#63b8ff" stroke="#63b8ff" points="278.15,-82.72 284.4,-74.17 274.18,-76.96 278.15,-82.72"/>
</a>
</g>
</g>
</g>
</svg>
