<?xml version="1.0" encoding="UTF-8" standalone="no"?>
<!DOCTYPE svg PUBLIC "-//W3C//DTD SVG 1.1//EN"
 "http://www.w3.org/Graphics/SVG/1.1/DTD/svg11.dtd">
<!-- Generated by graphviz version 2.43.0 (0)
 -->
<!-- Title: src/Misere_Tic_Tac_Toe.cpp Pages: 1 -->
<svg width="313pt" height="214pt"
 viewBox="0.00 0.00 312.50 214.00" xmlns="http://www.w3.org/2000/svg" xmlns:xlink="http://www.w3.org/1999/xlink">
<g id="graph0" class="graph" transform="scale(1 1) rotate(0) translate(4 210)">
<title>src/Misere_Tic_Tac_Toe.cpp</title>
<!-- Node1 -->
<g id="Node000001" class="node">
<title>Node1</title>
<g id="a_Node000001"><a xlink:title=" ">
<polygon fill="#999999" stroke="#666666" points="138,-206 31,-206 31,-176 138,-176 138,-206"/>
<text text-anchor="start" x="39" y="-194" font-family="Helvetica,sans-Serif" font-size="10.00">src/Misere_Tic_Tac</text>
<text text-anchor="middle" x="84.5" y="-183" font-family="Helvetica,sans-Serif" font-size="10.00">_Toe.cpp</text>
</a>
</g>
</g>
<!-- Node2 -->
<g id="Node000002" class="node">
<title>Node2</title>
<g id="a_Node000002"><a xlink:title=" ">
<polygon fill="#e0e0e0" stroke="#999999" points="83,-74 0,-74 0,-55 83,-55 83,-74"/>
<text text-anchor="middle" x="41.5" y="-62" font-family="Helvetica,sans-Serif" font-size="10.00">bits/stdc++.h</text>
</a>
</g>
</g>
<!-- Node1&#45;&gt;Node2 -->
<g id="edge1_Node000001_Node000002" class="edge">
<title>Node1&#45;&gt;Node2</title>
<g id="a_edge1_Node000001_Node000002"><a xlink:title=" ">
<path fill="none" stroke="#63b8ff" d="M76.8,-175.88C71.66,-166.04 65.04,-152.49 60.5,-140 53.81,-121.61 48.55,-99.84 45.28,-84.6"/>
<polygon fill="#63b8ff" stroke="#63b8ff" points="48.62,-83.47 43.17,-74.39 41.76,-84.89 48.62,-83.47"/>
</a>
</g>
</g>
<!-- Node3 -->
<g id="Node000003" class="node">
<title>Node3</title>
<g id="a_Node000003"><a xlink:href="Misere__Tic__Tac__Toe_8h.html" target="_top" xlink:title="Defines the X&#45;O (Tic&#45;Tac&#45;Toe) specific classes that extend the generic board game framework.">
<polygon fill="white" stroke="#666666" points="185.5,-140 69.5,-140 69.5,-110 185.5,-110 185.5,-140"/>
<text text-anchor="start" x="77.5" y="-128" font-family="Helvetica,sans-Serif" font-size="10.00">../include/Misere_Tic</text>
<text text-anchor="middle" x="127.5" y="-117" font-family="Helvetica,sans-Serif" font-size="10.00">_Tac_Toe.h</text>
</a>
</g>
</g>
<!-- Node1&#45;&gt;Node3 -->
<g id="edge2_Node000001_Node000003" class="edge">
<title>Node1&#45;&gt;Node3</title>
<g id="a_edge2_Node000001_Node000003"><a xlink:title=" ">
<path fill="none" stroke="#63b8ff" d="M94.04,-175.8C99.39,-167.84 106.18,-157.74 112.24,-148.71"/>
<polygon fill="#63b8ff" stroke="#63b8ff" points="115.31,-150.42 117.98,-140.16 109.5,-146.51 115.31,-150.42"/>
</a>
</g>
</g>
<!-- Node3&#45;&gt;Node2 -->
<g id="edge3_Node000003_Node000002" class="edge">
<title>Node3&#45;&gt;Node2</title>
<g id="a_edge3_Node000003_Node000002"><a xlink:title=" ">
<path fill="none" stroke="#63b8ff" d="M106.68,-109.84C93.35,-100.77 76.11,-89.04 62.71,-79.92"/>
<polygon fill="#63b8ff" stroke="#63b8ff" points="64.37,-76.83 54.13,-74.09 60.43,-82.61 64.37,-76.83"/>
</a>
</g>
</g>
<!-- Node4 -->
<g id="Node000004" class="node">
<title>Node4</title>
<g id="a_Node000004"><a xlink:href="BoardGame__Classes_8h.html" target="_top" xlink:title=" ">
<polygon fill="white" stroke="#666666" points="227.5,-74 101.5,-74 101.5,-55 227.5,-55 227.5,-74"/>
<text text-anchor="middle" x="164.5" y="-62" font-family="Helvetica,sans-Serif" font-size="10.00">BoardGame_Classes.h</text>
</a>
</g>
</g>
<!-- Node3&#45;&gt;Node4 -->
<g id="edge4_Node000003_Node000004" class="edge">
<title>Node3&#45;&gt;Node4</title>
<g id="a_edge4_Node000003_Node000004"><a xlink:title=" ">
<path fill="none" stroke="#63b8ff" d="M136.46,-109.84C141.61,-101.69 148.12,-91.4 153.57,-82.78"/>
<polygon fill="#63b8ff" stroke="#63b8ff" points="156.57,-84.59 158.96,-74.27 150.65,-80.85 156.57,-84.59"/>
</a>
</g>
</g>
<!-- Node5 -->
<g id="Node000005" class="node">
<title>Node5</title>
<g id="a_Node000005"><a xlink:title=" ">
<polygon fill="#e0e0e0" stroke="#999999" points="86.5,-19 42.5,-19 42.5,0 86.5,0 86.5,-19"/>
<text text-anchor="middle" x="64.5" y="-7" font-family="Helvetica,sans-Serif" font-size="10.00">string</text>
</a>
</g>
</g>
<!-- Node4&#45;&gt;Node5 -->
<g id="edge5_Node000004_Node000005" class="edge">
<title>Node4&#45;&gt;Node5</title>
<g id="a_edge5_Node000004_Node000005"><a xlink:title=" ">
<path fill="none" stroke="#63b8ff" d="M148.43,-54.98C132.64,-46.61 108.28,-33.7 89.87,-23.95"/>
<polygon fill="#63b8ff" stroke="#63b8ff" points="91.33,-20.76 80.86,-19.17 88.06,-26.95 91.33,-20.76"/>
</a>
</g>
</g>
<!-- Node6 -->
<g id="Node000006" class="node">
<title>Node6</title>
<g id="a_Node000006"><a xlink:title=" ">
<polygon fill="#e0e0e0" stroke="#999999" points="152,-19 105,-19 105,0 152,0 152,-19"/>
<text text-anchor="middle" x="128.5" y="-7" font-family="Helvetica,sans-Serif" font-size="10.00">vector</text>
</a>
</g>
</g>
<!-- Node4&#45;&gt;Node6 -->
<g id="edge6_Node000004_Node000006" class="edge">
<title>Node4&#45;&gt;Node6</title>
<g id="a_edge6_Node000004_Node000006"><a xlink:title=" ">
<path fill="none" stroke="#63b8ff" d="M158.56,-54.75C153.52,-47.34 146.16,-36.5 139.99,-27.41"/>
<polygon fill="#63b8ff" stroke="#63b8ff" points="142.85,-25.39 134.33,-19.09 137.06,-29.33 142.85,-25.39"/>
</a>
</g>
</g>
<!-- Node7 -->
<g id="Node000007" class="node">
<title>Node7</title>
<g id="a_Node000007"><a xlink:title=" ">
<polygon fill="#e0e0e0" stroke="#999999" points="230.5,-19 170.5,-19 170.5,0 230.5,0 230.5,-19"/>
<text text-anchor="middle" x="200.5" y="-7" font-family="Helvetica,sans-Serif" font-size="10.00">iostream</text>
</a>
</g>
</g>
<!-- Node4&#45;&gt;Node7 -->
<g id="edge7_Node000004_Node000007" class="edge">
<title>Node4&#45;&gt;Node7</title>
<g id="a_edge7_Node000004_Node000007"><a xlink:title=" ">
<path fill="none" stroke="#63b8ff" d="M170.44,-54.75C175.48,-47.34 182.84,-36.5 189.01,-27.41"/>
<polygon fill="#63b8ff" stroke="#63b8ff" points="191.94,-29.33 194.67,-19.09 186.15,-25.39 191.94,-29.33"/>
</a>
</g>
</g>
<!-- Node8 -->
<g id="Node000008" class="node">
<title>Node8</title>
<g id="a_Node000008"><a xlink:title=" ">
<polygon fill="#e0e0e0" stroke="#999999" points="304.5,-19 248.5,-19 248.5,0 304.5,0 304.5,-19"/>
<text text-anchor="middle" x="276.5" y="-7" font-family="Helvetica,sans-Serif" font-size="10.00">iomanip</text>
</a>
</g>
</g>
<!-- Node4&#45;&gt;Node8 -->
<g id="edge8_Node000004_Node000008" class="edge">
<title>Node4&#45;&gt;Node8</title>
<g id="a_edge8_Node000004_Node000008"><a xlink:title=" ">
<path fill="none" stroke="#63b8ff" d="M182.49,-54.98C200.43,-46.5 228.22,-33.35 248.93,-23.54"/>
<polygon fill="#63b8ff" stroke="#63b8ff" points="250.64,-26.61 258.18,-19.17 247.64,-20.28 250.64,-26.61"/>
</a>
</g>
</g>
</g>
</svg>
