<?xml version="1.0" encoding="UTF-8" standalone="no"?>
<!DOCTYPE svg PUBLIC "-//W3C//DTD SVG 1.1//EN"
 "http://www.w3.org/Graphics/SVG/1.1/DTD/svg11.dtd">
<!-- Generated by graphviz version 2.43.0 (0)
 -->
<!-- Title: src/Numerical_X_O.cpp Pages: 1 -->
<svg width="471pt" height="203pt"
 viewBox="0.00 0.00 470.50 203.00" xmlns="http://www.w3.org/2000/svg" xmlns:xlink="http://www.w3.org/1999/xlink">
<g id="graph0" class="graph" transform="scale(1 1) rotate(0) translate(4 199)">
<title>src/Numerical_X_O.cpp</title>
<!-- Node1 -->
<g id="Node000001" class="node">
<title>Node1</title>
<g id="a_Node000001"><a xlink:title=" ">
<polygon fill="#999999" stroke="#666666" points="315.5,-195 186.5,-195 186.5,-176 315.5,-176 315.5,-195"/>
<text text-anchor="middle" x="251" y="-183" font-family="Helvetica,sans-Serif" font-size="10.00">src/Numerical_X_O.cpp</text>
</a>
</g>
</g>
<!-- Node2 -->
<g id="Node000002" class="node">
<title>Node2</title>
<g id="a_Node000002"><a xlink:title=" ">
<polygon fill="#e0e0e0" stroke="#999999" points="60,-19 0,-19 0,0 60,0 60,-19"/>
<text text-anchor="middle" x="30" y="-7" font-family="Helvetica,sans-Serif" font-size="10.00">iostream</text>
</a>
</g>
</g>
<!-- Node1&#45;&gt;Node2 -->
<g id="edge1_Node000001_Node000002" class="edge">
<title>Node1&#45;&gt;Node2</title>
<g id="a_edge1_Node000001_Node000002"><a xlink:title=" ">
<path fill="none" stroke="#63b8ff" d="M186.15,-183.01C149.11,-178.87 104.17,-167.81 74,-140 42.24,-110.72 33.4,-57.65 30.94,-29.39"/>
<polygon fill="#63b8ff" stroke="#63b8ff" points="34.42,-28.99 30.25,-19.26 27.44,-29.47 34.42,-28.99"/>
</a>
</g>
</g>
<!-- Node3 -->
<g id="Node000003" class="node">
<title>Node3</title>
<g id="a_Node000003"><a xlink:title=" ">
<polygon fill="#e0e0e0" stroke="#999999" points="262,-19 206,-19 206,0 262,0 262,-19"/>
<text text-anchor="middle" x="234" y="-7" font-family="Helvetica,sans-Serif" font-size="10.00">iomanip</text>
</a>
</g>
</g>
<!-- Node1&#45;&gt;Node3 -->
<g id="edge2_Node000001_Node000003" class="edge">
<title>Node1&#45;&gt;Node3</title>
<g id="a_edge2_Node000001_Node000003"><a xlink:title=" ">
<path fill="none" stroke="#63b8ff" d="M250.13,-175.63C247.48,-148.52 239.45,-66.32 235.82,-29.13"/>
<polygon fill="#63b8ff" stroke="#63b8ff" points="239.3,-28.76 234.84,-19.14 232.33,-29.44 239.3,-28.76"/>
</a>
</g>
</g>
<!-- Node4 -->
<g id="Node000004" class="node">
<title>Node4</title>
<g id="a_Node000004"><a xlink:title=" ">
<polygon fill="#e0e0e0" stroke="#999999" points="294,-134.5 256,-134.5 256,-115.5 294,-115.5 294,-134.5"/>
<text text-anchor="middle" x="275" y="-122.5" font-family="Helvetica,sans-Serif" font-size="10.00">map</text>
</a>
</g>
</g>
<!-- Node1&#45;&gt;Node4 -->
<g id="edge3_Node000001_Node000004" class="edge">
<title>Node1&#45;&gt;Node4</title>
<g id="a_edge3_Node000001_Node000004"><a xlink:title=" ">
<path fill="none" stroke="#63b8ff" d="M254.54,-175.87C257.94,-167.57 263.19,-154.78 267.52,-144.22"/>
<polygon fill="#63b8ff" stroke="#63b8ff" points="270.89,-145.25 271.44,-134.67 264.41,-142.59 270.89,-145.25"/>
</a>
</g>
</g>
<!-- Node5 -->
<g id="Node000005" class="node">
<title>Node5</title>
<g id="a_Node000005"><a xlink:title=" ">
<polygon fill="#e0e0e0" stroke="#999999" points="361.5,-134.5 312.5,-134.5 312.5,-115.5 361.5,-115.5 361.5,-134.5"/>
<text text-anchor="middle" x="337" y="-122.5" font-family="Helvetica,sans-Serif" font-size="10.00">cctype</text>
</a>
</g>
</g>
<!-- Node1&#45;&gt;Node5 -->
<g id="edge4_Node000001_Node000005" class="edge">
<title>Node1&#45;&gt;Node5</title>
<g id="a_edge4_Node000001_Node000005"><a xlink:title=" ">
<path fill="none" stroke="#63b8ff" d="M263.69,-175.87C277.41,-166.54 299.5,-151.51 315.85,-140.38"/>
<polygon fill="#63b8ff" stroke="#63b8ff" points="317.96,-143.19 324.26,-134.67 314.02,-137.4 317.96,-143.19"/>
</a>
</g>
</g>
<!-- Node6 -->
<g id="Node000006" class="node">
<title>Node6</title>
<g id="a_Node000006"><a xlink:href="Numerical__X__O_8h.html" target="_top" xlink:title=" ">
<polygon fill="white" stroke="#666666" points="197,-140 83,-140 83,-110 197,-110 197,-140"/>
<text text-anchor="start" x="91" y="-128" font-family="Helvetica,sans-Serif" font-size="10.00">../include/Numerical</text>
<text text-anchor="middle" x="140" y="-117" font-family="Helvetica,sans-Serif" font-size="10.00">_X_O.h</text>
</a>
</g>
</g>
<!-- Node1&#45;&gt;Node6 -->
<g id="edge5_Node000001_Node000006" class="edge">
<title>Node1&#45;&gt;Node6</title>
<g id="a_edge5_Node000001_Node000006"><a xlink:title=" ">
<path fill="none" stroke="#63b8ff" d="M234.62,-175.87C219.21,-167.75 195.61,-155.31 175.84,-144.89"/>
<polygon fill="#63b8ff" stroke="#63b8ff" points="177.26,-141.68 166.78,-140.11 174,-147.87 177.26,-141.68"/>
</a>
</g>
</g>
<!-- Node10 -->
<g id="Node000010" class="node">
<title>Node10</title>
<g id="a_Node000010"><a xlink:title=" ">
<polygon fill="#e0e0e0" stroke="#999999" points="462.5,-134.5 379.5,-134.5 379.5,-115.5 462.5,-115.5 462.5,-134.5"/>
<text text-anchor="middle" x="421" y="-122.5" font-family="Helvetica,sans-Serif" font-size="10.00">bits/stdc++.h</text>
</a>
</g>
</g>
<!-- Node1&#45;&gt;Node10 -->
<g id="edge11_Node000001_Node000010" class="edge">
<title>Node1&#45;&gt;Node10</title>
<g id="a_edge11_Node000001_Node000010"><a xlink:title=" ">
<path fill="none" stroke="#63b8ff" d="M275.72,-175.99C304.93,-165.94 353.7,-149.16 386.59,-137.84"/>
<polygon fill="#63b8ff" stroke="#63b8ff" points="387.93,-141.08 396.25,-134.52 385.66,-134.46 387.93,-141.08"/>
</a>
</g>
</g>
<!-- Node7 -->
<g id="Node000007" class="node">
<title>Node7</title>
<g id="a_Node000007"><a xlink:href="BoardGame__Classes_8h.html" target="_top" xlink:title=" ">
<polygon fill="white" stroke="#666666" points="200,-74 74,-74 74,-55 200,-55 200,-74"/>
<text text-anchor="middle" x="137" y="-62" font-family="Helvetica,sans-Serif" font-size="10.00">BoardGame_Classes.h</text>
</a>
</g>
</g>
<!-- Node6&#45;&gt;Node7 -->
<g id="edge6_Node000006_Node000007" class="edge">
<title>Node6&#45;&gt;Node7</title>
<g id="a_edge6_Node000006_Node000007"><a xlink:title=" ">
<path fill="none" stroke="#63b8ff" d="M139.27,-109.84C138.88,-102.21 138.4,-92.7 137.97,-84.45"/>
<polygon fill="#63b8ff" stroke="#63b8ff" points="141.46,-84.07 137.45,-74.27 134.47,-84.43 141.46,-84.07"/>
</a>
</g>
</g>
<!-- Node7&#45;&gt;Node2 -->
<g id="edge9_Node000007_Node000002" class="edge">
<title>Node7&#45;&gt;Node2</title>
<g id="a_edge9_Node000007_Node000002"><a xlink:title=" ">
<path fill="none" stroke="#63b8ff" d="M119.81,-54.98C102.75,-46.54 76.37,-33.47 56.6,-23.68"/>
<polygon fill="#63b8ff" stroke="#63b8ff" points="58.02,-20.47 47.5,-19.17 54.91,-26.75 58.02,-20.47"/>
</a>
</g>
</g>
<!-- Node7&#45;&gt;Node3 -->
<g id="edge10_Node000007_Node000003" class="edge">
<title>Node7&#45;&gt;Node3</title>
<g id="a_edge10_Node000007_Node000003"><a xlink:title=" ">
<path fill="none" stroke="#63b8ff" d="M152.58,-54.98C167.77,-46.69 191.1,-33.94 208.9,-24.22"/>
<polygon fill="#63b8ff" stroke="#63b8ff" points="211.03,-27.04 218.13,-19.17 207.68,-20.89 211.03,-27.04"/>
</a>
</g>
</g>
<!-- Node8 -->
<g id="Node000008" class="node">
<title>Node8</title>
<g id="a_Node000008"><a xlink:title=" ">
<polygon fill="#e0e0e0" stroke="#999999" points="122,-19 78,-19 78,0 122,0 122,-19"/>
<text text-anchor="middle" x="100" y="-7" font-family="Helvetica,sans-Serif" font-size="10.00">string</text>
</a>
</g>
</g>
<!-- Node7&#45;&gt;Node8 -->
<g id="edge7_Node000007_Node000008" class="edge">
<title>Node7&#45;&gt;Node8</title>
<g id="a_edge7_Node000007_Node000008"><a xlink:title=" ">
<path fill="none" stroke="#63b8ff" d="M130.89,-54.75C125.72,-47.34 118.15,-36.5 111.81,-27.41"/>
<polygon fill="#63b8ff" stroke="#63b8ff" points="114.59,-25.29 106,-19.09 108.85,-29.29 114.59,-25.29"/>
</a>
</g>
</g>
<!-- Node9 -->
<g id="Node000009" class="node">
<title>Node9</title>
<g id="a_Node000009"><a xlink:title=" ">
<polygon fill="#e0e0e0" stroke="#999999" points="187.5,-19 140.5,-19 140.5,0 187.5,0 187.5,-19"/>
<text text-anchor="middle" x="164" y="-7" font-family="Helvetica,sans-Serif" font-size="10.00">vector</text>
</a>
</g>
</g>
<!-- Node7&#45;&gt;Node9 -->
<g id="edge8_Node000007_Node000009" class="edge">
<title>Node7&#45;&gt;Node9</title>
<g id="a_edge8_Node000007_Node000009"><a xlink:title=" ">
<path fill="none" stroke="#63b8ff" d="M141.46,-54.75C145.12,-47.57 150.41,-37.18 154.95,-28.27"/>
<polygon fill="#63b8ff" stroke="#63b8ff" points="158.2,-29.59 159.62,-19.09 151.97,-26.41 158.2,-29.59"/>
</a>
</g>
</g>
</g>
</svg>
