<?xml version="1.0" encoding="UTF-8" standalone="no"?>
<!DOCTYPE svg PUBLIC "-//W3C//DTD SVG 1.1//EN"
 "http://www.w3.org/Graphics/SVG/1.1/DTD/svg11.dtd">
<!-- Generated by graphviz version 2.43.0 (0)
 -->
<!-- Title: include/Pyramid_XO.h Pages: 1 -->
<svg width="337pt" height="192pt"
 viewBox="0.00 0.00 337.00 192.00" xmlns="http://www.w3.org/2000/svg" xmlns:xlink="http://www.w3.org/1999/xlink">
<g id="graph0" class="graph" transform="scale(1 1) rotate(0) translate(4 188)">
<title>include/Pyramid_XO.h</title>
<!-- Node1 -->
<g id="Node000001" class="node">
<title>Node1</title>
<g id="a_Node000001"><a xlink:title=" ">
<polygon fill="#999999" stroke="#666666" points="234.5,-184 111.5,-184 111.5,-165 234.5,-165 234.5,-184"/>
<text text-anchor="middle" x="173" y="-172" font-family="Helvetica,sans-Serif" font-size="10.00">include/Pyramid_XO.h</text>
</a>
</g>
</g>
<!-- Node2 -->
<g id="Node000002" class="node">
<title>Node2</title>
<g id="a_Node000002"><a xlink:href="BoardGame__Classes_8h.html" target="_top" xlink:title=" ">
<polygon fill="white" stroke="#666666" points="185,-74 59,-74 59,-55 185,-55 185,-74"/>
<text text-anchor="middle" x="122" y="-62" font-family="Helvetica,sans-Serif" font-size="10.00">BoardGame_Classes.h</text>
</a>
</g>
</g>
<!-- Node1&#45;&gt;Node2 -->
<g id="edge1_Node000001_Node000002" class="edge">
<title>Node1&#45;&gt;Node2</title>
<g id="a_edge1_Node000001_Node000002"><a xlink:title=" ">
<path fill="none" stroke="#63b8ff" d="M168.83,-164.66C160.45,-146.93 141.47,-106.73 130.41,-83.32"/>
<polygon fill="#63b8ff" stroke="#63b8ff" points="133.52,-81.71 126.09,-74.16 127.19,-84.7 133.52,-81.71"/>
</a>
</g>
</g>
<!-- Node7 -->
<g id="Node000007" class="node">
<title>Node7</title>
<g id="a_Node000007"><a xlink:href="Smart__Player_8h.html" target="_top" xlink:title=" ">
<polygon fill="white" stroke="#666666" points="262,-129 172,-129 172,-110 262,-110 262,-129"/>
<text text-anchor="middle" x="217" y="-117" font-family="Helvetica,sans-Serif" font-size="10.00">Smart_Player.h</text>
</a>
</g>
</g>
<!-- Node1&#45;&gt;Node7 -->
<g id="edge6_Node000001_Node000007" class="edge">
<title>Node1&#45;&gt;Node7</title>
<g id="a_edge6_Node000001_Node000007"><a xlink:title=" ">
<path fill="none" stroke="#63b8ff" d="M180.27,-164.75C186.54,-157.18 195.79,-146.05 203.43,-136.84"/>
<polygon fill="#63b8ff" stroke="#63b8ff" points="206.17,-139.02 209.87,-129.09 200.79,-134.55 206.17,-139.02"/>
</a>
</g>
</g>
<!-- Node3 -->
<g id="Node000003" class="node">
<title>Node3</title>
<g id="a_Node000003"><a xlink:title=" ">
<polygon fill="#e0e0e0" stroke="#999999" points="44,-19 0,-19 0,0 44,0 44,-19"/>
<text text-anchor="middle" x="22" y="-7" font-family="Helvetica,sans-Serif" font-size="10.00">string</text>
</a>
</g>
</g>
<!-- Node2&#45;&gt;Node3 -->
<g id="edge2_Node000002_Node000003" class="edge">
<title>Node2&#45;&gt;Node3</title>
<g id="a_edge2_Node000002_Node000003"><a xlink:title=" ">
<path fill="none" stroke="#63b8ff" d="M105.93,-54.98C90.14,-46.61 65.78,-33.7 47.37,-23.95"/>
<polygon fill="#63b8ff" stroke="#63b8ff" points="48.83,-20.76 38.36,-19.17 45.56,-26.95 48.83,-20.76"/>
</a>
</g>
</g>
<!-- Node4 -->
<g id="Node000004" class="node">
<title>Node4</title>
<g id="a_Node000004"><a xlink:title=" ">
<polygon fill="#e0e0e0" stroke="#999999" points="109.5,-19 62.5,-19 62.5,0 109.5,0 109.5,-19"/>
<text text-anchor="middle" x="86" y="-7" font-family="Helvetica,sans-Serif" font-size="10.00">vector</text>
</a>
</g>
</g>
<!-- Node2&#45;&gt;Node4 -->
<g id="edge3_Node000002_Node000004" class="edge">
<title>Node2&#45;&gt;Node4</title>
<g id="a_edge3_Node000002_Node000004"><a xlink:title=" ">
<path fill="none" stroke="#63b8ff" d="M116.06,-54.75C111.02,-47.34 103.66,-36.5 97.49,-27.41"/>
<polygon fill="#63b8ff" stroke="#63b8ff" points="100.35,-25.39 91.83,-19.09 94.56,-29.33 100.35,-25.39"/>
</a>
</g>
</g>
<!-- Node5 -->
<g id="Node000005" class="node">
<title>Node5</title>
<g id="a_Node000005"><a xlink:title=" ">
<polygon fill="#e0e0e0" stroke="#999999" points="188,-19 128,-19 128,0 188,0 188,-19"/>
<text text-anchor="middle" x="158" y="-7" font-family="Helvetica,sans-Serif" font-size="10.00">iostream</text>
</a>
</g>
</g>
<!-- Node2&#45;&gt;Node5 -->
<g id="edge4_Node000002_Node000005" class="edge">
<title>Node2&#45;&gt;Node5</title>
<g id="a_edge4_Node000002_Node000005"><a xlink:title=" ">
<path fill="none" stroke="#63b8ff" d="M127.94,-54.75C132.98,-47.34 140.34,-36.5 146.51,-27.41"/>
<polygon fill="#63b8ff" stroke="#63b8ff" points="149.44,-29.33 152.17,-19.09 143.65,-25.39 149.44,-29.33"/>
</a>
</g>
</g>
<!-- Node6 -->
<g id="Node000006" class="node">
<title>Node6</title>
<g id="a_Node000006"><a xlink:title=" ">
<polygon fill="#e0e0e0" stroke="#999999" points="262,-19 206,-19 206,0 262,0 262,-19"/>
<text text-anchor="middle" x="234" y="-7" font-family="Helvetica,sans-Serif" font-size="10.00">iomanip</text>
</a>
</g>
</g>
<!-- Node2&#45;&gt;Node6 -->
<g id="edge5_Node000002_Node000006" class="edge">
<title>Node2&#45;&gt;Node6</title>
<g id="a_edge5_Node000002_Node000006"><a xlink:title=" ">
<path fill="none" stroke="#63b8ff" d="M139.99,-54.98C157.93,-46.5 185.72,-33.35 206.43,-23.54"/>
<polygon fill="#63b8ff" stroke="#63b8ff" points="208.14,-26.61 215.68,-19.17 205.14,-20.28 208.14,-26.61"/>
</a>
</g>
</g>
<!-- Node7&#45;&gt;Node2 -->
<g id="edge7_Node000007_Node000002" class="edge">
<title>Node7&#45;&gt;Node2</title>
<g id="a_edge7_Node000007_Node000002"><a xlink:title=" ">
<path fill="none" stroke="#63b8ff" d="M201.74,-109.98C186.87,-101.69 164.02,-88.94 146.58,-79.22"/>
<polygon fill="#63b8ff" stroke="#63b8ff" points="147.98,-75.99 137.54,-74.17 144.57,-82.1 147.98,-75.99"/>
</a>
</g>
</g>
<!-- Node8 -->
<g id="Node000008" class="node">
<title>Node8</title>
<g id="a_Node000008"><a xlink:title=" ">
<polygon fill="#e0e0e0" stroke="#999999" points="247,-74 203,-74 203,-55 247,-55 247,-74"/>
<text text-anchor="middle" x="225" y="-62" font-family="Helvetica,sans-Serif" font-size="10.00">limits</text>
</a>
</g>
</g>
<!-- Node7&#45;&gt;Node8 -->
<g id="edge8_Node000007_Node000008" class="edge">
<title>Node7&#45;&gt;Node8</title>
<g id="a_edge8_Node000007_Node000008"><a xlink:title=" ">
<path fill="none" stroke="#63b8ff" d="M218.32,-109.75C219.37,-102.8 220.87,-92.85 222.19,-84.13"/>
<polygon fill="#63b8ff" stroke="#63b8ff" points="225.67,-84.5 223.7,-74.09 218.75,-83.45 225.67,-84.5"/>
</a>
</g>
</g>
<!-- Node9 -->
<g id="Node000009" class="node">
<title>Node9</title>
<g id="a_Node000009"><a xlink:title=" ">
<polygon fill="#e0e0e0" stroke="#999999" points="329,-74 265,-74 265,-55 329,-55 329,-74"/>
<text text-anchor="middle" x="297" y="-62" font-family="Helvetica,sans-Serif" font-size="10.00">algorithm</text>
</a>
</g>
</g>
<!-- Node7&#45;&gt;Node9 -->
<g id="edge9_Node000007_Node000009" class="edge">
<title>Node7&#45;&gt;Node9</title>
<g id="a_edge9_Node000007_Node000009"><a xlink:title=" ">
<path fill="none" stroke="#63b8ff" d="M229.85,-109.98C242.14,-101.84 260.91,-89.41 275.48,-79.76"/>
<polygon fill="#63b8ff" stroke="#63b8ff" points="277.51,-82.61 283.91,-74.17 273.64,-76.78 277.51,-82.61"/>
</a>
</g>
</g>
</g>
</svg>
