<?xml version="1.0" encoding="UTF-8" standalone="no"?>
<!DOCTYPE svg PUBLIC "-//W3C//DTD SVG 1.1//EN"
 "http://www.w3.org/Graphics/SVG/1.1/DTD/svg11.dtd">
<!-- Generated by graphviz version 2.43.0 (0)
 -->
<!-- Title: include/Smart_Player.h Pages: 1 -->
<svg width="1161pt" height="159pt"
 viewBox="0.00 0.00 1161.00 159.00" xmlns="http://www.w3.org/2000/svg" xmlns:xlink="http://www.w3.org/1999/xlink">
<g id="graph0" class="graph" transform="scale(1 1) rotate(0) translate(4 155)">
<title>include/Smart_Player.h</title>
<!-- Node1 -->
<g id="Node000001" class="node">
<title>Node1</title>
<g id="a_Node000001"><a xlink:title=" ">
<polygon fill="#999999" stroke="#666666" points="567.5,-151 439.5,-151 439.5,-132 567.5,-132 567.5,-151"/>
<text text-anchor="middle" x="503.5" y="-139" font-family="Helvetica,sans-Serif" font-size="10.00">include/Smart_Player.h</text>
</a>
</g>
</g>
<!-- Node2 -->
<g id="Node000002" class="node">
<title>Node2</title>
<g id="a_Node000002"><a xlink:href="Diamond__Tic__Tac__Toe_8h.html" target="_top" xlink:title=" ">
<polygon fill="white" stroke="#666666" points="170,-96 51,-96 51,-66 170,-66 170,-96"/>
<text text-anchor="start" x="59" y="-84" font-family="Helvetica,sans-Serif" font-size="10.00">include/Diamond_Tic</text>
<text text-anchor="middle" x="110.5" y="-73" font-family="Helvetica,sans-Serif" font-size="10.00">_Tac_Toe.h</text>
</a>
</g>
</g>
<!-- Node1&#45;&gt;Node2 -->
<g id="edge1_Node000001_Node000002" class="edge">
<title>Node1&#45;&gt;Node2</title>
<g id="a_edge1_Node000001_Node000002"><a xlink:title=" ">
<path fill="none" stroke="#63b8ff" d="M429.18,-131.76C363.16,-123.66 264.15,-110.66 178.5,-96 175.77,-95.53 172.98,-95.04 170.16,-94.52"/>
<polygon fill="#63b8ff" stroke="#63b8ff" points="429.13,-135.28 439.48,-133.02 429.98,-128.33 429.13,-135.28"/>
</a>
</g>
</g>
<!-- Node3 -->
<g id="Node000003" class="node">
<title>Node3</title>
<g id="a_Node000003"><a xlink:href="Diamond__Tic__Tac__Toe_8cpp.html" target="_top" xlink:title=" ">
<polygon fill="white" stroke="#666666" points="119,-30 0,-30 0,0 119,0 119,-30"/>
<text text-anchor="start" x="8" y="-18" font-family="Helvetica,sans-Serif" font-size="10.00">src/Diamond_Tic_Tac</text>
<text text-anchor="middle" x="59.5" y="-7" font-family="Helvetica,sans-Serif" font-size="10.00">_Toe.cpp</text>
</a>
</g>
</g>
<!-- Node1&#45;&gt;Node3 -->
<g id="edge10_Node000001_Node000003" class="edge">
<title>Node1&#45;&gt;Node3</title>
<g id="a_edge10_Node000001_Node000003"><a xlink:title=" ">
<path fill="none" stroke="#63b8ff" d="M429.31,-138.71C305.33,-134.94 67.02,-124.1 41.5,-96 24.94,-77.77 38.98,-47.64 49.83,-30.03"/>
<polygon fill="#63b8ff" stroke="#63b8ff" points="429.39,-142.21 439.49,-139.01 429.6,-135.22 429.39,-142.21"/>
</a>
</g>
</g>
<!-- Node5 -->
<g id="Node000005" class="node">
<title>Node5</title>
<g id="a_Node000005"><a xlink:href="Misere__Tic__Tac__Toe_8h.html" target="_top" xlink:title="Defines the X&#45;O (Tic&#45;Tac&#45;Toe) specific classes that extend the generic board game framework.">
<polygon fill="white" stroke="#666666" points="295,-96 188,-96 188,-66 295,-66 295,-96"/>
<text text-anchor="start" x="196" y="-84" font-family="Helvetica,sans-Serif" font-size="10.00">include/Misere_Tic</text>
<text text-anchor="middle" x="241.5" y="-73" font-family="Helvetica,sans-Serif" font-size="10.00">_Tac_Toe.h</text>
</a>
</g>
</g>
<!-- Node1&#45;&gt;Node5 -->
<g id="edge4_Node000001_Node000005" class="edge">
<title>Node1&#45;&gt;Node5</title>
<g id="a_edge4_Node000001_Node000005"><a xlink:title=" ">
<path fill="none" stroke="#63b8ff" d="M455.52,-129.79C410.16,-119.66 342.21,-104.49 295.1,-93.97"/>
<polygon fill="#63b8ff" stroke="#63b8ff" points="454.88,-133.23 465.4,-131.99 456.41,-126.4 454.88,-133.23"/>
</a>
</g>
</g>
<!-- Node6 -->
<g id="Node000006" class="node">
<title>Node6</title>
<g id="a_Node000006"><a xlink:href="Misere__Tic__Tac__Toe_8cpp.html" target="_top" xlink:title=" ">
<polygon fill="white" stroke="#666666" points="377,-30 270,-30 270,0 377,0 377,-30"/>
<text text-anchor="start" x="278" y="-18" font-family="Helvetica,sans-Serif" font-size="10.00">src/Misere_Tic_Tac</text>
<text text-anchor="middle" x="323.5" y="-7" font-family="Helvetica,sans-Serif" font-size="10.00">_Toe.cpp</text>
</a>
</g>
</g>
<!-- Node1&#45;&gt;Node6 -->
<g id="edge13_Node000001_Node000006" class="edge">
<title>Node1&#45;&gt;Node6</title>
<g id="a_edge13_Node000001_Node000006"><a xlink:title=" ">
<path fill="none" stroke="#63b8ff" d="M428.9,-136.21C398.32,-130.7 364.92,-119.26 342.5,-96 325.36,-78.22 322.71,-47.94 322.79,-30.17"/>
<polygon fill="#63b8ff" stroke="#63b8ff" points="428.71,-139.72 439.14,-137.85 429.82,-132.81 428.71,-139.72"/>
</a>
</g>
</g>
<!-- Node7 -->
<g id="Node000007" class="node">
<title>Node7</title>
<g id="a_Node000007"><a xlink:href="Pyramid__XO_8h.html" target="_top" xlink:title=" ">
<polygon fill="white" stroke="#666666" points="475,-90.5 352,-90.5 352,-71.5 475,-71.5 475,-90.5"/>
<text text-anchor="middle" x="413.5" y="-78.5" font-family="Helvetica,sans-Serif" font-size="10.00">include/Pyramid_XO.h</text>
</a>
</g>
</g>
<!-- Node1&#45;&gt;Node7 -->
<g id="edge7_Node000001_Node000007" class="edge">
<title>Node1&#45;&gt;Node7</title>
<g id="a_edge7_Node000001_Node000007"><a xlink:title=" ">
<path fill="none" stroke="#63b8ff" d="M481.44,-126.16C464.34,-115.05 441.21,-100.01 426.83,-90.67"/>
<polygon fill="#63b8ff" stroke="#63b8ff" points="479.93,-129.35 490.22,-131.87 483.74,-123.48 479.93,-129.35"/>
</a>
</g>
</g>
<!-- Node8 -->
<g id="Node000008" class="node">
<title>Node8</title>
<g id="a_Node000008"><a xlink:href="Pyramid__XO_8cpp.html" target="_top" xlink:title=" ">
<polygon fill="white" stroke="#666666" points="534,-24.5 421,-24.5 421,-5.5 534,-5.5 534,-24.5"/>
<text text-anchor="middle" x="477.5" y="-12.5" font-family="Helvetica,sans-Serif" font-size="10.00">src/Pyramid_XO.cpp</text>
</a>
</g>
</g>
<!-- Node1&#45;&gt;Node8 -->
<g id="edge14_Node000001_Node000008" class="edge">
<title>Node1&#45;&gt;Node8</title>
<g id="a_edge14_Node000001_Node000008"><a xlink:title=" ">
<path fill="none" stroke="#63b8ff" d="M499.66,-122.1C493.96,-94.81 483.49,-44.67 479.3,-24.62"/>
<polygon fill="#63b8ff" stroke="#63b8ff" points="496.24,-122.87 501.71,-131.94 503.09,-121.44 496.24,-122.87"/>
</a>
</g>
</g>
<!-- Node9 -->
<g id="Node000009" class="node">
<title>Node9</title>
<g id="a_Node000009"><a xlink:href="Four-in-a-row_8cpp.html" target="_top" xlink:title=" ">
<polygon fill="white" stroke="#666666" points="651,-90.5 532,-90.5 532,-71.5 651,-71.5 651,-90.5"/>
<text text-anchor="middle" x="591.5" y="-78.5" font-family="Helvetica,sans-Serif" font-size="10.00">src/Four&#45;in&#45;a&#45;row.cpp</text>
</a>
</g>
</g>
<!-- Node1&#45;&gt;Node9 -->
<g id="edge11_Node000001_Node000009" class="edge">
<title>Node1&#45;&gt;Node9</title>
<g id="a_edge11_Node000001_Node000009"><a xlink:title=" ">
<path fill="none" stroke="#63b8ff" d="M525.07,-126.16C541.79,-115.05 564.4,-100.01 578.46,-90.67"/>
<polygon fill="#63b8ff" stroke="#63b8ff" points="522.87,-123.42 516.48,-131.87 526.75,-129.25 522.87,-123.42"/>
</a>
</g>
</g>
<!-- Node10 -->
<g id="Node000010" class="node">
<title>Node10</title>
<g id="a_Node000010"><a xlink:href="Memory__Tic-Tac-Toe_8cpp.html" target="_top" xlink:title=" ">
<polygon fill="white" stroke="#666666" points="782,-96 669,-96 669,-66 782,-66 782,-96"/>
<text text-anchor="start" x="677" y="-84" font-family="Helvetica,sans-Serif" font-size="10.00">src/Memory_Tic&#45;Tac</text>
<text text-anchor="middle" x="725.5" y="-73" font-family="Helvetica,sans-Serif" font-size="10.00">&#45;Toe.cpp</text>
</a>
</g>
</g>
<!-- Node1&#45;&gt;Node10 -->
<g id="edge12_Node000001_Node000010" class="edge">
<title>Node1&#45;&gt;Node10</title>
<g id="a_edge12_Node000001_Node000010"><a xlink:title=" ">
<path fill="none" stroke="#63b8ff" d="M545.46,-129.44C581.37,-119.98 633.27,-106.3 672.13,-96.06"/>
<polygon fill="#63b8ff" stroke="#63b8ff" points="544.56,-126.06 535.78,-131.99 546.34,-132.83 544.56,-126.06"/>
</a>
</g>
</g>
<!-- Node11 -->
<g id="Node000011" class="node">
<title>Node11</title>
<g id="a_Node000011"><a xlink:href="SUS__Classes_8cpp.html" target="_top" xlink:title=" ">
<polygon fill="white" stroke="#666666" points="916.5,-90.5 800.5,-90.5 800.5,-71.5 916.5,-71.5 916.5,-90.5"/>
<text text-anchor="middle" x="858.5" y="-78.5" font-family="Helvetica,sans-Serif" font-size="10.00">src/SUS_Classes.cpp</text>
</a>
</g>
</g>
<!-- Node1&#45;&gt;Node11 -->
<g id="edge15_Node000001_Node000011" class="edge">
<title>Node1&#45;&gt;Node11</title>
<g id="a_edge15_Node000001_Node000011"><a xlink:title=" ">
<path fill="none" stroke="#63b8ff" d="M575.12,-130.5C633.5,-122.1 718.01,-109.35 791.5,-96 800.5,-94.37 810.15,-92.45 819.24,-90.56"/>
<polygon fill="#63b8ff" stroke="#63b8ff" points="574.3,-127.09 564.89,-131.97 575.29,-134.02 574.3,-127.09"/>
</a>
</g>
</g>
<!-- Node12 -->
<g id="Node000012" class="node">
<title>Node12</title>
<g id="a_Node000012"><a xlink:href="Words__XO_8cpp.html" target="_top" xlink:title=" ">
<polygon fill="white" stroke="#666666" points="1038,-90.5 935,-90.5 935,-71.5 1038,-71.5 1038,-90.5"/>
<text text-anchor="middle" x="986.5" y="-78.5" font-family="Helvetica,sans-Serif" font-size="10.00">src/Words_XO.cpp</text>
</a>
</g>
</g>
<!-- Node1&#45;&gt;Node12 -->
<g id="edge16_Node000001_Node000012" class="edge">
<title>Node1&#45;&gt;Node12</title>
<g id="a_edge16_Node000001_Node000012"><a xlink:title=" ">
<path fill="none" stroke="#63b8ff" d="M577.84,-135.39C662.42,-128.94 804.52,-116.19 925.5,-96 934.4,-94.52 943.93,-92.52 952.77,-90.51"/>
<polygon fill="#63b8ff" stroke="#63b8ff" points="577.52,-131.9 567.81,-136.14 578.05,-138.88 577.52,-131.9"/>
</a>
</g>
</g>
<!-- Node13 -->
<g id="Node000013" class="node">
<title>Node13</title>
<g id="a_Node000013"><a xlink:href="X__O__5x5_8cpp.html" target="_top" xlink:title=" ">
<polygon fill="white" stroke="#666666" points="1153,-90.5 1056,-90.5 1056,-71.5 1153,-71.5 1153,-90.5"/>
<text text-anchor="middle" x="1104.5" y="-78.5" font-family="Helvetica,sans-Serif" font-size="10.00">src/X_O_5x5.cpp</text>
</a>
</g>
</g>
<!-- Node1&#45;&gt;Node13 -->
<g id="edge17_Node000001_Node000013" class="edge">
<title>Node1&#45;&gt;Node13</title>
<g id="a_edge17_Node000001_Node000013"><a xlink:title=" ">
<path fill="none" stroke="#63b8ff" d="M577.74,-138.17C682.89,-134.02 880.95,-123.09 1047.5,-96 1056.05,-94.61 1065.21,-92.6 1073.62,-90.53"/>
<polygon fill="#63b8ff" stroke="#63b8ff" points="577.41,-134.68 567.55,-138.56 577.68,-141.68 577.41,-134.68"/>
</a>
</g>
</g>
<!-- Node2&#45;&gt;Node3 -->
<g id="edge2_Node000002_Node000003" class="edge">
<title>Node2&#45;&gt;Node3</title>
<g id="a_edge2_Node000002_Node000003"><a xlink:title=" ">
<path fill="none" stroke="#63b8ff" d="M92.82,-57.81C85.51,-48.64 77.25,-38.28 70.79,-30.16"/>
<polygon fill="#63b8ff" stroke="#63b8ff" points="90.21,-60.16 99.18,-65.8 95.69,-55.79 90.21,-60.16"/>
</a>
</g>
</g>
<!-- Node4 -->
<g id="Node000004" class="node">
<title>Node4</title>
<g id="a_Node000004"><a xlink:href="main_8cpp.html" target="_top" xlink:title="Entry point for the FCAI X&#45;O (Tic&#45;Tac&#45;Toe) game.">
<polygon fill="white" stroke="#666666" points="252,-24.5 173,-24.5 173,-5.5 252,-5.5 252,-24.5"/>
<text text-anchor="middle" x="212.5" y="-12.5" font-family="Helvetica,sans-Serif" font-size="10.00">src/main.cpp</text>
</a>
</g>
</g>
<!-- Node2&#45;&gt;Node4 -->
<g id="edge3_Node000002_Node000004" class="edge">
<title>Node2&#45;&gt;Node4</title>
<g id="a_edge3_Node000002_Node000004"><a xlink:title=" ">
<path fill="none" stroke="#63b8ff" d="M141.6,-60.49C160.76,-48.46 184.37,-33.65 198.93,-24.52"/>
<polygon fill="#63b8ff" stroke="#63b8ff" points="139.49,-57.68 132.88,-65.95 143.22,-63.6 139.49,-57.68"/>
</a>
</g>
</g>
<!-- Node5&#45;&gt;Node4 -->
<g id="edge6_Node000005_Node000004" class="edge">
<title>Node5&#45;&gt;Node4</title>
<g id="a_edge6_Node000005_Node000004"><a xlink:title=" ">
<path fill="none" stroke="#63b8ff" d="M230.9,-56.61C225.89,-45.56 220.22,-33.03 216.51,-24.84"/>
<polygon fill="#63b8ff" stroke="#63b8ff" points="227.75,-58.13 235.06,-65.8 234.12,-55.24 227.75,-58.13"/>
</a>
</g>
</g>
<!-- Node5&#45;&gt;Node6 -->
<g id="edge5_Node000005_Node000006" class="edge">
<title>Node5&#45;&gt;Node6</title>
<g id="a_edge5_Node000005_Node000006"><a xlink:title=" ">
<path fill="none" stroke="#63b8ff" d="M267.79,-59.48C280.05,-49.91 294.32,-38.77 305.35,-30.16"/>
<polygon fill="#63b8ff" stroke="#63b8ff" points="265.43,-56.88 259.7,-65.8 269.74,-62.4 265.43,-56.88"/>
</a>
</g>
</g>
<!-- Node7&#45;&gt;Node4 -->
<g id="edge9_Node000007_Node000004" class="edge">
<title>Node7&#45;&gt;Node4</title>
<g id="a_edge9_Node000007_Node000004"><a xlink:title=" ">
<path fill="none" stroke="#63b8ff" d="M376.83,-68.32C337.18,-55.7 274.91,-35.87 239.5,-24.6"/>
<polygon fill="#63b8ff" stroke="#63b8ff" points="375.8,-71.67 386.39,-71.37 377.93,-65 375.8,-71.67"/>
</a>
</g>
</g>
<!-- Node7&#45;&gt;Node8 -->
<g id="edge8_Node000007_Node000008" class="edge">
<title>Node7&#45;&gt;Node8</title>
<g id="a_edge8_Node000007_Node000008"><a xlink:title=" ">
<path fill="none" stroke="#63b8ff" d="M429.52,-63.98C441.88,-51.62 458.51,-34.99 468.59,-24.91"/>
<polygon fill="#63b8ff" stroke="#63b8ff" points="426.73,-61.82 422.13,-71.37 431.68,-66.77 426.73,-61.82"/>
</a>
</g>
</g>
</g>
</svg>
