<?xml version="1.0" encoding="UTF-8" standalone="no"?>
<!DOCTYPE svg PUBLIC "-//W3C//DTD SVG 1.1//EN"
 "http://www.w3.org/Graphics/SVG/1.1/DTD/svg11.dtd">
<!-- Generated by graphviz version 2.43.0 (0)
 -->
<!-- Title: src/SUS_Classes.cpp Pages: 1 -->
<svg width="399pt" height="192pt"
 viewBox="0.00 0.00 399.00 192.00" xmlns="http://www.w3.org/2000/svg" xmlns:xlink="http://www.w3.org/1999/xlink">
<g id="graph0" class="graph" transform="scale(1 1) rotate(0) translate(4 188)">
<title>src/SUS_Classes.cpp</title>
<!-- Node1 -->
<g id="Node000001" class="node">
<title>Node1</title>
<g id="a_Node000001"><a xlink:title=" ">
<polygon fill="#999999" stroke="#666666" points="279.5,-184 163.5,-184 163.5,-165 279.5,-165 279.5,-184"/>
<text text-anchor="middle" x="221.5" y="-172" font-family="Helvetica,sans-Serif" font-size="10.00">src/SUS_Classes.cpp</text>
</a>
</g>
</g>
<!-- Node2 -->
<g id="Node000002" class="node">
<title>Node2</title>
<g id="a_Node000002"><a xlink:href="SUS__Classes_8h.html" target="_top" xlink:title=" ">
<polygon fill="white" stroke="#666666" points="135,-129 0,-129 0,-110 135,-110 135,-129"/>
<text text-anchor="middle" x="67.5" y="-117" font-family="Helvetica,sans-Serif" font-size="10.00">../include/SUS_Classes.h</text>
</a>
</g>
</g>
<!-- Node1&#45;&gt;Node2 -->
<g id="edge1_Node000001_Node000002" class="edge">
<title>Node1&#45;&gt;Node2</title>
<g id="a_edge1_Node000001_Node000002"><a xlink:title=" ">
<path fill="none" stroke="#63b8ff" d="M196.76,-164.98C171.13,-156.16 130.87,-142.31 102.09,-132.41"/>
<polygon fill="#63b8ff" stroke="#63b8ff" points="103.03,-129.03 92.44,-129.08 100.75,-135.65 103.03,-129.03"/>
</a>
</g>
</g>
<!-- Node8 -->
<g id="Node000008" class="node">
<title>Node8</title>
<g id="a_Node000008"><a xlink:href="Smart__Player_8h.html" target="_top" xlink:title=" ">
<polygon fill="white" stroke="#666666" points="290,-129 153,-129 153,-110 290,-110 290,-129"/>
<text text-anchor="middle" x="221.5" y="-117" font-family="Helvetica,sans-Serif" font-size="10.00">../include/Smart_Player.h</text>
</a>
</g>
</g>
<!-- Node1&#45;&gt;Node8 -->
<g id="edge8_Node000001_Node000008" class="edge">
<title>Node1&#45;&gt;Node8</title>
<g id="a_edge8_Node000001_Node000008"><a xlink:title=" ">
<path fill="none" stroke="#63b8ff" d="M221.5,-164.75C221.5,-157.8 221.5,-147.85 221.5,-139.13"/>
<polygon fill="#63b8ff" stroke="#63b8ff" points="225,-139.09 221.5,-129.09 218,-139.09 225,-139.09"/>
</a>
</g>
</g>
<!-- Node11 -->
<g id="Node000011" class="node">
<title>Node11</title>
<g id="a_Node000011"><a xlink:title=" ">
<polygon fill="#e0e0e0" stroke="#999999" points="391,-129 308,-129 308,-110 391,-110 391,-129"/>
<text text-anchor="middle" x="349.5" y="-117" font-family="Helvetica,sans-Serif" font-size="10.00">bits/stdc++.h</text>
</a>
</g>
</g>
<!-- Node1&#45;&gt;Node11 -->
<g id="edge12_Node000001_Node000011" class="edge">
<title>Node1&#45;&gt;Node11</title>
<g id="a_edge12_Node000001_Node000011"><a xlink:title=" ">
<path fill="none" stroke="#63b8ff" d="M242.07,-164.98C262.93,-156.34 295.47,-142.87 319.27,-133.02"/>
<polygon fill="#63b8ff" stroke="#63b8ff" points="320.66,-136.23 328.56,-129.17 317.98,-129.76 320.66,-136.23"/>
</a>
</g>
</g>
<!-- Node3 -->
<g id="Node000003" class="node">
<title>Node3</title>
<g id="a_Node000003"><a xlink:href="BoardGame__Classes_8h.html" target="_top" xlink:title=" ">
<polygon fill="white" stroke="#666666" points="181.5,-74 55.5,-74 55.5,-55 181.5,-55 181.5,-74"/>
<text text-anchor="middle" x="118.5" y="-62" font-family="Helvetica,sans-Serif" font-size="10.00">BoardGame_Classes.h</text>
</a>
</g>
</g>
<!-- Node2&#45;&gt;Node3 -->
<g id="edge2_Node000002_Node000003" class="edge">
<title>Node2&#45;&gt;Node3</title>
<g id="a_edge2_Node000002_Node000003"><a xlink:title=" ">
<path fill="none" stroke="#63b8ff" d="M75.92,-109.75C83.27,-102.11 94.13,-90.82 103.04,-81.56"/>
<polygon fill="#63b8ff" stroke="#63b8ff" points="105.82,-83.72 110.24,-74.09 100.78,-78.87 105.82,-83.72"/>
</a>
</g>
</g>
<!-- Node4 -->
<g id="Node000004" class="node">
<title>Node4</title>
<g id="a_Node000004"><a xlink:title=" ">
<polygon fill="#e0e0e0" stroke="#999999" points="49.5,-19 5.5,-19 5.5,0 49.5,0 49.5,-19"/>
<text text-anchor="middle" x="27.5" y="-7" font-family="Helvetica,sans-Serif" font-size="10.00">string</text>
</a>
</g>
</g>
<!-- Node2&#45;&gt;Node4 -->
<g id="edge7_Node000002_Node000004" class="edge">
<title>Node2&#45;&gt;Node4</title>
<g id="a_edge7_Node000002_Node000004"><a xlink:title=" ">
<path fill="none" stroke="#63b8ff" d="M62.92,-109.8C58.37,-100.96 51.39,-86.76 46.5,-74 40.83,-59.21 35.77,-41.96 32.29,-29.18"/>
<polygon fill="#63b8ff" stroke="#63b8ff" points="35.61,-28.04 29.68,-19.27 28.85,-29.83 35.61,-28.04"/>
</a>
</g>
</g>
<!-- Node3&#45;&gt;Node4 -->
<g id="edge3_Node000003_Node000004" class="edge">
<title>Node3&#45;&gt;Node4</title>
<g id="a_edge3_Node000003_Node000004"><a xlink:title=" ">
<path fill="none" stroke="#63b8ff" d="M103.88,-54.98C89.64,-46.69 67.75,-33.94 51.05,-24.22"/>
<polygon fill="#63b8ff" stroke="#63b8ff" points="52.79,-21.18 42.39,-19.17 49.27,-27.23 52.79,-21.18"/>
</a>
</g>
</g>
<!-- Node5 -->
<g id="Node000005" class="node">
<title>Node5</title>
<g id="a_Node000005"><a xlink:title=" ">
<polygon fill="#e0e0e0" stroke="#999999" points="115,-19 68,-19 68,0 115,0 115,-19"/>
<text text-anchor="middle" x="91.5" y="-7" font-family="Helvetica,sans-Serif" font-size="10.00">vector</text>
</a>
</g>
</g>
<!-- Node3&#45;&gt;Node5 -->
<g id="edge4_Node000003_Node000005" class="edge">
<title>Node3&#45;&gt;Node5</title>
<g id="a_edge4_Node000003_Node000005"><a xlink:title=" ">
<path fill="none" stroke="#63b8ff" d="M114.04,-54.75C110.38,-47.57 105.09,-37.18 100.55,-28.27"/>
<polygon fill="#63b8ff" stroke="#63b8ff" points="103.53,-26.41 95.88,-19.09 97.3,-29.59 103.53,-26.41"/>
</a>
</g>
</g>
<!-- Node6 -->
<g id="Node000006" class="node">
<title>Node6</title>
<g id="a_Node000006"><a xlink:title=" ">
<polygon fill="#e0e0e0" stroke="#999999" points="193.5,-19 133.5,-19 133.5,0 193.5,0 193.5,-19"/>
<text text-anchor="middle" x="163.5" y="-7" font-family="Helvetica,sans-Serif" font-size="10.00">iostream</text>
</a>
</g>
</g>
<!-- Node3&#45;&gt;Node6 -->
<g id="edge5_Node000003_Node000006" class="edge">
<title>Node3&#45;&gt;Node6</title>
<g id="a_edge5_Node000003_Node000006"><a xlink:title=" ">
<path fill="none" stroke="#63b8ff" d="M125.93,-54.75C132.35,-47.18 141.81,-36.05 149.62,-26.84"/>
<polygon fill="#63b8ff" stroke="#63b8ff" points="152.4,-28.98 156.21,-19.09 147.07,-24.45 152.4,-28.98"/>
</a>
</g>
</g>
<!-- Node7 -->
<g id="Node000007" class="node">
<title>Node7</title>
<g id="a_Node000007"><a xlink:title=" ">
<polygon fill="#e0e0e0" stroke="#999999" points="267.5,-19 211.5,-19 211.5,0 267.5,0 267.5,-19"/>
<text text-anchor="middle" x="239.5" y="-7" font-family="Helvetica,sans-Serif" font-size="10.00">iomanip</text>
</a>
</g>
</g>
<!-- Node3&#45;&gt;Node7 -->
<g id="edge6_Node000003_Node000007" class="edge">
<title>Node3&#45;&gt;Node7</title>
<g id="a_edge6_Node000003_Node000007"><a xlink:title=" ">
<path fill="none" stroke="#63b8ff" d="M137.94,-54.98C157.49,-46.42 187.88,-33.11 210.32,-23.28"/>
<polygon fill="#63b8ff" stroke="#63b8ff" points="211.95,-26.39 219.71,-19.17 209.14,-19.98 211.95,-26.39"/>
</a>
</g>
</g>
<!-- Node8&#45;&gt;Node3 -->
<g id="edge9_Node000008_Node000003" class="edge">
<title>Node8&#45;&gt;Node3</title>
<g id="a_edge9_Node000008_Node000003"><a xlink:title=" ">
<path fill="none" stroke="#63b8ff" d="M204.95,-109.98C188.61,-101.57 163.37,-88.59 144.37,-78.81"/>
<polygon fill="#63b8ff" stroke="#63b8ff" points="145.84,-75.63 135.35,-74.17 142.64,-81.86 145.84,-75.63"/>
</a>
</g>
</g>
<!-- Node9 -->
<g id="Node000009" class="node">
<title>Node9</title>
<g id="a_Node000009"><a xlink:title=" ">
<polygon fill="#e0e0e0" stroke="#999999" points="243.5,-74 199.5,-74 199.5,-55 243.5,-55 243.5,-74"/>
<text text-anchor="middle" x="221.5" y="-62" font-family="Helvetica,sans-Serif" font-size="10.00">limits</text>
</a>
</g>
</g>
<!-- Node8&#45;&gt;Node9 -->
<g id="edge10_Node000008_Node000009" class="edge">
<title>Node8&#45;&gt;Node9</title>
<g id="a_edge10_Node000008_Node000009"><a xlink:title=" ">
<path fill="none" stroke="#63b8ff" d="M221.5,-109.75C221.5,-102.8 221.5,-92.85 221.5,-84.13"/>
<polygon fill="#63b8ff" stroke="#63b8ff" points="225,-84.09 221.5,-74.09 218,-84.09 225,-84.09"/>
</a>
</g>
</g>
<!-- Node10 -->
<g id="Node000010" class="node">
<title>Node10</title>
<g id="a_Node000010"><a xlink:title=" ">
<polygon fill="#e0e0e0" stroke="#999999" points="325.5,-74 261.5,-74 261.5,-55 325.5,-55 325.5,-74"/>
<text text-anchor="middle" x="293.5" y="-62" font-family="Helvetica,sans-Serif" font-size="10.00">algorithm</text>
</a>
</g>
</g>
<!-- Node8&#45;&gt;Node10 -->
<g id="edge11_Node000008_Node000010" class="edge">
<title>Node8&#45;&gt;Node10</title>
<g id="a_edge11_Node000008_Node000010"><a xlink:title=" ">
<path fill="none" stroke="#63b8ff" d="M233.07,-109.98C243.92,-102 260.38,-89.88 273.38,-80.31"/>
<polygon fill="#63b8ff" stroke="#63b8ff" points="275.74,-82.92 281.72,-74.17 271.59,-77.28 275.74,-82.92"/>
</a>
</g>
</g>
</g>
</svg>
