<?xml version="1.0" encoding="UTF-8" standalone="no"?>
<!DOCTYPE svg PUBLIC "-//W3C//DTD SVG 1.1//EN"
 "http://www.w3.org/Graphics/SVG/1.1/DTD/svg11.dtd">
<!-- Generated by graphviz version 2.43.0 (0)
 -->
<!-- Title: Check_word Pages: 1 -->
<svg width="588pt" height="52pt"
 viewBox="0.00 0.00 588.00 51.50" xmlns="http://www.w3.org/2000/svg" xmlns:xlink="http://www.w3.org/1999/xlink">
<g id="graph0" class="graph" transform="scale(1 1) rotate(0) translate(4 47.5)">
<title>Check_word</title>
<!-- Node1 -->
<g id="Node000001" class="node">
<title>Node1</title>
<g id="a_Node000001"><a xlink:title=" ">
<polygon fill="#999999" stroke="#666666" points="580,-38 504,-38 504,-19 580,-19 580,-38"/>
<text text-anchor="middle" x="542" y="-26" font-family="Helvetica,sans-Serif" font-size="10.00">Check_word</text>
</a>
</g>
</g>
<!-- Node2 -->
<g id="Node000002" class="node">
<title>Node2</title>
<g id="a_Node000002"><a xlink:href="classWord__XO__Board.html#a423c6610a952ef533ed2ac414992e0bc" target="_top" xlink:title="Checks if the given player has won the game.">
<polygon fill="white" stroke="#666666" points="468,-38 337,-38 337,-19 468,-19 468,-38"/>
<text text-anchor="middle" x="402.5" y="-26" font-family="Helvetica,sans-Serif" font-size="10.00">Word_XO_Board::is_win</text>
</a>
</g>
</g>
<!-- Node1&#45;&gt;Node2 -->
<g id="edge1_Node000001_Node000002" class="edge">
<title>Node1&#45;&gt;Node2</title>
<g id="a_edge1_Node000001_Node000002"><a xlink:title=" ">
<path fill="none" stroke="#63b8ff" d="M493.62,-28.5C485.36,-28.5 476.65,-28.5 468.03,-28.5"/>
<polygon fill="#63b8ff" stroke="#63b8ff" points="493.79,-32 503.79,-28.5 493.79,-25 493.79,-32"/>
</a>
</g>
</g>
<!-- Node3 -->
<g id="Node000003" class="node">
<title>Node3</title>
<g id="a_Node000003"><a xlink:href="classWord__XO__Board.html#a1c3f48151ea759156dea95cc7d5ee362" target="_top" xlink:title="Determines if the game is over (win or draw).">
<polygon fill="white" stroke="#666666" points="128,-43.5 0,-43.5 0,-13.5 128,-13.5 128,-43.5"/>
<text text-anchor="start" x="8" y="-31.5" font-family="Helvetica,sans-Serif" font-size="10.00">Word_XO_Board::game</text>
<text text-anchor="middle" x="64" y="-20.5" font-family="Helvetica,sans-Serif" font-size="10.00">_is_over</text>
</a>
</g>
</g>
<!-- Node2&#45;&gt;Node3 -->
<g id="edge2_Node000002_Node000003" class="edge">
<title>Node2&#45;&gt;Node3</title>
<g id="a_edge2_Node000002_Node000003"><a xlink:title=" ">
<path fill="none" stroke="#63b8ff" d="M326.52,-28.5C266.93,-28.5 184.54,-28.5 128.26,-28.5"/>
<polygon fill="#63b8ff" stroke="#63b8ff" points="326.62,-32 336.62,-28.5 326.62,-25 326.62,-32"/>
</a>
</g>
</g>
<!-- Node4 -->
<g id="Node000004" class="node">
<title>Node4</title>
<g id="a_Node000004"><a xlink:href="classWord__XO__Board.html#a8c05ad3bda2665753e852b60144bd520" target="_top" xlink:title="Checks if the game has ended in a draw.">
<polygon fill="white" stroke="#666666" points="301,-19 164,-19 164,0 301,0 301,-19"/>
<text text-anchor="middle" x="232.5" y="-7" font-family="Helvetica,sans-Serif" font-size="10.00">Word_XO_Board::is_draw</text>
</a>
</g>
</g>
<!-- Node2&#45;&gt;Node4 -->
<g id="edge3_Node000002_Node000004" class="edge">
<title>Node2&#45;&gt;Node4</title>
<g id="a_edge3_Node000002_Node000004"><a xlink:title=" ">
<path fill="none" stroke="#63b8ff" d="M326.35,-20C317.93,-19.05 309.38,-18.08 301.06,-17.14"/>
<polygon fill="#63b8ff" stroke="#63b8ff" points="326.22,-23.51 336.55,-21.15 327,-16.55 326.22,-23.51"/>
</a>
</g>
</g>
<!-- Node4&#45;&gt;Node3 -->
<g id="edge4_Node000004_Node000003" class="edge">
<title>Node4&#45;&gt;Node3</title>
<g id="a_edge4_Node000004_Node000003"><a xlink:title=" ">
<path fill="none" stroke="#63b8ff" d="M153.75,-18.37C145.15,-19.35 136.48,-20.34 128.09,-21.3"/>
<polygon fill="#63b8ff" stroke="#63b8ff" points="154.24,-21.84 163.78,-17.23 153.45,-14.88 154.24,-21.84"/>
</a>
</g>
</g>
</g>
</svg>
