<?xml version="1.0" encoding="UTF-8" standalone="no"?>
<!DOCTYPE svg PUBLIC "-//W3C//DTD SVG 1.1//EN"
 "http://www.w3.org/Graphics/SVG/1.1/DTD/svg11.dtd">
<!-- Generated by graphviz version 2.43.0 (0)
 -->
<!-- Title: include/Words_XO.h Pages: 1 -->
<svg width="208pt" height="82pt"
 viewBox="0.00 0.00 208.00 82.00" xmlns="http://www.w3.org/2000/svg" xmlns:xlink="http://www.w3.org/1999/xlink">
<g id="graph0" class="graph" transform="scale(1 1) rotate(0) translate(4 78)">
<title>include/Words_XO.h</title>
<!-- Node1 -->
<g id="Node000001" class="node">
<title>Node1</title>
<g id="a_Node000001"><a xlink:title="Defines the Word Tic&#45;Tac&#45;Toe specific classes that extend the generic board game framework.">
<polygon fill="#999999" stroke="#666666" points="162,-74 49,-74 49,-55 162,-55 162,-74"/>
<text text-anchor="middle" x="105.5" y="-62" font-family="Helvetica,sans-Serif" font-size="10.00">include/Words_XO.h</text>
</a>
</g>
</g>
<!-- Node2 -->
<g id="Node000002" class="node">
<title>Node2</title>
<g id="a_Node000002"><a xlink:href="Words__XO_8cpp.html" target="_top" xlink:title=" ">
<polygon fill="white" stroke="#666666" points="103,-19 0,-19 0,0 103,0 103,-19"/>
<text text-anchor="middle" x="51.5" y="-7" font-family="Helvetica,sans-Serif" font-size="10.00">src/Words_XO.cpp</text>
</a>
</g>
</g>
<!-- Node1&#45;&gt;Node2 -->
<g id="edge1_Node000001_Node000002" class="edge">
<title>Node1&#45;&gt;Node2</title>
<g id="a_edge1_Node000001_Node000002"><a xlink:title=" ">
<path fill="none" stroke="#63b8ff" d="M89.22,-47.52C79.7,-38.18 68.06,-26.75 60.25,-19.09"/>
<polygon fill="#63b8ff" stroke="#63b8ff" points="86.99,-50.24 96.58,-54.75 91.9,-45.25 86.99,-50.24"/>
</a>
</g>
</g>
<!-- Node3 -->
<g id="Node000003" class="node">
<title>Node3</title>
<g id="a_Node000003"><a xlink:href="main_8cpp.html" target="_top" xlink:title="Entry point for the FCAI X&#45;O (Tic&#45;Tac&#45;Toe) game.">
<polygon fill="white" stroke="#666666" points="200,-19 121,-19 121,0 200,0 200,-19"/>
<text text-anchor="middle" x="160.5" y="-7" font-family="Helvetica,sans-Serif" font-size="10.00">src/main.cpp</text>
</a>
</g>
</g>
<!-- Node1&#45;&gt;Node3 -->
<g id="edge2_Node000001_Node000003" class="edge">
<title>Node1&#45;&gt;Node3</title>
<g id="a_edge2_Node000001_Node000003"><a xlink:title=" ">
<path fill="none" stroke="#63b8ff" d="M121.79,-47.8C131.54,-38.41 143.55,-26.83 151.59,-19.09"/>
<polygon fill="#63b8ff" stroke="#63b8ff" points="119.35,-45.29 114.58,-54.75 124.21,-50.33 119.35,-45.29"/>
</a>
</g>
</g>
</g>
</svg>
